<?xml version="1.0" encoding="utf-8"?>
<!-- Generator: Adobe Illustrator 16.0.0, SVG Export Plug-In . SVG Version: 6.00 Build 0)  -->
<!DOCTYPE svg PUBLIC "-//W3C//DTD SVG 1.1//EN" "http://www.w3.org/Graphics/SVG/1.1/DTD/svg11.dtd">
<svg version="1.1" id="Layer_1" xmlns="http://www.w3.org/2000/svg" xmlns:xlink="http://www.w3.org/1999/xlink" x="0px" y="0px"
	 width="527.674px" height="706.522px" viewBox="0 0 527.674 706.522" enable-background="new 0 0 527.674 706.522"
	 xml:space="preserve">
<g>
	<polygon fill-rule="evenodd" clip-rule="evenodd" fill="#FFFFFF" points="459.738,129.015 394.637,129.015 394.637,95.161 
		524.842,95.161 524.842,129.015 459.738,129.015 	"/>
	<path fill-rule="evenodd" clip-rule="evenodd" fill="#1B1B1B" d="M402.938,120.403v-1.501c0.396-0.907,0.879-1.7,1.445-2.408
		s1.189-1.332,1.812-1.898c0.623-0.567,1.246-1.105,1.869-1.586c0.625-0.482,1.191-0.963,1.701-1.445
		c0.48-0.481,0.906-0.991,1.217-1.53c0.283-0.538,0.455-1.133,0.455-1.813c0-0.453-0.086-0.878-0.229-1.218
		c-0.141-0.368-0.34-0.68-0.594-0.906c-0.256-0.255-0.596-0.425-0.963-0.539c-0.369-0.142-0.766-0.198-1.219-0.198
		c-0.426,0-0.822,0.057-1.189,0.17c-0.396,0.142-0.709,0.312-0.992,0.539c-0.311,0.227-0.537,0.538-0.709,0.878
		c-0.197,0.34-0.311,0.737-0.367,1.218l-2.152-0.198c0.057-0.595,0.227-1.162,0.48-1.671c0.256-0.539,0.623-0.992,1.076-1.388
		s0.992-0.708,1.645-0.935c0.623-0.227,1.359-0.34,2.209-0.34c0.822,0,1.529,0.085,2.182,0.283c0.65,0.198,1.189,0.482,1.615,0.878
		c0.453,0.396,0.793,0.85,1.02,1.417c0.227,0.566,0.34,1.218,0.34,1.955c0,0.538-0.086,1.077-0.283,1.586
		c-0.199,0.482-0.482,0.963-0.793,1.417c-0.34,0.453-0.736,0.907-1.162,1.332c-0.426,0.396-0.906,0.822-1.359,1.218
		c-0.482,0.396-0.963,0.821-1.445,1.19c-0.482,0.396-0.936,0.793-1.359,1.218c-0.426,0.396-0.822,0.793-1.162,1.189
		c-0.34,0.425-0.596,0.85-0.793,1.303h8.611v1.785H402.938L402.938,120.403z"/>
	<path fill-rule="evenodd" clip-rule="evenodd" fill="#1B1B1B" d="M419.539,117.825v1.983c0,0.425,0,0.793-0.057,1.133
		c-0.029,0.34-0.086,0.652-0.17,0.935c-0.057,0.312-0.17,0.566-0.283,0.85c-0.113,0.255-0.256,0.51-0.396,0.765h-1.445
		c0.369-0.51,0.623-1.048,0.822-1.558c0.197-0.51,0.283-1.02,0.283-1.53h-1.02v-2.578H419.539L419.539,117.825z"/>
	<path fill-rule="evenodd" clip-rule="evenodd" fill="#1B1B1B" d="M434.1,115.02c0,0.822-0.141,1.586-0.396,2.266
		c-0.254,0.68-0.623,1.275-1.104,1.785c-0.482,0.481-1.105,0.878-1.842,1.161c-0.736,0.255-1.559,0.397-2.521,0.397
		c-0.879,0-1.643-0.113-2.266-0.312c-0.652-0.199-1.191-0.482-1.645-0.822c-0.453-0.368-0.793-0.793-1.047-1.247
		c-0.283-0.481-0.453-0.992-0.568-1.558l2.125-0.227c0.086,0.312,0.199,0.595,0.369,0.906c0.17,0.284,0.367,0.539,0.652,0.793
		c0.254,0.227,0.594,0.396,0.99,0.539c0.396,0.142,0.879,0.198,1.416,0.198c0.568,0,1.049-0.085,1.502-0.255
		c0.453-0.17,0.822-0.396,1.133-0.736c0.312-0.34,0.568-0.737,0.738-1.218c0.17-0.453,0.254-1.02,0.254-1.615
		c0-0.51-0.084-0.992-0.254-1.417c-0.143-0.425-0.398-0.793-0.682-1.105c-0.311-0.312-0.68-0.538-1.133-0.708
		c-0.424-0.17-0.934-0.255-1.502-0.255c-0.34,0-0.68,0.028-0.963,0.085c-0.311,0.057-0.594,0.142-0.82,0.255
		c-0.256,0.113-0.51,0.255-0.709,0.396s-0.396,0.283-0.566,0.453h-2.068l0.539-8.896h9.404v1.785h-7.479l-0.312,5.241
		c0.369-0.283,0.852-0.538,1.418-0.736c0.537-0.199,1.217-0.312,1.982-0.312c0.822,0,1.559,0.113,2.209,0.369
		c0.682,0.255,1.219,0.623,1.701,1.076c0.453,0.454,0.793,0.992,1.047,1.615C433.959,113.575,434.1,114.255,434.1,115.02
		L434.1,115.02z"/>
	<path fill-rule="evenodd" clip-rule="evenodd" fill="#1B1B1B" d="M447.473,112.13c0,1.586-0.143,2.918-0.453,3.995
		c-0.312,1.104-0.709,1.955-1.219,2.635c-0.539,0.68-1.133,1.133-1.842,1.444c-0.707,0.284-1.445,0.425-2.238,0.425
		c-0.82,0-1.557-0.142-2.266-0.425c-0.68-0.312-1.303-0.765-1.812-1.444c-0.51-0.652-0.908-1.53-1.191-2.606
		c-0.311-1.077-0.453-2.437-0.453-4.023c0-1.671,0.143-3.031,0.453-4.136c0.283-1.077,0.682-1.955,1.191-2.606
		c0.537-0.651,1.133-1.105,1.84-1.36c0.709-0.255,1.475-0.396,2.295-0.396c0.793,0,1.531,0.142,2.211,0.396
		c0.707,0.255,1.303,0.708,1.812,1.36c0.51,0.652,0.936,1.53,1.219,2.606C447.33,109.099,447.473,110.459,447.473,112.13
		L447.473,112.13z M445.318,112.13c0-1.303-0.057-2.408-0.227-3.287c-0.141-0.85-0.396-1.558-0.68-2.068
		c-0.311-0.538-0.68-0.907-1.133-1.105c-0.424-0.227-0.936-0.34-1.502-0.34c-0.594,0-1.104,0.113-1.557,0.34
		c-0.455,0.227-0.852,0.595-1.162,1.105c-0.312,0.51-0.539,1.218-0.68,2.097c-0.17,0.878-0.256,1.955-0.256,3.258
		c0,1.275,0.086,2.323,0.256,3.201c0.141,0.878,0.396,1.558,0.707,2.097c0.312,0.51,0.68,0.906,1.135,1.133
		c0.424,0.227,0.934,0.34,1.5,0.34s1.078-0.113,1.502-0.34c0.453-0.227,0.822-0.623,1.133-1.133
		c0.312-0.539,0.539-1.218,0.709-2.097S445.318,113.405,445.318,112.13L445.318,112.13z"/>
	<path fill-rule="evenodd" clip-rule="evenodd" fill="#1B1B1B" d="M460.674,114.992c0,0.822-0.113,1.586-0.34,2.294
		c-0.227,0.68-0.566,1.275-1.02,1.757c-0.453,0.51-1.02,0.906-1.672,1.161c-0.68,0.284-1.445,0.425-2.295,0.425
		c-0.963,0-1.812-0.17-2.521-0.539c-0.736-0.368-1.33-0.906-1.812-1.615c-0.453-0.68-0.822-1.53-1.049-2.521
		c-0.254-1.02-0.367-2.153-0.367-3.428c0-1.473,0.141-2.776,0.396-3.881c0.283-1.104,0.68-2.04,1.16-2.776
		c0.512-0.736,1.135-1.303,1.871-1.671c0.736-0.368,1.559-0.566,2.465-0.566c0.566,0,1.104,0.057,1.586,0.17
		c0.51,0.113,0.936,0.312,1.359,0.567c0.396,0.283,0.736,0.623,1.049,1.048c0.311,0.425,0.539,0.963,0.736,1.586l-2.012,0.369
		c-0.227-0.708-0.566-1.247-1.047-1.559c-0.482-0.312-1.049-0.481-1.672-0.481c-0.596,0-1.105,0.142-1.588,0.425
		c-0.453,0.284-0.85,0.68-1.189,1.218c-0.34,0.539-0.566,1.218-0.764,2.04c-0.17,0.821-0.256,1.785-0.256,2.89
		c0.396-0.708,0.936-1.247,1.615-1.615c0.707-0.369,1.502-0.567,2.379-0.567c0.766,0,1.445,0.113,2.041,0.369
		c0.623,0.227,1.133,0.595,1.586,1.048c0.424,0.453,0.766,1.02,0.992,1.671C460.561,113.462,460.674,114.17,460.674,114.992
		L460.674,114.992z M458.521,115.077c0-0.567-0.057-1.077-0.199-1.53c-0.141-0.453-0.367-0.85-0.65-1.19
		c-0.283-0.312-0.623-0.566-1.021-0.737c-0.424-0.17-0.906-0.255-1.443-0.255c-0.396,0-0.766,0.057-1.162,0.17
		c-0.396,0.085-0.736,0.284-1.076,0.539c-0.312,0.255-0.566,0.595-0.766,0.992c-0.197,0.425-0.311,0.935-0.311,1.53
		c0,0.595,0.084,1.161,0.254,1.7c0.143,0.51,0.369,0.991,0.68,1.36c0.283,0.396,0.623,0.708,1.049,0.935
		c0.426,0.227,0.879,0.34,1.389,0.34s0.963-0.085,1.359-0.255c0.426-0.199,0.766-0.425,1.049-0.765
		c0.254-0.34,0.48-0.737,0.623-1.218C458.465,116.21,458.521,115.671,458.521,115.077L458.521,115.077z"/>
	<path fill-rule="evenodd" clip-rule="evenodd" fill="#1B1B1B" d="M484.414,120.403v-11.021c0-0.396,0-0.793,0-1.218
		c0.029-0.425,0.029-0.793,0.057-1.133c0-0.396,0.029-0.793,0.057-1.162c-0.113,0.397-0.227,0.793-0.34,1.19
		c-0.113,0.34-0.227,0.68-0.34,1.077c-0.113,0.368-0.254,0.708-0.367,1.02l-4.25,11.247h-1.586l-4.307-11.247
		c-0.057-0.113-0.113-0.255-0.143-0.425c-0.057-0.142-0.113-0.312-0.17-0.481c-0.057-0.198-0.113-0.368-0.17-0.538
		c-0.084-0.198-0.141-0.368-0.17-0.567c-0.141-0.396-0.283-0.821-0.396-1.275c0,0.425,0.029,0.878,0.029,1.303
		c0.027,0.369,0.027,0.737,0.027,1.162c0.029,0.396,0.029,0.737,0.029,1.048v11.021h-2.012v-16.517h2.945l4.393,11.445
		c0.057,0.17,0.141,0.368,0.197,0.624c0.086,0.227,0.17,0.481,0.227,0.736c0.086,0.255,0.143,0.51,0.199,0.737
		c0.057,0.227,0.113,0.425,0.113,0.538c0.027-0.113,0.084-0.312,0.141-0.538c0.057-0.227,0.143-0.482,0.227-0.737
		c0.086-0.255,0.143-0.51,0.227-0.765c0.086-0.227,0.143-0.425,0.227-0.595l4.307-11.445h2.861v16.517H484.414L484.414,120.403z"/>
	<path fill-rule="evenodd" clip-rule="evenodd" fill="#1B1B1B" d="M491.668,114.51c0,0.652,0.084,1.275,0.197,1.842
		c0.143,0.538,0.369,1.02,0.652,1.417c0.283,0.425,0.65,0.736,1.076,0.935c0.453,0.227,0.992,0.34,1.615,0.34
		c0.906,0,1.643-0.17,2.209-0.539c0.539-0.368,0.906-0.85,1.105-1.388l1.842,0.51c-0.113,0.368-0.312,0.708-0.539,1.077
		c-0.256,0.34-0.566,0.651-0.963,0.935c-0.396,0.312-0.906,0.538-1.502,0.708c-0.596,0.198-1.303,0.283-2.152,0.283
		c-1.871,0-3.314-0.567-4.279-1.671c-0.99-1.133-1.473-2.776-1.473-4.986c0-1.19,0.143-2.181,0.453-3.003
		c0.283-0.85,0.709-1.501,1.219-2.011c0.51-0.539,1.105-0.907,1.785-1.133c0.707-0.227,1.445-0.34,2.209-0.34
		c1.076,0,1.955,0.17,2.664,0.51c0.707,0.34,1.303,0.821,1.727,1.417c0.426,0.623,0.738,1.332,0.936,2.153
		c0.17,0.822,0.256,1.7,0.256,2.663v0.283H491.668L491.668,114.51z M498.551,112.895c-0.141-1.332-0.48-2.323-1.02-2.918
		c-0.566-0.623-1.389-0.935-2.436-0.935c-0.34,0-0.736,0.057-1.105,0.17c-0.396,0.113-0.736,0.312-1.076,0.595
		c-0.34,0.312-0.596,0.68-0.822,1.19s-0.367,1.133-0.396,1.898H498.551L498.551,112.895z"/>
	<path fill-rule="evenodd" clip-rule="evenodd" fill="#1B1B1B" d="M510.902,120.403h-2.293l-6.744-16.517h2.352l4.562,11.615
		c0.113,0.369,0.227,0.708,0.367,1.048c0.113,0.368,0.199,0.68,0.312,0.935c0.113,0.34,0.197,0.651,0.311,0.935
		c0.086-0.283,0.199-0.566,0.312-0.906c0.084-0.255,0.197-0.567,0.311-0.907c0.113-0.368,0.227-0.708,0.369-1.105l4.533-11.615
		h2.352L510.902,120.403L510.902,120.403z"/>
	<polygon fill-rule="evenodd" clip-rule="evenodd" fill="#FFFFFF" points="459.738,194.202 394.637,194.202 394.637,160.348 
		524.842,160.348 524.842,194.202 459.738,194.202 	"/>
	<path fill-rule="evenodd" clip-rule="evenodd" fill="#1B1B1B" d="M402.938,185.59v-1.501c0.396-0.906,0.879-1.7,1.445-2.408
		c0.566-0.708,1.189-1.332,1.812-1.898c0.623-0.566,1.246-1.104,1.869-1.586c0.625-0.481,1.191-0.963,1.701-1.445
		c0.48-0.481,0.906-0.992,1.217-1.53c0.283-0.538,0.455-1.133,0.455-1.813c0-0.453-0.086-0.878-0.229-1.218
		c-0.141-0.368-0.34-0.68-0.594-0.907c-0.256-0.255-0.596-0.425-0.963-0.538c-0.369-0.142-0.766-0.198-1.219-0.198
		c-0.426,0-0.822,0.057-1.189,0.17c-0.396,0.142-0.709,0.312-0.992,0.538c-0.311,0.227-0.537,0.539-0.709,0.878
		c-0.197,0.34-0.311,0.736-0.367,1.218l-2.152-0.198c0.057-0.595,0.227-1.162,0.48-1.672c0.256-0.538,0.623-0.991,1.076-1.388
		c0.453-0.397,0.992-0.708,1.645-0.935c0.623-0.227,1.359-0.34,2.209-0.34c0.822,0,1.529,0.085,2.182,0.284
		c0.65,0.198,1.189,0.481,1.615,0.878c0.453,0.397,0.793,0.85,1.02,1.417c0.227,0.567,0.34,1.218,0.34,1.955
		c0,0.538-0.086,1.076-0.283,1.586c-0.199,0.481-0.482,0.963-0.793,1.417c-0.34,0.453-0.736,0.906-1.162,1.332
		c-0.426,0.396-0.906,0.821-1.359,1.218c-0.482,0.396-0.963,0.821-1.445,1.189c-0.482,0.397-0.936,0.793-1.359,1.218
		c-0.426,0.397-0.822,0.793-1.162,1.19c-0.34,0.425-0.596,0.85-0.793,1.303h8.611v1.785H402.938L402.938,185.59z"/>
	<path fill-rule="evenodd" clip-rule="evenodd" fill="#1B1B1B" d="M419.539,183.012v1.983c0,0.425,0,0.793-0.057,1.133
		c-0.029,0.34-0.086,0.651-0.17,0.935c-0.057,0.312-0.17,0.567-0.283,0.85c-0.113,0.255-0.256,0.51-0.396,0.765h-1.445
		c0.369-0.51,0.623-1.048,0.822-1.558c0.197-0.51,0.283-1.02,0.283-1.53h-1.02v-2.578H419.539L419.539,183.012z"/>
	<polygon fill-rule="evenodd" clip-rule="evenodd" fill="#1B1B1B" points="423.59,185.59 423.59,183.805 427.783,183.805 
		427.783,171.085 424.043,173.748 424.043,171.765 427.953,169.074 429.908,169.074 429.908,183.805 433.93,183.805 433.93,185.59 
		423.59,185.59 	"/>
	<path fill-rule="evenodd" clip-rule="evenodd" fill="#1B1B1B" d="M447.416,180.207c0,0.822-0.143,1.587-0.396,2.267
		c-0.256,0.68-0.623,1.275-1.105,1.785c-0.482,0.482-1.105,0.878-1.842,1.162c-0.736,0.255-1.559,0.396-2.521,0.396
		c-0.877,0-1.643-0.113-2.266-0.312c-0.652-0.198-1.189-0.481-1.643-0.821c-0.453-0.369-0.795-0.793-1.049-1.247
		c-0.283-0.482-0.453-0.992-0.566-1.558l2.125-0.227c0.084,0.312,0.197,0.595,0.367,0.906c0.17,0.283,0.369,0.538,0.652,0.793
		c0.254,0.227,0.594,0.396,0.992,0.538c0.396,0.142,0.877,0.198,1.416,0.198c0.566,0,1.047-0.085,1.502-0.255
		c0.453-0.17,0.82-0.396,1.133-0.737c0.311-0.34,0.566-0.736,0.736-1.218c0.17-0.454,0.254-1.02,0.254-1.615
		c0-0.51-0.084-0.991-0.254-1.416c-0.143-0.425-0.396-0.793-0.68-1.105c-0.312-0.312-0.68-0.539-1.133-0.708
		c-0.426-0.17-0.936-0.255-1.502-0.255c-0.34,0-0.68,0.028-0.963,0.085c-0.312,0.057-0.596,0.142-0.822,0.255
		c-0.256,0.113-0.51,0.255-0.709,0.397c-0.197,0.142-0.396,0.283-0.566,0.453h-2.068l0.539-8.896h9.406v1.785h-7.48l-0.311,5.241
		c0.367-0.283,0.85-0.539,1.416-0.737c0.539-0.198,1.219-0.312,1.982-0.312c0.822,0,1.559,0.113,2.211,0.368
		c0.68,0.255,1.217,0.624,1.699,1.077c0.453,0.453,0.793,0.992,1.049,1.615C447.273,178.763,447.416,179.442,447.416,180.207
		L447.416,180.207z"/>
	<path fill-rule="evenodd" clip-rule="evenodd" fill="#1B1B1B" d="M460.674,180.972c0,0.708-0.113,1.36-0.34,1.955
		c-0.197,0.567-0.539,1.077-1.02,1.53c-0.453,0.425-1.02,0.765-1.729,0.991c-0.709,0.255-1.559,0.368-2.521,0.368
		s-1.812-0.113-2.521-0.368c-0.707-0.227-1.303-0.566-1.756-0.991c-0.453-0.425-0.822-0.935-1.02-1.53
		c-0.227-0.595-0.34-1.246-0.34-1.926c0-0.595,0.084-1.133,0.283-1.615c0.17-0.453,0.424-0.878,0.736-1.218
		c0.283-0.34,0.65-0.595,1.049-0.822c0.396-0.198,0.793-0.34,1.217-0.396v-0.057c-0.453-0.113-0.877-0.283-1.246-0.51
		c-0.34-0.255-0.652-0.538-0.906-0.878c-0.256-0.34-0.426-0.736-0.566-1.133c-0.113-0.425-0.199-0.85-0.199-1.331
		c0-0.567,0.113-1.105,0.34-1.615c0.227-0.51,0.566-0.963,0.992-1.359c0.453-0.397,0.992-0.68,1.643-0.907
		c0.652-0.227,1.389-0.34,2.238-0.34c0.906,0,1.672,0.114,2.352,0.34c0.652,0.227,1.189,0.538,1.615,0.907
		c0.453,0.396,0.764,0.85,0.992,1.359c0.197,0.51,0.311,1.077,0.311,1.644c0,0.453-0.057,0.906-0.197,1.303
		c-0.143,0.425-0.312,0.793-0.568,1.133c-0.254,0.34-0.537,0.624-0.906,0.878c-0.367,0.227-0.793,0.396-1.273,0.481v0.057
		c0.48,0.085,0.934,0.227,1.33,0.425c0.396,0.199,0.766,0.482,1.049,0.822c0.312,0.34,0.539,0.737,0.709,1.218
		C460.59,179.839,460.674,180.377,460.674,180.972L460.674,180.972z M458.068,173.182c0-0.397-0.029-0.793-0.143-1.133
		s-0.283-0.624-0.537-0.878c-0.227-0.255-0.539-0.425-0.936-0.566s-0.879-0.227-1.445-0.227c-0.537,0-1.02,0.085-1.416,0.227
		c-0.369,0.142-0.68,0.312-0.936,0.566c-0.254,0.255-0.424,0.539-0.537,0.878s-0.143,0.736-0.143,1.133
		c0,0.34,0.029,0.68,0.113,1.02c0.086,0.34,0.256,0.652,0.482,0.935s0.537,0.51,0.934,0.68c0.396,0.198,0.908,0.283,1.531,0.283
		c0.65,0,1.189-0.085,1.586-0.283c0.426-0.17,0.709-0.397,0.936-0.68s0.367-0.595,0.424-0.935S458.068,173.521,458.068,173.182
		L458.068,173.182z M458.492,180.774c0-0.396-0.057-0.793-0.17-1.162s-0.283-0.68-0.566-0.963c-0.254-0.284-0.623-0.539-1.076-0.708
		c-0.426-0.17-0.992-0.255-1.672-0.255c-0.623,0-1.133,0.085-1.586,0.255c-0.426,0.17-0.766,0.425-1.049,0.708
		c-0.254,0.283-0.453,0.623-0.594,0.991c-0.113,0.396-0.17,0.765-0.17,1.19c0,0.51,0.057,0.963,0.17,1.388
		c0.141,0.425,0.34,0.765,0.594,1.077c0.283,0.283,0.652,0.538,1.076,0.68c0.453,0.17,0.992,0.255,1.645,0.255
		c0.623,0,1.16-0.085,1.613-0.255c0.426-0.142,0.766-0.396,1.049-0.68c0.256-0.312,0.453-0.68,0.566-1.105
		S458.492,181.312,458.492,180.774L458.492,180.774z"/>
	<path fill-rule="evenodd" clip-rule="evenodd" fill="#1B1B1B" d="M484.414,185.59v-11.021c0-0.396,0-0.793,0-1.218
		c0.029-0.425,0.029-0.793,0.057-1.133c0-0.396,0.029-0.793,0.057-1.162c-0.113,0.396-0.227,0.793-0.34,1.19
		c-0.113,0.34-0.227,0.68-0.34,1.077c-0.113,0.368-0.254,0.708-0.367,1.02l-4.25,11.247h-1.586l-4.307-11.247
		c-0.057-0.113-0.113-0.255-0.143-0.425c-0.057-0.142-0.113-0.312-0.17-0.481c-0.057-0.198-0.113-0.368-0.17-0.539
		c-0.084-0.198-0.141-0.368-0.17-0.566c-0.141-0.396-0.283-0.822-0.396-1.275c0,0.425,0.029,0.878,0.029,1.303
		c0.027,0.368,0.027,0.737,0.027,1.162c0.029,0.396,0.029,0.736,0.029,1.048v11.021h-2.012v-16.516h2.945l4.393,11.445
		c0.057,0.17,0.141,0.368,0.197,0.623c0.086,0.227,0.17,0.482,0.227,0.737c0.086,0.255,0.143,0.51,0.199,0.736
		s0.113,0.425,0.113,0.538c0.027-0.113,0.084-0.312,0.141-0.538s0.143-0.481,0.227-0.736c0.086-0.255,0.143-0.51,0.227-0.765
		c0.086-0.227,0.143-0.425,0.227-0.595l4.307-11.445h2.861v16.516H484.414L484.414,185.59z"/>
	<path fill-rule="evenodd" clip-rule="evenodd" fill="#1B1B1B" d="M491.668,179.697c0,0.652,0.084,1.275,0.197,1.842
		c0.143,0.538,0.369,1.02,0.652,1.416c0.283,0.425,0.65,0.737,1.076,0.935c0.453,0.227,0.992,0.34,1.615,0.34
		c0.906,0,1.643-0.17,2.209-0.538c0.539-0.368,0.906-0.85,1.105-1.388l1.842,0.51c-0.113,0.369-0.312,0.708-0.539,1.077
		c-0.256,0.34-0.566,0.652-0.963,0.935c-0.396,0.312-0.906,0.538-1.502,0.708c-0.596,0.198-1.303,0.283-2.152,0.283
		c-1.871,0-3.314-0.566-4.279-1.671c-0.99-1.133-1.473-2.776-1.473-4.986c0-1.19,0.143-2.182,0.453-3.003
		c0.283-0.85,0.709-1.501,1.219-2.012c0.51-0.538,1.105-0.906,1.785-1.133c0.707-0.227,1.445-0.34,2.209-0.34
		c1.076,0,1.955,0.17,2.664,0.51c0.707,0.34,1.303,0.821,1.727,1.417c0.426,0.623,0.738,1.332,0.936,2.153
		c0.17,0.822,0.256,1.7,0.256,2.663v0.283H491.668L491.668,179.697z M498.551,178.083c-0.141-1.332-0.48-2.323-1.02-2.918
		c-0.566-0.624-1.389-0.935-2.436-0.935c-0.34,0-0.736,0.057-1.105,0.17c-0.396,0.113-0.736,0.312-1.076,0.595
		c-0.34,0.312-0.596,0.68-0.822,1.19c-0.227,0.51-0.367,1.133-0.396,1.898H498.551L498.551,178.083z"/>
	<path fill-rule="evenodd" clip-rule="evenodd" fill="#1B1B1B" d="M510.902,185.59h-2.293l-6.744-16.516h2.352l4.562,11.615
		c0.113,0.368,0.227,0.708,0.367,1.048c0.113,0.368,0.199,0.68,0.312,0.935c0.113,0.34,0.197,0.652,0.311,0.935
		c0.086-0.283,0.199-0.567,0.312-0.907c0.084-0.255,0.197-0.566,0.311-0.906c0.113-0.369,0.227-0.708,0.369-1.105l4.533-11.615
		h2.352L510.902,185.59L510.902,185.59z"/>
	<polygon fill-rule="evenodd" clip-rule="evenodd" fill="#FFFFFF" points="79.012,252.081 23.514,252.081 23.514,222.674 
		134.511,222.674 134.511,252.081 79.012,252.081 	"/>
	<polygon fill-rule="evenodd" clip-rule="evenodd" fill="#1B1B1B" points="32.126,244.318 32.126,242.816 35.639,242.816 
		35.639,232.221 32.523,234.459 32.523,232.788 35.781,230.55 37.396,230.55 37.396,242.816 40.739,242.816 40.739,244.318 
		32.126,244.318 	"/>
	<path fill-rule="evenodd" clip-rule="evenodd" fill="#1B1B1B" d="M45.526,242.165v1.643c0,0.368-0.028,0.68-0.057,0.963
		s-0.085,0.538-0.142,0.793c-0.057,0.227-0.142,0.454-0.227,0.68c-0.114,0.227-0.227,0.425-0.34,0.651h-1.218
		c0.312-0.425,0.538-0.878,0.68-1.303c0.17-0.425,0.255-0.85,0.255-1.274h-0.85v-2.153H45.526L45.526,242.165z"/>
	<polygon fill-rule="evenodd" clip-rule="evenodd" fill="#1B1B1B" points="48.784,244.318 48.784,242.816 52.297,242.816 
		52.297,232.221 49.181,234.459 49.181,232.788 52.439,230.55 54.054,230.55 54.054,242.816 57.396,242.816 57.396,244.318 
		48.784,244.318 	"/>
	<path fill-rule="evenodd" clip-rule="evenodd" fill="#1B1B1B" d="M68.53,231.995c-0.68,1.048-1.332,2.068-1.898,3.031
		c-0.595,0.963-1.077,1.955-1.501,2.946c-0.425,0.992-0.737,1.983-0.963,3.031s-0.34,2.153-0.34,3.315h-1.842
		c0-1.105,0.113-2.182,0.397-3.23c0.255-1.077,0.595-2.096,1.048-3.116c0.425-1.02,0.963-2.04,1.53-3.003
		c0.595-0.992,1.218-1.955,1.87-2.918h-7.394v-1.501h9.094V231.995L68.53,231.995z"/>
	<path fill-rule="evenodd" clip-rule="evenodd" fill="#1B1B1B" d="M78.191,241.202v3.117H76.52v-3.117h-6.488v-1.36l6.317-9.292
		h1.842v9.264h1.926v1.388H78.191L78.191,241.202z M76.52,232.533c0,0.028-0.057,0.085-0.085,0.198
		c-0.057,0.085-0.113,0.199-0.198,0.312c-0.057,0.113-0.113,0.227-0.198,0.368c-0.057,0.113-0.113,0.198-0.17,0.283l-3.513,5.213
		c-0.057,0.028-0.085,0.113-0.142,0.198c-0.085,0.085-0.142,0.17-0.199,0.255s-0.142,0.17-0.198,0.255s-0.113,0.142-0.17,0.198
		h4.873V232.533L76.52,232.533z"/>
	<path fill-rule="evenodd" clip-rule="evenodd" fill="#1B1B1B" d="M99.58,244.318v-9.179c0-0.34,0-0.68,0-1.02
		s0.028-0.651,0.028-0.935c0.028-0.34,0.028-0.68,0.057-0.992c-0.085,0.34-0.198,0.68-0.283,0.992
		c-0.085,0.283-0.17,0.595-0.284,0.906c-0.085,0.312-0.198,0.595-0.283,0.85l-3.569,9.377h-1.303l-3.598-9.377
		c-0.057-0.085-0.085-0.227-0.142-0.34c-0.028-0.142-0.085-0.284-0.113-0.425c-0.057-0.142-0.113-0.283-0.17-0.453
		c-0.028-0.142-0.085-0.283-0.142-0.453c-0.085-0.34-0.198-0.68-0.312-1.077c0,0.368,0.028,0.737,0.028,1.105
		c0.028,0.283,0.028,0.623,0.028,0.963c0,0.312,0.028,0.624,0.028,0.878v9.179h-1.672V230.55h2.437l3.683,9.547
		c0.028,0.142,0.085,0.312,0.17,0.51c0.057,0.198,0.113,0.396,0.17,0.623c0.057,0.227,0.113,0.425,0.17,0.624
		c0.057,0.17,0.085,0.34,0.085,0.425c0.028-0.085,0.057-0.255,0.113-0.453c0.057-0.17,0.113-0.397,0.198-0.595
		c0.057-0.227,0.114-0.425,0.199-0.623c0.057-0.227,0.113-0.369,0.17-0.51l3.598-9.547h2.38v13.769H99.58L99.58,244.318z"/>
	<path fill-rule="evenodd" clip-rule="evenodd" fill="#1B1B1B" d="M105.614,239.417c0,0.538,0.057,1.048,0.17,1.53
		c0.113,0.453,0.283,0.85,0.538,1.19c0.227,0.34,0.539,0.595,0.907,0.793c0.368,0.17,0.822,0.255,1.332,0.255
		c0.765,0,1.388-0.142,1.841-0.454c0.454-0.312,0.765-0.68,0.935-1.161l1.53,0.453c-0.113,0.283-0.255,0.566-0.453,0.878
		c-0.198,0.284-0.454,0.567-0.793,0.793c-0.34,0.255-0.765,0.425-1.247,0.595c-0.51,0.142-1.104,0.227-1.813,0.227
		c-1.558,0-2.748-0.454-3.57-1.388c-0.821-0.935-1.218-2.323-1.218-4.165c0-0.992,0.113-1.813,0.368-2.521
		c0.255-0.68,0.595-1.247,1.02-1.671c0.425-0.425,0.935-0.737,1.501-0.935c0.566-0.17,1.19-0.283,1.841-0.283
		c0.878,0,1.615,0.142,2.209,0.425c0.595,0.283,1.077,0.68,1.445,1.19c0.368,0.51,0.623,1.105,0.765,1.785
		c0.17,0.68,0.227,1.417,0.227,2.21v0.255H105.614L105.614,239.417z M111.337,238.057c-0.085-1.105-0.368-1.926-0.85-2.437
		c-0.453-0.51-1.133-0.765-2.011-0.765c-0.312,0-0.595,0.057-0.935,0.142c-0.312,0.085-0.623,0.255-0.878,0.51
		c-0.284,0.227-0.51,0.567-0.708,0.963c-0.17,0.425-0.283,0.935-0.312,1.586H111.337L111.337,238.057z"/>
	<path fill-rule="evenodd" clip-rule="evenodd" fill="#1B1B1B" d="M121.706,244.318h-1.955l-5.609-13.769h1.955l3.825,9.688
		c0.085,0.312,0.198,0.595,0.283,0.878c0.113,0.283,0.198,0.539,0.255,0.765c0.113,0.283,0.199,0.538,0.284,0.793
		c0.085-0.227,0.17-0.481,0.255-0.765c0.085-0.227,0.17-0.482,0.255-0.765s0.198-0.595,0.312-0.907l3.796-9.688h1.955
		L121.706,244.318L121.706,244.318z"/>
	<polygon fill-rule="evenodd" clip-rule="evenodd" fill="#FFFFFF" points="401.975,266.274 346.477,266.274 346.477,236.867 
		457.473,236.867 457.473,266.274 401.975,266.274 	"/>
	<path fill-rule="evenodd" clip-rule="evenodd" fill="#1B1B1B" d="M354.578,258.511v-1.247c0.312-0.765,0.736-1.416,1.189-2.011
		c0.482-0.595,0.992-1.105,1.531-1.586c0.51-0.481,1.047-0.907,1.557-1.303s0.992-0.822,1.389-1.218
		c0.426-0.396,0.766-0.821,1.02-1.275c0.256-0.425,0.396-0.935,0.396-1.501c0-0.396-0.057-0.736-0.17-1.02
		c-0.141-0.312-0.311-0.567-0.51-0.765c-0.227-0.198-0.51-0.34-0.793-0.453c-0.311-0.085-0.652-0.142-1.049-0.142
		c-0.34,0-0.68,0.057-0.99,0.142c-0.312,0.113-0.566,0.255-0.822,0.453c-0.227,0.198-0.426,0.425-0.596,0.708
		c-0.141,0.312-0.254,0.623-0.283,1.02l-1.812-0.17c0.057-0.481,0.199-0.963,0.426-1.388c0.197-0.453,0.51-0.822,0.877-1.162
		c0.369-0.312,0.822-0.566,1.361-0.765c0.537-0.198,1.16-0.283,1.84-0.283s1.305,0.085,1.842,0.255
		c0.539,0.142,0.963,0.396,1.332,0.708c0.367,0.312,0.652,0.708,0.85,1.19c0.199,0.454,0.312,0.992,0.312,1.615
		c0,0.453-0.086,0.907-0.256,1.332c-0.17,0.397-0.396,0.793-0.68,1.19c-0.256,0.368-0.596,0.736-0.963,1.077
		c-0.34,0.368-0.736,0.708-1.133,1.048c-0.396,0.312-0.795,0.651-1.191,0.991c-0.424,0.312-0.793,0.652-1.16,0.992
		c-0.34,0.34-0.652,0.651-0.936,0.992c-0.283,0.368-0.51,0.708-0.652,1.076h7.168v1.501H354.578L354.578,258.511z"/>
	<path fill-rule="evenodd" clip-rule="evenodd" fill="#1B1B1B" d="M368.488,256.358v1.643c0,0.368-0.027,0.68-0.057,0.963
		s-0.086,0.538-0.143,0.793c-0.057,0.227-0.141,0.453-0.227,0.68c-0.113,0.227-0.227,0.425-0.34,0.651h-1.217
		c0.311-0.425,0.537-0.878,0.68-1.303c0.17-0.425,0.254-0.85,0.254-1.275h-0.85v-2.153H368.488L368.488,256.358z"/>
	<polygon fill-rule="evenodd" clip-rule="evenodd" fill="#1B1B1B" points="371.746,258.511 371.746,257.01 375.26,257.01 
		375.26,246.415 372.143,248.652 372.143,246.981 375.4,244.743 377.016,244.743 377.016,257.01 380.359,257.01 380.359,258.511 
		371.746,258.511 	"/>
	<path fill-rule="evenodd" clip-rule="evenodd" fill="#1B1B1B" d="M391.662,254.035c0,0.68-0.113,1.303-0.311,1.898
		c-0.199,0.566-0.512,1.048-0.936,1.473c-0.396,0.425-0.906,0.736-1.529,0.963c-0.596,0.227-1.305,0.34-2.098,0.34
		c-0.736,0-1.359-0.085-1.898-0.255c-0.537-0.17-0.99-0.396-1.359-0.708c-0.367-0.283-0.68-0.624-0.879-1.02
		c-0.227-0.396-0.396-0.821-0.48-1.303l1.785-0.198c0.084,0.255,0.17,0.51,0.311,0.765c0.113,0.255,0.312,0.453,0.51,0.651
		c0.227,0.198,0.51,0.34,0.852,0.453c0.311,0.113,0.707,0.17,1.189,0.17c0.453,0,0.877-0.057,1.246-0.198
		c0.367-0.142,0.68-0.34,0.936-0.623c0.283-0.283,0.48-0.623,0.623-1.02c0.141-0.396,0.227-0.85,0.227-1.36
		c0-0.425-0.086-0.821-0.227-1.161c-0.143-0.369-0.312-0.652-0.566-0.935c-0.256-0.255-0.566-0.454-0.936-0.595
		s-0.793-0.198-1.275-0.198c-0.283,0-0.537,0.028-0.793,0.057c-0.254,0.057-0.482,0.142-0.709,0.227
		c-0.197,0.085-0.396,0.199-0.566,0.312c-0.17,0.142-0.34,0.255-0.48,0.396h-1.729l0.482-7.422h7.818v1.501h-6.232l-0.256,4.363
		c0.312-0.227,0.709-0.453,1.162-0.623c0.482-0.17,1.02-0.255,1.672-0.255c0.68,0,1.303,0.113,1.842,0.312
		c0.566,0.198,1.02,0.51,1.416,0.878c0.367,0.396,0.68,0.85,0.879,1.36C391.549,252.817,391.662,253.384,391.662,254.035
		L391.662,254.035z"/>
	<path fill-rule="evenodd" clip-rule="evenodd" fill="#1B1B1B" d="M402.797,254.687c0,0.566-0.086,1.105-0.285,1.615
		c-0.17,0.481-0.453,0.906-0.85,1.275c-0.367,0.34-0.85,0.623-1.443,0.821c-0.596,0.199-1.305,0.312-2.098,0.312
		c-0.82,0-1.529-0.113-2.096-0.312c-0.596-0.198-1.076-0.481-1.473-0.821c-0.398-0.369-0.682-0.793-0.852-1.275
		c-0.197-0.481-0.283-1.02-0.283-1.615c0-0.51,0.057-0.935,0.227-1.332c0.143-0.396,0.34-0.737,0.625-1.02
		c0.254-0.283,0.537-0.51,0.877-0.68c0.312-0.17,0.652-0.284,1.02-0.34v-0.057c-0.396-0.085-0.736-0.227-1.047-0.425
		c-0.283-0.198-0.539-0.453-0.766-0.736c-0.199-0.284-0.34-0.595-0.453-0.935s-0.17-0.708-0.17-1.105
		c0-0.481,0.084-0.935,0.283-1.36c0.17-0.425,0.453-0.793,0.822-1.105c0.367-0.34,0.82-0.595,1.359-0.765
		c0.537-0.198,1.162-0.283,1.869-0.283c0.766,0,1.389,0.085,1.955,0.283c0.539,0.198,0.992,0.453,1.359,0.765
		c0.369,0.312,0.623,0.708,0.822,1.133c0.17,0.425,0.254,0.878,0.254,1.36c0,0.368-0.057,0.737-0.17,1.077
		c-0.113,0.368-0.254,0.68-0.453,0.963c-0.227,0.283-0.48,0.51-0.764,0.708c-0.312,0.198-0.652,0.34-1.049,0.425v0.028
		c0.396,0.057,0.766,0.198,1.105,0.369c0.34,0.17,0.623,0.396,0.877,0.68c0.227,0.283,0.426,0.624,0.566,1.02
		C402.711,253.724,402.797,254.177,402.797,254.687L402.797,254.687z M400.615,248.199c0-0.368-0.029-0.68-0.113-0.963
		c-0.086-0.284-0.227-0.539-0.453-0.737c-0.199-0.198-0.455-0.368-0.766-0.481c-0.34-0.114-0.736-0.17-1.219-0.17
		c-0.453,0-0.85,0.057-1.162,0.17c-0.34,0.113-0.594,0.283-0.793,0.481c-0.197,0.198-0.34,0.453-0.453,0.737
		c-0.084,0.283-0.141,0.595-0.141,0.963c0,0.255,0.057,0.538,0.113,0.822c0.084,0.283,0.197,0.538,0.396,0.793
		c0.197,0.227,0.453,0.425,0.793,0.567c0.312,0.142,0.736,0.227,1.275,0.227c0.537,0,0.99-0.085,1.33-0.227s0.596-0.34,0.766-0.567
		c0.17-0.255,0.312-0.51,0.369-0.793C400.586,248.737,400.615,248.454,400.615,248.199L400.615,248.199z M400.982,254.517
		c0-0.34-0.057-0.652-0.141-0.963c-0.113-0.312-0.256-0.595-0.482-0.822c-0.227-0.255-0.51-0.453-0.879-0.595
		c-0.396-0.142-0.85-0.198-1.416-0.198c-0.51,0-0.934,0.057-1.303,0.198s-0.652,0.34-0.879,0.595
		c-0.227,0.227-0.396,0.51-0.51,0.822c-0.084,0.312-0.141,0.651-0.141,0.992c0,0.425,0.057,0.821,0.141,1.162
		c0.113,0.34,0.283,0.651,0.51,0.906s0.539,0.425,0.906,0.566c0.369,0.142,0.822,0.199,1.332,0.199c0.539,0,0.992-0.057,1.359-0.199
		c0.369-0.142,0.652-0.312,0.879-0.566s0.369-0.566,0.482-0.906C400.926,255.338,400.982,254.942,400.982,254.517L400.982,254.517z"
		/>
	<path fill-rule="evenodd" clip-rule="evenodd" fill="#1B1B1B" d="M422.541,258.511v-9.179c0-0.34,0-0.68,0-1.02
		s0.029-0.651,0.029-0.935c0.027-0.34,0.027-0.68,0.057-0.992c-0.086,0.34-0.199,0.68-0.283,0.992
		c-0.086,0.283-0.17,0.595-0.283,0.906c-0.086,0.312-0.199,0.595-0.283,0.85l-3.57,9.377h-1.303l-3.598-9.377
		c-0.057-0.085-0.086-0.227-0.143-0.34c-0.027-0.142-0.084-0.284-0.113-0.425c-0.057-0.142-0.113-0.283-0.17-0.453
		c-0.027-0.142-0.084-0.283-0.141-0.453c-0.086-0.34-0.199-0.68-0.312-1.077c0,0.368,0.029,0.736,0.029,1.105
		c0.027,0.283,0.027,0.623,0.027,0.963c0,0.312,0.029,0.624,0.029,0.878v9.179h-1.672v-13.768h2.436l3.684,9.547
		c0.027,0.142,0.086,0.312,0.17,0.51c0.057,0.198,0.113,0.396,0.17,0.623s0.113,0.425,0.17,0.624c0.057,0.17,0.086,0.34,0.086,0.425
		c0.027-0.085,0.057-0.255,0.113-0.453c0.057-0.17,0.113-0.397,0.197-0.595c0.057-0.227,0.113-0.425,0.199-0.623
		c0.057-0.227,0.113-0.369,0.17-0.51l3.598-9.547h2.379v13.768H422.541L422.541,258.511z"/>
	<path fill-rule="evenodd" clip-rule="evenodd" fill="#1B1B1B" d="M428.576,253.61c0,0.538,0.057,1.048,0.17,1.53
		c0.113,0.453,0.283,0.85,0.539,1.19c0.227,0.34,0.537,0.595,0.906,0.793c0.367,0.17,0.82,0.255,1.332,0.255
		c0.764,0,1.387-0.142,1.84-0.454s0.766-0.68,0.936-1.161l1.529,0.453c-0.113,0.283-0.254,0.566-0.453,0.878
		c-0.197,0.284-0.453,0.567-0.793,0.793c-0.34,0.255-0.766,0.425-1.246,0.595c-0.51,0.142-1.105,0.227-1.812,0.227
		c-1.559,0-2.748-0.454-3.57-1.389c-0.822-0.935-1.219-2.323-1.219-4.164c0-0.992,0.113-1.813,0.369-2.521
		c0.254-0.68,0.594-1.247,1.02-1.671c0.426-0.425,0.936-0.737,1.502-0.935c0.566-0.17,1.189-0.283,1.842-0.283
		c0.877,0,1.613,0.142,2.209,0.425s1.076,0.68,1.445,1.19c0.367,0.51,0.623,1.105,0.764,1.785c0.17,0.68,0.227,1.417,0.227,2.21
		v0.255H428.576L428.576,253.61z M434.299,252.25c-0.084-1.105-0.369-1.926-0.85-2.437c-0.453-0.51-1.133-0.765-2.012-0.765
		c-0.312,0-0.596,0.057-0.936,0.142c-0.311,0.085-0.623,0.255-0.877,0.51c-0.283,0.227-0.51,0.567-0.709,0.963
		c-0.17,0.425-0.283,0.935-0.311,1.586H434.299L434.299,252.25z"/>
	<g>
		<defs>
			<rect id="SVGID_1_" width="526.627" height="706.522"/>
		</defs>
		<clipPath id="SVGID_2_">
			<use xlink:href="#SVGID_1_"  overflow="visible"/>
		</clipPath>
		<path clip-path="url(#SVGID_2_)" fill-rule="evenodd" clip-rule="evenodd" fill="#1B1B1B" d="M444.668,258.511h-1.955
			l-5.609-13.768h1.955l3.824,9.688c0.086,0.312,0.199,0.595,0.283,0.878c0.113,0.283,0.199,0.539,0.256,0.765
			c0.113,0.283,0.197,0.538,0.283,0.793c0.084-0.227,0.17-0.481,0.254-0.765c0.086-0.227,0.17-0.482,0.256-0.765
			c0.084-0.283,0.197-0.595,0.311-0.907l3.797-9.688h1.955L444.668,258.511L444.668,258.511z"/>
		<polygon clip-path="url(#SVGID_2_)" fill-rule="evenodd" clip-rule="evenodd" fill="#FFFFFF" points="462.572,330.243 
			397.471,330.243 397.471,296.389 527.674,296.389 527.674,330.243 462.572,330.243 		"/>
	</g>
	<polygon fill-rule="evenodd" clip-rule="evenodd" fill="#1B1B1B" points="406.395,321.631 406.395,319.846 410.586,319.846 
		410.586,307.126 406.848,309.789 406.848,307.806 410.756,305.114 412.711,305.114 412.711,319.846 416.734,319.846 
		416.734,321.631 406.395,321.631 	"/>
	<path fill-rule="evenodd" clip-rule="evenodd" fill="#1B1B1B" d="M422.371,319.053v1.983c0,0.425,0,0.793-0.057,1.133
		c-0.027,0.34-0.084,0.651-0.17,0.935c-0.057,0.312-0.17,0.566-0.283,0.85c-0.113,0.255-0.254,0.51-0.396,0.765h-1.443
		c0.367-0.51,0.623-1.048,0.82-1.558c0.199-0.51,0.283-1.02,0.283-1.53h-1.02v-2.578H422.371L422.371,319.053z"/>
	<path fill-rule="evenodd" clip-rule="evenodd" fill="#1B1B1B" d="M436.877,317.069c0,0.765-0.113,1.417-0.369,2.012
		c-0.254,0.595-0.623,1.104-1.076,1.53c-0.48,0.396-1.076,0.708-1.756,0.935c-0.709,0.198-1.502,0.312-2.408,0.312
		c-1.02,0-1.869-0.113-2.578-0.368c-0.709-0.255-1.275-0.595-1.729-1.02c-0.453-0.425-0.793-0.907-1.02-1.417
		c-0.227-0.538-0.369-1.105-0.453-1.671l2.182-0.199c0.057,0.425,0.17,0.822,0.34,1.19c0.17,0.369,0.396,0.68,0.709,0.935
		c0.283,0.255,0.623,0.453,1.047,0.595c0.426,0.142,0.936,0.198,1.502,0.198c1.076,0,1.898-0.255,2.492-0.765
		c0.625-0.538,0.936-1.303,0.936-2.352c0-0.595-0.141-1.076-0.424-1.445c-0.256-0.396-0.596-0.68-0.992-0.878
		c-0.426-0.199-0.85-0.34-1.332-0.425c-0.453-0.057-0.906-0.085-1.303-0.085h-1.189v-1.841h1.16c0.396,0,0.795-0.028,1.219-0.113
		c0.453-0.085,0.822-0.255,1.189-0.453c0.369-0.227,0.652-0.51,0.879-0.878s0.34-0.85,0.34-1.417c0-0.878-0.256-1.586-0.766-2.096
		c-0.537-0.51-1.303-0.765-2.322-0.765c-0.936,0-1.672,0.255-2.266,0.737c-0.568,0.453-0.908,1.133-0.992,2.011l-2.125-0.17
		c0.086-0.737,0.283-1.36,0.596-1.898c0.311-0.539,0.707-0.992,1.189-1.36c0.48-0.34,1.049-0.595,1.643-0.793
		c0.623-0.17,1.275-0.255,1.982-0.255c0.908,0,1.701,0.113,2.381,0.34c0.652,0.227,1.189,0.538,1.615,0.935
		c0.424,0.396,0.736,0.878,0.934,1.388c0.199,0.538,0.312,1.104,0.312,1.7c0,0.51-0.086,0.963-0.199,1.388
		c-0.141,0.396-0.34,0.793-0.623,1.133c-0.283,0.34-0.65,0.623-1.076,0.85c-0.426,0.255-0.963,0.425-1.559,0.567v0.028
		c0.652,0.085,1.248,0.227,1.729,0.453c0.482,0.255,0.906,0.538,1.219,0.878c0.311,0.34,0.566,0.736,0.707,1.162
		C436.791,316.135,436.877,316.588,436.877,317.069L436.877,317.069z"/>
	<path fill-rule="evenodd" clip-rule="evenodd" fill="#1B1B1B" d="M450.191,317.069c0,0.765-0.113,1.417-0.367,2.012
		c-0.256,0.595-0.623,1.104-1.076,1.53c-0.482,0.396-1.078,0.708-1.758,0.935c-0.707,0.198-1.502,0.312-2.408,0.312
		c-1.02,0-1.869-0.113-2.578-0.368c-0.707-0.255-1.273-0.595-1.727-1.02c-0.455-0.425-0.795-0.907-1.021-1.417
		c-0.227-0.538-0.367-1.105-0.453-1.671l2.182-0.199c0.057,0.425,0.17,0.822,0.34,1.19c0.17,0.369,0.396,0.68,0.709,0.935
		c0.283,0.255,0.623,0.453,1.049,0.595c0.424,0.142,0.934,0.198,1.5,0.198c1.078,0,1.898-0.255,2.494-0.765
		c0.623-0.538,0.934-1.303,0.934-2.352c0-0.595-0.141-1.076-0.424-1.445c-0.256-0.396-0.596-0.68-0.992-0.878
		c-0.424-0.199-0.85-0.34-1.332-0.425c-0.453-0.057-0.906-0.085-1.303-0.085h-1.189v-1.841h1.162c0.396,0,0.793-0.028,1.217-0.113
		c0.453-0.085,0.822-0.255,1.191-0.453c0.367-0.227,0.65-0.51,0.877-0.878s0.34-0.85,0.34-1.417c0-0.878-0.254-1.586-0.764-2.096
		c-0.539-0.51-1.305-0.765-2.324-0.765c-0.934,0-1.67,0.255-2.266,0.737c-0.566,0.453-0.906,1.133-0.992,2.011l-2.125-0.17
		c0.086-0.737,0.283-1.36,0.596-1.898c0.312-0.539,0.709-0.992,1.189-1.36c0.482-0.34,1.049-0.595,1.643-0.793
		c0.625-0.17,1.275-0.255,1.984-0.255c0.906,0,1.699,0.113,2.379,0.34c0.652,0.227,1.189,0.538,1.615,0.935
		c0.426,0.396,0.736,0.878,0.936,1.388c0.197,0.538,0.311,1.104,0.311,1.7c0,0.51-0.084,0.963-0.197,1.388
		c-0.143,0.396-0.34,0.793-0.623,1.133c-0.283,0.34-0.652,0.623-1.078,0.85c-0.424,0.255-0.963,0.425-1.557,0.567v0.028
		c0.65,0.085,1.246,0.227,1.727,0.453c0.482,0.255,0.908,0.538,1.219,0.878c0.312,0.34,0.566,0.736,0.709,1.162
		C450.107,316.135,450.191,316.588,450.191,317.069L450.191,317.069z"/>
	<path fill-rule="evenodd" clip-rule="evenodd" fill="#1B1B1B" d="M452.43,321.631v-1.502c0.396-0.906,0.879-1.7,1.445-2.408
		c0.566-0.708,1.189-1.332,1.812-1.898c0.623-0.567,1.246-1.105,1.871-1.587c0.623-0.481,1.189-0.963,1.699-1.445
		c0.48-0.481,0.906-0.991,1.219-1.53c0.283-0.538,0.453-1.133,0.453-1.813c0-0.453-0.086-0.878-0.227-1.218
		c-0.143-0.368-0.34-0.68-0.596-0.906c-0.256-0.255-0.596-0.425-0.963-0.539c-0.369-0.142-0.766-0.198-1.219-0.198
		c-0.424,0-0.82,0.057-1.189,0.17c-0.396,0.142-0.709,0.312-0.992,0.539c-0.311,0.227-0.537,0.538-0.707,0.878
		c-0.199,0.34-0.312,0.737-0.369,1.218l-2.152-0.198c0.057-0.595,0.227-1.162,0.48-1.671c0.256-0.539,0.623-0.992,1.076-1.388
		c0.455-0.397,0.992-0.708,1.645-0.935c0.623-0.227,1.359-0.34,2.209-0.34c0.822,0,1.529,0.085,2.182,0.283s1.189,0.481,1.615,0.878
		c0.453,0.396,0.793,0.85,1.02,1.417c0.227,0.566,0.34,1.218,0.34,1.955c0,0.538-0.084,1.077-0.283,1.586
		c-0.199,0.481-0.482,0.963-0.793,1.417c-0.34,0.454-0.736,0.907-1.162,1.332c-0.424,0.396-0.906,0.822-1.359,1.218
		c-0.482,0.396-0.963,0.822-1.445,1.19c-0.48,0.396-0.934,0.793-1.359,1.218c-0.426,0.396-0.822,0.793-1.162,1.19
		c-0.34,0.425-0.594,0.85-0.793,1.303h8.613v1.785H452.43L452.43,321.631z"/>
	<path fill-rule="evenodd" clip-rule="evenodd" fill="#1B1B1B" d="M487.248,321.631V310.61c0-0.396,0-0.793,0-1.218
		c0.027-0.425,0.027-0.793,0.057-1.133c0-0.396,0.027-0.793,0.057-1.161c-0.113,0.396-0.227,0.793-0.34,1.189
		c-0.113,0.34-0.227,0.68-0.34,1.077c-0.113,0.368-0.256,0.708-0.369,1.02l-4.25,11.247h-1.586l-4.307-11.247
		c-0.057-0.113-0.113-0.255-0.141-0.425c-0.057-0.142-0.113-0.312-0.17-0.482c-0.057-0.198-0.113-0.368-0.17-0.538
		c-0.086-0.199-0.143-0.369-0.17-0.567c-0.143-0.396-0.283-0.821-0.396-1.274c0,0.425,0.027,0.878,0.027,1.303
		c0.029,0.368,0.029,0.737,0.029,1.162c0.027,0.397,0.027,0.737,0.027,1.048v11.021h-2.012v-16.517h2.947l4.391,11.445
		c0.057,0.17,0.143,0.368,0.199,0.623c0.084,0.227,0.17,0.482,0.227,0.737c0.084,0.255,0.141,0.51,0.197,0.737
		c0.057,0.227,0.113,0.425,0.113,0.538c0.029-0.113,0.086-0.312,0.143-0.538c0.057-0.227,0.141-0.482,0.227-0.737
		c0.084-0.255,0.141-0.51,0.227-0.765c0.084-0.227,0.141-0.425,0.227-0.595l4.307-11.445h2.861v16.517H487.248L487.248,321.631z"/>
	<path fill-rule="evenodd" clip-rule="evenodd" fill="#1B1B1B" d="M494.5,315.738c0,0.651,0.086,1.274,0.199,1.841
		c0.141,0.538,0.367,1.02,0.65,1.417c0.283,0.425,0.652,0.736,1.076,0.935c0.453,0.227,0.992,0.34,1.615,0.34
		c0.906,0,1.643-0.17,2.211-0.539c0.537-0.368,0.906-0.85,1.104-1.388l1.842,0.51c-0.113,0.368-0.311,0.708-0.539,1.076
		c-0.254,0.34-0.566,0.652-0.963,0.935c-0.396,0.312-0.906,0.539-1.5,0.708c-0.596,0.198-1.305,0.283-2.154,0.283
		c-1.869,0-3.314-0.567-4.277-1.672c-0.992-1.133-1.473-2.776-1.473-4.986c0-1.19,0.141-2.181,0.453-3.003
		c0.283-0.85,0.707-1.501,1.217-2.011c0.512-0.539,1.105-0.907,1.785-1.133c0.709-0.227,1.445-0.34,2.211-0.34
		c1.076,0,1.955,0.17,2.662,0.51c0.709,0.34,1.303,0.822,1.729,1.417c0.426,0.623,0.736,1.332,0.936,2.153
		c0.17,0.822,0.254,1.7,0.254,2.663v0.284H494.5L494.5,315.738z M501.385,314.123c-0.143-1.332-0.482-2.323-1.02-2.918
		c-0.568-0.623-1.389-0.935-2.438-0.935c-0.34,0-0.736,0.057-1.105,0.17c-0.396,0.113-0.736,0.312-1.076,0.595
		c-0.34,0.312-0.594,0.68-0.82,1.19s-0.369,1.133-0.396,1.898H501.385L501.385,314.123z"/>
	<path fill-rule="evenodd" clip-rule="evenodd" fill="#1B1B1B" d="M513.736,321.631h-2.295l-6.742-16.517h2.352l4.561,11.615
		c0.113,0.368,0.227,0.708,0.369,1.048c0.113,0.368,0.197,0.68,0.311,0.935c0.113,0.34,0.199,0.651,0.312,0.935
		c0.084-0.283,0.197-0.566,0.311-0.906c0.086-0.255,0.199-0.567,0.312-0.907c0.113-0.368,0.227-0.708,0.367-1.105l4.533-11.615
		h2.352L513.736,321.631L513.736,321.631z"/>
	<polygon fill-rule="evenodd" clip-rule="evenodd" fill="#FFFFFF" points="430.305,447.643 374.807,447.643 374.807,418.236 
		485.803,418.236 485.803,447.643 430.305,447.643 	"/>
	<polygon fill-rule="evenodd" clip-rule="evenodd" fill="#1B1B1B" points="383.418,439.88 383.418,438.379 386.932,438.379 
		386.932,427.783 383.814,430.021 383.814,428.35 387.072,426.111 388.688,426.111 388.688,438.379 392.031,438.379 392.031,439.88 
		383.418,439.88 	"/>
	<path fill-rule="evenodd" clip-rule="evenodd" fill="#1B1B1B" d="M396.818,437.728v1.643c0,0.368-0.029,0.68-0.057,0.963
		c-0.029,0.283-0.086,0.539-0.143,0.794c-0.057,0.227-0.141,0.453-0.227,0.68c-0.113,0.227-0.227,0.425-0.34,0.651h-1.217
		c0.311-0.425,0.537-0.878,0.68-1.303c0.17-0.426,0.254-0.851,0.254-1.275h-0.85v-2.152H396.818L396.818,437.728z"/>
	<path fill-rule="evenodd" clip-rule="evenodd" fill="#1B1B1B" d="M408.803,436.084c0,0.623-0.113,1.189-0.312,1.7
		c-0.199,0.481-0.51,0.906-0.906,1.246s-0.879,0.595-1.473,0.793c-0.568,0.17-1.248,0.255-1.984,0.255
		c-0.85,0-1.586-0.113-2.152-0.312c-0.596-0.227-1.076-0.51-1.445-0.85c-0.367-0.34-0.652-0.736-0.85-1.189
		c-0.199-0.454-0.312-0.907-0.369-1.389l1.814-0.17c0.057,0.368,0.141,0.708,0.283,1.02c0.141,0.283,0.34,0.539,0.566,0.766
		c0.254,0.198,0.537,0.368,0.906,0.481c0.34,0.142,0.766,0.198,1.246,0.198c0.879,0,1.588-0.227,2.068-0.651
		c0.51-0.454,0.766-1.105,0.766-1.955c0-0.51-0.113-0.906-0.34-1.219c-0.227-0.312-0.51-0.566-0.822-0.736
		c-0.34-0.17-0.709-0.283-1.105-0.34s-0.764-0.085-1.076-0.085h-1.02v-1.529h0.963c0.34,0,0.68-0.029,1.049-0.114
		c0.34-0.057,0.68-0.17,0.963-0.368c0.312-0.17,0.539-0.425,0.736-0.708c0.199-0.312,0.283-0.708,0.283-1.189
		c0-0.737-0.197-1.304-0.65-1.729c-0.426-0.425-1.049-0.651-1.928-0.651c-0.764,0-1.389,0.198-1.869,0.595
		c-0.482,0.396-0.766,0.963-0.822,1.672l-1.785-0.113c0.086-0.624,0.256-1.134,0.512-1.587c0.254-0.453,0.594-0.821,0.99-1.133
		c0.396-0.283,0.85-0.511,1.359-0.652c0.512-0.142,1.078-0.227,1.645-0.227c0.764,0,1.443,0.085,1.982,0.283
		c0.566,0.199,1.02,0.454,1.359,0.794c0.34,0.312,0.623,0.708,0.766,1.161c0.17,0.425,0.254,0.906,0.254,1.417
		c0,0.396-0.057,0.765-0.17,1.133c-0.113,0.34-0.283,0.651-0.51,0.935s-0.537,0.51-0.877,0.737c-0.369,0.198-0.822,0.34-1.332,0.453
		v0.028c0.566,0.057,1.049,0.198,1.473,0.368c0.396,0.198,0.736,0.453,0.992,0.736c0.283,0.283,0.48,0.595,0.623,0.964
		C408.717,435.291,408.803,435.688,408.803,436.084L408.803,436.084z"/>
	<path fill-rule="evenodd" clip-rule="evenodd" fill="#1B1B1B" d="M419.965,436.084c0,0.623-0.115,1.189-0.312,1.7
		c-0.199,0.481-0.51,0.906-0.906,1.246s-0.879,0.595-1.473,0.793c-0.568,0.17-1.248,0.255-1.984,0.255
		c-0.85,0-1.586-0.113-2.152-0.312c-0.596-0.227-1.076-0.51-1.445-0.85s-0.652-0.736-0.85-1.189
		c-0.199-0.454-0.312-0.907-0.369-1.389l1.814-0.17c0.057,0.368,0.141,0.708,0.283,1.02c0.141,0.283,0.34,0.539,0.566,0.766
		c0.254,0.198,0.537,0.368,0.906,0.481c0.34,0.142,0.766,0.198,1.246,0.198c0.879,0,1.586-0.227,2.068-0.651
		c0.51-0.454,0.766-1.105,0.766-1.955c0-0.51-0.113-0.906-0.34-1.219c-0.227-0.312-0.51-0.566-0.822-0.736
		c-0.34-0.17-0.709-0.283-1.105-0.34s-0.764-0.085-1.076-0.085h-1.02v-1.529h0.963c0.34,0,0.68-0.029,1.049-0.114
		c0.34-0.057,0.68-0.17,0.963-0.368c0.311-0.17,0.539-0.425,0.736-0.708c0.199-0.312,0.283-0.708,0.283-1.189
		c0-0.737-0.197-1.304-0.65-1.729c-0.426-0.425-1.049-0.651-1.928-0.651c-0.764,0-1.389,0.198-1.869,0.595
		c-0.482,0.396-0.766,0.963-0.822,1.672l-1.785-0.113c0.086-0.624,0.256-1.134,0.51-1.587c0.256-0.453,0.596-0.821,0.992-1.133
		c0.396-0.283,0.85-0.511,1.359-0.652s1.078-0.227,1.645-0.227c0.764,0,1.443,0.085,1.982,0.283c0.566,0.199,1.02,0.454,1.359,0.794
		c0.34,0.312,0.623,0.708,0.766,1.161c0.17,0.425,0.254,0.906,0.254,1.417c0,0.396-0.057,0.765-0.17,1.133
		c-0.113,0.34-0.283,0.651-0.51,0.935s-0.537,0.51-0.877,0.737c-0.369,0.198-0.822,0.34-1.332,0.453v0.028
		c0.566,0.057,1.049,0.198,1.473,0.368c0.396,0.198,0.736,0.453,0.992,0.736c0.283,0.283,0.48,0.595,0.623,0.964
		C419.879,435.291,419.965,435.688,419.965,436.084L419.965,436.084z"/>
	<path fill-rule="evenodd" clip-rule="evenodd" fill="#1B1B1B" d="M421.891,439.88v-1.246c0.311-0.766,0.736-1.417,1.189-2.012
		c0.482-0.595,0.992-1.104,1.529-1.586c0.51-0.482,1.049-0.907,1.559-1.304s0.992-0.821,1.389-1.218
		c0.424-0.396,0.764-0.822,1.02-1.275c0.256-0.425,0.396-0.935,0.396-1.501c0-0.397-0.057-0.737-0.17-1.021
		c-0.141-0.312-0.312-0.566-0.51-0.765c-0.227-0.198-0.51-0.34-0.793-0.453c-0.312-0.085-0.652-0.142-1.049-0.142
		c-0.34,0-0.68,0.057-0.992,0.142c-0.311,0.113-0.566,0.255-0.82,0.453c-0.227,0.198-0.426,0.425-0.596,0.708
		c-0.141,0.312-0.254,0.623-0.283,1.021l-1.812-0.17c0.057-0.482,0.197-0.964,0.424-1.389c0.199-0.453,0.512-0.821,0.879-1.161
		c0.369-0.312,0.822-0.566,1.359-0.766c0.539-0.198,1.162-0.283,1.842-0.283s1.303,0.085,1.842,0.255
		c0.539,0.142,0.963,0.397,1.332,0.709c0.367,0.312,0.65,0.708,0.85,1.189c0.197,0.453,0.311,0.991,0.311,1.615
		c0,0.453-0.084,0.906-0.254,1.331c-0.17,0.396-0.396,0.793-0.68,1.189c-0.256,0.369-0.596,0.737-0.963,1.077
		c-0.34,0.368-0.738,0.708-1.135,1.048c-0.396,0.312-0.793,0.652-1.189,0.992c-0.424,0.312-0.793,0.651-1.162,0.991
		c-0.34,0.34-0.65,0.651-0.934,0.991c-0.283,0.368-0.51,0.709-0.652,1.077h7.168v1.501H421.891L421.891,439.88z"/>
	<path fill-rule="evenodd" clip-rule="evenodd" fill="#1B1B1B" d="M450.871,439.88v-9.179c0-0.34,0-0.68,0-1.02
		c0-0.341,0.029-0.652,0.029-0.936c0.027-0.34,0.027-0.68,0.057-0.991c-0.086,0.34-0.199,0.68-0.283,0.991
		c-0.086,0.283-0.17,0.595-0.283,0.907c-0.086,0.312-0.199,0.595-0.283,0.85l-3.57,9.377h-1.303l-3.598-9.377
		c-0.057-0.085-0.086-0.227-0.143-0.34c-0.027-0.142-0.084-0.283-0.113-0.425c-0.057-0.142-0.113-0.283-0.17-0.454
		c-0.027-0.142-0.084-0.283-0.141-0.453c-0.086-0.34-0.199-0.68-0.312-1.076c0,0.368,0.029,0.736,0.029,1.104
		c0.027,0.283,0.027,0.624,0.027,0.964c0,0.312,0.029,0.623,0.029,0.878v9.179h-1.672v-13.769h2.436l3.684,9.548
		c0.027,0.142,0.084,0.312,0.17,0.51c0.057,0.198,0.113,0.396,0.17,0.623s0.113,0.425,0.17,0.623c0.057,0.17,0.086,0.34,0.086,0.426
		c0.027-0.086,0.057-0.256,0.113-0.454c0.057-0.17,0.113-0.396,0.197-0.595c0.057-0.227,0.113-0.425,0.199-0.623
		c0.057-0.227,0.113-0.368,0.17-0.51l3.598-9.548h2.379v13.769H450.871L450.871,439.88z"/>
	<path fill-rule="evenodd" clip-rule="evenodd" fill="#1B1B1B" d="M456.906,434.979c0,0.538,0.057,1.048,0.17,1.529
		c0.113,0.453,0.283,0.85,0.539,1.189c0.227,0.341,0.537,0.596,0.906,0.794c0.367,0.17,0.82,0.255,1.33,0.255
		c0.766,0,1.389-0.142,1.842-0.453s0.766-0.681,0.936-1.162l1.529,0.453c-0.113,0.283-0.254,0.567-0.453,0.879
		c-0.197,0.283-0.453,0.566-0.793,0.793c-0.34,0.255-0.766,0.425-1.246,0.595c-0.51,0.142-1.105,0.227-1.814,0.227
		c-1.557,0-2.746-0.453-3.568-1.388c-0.822-0.936-1.219-2.323-1.219-4.165c0-0.991,0.113-1.812,0.369-2.521
		c0.254-0.68,0.594-1.246,1.02-1.671c0.424-0.425,0.936-0.736,1.502-0.936c0.566-0.17,1.189-0.283,1.84-0.283
		c0.879,0,1.615,0.143,2.211,0.426c0.594,0.283,1.076,0.68,1.445,1.189c0.367,0.51,0.623,1.104,0.764,1.785
		c0.17,0.68,0.227,1.416,0.227,2.209v0.256H456.906L456.906,434.979z M462.629,433.619c-0.086-1.104-0.369-1.927-0.85-2.437
		c-0.453-0.51-1.133-0.765-2.012-0.765c-0.312,0-0.596,0.057-0.936,0.142c-0.311,0.085-0.623,0.255-0.877,0.51
		c-0.283,0.227-0.51,0.566-0.709,0.963c-0.17,0.426-0.283,0.936-0.312,1.587H462.629L462.629,433.619z"/>
	<path fill-rule="evenodd" clip-rule="evenodd" fill="#1B1B1B" d="M472.998,439.88h-1.955l-5.609-13.769h1.955l3.824,9.689
		c0.084,0.312,0.199,0.595,0.283,0.878c0.113,0.283,0.199,0.538,0.256,0.765c0.113,0.284,0.197,0.539,0.283,0.794
		c0.084-0.227,0.17-0.482,0.254-0.766c0.086-0.227,0.17-0.481,0.256-0.765c0.084-0.283,0.197-0.595,0.311-0.906l3.797-9.689h1.955
		L472.998,439.88L472.998,439.88z"/>
	<polygon fill-rule="evenodd" clip-rule="evenodd" fill="#FFFFFF" points="289.674,602.636 261.741,602.636 261.741,546.344 
		317.58,546.344 317.58,602.636 289.674,602.636 	"/>
	<path fill-rule="evenodd" clip-rule="evenodd" fill="#1B1B1B" d="M292.055,589.689l-16.178-25.752
		c0.029,0.68,0.057,1.388,0.086,2.067c0.027,0.596,0.057,1.219,0.084,1.87c0.029,0.651,0.029,1.218,0.029,1.729v20.086h-3.654
		v-30.257h4.787l16.346,25.95c-0.057-0.708-0.084-1.416-0.141-2.125c-0.029-0.595-0.057-1.246-0.086-1.954
		c-0.027-0.709-0.027-1.389-0.027-2.012v-19.859h3.682v30.257H292.055L292.055,589.689z"/>
	<path fill-rule="evenodd" clip-rule="evenodd" fill="#1B1B1B" d="M303.557,561.529v-3.683h3.852v3.683H303.557L303.557,561.529z
		 M303.557,589.689v-23.231h3.852v23.231H303.557L303.557,589.689z"/>
	<polygon fill-rule="evenodd" clip-rule="evenodd" fill="#FFFFFF" points="108.646,218.311 96.605,218.311 96.605,179.896 
		120.658,179.896 120.658,218.311 108.646,218.311 	"/>
	<path fill-rule="evenodd" clip-rule="evenodd" fill="#1B1B1B" d="M112.725,195.675l-2.663,8.244l-0.708-3.711
		c-0.737-3.654-1.501-4.844-3.088-4.844c-0.736,0-1.388,0.312-1.756,0.878c-0.538,0.736-0.651,1.332-0.708,3.343v0.312h0.538
		c0.057-0.623,0.085-0.991,0.198-1.332c0.255-0.765,0.822-1.247,1.53-1.247c0.652,0,1.105,0.397,1.558,1.389
		c0.567,1.246,1.19,3.428,1.445,5.212l0.284,1.983c-0.085,0.255-0.34,1.02-0.793,2.323c-0.481,1.303-0.623,2.012-0.623,2.805
		c0,1.133,0.51,1.898,1.274,1.898c0.992,0,1.615-1.247,1.615-3.145c0-0.765-0.113-1.898-0.397-3.711l4.873-10.397H112.725
		L112.725,195.675z"/>
	<polygon fill-rule="evenodd" clip-rule="evenodd" fill="#FFFFFF" points="384.324,236.697 372.285,236.697 372.285,198.282 
		396.336,198.282 396.336,236.697 384.324,236.697 	"/>
	<path fill-rule="evenodd" clip-rule="evenodd" fill="#1B1B1B" d="M388.404,214.062l-2.662,8.244l-0.709-3.711
		c-0.736-3.655-1.502-4.845-3.088-4.845c-0.736,0-1.389,0.312-1.756,0.878c-0.539,0.736-0.652,1.332-0.709,3.343v0.312h0.539
		c0.057-0.623,0.084-0.992,0.197-1.332c0.256-0.765,0.822-1.247,1.529-1.247c0.652,0,1.105,0.397,1.559,1.388
		c0.566,1.247,1.189,3.428,1.445,5.213l0.283,1.983c-0.086,0.255-0.34,1.02-0.793,2.323c-0.482,1.303-0.623,2.011-0.623,2.805
		c0,1.133,0.51,1.898,1.273,1.898c0.992,0,1.615-1.246,1.615-3.145c0-0.765-0.113-1.898-0.396-3.711l4.873-10.397H388.404
		L388.404,214.062z"/>
	<polygon fill-rule="evenodd" clip-rule="evenodd" fill="#FFFFFF" points="430.219,416.196 418.18,416.196 418.18,377.78 
		442.23,377.78 442.23,416.196 430.219,416.196 	"/>
	<path fill-rule="evenodd" clip-rule="evenodd" fill="#1B1B1B" d="M434.299,393.561l-2.662,8.244l-0.709-3.711
		c-0.736-3.655-1.502-4.845-3.088-4.845c-0.736,0-1.389,0.312-1.756,0.878c-0.539,0.736-0.652,1.332-0.709,3.343v0.312h0.539
		c0.057-0.624,0.084-0.992,0.197-1.332c0.256-0.765,0.822-1.246,1.529-1.246c0.652,0,1.105,0.396,1.559,1.388
		c0.566,1.247,1.189,3.428,1.445,5.213l0.283,1.983c-0.086,0.255-0.34,1.02-0.793,2.322c-0.482,1.304-0.623,2.012-0.623,2.805
		c0,1.134,0.51,1.898,1.273,1.898c0.992,0,1.615-1.246,1.615-3.145c0-0.765-0.113-1.898-0.396-3.711l4.873-10.397H434.299
		L434.299,393.561z"/>
	<polygon fill-rule="evenodd" clip-rule="evenodd" fill="#FFFFFF" points="245.055,577.167 227.858,577.167 227.858,543.908 
		262.223,543.908 262.223,577.167 245.055,577.167 	"/>
	<path fill-rule="evenodd" clip-rule="evenodd" fill="#1B1B1B" d="M243.61,553.993c-1.785,0-2.691,0.198-3.881,0.906
		c-2.437,1.445-4.08,4.448-4.08,7.508c0,3.173,1.87,5.553,4.334,5.553c2.352,0,4.306-2.068,4.306-4.59
		c0-2.379-1.615-4.051-3.938-4.051c-0.878,0-1.728,0.255-2.606,0.85c0.765-3.343,3.088-5.609,5.864-5.808V553.993L243.61,553.993z
		 M237.547,560.991c0.992-0.539,1.501-0.709,2.238-0.709c0.992,0,1.671,0.426,2.125,1.389c0.425,0.793,0.624,1.756,0.624,2.72
		c0,1.728-0.878,2.861-2.238,2.861c-1.756,0-2.861-1.842-2.861-4.703c0-0.481,0.028-1.104,0.085-1.416
		C237.547,561.048,237.547,561.048,237.547,560.991L237.547,560.991z"/>
	<path fill-rule="evenodd" clip-rule="evenodd" fill="#1B1B1B" d="M250.069,553.993c-1.756,0-3.003,0.878-3.796,2.72
		c-0.539,1.219-0.793,2.578-0.793,4.278c0,4.221,1.756,6.969,4.476,6.969s4.504-2.748,4.504-6.969
		C254.46,556.798,252.675,553.993,250.069,553.993L250.069,553.993z M250.041,554.701c1.7,0,2.493,1.927,2.493,6.233
		c0,4.306-0.793,6.204-2.55,6.204c-1.785,0-2.578-1.87-2.578-6.232C247.406,556.543,248.199,554.701,250.041,554.701
		L250.041,554.701z"/>
	<polygon fill-rule="evenodd" clip-rule="evenodd" fill="#FFFFFF" points="245.083,605.497 227.887,605.497 227.887,572.238 
		262.251,572.238 262.251,605.497 245.083,605.497 	"/>
	<path fill-rule="evenodd" clip-rule="evenodd" fill="#1B1B1B" d="M235.479,596.035h7.904l1.077-2.691h-0.481
		c-0.624,1.076-0.992,1.218-2.72,1.218h-3.853c4.08-3.966,5.553-6.232,5.553-8.584c0-2.124-1.501-3.654-3.541-3.654
		c-1.02,0-1.87,0.396-2.55,1.219c-0.567,0.651-0.793,1.274-0.992,2.492h0.34c0.227-0.651,0.369-0.963,0.652-1.303
		c0.481-0.566,1.218-0.906,1.926-0.906c1.388,0,2.606,1.388,2.606,2.946c0,1.897-1.417,4.419-3.938,6.969l-1.501,1.53l-0.481,0.481
		V596.035L235.479,596.035z"/>
	<path fill-rule="evenodd" clip-rule="evenodd" fill="#1B1B1B" d="M248.964,589.35c-2.04,1.331-2.833,2.379-2.833,3.796
		c0,1.812,1.615,3.145,3.881,3.145c2.21,0,3.853-1.416,3.853-3.371c0-1.417-0.765-2.493-2.975-4.222
		c1.813-1.02,2.691-2.096,2.691-3.286c0-1.728-1.615-3.088-3.626-3.088c-2.068,0-3.654,1.36-3.654,3.173
		C246.301,586.8,246.924,587.678,248.964,589.35L248.964,589.35z M249.531,589.746c2.436,2.124,2.89,2.72,2.89,3.853
		c0,1.104-0.963,1.927-2.267,1.927c-1.53,0-2.493-0.992-2.493-2.635C247.661,591.7,248.228,590.822,249.531,589.746L249.531,589.746
		z M250.38,588.272c-1.898-1.359-2.635-2.295-2.635-3.314c0-1.048,0.992-1.927,2.182-1.927c1.332,0,2.295,1.021,2.295,2.408
		C252.222,586.573,251.74,587.31,250.38,588.272L250.38,588.272z"/>
	<path fill="none" stroke="#010101" stroke-width="0" stroke-linejoin="round" stroke-miterlimit="10" d="M172.388,114.453h205.081
		 M175.25,173.946H380.33 M175.278,312.763h205.082"/>
	
		<line fill="none" stroke="#010101" stroke-width="2.8897" stroke-linejoin="round" stroke-miterlimit="10" x1="175.306" y1="539.403" x2="380.387" y2="539.403"/>
	<polygon fill-rule="evenodd" clip-rule="evenodd" fill="#FF0101" points="349.195,314.321 349.195,317.154 348.459,317.154 
		347.75,317.154 347.75,314.321 348.459,314.321 349.195,314.321 	"/>
	<polygon fill-rule="evenodd" clip-rule="evenodd" fill="#FF0101" points="349.195,320.016 349.195,322.849 348.459,322.849 
		347.75,322.849 347.75,320.016 348.459,320.016 349.195,320.016 	"/>
	<polygon fill-rule="evenodd" clip-rule="evenodd" fill="#FF0101" points="349.195,325.71 349.195,328.543 348.459,328.543 
		347.75,328.543 347.75,325.71 348.459,325.71 349.195,325.71 	"/>
	<polygon fill-rule="evenodd" clip-rule="evenodd" fill="#FF0101" points="349.195,331.404 349.195,334.237 348.459,334.237 
		347.75,334.237 347.75,331.404 348.459,331.404 349.195,331.404 	"/>
	<polygon fill-rule="evenodd" clip-rule="evenodd" fill="#FF0101" points="349.195,337.099 349.195,339.932 348.459,339.932 
		347.75,339.932 347.75,337.099 348.459,337.099 349.195,337.099 	"/>
	<polygon fill-rule="evenodd" clip-rule="evenodd" fill="#FF0101" points="349.195,342.793 349.195,345.626 348.459,345.626 
		347.75,345.626 347.75,342.793 348.459,342.793 349.195,342.793 	"/>
	<polygon fill-rule="evenodd" clip-rule="evenodd" fill="#FF0101" points="349.195,348.487 349.195,351.32 348.459,351.32 
		347.75,351.32 347.75,348.487 348.459,348.487 349.195,348.487 	"/>
	<polygon fill-rule="evenodd" clip-rule="evenodd" fill="#FF0101" points="349.195,354.182 349.195,357.015 348.459,357.015 
		347.75,357.015 347.75,354.182 348.459,354.182 349.195,354.182 	"/>
	<polygon fill-rule="evenodd" clip-rule="evenodd" fill="#FF0101" points="349.195,359.876 349.195,362.709 348.459,362.709 
		347.75,362.709 347.75,359.876 348.459,359.876 349.195,359.876 	"/>
	<polygon fill-rule="evenodd" clip-rule="evenodd" fill="#FF0101" points="349.195,365.542 349.195,368.403 348.459,368.403 
		347.75,368.403 347.75,365.542 348.459,365.542 349.195,365.542 	"/>
	<polygon fill-rule="evenodd" clip-rule="evenodd" fill="#FF0101" points="349.195,371.236 349.195,374.098 348.459,374.098 
		347.75,374.098 347.75,371.236 348.459,371.236 349.195,371.236 	"/>
	<polygon fill-rule="evenodd" clip-rule="evenodd" fill="#FF0101" points="349.195,376.931 349.195,379.792 348.459,379.792 
		347.75,379.792 347.75,376.931 348.459,376.931 349.195,376.931 	"/>
	<polygon fill-rule="evenodd" clip-rule="evenodd" fill="#FF0101" points="349.195,382.625 349.195,385.486 348.459,385.486 
		347.75,385.486 347.75,382.625 348.459,382.625 349.195,382.625 	"/>
	<polygon fill-rule="evenodd" clip-rule="evenodd" fill="#FF0101" points="349.195,388.319 349.195,391.181 348.459,391.181 
		347.75,391.181 347.75,388.319 348.459,388.319 349.195,388.319 	"/>
	<polygon fill-rule="evenodd" clip-rule="evenodd" fill="#FF0101" points="349.195,394.014 349.195,396.875 348.459,396.875 
		347.75,396.875 347.75,394.014 348.459,394.014 349.195,394.014 	"/>
	<polygon fill-rule="evenodd" clip-rule="evenodd" fill="#FF0101" points="349.195,399.708 349.195,402.569 348.459,402.569 
		347.75,402.569 347.75,399.708 348.459,399.708 349.195,399.708 	"/>
	<polygon fill-rule="evenodd" clip-rule="evenodd" fill="#FF0101" points="349.195,405.402 349.195,408.264 348.459,408.264 
		347.75,408.264 347.75,405.402 348.459,405.402 349.195,405.402 	"/>
	<polygon fill-rule="evenodd" clip-rule="evenodd" fill="#FF0101" points="349.195,411.097 349.195,413.93 348.459,413.93 
		347.75,413.93 347.75,411.097 348.459,411.097 349.195,411.097 	"/>
	<polygon fill-rule="evenodd" clip-rule="evenodd" fill="#FF0101" points="349.195,416.791 349.195,419.624 348.459,419.624 
		347.75,419.624 347.75,416.791 348.459,416.791 349.195,416.791 	"/>
	<polygon fill-rule="evenodd" clip-rule="evenodd" fill="#FF0101" points="349.195,422.485 349.195,425.318 348.459,425.318 
		347.75,425.318 347.75,422.485 348.459,422.485 349.195,422.485 	"/>
	<polygon fill-rule="evenodd" clip-rule="evenodd" fill="#FF0101" points="349.195,428.18 349.195,431.013 348.459,431.013 
		347.75,431.013 347.75,428.18 348.459,428.18 349.195,428.18 	"/>
	<polygon fill-rule="evenodd" clip-rule="evenodd" fill="#FF0101" points="349.195,433.874 349.195,436.707 348.459,436.707 
		347.75,436.707 347.75,433.874 348.459,433.874 349.195,433.874 	"/>
	<polygon fill-rule="evenodd" clip-rule="evenodd" fill="#FF0101" points="349.195,439.568 349.195,442.401 348.459,442.401 
		347.75,442.401 347.75,439.568 348.459,439.568 349.195,439.568 	"/>
	<polygon fill-rule="evenodd" clip-rule="evenodd" fill="#FF0101" points="349.195,445.263 349.195,448.096 348.459,448.096 
		347.75,448.096 347.75,445.263 348.459,445.263 349.195,445.263 	"/>
	<polygon fill-rule="evenodd" clip-rule="evenodd" fill="#FF0101" points="349.195,450.957 349.195,453.79 348.459,453.79 
		347.75,453.79 347.75,450.957 348.459,450.957 349.195,450.957 	"/>
	<polygon fill-rule="evenodd" clip-rule="evenodd" fill="#FF0101" points="349.195,456.651 349.195,459.484 348.459,459.484 
		347.75,459.484 347.75,456.651 348.459,456.651 349.195,456.651 	"/>
	<polygon fill-rule="evenodd" clip-rule="evenodd" fill="#FF0101" points="349.195,462.317 349.195,465.179 348.459,465.179 
		347.75,465.179 347.75,462.317 348.459,462.317 349.195,462.317 	"/>
	<polygon fill-rule="evenodd" clip-rule="evenodd" fill="#FF0101" points="349.195,468.012 349.195,470.873 348.459,470.873 
		347.75,470.873 347.75,468.012 348.459,468.012 349.195,468.012 	"/>
	<polygon fill-rule="evenodd" clip-rule="evenodd" fill="#FF0101" points="349.195,473.706 349.195,476.567 348.459,476.567 
		347.75,476.567 347.75,473.706 348.459,473.706 349.195,473.706 	"/>
	<polygon fill-rule="evenodd" clip-rule="evenodd" fill="#FF0101" points="349.195,479.4 349.195,482.262 348.459,482.262 
		347.75,482.262 347.75,479.4 348.459,479.4 349.195,479.4 	"/>
	<polygon fill-rule="evenodd" clip-rule="evenodd" fill="#FF0101" points="349.195,485.095 349.195,487.956 348.459,487.956 
		347.75,487.956 347.75,485.095 348.459,485.095 349.195,485.095 	"/>
	<polygon fill-rule="evenodd" clip-rule="evenodd" fill="#FF0101" points="349.195,490.789 349.195,493.65 348.459,493.65 
		347.75,493.65 347.75,490.789 348.459,490.789 349.195,490.789 	"/>
	<polygon fill-rule="evenodd" clip-rule="evenodd" fill="#FF0101" points="349.195,496.483 349.195,499.345 348.459,499.345 
		347.75,499.345 347.75,496.483 348.459,496.483 349.195,496.483 	"/>
	<polygon fill-rule="evenodd" clip-rule="evenodd" fill="#FF0101" points="349.195,502.178 349.195,505.011 348.459,505.011 
		347.75,505.011 347.75,502.178 348.459,502.178 349.195,502.178 	"/>
	<polygon fill-rule="evenodd" clip-rule="evenodd" fill="#FF0101" points="349.195,507.872 349.195,510.705 348.459,510.705 
		347.75,510.705 347.75,507.872 348.459,507.872 349.195,507.872 	"/>
	<polygon fill-rule="evenodd" clip-rule="evenodd" fill="#FF0101" points="349.195,513.566 349.195,516.399 348.459,516.399 
		347.75,516.399 347.75,513.566 348.459,513.566 349.195,513.566 	"/>
	<polygon fill-rule="evenodd" clip-rule="evenodd" fill="#FF0101" points="349.195,519.261 349.195,522.094 348.459,522.094 
		347.75,522.094 347.75,519.261 348.459,519.261 349.195,519.261 	"/>
	<polygon fill-rule="evenodd" clip-rule="evenodd" fill="#FF0101" points="348.459,537.392 353.869,521.216 343.076,521.216 
		348.459,537.392 	"/>
	<polygon fill-rule="evenodd" clip-rule="evenodd" fill="#FF0101" points="306.701,175.504 306.701,178.337 305.965,178.337 
		305.256,178.337 305.256,175.504 305.965,175.504 306.701,175.504 	"/>
	<polygon fill-rule="evenodd" clip-rule="evenodd" fill="#FF0101" points="306.701,181.199 306.701,184.032 305.965,184.032 
		305.256,184.032 305.256,181.199 305.965,181.199 306.701,181.199 	"/>
	<polygon fill-rule="evenodd" clip-rule="evenodd" fill="#FF0101" points="306.701,186.893 306.701,189.726 305.965,189.726 
		305.256,189.726 305.256,186.893 305.965,186.893 306.701,186.893 	"/>
	<polygon fill-rule="evenodd" clip-rule="evenodd" fill="#FF0101" points="306.701,192.587 306.701,195.42 305.965,195.42 
		305.256,195.42 305.256,192.587 305.965,192.587 306.701,192.587 	"/>
	<polygon fill-rule="evenodd" clip-rule="evenodd" fill="#FF0101" points="306.701,198.282 306.701,201.115 305.965,201.115 
		305.256,201.115 305.256,198.282 305.965,198.282 306.701,198.282 	"/>
	<polygon fill-rule="evenodd" clip-rule="evenodd" fill="#FF0101" points="306.701,203.976 306.701,206.809 305.965,206.809 
		305.256,206.809 305.256,203.976 305.965,203.976 306.701,203.976 	"/>
	<polygon fill-rule="evenodd" clip-rule="evenodd" fill="#FF0101" points="306.701,209.67 306.701,212.503 305.965,212.503 
		305.256,212.503 305.256,209.67 305.965,209.67 306.701,209.67 	"/>
	<polygon fill-rule="evenodd" clip-rule="evenodd" fill="#FF0101" points="306.701,215.365 306.701,218.198 305.965,218.198 
		305.256,218.198 305.256,215.365 305.965,215.365 306.701,215.365 	"/>
	<polygon fill-rule="evenodd" clip-rule="evenodd" fill="#FF0101" points="306.701,221.059 306.701,223.892 305.965,223.892 
		305.256,223.892 305.256,221.059 305.965,221.059 306.701,221.059 	"/>
	<polygon fill-rule="evenodd" clip-rule="evenodd" fill="#FF0101" points="306.701,226.725 306.701,229.586 305.965,229.586 
		305.256,229.586 305.256,226.725 305.965,226.725 306.701,226.725 	"/>
	<polygon fill-rule="evenodd" clip-rule="evenodd" fill="#FF0101" points="306.701,232.419 306.701,235.281 305.965,235.281 
		305.256,235.281 305.256,232.419 305.965,232.419 306.701,232.419 	"/>
	<polygon fill-rule="evenodd" clip-rule="evenodd" fill="#FF0101" points="306.701,238.114 306.701,240.975 305.965,240.975 
		305.256,240.975 305.256,238.114 305.965,238.114 306.701,238.114 	"/>
	<polygon fill-rule="evenodd" clip-rule="evenodd" fill="#FF0101" points="306.701,243.808 306.701,246.669 305.965,246.669 
		305.256,246.669 305.256,243.808 305.965,243.808 306.701,243.808 	"/>
	<polygon fill-rule="evenodd" clip-rule="evenodd" fill="#FF0101" points="306.701,249.502 306.701,252.364 305.965,252.364 
		305.256,252.364 305.256,249.502 305.965,249.502 306.701,249.502 	"/>
	<polygon fill-rule="evenodd" clip-rule="evenodd" fill="#FF0101" points="306.701,255.197 306.701,258.058 305.965,258.058 
		305.256,258.058 305.256,255.197 305.965,255.197 306.701,255.197 	"/>
	<polygon fill-rule="evenodd" clip-rule="evenodd" fill="#FF0101" points="306.701,260.891 306.701,263.752 305.965,263.752 
		305.256,263.752 305.256,260.891 305.965,260.891 306.701,260.891 	"/>
	<polygon fill-rule="evenodd" clip-rule="evenodd" fill="#FF0101" points="306.701,266.585 306.701,269.447 305.965,269.447 
		305.256,269.447 305.256,266.585 305.965,266.585 306.701,266.585 	"/>
	<polygon fill-rule="evenodd" clip-rule="evenodd" fill="#FF0101" points="306.701,272.28 306.701,275.113 305.965,275.113 
		305.256,275.113 305.256,272.28 305.965,272.28 306.701,272.28 	"/>
	<polygon fill-rule="evenodd" clip-rule="evenodd" fill="#FF0101" points="306.701,277.974 306.701,280.807 305.965,280.807 
		305.256,280.807 305.256,277.974 305.965,277.974 306.701,277.974 	"/>
	<polygon fill-rule="evenodd" clip-rule="evenodd" fill="#FF0101" points="306.701,283.668 306.701,286.501 305.965,286.501 
		305.256,286.501 305.256,283.668 305.965,283.668 306.701,283.668 	"/>
	<polygon fill-rule="evenodd" clip-rule="evenodd" fill="#FF0101" points="306.701,289.363 306.701,292.196 305.965,292.196 
		305.256,292.196 305.256,289.363 305.965,289.363 306.701,289.363 	"/>
	<polygon fill-rule="evenodd" clip-rule="evenodd" fill="#FF0101" points="306.701,295.057 306.701,297.89 305.965,297.89 
		305.256,297.89 305.256,295.057 305.965,295.057 306.701,295.057 	"/>
	<polygon fill-rule="evenodd" clip-rule="evenodd" fill="#FF0101" points="306.701,300.751 306.701,303.584 305.965,303.584 
		305.256,303.584 305.256,300.751 305.965,300.751 306.701,300.751 	"/>
	<polygon fill-rule="evenodd" clip-rule="evenodd" fill="#FF0101" points="306.701,306.446 306.701,309.279 305.965,309.279 
		305.256,309.279 305.256,306.446 305.965,306.446 306.701,306.446 	"/>
	<polygon fill-rule="evenodd" clip-rule="evenodd" fill="#FF0101" points="306.701,312.14 306.701,314.973 305.965,314.973 
		305.256,314.973 305.256,312.14 305.965,312.14 306.701,312.14 	"/>
	<polygon fill-rule="evenodd" clip-rule="evenodd" fill="#FF0101" points="306.701,317.834 306.701,320.667 305.965,320.667 
		305.256,320.667 305.256,317.834 305.965,317.834 306.701,317.834 	"/>
	<polygon fill-rule="evenodd" clip-rule="evenodd" fill="#FF0101" points="306.701,323.5 306.701,326.362 305.965,326.362 
		305.256,326.362 305.256,323.5 305.965,323.5 306.701,323.5 	"/>
	<polygon fill-rule="evenodd" clip-rule="evenodd" fill="#FF0101" points="306.701,329.195 306.701,332.056 305.965,332.056 
		305.256,332.056 305.256,329.195 305.965,329.195 306.701,329.195 	"/>
	<polygon fill-rule="evenodd" clip-rule="evenodd" fill="#FF0101" points="306.701,334.889 306.701,337.75 305.965,337.75 
		305.256,337.75 305.256,334.889 305.965,334.889 306.701,334.889 	"/>
	<polygon fill-rule="evenodd" clip-rule="evenodd" fill="#FF0101" points="306.701,340.583 306.701,343.445 305.965,343.445 
		305.256,343.445 305.256,340.583 305.965,340.583 306.701,340.583 	"/>
	<polygon fill-rule="evenodd" clip-rule="evenodd" fill="#FF0101" points="306.701,346.278 306.701,349.139 305.965,349.139 
		305.256,349.139 305.256,346.278 305.965,346.278 306.701,346.278 	"/>
	<polygon fill-rule="evenodd" clip-rule="evenodd" fill="#FF0101" points="306.701,351.972 306.701,354.834 305.965,354.834 
		305.256,354.834 305.256,351.972 305.965,351.972 306.701,351.972 	"/>
	<polygon fill-rule="evenodd" clip-rule="evenodd" fill="#FF0101" points="306.701,357.666 306.701,360.527 305.965,360.527 
		305.256,360.527 305.256,357.666 305.965,357.666 306.701,357.666 	"/>
	<polygon fill-rule="evenodd" clip-rule="evenodd" fill="#FF0101" points="306.701,363.361 306.701,366.193 305.965,366.193 
		305.256,366.193 305.256,363.361 305.965,363.361 306.701,363.361 	"/>
	<polygon fill-rule="evenodd" clip-rule="evenodd" fill="#FF0101" points="306.701,369.055 306.701,371.888 305.965,371.888 
		305.256,371.888 305.256,369.055 305.965,369.055 306.701,369.055 	"/>
	<polygon fill-rule="evenodd" clip-rule="evenodd" fill="#FF0101" points="306.701,374.749 306.701,377.582 305.965,377.582 
		305.256,377.582 305.256,374.749 305.965,374.749 306.701,374.749 	"/>
	<polygon fill-rule="evenodd" clip-rule="evenodd" fill="#FF0101" points="306.701,380.443 306.701,383.276 305.965,383.276 
		305.256,383.276 305.256,380.443 305.965,380.443 306.701,380.443 	"/>
	<polygon fill-rule="evenodd" clip-rule="evenodd" fill="#FF0101" points="306.701,386.138 306.701,388.971 305.965,388.971 
		305.256,388.971 305.256,386.138 305.965,386.138 306.701,386.138 	"/>
	<polygon fill-rule="evenodd" clip-rule="evenodd" fill="#FF0101" points="306.701,391.832 306.701,394.665 305.965,394.665 
		305.256,394.665 305.256,391.832 305.965,391.832 306.701,391.832 	"/>
	<polygon fill-rule="evenodd" clip-rule="evenodd" fill="#FF0101" points="306.701,397.526 306.701,400.359 305.965,400.359 
		305.256,400.359 305.256,397.526 305.965,397.526 306.701,397.526 	"/>
	<polygon fill-rule="evenodd" clip-rule="evenodd" fill="#FF0101" points="306.701,403.221 306.701,406.054 305.965,406.054 
		305.256,406.054 305.256,403.221 305.965,403.221 306.701,403.221 	"/>
	<polygon fill-rule="evenodd" clip-rule="evenodd" fill="#FF0101" points="306.701,408.915 306.701,411.748 305.965,411.748 
		305.256,411.748 305.256,408.915 305.965,408.915 306.701,408.915 	"/>
	<polygon fill-rule="evenodd" clip-rule="evenodd" fill="#FF0101" points="306.701,414.581 306.701,417.442 305.965,417.442 
		305.256,417.442 305.256,414.581 305.965,414.581 306.701,414.581 	"/>
	<polygon fill-rule="evenodd" clip-rule="evenodd" fill="#FF0101" points="306.701,420.275 306.701,423.137 305.965,423.137 
		305.256,423.137 305.256,420.275 305.965,420.275 306.701,420.275 	"/>
	<polygon fill-rule="evenodd" clip-rule="evenodd" fill="#FF0101" points="306.701,425.97 306.701,428.831 305.965,428.831 
		305.256,428.831 305.256,425.97 305.965,425.97 306.701,425.97 	"/>
	<polygon fill-rule="evenodd" clip-rule="evenodd" fill="#FF0101" points="306.701,431.664 306.701,434.525 305.965,434.525 
		305.256,434.525 305.256,431.664 305.965,431.664 306.701,431.664 	"/>
	<polygon fill-rule="evenodd" clip-rule="evenodd" fill="#FF0101" points="306.701,437.358 306.701,440.22 305.965,440.22 
		305.256,440.22 305.256,437.358 305.965,437.358 306.701,437.358 	"/>
	<polygon fill-rule="evenodd" clip-rule="evenodd" fill="#FF0101" points="306.701,443.053 306.701,445.914 305.965,445.914 
		305.256,445.914 305.256,443.053 305.965,443.053 306.701,443.053 	"/>
	<polygon fill-rule="evenodd" clip-rule="evenodd" fill="#FF0101" points="306.701,448.747 306.701,451.608 305.965,451.608 
		305.256,451.608 305.256,448.747 305.965,448.747 306.701,448.747 	"/>
	<polygon fill-rule="evenodd" clip-rule="evenodd" fill="#FF0101" points="306.701,454.441 306.701,457.303 305.965,457.303 
		305.256,457.303 305.256,454.441 305.965,454.441 306.701,454.441 	"/>
	<polygon fill-rule="evenodd" clip-rule="evenodd" fill="#FF0101" points="306.701,460.136 306.701,462.969 305.965,462.969 
		305.256,462.969 305.256,460.136 305.965,460.136 306.701,460.136 	"/>
	<polygon fill-rule="evenodd" clip-rule="evenodd" fill="#FF0101" points="306.701,465.83 306.701,468.663 305.965,468.663 
		305.256,468.663 305.256,465.83 305.965,465.83 306.701,465.83 	"/>
	<polygon fill-rule="evenodd" clip-rule="evenodd" fill="#FF0101" points="306.701,471.524 306.701,474.357 305.965,474.357 
		305.256,474.357 305.256,471.524 305.965,471.524 306.701,471.524 	"/>
	<polygon fill-rule="evenodd" clip-rule="evenodd" fill="#FF0101" points="306.701,477.219 306.701,480.052 305.965,480.052 
		305.256,480.052 305.256,477.219 305.965,477.219 306.701,477.219 	"/>
	<polygon fill-rule="evenodd" clip-rule="evenodd" fill="#FF0101" points="306.701,482.913 306.701,485.746 305.965,485.746 
		305.256,485.746 305.256,482.913 305.965,482.913 306.701,482.913 	"/>
	<polygon fill-rule="evenodd" clip-rule="evenodd" fill="#FF0101" points="306.701,488.607 306.701,491.44 305.965,491.44 
		305.256,491.44 305.256,488.607 305.965,488.607 306.701,488.607 	"/>
	<polygon fill-rule="evenodd" clip-rule="evenodd" fill="#FF0101" points="306.701,494.302 306.701,497.135 305.965,497.135 
		305.256,497.135 305.256,494.302 305.965,494.302 306.701,494.302 	"/>
	<polygon fill-rule="evenodd" clip-rule="evenodd" fill="#FF0101" points="306.701,499.996 306.701,502.829 305.965,502.829 
		305.256,502.829 305.256,499.996 305.965,499.996 306.701,499.996 	"/>
	<polygon fill-rule="evenodd" clip-rule="evenodd" fill="#FF0101" points="306.701,505.69 306.701,508.523 305.965,508.523 
		305.256,508.523 305.256,505.69 305.965,505.69 306.701,505.69 	"/>
	<polygon fill-rule="evenodd" clip-rule="evenodd" fill="#FF0101" points="306.701,511.356 306.701,514.218 305.965,514.218 
		305.256,514.218 305.256,511.356 305.965,511.356 306.701,511.356 	"/>
	<polygon fill-rule="evenodd" clip-rule="evenodd" fill="#FF0101" points="306.701,517.051 306.701,519.912 305.965,519.912 
		305.256,519.912 305.256,517.051 305.965,517.051 306.701,517.051 	"/>
	<polygon fill-rule="evenodd" clip-rule="evenodd" fill="#FF0101" points="305.965,535.296 311.375,519.119 300.582,519.119 
		305.965,535.296 	"/>
	<polygon fill-rule="evenodd" clip-rule="evenodd" fill="#FF0101" points="201.879,116.012 201.879,118.845 201.143,118.845 
		200.435,118.845 200.435,116.012 201.143,116.012 201.879,116.012 	"/>
	<polygon fill-rule="evenodd" clip-rule="evenodd" fill="#FF0101" points="201.879,121.706 201.879,124.539 201.143,124.539 
		200.435,124.539 200.435,121.706 201.143,121.706 201.879,121.706 	"/>
	<polygon fill-rule="evenodd" clip-rule="evenodd" fill="#FF0101" points="201.879,127.4 201.879,130.233 201.143,130.233 
		200.435,130.233 200.435,127.4 201.143,127.4 201.879,127.4 	"/>
	<polygon fill-rule="evenodd" clip-rule="evenodd" fill="#FF0101" points="201.879,133.095 201.879,135.928 201.143,135.928 
		200.435,135.928 200.435,133.095 201.143,133.095 201.879,133.095 	"/>
	<polygon fill-rule="evenodd" clip-rule="evenodd" fill="#FF0101" points="201.879,138.789 201.879,141.622 201.143,141.622 
		200.435,141.622 200.435,138.789 201.143,138.789 201.879,138.789 	"/>
	<polygon fill-rule="evenodd" clip-rule="evenodd" fill="#FF0101" points="201.879,144.483 201.879,147.316 201.143,147.316 
		200.435,147.316 200.435,144.483 201.143,144.483 201.879,144.483 	"/>
	<polygon fill-rule="evenodd" clip-rule="evenodd" fill="#FF0101" points="201.879,150.178 201.879,153.011 201.143,153.011 
		200.435,153.011 200.435,150.178 201.143,150.178 201.879,150.178 	"/>
	<polygon fill-rule="evenodd" clip-rule="evenodd" fill="#FF0101" points="201.879,155.872 201.879,158.705 201.143,158.705 
		200.435,158.705 200.435,155.872 201.143,155.872 201.879,155.872 	"/>
	<polygon fill-rule="evenodd" clip-rule="evenodd" fill="#FF0101" points="201.879,161.566 201.879,164.399 201.143,164.399 
		200.435,164.399 200.435,161.566 201.143,161.566 201.879,161.566 	"/>
	<polygon fill-rule="evenodd" clip-rule="evenodd" fill="#FF0101" points="201.879,167.232 201.879,170.094 201.143,170.094 
		200.435,170.094 200.435,167.232 201.143,167.232 201.879,167.232 	"/>
	<polygon fill-rule="evenodd" clip-rule="evenodd" fill="#FF0101" points="201.879,172.927 201.879,175.788 201.143,175.788 
		200.435,175.788 200.435,172.927 201.143,172.927 201.879,172.927 	"/>
	<polygon fill-rule="evenodd" clip-rule="evenodd" fill="#FF0101" points="201.879,178.621 201.879,181.482 201.143,181.482 
		200.435,181.482 200.435,178.621 201.143,178.621 201.879,178.621 	"/>
	<polygon fill-rule="evenodd" clip-rule="evenodd" fill="#FF0101" points="201.879,184.315 201.879,187.176 201.143,187.176 
		200.435,187.176 200.435,184.315 201.143,184.315 201.879,184.315 	"/>
	<polygon fill-rule="evenodd" clip-rule="evenodd" fill="#FF0101" points="201.879,190.009 201.879,192.871 201.143,192.871 
		200.435,192.871 200.435,190.009 201.143,190.009 201.879,190.009 	"/>
	<polygon fill-rule="evenodd" clip-rule="evenodd" fill="#FF0101" points="201.879,195.704 201.879,198.565 201.143,198.565 
		200.435,198.565 200.435,195.704 201.143,195.704 201.879,195.704 	"/>
	<polygon fill-rule="evenodd" clip-rule="evenodd" fill="#FF0101" points="201.879,201.398 201.879,204.259 201.143,204.259 
		200.435,204.259 200.435,201.398 201.143,201.398 201.879,201.398 	"/>
	<polygon fill-rule="evenodd" clip-rule="evenodd" fill="#FF0101" points="201.879,207.092 201.879,209.954 201.143,209.954 
		200.435,209.954 200.435,207.092 201.143,207.092 201.879,207.092 	"/>
	<polygon fill-rule="evenodd" clip-rule="evenodd" fill="#FF0101" points="201.879,212.787 201.879,215.62 201.143,215.62 
		200.435,215.62 200.435,212.787 201.143,212.787 201.879,212.787 	"/>
	<polygon fill-rule="evenodd" clip-rule="evenodd" fill="#FF0101" points="201.879,218.481 201.879,221.314 201.143,221.314 
		200.435,221.314 200.435,218.481 201.143,218.481 201.879,218.481 	"/>
	<polygon fill-rule="evenodd" clip-rule="evenodd" fill="#FF0101" points="201.879,224.175 201.879,227.008 201.143,227.008 
		200.435,227.008 200.435,224.175 201.143,224.175 201.879,224.175 	"/>
	<polygon fill-rule="evenodd" clip-rule="evenodd" fill="#FF0101" points="201.879,229.87 201.879,232.703 201.143,232.703 
		200.435,232.703 200.435,229.87 201.143,229.87 201.879,229.87 	"/>
	<polygon fill-rule="evenodd" clip-rule="evenodd" fill="#FF0101" points="201.879,235.564 201.879,238.397 201.143,238.397 
		200.435,238.397 200.435,235.564 201.143,235.564 201.879,235.564 	"/>
	<polygon fill-rule="evenodd" clip-rule="evenodd" fill="#FF0101" points="201.879,241.258 201.879,244.091 201.143,244.091 
		200.435,244.091 200.435,241.258 201.143,241.258 201.879,241.258 	"/>
	<polygon fill-rule="evenodd" clip-rule="evenodd" fill="#FF0101" points="201.879,246.953 201.879,249.786 201.143,249.786 
		200.435,249.786 200.435,246.953 201.143,246.953 201.879,246.953 	"/>
	<polygon fill-rule="evenodd" clip-rule="evenodd" fill="#FF0101" points="201.879,252.647 201.879,255.48 201.143,255.48 
		200.435,255.48 200.435,252.647 201.143,252.647 201.879,252.647 	"/>
	<polygon fill-rule="evenodd" clip-rule="evenodd" fill="#FF0101" points="201.879,258.341 201.879,261.174 201.143,261.174 
		200.435,261.174 200.435,258.341 201.143,258.341 201.879,258.341 	"/>
	<polygon fill-rule="evenodd" clip-rule="evenodd" fill="#FF0101" points="201.879,264.007 201.879,266.869 201.143,266.869 
		200.435,266.869 200.435,264.007 201.143,264.007 201.879,264.007 	"/>
	<polygon fill-rule="evenodd" clip-rule="evenodd" fill="#FF0101" points="201.879,269.702 201.879,272.563 201.143,272.563 
		200.435,272.563 200.435,269.702 201.143,269.702 201.879,269.702 	"/>
	<polygon fill-rule="evenodd" clip-rule="evenodd" fill="#FF0101" points="201.879,275.396 201.879,278.257 201.143,278.257 
		200.435,278.257 200.435,275.396 201.143,275.396 201.879,275.396 	"/>
	<polygon fill-rule="evenodd" clip-rule="evenodd" fill="#FF0101" points="201.879,281.09 201.879,283.952 201.143,283.952 
		200.435,283.952 200.435,281.09 201.143,281.09 201.879,281.09 	"/>
	<polygon fill-rule="evenodd" clip-rule="evenodd" fill="#FF0101" points="201.879,286.785 201.879,289.646 201.143,289.646 
		200.435,289.646 200.435,286.785 201.143,286.785 201.879,286.785 	"/>
	<polygon fill-rule="evenodd" clip-rule="evenodd" fill="#FF0101" points="201.879,292.479 201.879,295.34 201.143,295.34 
		200.435,295.34 200.435,292.479 201.143,292.479 201.879,292.479 	"/>
	<polygon fill-rule="evenodd" clip-rule="evenodd" fill="#FF0101" points="201.143,310.299 206.554,294.122 195.76,294.122 
		201.143,310.299 	"/>
	<path fill="none" stroke="#010180" stroke-width="0" stroke-linejoin="round" stroke-miterlimit="10" d="M310.553,232.873
		c1.645-7.706,5.666-23.457,8.471-15.1c3.004,8.952,6.516,14.165,9.662,10.057c3.002-3.91,6.799-17.225,9.377-10.057
		c2.605,7.309,4.93,13.23,8.441,13.4c4.561,0.227,4.986-13.23,8.754-15.921c4.816-3.399,3.004,17.707,7.877,11.757h3.002l0.312-0.85
		 M355.91,402.881c1.643-7.705,5.666-23.457,8.471-15.1c3.002,8.952,6.516,14.165,9.66,10.058c3.002-3.91,6.799-17.226,9.377-10.058
		c2.607,7.31,4.93,13.23,8.443,13.4c4.561,0.227,4.984-13.23,8.754-15.922c4.814-3.399,3.002,17.706,7.875,11.757h3.004l0.311-0.85
		 M196.469,197.885c-1.19,7.791-4.221,23.741-7.536,15.582c-3.541-8.754-7.366-13.74-10.255-9.434
		c-2.748,4.08-5.723,17.593-8.726,10.596c-3.06-7.139-5.751-12.918-9.264-12.862c-4.562,0.057-4.165,13.513-7.763,16.431
		c-4.589,3.683-4.08-17.479-8.584-11.247l-3.003,0.198l-0.255,0.85"/>
</g>
</svg>
