<?xml version="1.0" encoding="utf-8"?>
<!-- Generator: Adobe Illustrator 16.0.0, SVG Export Plug-In . SVG Version: 6.00 Build 0)  -->
<!DOCTYPE svg PUBLIC "-//W3C//DTD SVG 1.1//EN" "http://www.w3.org/Graphics/SVG/1.1/DTD/svg11.dtd">
<svg version="1.1" id="Layer_1" xmlns="http://www.w3.org/2000/svg" xmlns:xlink="http://www.w3.org/1999/xlink" x="0px" y="0px"
	 width="707.082px" height="526.627px" viewBox="0 0 707.082 526.627" enable-background="new 0 0 707.082 526.627"
	 xml:space="preserve">
<g>
	<polygon fill-rule="evenodd" clip-rule="evenodd" fill="#1B1B1B" points="661.611,451.608 659.062,447.699 656.484,451.608 
		654.785,451.608 658.184,446.708 654.955,442.09 656.684,442.09 659.062,445.801 661.414,442.09 663.199,442.09 659.969,446.708 
		663.396,451.608 661.611,451.608 	"/>
	<path fill-rule="evenodd" clip-rule="evenodd" fill="#1B1B1B" d="M322.898,444.413c0,1.189-0.113,2.182-0.34,3.003
		s-0.51,1.473-0.907,1.955c-0.396,0.51-0.85,0.878-1.388,1.104c-0.51,0.198-1.076,0.312-1.671,0.312c-0.595,0-1.162-0.113-1.7-0.312
		c-0.51-0.227-0.963-0.595-1.36-1.077c-0.368-0.51-0.68-1.161-0.906-1.982c-0.199-0.793-0.312-1.813-0.312-3.003
		c0-1.247,0.113-2.295,0.312-3.088c0.227-0.822,0.538-1.474,0.935-1.955c0.368-0.51,0.822-0.85,1.36-1.048
		c0.539-0.198,1.105-0.283,1.728-0.283c0.595,0,1.133,0.085,1.644,0.283c0.538,0.198,0.991,0.538,1.359,1.048
		c0.397,0.481,0.708,1.133,0.935,1.955C322.785,442.118,322.898,443.166,322.898,444.413L322.898,444.413z M321.312,444.413
		c0-0.992-0.057-1.813-0.198-2.465c-0.113-0.651-0.283-1.161-0.51-1.559c-0.227-0.396-0.51-0.651-0.822-0.821
		c-0.34-0.17-0.708-0.255-1.133-0.255c-0.453,0-0.85,0.085-1.189,0.255c-0.34,0.17-0.624,0.453-0.85,0.821
		c-0.227,0.397-0.396,0.907-0.539,1.587c-0.113,0.651-0.17,1.444-0.17,2.437c0,0.963,0.057,1.756,0.199,2.408
		c0.113,0.651,0.283,1.161,0.51,1.558s0.51,0.68,0.85,0.85c0.34,0.17,0.708,0.256,1.133,0.256c0.425,0,0.793-0.086,1.133-0.256
		s0.624-0.453,0.85-0.85s0.425-0.906,0.538-1.558C321.227,446.169,321.312,445.376,321.312,444.413L321.312,444.413z"/>
	<polygon fill-rule="evenodd" clip-rule="evenodd" fill="#1B1B1B" points="453.869,453.45 453.869,441.042 455.539,441.042 
		455.539,452.09 461.801,452.09 461.801,453.45 453.869,453.45 	"/>
	<path fill-rule="evenodd" clip-rule="evenodd" fill="#1B1B1B" d="M351.512,44.393H340.69v0.85h0.34
		c1.445,0,1.615,0.085,1.615,0.821v0.539v8.584v0.51c0,0.765-0.17,0.85-1.615,0.85h-0.34v0.85h11.049l0.368-4.816h-0.793
		c-0.227,1.275-0.651,2.38-1.077,2.918c-0.566,0.708-1.586,1.048-3.088,1.048h-1.19c-0.538,0-0.991-0.113-1.161-0.255
		c-0.114-0.113-0.142-0.227-0.142-0.595v-4.618h0.369c1.105,0,1.53,0.113,1.898,0.481c0.481,0.482,0.652,1.048,0.68,2.125h0.85
		v-5.921h-0.85c-0.085,1.756-0.793,2.464-2.521,2.464h-0.425v-4.108c0-0.765,0.17-0.878,1.133-0.878h0.935
		c1.586,0,2.352,0.142,2.975,0.651c0.595,0.482,1.02,1.473,1.303,3.088h0.765L351.512,44.393L351.512,44.393z"/>
	<path fill-rule="evenodd" clip-rule="evenodd" fill="#1B1B1B" d="M356.725,49.096h-3.116v0.878h0.651
		c0.68,0,0.766,0.113,0.766,0.907v4.306v0.708c0,0.737-0.199,0.85-1.332,0.85h-0.085v0.651h4.562v-0.651h-0.086
		c-1.161,0-1.359-0.113-1.359-0.85v-0.708v-1.87c0-0.907,0.113-1.7,0.312-2.125c0.396-0.793,1.19-1.36,1.983-1.36
		c0.453,0,0.991,0.255,1.274,0.624c0.255,0.368,0.397,0.935,0.397,1.813v2.918v0.708c0,0.737-0.199,0.85-1.389,0.85h-0.057v0.651
		h4.561v-0.651h-0.084c-1.162,0-1.36-0.113-1.36-0.85v-0.708v-2.833c0-1.303-0.057-1.615-0.368-2.238
		c-0.453-0.878-1.359-1.388-2.437-1.388c-1.134,0-2.04,0.539-2.833,1.729V49.096L356.725,49.096z"/>
	<path fill-rule="evenodd" clip-rule="evenodd" fill="#1B1B1B" d="M372.533,53.346c0.027-2.691-1.502-4.59-3.711-4.59
		c-2.295,0-4.023,1.983-4.023,4.703c0,2.521,1.643,4.221,4.08,4.221c1.699,0,2.918-0.85,3.654-2.55l-0.623-0.34
		c-0.736,1.388-1.502,1.926-2.691,1.926c-0.936,0-1.588-0.396-2.068-1.19c-0.312-0.538-0.453-1.19-0.426-2.181H372.533
		L372.533,53.346z M366.725,52.581c0-0.566,0.086-0.963,0.256-1.445c0.367-1.105,0.963-1.615,1.812-1.615
		c1.105,0,1.812,0.963,1.812,2.379c0,0.539-0.141,0.68-0.736,0.68H366.725L366.725,52.581z"/>
	<path fill-rule="evenodd" clip-rule="evenodd" fill="#1B1B1B" d="M376.727,49.096h-3.203v0.878h0.738
		c0.68,0,0.793,0.113,0.793,0.907v4.306v0.708c0,0.737-0.199,0.85-1.389,0.85h-0.057v0.651h4.787v-0.651h-0.34
		c-1.133,0-1.33-0.113-1.33-0.85v-0.708v-0.198c0-1.332,0.254-2.72,0.707-3.74c0.426-0.991,1.02-1.558,1.785-1.643
		c-0.256,0.283-0.312,0.453-0.312,0.793c0,0.595,0.396,0.991,0.965,0.991c0.65,0,1.104-0.481,1.104-1.218
		c0-0.878-0.594-1.445-1.559-1.445c-1.133,0-2.123,0.907-2.689,2.493V49.096L376.727,49.096z"/>
	<path fill-rule="evenodd" clip-rule="evenodd" fill="#1B1B1B" d="M384.715,56.037c-0.963,0-1.02,0-1.246-0.142
		c-0.113-0.085-0.227-0.283-0.227-0.481c0-0.566,0.51-0.822,1.699-0.822c1.699,0,1.982-0.028,2.578-0.312
		c1.076-0.481,1.699-1.417,1.699-2.606c0-0.736-0.17-1.189-0.68-1.785c0.312-0.312,0.482-0.425,0.623-0.425
		c0.086,0,0.143,0.057,0.17,0.255c0.086,0.425,0.369,0.652,0.822,0.652c0.424,0,0.793-0.369,0.793-0.878
		c0-0.595-0.482-1.02-1.189-1.02c-0.566,0-0.879,0.17-1.729,0.935c-0.736-0.51-1.332-0.68-2.209-0.68c-2.154,0-3.57,1.19-3.57,2.975
		c0,1.048,0.596,1.983,1.529,2.408c-1.217,0.283-1.729,0.822-1.729,1.813c0,0.793,0.369,1.247,1.219,1.558
		c-1.105,0.397-1.643,0.963-1.643,1.7c0,1.189,1.389,1.87,3.797,1.87c3.002,0,4.504-0.963,4.504-2.861
		c0-0.907-0.426-1.615-1.076-1.898c-0.482-0.17-1.049-0.255-2.295-0.255H384.715L384.715,56.037z M385.791,49.493
		c1.133,0,1.756,0.793,1.756,2.181c0,1.388-0.68,2.238-1.84,2.238c-1.105,0-1.814-0.85-1.814-2.182
		C383.893,50.314,384.572,49.493,385.791,49.493L385.791,49.493z M385.621,57.595c1.502,0,1.615,0,1.869,0.028
		c0.738,0.085,1.191,0.482,1.191,1.048c0,1.02-1.191,1.615-3.201,1.615c-1.502,0-2.381-0.425-2.381-1.246
		c0-0.595,0.34-0.992,1.189-1.445H385.621L385.621,57.595z"/>
	<path fill-rule="evenodd" clip-rule="evenodd" fill="#1B1B1B" d="M394.631,49.096h-3.4v0.878h0.936c0.65,0,0.764,0.113,0.764,0.907
		v4.306v0.708c0,0.737-0.197,0.85-1.33,0.85h-0.143v0.651h4.674v-0.651h-0.141c-1.162,0-1.359-0.113-1.359-0.822v-0.708V49.096
		L394.631,49.096z M393.779,44.506c-0.566,0-1.047,0.482-1.047,1.048s0.48,1.048,1.02,1.048c0.596,0,1.076-0.482,1.076-1.048
		S394.348,44.506,393.779,44.506L393.779,44.506z"/>
	<path fill-rule="evenodd" clip-rule="evenodd" fill="#1B1B1B" d="M404.688,51.617c0-1.133-0.199-1.728-0.709-2.153
		c-0.594-0.454-1.473-0.708-2.635-0.708c-2.012,0-3.512,0.935-3.512,2.238c0,0.68,0.424,1.133,1.047,1.133
		c0.566,0,0.965-0.397,0.965-0.935c0-0.227-0.086-0.481-0.256-0.736c-0.113-0.113-0.143-0.17-0.143-0.227
		c0-0.396,0.738-0.708,1.615-0.708c0.539,0,1.189,0.17,1.475,0.453c0.34,0.284,0.453,0.708,0.453,1.53v0.708
		c-1.871,0.312-2.465,0.453-3.344,0.793c-1.529,0.595-2.295,1.445-2.295,2.578c0,1.275,1.02,2.097,2.607,2.097
		c1.246,0,2.35-0.51,3.145-1.417c0.283,0.906,0.736,1.274,1.557,1.274c0.822,0,1.672-0.51,1.672-1.048
		c0-0.113-0.084-0.227-0.197-0.227c-0.057,0-0.143,0.028-0.256,0.085c-0.283,0.113-0.367,0.113-0.51,0.113
		c-0.51,0-0.68-0.34-0.68-1.218V51.617L404.688,51.617z M402.988,53.799c0,1.077-0.057,1.332-0.34,1.813
		c-0.455,0.652-1.275,1.105-2.068,1.105s-1.418-0.595-1.418-1.388c0-0.765,0.369-1.303,1.162-1.671
		c0.566-0.255,1.275-0.453,2.664-0.68V53.799L402.988,53.799z"/>
	
		<line fill="none" stroke="#0148FF" stroke-width="0" stroke-linejoin="round" stroke-miterlimit="10" stroke-dasharray="14.3916,14.3916,14.3916,14.3916" x1="107.817" y1="295" x2="647.504" y2="295"/>
	<path fill-rule="evenodd" clip-rule="evenodd" fill="#DC2401" d="M214.055,300.751c-3.003,0-5.411-2.407-5.411-5.382
		c0-3.004,2.408-5.411,5.411-5.411c2.975,0,5.383,2.407,5.383,5.411C219.438,298.344,217.029,300.751,214.055,300.751
		L214.055,300.751z"/>
	<path fill="none" stroke="#010101" stroke-width="0" stroke-linejoin="round" stroke-miterlimit="10" d="M214.055,300.751
		c-3.003,0-5.411-2.407-5.411-5.382c0-3.004,2.408-5.411,5.411-5.411c2.975,0,5.383,2.407,5.383,5.411
		C219.438,298.344,217.029,300.751,214.055,300.751L214.055,300.751z"/>
	<path fill-rule="evenodd" clip-rule="evenodd" fill="#1B1B1B" d="M226.577,280.949v0.34h-1.643c-0.057-0.17-0.113-0.369-0.17-0.567
		c-0.057-0.17-0.114-0.368-0.142-0.566c-0.057-0.17-0.085-0.368-0.113-0.538c-0.057-0.17-0.085-0.312-0.113-0.453h-0.028
		c-0.198,0.34-0.368,0.651-0.538,0.935s-0.368,0.51-0.566,0.737c-0.199,0.197-0.425,0.34-0.68,0.453
		c-0.283,0.113-0.595,0.17-0.935,0.17c-0.396,0-0.736-0.085-1.02-0.227c-0.312-0.17-0.567-0.396-0.793-0.709
		c-0.198-0.312-0.368-0.708-0.481-1.161s-0.17-0.991-0.17-1.587c0-0.68,0.085-1.246,0.227-1.756s0.368-0.906,0.623-1.246
		c0.255-0.341,0.595-0.596,0.963-0.766s0.793-0.255,1.247-0.255c0.34,0,0.623,0.028,0.906,0.113c0.255,0.085,0.482,0.227,0.68,0.396
		c0.227,0.17,0.396,0.397,0.538,0.681c0.17,0.254,0.283,0.594,0.425,0.963h0.028l0.566-1.955h1.218v0.312
		c-0.085,0.142-0.198,0.34-0.312,0.595c-0.113,0.227-0.227,0.482-0.34,0.793c-0.113,0.284-0.227,0.596-0.368,0.907
		c-0.113,0.34-0.227,0.651-0.34,0.964c0.142,0.65,0.312,1.274,0.453,1.812c0.17,0.566,0.34,1.048,0.51,1.502L226.577,280.949
		L226.577,280.949z M224.225,277.691c-0.057-0.596-0.142-1.105-0.255-1.502c-0.085-0.426-0.227-0.766-0.368-1.049
		c-0.17-0.254-0.34-0.453-0.539-0.566c-0.198-0.142-0.453-0.198-0.708-0.198c-0.595,0-1.02,0.284-1.332,0.878
		c-0.283,0.596-0.425,1.417-0.425,2.521c0,0.936,0.142,1.672,0.368,2.182c0.255,0.481,0.566,0.736,0.992,0.736
		c0.283,0,0.538-0.085,0.765-0.255s0.425-0.396,0.624-0.651c0.17-0.283,0.34-0.623,0.481-0.963
		C223.97,278.456,224.112,278.088,224.225,277.691L224.225,277.691z"/>
	<path fill-rule="evenodd" clip-rule="evenodd" fill="#DC2401" d="M525.713,300.779c-3.002,0-5.41-2.407-5.41-5.382
		c0-3.003,2.408-5.411,5.41-5.411c2.975,0,5.383,2.408,5.383,5.411C531.096,298.372,528.688,300.779,525.713,300.779
		L525.713,300.779z"/>
	<path fill="none" stroke="#010101" stroke-width="0" stroke-linejoin="round" stroke-miterlimit="10" d="M525.713,300.779
		c-3.002,0-5.41-2.407-5.41-5.382c0-3.003,2.408-5.411,5.41-5.411c2.975,0,5.383,2.408,5.383,5.411
		C531.096,298.372,528.688,300.779,525.713,300.779L525.713,300.779z"/>
	<polygon fill-rule="evenodd" clip-rule="evenodd" fill="#010101" points="536.678,293.556 541.719,293.556 541.719,294.264 
		541.719,295 536.678,295 536.678,294.264 536.678,293.556 	"/>
	<polygon fill-rule="evenodd" clip-rule="evenodd" fill="#010101" points="554.666,294.264 538.49,288.881 538.49,299.675 
		554.666,294.264 	"/>
	<path fill-rule="evenodd" clip-rule="evenodd" fill="#1B1B1B" d="M546.705,278.115v0.341h-1.643
		c-0.057-0.17-0.113-0.368-0.17-0.567c-0.057-0.17-0.113-0.367-0.143-0.566c-0.057-0.17-0.084-0.368-0.113-0.538
		c-0.057-0.17-0.084-0.312-0.113-0.453h-0.027c-0.199,0.34-0.369,0.651-0.539,0.935s-0.367,0.51-0.566,0.736
		c-0.197,0.199-0.424,0.341-0.68,0.454c-0.283,0.113-0.596,0.17-0.936,0.17c-0.396,0-0.736-0.085-1.02-0.227
		c-0.311-0.17-0.566-0.397-0.793-0.708c-0.197-0.312-0.367-0.709-0.48-1.162c-0.115-0.453-0.172-0.992-0.172-1.586
		c0-0.681,0.086-1.247,0.229-1.757c0.141-0.511,0.367-0.907,0.623-1.247c0.254-0.34,0.594-0.595,0.963-0.765
		c0.367-0.17,0.793-0.255,1.246-0.255c0.34,0,0.623,0.028,0.906,0.113c0.256,0.085,0.482,0.227,0.68,0.396
		c0.227,0.17,0.396,0.396,0.539,0.68c0.17,0.256,0.283,0.596,0.424,0.964h0.029l0.566-1.955h1.219v0.312
		c-0.086,0.142-0.199,0.34-0.312,0.596c-0.113,0.227-0.227,0.48-0.34,0.793c-0.113,0.283-0.227,0.595-0.367,0.906
		c-0.113,0.34-0.227,0.651-0.34,0.963c0.141,0.652,0.311,1.275,0.453,1.813c0.17,0.566,0.34,1.048,0.51,1.501L546.705,278.115
		L546.705,278.115z M544.354,274.857c-0.057-0.595-0.141-1.104-0.254-1.501c-0.086-0.425-0.227-0.765-0.369-1.048
		c-0.17-0.256-0.34-0.453-0.537-0.567c-0.199-0.142-0.453-0.198-0.709-0.198c-0.596,0-1.02,0.283-1.332,0.879
		c-0.283,0.595-0.424,1.416-0.424,2.521c0,0.935,0.141,1.671,0.367,2.181c0.256,0.481,0.566,0.736,0.992,0.736
		c0.283,0,0.539-0.085,0.766-0.255s0.424-0.396,0.623-0.651c0.17-0.283,0.34-0.623,0.48-0.963
		C544.1,275.623,544.24,275.254,544.354,274.857L544.354,274.857z"/>
	<path fill-rule="evenodd" clip-rule="evenodd" fill="#1B1B1B" d="M199.776,301.885h-10.822v0.85h0.34
		c1.445,0,1.615,0.085,1.615,0.821v0.539v8.584v0.51c0,0.765-0.17,0.85-1.615,0.85h-0.34v0.85h11.049l0.368-4.815h-0.793
		c-0.227,1.274-0.652,2.379-1.077,2.918c-0.566,0.708-1.586,1.048-3.088,1.048h-1.19c-0.538,0-0.992-0.113-1.162-0.255
		c-0.113-0.113-0.142-0.227-0.142-0.595v-4.618h0.368c1.105,0,1.53,0.113,1.898,0.481c0.481,0.481,0.651,1.049,0.68,2.125h0.85
		v-5.921h-0.85c-0.085,1.757-0.793,2.465-2.521,2.465h-0.425v-4.108c0-0.765,0.17-0.878,1.133-0.878h0.935
		c1.586,0,2.351,0.142,2.975,0.651c0.595,0.481,1.02,1.474,1.303,3.088h0.765L199.776,301.885L199.776,301.885z"/>
	
		<line fill="none" stroke="#010101" stroke-width="0" stroke-linejoin="round" stroke-miterlimit="10" stroke-dasharray="14.3916,14.3916,14.3916,14.3916" x1="107.817" y1="215.676" x2="647.504" y2="215.676"/>
	<polygon fill-rule="evenodd" clip-rule="evenodd" fill="#99CCFF" points="390.521,423.25 327.544,423.25 327.544,215.875 
		453.471,215.875 453.471,423.25 390.521,423.25 	"/>
	<polygon fill="none" stroke="#010101" stroke-width="1.4448" stroke-linejoin="round" stroke-miterlimit="10" points="
		390.521,423.25 327.544,423.25 327.544,215.875 453.471,215.875 453.471,423.25 390.521,423.25 	"/>
	<path fill-rule="evenodd" clip-rule="evenodd" fill="#1B1B1B" d="M199.805,188.593h-10.822v0.85h0.34
		c1.445,0,1.615,0.085,1.615,0.822v0.538v8.584v0.51c0,0.765-0.17,0.85-1.615,0.85h-0.34v0.85h11.048l0.369-4.816h-0.793
		c-0.227,1.275-0.652,2.38-1.077,2.918c-0.566,0.708-1.586,1.048-3.088,1.048h-1.19c-0.538,0-0.992-0.113-1.162-0.255
		c-0.113-0.114-0.142-0.227-0.142-0.595v-4.618h0.369c1.104,0,1.53,0.113,1.898,0.481c0.481,0.482,0.651,1.048,0.68,2.125h0.85
		v-5.921h-0.85c-0.085,1.756-0.793,2.464-2.521,2.464h-0.425v-4.107c0-0.765,0.17-0.878,1.133-0.878h0.935
		c1.586,0,2.351,0.142,2.975,0.651c0.595,0.482,1.02,1.473,1.303,3.088h0.765L199.805,188.593L199.805,188.593z"/>
	<path fill-rule="evenodd" clip-rule="evenodd" fill="#1B1B1B" d="M204.394,201.823c-1.473,0-2.55,1.615-2.55,3.796
		c0,2.125,1.048,3.711,2.465,3.711c1.445,0,2.465-1.53,2.465-3.683c0-1.104-0.227-2.04-0.651-2.748
		C205.697,202.248,205.046,201.823,204.394,201.823L204.394,201.823z M204.309,202.276c0.34,0,0.68,0.227,0.935,0.651
		c0.283,0.482,0.368,1.105,0.368,2.521c0,1.473-0.085,2.153-0.283,2.606c-0.227,0.51-0.624,0.821-1.02,0.821
		c-0.34,0-0.68-0.227-0.906-0.651c-0.312-0.481-0.397-1.133-0.397-2.833c0-1.218,0.085-1.841,0.284-2.295
		C203.544,202.588,203.913,202.276,204.309,202.276L204.309,202.276z"/>
	<polygon fill-rule="evenodd" clip-rule="evenodd" fill="#010101" points="325.816,423.25 325.816,40.427 326.525,40.427 
		327.261,40.427 327.261,423.25 326.525,423.25 325.816,423.25 	"/>
	<polygon fill-rule="evenodd" clip-rule="evenodd" fill="#010101" points="326.525,27.48 321.142,43.685 331.936,43.685 
		326.525,27.48 	"/>
	<path fill-rule="evenodd" clip-rule="evenodd" fill="#1B1B1B" d="M552.428,342.935h-13.174l-0.311,6.119h0.936
		c0.17-1.104,0.367-1.954,0.594-2.635c0.566-1.614,1.615-2.464,3.117-2.464c0.736,0,1.047,0.255,1.047,0.793v11.36v0.623
		c0,0.935-0.197,1.048-1.982,1.048h-0.566v1.021h7.535v-1.021h-0.566c-1.756,0-1.955-0.113-1.955-1.048v-0.623v-11.36
		c0-0.538,0.312-0.793,1.021-0.793c1.33,0,2.406,0.765,2.975,2.067c0.34,0.822,0.537,1.757,0.707,3.031h0.963L552.428,342.935
		L552.428,342.935z"/>
	<path fill-rule="evenodd" clip-rule="evenodd" fill="#1B1B1B" d="M567.924,350.669c-0.48,0-0.99-0.085-1.529-0.227
		c-0.51-0.17-1.02-0.34-1.559-0.51c-0.453-0.17-0.877-0.283-1.273-0.368c-0.369-0.086-0.736-0.113-1.049-0.113
		c-0.283,0-0.51,0.027-0.766,0.057c-0.227,0.057-0.453,0.113-0.65,0.17c-0.227,0.085-0.426,0.198-0.623,0.312
		c-0.199,0.113-0.426,0.255-0.623,0.396v-1.559c0.367-0.255,0.764-0.453,1.246-0.623c0.48-0.17,0.99-0.255,1.586-0.255
		c0.283,0,0.566,0.028,0.85,0.057c0.283,0.057,0.566,0.113,0.85,0.198c0.283,0.057,0.539,0.142,0.822,0.255
		c0.256,0.085,0.51,0.17,0.793,0.283c0.143,0.057,0.312,0.113,0.482,0.17c0.197,0.028,0.367,0.085,0.537,0.142
		c0.199,0.057,0.369,0.085,0.566,0.113c0.17,0.028,0.34,0.057,0.512,0.057c0.51,0,0.963-0.085,1.416-0.283
		c0.424-0.17,0.82-0.425,1.217-0.736v1.615c-0.254,0.142-0.453,0.283-0.68,0.396c-0.197,0.113-0.424,0.198-0.65,0.255
		c-0.199,0.085-0.426,0.113-0.68,0.142C568.463,350.641,568.209,350.669,567.924,350.669L567.924,350.669z M567.924,355.201
		c-0.48,0-0.99-0.084-1.529-0.255c-0.51-0.142-1.02-0.312-1.559-0.51c-0.453-0.17-0.877-0.283-1.273-0.368
		c-0.369-0.085-0.736-0.142-1.049-0.142c-0.283,0-0.51,0.028-0.766,0.057c-0.227,0.057-0.453,0.113-0.65,0.198
		c-0.227,0.085-0.426,0.198-0.623,0.312c-0.199,0.113-0.426,0.227-0.623,0.396v-1.529c0.367-0.255,0.764-0.481,1.246-0.651
		c0.48-0.17,0.99-0.256,1.586-0.256c0.283,0,0.566,0.029,0.85,0.086c0.283,0.028,0.566,0.085,0.85,0.17s0.539,0.142,0.822,0.255
		c0.256,0.085,0.51,0.17,0.793,0.283c0.143,0.057,0.312,0.113,0.482,0.17c0.197,0.028,0.367,0.085,0.537,0.142
		c0.199,0.057,0.369,0.085,0.566,0.113c0.17,0.028,0.34,0.057,0.512,0.057c0.51,0,0.963-0.085,1.416-0.283
		c0.424-0.17,0.82-0.425,1.217-0.708v1.558c-0.254,0.17-0.453,0.312-0.68,0.425c-0.197,0.113-0.424,0.227-0.65,0.283
		c-0.199,0.085-0.426,0.114-0.68,0.142C568.463,355.174,568.209,355.201,567.924,355.201L567.924,355.201z"/>
	<path fill-rule="evenodd" clip-rule="evenodd" fill="#1B1B1B" d="M587.586,353.87c0.027-3.286-1.842-5.609-4.533-5.609
		c-2.805,0-4.93,2.437-4.93,5.723c0,3.06,2.012,5.156,4.986,5.156c2.068,0,3.57-1.021,4.477-3.116l-0.766-0.425
		c-0.906,1.699-1.842,2.351-3.314,2.351c-1.104,0-1.926-0.481-2.492-1.444c-0.396-0.651-0.566-1.417-0.566-2.635H587.586
		L587.586,353.87z M580.475,352.936c0-0.681,0.086-1.162,0.312-1.785c0.453-1.331,1.16-1.955,2.209-1.955
		c1.359,0,2.238,1.162,2.238,2.918c0,0.624-0.199,0.822-0.906,0.822H580.475L580.475,352.936z"/>
	<polygon fill-rule="evenodd" clip-rule="evenodd" fill="#1B1B1B" points="588.918,346.022 588.918,347.071 592.09,347.071 
		592.09,346.022 588.918,346.022 	"/>
	<path fill-rule="evenodd" clip-rule="evenodd" fill="#1B1B1B" d="M599.002,346.816h-0.566l-0.113,0.651
		c-0.17,0.793-0.254,0.906-1.047,0.906h-2.861c0.877-0.935,1.16-1.189,1.982-1.841c1.162-0.879,1.672-1.332,1.955-1.729
		c0.396-0.566,0.594-1.134,0.594-1.729c0-1.444-1.189-2.493-2.861-2.493c-1.613,0-2.861,1.049-2.861,2.38
		c0,0.822,0.396,1.36,1.021,1.36c0.48,0,0.793-0.312,0.793-0.766c0-0.34-0.17-0.623-0.453-0.736c-0.482-0.198-0.51-0.227-0.51-0.396
		s0.141-0.481,0.311-0.68c0.312-0.396,0.85-0.623,1.445-0.623c1.049,0,1.699,0.651,1.699,1.728c0,0.936-0.453,1.785-1.502,2.918
		l-0.764,0.793l-0.992,1.077c-0.453,0.538-0.68,0.821-1.246,1.558v0.369h5.75L599.002,346.816L599.002,346.816z"/>
	<path fill-rule="evenodd" clip-rule="evenodd" fill="#1B1B1B" d="M602.203,346.476v-6.261h-2.379v0.623h0.623
		c0.482,0,0.539,0.086,0.539,0.652v6.516v0.51c0,0.51-0.143,0.595-0.936,0.595h-0.057v0.454h3.23v-0.454h-0.057
		c-0.822,0-0.965-0.085-0.965-0.595v-0.51v-0.736l0.766-0.736l1.529,2.124c0.029,0.085,0.086,0.17,0.086,0.227
		c0,0.17-0.143,0.227-0.566,0.227h-0.256v0.454h3.371v-0.454c-0.707-0.085-0.963-0.227-1.473-0.878l-1.812-2.493l0.566-0.566
		c0.736-0.708,1.275-0.991,2.152-1.104v-0.454h-3.342v0.454h0.396c0.396,0,0.594,0.085,0.594,0.255c0,0.142-0.084,0.283-0.311,0.481
		L602.203,346.476L602.203,346.476z"/>
	<path fill-rule="evenodd" clip-rule="evenodd" fill="#1B1B1B" d="M615.463,346.051h-0.566c-0.143,0.879-0.426,1.757-0.766,2.182
		c-0.396,0.481-1.133,0.736-2.209,0.736h-0.539c-0.367,0-0.709-0.085-0.822-0.198c-0.084-0.085-0.084-0.142-0.084-0.425v-6.431
		v-0.396c0-0.538,0.113-0.595,1.133-0.595h0.227v-0.596h-4.164v0.596h0.227c1.02,0,1.133,0.057,1.133,0.595v0.396v6.062v0.396
		c0,0.538-0.113,0.595-1.133,0.595h-0.227v0.596h7.508L615.463,346.051L615.463,346.051z"/>
	<polygon fill-rule="evenodd" clip-rule="evenodd" fill="#010101" points="107.817,421.806 631.979,421.806 631.979,423.25 
		631.979,424.695 107.817,424.695 107.817,423.25 107.817,421.806 	"/>
	<polygon fill-rule="evenodd" clip-rule="evenodd" fill="#010101" points="647.504,423.25 628.098,416.791 628.098,429.738 
		647.504,423.25 	"/>
	<path fill-rule="evenodd" clip-rule="evenodd" fill="#1B1B1B" d="M535.629,376.421c-0.85,0.51-1.303,0.878-1.756,1.444
		c-1.078,1.247-1.645,2.861-1.645,4.562c0,1.587,0.51,3.088,1.445,4.335c0.51,0.68,0.992,1.104,1.955,1.699v-0.51
		c-1.416-1.246-1.955-2.833-1.955-5.524s0.539-4.249,1.955-5.496V376.421L535.629,376.421z"/>
	<path fill-rule="evenodd" clip-rule="evenodd" fill="#1B1B1B" d="M541.805,384.665c-0.453,0.991-0.906,1.416-1.643,1.416
		c-1.135,0-1.814-1.02-1.814-2.663c0-1.699,0.68-2.833,1.701-2.833c0.424,0,0.793,0.198,0.793,0.426c0,0.028-0.029,0.085-0.086,0.17
		c-0.227,0.255-0.283,0.396-0.283,0.651c0,0.453,0.369,0.765,0.85,0.765c0.482,0,0.85-0.396,0.85-0.935
		c0-0.964-0.934-1.672-2.18-1.672c-1.814,0-3.117,1.502-3.117,3.569c0,2.012,1.189,3.372,2.918,3.372
		c1.246,0,1.955-0.567,2.551-2.068L541.805,384.665L541.805,384.665z"/>
	<path fill-rule="evenodd" clip-rule="evenodd" fill="#1B1B1B" d="M546.139,379.99c-1.699,0-3.031,1.53-3.031,3.484
		c0,1.927,1.332,3.457,3.031,3.457c1.672,0,3.004-1.53,3.004-3.485C549.143,381.549,547.811,379.99,546.139,379.99L546.139,379.99z
		 M546.139,380.585c0.992,0,1.529,1.021,1.529,2.861c0,1.87-0.537,2.89-1.529,2.89c-1.02,0-1.559-1.02-1.559-2.861
		C544.58,381.577,545.09,380.585,546.139,380.585L546.139,380.585z"/>
	<path fill-rule="evenodd" clip-rule="evenodd" fill="#1B1B1B" d="M556.225,383.56c0-2.096-1.189-3.569-2.891-3.569
		c-1.783,0-3.145,1.559-3.145,3.654c0,1.955,1.275,3.287,3.174,3.287c1.332,0,2.266-0.652,2.861-1.983l-0.51-0.283
		c-0.566,1.076-1.162,1.501-2.098,1.501c-0.707,0-1.217-0.312-1.586-0.906c-0.254-0.425-0.367-0.935-0.34-1.7H556.225
		L556.225,383.56z M551.691,382.965c0-0.425,0.057-0.736,0.199-1.133c0.283-0.85,0.736-1.247,1.416-1.247
		c0.85,0,1.416,0.737,1.416,1.87c0,0.396-0.141,0.51-0.566,0.51H551.691L551.691,382.965z"/>
	<path fill-rule="evenodd" clip-rule="evenodd" fill="#1B1B1B" d="M559.596,380.217v-0.821c0-0.68,0.057-1.161,0.17-1.444
		c0.227-0.624,0.709-0.992,1.275-0.992c0.283,0,0.453,0.085,0.453,0.227c0,0.057,0,0.085-0.057,0.198
		c-0.086,0.142-0.143,0.283-0.143,0.453c0,0.426,0.34,0.737,0.766,0.737c0.482,0,0.793-0.34,0.793-0.851
		c0-0.821-0.709-1.331-1.842-1.331c-0.963,0-1.672,0.34-2.152,1.048c-0.426,0.595-0.566,1.19-0.566,2.323v0.453h-1.246v0.596h1.246
		v4.192v0.566c0,0.566-0.17,0.651-1.049,0.651h-0.057v0.511h3.74v-0.511h-0.256c-0.906,0-1.076-0.085-1.076-0.651v-0.566v-4.192
		h1.559v-0.596H559.596L559.596,380.217z"/>
	<path fill-rule="evenodd" clip-rule="evenodd" fill="#1B1B1B" d="M564.836,380.273h-2.635v0.681h0.709
		c0.51,0,0.596,0.085,0.596,0.708v3.343v0.566c0,0.566-0.143,0.651-1.049,0.651h-0.084v0.511h3.625v-0.511h-0.113
		c-0.906,0-1.049-0.085-1.049-0.651v-0.538V380.273L564.836,380.273z M564.186,376.704c-0.453,0-0.822,0.368-0.822,0.821
		c0,0.426,0.369,0.794,0.793,0.794c0.453,0,0.822-0.341,0.822-0.794S564.609,376.704,564.186,376.704L564.186,376.704z"/>
	<path fill-rule="evenodd" clip-rule="evenodd" fill="#1B1B1B" d="M571.777,384.665c-0.453,0.991-0.906,1.416-1.643,1.416
		c-1.133,0-1.812-1.02-1.812-2.663c0-1.699,0.68-2.833,1.699-2.833c0.424,0,0.793,0.198,0.793,0.426c0,0.028-0.029,0.085-0.086,0.17
		c-0.227,0.255-0.283,0.396-0.283,0.651c0,0.453,0.369,0.765,0.852,0.765c0.48,0,0.85-0.396,0.85-0.935
		c0-0.964-0.936-1.672-2.182-1.672c-1.812,0-3.117,1.502-3.117,3.569c0,2.012,1.191,3.372,2.918,3.372
		c1.248,0,1.955-0.567,2.551-2.068L571.777,384.665L571.777,384.665z"/>
	<path fill-rule="evenodd" clip-rule="evenodd" fill="#1B1B1B" d="M575.518,380.273h-2.635v0.681h0.707
		c0.512,0,0.596,0.085,0.596,0.708v3.343v0.566c0,0.566-0.141,0.651-1.049,0.651h-0.084v0.511h3.627v-0.511h-0.113
		c-0.908,0-1.049-0.085-1.049-0.651v-0.538V380.273L575.518,380.273z M574.865,376.704c-0.453,0-0.82,0.368-0.82,0.821
		c0,0.426,0.367,0.794,0.793,0.794c0.453,0,0.82-0.341,0.82-0.794S575.291,376.704,574.865,376.704L574.865,376.704z"/>
	<path fill-rule="evenodd" clip-rule="evenodd" fill="#1B1B1B" d="M583.562,383.56c0-2.096-1.189-3.569-2.889-3.569
		c-1.785,0-3.145,1.559-3.145,3.654c0,1.955,1.273,3.287,3.172,3.287c1.332,0,2.268-0.652,2.861-1.983l-0.51-0.283
		c-0.566,1.076-1.162,1.501-2.096,1.501c-0.709,0-1.219-0.312-1.588-0.906c-0.254-0.425-0.367-0.935-0.34-1.7H583.562
		L583.562,383.56z M579.029,382.965c0-0.425,0.057-0.736,0.199-1.133c0.283-0.85,0.736-1.247,1.416-1.247
		c0.85,0,1.416,0.737,1.416,1.87c0,0.396-0.141,0.51-0.566,0.51H579.029L579.029,382.965z"/>
	<path fill-rule="evenodd" clip-rule="evenodd" fill="#1B1B1B" d="M586.934,380.273h-2.436v0.681h0.51
		c0.51,0,0.596,0.085,0.596,0.708v3.343v0.566c0,0.566-0.143,0.651-1.049,0.651h-0.057v0.511h3.541v-0.511h-0.057
		c-0.906,0-1.049-0.085-1.049-0.651v-0.566v-1.445c0-0.708,0.086-1.331,0.256-1.643c0.283-0.623,0.906-1.077,1.529-1.077
		c0.34,0,0.766,0.228,0.992,0.482c0.197,0.312,0.283,0.736,0.283,1.416v2.267v0.566c0,0.566-0.143,0.651-1.049,0.651h-0.057v0.511
		h3.541v-0.511h-0.057c-0.906,0-1.047-0.085-1.047-0.651v-0.566v-2.21c0-0.991-0.057-1.246-0.283-1.728
		c-0.369-0.681-1.078-1.077-1.898-1.077c-0.906,0-1.588,0.425-2.211,1.332V380.273L586.934,380.273z"/>
	<path fill-rule="evenodd" clip-rule="evenodd" fill="#1B1B1B" d="M595.377,380.188v-2.776h-0.566
		c-0.143,1.813-0.766,2.748-1.898,2.833v0.538h1.133v3.57c0,0.991,0.029,1.331,0.17,1.671c0.227,0.595,0.793,0.907,1.615,0.907
		c0.537,0,1.02-0.17,1.332-0.482c0.453-0.453,0.736-1.189,0.736-1.954c0-0.085,0-0.198-0.029-0.312h-0.566
		c-0.057,1.246-0.424,1.897-1.105,1.897c-0.311,0-0.594-0.17-0.707-0.425c-0.086-0.17-0.113-0.538-0.113-1.048v-3.825h2.039v-0.595
		H595.377L595.377,380.188z"/>
	<path fill-rule="evenodd" clip-rule="evenodd" fill="#1B1B1B" d="M604.811,383.56c0-2.096-1.189-3.569-2.891-3.569
		c-1.783,0-3.145,1.559-3.145,3.654c0,1.955,1.275,3.287,3.174,3.287c1.332,0,2.266-0.652,2.861-1.983l-0.51-0.283
		c-0.566,1.076-1.162,1.501-2.098,1.501c-0.707,0-1.217-0.312-1.586-0.906c-0.254-0.425-0.367-0.935-0.34-1.7H604.811
		L604.811,383.56z M600.277,382.965c0-0.425,0.057-0.736,0.199-1.133c0.283-0.85,0.736-1.247,1.416-1.247
		c0.85,0,1.416,0.737,1.416,1.87c0,0.396-0.141,0.51-0.566,0.51H600.277L600.277,382.965z"/>
	<path fill-rule="evenodd" clip-rule="evenodd" fill="#1B1B1B" d="M614.641,386.762h2.438v-0.652h-0.256
		c-0.766,0-0.879-0.142-0.879-1.02v-8.612h-2.748v0.68h0.822c0.51,0,0.623,0.085,0.623,0.68v3.174
		c-0.537-0.709-1.133-1.049-1.926-1.049c-1.586,0-2.805,1.53-2.805,3.569c0,1.983,1.162,3.4,2.805,3.4
		c0.877,0,1.473-0.369,1.926-1.219V386.762L614.641,386.762z M612.969,380.727c0.596,0,1.135,0.426,1.389,1.077
		c0.17,0.425,0.256,0.991,0.256,1.671c0,1.644-0.623,2.691-1.645,2.691c-0.99,0-1.586-0.906-1.586-2.465
		c0-0.85,0.086-1.473,0.283-1.954C611.893,381.124,612.402,380.727,612.969,380.727L612.969,380.727z"/>
	<path fill-rule="evenodd" clip-rule="evenodd" fill="#1B1B1B" d="M623.877,383.56c0-2.096-1.189-3.569-2.891-3.569
		c-1.785,0-3.145,1.559-3.145,3.654c0,1.955,1.275,3.287,3.174,3.287c1.332,0,2.266-0.652,2.861-1.983l-0.51-0.283
		c-0.566,1.076-1.162,1.501-2.098,1.501c-0.707,0-1.217-0.312-1.586-0.906c-0.254-0.425-0.369-0.935-0.34-1.7H623.877
		L623.877,383.56z M619.344,382.965c0-0.425,0.057-0.736,0.199-1.133c0.283-0.85,0.736-1.247,1.416-1.247
		c0.85,0,1.416,0.737,1.416,1.87c0,0.396-0.141,0.51-0.566,0.51H619.344L619.344,382.965z"/>
	<path fill-rule="evenodd" clip-rule="evenodd" fill="#1B1B1B" d="M631.102,380.188v-2.776h-0.568
		c-0.141,1.813-0.764,2.748-1.896,2.833v0.538h1.133v3.57c0,0.991,0.027,1.331,0.17,1.671c0.227,0.595,0.793,0.907,1.615,0.907
		c0.537,0,1.02-0.17,1.33-0.482c0.453-0.453,0.736-1.189,0.736-1.954c0-0.085,0-0.198-0.027-0.312h-0.566
		c-0.057,1.246-0.426,1.897-1.105,1.897c-0.311,0-0.594-0.17-0.707-0.425c-0.086-0.17-0.113-0.538-0.113-1.048v-3.825h2.039v-0.595
		H631.102L631.102,380.188z"/>
	<path fill-rule="evenodd" clip-rule="evenodd" fill="#1B1B1B" d="M636.682,380.273h-2.492v0.681h0.594
		c0.51,0,0.596,0.085,0.596,0.708v3.343v0.566c0,0.566-0.17,0.651-1.076,0.651h-0.057v0.511h3.738v-0.511h-0.254
		c-0.906,0-1.049-0.085-1.049-0.651v-0.566v-0.142c0-1.048,0.199-2.125,0.539-2.918s0.82-1.219,1.387-1.275
		c-0.17,0.227-0.227,0.341-0.227,0.624c0,0.453,0.312,0.765,0.766,0.765c0.51,0,0.85-0.368,0.85-0.935
		c0-0.681-0.48-1.134-1.219-1.134c-0.877,0-1.643,0.708-2.096,1.955V380.273L636.682,380.273z"/>
	<path fill-rule="evenodd" clip-rule="evenodd" fill="#1B1B1B" d="M646.455,382.2c0-0.878-0.141-1.331-0.537-1.672
		c-0.482-0.34-1.162-0.538-2.068-0.538c-1.559,0-2.721,0.736-2.721,1.757c0,0.51,0.312,0.85,0.822,0.85
		c0.426,0,0.736-0.283,0.736-0.708c0-0.17-0.057-0.368-0.197-0.566c-0.086-0.113-0.086-0.142-0.086-0.198
		c0-0.284,0.566-0.539,1.246-0.539c0.426,0,0.906,0.142,1.133,0.341c0.256,0.227,0.369,0.566,0.369,1.189v0.566
		c-1.473,0.255-1.926,0.368-2.605,0.623c-1.219,0.453-1.785,1.105-1.785,1.983c0,0.991,0.793,1.644,2.012,1.644
		c0.963,0,1.84-0.396,2.436-1.105c0.227,0.709,0.596,0.992,1.246,0.992c0.623,0,1.275-0.397,1.275-0.822
		c0-0.085-0.057-0.17-0.143-0.17c-0.057,0-0.113,0.028-0.197,0.057c-0.227,0.085-0.283,0.113-0.396,0.113
		c-0.396,0-0.539-0.283-0.539-0.963V382.2L646.455,382.2z M645.152,383.929c0,0.821-0.057,1.02-0.283,1.388
		c-0.34,0.51-0.992,0.878-1.586,0.878c-0.652,0-1.105-0.481-1.105-1.104c0-0.595,0.283-0.991,0.906-1.303
		c0.426-0.199,0.963-0.341,2.068-0.511V383.929L645.152,383.929z"/>
	<path fill-rule="evenodd" clip-rule="evenodd" fill="#1B1B1B" d="M650.732,380.273h-2.436v0.681h0.51
		c0.51,0,0.596,0.085,0.596,0.708v3.343v0.566c0,0.566-0.143,0.651-1.049,0.651h-0.057v0.511h3.541v-0.511h-0.057
		c-0.906,0-1.049-0.085-1.049-0.651v-0.566v-1.445c0-0.708,0.086-1.331,0.256-1.643c0.283-0.623,0.906-1.077,1.529-1.077
		c0.34,0,0.766,0.228,0.992,0.482c0.199,0.312,0.283,0.736,0.283,1.416v2.267v0.566c0,0.566-0.141,0.651-1.049,0.651h-0.057v0.511
		h3.541v-0.511h-0.057c-0.906,0-1.047-0.085-1.047-0.651v-0.566v-2.21c0-0.991-0.057-1.246-0.283-1.728
		c-0.369-0.681-1.076-1.077-1.898-1.077c-0.906,0-1.586,0.425-2.211,1.332V380.273L650.732,380.273z"/>
	<path fill-rule="evenodd" clip-rule="evenodd" fill="#1B1B1B" d="M661.924,380.047h-0.51l-0.396,0.481
		c-0.51-0.396-1.02-0.566-1.701-0.566c-1.246,0-2.039,0.821-2.039,2.04c0,0.538,0.17,1.02,0.482,1.303
		c0.311,0.283,0.65,0.426,1.473,0.624l0.736,0.17c1.133,0.255,1.502,0.538,1.502,1.104c0,0.651-0.566,1.133-1.389,1.133
		c-1.189,0-2.012-0.765-2.352-2.181h-0.566v2.663h0.482l0.51-0.567c0.566,0.454,1.219,0.681,1.898,0.681
		c1.387,0,2.295-0.851,2.295-2.153c0-0.623-0.199-1.104-0.596-1.417c-0.34-0.312-0.623-0.425-1.473-0.595l-0.68-0.17
		c-0.795-0.17-0.795-0.17-1.021-0.312c-0.311-0.142-0.51-0.425-0.51-0.736c0-0.566,0.539-0.964,1.305-0.964
		c0.537,0,0.963,0.17,1.359,0.567c0.311,0.312,0.453,0.595,0.68,1.246h0.51V380.047L661.924,380.047z"/>
	<path fill-rule="evenodd" clip-rule="evenodd" fill="#1B1B1B" d="M665.721,380.273h-2.494v0.681h0.596
		c0.51,0,0.594,0.085,0.594,0.708v3.343v0.538c0,0.595-0.17,0.68-1.047,0.68h-0.057v0.511h3.512v-0.511h-0.057
		c-0.877,0-1.047-0.085-1.047-0.68v-0.538v-1.983c0-1.246,0.707-2.182,1.613-2.182c0.34,0,0.738,0.199,0.908,0.454
		c0.197,0.283,0.283,0.68,0.283,1.274v2.437v0.566c0,0.566-0.143,0.651-1.049,0.651h-0.057v0.511h3.541v-0.511h-0.057
		c-0.906,0-1.049-0.085-1.049-0.651v-0.566v-1.87c0-1.388,0.623-2.295,1.588-2.295c0.48,0,0.85,0.284,1.02,0.709
		c0.141,0.312,0.17,0.623,0.17,1.161v2.295v0.566c0,0.566-0.143,0.651-1.049,0.651h-0.057v0.511h3.541v-0.511h-0.057
		c-0.906,0-1.047-0.085-1.047-0.68v-0.538v-2.578c0-0.878-0.086-1.161-0.455-1.644c-0.396-0.51-0.99-0.793-1.643-0.793
		c-0.906,0-1.586,0.425-2.182,1.389c-0.254-0.822-0.99-1.389-1.955-1.389c-0.82,0-1.443,0.396-2.01,1.275V380.273L665.721,380.273z"
		/>
	<path fill-rule="evenodd" clip-rule="evenodd" fill="#1B1B1B" d="M678.299,380.273h-2.635v0.681h0.707
		c0.512,0,0.596,0.085,0.596,0.708v3.343v0.566c0,0.566-0.141,0.651-1.049,0.651h-0.084v0.511h3.627v-0.511h-0.113
		c-0.908,0-1.049-0.085-1.049-0.651v-0.538V380.273L678.299,380.273z M677.646,376.704c-0.453,0-0.82,0.368-0.82,0.821
		c0,0.426,0.367,0.794,0.793,0.794c0.453,0,0.82-0.341,0.82-0.794S678.072,376.704,677.646,376.704L677.646,376.704z"/>
	<path fill-rule="evenodd" clip-rule="evenodd" fill="#1B1B1B" d="M685.297,380.047h-0.512l-0.396,0.481
		c-0.51-0.396-1.02-0.566-1.699-0.566c-1.246,0-2.039,0.821-2.039,2.04c0,0.538,0.17,1.02,0.48,1.303
		c0.312,0.283,0.652,0.426,1.475,0.624l0.736,0.17c1.133,0.255,1.5,0.538,1.5,1.104c0,0.651-0.566,1.133-1.387,1.133
		c-1.189,0-2.012-0.765-2.352-2.181h-0.566v2.663h0.48l0.51-0.567c0.566,0.454,1.219,0.681,1.898,0.681
		c1.389,0,2.295-0.851,2.295-2.153c0-0.623-0.197-1.104-0.594-1.417c-0.342-0.312-0.625-0.425-1.475-0.595l-0.68-0.17
		c-0.793-0.17-0.793-0.17-1.02-0.312c-0.312-0.142-0.51-0.425-0.51-0.736c0-0.566,0.537-0.964,1.303-0.964
		c0.539,0,0.963,0.17,1.359,0.567c0.312,0.312,0.453,0.595,0.68,1.246h0.512V380.047L685.297,380.047z"/>
	<path fill-rule="evenodd" clip-rule="evenodd" fill="#1B1B1B" d="M691.783,380.047h-0.51l-0.396,0.481
		c-0.51-0.396-1.02-0.566-1.699-0.566c-1.246,0-2.041,0.821-2.041,2.04c0,0.538,0.17,1.02,0.482,1.303s0.652,0.426,1.473,0.624
		l0.736,0.17c1.135,0.255,1.502,0.538,1.502,1.104c0,0.651-0.566,1.133-1.389,1.133c-1.189,0-2.01-0.765-2.352-2.181h-0.566v2.663
		h0.482l0.51-0.567c0.566,0.454,1.219,0.681,1.898,0.681c1.389,0,2.295-0.851,2.295-2.153c0-0.623-0.199-1.104-0.596-1.417
		c-0.34-0.312-0.623-0.425-1.473-0.595l-0.68-0.17c-0.793-0.17-0.793-0.17-1.02-0.312c-0.312-0.142-0.51-0.425-0.51-0.736
		c0-0.566,0.537-0.964,1.303-0.964c0.537,0,0.963,0.17,1.359,0.567c0.312,0.312,0.453,0.595,0.68,1.246h0.51V380.047
		L691.783,380.047z"/>
	<g>
		<defs>
			<rect id="SVGID_1_" width="706.402" height="526.627"/>
		</defs>
		<clipPath id="SVGID_2_">
			<use xlink:href="#SVGID_1_"  overflow="visible"/>
		</clipPath>
		<path clip-path="url(#SVGID_2_)" fill-rule="evenodd" clip-rule="evenodd" fill="#1B1B1B" d="M699.092,382.2
			c0-0.878-0.141-1.331-0.537-1.672c-0.482-0.34-1.162-0.538-2.068-0.538c-1.559,0-2.719,0.736-2.719,1.757
			c0,0.51,0.311,0.85,0.82,0.85c0.426,0,0.736-0.283,0.736-0.708c0-0.17-0.057-0.368-0.197-0.566
			c-0.086-0.113-0.086-0.142-0.086-0.198c0-0.284,0.566-0.539,1.246-0.539c0.426,0,0.908,0.142,1.135,0.341
			c0.254,0.227,0.367,0.566,0.367,1.189v0.566c-1.473,0.255-1.926,0.368-2.605,0.623c-1.219,0.453-1.785,1.105-1.785,1.983
			c0,0.991,0.793,1.644,2.012,1.644c0.963,0,1.842-0.396,2.436-1.105c0.227,0.709,0.596,0.992,1.246,0.992
			c0.625,0,1.275-0.397,1.275-0.822c0-0.085-0.057-0.17-0.141-0.17c-0.057,0-0.113,0.028-0.199,0.057
			c-0.227,0.085-0.283,0.113-0.396,0.113c-0.396,0-0.539-0.283-0.539-0.963V382.2L699.092,382.2z M697.789,383.929
			c0,0.821-0.057,1.02-0.283,1.388c-0.34,0.51-0.99,0.878-1.586,0.878c-0.652,0-1.105-0.481-1.105-1.104
			c0-0.595,0.283-0.991,0.906-1.303c0.426-0.199,0.965-0.341,2.068-0.511V383.929L697.789,383.929z M698.441,377.469
			c-0.086,0.425-0.396,0.737-0.736,0.737c-0.199,0-0.34-0.057-0.822-0.284c-0.766-0.34-0.879-0.368-1.189-0.368
			c-0.68,0-1.219,0.539-1.416,1.417h0.51c0.084-0.368,0.34-0.595,0.65-0.595c0.199,0,0.453,0.085,0.736,0.198
			c0.709,0.34,0.879,0.396,1.248,0.396c0.793,0,1.387-0.595,1.5-1.502H698.441L698.441,377.469z"/>
		<path clip-path="url(#SVGID_2_)" fill-rule="evenodd" clip-rule="evenodd" fill="#1B1B1B" d="M704.078,379.99
			c-1.699,0-3.031,1.53-3.031,3.484c0,1.927,1.332,3.457,3.031,3.457c1.672,0,3.004-1.53,3.004-3.485
			C707.082,381.549,705.75,379.99,704.078,379.99L704.078,379.99z M704.078,380.585c0.992,0,1.531,1.021,1.531,2.861
			c0,1.87-0.539,2.89-1.531,2.89c-1.02,0-1.557-1.02-1.557-2.861C702.521,381.577,703.031,380.585,704.078,380.585L704.078,380.585z
			"/>
	</g>
</g>
</svg>
