<?xml version="1.0" encoding="utf-8"?>
<!-- Generator: Adobe Illustrator 16.0.0, SVG Export Plug-In . SVG Version: 6.00 Build 0)  -->
<!DOCTYPE svg PUBLIC "-//W3C//DTD SVG 1.1//EN" "http://www.w3.org/Graphics/SVG/1.1/DTD/svg11.dtd">
<svg version="1.1" id="Layer_1" xmlns="http://www.w3.org/2000/svg" xmlns:xlink="http://www.w3.org/1999/xlink" x="0px" y="0px"
	 width="654.678px" height="467.728px" viewBox="0 0 654.678 467.728" enable-background="new 0 0 654.678 467.728"
	 xml:space="preserve">
<g>
	<path fill="none" stroke="#010101" stroke-width="2.8897" stroke-linejoin="round" stroke-miterlimit="10" d="M71.817,0v467.728
		 M71.817,387.271h539.686"/>
	
		<path fill="none" stroke="#010101" stroke-width="0" stroke-linejoin="round" stroke-miterlimit="10" stroke-dasharray="1.4448,1.4448,1.4448,1.4448" d="
		M71.817,330.61h539.686 M71.817,273.951h539.686 M71.817,217.291h539.686 M71.817,160.631h539.686 M71.817,103.971h539.686
		 M71.817,47.311h539.686"/>
	<path fill-rule="evenodd" clip-rule="evenodd" fill="#1B1B1B" d="M57.368,391.436c0,1.189-0.113,2.182-0.34,3.003
		s-0.51,1.473-0.906,1.955c-0.397,0.51-0.85,0.878-1.388,1.104c-0.51,0.198-1.077,0.312-1.671,0.312c-0.595,0-1.162-0.113-1.7-0.312
		c-0.51-0.227-0.963-0.595-1.36-1.077c-0.368-0.51-0.68-1.161-0.906-1.982c-0.198-0.793-0.312-1.813-0.312-3.003
		c0-1.247,0.114-2.295,0.312-3.088c0.227-0.822,0.538-1.474,0.935-1.955c0.369-0.51,0.822-0.85,1.36-1.048
		c0.539-0.198,1.105-0.283,1.729-0.283c0.595,0,1.133,0.085,1.643,0.283c0.538,0.198,0.991,0.538,1.36,1.048
		c0.396,0.481,0.708,1.133,0.935,1.955C57.255,389.141,57.368,390.188,57.368,391.436L57.368,391.436z M55.782,391.436
		c0-0.992-0.057-1.813-0.198-2.465c-0.113-0.651-0.283-1.161-0.51-1.559c-0.227-0.396-0.51-0.651-0.822-0.821
		c-0.34-0.17-0.708-0.255-1.133-0.255c-0.454,0-0.85,0.085-1.19,0.255c-0.34,0.17-0.624,0.453-0.85,0.821
		c-0.227,0.397-0.396,0.907-0.538,1.587c-0.113,0.651-0.17,1.444-0.17,2.437c0,0.963,0.057,1.756,0.198,2.408
		c0.113,0.651,0.283,1.161,0.51,1.558s0.51,0.68,0.85,0.85c0.34,0.17,0.708,0.256,1.133,0.256c0.425,0,0.793-0.086,1.133-0.256
		s0.624-0.453,0.85-0.85s0.425-0.906,0.538-1.558C55.697,393.191,55.782,392.398,55.782,391.436L55.782,391.436z"/>
	<polygon fill-rule="evenodd" clip-rule="evenodd" fill="#1B1B1B" points="38.132,284.319 38.132,282.988 41.305,282.988 
		41.305,273.44 38.5,275.424 38.5,273.951 41.418,271.911 42.892,271.911 42.892,282.988 45.895,282.988 45.895,284.319 
		38.132,284.319 	"/>
	<path fill-rule="evenodd" clip-rule="evenodd" fill="#1B1B1B" d="M56.009,278.115c0,1.19-0.114,2.182-0.34,3.003
		s-0.51,1.474-0.906,1.955c-0.397,0.51-0.85,0.878-1.388,1.104c-0.51,0.198-1.077,0.312-1.671,0.312c-0.595,0-1.162-0.113-1.7-0.312
		c-0.51-0.227-0.963-0.595-1.36-1.076c-0.368-0.51-0.68-1.162-0.906-1.983c-0.198-0.793-0.312-1.812-0.312-3.003
		c0-1.246,0.113-2.295,0.312-3.088c0.227-0.821,0.538-1.474,0.935-1.955c0.369-0.51,0.822-0.85,1.36-1.048
		c0.539-0.198,1.105-0.283,1.729-0.283c0.595,0,1.133,0.085,1.643,0.283c0.538,0.198,0.991,0.538,1.36,1.048
		c0.396,0.481,0.708,1.134,0.935,1.955C55.895,275.82,56.009,276.869,56.009,278.115L56.009,278.115z M54.422,278.115
		c0-0.991-0.057-1.813-0.198-2.465c-0.113-0.651-0.283-1.161-0.51-1.558s-0.51-0.652-0.822-0.822
		c-0.34-0.17-0.708-0.255-1.133-0.255c-0.454,0-0.85,0.085-1.19,0.255s-0.624,0.454-0.85,0.822
		c-0.227,0.396-0.396,0.906-0.538,1.586c-0.113,0.652-0.17,1.445-0.17,2.437c0,0.963,0.057,1.757,0.198,2.408
		c0.113,0.651,0.283,1.161,0.51,1.558c0.227,0.397,0.51,0.681,0.85,0.851s0.708,0.255,1.133,0.255c0.425,0,0.793-0.085,1.133-0.255
		c0.34-0.17,0.624-0.453,0.85-0.851c0.227-0.396,0.425-0.906,0.538-1.558S54.422,279.078,54.422,278.115L54.422,278.115z"/>
	<path fill-rule="evenodd" clip-rule="evenodd" fill="#1B1B1B" d="M37.708,171v-1.105c0.283-0.708,0.651-1.303,1.105-1.841
		c0.425-0.51,0.878-0.992,1.331-1.417c0.482-0.425,0.963-0.821,1.417-1.19c0.481-0.34,0.878-0.708,1.274-1.077
		c0.369-0.368,0.68-0.736,0.907-1.133c0.227-0.425,0.34-0.85,0.34-1.36c0-0.369-0.057-0.68-0.17-0.935
		c-0.085-0.255-0.255-0.481-0.453-0.68c-0.198-0.17-0.425-0.312-0.708-0.397c-0.283-0.085-0.595-0.142-0.935-0.142
		c-0.312,0-0.595,0.057-0.878,0.142c-0.283,0.085-0.538,0.199-0.736,0.397c-0.227,0.17-0.397,0.396-0.539,0.651
		s-0.227,0.566-0.283,0.907l-1.615-0.142c0.057-0.454,0.198-0.878,0.368-1.275c0.198-0.396,0.481-0.737,0.822-1.02
		c0.34-0.312,0.736-0.538,1.218-0.708c0.481-0.17,1.02-0.255,1.643-0.255c0.623,0,1.161,0.085,1.643,0.227
		c0.481,0.142,0.906,0.369,1.218,0.652c0.34,0.283,0.595,0.624,0.765,1.048s0.255,0.906,0.255,1.473c0,0.425-0.057,0.821-0.198,1.19
		c-0.17,0.368-0.368,0.736-0.623,1.076c-0.227,0.34-0.539,0.652-0.85,0.963c-0.34,0.34-0.68,0.652-1.02,0.935
		c-0.368,0.312-0.736,0.595-1.104,0.906c-0.34,0.283-0.68,0.595-1.02,0.878c-0.312,0.312-0.595,0.623-0.85,0.935
		c-0.255,0.283-0.453,0.623-0.595,0.963h6.459V171H37.708L37.708,171z"/>
	<path fill-rule="evenodd" clip-rule="evenodd" fill="#1B1B1B" d="M56.037,164.795c0,1.19-0.113,2.181-0.34,3.003
		c-0.227,0.822-0.51,1.473-0.906,1.955c-0.397,0.51-0.85,0.878-1.388,1.105c-0.51,0.198-1.077,0.312-1.671,0.312
		c-0.595,0-1.162-0.113-1.7-0.312c-0.51-0.227-0.963-0.595-1.36-1.077c-0.368-0.51-0.68-1.161-0.906-1.983
		c-0.198-0.793-0.312-1.813-0.312-3.003c0-1.247,0.113-2.295,0.312-3.088c0.227-0.822,0.538-1.473,0.935-1.955
		c0.369-0.51,0.822-0.85,1.36-1.048c0.539-0.198,1.105-0.283,1.729-0.283c0.595,0,1.133,0.085,1.643,0.283
		c0.538,0.199,0.991,0.539,1.36,1.048c0.396,0.482,0.708,1.133,0.935,1.955C55.924,162.5,56.037,163.549,56.037,164.795
		L56.037,164.795z M54.45,164.795c0-0.992-0.057-1.813-0.198-2.465c-0.113-0.651-0.283-1.162-0.51-1.558s-0.51-0.651-0.821-0.821
		c-0.34-0.17-0.708-0.255-1.133-0.255c-0.454,0-0.85,0.085-1.19,0.255c-0.34,0.17-0.624,0.453-0.85,0.821
		c-0.227,0.396-0.396,0.907-0.538,1.586c-0.113,0.652-0.17,1.445-0.17,2.437c0,0.963,0.057,1.756,0.198,2.408
		c0.113,0.652,0.283,1.162,0.51,1.559c0.227,0.396,0.51,0.68,0.85,0.85s0.708,0.255,1.133,0.255c0.425,0,0.793-0.085,1.133-0.255
		c0.34-0.17,0.624-0.453,0.85-0.85c0.227-0.397,0.425-0.907,0.538-1.559C54.365,166.552,54.45,165.759,54.45,164.795L54.45,164.795z
		"/>
	<path fill-rule="evenodd" clip-rule="evenodd" fill="#1B1B1B" d="M46.037,51.419c0,0.566-0.085,1.076-0.284,1.529
		c-0.17,0.425-0.453,0.822-0.793,1.133c-0.368,0.284-0.793,0.539-1.332,0.68c-0.51,0.17-1.105,0.255-1.785,0.255
		c-0.765,0-1.417-0.085-1.927-0.283c-0.538-0.198-0.963-0.453-1.303-0.765c-0.34-0.312-0.595-0.651-0.765-1.077
		c-0.17-0.396-0.283-0.793-0.34-1.246l1.643-0.142c0.057,0.34,0.142,0.623,0.255,0.906c0.113,0.255,0.312,0.51,0.51,0.68
		c0.227,0.198,0.482,0.34,0.793,0.453c0.34,0.113,0.708,0.17,1.133,0.17c0.793,0,1.417-0.198,1.87-0.595
		c0.453-0.397,0.68-0.992,0.68-1.757c0-0.453-0.085-0.821-0.283-1.104c-0.227-0.284-0.453-0.482-0.765-0.652
		c-0.312-0.142-0.624-0.255-0.992-0.312c-0.34-0.057-0.68-0.085-0.963-0.085h-0.906v-1.36h0.85c0.312,0,0.624-0.028,0.935-0.085
		c0.34-0.057,0.623-0.17,0.878-0.34c0.284-0.17,0.51-0.369,0.68-0.652s0.255-0.623,0.255-1.048c0-0.68-0.198-1.19-0.595-1.587
		c-0.397-0.368-0.963-0.566-1.728-0.566c-0.708,0-1.275,0.17-1.7,0.538c-0.425,0.34-0.68,0.85-0.736,1.501l-1.586-0.113
		c0.057-0.538,0.198-1.02,0.425-1.417c0.255-0.425,0.538-0.765,0.907-1.02c0.368-0.255,0.765-0.454,1.218-0.595
		c0.481-0.142,0.963-0.198,1.501-0.198c0.68,0,1.274,0.085,1.785,0.255c0.481,0.17,0.878,0.425,1.218,0.708
		c0.312,0.283,0.538,0.651,0.68,1.048c0.17,0.397,0.227,0.822,0.227,1.275c0,0.369-0.057,0.708-0.142,1.02
		c-0.113,0.312-0.255,0.595-0.481,0.85c-0.198,0.255-0.453,0.453-0.793,0.651c-0.312,0.17-0.708,0.312-1.162,0.396v0.057
		c0.482,0.028,0.935,0.142,1.303,0.34c0.369,0.17,0.652,0.368,0.907,0.623c0.227,0.255,0.425,0.566,0.538,0.878
		C45.979,50.71,46.037,51.05,46.037,51.419L46.037,51.419z"/>
	<path fill-rule="evenodd" clip-rule="evenodd" fill="#1B1B1B" d="M56.065,48.643c0,1.189-0.113,2.181-0.34,3.003
		c-0.227,0.821-0.51,1.473-0.906,1.955c-0.397,0.51-0.85,0.878-1.388,1.105c-0.51,0.198-1.077,0.312-1.671,0.312
		c-0.595,0-1.162-0.113-1.7-0.312c-0.51-0.227-0.963-0.595-1.36-1.077c-0.368-0.51-0.68-1.162-0.906-1.983
		c-0.198-0.793-0.312-1.813-0.312-3.003c0-1.247,0.113-2.295,0.312-3.088c0.227-0.821,0.538-1.473,0.935-1.955
		c0.369-0.51,0.822-0.85,1.36-1.048c0.539-0.198,1.105-0.283,1.729-0.283c0.595,0,1.133,0.085,1.643,0.283
		c0.538,0.198,0.991,0.539,1.36,1.048c0.396,0.481,0.708,1.133,0.935,1.955C55.952,46.348,56.065,47.396,56.065,48.643
		L56.065,48.643z M54.479,48.643c0-0.992-0.057-1.813-0.198-2.465c-0.113-0.652-0.283-1.162-0.51-1.558
		c-0.227-0.397-0.51-0.652-0.822-0.822c-0.34-0.17-0.708-0.255-1.133-0.255c-0.454,0-0.85,0.085-1.19,0.255s-0.624,0.453-0.85,0.822
		c-0.227,0.396-0.396,0.906-0.538,1.586c-0.113,0.651-0.17,1.445-0.17,2.437c0,0.963,0.057,1.756,0.198,2.408
		c0.113,0.652,0.283,1.162,0.51,1.558s0.51,0.68,0.85,0.85s0.708,0.255,1.133,0.255c0.425,0,0.793-0.085,1.133-0.255
		c0.34-0.17,0.624-0.454,0.85-0.85s0.425-0.906,0.538-1.558C54.394,50.399,54.479,49.605,54.479,48.643L54.479,48.643z"/>
	<polygon fill-rule="evenodd" clip-rule="evenodd" fill="#1B1B1B" points="13.032,257.973 0.652,257.973 0.652,248.567 
		2.012,248.567 2.012,256.302 5.978,256.302 5.978,249.105 7.338,249.105 7.338,256.302 11.672,256.302 11.672,248.228 
		13.032,248.228 13.032,257.973 	"/>
	<path fill-rule="evenodd" clip-rule="evenodd" fill="#1B1B1B" d="M13.032,240.21H6.998c-0.453,0-0.85,0.028-1.162,0.113
		c-0.312,0.057-0.566,0.17-0.736,0.312c-0.198,0.17-0.34,0.368-0.425,0.623c-0.057,0.227-0.113,0.538-0.113,0.907
		c0,0.396,0.057,0.736,0.198,1.02c0.142,0.312,0.312,0.566,0.566,0.765c0.255,0.227,0.566,0.396,0.935,0.51
		c0.368,0.113,0.793,0.17,1.247,0.17h5.524v1.587H5.553c-0.198,0-0.425,0-0.623,0c-0.227,0-0.425,0-0.624,0.028
		c-0.198,0-0.368,0-0.51,0s-0.227,0.028-0.283,0.028v-1.502c0.028,0,0.113,0,0.255-0.028c0.113,0,0.255,0,0.425,0
		c0.17-0.028,0.34-0.028,0.51-0.028s0.312,0,0.453,0v-0.028c-0.283-0.17-0.538-0.34-0.765-0.51c-0.227-0.17-0.396-0.396-0.566-0.623
		c-0.142-0.255-0.283-0.51-0.368-0.821s-0.113-0.68-0.113-1.104c0-0.511,0.057-0.964,0.198-1.36
		c0.113-0.368,0.312-0.681,0.595-0.935c0.255-0.227,0.624-0.426,1.048-0.539s0.935-0.17,1.501-0.17h6.346V240.21L13.032,240.21z"/>
	<path fill-rule="evenodd" clip-rule="evenodd" fill="#1B1B1B" d="M8.612,235.054c0.482,0,0.963-0.028,1.36-0.142
		c0.425-0.113,0.793-0.255,1.077-0.481c0.312-0.198,0.538-0.481,0.708-0.821c0.17-0.34,0.255-0.737,0.255-1.19
		c0-0.68-0.142-1.247-0.397-1.643c-0.283-0.425-0.623-0.708-1.048-0.85l0.396-1.388c0.255,0.113,0.51,0.227,0.793,0.425
		c0.255,0.17,0.51,0.396,0.708,0.708c0.227,0.312,0.396,0.68,0.539,1.133c0.142,0.425,0.198,0.963,0.198,1.615
		c0,1.388-0.425,2.465-1.247,3.201c-0.85,0.737-2.097,1.104-3.74,1.104c-0.906,0-1.643-0.113-2.266-0.34
		c-0.624-0.227-1.133-0.51-1.501-0.906c-0.397-0.396-0.68-0.85-0.85-1.359s-0.255-1.049-0.255-1.644
		c0-0.793,0.113-1.473,0.368-2.011c0.255-0.539,0.623-0.963,1.077-1.275c0.453-0.34,0.991-0.566,1.615-0.708
		c0.623-0.142,1.275-0.199,1.983-0.199h0.227V235.054L8.612,235.054z M7.395,229.926c-0.992,0.085-1.729,0.34-2.21,0.765
		c-0.453,0.425-0.68,1.02-0.68,1.813c0,0.255,0.028,0.539,0.142,0.822c0.085,0.283,0.227,0.566,0.453,0.82
		c0.198,0.228,0.51,0.454,0.878,0.624c0.368,0.17,0.85,0.255,1.417,0.283V229.926L7.395,229.926z"/>
	<path fill-rule="evenodd" clip-rule="evenodd" fill="#1B1B1B" d="M13.032,226.3h-7.31c-0.198,0-0.396,0-0.595,0
		c-0.227,0-0.425,0-0.595,0.028c-0.199,0-0.397,0-0.567,0s-0.312,0.028-0.453,0.028v-1.501c0.142,0,0.283,0,0.453-0.028
		c0.198,0,0.368,0,0.539-0.028c0.198,0,0.368,0,0.538,0s0.312,0,0.425,0v-0.057c-0.368-0.113-0.68-0.227-0.963-0.34
		c-0.255-0.142-0.482-0.283-0.652-0.453s-0.312-0.368-0.396-0.595s-0.113-0.538-0.113-0.85c0-0.142,0-0.255,0.028-0.368
		s0.028-0.227,0.057-0.283h1.445c-0.028,0.113-0.057,0.227-0.057,0.368c-0.028,0.142-0.028,0.312-0.028,0.481
		c0,0.369,0.085,0.68,0.255,0.935s0.396,0.453,0.68,0.623c0.284,0.142,0.624,0.255,1.048,0.34c0.396,0.085,0.822,0.113,1.303,0.113
		h4.958V226.3L13.032,226.3z"/>
	<path fill-rule="evenodd" clip-rule="evenodd" fill="#1B1B1B" d="M16.771,216.724c0,0.539-0.057,1.02-0.17,1.445
		s-0.255,0.793-0.481,1.077c-0.198,0.312-0.454,0.566-0.737,0.737c-0.283,0.198-0.623,0.312-0.963,0.396l-0.227-1.586
		c0.425-0.085,0.765-0.34,1.02-0.68c0.227-0.368,0.34-0.85,0.34-1.417c0-0.368-0.028-0.708-0.142-0.992
		c-0.085-0.283-0.255-0.538-0.481-0.736s-0.51-0.368-0.85-0.481s-0.793-0.17-1.275-0.17h-1.558v0.028
		c0.255,0.113,0.482,0.255,0.708,0.425s0.396,0.396,0.566,0.623c0.17,0.255,0.312,0.539,0.425,0.878
		c0.085,0.34,0.142,0.708,0.142,1.133c0,0.595-0.085,1.104-0.284,1.53c-0.227,0.453-0.51,0.793-0.935,1.077
		c-0.397,0.255-0.907,0.453-1.501,0.595c-0.595,0.113-1.275,0.17-2.068,0.17c-0.765,0-1.445-0.057-2.068-0.17
		c-0.595-0.142-1.133-0.34-1.558-0.623c-0.425-0.284-0.737-0.652-0.963-1.105c-0.227-0.454-0.34-1.02-0.34-1.671
		c0-0.652,0.142-1.247,0.453-1.729c0.312-0.51,0.765-0.878,1.332-1.161l0,0c-0.17,0-0.312-0.028-0.51-0.028
		c-0.17,0-0.34-0.028-0.51-0.028s-0.283-0.028-0.425-0.028c-0.113,0-0.17-0.028-0.198-0.028v-1.502c0.057,0,0.142,0,0.283,0
		c0.113,0.028,0.283,0.028,0.453,0.028c0.17,0,0.369,0,0.567,0c0.227,0.028,0.453,0.028,0.68,0.028h7.252
		c1.332,0,2.352,0.312,3.003,0.963C16.432,214.373,16.771,215.393,16.771,216.724L16.771,216.724z M8.272,214.316
		c-0.651,0-1.218,0.085-1.7,0.227s-0.85,0.312-1.162,0.566c-0.283,0.227-0.51,0.481-0.651,0.793
		c-0.142,0.312-0.198,0.623-0.198,0.935c0,0.397,0.057,0.737,0.198,1.048c0.142,0.283,0.368,0.51,0.651,0.708
		c0.312,0.199,0.708,0.34,1.162,0.425c0.481,0.085,1.048,0.142,1.7,0.142c0.68,0,1.275-0.057,1.728-0.142
		c0.454-0.085,0.85-0.227,1.133-0.425c0.283-0.17,0.481-0.425,0.595-0.708c0.142-0.283,0.198-0.623,0.198-1.02
		c0-0.312-0.057-0.623-0.198-0.935c-0.142-0.312-0.34-0.567-0.652-0.822c-0.283-0.227-0.651-0.425-1.133-0.566
		C9.491,214.401,8.924,214.316,8.272,214.316L8.272,214.316z"/>
	<path fill-rule="evenodd" clip-rule="evenodd" fill="#1B1B1B" d="M1.501,210.407H0v-1.586h1.501V210.407L1.501,210.407z
		 M13.061,210.407H3.542v-1.586h9.519V210.407L13.061,210.407z"/>
	<path fill-rule="evenodd" clip-rule="evenodd" fill="#1B1B1B" d="M13.202,204.004c0,0.935-0.255,1.672-0.765,2.153
		s-1.19,0.708-2.068,0.708c-0.652,0-1.162-0.113-1.559-0.368c-0.396-0.227-0.708-0.538-0.963-0.907
		c-0.227-0.396-0.368-0.821-0.453-1.332c-0.113-0.481-0.142-0.991-0.142-1.501v-2.125H6.714c-0.396,0-0.708,0.028-0.992,0.113
		c-0.283,0.085-0.51,0.227-0.68,0.396s-0.283,0.368-0.368,0.624c-0.085,0.255-0.113,0.566-0.113,0.906c0,0.312,0,0.567,0.057,0.822
		c0.028,0.255,0.113,0.453,0.227,0.651c0.113,0.17,0.283,0.312,0.481,0.425s0.425,0.198,0.737,0.227l-0.142,1.643
		c-0.396-0.057-0.736-0.17-1.048-0.34c-0.312-0.142-0.595-0.396-0.822-0.68c-0.227-0.312-0.396-0.68-0.51-1.133
		c-0.142-0.453-0.198-1.02-0.198-1.643c0-1.218,0.283-2.096,0.821-2.719c0.539-0.595,1.332-0.907,2.38-0.907h4.08
		c0.481,0,0.85-0.057,1.077-0.17c0.227-0.113,0.34-0.369,0.34-0.708c0-0.085,0-0.17,0-0.255c-0.028-0.085-0.028-0.17-0.057-0.255
		h0.991c0.057,0.198,0.085,0.396,0.114,0.595s0.028,0.396,0.028,0.624c0,0.283-0.028,0.566-0.113,0.765
		c-0.085,0.227-0.199,0.397-0.369,0.539c-0.17,0.113-0.368,0.227-0.595,0.283c-0.227,0.085-0.51,0.113-0.822,0.142v0.057
		c0.283,0.17,0.567,0.34,0.822,0.566c0.227,0.198,0.453,0.425,0.623,0.708c0.17,0.255,0.312,0.566,0.397,0.907
		C13.146,203.154,13.202,203.551,13.202,204.004L13.202,204.004z M12.012,203.636c0-0.51-0.085-0.935-0.283-1.332
		c-0.17-0.368-0.397-0.68-0.68-0.935c-0.283-0.255-0.595-0.425-0.935-0.566c-0.34-0.113-0.68-0.17-0.991-0.17H8.357v1.728
		c0,0.397,0.028,0.765,0.085,1.105c0.028,0.34,0.142,0.651,0.283,0.906c0.142,0.284,0.369,0.482,0.624,0.624
		c0.255,0.17,0.623,0.255,1.048,0.255c0.51,0,0.906-0.142,1.189-0.425C11.871,204.542,12.012,204.146,12.012,203.636L12.012,203.636
		z"/>
	<path fill-rule="evenodd" clip-rule="evenodd" fill="#1B1B1B" d="M8.357,191.539c-0.793,0-1.586-0.085-2.323-0.198
		c-0.737-0.114-1.473-0.312-2.153-0.567c-0.68-0.283-1.36-0.624-1.983-1.02c-0.652-0.396-1.275-0.906-1.898-1.473v-1.53
		c0.624,0.567,1.247,1.02,1.898,1.445c0.651,0.397,1.303,0.708,2.011,0.992c0.68,0.255,1.388,0.425,2.125,0.566
		c0.765,0.113,1.53,0.17,2.351,0.17c0.822,0,1.586-0.057,2.352-0.17c0.736-0.142,1.445-0.312,2.153-0.566
		c0.68-0.283,1.36-0.595,1.983-0.992c0.651-0.425,1.275-0.878,1.898-1.445v1.53c-0.623,0.567-1.247,1.077-1.898,1.473
		c-0.624,0.396-1.303,0.737-1.983,1.02c-0.68,0.255-1.417,0.453-2.153,0.567c-0.737,0.113-1.501,0.198-2.323,0.198H8.357
		L8.357,191.539z"/>
	<path fill-rule="evenodd" clip-rule="evenodd" fill="#1B1B1B" d="M13.032,174.626H4.76c-0.283,0-0.595,0-0.907,0
		s-0.595,0-0.85-0.028c-0.312,0-0.595-0.028-0.878-0.028c0.312,0.085,0.595,0.17,0.906,0.255c0.227,0.057,0.51,0.142,0.793,0.227
		c0.283,0.113,0.538,0.198,0.765,0.283l8.442,3.201v1.162l-8.442,3.258c-0.085,0.028-0.199,0.057-0.312,0.113
		c-0.113,0.028-0.227,0.057-0.368,0.113s-0.255,0.085-0.396,0.142c-0.142,0.028-0.283,0.085-0.425,0.113
		c-0.312,0.113-0.623,0.198-0.963,0.283c0.34,0,0.651,0,0.992-0.028c0.255,0,0.566,0,0.85,0c0.312-0.028,0.567-0.028,0.793-0.028
		h8.272v1.501H0.652v-2.209l8.584-3.287c0.113-0.057,0.255-0.085,0.453-0.142c0.17-0.085,0.368-0.113,0.567-0.17
		c0.198-0.057,0.368-0.113,0.538-0.142c0.17-0.057,0.312-0.085,0.396-0.113c-0.085,0-0.227-0.028-0.396-0.085
		s-0.368-0.113-0.538-0.17c-0.199-0.057-0.397-0.113-0.567-0.17c-0.198-0.057-0.34-0.113-0.453-0.17l-8.584-3.229v-2.153h12.38
		V174.626L13.032,174.626z"/>
	<path fill-rule="evenodd" clip-rule="evenodd" fill="#1B1B1B" d="M8.612,169.215c0.482,0,0.963-0.028,1.36-0.142
		c0.425-0.113,0.793-0.255,1.077-0.481c0.312-0.199,0.538-0.482,0.708-0.822c0.17-0.34,0.255-0.737,0.255-1.19
		c0-0.68-0.142-1.247-0.397-1.643c-0.283-0.425-0.623-0.708-1.048-0.85l0.396-1.388c0.255,0.114,0.51,0.227,0.793,0.425
		c0.255,0.17,0.51,0.396,0.708,0.708c0.227,0.312,0.396,0.68,0.539,1.133c0.142,0.425,0.198,0.963,0.198,1.615
		c0,1.388-0.425,2.465-1.247,3.201c-0.85,0.737-2.097,1.105-3.74,1.105c-0.906,0-1.643-0.113-2.266-0.34
		c-0.624-0.227-1.133-0.51-1.501-0.907c-0.397-0.396-0.68-0.85-0.85-1.36c-0.17-0.51-0.255-1.048-0.255-1.643
		c0-0.793,0.113-1.473,0.368-2.011c0.255-0.539,0.623-0.963,1.077-1.275c0.453-0.34,0.991-0.566,1.615-0.708
		c0.623-0.142,1.275-0.198,1.983-0.198h0.227V169.215L8.612,169.215z M7.395,164.087c-0.992,0.085-1.729,0.34-2.21,0.765
		c-0.453,0.425-0.68,1.02-0.68,1.813c0,0.255,0.028,0.538,0.142,0.822c0.085,0.283,0.227,0.566,0.453,0.821
		c0.198,0.227,0.51,0.454,0.878,0.624c0.368,0.17,0.85,0.255,1.417,0.283V164.087L7.395,164.087z"/>
	<path fill-rule="evenodd" clip-rule="evenodd" fill="#1B1B1B" d="M13.032,154.852v1.728l-12.409,5.043v-1.757l8.754-3.428
		c0.255-0.085,0.51-0.17,0.765-0.255c0.284-0.085,0.51-0.17,0.708-0.255c0.227-0.085,0.481-0.142,0.708-0.227
		c-0.227-0.085-0.453-0.142-0.68-0.227s-0.453-0.142-0.708-0.227c-0.255-0.085-0.539-0.198-0.793-0.283l-8.754-3.399v-1.785
		L13.032,154.852L13.032,154.852z"/>
	<path fill-rule="evenodd" clip-rule="evenodd" fill="#1B1B1B" d="M8.414,144.823c0.822,0,1.586,0.057,2.323,0.17
		c0.736,0.142,1.473,0.34,2.153,0.595c0.68,0.255,1.36,0.595,1.983,1.02c0.651,0.396,1.275,0.878,1.898,1.445v1.53
		c-0.623-0.538-1.247-1.02-1.898-1.417c-0.624-0.396-1.303-0.736-1.983-0.992c-0.708-0.255-1.417-0.453-2.153-0.566
		c-0.765-0.142-1.53-0.198-2.352-0.198c-0.821,0-1.586,0.057-2.351,0.198c-0.737,0.113-1.445,0.312-2.125,0.566
		c-0.708,0.255-1.36,0.595-2.011,0.992c-0.652,0.397-1.275,0.878-1.898,1.417v-1.53c0.624-0.566,1.247-1.048,1.898-1.445
		c0.623-0.425,1.303-0.765,1.983-1.02c0.68-0.255,1.417-0.453,2.153-0.595c0.736-0.113,1.53-0.17,2.323-0.17H8.414L8.414,144.823z"
		/>
	<path fill-rule="evenodd" clip-rule="evenodd" fill="#1B1B1B" d="M139.667,417.471v-1.104c0.283-0.709,0.652-1.304,1.105-1.842
		c0.425-0.51,0.878-0.992,1.332-1.417c0.481-0.425,0.963-0.821,1.417-1.189c0.481-0.34,0.878-0.708,1.275-1.076
		c0.368-0.369,0.68-0.737,0.906-1.134c0.227-0.425,0.34-0.85,0.34-1.359c0-0.368-0.057-0.681-0.17-0.936
		c-0.085-0.255-0.255-0.481-0.453-0.68c-0.198-0.17-0.425-0.312-0.708-0.396c-0.284-0.085-0.595-0.142-0.935-0.142
		c-0.312,0-0.595,0.057-0.878,0.142c-0.283,0.085-0.538,0.198-0.736,0.396c-0.227,0.17-0.396,0.396-0.538,0.651
		c-0.142,0.255-0.227,0.567-0.284,0.907l-1.615-0.142c0.057-0.454,0.198-0.879,0.368-1.275c0.199-0.396,0.482-0.736,0.822-1.02
		c0.34-0.312,0.737-0.538,1.218-0.708s1.02-0.256,1.643-0.256s1.162,0.086,1.643,0.228c0.482,0.142,0.907,0.368,1.218,0.651
		c0.34,0.283,0.595,0.623,0.765,1.048c0.17,0.425,0.255,0.906,0.255,1.474c0,0.425-0.057,0.821-0.198,1.189
		c-0.17,0.368-0.369,0.736-0.624,1.076c-0.227,0.341-0.538,0.652-0.85,0.964c-0.34,0.34-0.68,0.651-1.02,0.935
		c-0.368,0.312-0.737,0.595-1.105,0.906c-0.34,0.284-0.68,0.596-1.02,0.879c-0.312,0.312-0.595,0.623-0.85,0.935
		c-0.255,0.283-0.454,0.623-0.595,0.963h6.459v1.332H139.667L139.667,417.471z"/>
	<path fill-rule="evenodd" clip-rule="evenodd" fill="#1B1B1B" d="M157.997,411.267c0,1.189-0.113,2.181-0.34,3.003
		c-0.227,0.821-0.51,1.473-0.907,1.954c-0.396,0.511-0.85,0.879-1.388,1.105c-0.51,0.198-1.077,0.312-1.671,0.312
		s-1.162-0.113-1.7-0.312c-0.51-0.227-0.963-0.595-1.36-1.077c-0.368-0.51-0.68-1.161-0.907-1.982
		c-0.198-0.794-0.312-1.813-0.312-3.003c0-1.247,0.113-2.295,0.312-3.088c0.227-0.822,0.539-1.474,0.935-1.955
		c0.368-0.51,0.821-0.85,1.36-1.048c0.538-0.198,1.105-0.284,1.728-0.284c0.595,0,1.133,0.086,1.643,0.284
		c0.539,0.198,0.992,0.538,1.36,1.048c0.396,0.481,0.708,1.133,0.935,1.955C157.883,408.972,157.997,410.02,157.997,411.267
		L157.997,411.267z M156.41,411.267c0-0.992-0.057-1.813-0.198-2.465c-0.113-0.651-0.283-1.162-0.51-1.559
		c-0.227-0.396-0.51-0.651-0.821-0.821c-0.34-0.17-0.708-0.255-1.133-0.255c-0.453,0-0.85,0.085-1.19,0.255s-0.623,0.453-0.85,0.821
		c-0.227,0.396-0.397,0.907-0.539,1.587c-0.113,0.651-0.17,1.444-0.17,2.437c0,0.963,0.057,1.756,0.198,2.408
		c0.113,0.651,0.283,1.161,0.51,1.558c0.227,0.396,0.51,0.68,0.85,0.85s0.708,0.255,1.133,0.255s0.793-0.085,1.133-0.255
		s0.623-0.453,0.85-0.85c0.227-0.396,0.425-0.906,0.539-1.558C156.325,413.022,156.41,412.229,156.41,411.267L156.41,411.267z"/>
	<path fill-rule="evenodd" clip-rule="evenodd" fill="#1B1B1B" d="M259.843,414.666v2.805h-1.501v-2.805h-5.808v-1.219l5.666-8.385
		h1.643v8.356h1.757v1.247H259.843L259.843,414.666z M258.341,406.875c0,0.028-0.028,0.085-0.085,0.17
		c-0.028,0.085-0.085,0.17-0.142,0.283c-0.057,0.085-0.113,0.198-0.198,0.312c-0.057,0.113-0.113,0.199-0.142,0.256l-3.173,4.702
		c-0.028,0.028-0.085,0.113-0.142,0.17c-0.057,0.085-0.114,0.17-0.17,0.227c-0.057,0.085-0.113,0.17-0.17,0.255
		c-0.057,0.057-0.113,0.113-0.142,0.17h4.363V406.875L258.341,406.875z"/>
	<path fill-rule="evenodd" clip-rule="evenodd" fill="#1B1B1B" d="M271.345,411.267c0,1.189-0.113,2.181-0.34,3.003
		c-0.227,0.821-0.51,1.473-0.906,1.954c-0.397,0.511-0.85,0.879-1.388,1.105c-0.51,0.198-1.077,0.312-1.672,0.312
		c-0.595,0-1.161-0.113-1.7-0.312c-0.51-0.227-0.963-0.595-1.36-1.077c-0.368-0.51-0.68-1.161-0.906-1.982
		c-0.199-0.794-0.312-1.813-0.312-3.003c0-1.247,0.113-2.295,0.312-3.088c0.227-0.822,0.538-1.474,0.935-1.955
		c0.369-0.51,0.822-0.85,1.36-1.048c0.539-0.198,1.105-0.284,1.728-0.284c0.595,0,1.133,0.086,1.644,0.284
		c0.538,0.198,0.991,0.538,1.36,1.048c0.396,0.481,0.708,1.133,0.935,1.955C271.231,408.972,271.345,410.02,271.345,411.267
		L271.345,411.267z M269.758,411.267c0-0.992-0.057-1.813-0.198-2.465c-0.113-0.651-0.283-1.162-0.51-1.559s-0.51-0.651-0.822-0.821
		c-0.34-0.17-0.708-0.255-1.133-0.255c-0.453,0-0.85,0.085-1.189,0.255c-0.34,0.17-0.624,0.453-0.85,0.821
		c-0.227,0.396-0.396,0.907-0.538,1.587c-0.113,0.651-0.17,1.444-0.17,2.437c0,0.963,0.057,1.756,0.198,2.408
		c0.113,0.651,0.283,1.161,0.51,1.558s0.51,0.68,0.85,0.85c0.34,0.17,0.708,0.255,1.133,0.255c0.425,0,0.793-0.085,1.133-0.255
		s0.624-0.453,0.85-0.85s0.425-0.906,0.538-1.558C269.673,413.022,269.758,412.229,269.758,411.267L269.758,411.267z"/>
	<path fill-rule="evenodd" clip-rule="evenodd" fill="#1B1B1B" d="M374.607,413.419c0,0.624-0.085,1.19-0.255,1.7
		s-0.425,0.963-0.765,1.332c-0.34,0.368-0.736,0.68-1.246,0.878c-0.511,0.198-1.077,0.312-1.729,0.312
		c-0.708,0-1.331-0.142-1.87-0.425c-0.566-0.255-0.991-0.651-1.359-1.19c-0.368-0.51-0.623-1.133-0.793-1.897
		c-0.199-0.766-0.284-1.615-0.284-2.578c0-1.105,0.113-2.068,0.312-2.89c0.198-0.851,0.481-1.53,0.878-2.097
		c0.368-0.538,0.85-0.963,1.388-1.246c0.539-0.283,1.162-0.426,1.87-0.426c0.396,0,0.793,0.057,1.161,0.143
		c0.369,0.085,0.709,0.227,1.021,0.425s0.566,0.453,0.793,0.765c0.227,0.34,0.396,0.708,0.538,1.189l-1.501,0.283
		c-0.17-0.538-0.425-0.935-0.794-1.161c-0.368-0.255-0.765-0.368-1.246-0.368c-0.425,0-0.821,0.113-1.189,0.312
		c-0.341,0.198-0.652,0.51-0.879,0.935c-0.255,0.396-0.453,0.907-0.566,1.53c-0.142,0.595-0.198,1.331-0.198,2.153
		c0.283-0.539,0.68-0.936,1.218-1.219c0.511-0.283,1.105-0.425,1.785-0.425c0.566,0,1.076,0.085,1.53,0.283
		c0.453,0.17,0.85,0.425,1.161,0.765c0.34,0.369,0.595,0.766,0.765,1.247C374.522,412.258,374.607,412.796,374.607,413.419
		L374.607,413.419z M373.021,413.476c0-0.425-0.057-0.821-0.17-1.161s-0.255-0.623-0.481-0.878
		c-0.199-0.255-0.454-0.425-0.766-0.566s-0.68-0.199-1.104-0.199c-0.283,0-0.566,0.058-0.85,0.143
		c-0.312,0.085-0.567,0.198-0.794,0.396c-0.255,0.198-0.425,0.453-0.595,0.765c-0.142,0.312-0.227,0.68-0.227,1.133
		c0,0.454,0.057,0.879,0.198,1.275c0.113,0.396,0.283,0.736,0.481,1.02c0.227,0.312,0.481,0.538,0.794,0.708
		c0.312,0.17,0.68,0.256,1.048,0.256c0.396,0,0.736-0.058,1.02-0.199c0.312-0.142,0.567-0.312,0.794-0.566
		c0.198-0.255,0.368-0.566,0.481-0.906C372.965,414.326,373.021,413.93,373.021,413.476L373.021,413.476z"/>
	<path fill-rule="evenodd" clip-rule="evenodd" fill="#1B1B1B" d="M384.637,411.267c0,1.189-0.113,2.181-0.34,3.003
		c-0.227,0.821-0.51,1.473-0.907,1.954c-0.396,0.511-0.85,0.879-1.388,1.105c-0.51,0.198-1.076,0.312-1.672,0.312
		c-0.595,0-1.161-0.113-1.699-0.312c-0.51-0.227-0.964-0.595-1.36-1.077c-0.368-0.51-0.68-1.161-0.906-1.982
		c-0.198-0.794-0.312-1.813-0.312-3.003c0-1.247,0.113-2.295,0.312-3.088c0.227-0.822,0.538-1.474,0.935-1.955
		c0.368-0.51,0.822-0.85,1.36-1.048s1.104-0.284,1.728-0.284c0.596,0,1.134,0.086,1.644,0.284c0.538,0.198,0.991,0.538,1.359,1.048
		c0.397,0.481,0.709,1.133,0.936,1.955C384.523,408.972,384.637,410.02,384.637,411.267L384.637,411.267z M383.05,411.267
		c0-0.992-0.057-1.813-0.198-2.465c-0.113-0.651-0.283-1.162-0.51-1.559s-0.51-0.651-0.821-0.821
		c-0.34-0.17-0.709-0.255-1.134-0.255c-0.453,0-0.85,0.085-1.189,0.255s-0.623,0.453-0.85,0.821
		c-0.227,0.396-0.397,0.907-0.539,1.587c-0.113,0.651-0.17,1.444-0.17,2.437c0,0.963,0.057,1.756,0.198,2.408
		c0.113,0.651,0.284,1.161,0.511,1.558s0.51,0.68,0.85,0.85s0.708,0.255,1.133,0.255s0.794-0.085,1.134-0.255s0.623-0.453,0.85-0.85
		s0.425-0.906,0.538-1.558C382.965,413.022,383.05,412.229,383.05,411.267L383.05,411.267z"/>
	<path fill-rule="evenodd" clip-rule="evenodd" fill="#1B1B1B" d="M487.984,414.015c0,0.538-0.085,1.02-0.255,1.444
		c-0.17,0.453-0.425,0.821-0.765,1.162c-0.34,0.312-0.794,0.566-1.332,0.736c-0.51,0.198-1.161,0.283-1.869,0.283
		c-0.737,0-1.36-0.085-1.898-0.283c-0.51-0.17-0.963-0.425-1.304-0.736c-0.368-0.312-0.623-0.709-0.793-1.134
		c-0.142-0.453-0.227-0.935-0.227-1.444c0-0.454,0.057-0.851,0.198-1.219c0.142-0.34,0.312-0.651,0.538-0.906
		c0.255-0.255,0.51-0.453,0.794-0.623c0.312-0.142,0.623-0.255,0.935-0.312v-0.028c-0.34-0.085-0.651-0.198-0.935-0.397
		c-0.284-0.17-0.511-0.396-0.681-0.651c-0.198-0.255-0.34-0.538-0.425-0.85s-0.142-0.651-0.142-0.991
		c0-0.426,0.085-0.851,0.255-1.219c0.17-0.396,0.396-0.736,0.737-1.02c0.312-0.283,0.736-0.51,1.218-0.68s1.048-0.256,1.7-0.256
		c0.651,0,1.246,0.086,1.728,0.256c0.51,0.17,0.907,0.396,1.247,0.68c0.312,0.312,0.566,0.651,0.708,1.02
		c0.17,0.396,0.255,0.793,0.255,1.247c0,0.34-0.057,0.651-0.142,0.963c-0.113,0.312-0.255,0.595-0.425,0.85
		c-0.198,0.255-0.425,0.481-0.68,0.651c-0.284,0.199-0.596,0.312-0.964,0.369v0.057c0.368,0.057,0.68,0.17,0.991,0.312
		c0.312,0.17,0.567,0.368,0.794,0.623s0.396,0.538,0.538,0.906C487.899,413.164,487.984,413.562,487.984,414.015L487.984,414.015z
		 M486.029,408.179c0-0.312-0.057-0.596-0.113-0.851c-0.085-0.255-0.227-0.481-0.396-0.68c-0.198-0.17-0.425-0.312-0.708-0.425
		c-0.312-0.113-0.651-0.142-1.076-0.142c-0.426,0-0.794,0.028-1.077,0.142s-0.51,0.255-0.708,0.425
		c-0.17,0.198-0.312,0.425-0.396,0.68s-0.113,0.539-0.113,0.851c0,0.255,0.028,0.51,0.085,0.765c0.085,0.255,0.198,0.481,0.368,0.68
		c0.17,0.227,0.396,0.396,0.708,0.538c0.283,0.142,0.68,0.198,1.134,0.198c0.51,0,0.906-0.057,1.189-0.198
		c0.312-0.142,0.538-0.312,0.708-0.538c0.17-0.198,0.255-0.425,0.312-0.68S486.029,408.434,486.029,408.179L486.029,408.179z
		 M486.341,413.873c0-0.312-0.057-0.596-0.142-0.879s-0.227-0.51-0.425-0.736c-0.198-0.198-0.453-0.368-0.793-0.51
		s-0.765-0.198-1.246-0.198c-0.482,0-0.879,0.057-1.19,0.198c-0.34,0.142-0.595,0.312-0.793,0.51
		c-0.198,0.227-0.34,0.481-0.453,0.765c-0.085,0.283-0.142,0.566-0.142,0.879c0,0.368,0.057,0.736,0.142,1.048
		c0.113,0.312,0.255,0.566,0.453,0.793s0.481,0.396,0.821,0.538c0.312,0.113,0.736,0.171,1.19,0.171
		c0.481,0,0.906-0.058,1.218-0.171c0.34-0.142,0.595-0.312,0.793-0.538s0.34-0.481,0.425-0.821
		C486.284,414.609,486.341,414.27,486.341,413.873L486.341,413.873z"/>
	<path fill-rule="evenodd" clip-rule="evenodd" fill="#1B1B1B" d="M497.985,411.267c0,1.189-0.113,2.181-0.341,3.003
		c-0.227,0.821-0.51,1.473-0.906,1.954c-0.396,0.511-0.85,0.879-1.388,1.105c-0.511,0.198-1.077,0.312-1.672,0.312
		s-1.161-0.113-1.7-0.312c-0.51-0.227-0.963-0.595-1.359-1.077c-0.368-0.51-0.68-1.161-0.906-1.982
		c-0.198-0.794-0.312-1.813-0.312-3.003c0-1.247,0.113-2.295,0.312-3.088c0.227-0.822,0.538-1.474,0.935-1.955
		c0.368-0.51,0.821-0.85,1.359-1.048c0.539-0.198,1.105-0.284,1.729-0.284c0.595,0,1.133,0.086,1.644,0.284
		c0.538,0.198,0.991,0.538,1.359,1.048c0.396,0.481,0.708,1.133,0.935,1.955C497.872,408.972,497.985,410.02,497.985,411.267
		L497.985,411.267z M496.398,411.267c0-0.992-0.057-1.813-0.198-2.465c-0.113-0.651-0.283-1.162-0.51-1.559s-0.51-0.651-0.822-0.821
		c-0.34-0.17-0.708-0.255-1.133-0.255c-0.453,0-0.85,0.085-1.189,0.255s-0.624,0.453-0.851,0.821
		c-0.227,0.396-0.396,0.907-0.538,1.587c-0.113,0.651-0.17,1.444-0.17,2.437c0,0.963,0.057,1.756,0.198,2.408
		c0.113,0.651,0.283,1.161,0.51,1.558s0.511,0.68,0.851,0.85s0.708,0.255,1.133,0.255s0.793-0.085,1.133-0.255
		c0.341-0.17,0.624-0.453,0.851-0.85s0.425-0.906,0.538-1.558C496.313,413.022,496.398,412.229,496.398,411.267L496.398,411.267z"/>
	<polygon fill-rule="evenodd" clip-rule="evenodd" fill="#1B1B1B" points="593.457,417.471 593.457,416.139 596.63,416.139 
		596.63,406.592 593.825,408.575 593.825,407.102 596.743,405.062 598.217,405.062 598.217,416.139 601.22,416.139 601.22,417.471 
		593.457,417.471 	"/>
	<path fill-rule="evenodd" clip-rule="evenodd" fill="#1B1B1B" d="M611.333,411.267c0,1.189-0.113,2.181-0.34,3.003
		c-0.227,0.821-0.51,1.473-0.906,1.954c-0.396,0.511-0.85,0.879-1.389,1.105c-0.51,0.198-1.076,0.312-1.671,0.312
		s-1.162-0.113-1.7-0.312c-0.51-0.227-0.963-0.595-1.359-1.077c-0.369-0.51-0.681-1.161-0.907-1.982
		c-0.198-0.794-0.312-1.813-0.312-3.003c0-1.247,0.113-2.295,0.312-3.088c0.227-0.822,0.538-1.474,0.936-1.955
		c0.368-0.51,0.821-0.85,1.359-1.048s1.104-0.284,1.729-0.284c0.595,0,1.133,0.086,1.643,0.284c0.538,0.198,0.992,0.538,1.36,1.048
		c0.396,0.481,0.708,1.133,0.935,1.955C611.22,408.972,611.333,410.02,611.333,411.267L611.333,411.267z M609.747,411.267
		c0-0.992-0.057-1.813-0.198-2.465c-0.113-0.651-0.284-1.162-0.511-1.559s-0.51-0.651-0.821-0.821
		c-0.34-0.17-0.708-0.255-1.133-0.255c-0.453,0-0.851,0.085-1.19,0.255s-0.623,0.453-0.85,0.821
		c-0.227,0.396-0.396,0.907-0.538,1.587c-0.113,0.651-0.17,1.444-0.17,2.437c0,0.963,0.057,1.756,0.198,2.408
		c0.113,0.651,0.283,1.161,0.51,1.558s0.51,0.68,0.85,0.85s0.709,0.255,1.134,0.255s0.793-0.085,1.133-0.255s0.623-0.453,0.85-0.85
		c0.228-0.396,0.426-0.906,0.539-1.558C609.662,413.022,609.747,412.229,609.747,411.267L609.747,411.267z"/>
	<path fill-rule="evenodd" clip-rule="evenodd" fill="#1B1B1B" d="M621.306,411.267c0,1.189-0.113,2.181-0.34,3.003
		c-0.227,0.821-0.511,1.473-0.907,1.954c-0.396,0.511-0.85,0.879-1.388,1.105c-0.51,0.198-1.077,0.312-1.672,0.312
		s-1.161-0.113-1.699-0.312c-0.511-0.227-0.964-0.595-1.36-1.077c-0.368-0.51-0.68-1.161-0.906-1.982
		c-0.198-0.794-0.312-1.813-0.312-3.003c0-1.247,0.113-2.295,0.312-3.088c0.227-0.822,0.538-1.474,0.935-1.955
		c0.368-0.51,0.821-0.85,1.36-1.048c0.538-0.198,1.104-0.284,1.728-0.284c0.595,0,1.134,0.086,1.644,0.284
		c0.538,0.198,0.991,0.538,1.359,1.048c0.396,0.481,0.708,1.133,0.936,1.955C621.192,408.972,621.306,410.02,621.306,411.267
		L621.306,411.267z M619.719,411.267c0-0.992-0.057-1.813-0.198-2.465c-0.113-0.651-0.283-1.162-0.51-1.559s-0.51-0.651-0.821-0.821
		c-0.341-0.17-0.709-0.255-1.134-0.255c-0.453,0-0.85,0.085-1.189,0.255s-0.623,0.453-0.85,0.821
		c-0.228,0.396-0.397,0.907-0.539,1.587c-0.113,0.651-0.17,1.444-0.17,2.437c0,0.963,0.057,1.756,0.198,2.408
		c0.113,0.651,0.283,1.161,0.511,1.558c0.227,0.396,0.51,0.68,0.85,0.85s0.708,0.255,1.133,0.255s0.793-0.085,1.134-0.255
		c0.34-0.17,0.623-0.453,0.85-0.85s0.425-0.906,0.538-1.558C619.634,413.022,619.719,412.229,619.719,411.267L619.719,411.267z"/>
	<path fill-rule="evenodd" clip-rule="evenodd" fill="#1B1B1B" d="M300.242,459.002c0,0.511-0.085,0.992-0.284,1.445
		c-0.198,0.425-0.51,0.821-0.935,1.133c-0.425,0.312-0.963,0.567-1.615,0.766c-0.624,0.17-1.388,0.255-2.267,0.255
		c-1.53,0-2.748-0.283-3.598-0.822c-0.878-0.538-1.416-1.303-1.643-2.322l1.615-0.34c0.085,0.34,0.227,0.623,0.397,0.878
		c0.17,0.283,0.396,0.51,0.68,0.708c0.283,0.17,0.652,0.312,1.077,0.425s0.935,0.17,1.53,0.17c0.51,0,0.963-0.057,1.36-0.142
		c0.425-0.085,0.793-0.198,1.077-0.396c0.312-0.17,0.538-0.396,0.708-0.68c0.17-0.255,0.255-0.595,0.255-0.992
		c0-0.396-0.085-0.736-0.283-0.991c-0.17-0.227-0.453-0.453-0.765-0.623c-0.34-0.142-0.737-0.283-1.218-0.396
		c-0.453-0.113-0.963-0.227-1.53-0.368c-0.34-0.085-0.68-0.17-1.048-0.255c-0.34-0.085-0.68-0.198-0.992-0.312
		c-0.312-0.142-0.623-0.283-0.906-0.453c-0.284-0.17-0.51-0.368-0.708-0.595c-0.227-0.255-0.368-0.538-0.481-0.85
		c-0.142-0.312-0.198-0.68-0.198-1.077c0-0.595,0.113-1.076,0.368-1.501c0.227-0.425,0.566-0.765,0.992-1.048
		c0.425-0.256,0.906-0.454,1.473-0.567c0.595-0.142,1.218-0.198,1.87-0.198c0.765,0,1.417,0.057,1.983,0.17
		c0.539,0.142,0.992,0.312,1.36,0.538c0.397,0.256,0.68,0.539,0.907,0.907c0.227,0.34,0.396,0.765,0.538,1.246l-1.643,0.283
		c-0.085-0.312-0.198-0.566-0.368-0.793c-0.142-0.255-0.34-0.453-0.595-0.595c-0.255-0.17-0.567-0.283-0.935-0.368
		c-0.34-0.085-0.765-0.113-1.247-0.113c-0.595,0-1.077,0.057-1.445,0.142c-0.396,0.113-0.708,0.255-0.963,0.425
		c-0.227,0.17-0.396,0.368-0.51,0.623c-0.085,0.227-0.142,0.481-0.142,0.765c0,0.369,0.085,0.681,0.283,0.907
		c0.17,0.227,0.425,0.425,0.737,0.595c0.312,0.17,0.68,0.283,1.104,0.396c0.425,0.113,0.85,0.198,1.332,0.312
		c0.369,0.085,0.765,0.17,1.133,0.283c0.368,0.085,0.737,0.198,1.077,0.312c0.34,0.142,0.68,0.283,0.992,0.454
		c0.283,0.17,0.538,0.368,0.765,0.623c0.227,0.227,0.396,0.538,0.538,0.85C300.185,458.152,300.242,458.549,300.242,459.002
		L300.242,459.002z"/>
	<path fill-rule="evenodd" clip-rule="evenodd" fill="#1B1B1B" d="M303.5,458.011c0,0.481,0.028,0.963,0.142,1.36
		c0.113,0.425,0.255,0.793,0.481,1.076c0.198,0.312,0.482,0.538,0.822,0.708s0.736,0.255,1.19,0.255c0.68,0,1.247-0.142,1.643-0.396
		c0.425-0.283,0.708-0.623,0.85-1.048l1.388,0.396c-0.113,0.255-0.227,0.51-0.425,0.793c-0.17,0.255-0.396,0.51-0.708,0.708
		c-0.312,0.228-0.68,0.397-1.133,0.539c-0.425,0.142-0.963,0.198-1.615,0.198c-1.388,0-2.465-0.425-3.202-1.247
		c-0.736-0.85-1.104-2.096-1.104-3.739c0-0.906,0.113-1.644,0.34-2.267s0.51-1.133,0.907-1.501c0.396-0.396,0.85-0.681,1.36-0.851
		c0.51-0.17,1.048-0.255,1.643-0.255c0.793,0,1.473,0.113,2.011,0.368s0.963,0.624,1.275,1.077c0.34,0.453,0.566,0.991,0.708,1.614
		c0.142,0.624,0.198,1.275,0.198,1.983v0.227H303.5L303.5,458.011z M308.627,456.793c-0.085-0.992-0.34-1.729-0.765-2.21
		c-0.425-0.453-1.02-0.68-1.813-0.68c-0.255,0-0.539,0.028-0.822,0.142c-0.283,0.085-0.566,0.227-0.821,0.453
		c-0.227,0.198-0.454,0.51-0.624,0.878s-0.255,0.85-0.283,1.417H308.627L308.627,456.793z"/>
	<path fill-rule="evenodd" clip-rule="evenodd" fill="#1B1B1B" d="M320.271,457.614c0,0.736-0.057,1.388-0.17,2.012
		c-0.113,0.595-0.312,1.133-0.566,1.586c-0.283,0.425-0.651,0.766-1.077,1.021c-0.453,0.255-1.02,0.368-1.671,0.368
		c-0.68,0-1.275-0.113-1.785-0.368c-0.51-0.284-0.907-0.681-1.162-1.275h-0.057c0.028,0,0.028,0.057,0.028,0.142
		c0,0.113,0,0.227,0,0.368s0,0.283,0,0.481c0.028,0.171,0.028,0.341,0.028,0.511v3.711h-1.586v-11.304c0-0.227,0-0.453,0-0.651
		c0-0.227-0.028-0.425-0.028-0.595s0-0.312,0-0.426c-0.028-0.142-0.028-0.227-0.028-0.283h1.53c0,0.028,0,0.085,0.028,0.198
		c0,0.085,0,0.227,0.028,0.369c0,0.142,0,0.312,0.028,0.481c0,0.17,0,0.34,0,0.481h0.028c0.142-0.312,0.312-0.566,0.51-0.793
		c0.199-0.198,0.397-0.369,0.652-0.511c0.227-0.142,0.481-0.255,0.793-0.312c0.283-0.057,0.623-0.085,0.991-0.085
		c0.652,0,1.218,0.113,1.671,0.34c0.425,0.255,0.793,0.567,1.077,0.992c0.255,0.425,0.453,0.963,0.566,1.558
		C320.214,456.226,320.271,456.906,320.271,457.614L320.271,457.614z M318.627,457.671c0-0.595-0.028-1.104-0.113-1.587
		c-0.057-0.453-0.198-0.821-0.368-1.161c-0.17-0.312-0.396-0.538-0.68-0.708c-0.284-0.17-0.652-0.255-1.077-0.255
		c-0.368,0-0.68,0.057-0.992,0.142c-0.312,0.113-0.595,0.312-0.821,0.595c-0.227,0.283-0.425,0.651-0.539,1.161
		c-0.142,0.482-0.198,1.134-0.198,1.927c0,0.68,0.057,1.246,0.142,1.7c0.113,0.481,0.283,0.85,0.51,1.133
		c0.198,0.312,0.481,0.51,0.793,0.623c0.312,0.142,0.68,0.198,1.077,0.198c0.453,0,0.821-0.085,1.105-0.255
		c0.283-0.17,0.51-0.425,0.68-0.736c0.17-0.34,0.312-0.708,0.368-1.189C318.599,458.804,318.627,458.266,318.627,457.671
		L318.627,457.671z"/>
	<path fill-rule="evenodd" clip-rule="evenodd" fill="#1B1B1B" d="M324.605,462.601c-0.935,0-1.672-0.255-2.153-0.766
		c-0.481-0.51-0.708-1.189-0.708-2.067c0-0.651,0.113-1.162,0.368-1.559c0.227-0.396,0.538-0.708,0.907-0.963
		c0.396-0.227,0.821-0.368,1.332-0.453c0.481-0.113,0.991-0.142,1.501-0.142h2.125v-0.539c0-0.396-0.028-0.708-0.113-0.991
		s-0.227-0.51-0.396-0.68s-0.369-0.283-0.624-0.368s-0.566-0.113-0.906-0.113c-0.312,0-0.567,0-0.822,0.057
		c-0.255,0.028-0.453,0.113-0.651,0.227c-0.17,0.113-0.312,0.283-0.425,0.481s-0.198,0.425-0.227,0.736l-1.643-0.142
		c0.057-0.396,0.17-0.736,0.34-1.048c0.142-0.312,0.396-0.595,0.68-0.821c0.312-0.228,0.68-0.397,1.133-0.511
		c0.454-0.142,1.02-0.198,1.644-0.198c1.218,0,2.096,0.283,2.719,0.822c0.595,0.538,0.907,1.331,0.907,2.379v4.08
		c0,0.481,0.057,0.85,0.17,1.076s0.368,0.34,0.708,0.34c0.085,0,0.17,0,0.255,0c0.085-0.028,0.17-0.028,0.255-0.057v0.992
		c-0.198,0.057-0.396,0.085-0.595,0.113s-0.396,0.028-0.623,0.028c-0.283,0-0.566-0.028-0.766-0.113
		c-0.227-0.085-0.396-0.198-0.538-0.368c-0.113-0.171-0.227-0.369-0.283-0.596c-0.085-0.227-0.113-0.51-0.142-0.821h-0.057
		c-0.17,0.283-0.34,0.566-0.566,0.821c-0.198,0.227-0.425,0.453-0.708,0.624c-0.255,0.17-0.566,0.312-0.907,0.396
		C325.455,462.544,325.059,462.601,324.605,462.601L324.605,462.601z M324.974,461.41c0.51,0,0.935-0.085,1.332-0.283
		c0.368-0.17,0.68-0.396,0.935-0.68c0.255-0.283,0.425-0.595,0.566-0.935c0.113-0.34,0.17-0.681,0.17-0.992v-0.765h-1.728
		c-0.397,0-0.765,0.028-1.105,0.085c-0.34,0.028-0.651,0.142-0.907,0.283c-0.283,0.142-0.481,0.368-0.623,0.623
		c-0.17,0.255-0.255,0.624-0.255,1.049c0,0.51,0.142,0.906,0.425,1.189S324.464,461.41,324.974,461.41L324.974,461.41z"/>
	<path fill-rule="evenodd" clip-rule="evenodd" fill="#1B1B1B" d="M332.169,462.431v-7.31c0-0.198,0-0.396,0-0.595
		c0-0.227,0-0.425-0.028-0.595c0-0.198,0-0.396,0-0.567c0-0.17-0.028-0.312-0.028-0.453h1.502c0,0.142,0,0.283,0.028,0.453
		c0,0.199,0,0.369,0.028,0.539c0,0.198,0,0.368,0,0.538s0,0.312,0,0.425h0.057c0.113-0.368,0.227-0.68,0.34-0.963
		c0.142-0.255,0.283-0.482,0.453-0.652s0.368-0.312,0.596-0.396c0.227-0.085,0.538-0.113,0.85-0.113c0.142,0,0.255,0,0.368,0.028
		s0.227,0.028,0.283,0.057v1.445c-0.113-0.028-0.227-0.057-0.368-0.057c-0.142-0.028-0.312-0.028-0.481-0.028
		c-0.368,0-0.681,0.085-0.936,0.255s-0.453,0.396-0.623,0.68c-0.142,0.283-0.255,0.623-0.34,1.048
		c-0.085,0.397-0.113,0.822-0.113,1.304v4.958H332.169L332.169,462.431z"/>
	<path fill-rule="evenodd" clip-rule="evenodd" fill="#1B1B1B" d="M340.555,462.601c-0.935,0-1.671-0.255-2.152-0.766
		c-0.481-0.51-0.709-1.189-0.709-2.067c0-0.651,0.113-1.162,0.369-1.559c0.227-0.396,0.538-0.708,0.906-0.963
		c0.396-0.227,0.821-0.368,1.331-0.453c0.482-0.113,0.992-0.142,1.502-0.142h2.125v-0.539c0-0.396-0.028-0.708-0.113-0.991
		s-0.228-0.51-0.397-0.68s-0.368-0.283-0.623-0.368s-0.566-0.113-0.906-0.113c-0.312,0-0.566,0-0.821,0.057
		c-0.256,0.028-0.454,0.113-0.652,0.227c-0.17,0.113-0.312,0.283-0.425,0.481s-0.198,0.425-0.227,0.736l-1.643-0.142
		c0.057-0.396,0.17-0.736,0.34-1.048c0.142-0.312,0.396-0.595,0.68-0.821c0.312-0.228,0.68-0.397,1.133-0.511
		c0.453-0.142,1.021-0.198,1.644-0.198c1.218,0,2.097,0.283,2.72,0.822c0.595,0.538,0.906,1.331,0.906,2.379v4.08
		c0,0.481,0.057,0.85,0.17,1.076s0.368,0.34,0.708,0.34c0.086,0,0.171,0,0.256,0c0.085-0.028,0.17-0.028,0.255-0.057v0.992
		c-0.198,0.057-0.397,0.085-0.596,0.113s-0.396,0.028-0.623,0.028c-0.283,0-0.566-0.028-0.765-0.113
		c-0.227-0.085-0.396-0.198-0.538-0.368c-0.113-0.171-0.227-0.369-0.283-0.596c-0.085-0.227-0.113-0.51-0.142-0.821h-0.057
		c-0.17,0.283-0.341,0.566-0.567,0.821c-0.198,0.227-0.425,0.453-0.708,0.624c-0.255,0.17-0.566,0.312-0.906,0.396
		S341.009,462.601,340.555,462.601L340.555,462.601z M340.924,461.41c0.51,0,0.935-0.085,1.331-0.283
		c0.368-0.17,0.68-0.396,0.935-0.68s0.425-0.595,0.567-0.935c0.113-0.34,0.17-0.681,0.17-0.992v-0.765h-1.729
		c-0.396,0-0.765,0.028-1.104,0.085c-0.341,0.028-0.652,0.142-0.907,0.283c-0.283,0.142-0.481,0.368-0.623,0.623
		c-0.17,0.255-0.255,0.624-0.255,1.049c0,0.51,0.142,0.906,0.425,1.189S340.413,461.41,340.924,461.41L340.924,461.41z"/>
	<path fill-rule="evenodd" clip-rule="evenodd" fill="#1B1B1B" d="M349.28,457.643c0,0.538,0.057,1.048,0.114,1.501
		c0.085,0.454,0.227,0.851,0.425,1.162c0.17,0.34,0.425,0.595,0.736,0.793c0.312,0.17,0.68,0.255,1.133,0.255
		c0.567,0,1.021-0.142,1.417-0.453c0.368-0.283,0.595-0.736,0.68-1.359h1.615c-0.057,0.396-0.17,0.793-0.341,1.161
		c-0.198,0.368-0.425,0.68-0.736,0.963c-0.283,0.283-0.651,0.511-1.104,0.681c-0.425,0.17-0.906,0.255-1.502,0.255
		c-0.736,0-1.359-0.113-1.897-0.368c-0.51-0.255-0.936-0.596-1.247-1.049c-0.34-0.425-0.566-0.963-0.708-1.558
		c-0.142-0.596-0.227-1.247-0.227-1.955c0-0.651,0.057-1.218,0.17-1.7c0.085-0.481,0.255-0.906,0.425-1.274
		c0.198-0.368,0.425-0.68,0.68-0.935c0.255-0.227,0.539-0.426,0.851-0.596c0.283-0.142,0.595-0.255,0.935-0.312
		c0.34-0.085,0.68-0.113,1.02-0.113c0.539,0,0.992,0.085,1.417,0.227s0.765,0.34,1.076,0.596c0.312,0.255,0.538,0.566,0.736,0.906
		c0.199,0.34,0.312,0.708,0.397,1.104l-1.615,0.142c-0.085-0.538-0.312-0.963-0.623-1.274c-0.34-0.312-0.821-0.453-1.445-0.453
		c-0.453,0-0.821,0.085-1.133,0.227c-0.283,0.142-0.538,0.368-0.708,0.68c-0.198,0.283-0.34,0.68-0.425,1.133
		C349.337,456.481,349.28,457.02,349.28,457.643L349.28,457.643z M353.474,464.668c0,0.228-0.057,0.454-0.142,0.652
		s-0.227,0.368-0.425,0.51c-0.17,0.142-0.425,0.227-0.736,0.312c-0.284,0.085-0.681,0.113-1.105,0.113c-0.113,0-0.255,0-0.368,0
		c-0.142,0-0.283,0-0.425-0.028v-0.878c0.283,0.057,0.538,0.057,0.765,0.057s0.425,0,0.595-0.057
		c0.17-0.028,0.312-0.085,0.396-0.142c0.113-0.057,0.17-0.142,0.228-0.227c0.028-0.085,0.057-0.171,0.057-0.284
		c0-0.227-0.085-0.396-0.256-0.51c-0.198-0.113-0.481-0.17-0.906-0.17c-0.085,0-0.17,0-0.255,0s-0.17,0-0.255,0.028l0.566-1.614
		h0.964l-0.341,0.906c0.539,0,0.964,0.113,1.219,0.34C353.332,463.932,353.474,464.243,353.474,464.668L353.474,464.668z"/>
	<path fill-rule="evenodd" clip-rule="evenodd" fill="#1B1B1B" d="M359.508,462.601c-0.935,0-1.672-0.255-2.153-0.766
		c-0.481-0.51-0.708-1.189-0.708-2.067c0-0.651,0.113-1.162,0.368-1.559c0.227-0.396,0.538-0.708,0.906-0.963
		c0.397-0.227,0.822-0.368,1.332-0.453c0.481-0.113,0.991-0.142,1.502-0.142h2.124v-0.539c0-0.396-0.028-0.708-0.113-0.991
		s-0.227-0.51-0.396-0.68s-0.368-0.283-0.623-0.368s-0.566-0.113-0.906-0.113c-0.312,0-0.567,0-0.822,0.057
		c-0.255,0.028-0.453,0.113-0.651,0.227c-0.17,0.113-0.312,0.283-0.425,0.481s-0.198,0.425-0.227,0.736l-1.644-0.142
		c0.057-0.396,0.17-0.736,0.34-1.048c0.142-0.312,0.396-0.595,0.681-0.821c0.312-0.228,0.68-0.397,1.133-0.511
		c0.453-0.142,1.02-0.198,1.644-0.198c1.218,0,2.096,0.283,2.719,0.822c0.596,0.538,0.907,1.331,0.907,2.379v4.08
		c0,0.481,0.057,0.85,0.17,1.076s0.368,0.34,0.708,0.34c0.085,0,0.17,0,0.255,0c0.085-0.028,0.17-0.028,0.255-0.057v0.992
		c-0.198,0.057-0.396,0.085-0.595,0.113s-0.396,0.028-0.623,0.028c-0.283,0-0.566-0.028-0.765-0.113
		c-0.227-0.085-0.397-0.198-0.539-0.368c-0.113-0.171-0.227-0.369-0.283-0.596c-0.085-0.227-0.113-0.51-0.142-0.821h-0.057
		c-0.17,0.283-0.34,0.566-0.566,0.821c-0.198,0.227-0.425,0.453-0.708,0.624c-0.255,0.17-0.566,0.312-0.907,0.396
		C360.357,462.544,359.961,462.601,359.508,462.601L359.508,462.601z M359.876,461.41c0.51,0,0.936-0.085,1.332-0.283
		c0.368-0.17,0.68-0.396,0.935-0.68s0.425-0.595,0.566-0.935c0.113-0.34,0.17-0.681,0.17-0.992v-0.765h-1.728
		c-0.396,0-0.766,0.028-1.105,0.085c-0.34,0.028-0.651,0.142-0.906,0.283c-0.283,0.142-0.481,0.368-0.623,0.623
		c-0.17,0.255-0.255,0.624-0.255,1.049c0,0.51,0.142,0.906,0.425,1.189S359.366,461.41,359.876,461.41L359.876,461.41z
		 M362.369,451.863c-0.255,0-0.51-0.057-0.765-0.17c-0.227-0.113-0.481-0.227-0.708-0.34c-0.228-0.142-0.426-0.255-0.652-0.368
		c-0.198-0.113-0.396-0.17-0.566-0.17c-0.34,0-0.566,0.085-0.736,0.283c-0.142,0.17-0.255,0.425-0.312,0.765h-0.794
		c0.028-0.255,0.058-0.538,0.114-0.821c0.085-0.255,0.17-0.51,0.312-0.737c0.113-0.227,0.283-0.425,0.51-0.566
		s0.51-0.227,0.85-0.227c0.255,0,0.51,0.057,0.736,0.17c0.255,0.113,0.511,0.227,0.737,0.34c0.227,0.142,0.425,0.255,0.623,0.368
		s0.396,0.17,0.566,0.17c0.34,0,0.566-0.085,0.736-0.283c0.142-0.17,0.255-0.425,0.312-0.765h0.794
		c-0.028,0.255-0.057,0.538-0.142,0.793c-0.057,0.284-0.142,0.539-0.255,0.766c-0.143,0.227-0.312,0.425-0.511,0.566
		C362.992,451.778,362.709,451.863,362.369,451.863L362.369,451.863z"/>
	<path fill-rule="evenodd" clip-rule="evenodd" fill="#1B1B1B" d="M375.062,457.671c0,1.644-0.341,2.89-1.077,3.711
		c-0.736,0.822-1.813,1.219-3.201,1.219c-0.651,0-1.246-0.113-1.757-0.312c-0.538-0.198-0.963-0.482-1.331-0.907
		c-0.368-0.396-0.651-0.906-0.821-1.529c-0.198-0.623-0.283-1.36-0.283-2.182c0-3.286,1.416-4.93,4.249-4.93
		c0.736,0,1.389,0.085,1.898,0.312c0.538,0.198,0.991,0.511,1.331,0.907c0.34,0.425,0.595,0.935,0.765,1.529
		C375.005,456.112,375.062,456.85,375.062,457.671L375.062,457.671z M373.418,457.671c0-0.765-0.057-1.359-0.17-1.842
		c-0.113-0.481-0.283-0.878-0.51-1.161s-0.481-0.481-0.794-0.595c-0.312-0.113-0.68-0.17-1.076-0.17s-0.765,0.057-1.104,0.17
		c-0.312,0.142-0.596,0.34-0.822,0.623s-0.396,0.68-0.51,1.161c-0.142,0.482-0.198,1.077-0.198,1.813s0.085,1.331,0.198,1.813
		c0.142,0.481,0.312,0.878,0.538,1.161s0.482,0.481,0.794,0.623c0.312,0.113,0.651,0.17,1.02,0.17c0.396,0,0.765-0.057,1.076-0.17
		c0.341-0.113,0.624-0.312,0.851-0.623c0.227-0.283,0.396-0.651,0.51-1.161C373.361,459.002,373.418,458.407,373.418,457.671
		L373.418,457.671z"/>
	<path fill-rule="evenodd" clip-rule="evenodd" fill="#1B1B1B" d="M381.917,457.756c0-0.793,0.085-1.587,0.198-2.323
		s0.312-1.473,0.566-2.153c0.283-0.68,0.623-1.359,1.021-1.982c0.396-0.651,0.906-1.275,1.473-1.898h1.53
		c-0.567,0.623-1.021,1.247-1.445,1.898c-0.396,0.651-0.708,1.303-0.991,2.011c-0.255,0.681-0.425,1.389-0.566,2.125
		c-0.113,0.766-0.171,1.53-0.171,2.352s0.058,1.587,0.171,2.352c0.142,0.736,0.312,1.444,0.566,2.153
		c0.283,0.68,0.595,1.359,0.991,1.982c0.425,0.652,0.878,1.275,1.445,1.898h-1.53c-0.566-0.623-1.076-1.246-1.473-1.898
		c-0.397-0.623-0.737-1.303-1.021-1.982c-0.255-0.681-0.453-1.417-0.566-2.153s-0.198-1.502-0.198-2.323V457.756L381.917,457.756z"
		/>
	<path fill-rule="evenodd" clip-rule="evenodd" fill="#1B1B1B" d="M389.963,454.073v8.357h-1.587v-8.357h-1.331v-1.162h1.331v-1.076
		c0-0.34,0.028-0.651,0.113-0.963c0.057-0.283,0.17-0.539,0.34-0.766s0.425-0.396,0.709-0.51c0.312-0.142,0.68-0.198,1.161-0.198
		c0.198,0,0.368,0,0.595,0.028c0.198,0.028,0.368,0.028,0.51,0.085v1.19c-0.085,0-0.198-0.028-0.34-0.028
		c-0.142-0.028-0.255-0.028-0.34-0.028c-0.255,0-0.425,0.028-0.595,0.085c-0.142,0.057-0.255,0.17-0.34,0.283
		s-0.142,0.255-0.17,0.453c-0.028,0.17-0.057,0.368-0.057,0.595v0.85h1.841v1.162H389.963L389.963,454.073z"/>
	<path fill-rule="evenodd" clip-rule="evenodd" fill="#1B1B1B" d="M398.575,462.431v-6.034c0-0.454-0.028-0.851-0.085-1.162
		s-0.17-0.566-0.283-0.736c-0.142-0.198-0.341-0.34-0.539-0.425c-0.227-0.057-0.51-0.113-0.821-0.113
		c-0.34,0-0.651,0.057-0.906,0.198c-0.283,0.142-0.51,0.312-0.708,0.566c-0.171,0.255-0.312,0.566-0.426,0.935
		s-0.142,0.794-0.142,1.247v5.524h-1.586v-7.479c0-0.198,0-0.425,0-0.623c0-0.227,0-0.425-0.028-0.623c0-0.198,0-0.369,0-0.511
		s-0.028-0.227-0.028-0.283h1.501c0,0.028,0,0.113,0.028,0.255c0,0.113,0,0.255,0,0.426c0.028,0.17,0.028,0.34,0.028,0.51
		s0,0.312,0,0.453h0.028c0.142-0.283,0.312-0.538,0.453-0.765c0.171-0.227,0.369-0.396,0.596-0.567
		c0.198-0.142,0.453-0.283,0.736-0.368s0.623-0.113,0.991-0.113c0.737,0,1.304,0.142,1.729,0.425
		c0.396,0.284,0.708,0.737,0.85,1.389h0.028c0.142-0.283,0.312-0.538,0.481-0.765s0.397-0.396,0.624-0.567
		c0.227-0.142,0.481-0.283,0.793-0.368c0.283-0.085,0.623-0.113,0.991-0.113c0.481,0,0.907,0.057,1.247,0.198
		c0.34,0.113,0.623,0.312,0.85,0.596c0.227,0.255,0.396,0.623,0.51,1.048c0.085,0.425,0.142,0.935,0.142,1.501v6.347h-1.558v-6.034
		c0-0.454-0.028-0.851-0.085-1.162s-0.17-0.566-0.312-0.736c-0.113-0.198-0.312-0.34-0.539-0.425
		c-0.198-0.057-0.481-0.113-0.793-0.113c-0.34,0-0.651,0.057-0.906,0.198c-0.283,0.113-0.51,0.312-0.709,0.566
		c-0.17,0.227-0.34,0.538-0.425,0.906c-0.113,0.368-0.17,0.794-0.17,1.275v5.524H398.575L398.575,462.431z"/>
	<path fill-rule="evenodd" clip-rule="evenodd" fill="#1B1B1B" d="M411.691,457.812c0,0.821-0.057,1.587-0.17,2.323
		c-0.142,0.736-0.34,1.473-0.595,2.153c-0.255,0.68-0.595,1.359-1.02,1.982c-0.396,0.652-0.879,1.275-1.445,1.898h-1.529
		c0.538-0.623,1.02-1.246,1.416-1.898c0.396-0.623,0.736-1.303,0.992-1.982c0.255-0.709,0.453-1.417,0.566-2.153
		c0.142-0.765,0.198-1.53,0.198-2.352s-0.057-1.586-0.198-2.352c-0.113-0.736-0.312-1.444-0.566-2.125
		c-0.256-0.708-0.596-1.359-0.992-2.011s-0.878-1.275-1.416-1.898h1.529c0.566,0.623,1.049,1.247,1.445,1.898
		c0.425,0.623,0.765,1.303,1.02,1.982c0.255,0.681,0.453,1.417,0.595,2.153c0.113,0.736,0.17,1.53,0.17,2.323V457.812
		L411.691,457.812z"/>
	<polygon fill-rule="evenodd" clip-rule="evenodd" fill="#808080" points="238.397,350.441 117.145,350.441 117.145,341.801 
		359.649,341.801 359.649,350.441 238.397,350.441 	"/>
	<polygon fill="none" stroke="#010101" stroke-width="0" stroke-linejoin="round" stroke-miterlimit="10" points="238.397,350.441 
		117.145,350.441 117.145,341.801 359.649,341.801 359.649,350.441 238.397,350.441 	"/>
	<polygon fill-rule="evenodd" clip-rule="evenodd" fill="#808080" points="184.429,307.976 117.145,307.976 117.145,299.335 
		251.712,299.335 251.712,307.976 184.429,307.976 	"/>
	<polygon fill="none" stroke="#010101" stroke-width="0" stroke-linejoin="round" stroke-miterlimit="10" points="184.429,307.976 
		117.145,307.976 117.145,299.335 251.712,299.335 251.712,307.976 184.429,307.976 	"/>
	<path fill="none" stroke="#018001" stroke-width="2.8897" stroke-linejoin="round" stroke-miterlimit="10" d="M117.315,0
		c0,385.345,1.813,359.791,1.813,467.728 M125.813,0c0,385.345,251.854,348.657,503.68,366.986"/>
	<path fill-rule="evenodd" clip-rule="evenodd" fill="#1B1B1B" d="M148.393,78.077c0-2.465,0.34-3.003,2.068-3.003v-0.878h-5.128
		v0.878c1.728,0,2.068,0.538,2.068,3.003v3.995c0,1.445-0.085,2.04-0.425,2.663c-0.566,1.133-1.728,1.785-3.201,1.785
		c-1.218,0-2.267-0.481-2.861-1.303c-0.51-0.651-0.595-1.077-0.595-2.776v-6.034v-0.51c0-0.765,0.17-0.85,1.615-0.85h0.34v-0.85
		h-5.864v0.85h0.312c1.417,0,1.586,0.085,1.586,0.85v0.51v5.949v1.247c0.057,0.935,0.198,1.53,0.539,2.011
		c0.821,1.19,2.408,1.87,4.448,1.87c2.04,0,3.428-0.624,4.306-1.898c0.566-0.821,0.793-1.785,0.793-3.399V78.077L148.393,78.077z"/>
	<path fill-rule="evenodd" clip-rule="evenodd" fill="#1B1B1B" d="M155.73,73.941c-1.076,0.652-1.643,1.133-2.266,1.841
		c-1.36,1.644-2.097,3.711-2.097,5.893c0,2.04,0.652,3.966,1.842,5.581c0.68,0.85,1.303,1.417,2.521,2.153v-0.651
		c-1.785-1.587-2.521-3.626-2.521-7.083c0-3.457,0.736-5.496,2.521-7.083V73.941L155.73,73.941z"/>
	<path fill-rule="evenodd" clip-rule="evenodd" fill="#1B1B1B" d="M162.274,82.61l2.068-2.408c0.425-0.51,0.878-0.765,1.332-0.765
		h0.17v-0.623h-3.711v0.623h0.34c0.538,0,0.793,0.17,0.793,0.396c0,0.199-0.113,0.454-0.369,0.765l-1.133,1.332l-1.36-1.756
		c-0.113-0.142-0.198-0.284-0.198-0.397c0-0.227,0.227-0.34,0.793-0.34h0.255v-0.623h-4.25v0.623
		c0.652,0.057,0.878,0.227,1.473,0.992l2.21,2.776l-2.068,2.408c-0.51,0.595-1.104,0.935-1.615,0.935h-0.113v0.651h3.796v-0.651
		h-0.283c-0.397,0-0.51-0.028-0.624-0.057c-0.142-0.085-0.255-0.255-0.255-0.425c0-0.142,0.057-0.283,0.142-0.368l1.501-1.842
		l1.388,1.842c0.113,0.17,0.227,0.396,0.227,0.538c0,0.227-0.283,0.312-0.963,0.312h-0.113v0.651h4.533v-0.651h-0.142
		c-0.624,0-1.077-0.255-1.558-0.878L162.274,82.61L162.274,82.61z"/>
	<path fill-rule="evenodd" clip-rule="evenodd" fill="#1B1B1B" d="M167.402,89.409c1.076-0.651,1.671-1.133,2.266-1.87
		c1.388-1.615,2.125-3.683,2.125-5.864c0-2.068-0.652-3.995-1.87-5.581c-0.68-0.878-1.303-1.417-2.521-2.153v0.652
		c1.813,1.586,2.521,3.626,2.521,7.083c0,3.456-0.708,5.496-2.521,7.083V89.409L167.402,89.409z"/>
	<path fill-rule="evenodd" clip-rule="evenodd" fill="#1B1B1B" d="M551.613,288.768c-0.085,1.161-0.255,1.586-0.708,1.586
		c-0.51,0-0.963-0.736-1.559-2.72c1.87-1.558,2.834-3.569,2.834-5.864c0-3.683-2.748-6.629-6.233-6.629
		c-1.473,0-2.72,0.481-3.824,1.445c-1.474,1.331-2.323,3.286-2.323,5.354c0,3.74,2.776,6.743,6.289,6.743
		c0.596,0,0.992-0.085,1.587-0.283c0.085,2.182,0.991,3.428,2.465,3.428c1.444,0,2.323-1.162,2.295-3.06H551.613L551.613,288.768z
		 M548.865,286.274c-0.453-1.7-1.558-2.635-3.06-2.635c-1.529,0-2.606,1.02-2.606,2.437c0,0.057,0,0.198,0.028,0.34
		c-0.736-0.963-1.076-2.408-1.076-4.477c0-1.784,0.312-3.258,0.935-4.362c0.538-1.02,1.587-1.587,2.918-1.587
		c1.36,0,2.521,0.652,3.06,1.785c0.539,0.991,0.737,2.267,0.737,4.107C549.801,283.979,549.546,285.142,548.865,286.274
		L548.865,286.274z M547.619,287.436c-0.566,0.284-0.991,0.397-1.7,0.397c-1.189,0-1.897-0.567-1.897-1.559
		c0-1.076,0.708-1.785,1.671-1.785c1.247,0,1.927,1.021,1.927,2.776V287.436L547.619,287.436z"/>
	<path fill-rule="evenodd" clip-rule="evenodd" fill="#1B1B1B" d="M554.645,279.447h0.397l0.538-3.23
		c0.028-0.085,0.028-0.17,0.028-0.283c0-0.453-0.312-0.765-0.766-0.765c-0.425,0-0.793,0.312-0.793,0.736
		c0,0.113,0,0.198,0.028,0.312L554.645,279.447L554.645,279.447z"/>
	<path fill-rule="evenodd" clip-rule="evenodd" fill="#1B1B1B" d="M557.647,286.416h9.066v-1.444h-9.066V286.416L557.647,286.416z
		 M557.647,282.79h9.066v-1.445h-9.066V282.79L557.647,282.79z"/>
	<path fill-rule="evenodd" clip-rule="evenodd" fill="#1B1B1B" d="M570.396,282.309c0.198-2.238,0.283-2.833,0.68-3.769
		c0.51-1.274,1.474-2.011,2.606-2.011c0.623,0,0.991,0.198,0.991,0.51c0,0.085,0,0.142-0.085,0.255
		c-0.17,0.34-0.255,0.595-0.255,0.85c0,0.623,0.453,1.076,1.077,1.076c0.68,0,1.189-0.538,1.189-1.303
		c0-1.246-1.246-2.153-2.946-2.153c-1.474,0-2.861,0.681-3.711,1.898c-0.992,1.388-1.53,3.258-1.53,5.241
		c0,3.513,1.729,5.808,4.392,5.808c1.161,0,2.124-0.396,2.89-1.19c0.765-0.793,1.246-1.982,1.246-3.116
		c0-2.124-1.529-3.711-3.569-3.711C572.153,280.693,571.246,281.175,570.396,282.309L570.396,282.309z M572.89,281.798
		c1.303,0,2.068,1.021,2.068,2.72c0,2.097-0.822,3.429-2.125,3.429c-0.822,0-1.445-0.454-1.87-1.332
		c-0.283-0.538-0.425-1.161-0.425-1.842C570.538,282.932,571.416,281.798,572.89,281.798L572.89,281.798z"/>
	<path fill-rule="evenodd" clip-rule="evenodd" fill="#1B1B1B" d="M579.15,291.714c1.614-1.076,2.352-2.182,2.352-3.456
		c0-1.077-0.595-1.785-1.474-1.785c-0.651,0-1.161,0.481-1.161,1.076c0,0.652,0.481,1.077,1.218,1.077c0.085,0,0.255,0,0.283-0.028
		h0.057c0.113,0,0.142,0.057,0.142,0.17c0,0.765-0.623,1.614-1.812,2.465L579.15,291.714L579.15,291.714z"/>
	<path fill-rule="evenodd" clip-rule="evenodd" fill="#1B1B1B" d="M589.349,281.401c1.36-0.736,1.983-1.614,1.983-2.776
		c0-1.671-1.501-2.861-3.569-2.861c-2.182,0-3.796,1.445-3.796,3.429c0,0.765,0.283,1.586,0.793,2.152
		c0.312,0.368,0.595,0.566,1.246,0.907c-0.793,0.283-1.133,0.481-1.529,0.793c-0.708,0.595-1.105,1.444-1.105,2.38
		c0,0.963,0.482,1.926,1.247,2.521c0.708,0.481,1.671,0.765,2.833,0.765c1.331,0,2.437-0.368,3.173-1.021
		c0.765-0.68,1.246-1.784,1.246-2.861c0-1.048-0.396-1.954-1.133-2.605C590.369,281.911,590.058,281.713,589.349,281.401
		L589.349,281.401z M587.451,280.722c-1.474-0.566-2.097-1.246-2.097-2.295c0-1.133,0.935-1.897,2.352-1.897
		c1.388,0,2.295,0.878,2.295,2.209c0,0.936-0.34,1.53-1.389,2.408L587.451,280.722L587.451,280.722z M588.471,283.187
		c1.389,0.51,1.955,1.189,1.955,2.38c0,1.444-1.134,2.38-2.89,2.38c-1.672,0-2.663-0.936-2.663-2.521
		c0-1.36,0.538-2.182,1.955-2.833L588.471,283.187L588.471,283.187z"/>
	<path fill-rule="evenodd" clip-rule="evenodd" fill="#1B1B1B" d="M597.649,275.735c-0.595,0.766-2.266,1.332-3.909,1.332v0.793
		h1.587c1.048,0,1.104,0.085,1.104,1.133v7.225v0.51c0,0.765-0.142,0.85-1.587,0.85h-1.161v0.851h7.11v-0.851h-0.991
		c-0.963,0-1.359-0.057-1.501-0.255c-0.113-0.113-0.113-0.113-0.113-1.104v-7.451c0-0.878,0.028-1.756,0.113-3.031H597.649
		L597.649,275.735z"/>
	<path fill-rule="evenodd" clip-rule="evenodd" fill="#1B1B1B" d="M612.013,275.424h-4.646v0.851h0.34
		c1.474,0,1.644,0.084,1.644,0.85v0.51v6.94c0,2.437-0.369,2.975-2.097,2.975v0.879h5.128v-0.879c-1.7,0-2.068-0.538-2.068-2.975
		v-7.988l4.277,11.842h0.709l4.022-11.842v9.632v0.51c0,0.793-0.17,0.85-1.615,0.85h-0.34v0.851h5.921v-0.851h-0.34
		c-1.444,0-1.614-0.057-1.614-0.85v-0.51v-8.584v-0.51c0-0.766,0.17-0.85,1.614-0.85h0.34v-0.851h-4.532l-3.286,9.604
		L612.013,275.424L612.013,275.424z"/>
	<path fill-rule="evenodd" clip-rule="evenodd" fill="#1B1B1B" d="M632.241,284.376c0.028-2.691-1.502-4.589-3.712-4.589
		c-2.295,0-4.022,1.982-4.022,4.702c0,2.521,1.643,4.222,4.079,4.222c1.7,0,2.918-0.851,3.655-2.55l-0.624-0.34
		c-0.736,1.388-1.501,1.926-2.691,1.926c-0.935,0-1.586-0.396-2.067-1.189c-0.312-0.538-0.453-1.189-0.426-2.182H632.241
		L632.241,284.376z M626.433,283.611c0-0.566,0.086-0.963,0.256-1.444c0.368-1.105,0.963-1.615,1.812-1.615
		c1.105,0,1.813,0.963,1.813,2.38c0,0.538-0.142,0.68-0.736,0.68H626.433L626.433,283.611z"/>
	<path fill-rule="evenodd" clip-rule="evenodd" fill="#1B1B1B" d="M639.975,285.651l-3.314-8.386
		c-0.085-0.227-0.142-0.425-0.142-0.538c0-0.34,0.312-0.453,1.133-0.453h0.709v-0.851h-5.609v0.851h0.368
		c0.793,0,1.02,0.17,1.388,1.02l4.533,11.417h0.736l4.137-10.681c0.538-1.416,0.935-1.756,1.954-1.756h0.17v-0.851h-4.872v0.851
		h0.34c0.935,0,1.473,0.34,1.473,0.935c0,0.255-0.113,0.651-0.227,0.991L639.975,285.651L639.975,285.651z"/>
	<path fill-rule="evenodd" clip-rule="evenodd" fill="#1B1B1B" d="M553.2,338.713c-0.085,1.162-0.255,1.587-0.708,1.587
		c-0.511,0-0.964-0.736-1.559-2.72c1.87-1.559,2.833-3.569,2.833-5.864c0-3.683-2.748-6.629-6.232-6.629
		c-1.474,0-2.72,0.481-3.824,1.444c-1.474,1.332-2.323,3.286-2.323,5.354c0,3.739,2.776,6.742,6.289,6.742
		c0.595,0,0.991-0.085,1.587-0.283c0.084,2.182,0.991,3.428,2.464,3.428c1.445,0,2.323-1.161,2.295-3.06H553.2L553.2,338.713z
		 M550.452,336.22c-0.453-1.699-1.559-2.634-3.06-2.634c-1.53,0-2.606,1.02-2.606,2.436c0,0.057,0,0.198,0.028,0.341
		c-0.736-0.964-1.076-2.408-1.076-4.477c0-1.785,0.312-3.258,0.935-4.363c0.538-1.02,1.586-1.586,2.918-1.586
		c1.359,0,2.521,0.651,3.06,1.785c0.538,0.991,0.736,2.266,0.736,4.107C551.387,333.926,551.132,335.087,550.452,336.22
		L550.452,336.22z M549.206,337.382c-0.567,0.283-0.992,0.396-1.7,0.396c-1.19,0-1.898-0.566-1.898-1.559
		c0-1.076,0.708-1.784,1.672-1.784c1.246,0,1.927,1.02,1.927,2.776V337.382L549.206,337.382z"/>
	<path fill-rule="evenodd" clip-rule="evenodd" fill="#1B1B1B" d="M560.537,336.362h9.066v-1.445h-9.066V336.362L560.537,336.362z
		 M560.537,332.735h9.066v-1.444h-9.066V332.735L560.537,332.735z"/>
	<path fill-rule="evenodd" clip-rule="evenodd" fill="#1B1B1B" d="M582.21,325.682l-6.119,8.527v1.02h5.043v0.935v0.511
		c0,0.765-0.142,0.85-1.615,0.85h-0.198v0.85h5.27v-0.85h-0.085c-1.445,0-1.615-0.085-1.615-0.85v-0.511v-0.935h2.182v-1.02h-2.182
		v-4.93c0-2.238,0-2.238,0.085-3.598H582.21L582.21,325.682z M581.134,334.209h-3.938l3.938-5.468V334.209L581.134,334.209z"/>
	<path fill-rule="evenodd" clip-rule="evenodd" fill="#1B1B1B" d="M587.111,341.659c1.614-1.076,2.352-2.181,2.352-3.456
		c0-1.076-0.596-1.784-1.474-1.784c-0.651,0-1.161,0.481-1.161,1.076c0,0.651,0.481,1.076,1.218,1.076c0.085,0,0.255,0,0.283-0.028
		h0.057c0.113,0,0.142,0.057,0.142,0.17c0,0.766-0.623,1.615-1.812,2.465L587.111,341.659L587.111,341.659z"/>
	<path fill-rule="evenodd" clip-rule="evenodd" fill="#1B1B1B" d="M599.661,334.492h-0.793l-0.198,0.906
		c-0.227,1.162-0.368,1.275-1.474,1.275h-4.051c1.246-1.304,1.671-1.672,2.833-2.578c1.614-1.247,2.323-1.898,2.748-2.437
		c0.566-0.793,0.85-1.587,0.85-2.465c0-2.04-1.7-3.513-4.051-3.513c-2.267,0-4.052,1.473-4.052,3.399
		c0,1.133,0.596,1.898,1.445,1.898c0.68,0,1.133-0.454,1.133-1.105c0-0.453-0.255-0.85-0.651-1.02
		c-0.68-0.283-0.708-0.312-0.708-0.538c0-0.283,0.17-0.681,0.425-0.992c0.453-0.538,1.218-0.878,2.068-0.878
		c1.473,0,2.351,0.935,2.351,2.437c0,1.331-0.623,2.55-2.124,4.136l-1.049,1.105l-1.416,1.529c-0.623,0.766-0.964,1.162-1.757,2.21
		v0.51h8.131L599.661,334.492L599.661,334.492z"/>
	<path fill-rule="evenodd" clip-rule="evenodd" fill="#1B1B1B" d="M603.485,327.722c0.964,0.227,1.474,0.312,2.182,0.312
		c1.53,0,2.635-0.539,3.229-1.53c0.198-0.34,0.284-0.51,0.284-0.651c0-0.113-0.058-0.17-0.143-0.17
		c-0.057,0-0.142,0.028-0.255,0.085c-0.878,0.368-1.359,0.453-2.38,0.453c-1.161,0-1.812-0.085-3.711-0.538
		c-0.057,1.529-0.227,3.456-0.481,5.694c-0.368,0.396-0.51,0.623-0.51,0.906c0,0.368,0.255,0.623,0.595,0.623
		c0.425,0,0.736-0.396,0.793-1.104c0.624-0.453,1.219-0.651,1.955-0.651c1.587,0,2.578,1.246,2.578,3.314
		c0,1.189-0.312,2.238-0.85,2.776c-0.369,0.396-1.105,0.651-1.842,0.651c-1.076,0-2.21-0.566-2.21-1.133
		c0-0.113,0.113-0.255,0.34-0.396c0.567-0.341,0.709-0.567,0.709-1.049c0-0.651-0.482-1.133-1.134-1.133
		c-0.708,0-1.274,0.68-1.274,1.529c0,0.879,0.51,1.785,1.331,2.352c0.595,0.396,1.332,0.595,2.267,0.595
		c2.833,0,4.618-1.671,4.618-4.306c0-2.465-1.644-4.108-4.08-4.108c-0.736,0-1.331,0.142-2.323,0.539L603.485,327.722
		L603.485,327.722z"/>
	<path fill-rule="evenodd" clip-rule="evenodd" fill="#1B1B1B" d="M620.683,325.37h-4.646v0.85h0.34c1.473,0,1.644,0.085,1.644,0.85
		v0.51v6.941c0,2.437-0.369,2.975-2.097,2.975v0.878h5.128v-0.878c-1.7,0-2.068-0.538-2.068-2.975v-7.989l4.277,11.842h0.709
		l4.022-11.842v9.632v0.511c0,0.793-0.17,0.85-1.615,0.85h-0.34v0.85h5.921v-0.85h-0.34c-1.444,0-1.614-0.057-1.614-0.85v-0.511
		v-8.584v-0.51c0-0.765,0.17-0.85,1.614-0.85h0.34v-0.85h-4.532l-3.286,9.604L620.683,325.37L620.683,325.37z"/>
	<path fill-rule="evenodd" clip-rule="evenodd" fill="#1B1B1B" d="M640.91,334.322c0.028-2.691-1.502-4.59-3.712-4.59
		c-2.295,0-4.022,1.983-4.022,4.703c0,2.521,1.643,4.221,4.079,4.221c1.7,0,2.918-0.85,3.655-2.55l-0.624-0.34
		c-0.736,1.389-1.501,1.927-2.691,1.927c-0.935,0-1.586-0.396-2.067-1.189c-0.312-0.539-0.454-1.19-0.425-2.182H640.91
		L640.91,334.322z M635.103,333.558c0-0.567,0.085-0.964,0.255-1.445c0.368-1.104,0.963-1.615,1.812-1.615
		c1.105,0,1.813,0.964,1.813,2.38c0,0.538-0.142,0.681-0.736,0.681H635.103L635.103,333.558z"/>
	<path fill-rule="evenodd" clip-rule="evenodd" fill="#1B1B1B" d="M648.615,335.597l-3.314-8.386
		c-0.085-0.227-0.142-0.425-0.142-0.538c0-0.34,0.312-0.453,1.133-0.453h0.709v-0.85h-5.609v0.85h0.368
		c0.793,0,1.02,0.17,1.388,1.02l4.533,11.417h0.736l4.137-10.68c0.538-1.417,0.935-1.757,1.954-1.757h0.17v-0.85h-4.872v0.85h0.34
		c0.935,0,1.473,0.34,1.473,0.935c0,0.255-0.113,0.651-0.227,0.992L648.615,335.597L648.615,335.597z"/>
	
		<path fill="none" stroke="#0148FF" stroke-width="0" stroke-linejoin="round" stroke-miterlimit="10" stroke-dasharray="14.3916,14.3916,14.3916,14.3916" d="
		M71.817,346.844h539.686 M71.817,304.349h539.686"/>
	<path fill-rule="evenodd" clip-rule="evenodd" fill="#DC2401" d="M93.064,352.595c-3.003,0-5.411-2.408-5.411-5.383
		c0-3.003,2.408-5.411,5.411-5.411c2.975,0,5.382,2.408,5.382,5.411C98.447,350.187,96.039,352.595,93.064,352.595L93.064,352.595z"
		/>
	<path fill="none" stroke="#010101" stroke-width="0" stroke-linejoin="round" stroke-miterlimit="10" d="M93.064,352.595
		c-3.003,0-5.411-2.408-5.411-5.383c0-3.003,2.408-5.411,5.411-5.411c2.975,0,5.382,2.408,5.382,5.411
		C98.447,350.187,96.039,352.595,93.064,352.595L93.064,352.595z"/>
	<path fill-rule="evenodd" clip-rule="evenodd" fill="#1B1B1B" d="M97.087,366.788v0.34h-1.643c-0.057-0.17-0.113-0.368-0.17-0.566
		c-0.057-0.17-0.113-0.368-0.142-0.566c-0.057-0.17-0.085-0.368-0.113-0.538c-0.057-0.17-0.085-0.312-0.113-0.453h-0.028
		c-0.198,0.34-0.368,0.651-0.539,0.935c-0.17,0.283-0.368,0.51-0.566,0.736c-0.198,0.198-0.425,0.34-0.68,0.453
		c-0.284,0.113-0.595,0.17-0.935,0.17c-0.396,0-0.737-0.085-1.02-0.227c-0.312-0.17-0.566-0.396-0.793-0.708
		c-0.198-0.312-0.369-0.708-0.482-1.161c-0.113-0.454-0.17-0.992-0.17-1.587c0-0.68,0.085-1.246,0.227-1.757
		c0.142-0.51,0.369-0.906,0.624-1.246s0.595-0.595,0.963-0.765c0.369-0.17,0.793-0.255,1.247-0.255c0.34,0,0.624,0.028,0.907,0.113
		c0.255,0.085,0.481,0.227,0.68,0.396c0.227,0.17,0.397,0.396,0.539,0.68c0.17,0.255,0.283,0.595,0.425,0.963h0.028l0.567-1.954
		h1.218v0.312c-0.085,0.142-0.198,0.34-0.312,0.595c-0.113,0.227-0.227,0.481-0.34,0.793c-0.113,0.283-0.227,0.595-0.368,0.907
		c-0.113,0.34-0.227,0.651-0.34,0.963c0.142,0.651,0.312,1.274,0.454,1.813c0.17,0.566,0.34,1.048,0.51,1.501L97.087,366.788
		L97.087,366.788z M94.736,363.53c-0.057-0.595-0.142-1.104-0.255-1.502c-0.085-0.425-0.227-0.765-0.369-1.048
		c-0.17-0.255-0.34-0.453-0.538-0.566c-0.198-0.142-0.453-0.198-0.708-0.198c-0.595,0-1.02,0.283-1.332,0.878
		c-0.283,0.595-0.425,1.417-0.425,2.521c0,0.935,0.142,1.672,0.368,2.182c0.255,0.481,0.567,0.736,0.992,0.736
		c0.283,0,0.538-0.085,0.765-0.255c0.227-0.17,0.425-0.396,0.623-0.651c0.17-0.283,0.34-0.623,0.481-0.964
		C94.481,364.295,94.623,363.927,94.736,363.53L94.736,363.53z"/>
	<path fill-rule="evenodd" clip-rule="evenodd" fill="#DC2401" d="M489.713,352.623c-3.003,0-5.411-2.408-5.411-5.383
		c0-3.003,2.408-5.411,5.411-5.411c2.975,0,5.383,2.408,5.383,5.411C495.096,350.215,492.688,352.623,489.713,352.623
		L489.713,352.623z"/>
	<path fill="none" stroke="#010101" stroke-width="0" stroke-linejoin="round" stroke-miterlimit="10" d="M489.713,352.623
		c-3.003,0-5.411-2.408-5.411-5.383c0-3.003,2.408-5.411,5.411-5.411c2.975,0,5.383,2.408,5.383,5.411
		C495.096,350.215,492.688,352.623,489.713,352.623L489.713,352.623z"/>
	<polygon fill-rule="evenodd" clip-rule="evenodd" fill="#010101" points="500.677,345.399 505.719,345.399 505.719,346.107 
		505.719,346.844 500.677,346.844 500.677,346.107 500.677,345.399 	"/>
	<polygon fill-rule="evenodd" clip-rule="evenodd" fill="#010101" points="518.666,346.107 502.489,340.725 502.489,351.519 
		518.666,346.107 	"/>
	<path fill-rule="evenodd" clip-rule="evenodd" fill="#1B1B1B" d="M485.208,338.458v0.34h-1.643
		c-0.057-0.17-0.114-0.368-0.171-0.566c-0.057-0.17-0.113-0.368-0.142-0.566c-0.057-0.17-0.085-0.368-0.113-0.538
		c-0.057-0.17-0.085-0.312-0.113-0.453h-0.028c-0.198,0.34-0.368,0.651-0.538,0.935s-0.368,0.51-0.566,0.736
		c-0.198,0.198-0.425,0.34-0.68,0.453c-0.283,0.113-0.596,0.17-0.936,0.17c-0.396,0-0.736-0.085-1.02-0.227
		c-0.312-0.17-0.566-0.396-0.793-0.708c-0.198-0.312-0.368-0.708-0.482-1.161c-0.113-0.453-0.17-0.992-0.17-1.587
		c0-0.68,0.086-1.246,0.228-1.757c0.142-0.51,0.368-0.906,0.623-1.246s0.595-0.595,0.963-0.765s0.793-0.255,1.247-0.255
		c0.34,0,0.623,0.028,0.906,0.113c0.255,0.085,0.481,0.227,0.68,0.396c0.227,0.17,0.396,0.396,0.538,0.68
		c0.17,0.255,0.283,0.595,0.425,0.963h0.028l0.567-1.954h1.218v0.312c-0.085,0.142-0.198,0.34-0.312,0.595
		c-0.113,0.227-0.227,0.481-0.34,0.793c-0.113,0.284-0.227,0.596-0.368,0.907c-0.113,0.34-0.227,0.651-0.34,0.963
		c0.142,0.651,0.312,1.275,0.453,1.813c0.17,0.566,0.34,1.048,0.51,1.501L485.208,338.458L485.208,338.458z M482.856,335.2
		c-0.057-0.595-0.142-1.104-0.255-1.501c-0.085-0.426-0.227-0.766-0.368-1.049c-0.17-0.255-0.34-0.453-0.538-0.566
		c-0.198-0.142-0.453-0.198-0.708-0.198c-0.596,0-1.021,0.283-1.332,0.878c-0.283,0.595-0.425,1.417-0.425,2.521
		c0,0.935,0.142,1.672,0.368,2.182c0.255,0.481,0.566,0.736,0.991,0.736c0.284,0,0.539-0.085,0.766-0.255s0.425-0.396,0.623-0.651
		c0.17-0.283,0.34-0.623,0.481-0.964C482.602,335.965,482.743,335.597,482.856,335.2L482.856,335.2z"/>
</g>
</svg>
