<?xml version="1.0" encoding="utf-8"?>
<!-- Generator: Adobe Illustrator 16.0.0, SVG Export Plug-In . SVG Version: 6.00 Build 0)  -->
<!DOCTYPE svg PUBLIC "-//W3C//DTD SVG 1.1//EN" "http://www.w3.org/Graphics/SVG/1.1/DTD/svg11.dtd">
<svg version="1.1" id="Layer_1" xmlns="http://www.w3.org/2000/svg" xmlns:xlink="http://www.w3.org/1999/xlink" x="0px" y="0px"
	 width="756.262px" height="531.259px" viewBox="0 0 756.262 531.259" enable-background="new 0 0 756.262 531.259"
	 xml:space="preserve">
<polygon fill-rule="evenodd" clip-rule="evenodd" fill="#99CCFF" points="404.658,493.89 287.713,493.89 287.713,313.804 
	521.576,313.804 521.576,493.89 404.658,493.89 "/>
<g>
	<defs>
		<rect id="SVGID_1_" width="756.262" height="510.452"/>
	</defs>
	<clipPath id="SVGID_2_">
		<use xlink:href="#SVGID_1_"  overflow="visible"/>
	</clipPath>
	
		<polygon clip-path="url(#SVGID_2_)" fill="none" stroke="#010101" stroke-width="5.754" stroke-linejoin="round" stroke-miterlimit="10" points="
		404.658,493.89 287.713,493.89 287.713,313.804 521.576,313.804 521.576,493.89 404.658,493.89 	"/>
</g>
<image overflow="visible" width="438" height="460" xlink:href="46DE67D6F440F371.jpg"  transform="matrix(0.1874 0 0 0.188 364.7422 367.8291)">
</image>
<polygon fill-rule="evenodd" clip-rule="evenodd" fill="#FFFFFF" points="402.592,367.914 389.984,367.914 389.984,308.132 
	415.17,308.132 415.17,367.914 402.592,367.914 "/>
<polygon fill="none" stroke="#FFFFFF" stroke-width="0" stroke-linejoin="round" stroke-miterlimit="10" points="402.592,367.914 
	389.984,367.914 389.984,308.132 415.17,308.132 415.17,367.914 402.592,367.914 "/>
<polygon fill-rule="evenodd" clip-rule="evenodd" fill="#010101" points="402.705,341.312 402.705,68.716 404.148,68.716 
	405.594,68.716 405.594,341.312 404.148,341.312 402.705,341.312 "/>
<polygon fill-rule="evenodd" clip-rule="evenodd" fill="#010101" points="404.148,53.175 397.689,72.63 410.637,72.63 
	404.148,53.175 "/>
<path fill-rule="evenodd" clip-rule="evenodd" fill="#010101" d="M403.838,340.547c-4.307-17.838-10.539-34.287-19.01-49.432
	l1.275-0.709l1.273-0.709c8.584,15.399,14.902,32.047,19.293,50.169l-1.416,0.341L403.838,340.547L403.838,340.547z"/>
<path fill-rule="evenodd" clip-rule="evenodd" fill="#010101" d="M384.828,291.115c-8.442-15.144-19.123-29.012-32.296-41.746
	l0.992-1.049l1.02-1.049c13.4,12.96,24.222,27.055,32.834,42.426l-1.273,0.709L384.828,291.115L384.828,291.115z"/>
<path fill-rule="evenodd" clip-rule="evenodd" fill="#010101" d="M352.532,249.37c-13.23-12.791-28.981-24.446-47.538-35.167
	l0.708-1.248l0.737-1.248c18.783,10.833,34.704,22.631,48.104,35.563l-1.02,1.049L352.532,249.37L352.532,249.37z"/>
<polygon fill-rule="evenodd" clip-rule="evenodd" fill="#010101" points="304.994,214.203 304.994,214.203 305.702,212.955 
	304.994,214.203 "/>
<path fill-rule="evenodd" clip-rule="evenodd" fill="#010101" d="M304.994,214.203c-18.613-10.72-40.059-20.476-64.621-29.438
	l0.481-1.361l0.51-1.361c24.732,9.019,46.32,18.859,65.074,29.665l-0.737,1.248L304.994,214.203L304.994,214.203z"/>
<polygon fill-rule="evenodd" clip-rule="evenodd" fill="#010101" points="225.953,178.243 242.13,190.806 246.436,178.555 
	225.953,178.243 "/>
<path fill-rule="evenodd" clip-rule="evenodd" fill="#010101" d="M403.695,337.371c1.189-15.854,4.986-29.495,10.709-41.094
	l1.303,0.652l1.305,0.652c-5.582,11.259-9.266,24.56-10.426,40.016l-1.445-0.113L403.695,337.371L403.695,337.371z"/>
<path fill-rule="evenodd" clip-rule="evenodd" fill="#010101" d="M414.404,296.277c5.752-11.6,13.457-21.129,22.467-28.672
	l0.934,1.105l0.906,1.106c-8.697,7.288-16.146,16.505-21.699,27.765l-1.305-0.652L414.404,296.277L414.404,296.277z"/>
<path fill-rule="evenodd" clip-rule="evenodd" fill="#010101" d="M436.871,267.605c9.008-7.544,19.291-13.074,30.199-16.761
	l0.453,1.39l0.48,1.361c-10.594,3.545-20.566,8.934-29.293,16.222l-0.906-1.106L436.871,267.605L436.871,267.605z"/>
<path fill-rule="evenodd" clip-rule="evenodd" fill="#010101" d="M467.07,250.844c10.906-3.63,22.438-5.417,33.967-5.417v1.446
	v1.446c-11.219,0-22.438,1.73-33.033,5.275l-0.48-1.361L467.07,250.844L467.07,250.844z"/>
<path fill-rule="evenodd" clip-rule="evenodd" fill="#010101" d="M501.037,245.428c9.406,0,18.783,1.191,27.82,3.488l-0.367,1.418
	l-0.342,1.39c-8.811-2.241-17.961-3.403-27.111-3.403v-1.446V245.428L501.037,245.428z"/>
<path fill-rule="evenodd" clip-rule="evenodd" fill="#010101" d="M528.857,248.916c9.037,2.325,17.678,5.785,25.611,10.295
	l-0.709,1.248l-0.709,1.275c-7.705-4.396-16.146-7.742-24.902-10.011l0.342-1.39L528.857,248.916L528.857,248.916z"/>
<path fill-rule="evenodd" clip-rule="evenodd" fill="#010101" d="M554.469,259.211c7.959,4.537,15.156,10.152,21.303,16.789
	l-1.076,0.964l-1.049,0.992c-5.92-6.409-12.918-11.854-20.596-16.222l0.709-1.275L554.469,259.211L554.469,259.211z"/>
<path fill-rule="evenodd" clip-rule="evenodd" fill="#010101" d="M575.771,276c6.119,6.636,11.162,14.293,14.76,22.942l-1.33,0.539
	l-1.332,0.567c-3.457-8.31-8.33-15.683-14.223-22.093l1.049-0.992L575.771,276L575.771,276z"/>
<polygon fill-rule="evenodd" clip-rule="evenodd" fill="#010101" points="593.535,313.804 593.562,293.299 581.268,297.383 
	593.535,313.804 "/>
<polygon fill-rule="evenodd" clip-rule="evenodd" fill="#010101" points="116.288,71.666 112.577,66.249 108.78,71.666 
	106.911,71.666 111.613,65.228 107.279,59.272 109.121,59.272 112.577,64.122 115.919,59.272 117.79,59.272 113.54,65.171 
	118.129,71.666 116.288,71.666 "/>
<polygon fill-rule="evenodd" clip-rule="evenodd" fill="#010101" points="201.306,71.666 197.595,66.249 193.799,71.666 
	191.929,71.666 196.632,65.228 192.297,59.272 194.139,59.272 197.595,64.122 200.938,59.272 202.808,59.272 198.558,65.171 
	203.147,71.666 201.306,71.666 "/>
<polygon fill-rule="evenodd" clip-rule="evenodd" fill="#010101" points="286.268,71.666 282.557,66.249 278.76,71.666 
	276.891,71.666 281.593,65.228 277.259,59.272 279.101,59.272 282.557,64.122 285.899,59.272 287.77,59.272 283.52,65.171 
	288.109,71.666 286.268,71.666 "/>
<polygon fill-rule="evenodd" clip-rule="evenodd" fill="#010101" points="371.286,71.666 367.575,66.249 363.779,71.666 
	361.909,71.666 366.612,65.228 362.277,59.272 364.119,59.272 367.575,64.122 370.918,59.272 372.788,59.272 368.538,65.171 
	373.127,71.666 371.286,71.666 "/>
<polygon fill-rule="evenodd" clip-rule="evenodd" fill="#010101" points="456.248,71.666 452.537,66.249 448.74,71.666 
	446.871,71.666 451.574,65.228 447.238,59.272 449.08,59.272 452.537,64.122 455.879,59.272 457.75,59.272 453.5,65.171 
	458.09,71.666 456.248,71.666 "/>
<polygon fill-rule="evenodd" clip-rule="evenodd" fill="#010101" points="541.266,71.666 537.555,66.249 533.758,71.666 
	531.889,71.666 536.592,65.228 532.258,59.272 534.1,59.272 537.555,64.122 540.898,59.272 542.768,59.272 538.518,65.171 
	543.107,71.666 541.266,71.666 "/>
<polygon fill-rule="evenodd" clip-rule="evenodd" fill="#010101" points="626.229,71.666 622.516,66.249 618.721,71.666 
	616.852,71.666 621.553,65.228 617.219,59.272 619.061,59.272 622.516,64.122 625.859,59.272 627.729,59.272 623.48,65.171 
	628.068,71.666 626.229,71.666 "/>
<polygon fill-rule="evenodd" clip-rule="evenodd" fill="#010101" points="711.246,71.666 707.535,66.249 703.738,71.666 
	701.869,71.666 706.572,65.228 702.236,59.272 704.078,59.272 707.535,64.122 710.877,59.272 712.748,59.272 708.498,65.171 
	713.088,71.666 711.246,71.666 "/>
<polygon fill-rule="evenodd" clip-rule="evenodd" fill="#010101" points="116.288,156.746 112.577,151.329 108.78,156.746 
	106.911,156.746 111.613,150.308 107.279,144.353 109.121,144.353 112.577,149.202 115.919,144.353 117.79,144.353 113.54,150.251 
	118.129,156.746 116.288,156.746 "/>
<polygon fill-rule="evenodd" clip-rule="evenodd" fill="#010101" points="201.306,156.746 197.595,151.329 193.799,156.746 
	191.929,156.746 196.632,150.308 192.297,144.353 194.139,144.353 197.595,149.202 200.938,144.353 202.808,144.353 
	198.558,150.251 203.147,156.746 201.306,156.746 "/>
<polygon fill-rule="evenodd" clip-rule="evenodd" fill="#010101" points="286.268,156.746 282.557,151.329 278.76,156.746 
	276.891,156.746 281.593,150.308 277.259,144.353 279.101,144.353 282.557,149.202 285.899,144.353 287.77,144.353 283.52,150.251 
	288.109,156.746 286.268,156.746 "/>
<polygon fill-rule="evenodd" clip-rule="evenodd" fill="#010101" points="371.286,156.746 367.575,151.329 363.779,156.746 
	361.909,156.746 366.612,150.308 362.277,144.353 364.119,144.353 367.575,149.202 370.918,144.353 372.788,144.353 
	368.538,150.251 373.127,156.746 371.286,156.746 "/>
<polygon fill-rule="evenodd" clip-rule="evenodd" fill="#010101" points="456.248,156.746 452.537,151.329 448.74,156.746 
	446.871,156.746 451.574,150.308 447.238,144.353 449.08,144.353 452.537,149.202 455.879,144.353 457.75,144.353 453.5,150.251 
	458.09,156.746 456.248,156.746 "/>
<polygon fill-rule="evenodd" clip-rule="evenodd" fill="#010101" points="541.266,156.746 537.555,151.329 533.758,156.746 
	531.889,156.746 536.592,150.308 532.258,144.353 534.1,144.353 537.555,149.202 540.898,144.353 542.768,144.353 538.518,150.251 
	543.107,156.746 541.266,156.746 "/>
<polygon fill-rule="evenodd" clip-rule="evenodd" fill="#010101" points="626.229,156.746 622.516,151.329 618.721,156.746 
	616.852,156.746 621.553,150.308 617.219,144.353 619.061,144.353 622.516,149.202 625.859,144.353 627.729,144.353 623.48,150.251 
	628.068,156.746 626.229,156.746 "/>
<polygon fill-rule="evenodd" clip-rule="evenodd" fill="#010101" points="711.246,156.746 707.535,151.329 703.738,156.746 
	701.869,156.746 706.572,150.308 702.236,144.353 704.078,144.353 707.535,149.202 710.877,144.353 712.748,144.353 
	708.498,150.251 713.088,156.746 711.246,156.746 "/>
<polygon fill-rule="evenodd" clip-rule="evenodd" fill="#010101" points="116.288,241.826 112.577,236.409 108.78,241.826 
	106.911,241.826 111.613,235.388 107.279,229.433 109.121,229.433 112.577,234.282 115.919,229.433 117.79,229.433 113.54,235.332 
	118.129,241.826 116.288,241.826 "/>
<polygon fill-rule="evenodd" clip-rule="evenodd" fill="#010101" points="201.306,241.826 197.595,236.409 193.799,241.826 
	191.929,241.826 196.632,235.388 192.297,229.433 194.139,229.433 197.595,234.282 200.938,229.433 202.808,229.433 
	198.558,235.332 203.147,241.826 201.306,241.826 "/>
<polygon fill-rule="evenodd" clip-rule="evenodd" fill="#010101" points="286.268,241.826 282.557,236.409 278.76,241.826 
	276.891,241.826 281.593,235.388 277.259,229.433 279.101,229.433 282.557,234.282 285.899,229.433 287.77,229.433 283.52,235.332 
	288.109,241.826 286.268,241.826 "/>
<polygon fill-rule="evenodd" clip-rule="evenodd" fill="#010101" points="371.286,241.826 367.575,236.409 363.779,241.826 
	361.909,241.826 366.612,235.388 362.277,229.433 364.119,229.433 367.575,234.282 370.918,229.433 372.788,229.433 
	368.538,235.332 373.127,241.826 371.286,241.826 "/>
<polygon fill-rule="evenodd" clip-rule="evenodd" fill="#010101" points="456.248,241.826 452.537,236.409 448.74,241.826 
	446.871,241.826 451.574,235.388 447.238,229.433 449.08,229.433 452.537,234.282 455.879,229.433 457.75,229.433 453.5,235.332 
	458.09,241.826 456.248,241.826 "/>
<polygon fill-rule="evenodd" clip-rule="evenodd" fill="#010101" points="541.266,241.826 537.555,236.409 533.758,241.826 
	531.889,241.826 536.592,235.388 532.258,229.433 534.1,229.433 537.555,234.282 540.898,229.433 542.768,229.433 538.518,235.332 
	543.107,241.826 541.266,241.826 "/>
<polygon fill-rule="evenodd" clip-rule="evenodd" fill="#010101" points="626.229,241.826 622.516,236.409 618.721,241.826 
	616.852,241.826 621.553,235.388 617.219,229.433 619.061,229.433 622.516,234.282 625.859,229.433 627.729,229.433 623.48,235.332 
	628.068,241.826 626.229,241.826 "/>
<polygon fill-rule="evenodd" clip-rule="evenodd" fill="#010101" points="711.246,241.826 707.535,236.409 703.738,241.826 
	701.869,241.826 706.572,235.388 702.236,229.433 704.078,229.433 707.535,234.282 710.877,229.433 712.748,229.433 
	708.498,235.332 713.088,241.826 711.246,241.826 "/>
<polygon fill-rule="evenodd" clip-rule="evenodd" fill="#010101" points="116.288,326.906 112.577,321.489 108.78,326.906 
	106.911,326.906 111.613,320.468 107.279,314.513 109.121,314.513 112.577,319.362 115.919,314.513 117.79,314.513 113.54,320.411 
	118.129,326.906 116.288,326.906 "/>
<polygon fill-rule="evenodd" clip-rule="evenodd" fill="#010101" points="201.306,326.906 197.595,321.489 193.799,326.906 
	191.929,326.906 196.632,320.468 192.297,314.513 194.139,314.513 197.595,319.362 200.938,314.513 202.808,314.513 
	198.558,320.411 203.147,326.906 201.306,326.906 "/>
<polygon fill-rule="evenodd" clip-rule="evenodd" fill="#010101" points="541.266,326.906 537.555,321.489 533.758,326.906 
	531.889,326.906 536.592,320.468 532.258,314.513 534.1,314.513 537.555,319.362 540.898,314.513 542.768,314.513 538.518,320.411 
	543.107,326.906 541.266,326.906 "/>
<polygon fill-rule="evenodd" clip-rule="evenodd" fill="#010101" points="626.229,326.906 622.516,321.489 618.721,326.906 
	616.852,326.906 621.553,320.468 617.219,314.513 619.061,314.513 622.516,319.362 625.859,314.513 627.729,314.513 623.48,320.411 
	628.068,326.906 626.229,326.906 "/>
<polygon fill-rule="evenodd" clip-rule="evenodd" fill="#010101" points="711.246,326.906 707.535,321.489 703.738,326.906 
	701.869,326.906 706.572,320.468 702.236,314.513 704.078,314.513 707.535,319.362 710.877,314.513 712.748,314.513 
	708.498,320.411 713.088,326.906 711.246,326.906 "/>
<path fill-rule="evenodd" clip-rule="evenodd" fill="#800101" d="M288.478,190.182c-0.736-1.078-1.53-2.581-2.437-4.509
	c-3.003,3.205-5.609,4.821-7.847,4.821c-1.19,0-2.068-0.539-2.635-1.616c-0.453-0.879-0.68-1.929-0.68-3.205
	c0-2.439,0.708-4.679,2.096-6.693c1.558-2.269,3.485-3.403,5.808-3.403c1.162,0,2.182,0.794,3.003,2.382
	c0.34,0.681,0.822,1.985,1.445,3.942c1.218-2.581,1.842-4.566,1.842-5.956h2.776c-0.17,1.815-1.474,4.311-3.91,7.516
	c1.303,3.176,2.55,5.417,3.683,6.721H288.478L288.478,190.182z M285.531,184.624c-0.68-2.354-1.19-3.857-1.501-4.538
	c-0.907-2.127-1.813-3.205-2.748-3.205c-1.19,0-2.153,1.163-2.861,3.46c-0.51,1.73-0.765,3.403-0.765,5.02
	c0,2.382,0.68,3.602,2.011,3.602c1.133,0,2.267-0.482,3.371-1.475C283.69,186.921,284.511,185.957,285.531,184.624L285.531,184.624z
	"/>
<path fill-rule="evenodd" clip-rule="evenodd" fill="#800101" d="M580.277,272.001l3.682-18.406c1.049-5.36,3.598-8.054,7.621-8.054
	c2.607,0,3.881,1.191,3.881,3.517c0,2.552-1.643,4.509-4.957,5.899c2.889,0.737,4.363,2.496,4.363,5.275
	c0,2.184-0.822,3.886-2.408,5.134c-1.475,1.162-3.287,1.729-5.496,1.729c-0.879,0-1.871-0.198-3.004-0.596l-1.104,5.502H580.277
	L580.277,272.001z M584.385,264.4c1.02,1.191,2.238,1.787,3.738,1.787c1.305,0,2.352-0.539,3.146-1.674
	c0.68-1.021,1.02-2.212,1.02-3.602c0-1.531-0.482-2.723-1.475-3.573c-0.906-0.794-2.152-1.191-3.711-1.191l0.227-1.304
	c1.672,0,3.004-0.482,4.023-1.447c0.992-0.964,1.502-2.269,1.502-3.914c0-1.9-0.85-2.864-2.551-2.864
	c-1.133,0-2.01,0.737-2.635,2.269c-0.197,0.51-0.51,1.787-0.906,3.771L584.385,264.4L584.385,264.4z"/>
<path fill-rule="evenodd" clip-rule="evenodd" fill="#800101" d="M422.053,93.078c-0.17-2.042-0.453-3.942-0.82-5.729
	c-0.596-2.779-1.275-4.452-2.012-4.991c-0.736-0.567-1.869-0.822-3.314-0.794l2.068-1.9c2.549,0,4.361,1.333,5.41,4.027
	c0.539,1.446,0.963,3.857,1.275,7.317c3.854-4.368,5.779-7.629,5.779-9.756c0-0.567-0.143-1.106-0.453-1.588h3.285
	c0.029,0.255,0.057,0.482,0.057,0.681c0,1.106-1.189,3.148-3.512,6.069l-4.986,5.729c0.057,0.624,0.084,1.248,0.084,1.872
	c0,1.928-0.453,3.602-1.387,4.991c-1.049,1.645-2.494,2.439-4.307,2.439c-0.709,0-1.359-0.199-1.926-0.652
	c-0.568-0.425-0.852-0.993-0.852-1.673C416.443,97.332,418.314,95.318,422.053,93.078L422.053,93.078z M422.279,94.07
	c-3.059,1.843-4.588,3.403-4.588,4.623c0,0.908,0.453,1.361,1.33,1.361c1.078,0,1.898-0.567,2.494-1.73
	c0.51-0.936,0.793-1.985,0.793-3.148C422.309,94.751,422.279,94.382,422.279,94.07L422.279,94.07z"/>
<g>
	<g>
		<polygon fill-rule="evenodd" clip-rule="evenodd" fill="#010101" points="294.308,7.769 309.57,7.769 309.57,8.571 309.57,9.406 
			294.308,9.406 294.308,8.571 294.308,7.769 		"/>
		<polygon fill-rule="evenodd" clip-rule="evenodd" fill="#010101" points="317.326,8.571 307.648,5.714 307.648,11.428 
			317.326,8.571 		"/>
	</g>
	<text transform="matrix(1 0 0 1 62.5308 34.9277)" font-family="'MyriadPro-Regular'" font-size="27.6854">Campo Magnético - B</text>
</g>
<g>
	<text transform="matrix(1 0 0 1 291.1113 524.3379)" font-family="'MyriadPro-Regular'" font-size="27.6854">Amostra Radioativa</text>
</g>
<g>
	<text transform="matrix(1 0 0 1 531.8887 454.2988)"><tspan x="0" y="0" font-family="'MyriadPro-Regular'" font-size="27.6854">Bloco de </tspan><tspan x="0" y="33.223" font-family="'MyriadPro-Regular'" font-size="27.6854">Chumbo</tspan></text>
</g>
</svg>
