<?xml version="1.0" encoding="utf-8"?>
<!-- Generator: Adobe Illustrator 16.0.0, SVG Export Plug-In . SVG Version: 6.00 Build 0)  -->
<!DOCTYPE svg PUBLIC "-//W3C//DTD SVG 1.1//EN" "http://www.w3.org/Graphics/SVG/1.1/DTD/svg11.dtd">
<svg version="1.1" id="Layer_2" xmlns="http://www.w3.org/2000/svg" xmlns:xlink="http://www.w3.org/1999/xlink" x="0px" y="0px"
	 width="626.5px" height="422.419px" viewBox="0 0 626.5 422.419" enable-background="new 0 0 626.5 422.419" xml:space="preserve">
<rect x="44.805" y="325.549" transform="matrix(0.6713 0.7412 -0.7412 0.6713 258.3371 72.9052)" fill="#FFFFFF" stroke="#000000" stroke-miterlimit="10" width="4.332" height="4.334"/>
<rect x="43.167" y="371.172" transform="matrix(0.6713 0.7412 -0.7412 0.6713 291.6329 89.1313)" fill="#FFFFFF" stroke="#000000" stroke-miterlimit="10" width="4.333" height="4.335"/>
<rect x="47.198" y="266.171" transform="matrix(0.6712 0.7412 -0.7412 0.6712 215.1298 51.6261)" fill="#FFFFFF" stroke="#000000" stroke-miterlimit="10" width="4.333" height="4.334"/>
<rect x="47.198" y="255.504" transform="matrix(0.6712 0.7412 -0.7412 0.6712 207.2231 48.1193)" fill="#FFFFFF" stroke="#000000" stroke-miterlimit="10" width="4.333" height="4.334"/>
<rect x="53.319" y="152.168" transform="matrix(0.6713 0.7412 -0.7412 0.6713 132.6277 9.6039)" fill="#FFFFFF" stroke="#000000" stroke-miterlimit="10" width="4.333" height="4.335"/>
<rect x="48.834" y="81.502" transform="matrix(0.6712 0.7412 -0.7412 0.6712 78.7847 -10.2969)" fill="#FFFFFF" stroke="#000000" stroke-miterlimit="10" width="4.333" height="4.334"/>
<rect x="56.38" y="141.941" transform="matrix(0.6713 0.7412 -0.7412 0.6713 126.0535 3.9738)" fill="#FFFFFF" stroke="#000000" stroke-miterlimit="10" width="4.333" height="4.335"/>
<rect x="59.44" y="106.834" transform="matrix(0.0455 0.999 -0.999 0.0455 167.6909 42.4963)" fill="#FFFFFF" stroke="#000000" stroke-miterlimit="10" width="4.333" height="4.335"/>
<rect x="61.703" y="106.835" transform="matrix(0.0983 0.9952 -0.9952 0.0983 166.0679 34.7299)" fill="#FFFFFF" stroke="#000000" stroke-miterlimit="10" width="4.333" height="4.334"/>
<rect x="64.073" y="87.623" transform="matrix(0.6713 0.7412 -0.7412 0.6713 88.3309 -19.5802)" fill="#FFFFFF" stroke="#000000" stroke-miterlimit="10" width="4.333" height="4.335"/>
<rect x="66.098" y="55.833" transform="matrix(0.6713 0.7412 -0.7412 0.6713 65.4267 -31.5315)" fill="#FFFFFF" stroke="#000000" stroke-miterlimit="10" width="4.333" height="4.335"/>
<rect x="80.637" y="52.772" transform="matrix(0.6713 0.7412 -0.7412 0.6713 67.9442 -43.3153)" fill="#FFFFFF" stroke="#000000" stroke-miterlimit="10" width="4.333" height="4.335"/>
<rect x="107.501" y="23.501" transform="matrix(0.6713 0.7412 -0.7412 0.6713 55.0789 -72.8508)" fill="#FFFFFF" stroke="#000000" stroke-miterlimit="10" width="4.333" height="4.335"/>
<rect x="109.169" y="23.5" transform="matrix(0.6713 0.7412 -0.7412 0.6713 55.6192 -74.0823)" fill="#FFFFFF" stroke="#000000" stroke-miterlimit="10" width="4.333" height="4.335"/>
<rect x="240.503" y="16.015" transform="matrix(0.6713 0.7412 -0.7412 0.6713 93.2401 -173.8851)" fill="#FFFFFF" stroke="#000000" stroke-miterlimit="10" width="4.333" height="4.335"/>
<rect x="242.586" y="16.015" transform="matrix(0.6713 0.7412 -0.7412 0.6713 93.9242 -175.4283)" fill="#FFFFFF" stroke="#000000" stroke-miterlimit="10" width="4.333" height="4.335"/>
<rect x="244.585" y="16.015" transform="matrix(0.6713 0.7412 -0.7412 0.6713 94.5815 -176.9103)" fill="#FFFFFF" stroke="#000000" stroke-miterlimit="10" width="4.333" height="4.335"/>
<rect x="246.624" y="16.015" transform="matrix(0.6713 0.7412 -0.7412 0.6713 95.2517 -178.4216)" fill="#FFFFFF" stroke="#000000" stroke-miterlimit="10" width="4.333" height="4.335"/>
<rect x="208.686" y="13.99" transform="matrix(0.6713 0.7412 -0.7412 0.6713 81.2806 -150.9686)" fill="#FFFFFF" stroke="#000000" stroke-miterlimit="10" width="4.333" height="4.335"/>
<rect x="210.14" y="15.101" transform="matrix(0.6713 0.7412 -0.7412 0.6713 82.5822 -151.681)" fill="#FFFFFF" stroke="#000000" stroke-miterlimit="10" width="4.333" height="4.335"/>
<rect x="211.746" y="13.989" transform="matrix(0.6713 0.7412 -0.7412 0.6713 82.2992 -153.247)" fill="#FFFFFF" stroke="#000000" stroke-miterlimit="10" width="4.333" height="4.335"/>
<rect x="214.898" y="15.075" transform="matrix(0.6712 0.7412 -0.7412 0.6712 84.141 -155.2272)" fill="#FFFFFF" stroke="#000000" stroke-miterlimit="10" width="4.333" height="4.334"/>
<rect x="75.472" y="43.99" transform="matrix(0.8372 0.5469 -0.5469 0.8372 37.8832 -34.9459)" fill="#FFFFFF" stroke="#000000" stroke-miterlimit="10" width="4.333" height="4.334"/>
<rect x="120.168" y="20.439" transform="matrix(0.6713 0.7412 -0.7412 0.6713 56.9738 -83.2464)" fill="#FFFFFF" stroke="#000000" stroke-miterlimit="10" width="4.333" height="4.335"/>
<rect x="259.726" y="18.162" transform="matrix(0.6712 0.7412 -0.7412 0.6712 101.1667 -187.44)" fill="#FFFFFF" stroke="#000000" stroke-miterlimit="10" width="4.333" height="4.334"/>
<rect x="261.474" y="19.076" transform="matrix(0.6713 0.7412 -0.7412 0.6713 102.4172 -188.4344)" fill="#FFFFFF" stroke="#000000" stroke-miterlimit="10" width="4.333" height="4.335"/>
<rect x="265.847" y="19.076" transform="matrix(0.6713 0.7412 -0.7412 0.6713 103.8388 -191.6629)" fill="#FFFFFF" stroke="#000000" stroke-miterlimit="10" width="4.333" height="4.335"/>
<rect x="268.262" y="19.743" transform="matrix(0.6713 0.7412 -0.7412 0.6713 105.1271 -193.234)" fill="#FFFFFF" stroke="#000000" stroke-miterlimit="10" width="4.333" height="4.335"/>
<rect x="270.363" y="20.439" transform="matrix(0.6712 0.7412 -0.7412 0.6712 106.3512 -194.5762)" fill="#FFFFFF" stroke="#000000" stroke-miterlimit="10" width="4.333" height="4.335"/>
<rect x="271.968" y="20.439" transform="matrix(0.6712 0.7412 -0.7412 0.6712 106.8785 -195.7656)" fill="#FFFFFF" stroke="#000000" stroke-miterlimit="10" width="4.333" height="4.334"/>
<rect x="274.361" y="20.438" transform="matrix(0.6712 0.7413 -0.7413 0.6712 107.6819 -197.5526)" fill="#FFFFFF" stroke="#000000" stroke-miterlimit="10" width="4.333" height="4.334"/>
<rect x="280.482" y="21.223" transform="matrix(0.6713 0.7412 -0.7412 0.6713 110.2402 -201.8047)" fill="#FFFFFF" stroke="#000000" stroke-miterlimit="10" width="4.333" height="4.335"/>
<rect x="285.474" y="22.136" transform="matrix(0.6713 0.7412 -0.7412 0.6713 112.5759 -205.2181)" fill="#FFFFFF" stroke="#000000" stroke-miterlimit="10" width="4.333" height="4.335"/>
<rect x="287.499" y="22.136" transform="matrix(0.6713 0.7412 -0.7412 0.6713 113.2236 -206.7054)" fill="#FFFFFF" stroke="#000000" stroke-miterlimit="10" width="4.333" height="4.335"/>
<rect x="293.62" y="22.136" transform="matrix(0.6713 0.7412 -0.7412 0.6713 115.2352 -211.242)" fill="#FFFFFF" stroke="#000000" stroke-miterlimit="10" width="4.333" height="4.335"/>
<rect x="297.949" y="22.137" transform="matrix(0.6713 0.7412 -0.7412 0.6713 116.6588 -214.4503)" fill="#FFFFFF" stroke="#000000" stroke-miterlimit="10" width="4.333" height="4.335"/>
<rect x="299.741" y="22.804" transform="matrix(0.6713 0.7412 -0.7412 0.6713 117.7426 -215.5591)" fill="#FFFFFF" stroke="#000000" stroke-miterlimit="10" width="4.333" height="4.335"/>
<rect x="304.327" y="24.112" transform="matrix(0.6713 0.7412 -0.7412 0.6713 120.238 -218.5426)" fill="#FFFFFF" stroke="#000000" stroke-miterlimit="10" width="4.333" height="4.335"/>
<rect x="138.168" y="18.135" transform="matrix(0.8834 0.4686 -0.4686 0.8834 25.8781 -63.3976)" fill="#FFFFFF" stroke="#000000" stroke-miterlimit="10" width="4.333" height="4.335"/>
<rect x="144.027" y="13.989" transform="matrix(0.8834 0.4686 -0.4686 0.8834 24.6181 -66.6265)" fill="#FFFFFF" stroke="#000000" stroke-miterlimit="10" width="4.333" height="4.335"/>
<rect x="150.835" y="12.954" transform="matrix(0.8834 0.4687 -0.4687 0.8834 24.9313 -69.9446)" fill="#FFFFFF" stroke="#000000" stroke-miterlimit="10" width="4.333" height="4.335"/>
<rect x="116.169" y="22.136" transform="matrix(-0.3094 0.9509 -0.9509 -0.3094 178.0535 -80.7095)" fill="#FFFFFF" stroke="#000000" stroke-miterlimit="10" width="4.333" height="4.334"/>
<rect x="123.629" y="19.743" transform="matrix(0.9738 -0.2274 0.2274 0.9738 -1.6868 29.179)" fill="#FFFFFF" stroke="#000000" stroke-miterlimit="10" width="4.333" height="4.334"/>
<rect x="126.232" y="19.405" transform="matrix(0.8834 0.4686 -0.4686 0.8834 25.0776 -57.6508)" fill="#FFFFFF" stroke="#000000" stroke-miterlimit="10" width="4.333" height="4.335"/>
<rect x="151.957" y="12.014" transform="matrix(0.8242 0.5663 -0.5663 0.8242 35.1222 -84.7829)" fill="#FFFFFF" stroke="#000000" stroke-miterlimit="10" width="4.333" height="4.334"/>
<rect x="159.261" y="12.04" transform="matrix(0.8185 0.5745 -0.5745 0.8185 37.4652 -90.1673)" fill="#FFFFFF" stroke="#000000" stroke-miterlimit="10" width="4.333" height="4.334"/>
<rect x="160.836" y="11.059" transform="matrix(0.716 0.6981 -0.6981 0.716 55.5244 -110.0343)" fill="#FFFFFF" stroke="#000000" stroke-miterlimit="10" width="4.333" height="4.335"/>
<rect x="165.209" y="12.954" transform="matrix(0.8834 0.4686 -0.4686 0.8834 26.6031 -76.6735)" fill="#FFFFFF" stroke="#000000" stroke-miterlimit="10" width="4.333" height="4.335"/>
<rect x="166.958" y="12.04" transform="matrix(0.7478 0.6639 -0.6639 0.7478 52.0787 -108.696)" fill="#FFFFFF" stroke="#000000" stroke-miterlimit="10" width="4.333" height="4.335"/>
<rect x="168.805" y="11.726" transform="matrix(0.6508 0.7592 -0.7592 0.6508 70.2465 -124.9546)" fill="#FFFFFF" stroke="#000000" stroke-miterlimit="10" width="4.333" height="4.335"/>
<rect x="69.158" y="65.464" transform="matrix(0.9994 0.0343 -0.0343 0.9994 2.3584 -2.4034)" fill="#FFFFFF" stroke="#000000" stroke-miterlimit="10" width="4.334" height="4.335"/>
<rect x="70.233" y="64.372" transform="matrix(0.9994 0.0344 -0.0344 0.9994 2.3294 -2.4487)" fill="#FFFFFF" stroke="#000000" stroke-miterlimit="10" width="4.334" height="4.335"/>
<rect x="83.697" y="41.749" transform="matrix(0.9994 0.0343 -0.0343 0.9994 1.5548 -2.9156)" fill="#FFFFFF" stroke="#000000" stroke-miterlimit="10" width="4.333" height="4.335"/>
<rect x="90.168" y="38.75" transform="matrix(0.9994 0.0344 -0.0344 0.9994 1.4609 -3.1493)" fill="#FFFFFF" stroke="#000000" stroke-miterlimit="10" width="4.333" height="4.335"/>
<rect x="92.407" y="33.056" transform="matrix(0.9994 0.0344 -0.0344 0.9994 1.2663 -3.2293)" fill="#FFFFFF" stroke="#000000" stroke-miterlimit="10" width="4.334" height="4.335"/>
<rect x="98.613" y="29.413" transform="matrix(0.9994 0.0343 -0.0343 0.9994 1.141 -3.4338)" fill="#FFFFFF" stroke="#000000" stroke-miterlimit="10" width="4.333" height="4.335"/>
<rect x="100.852" y="25.196" transform="matrix(0.9994 0.0343 -0.0343 0.9994 0.9977 -3.5126)" fill="#FFFFFF" stroke="#000000" stroke-miterlimit="10" width="4.334" height="4.335"/>
<rect x="175.947" y="12.04" transform="matrix(0.4951 0.8688 -0.8688 0.4951 102.2745 -147.5791)" fill="#FFFFFF" stroke="#000000" stroke-miterlimit="10" width="4.334" height="4.335"/>
<rect x="177.826" y="12.954" transform="matrix(0.9116 -0.4111 0.4111 0.9116 9.6946 75.3256)" fill="#FFFFFF" stroke="#000000" stroke-miterlimit="10" width="4.333" height="4.335"/>
<rect x="178.902" y="12.04" transform="matrix(0.8545 -0.5195 0.5195 0.8545 18.9711 96.1344)" fill="#FFFFFF" stroke="#000000" stroke-miterlimit="10" width="4.334" height="4.335"/>
<rect x="181.88" y="12.013" transform="matrix(0.7149 -0.6992 0.6992 0.7149 42.5575 132.7347)" fill="#FFFFFF" stroke="#000000" stroke-miterlimit="10" width="4.334" height="4.335"/>
<rect x="187.301" y="12.04" transform="matrix(-0.0915 0.9958 -0.9958 -0.0915 220.9505 -173.1665)" fill="#FFFFFF" stroke="#000000" stroke-miterlimit="10" width="4.334" height="4.335"/>
<rect x="187.301" y="14.781" transform="matrix(0.9994 0.0343 -0.0343 0.9994 0.6918 -6.4806)" fill="#FFFFFF" stroke="#000000" stroke-miterlimit="10" width="4.333" height="4.335"/>
<rect x="191.281" y="14.124" transform="matrix(0.7186 -0.6954 0.6954 0.7186 43.1037 139.1079)" fill="#FFFFFF" stroke="#000000" stroke-miterlimit="10" width="4.333" height="4.334"/>
<rect x="192.718" y="14.174" transform="matrix(0.7438 0.6684 -0.6684 0.7438 60.8536 -126.0761)" fill="#FFFFFF" stroke="#000000" stroke-miterlimit="10" width="4.333" height="4.334"/>
<rect x="195.778" y="14.174" transform="matrix(0.3166 -0.9486 0.9486 0.3166 119.7745 198.93)" fill="#FFFFFF" stroke="#000000" stroke-miterlimit="10" width="4.334" height="4.335"/>
<rect x="199.725" y="14.396" transform="matrix(0.581 0.8139 -0.8139 0.581 98.0752 -157.3816)" fill="#FFFFFF" stroke="#000000" stroke-miterlimit="10" width="4.333" height="4.335"/>
<rect x="201.461" y="14.782" transform="matrix(0.8773 0.48 -0.48 0.8773 33.1255 -95.6588)" fill="#FFFFFF" stroke="#000000" stroke-miterlimit="10" width="4.334" height="4.335"/>
<rect x="221.02" y="13.99" transform="matrix(0.7357 -0.6773 0.6773 0.7357 48.0369 155.4263)" fill="#FFFFFF" stroke="#000000" stroke-miterlimit="10" width="4.334" height="4.334"/>
<rect x="227.23" y="14.396" transform="matrix(0.745 -0.6671 0.6671 0.745 47.4542 157.2552)" fill="#FFFFFF" stroke="#000000" stroke-miterlimit="10" width="4.333" height="4.334"/>
<rect x="222.836" y="14.782" transform="matrix(0.7449 -0.6672 0.6672 0.7449 46.088 154.4373)" fill="#FFFFFF" stroke="#000000" stroke-miterlimit="10" width="4.333" height="4.334"/>
<rect x="224.75" y="14.782" transform="matrix(0.7449 -0.6672 0.6672 0.7449 46.5748 155.7124)" fill="#FFFFFF" stroke="#000000" stroke-miterlimit="10" width="4.333" height="4.335"/>
<rect x="228.956" y="13.989" transform="matrix(0.7449 -0.6672 0.6672 0.7449 48.1779 158.3182)" fill="#FFFFFF" stroke="#000000" stroke-miterlimit="10" width="4.333" height="4.334"/>
<rect x="233.351" y="14.782" transform="matrix(0.7449 -0.6672 0.6672 0.7449 48.7809 161.466)" fill="#FFFFFF" stroke="#000000" stroke-miterlimit="10" width="4.333" height="4.335"/>
<rect x="251.059" y="17.841" transform="matrix(0.9979 -0.0654 0.0654 0.9979 -0.7663 16.5917)" fill="#FFFFFF" stroke="#000000" stroke-miterlimit="10" width="4.333" height="4.335"/>
<rect x="251.059" y="19.743" transform="matrix(0.9991 -0.0419 0.0419 0.9991 -0.6959 10.6336)" fill="#FFFFFF" stroke="#000000" stroke-miterlimit="10" width="4.333" height="4.334"/>
<rect x="313.281" y="25.865" transform="matrix(0.7449 -0.6672 0.6672 0.7449 61.7652 217.6058)" fill="#FFFFFF" stroke="#000000" stroke-miterlimit="10" width="4.333" height="4.335"/>
<rect x="315.281" y="25.865" transform="matrix(0.7449 -0.6672 0.6672 0.7449 62.2754 218.9401)" fill="#FFFFFF" stroke="#000000" stroke-miterlimit="10" width="4.333" height="4.335"/>
<rect x="317.331" y="26.219" transform="matrix(0.745 -0.6671 0.6671 0.745 62.546 220.3768)" fill="#FFFFFF" stroke="#000000" stroke-miterlimit="10" width="4.333" height="4.335"/>
<rect x="319.604" y="26.128" transform="matrix(0.7449 -0.6672 0.6672 0.7449 63.2167 221.9108)" fill="#FFFFFF" stroke="#000000" stroke-miterlimit="10" width="4.333" height="4.335"/>
<rect x="321.33" y="26.219" transform="matrix(0.7449 -0.6672 0.6672 0.7449 63.5968 223.0855)" fill="#FFFFFF" stroke="#000000" stroke-miterlimit="10" width="4.333" height="4.334"/>
<rect x="324.39" y="25.865" transform="matrix(0.7449 -0.6672 0.6672 0.7449 64.6139 225.0371)" fill="#FFFFFF" stroke="#000000" stroke-miterlimit="10" width="4.333" height="4.335"/>
<rect x="326.391" y="26.506" transform="matrix(0.7449 -0.6672 0.6672 0.7449 64.6818 226.5161)" fill="#FFFFFF" stroke="#000000" stroke-miterlimit="10" width="4.333" height="4.335"/>
<rect x="336.939" y="27.173" transform="matrix(0.8432 -0.5376 0.5376 0.8432 37.39 186.887)" fill="#FFFFFF" stroke="#000000" stroke-miterlimit="10" width="4.334" height="4.335"/>
<rect x="339.131" y="27.942" transform="matrix(0.9209 -0.3897 0.3897 0.9209 15.2323 135.2984)" fill="#FFFFFF" stroke="#000000" stroke-miterlimit="10" width="3.851" height="4.335"/>
<rect x="341.131" y="27.942" transform="matrix(0.9209 -0.3897 0.3897 0.9209 15.3904 136.0778)" fill="#FFFFFF" stroke="#000000" stroke-miterlimit="10" width="3.851" height="4.335"/>
<rect x="343.509" y="29.188" transform="matrix(0.7449 -0.6672 0.6672 0.7449 67.259 238.6208)" fill="#FFFFFF" stroke="#000000" stroke-miterlimit="10" width="4.333" height="4.335"/>
<rect x="345.504" y="29.565" transform="matrix(0.7449 -0.6672 0.6672 0.7449 67.5317 240.0689)" fill="#FFFFFF" stroke="#000000" stroke-miterlimit="10" width="4.333" height="4.335"/>
<rect x="349.262" y="30.164" transform="matrix(0.9589 -0.2836 0.2836 0.9589 5.2612 101.0014)" fill="#FFFFFF" stroke="#000000" stroke-miterlimit="10" width="4.333" height="4.335"/>
<rect x="351.955" y="30.689" transform="matrix(0.8797 -0.4755 0.4755 0.8797 26.9749 172.3431)" fill="#FFFFFF" stroke="#000000" stroke-miterlimit="10" width="4.333" height="4.335"/>
<rect x="364.92" y="32.857" transform="matrix(0.7449 -0.6672 0.6672 0.7449 70.273 253.8415)" fill="#FFFFFF" stroke="#000000" stroke-miterlimit="10" width="4.333" height="4.335"/>
<rect x="366.838" y="33.625" transform="matrix(0.7449 -0.6672 0.6672 0.7449 70.2658 255.3391)" fill="#FFFFFF" stroke="#000000" stroke-miterlimit="10" width="4.333" height="4.335"/>
<rect x="369.06" y="33.625" transform="matrix(0.7449 -0.6672 0.6672 0.7449 70.8161 256.799)" fill="#FFFFFF" stroke="#000000" stroke-miterlimit="10" width="4.333" height="4.335"/>
<rect x="371.041" y="33.625" transform="matrix(0.7449 -0.6672 0.6672 0.7449 71.3215 258.121)" fill="#FFFFFF" stroke="#000000" stroke-miterlimit="10" width="4.333" height="4.335"/>
<rect x="375.18" y="34.292" transform="matrix(0.7449 -0.6672 0.6672 0.7449 71.9324 261.0526)" fill="#FFFFFF" stroke="#000000" stroke-miterlimit="10" width="4.333" height="4.335"/>
<rect x="379.947" y="35.249" transform="matrix(0.7449 -0.6672 0.6672 0.7449 72.5099 264.4772)" fill="#FFFFFF" stroke="#000000" stroke-miterlimit="10" width="4.333" height="4.335"/>
<rect x="381.673" y="35.249" transform="matrix(0.7449 -0.6672 0.6672 0.7449 72.9502 265.6288)" fill="#FFFFFF" stroke="#000000" stroke-miterlimit="10" width="4.333" height="4.335"/>
<rect x="384.066" y="36.085" transform="matrix(0.7449 -0.6672 0.6672 0.7449 73.003 267.4385)" fill="#FFFFFF" stroke="#000000" stroke-miterlimit="10" width="4.333" height="4.335"/>
<rect x="387.794" y="35.916" transform="matrix(0.7449 -0.6672 0.6672 0.7449 74.0667 269.8827)" fill="#FFFFFF" stroke="#000000" stroke-miterlimit="10" width="4.333" height="4.335"/>
<rect x="390.408" y="36.424" transform="matrix(0.7449 -0.6672 0.6672 0.7449 74.395 271.7559)" fill="#FFFFFF" stroke="#000000" stroke-miterlimit="10" width="4.333" height="4.335"/>
<rect x="392.203" y="36.685" transform="matrix(0.7449 -0.6672 0.6672 0.7449 74.6785 273.02)" fill="#FFFFFF" stroke="#000000" stroke-miterlimit="10" width="4.333" height="4.335"/>
<rect x="394.596" y="37.352" transform="matrix(0.7449 -0.6672 0.6672 0.7449 74.8438 274.7864)" fill="#FFFFFF" stroke="#000000" stroke-miterlimit="10" width="4.333" height="4.335"/>
<rect x="396.598" y="37.642" transform="matrix(0.7449 -0.6672 0.6672 0.7449 75.161 276.196)" fill="#FFFFFF" stroke="#000000" stroke-miterlimit="10" width="4.333" height="4.335"/>
<rect x="398.99" y="38.309" transform="matrix(0.7449 -0.6672 0.6672 0.7449 75.3264 277.962)" fill="#FFFFFF" stroke="#000000" stroke-miterlimit="10" width="4.333" height="4.335"/>
<rect x="401.384" y="38.309" transform="matrix(0.7449 -0.6672 0.6672 0.7449 75.9369 279.5593)" fill="#FFFFFF" stroke="#000000" stroke-miterlimit="10" width="4.333" height="4.335"/>
<rect x="403.385" y="38.309" transform="matrix(0.7449 -0.6672 0.6672 0.7449 76.4655 280.9192)" fill="#FFFFFF" stroke="#000000" stroke-miterlimit="10" width="4.333" height="4.335"/>
<rect x="409.494" y="39.146" transform="matrix(0.6381 0.77 -0.77 0.6381 180.8094 -302.0224)" fill="#FFFFFF" stroke="#000000" stroke-miterlimit="10" width="4.334" height="4.334"/>
<rect x="416.272" y="40.702" transform="matrix(0.7449 -0.6672 0.6672 0.7449 78.1386 290.1028)" fill="#FFFFFF" stroke="#000000" stroke-miterlimit="10" width="4.333" height="4.335"/>
<rect x="423.284" y="41.369" transform="matrix(0.745 -0.6671 0.6671 0.745 79.4608 294.9216)" fill="#FFFFFF" stroke="#000000" stroke-miterlimit="10" width="4.333" height="4.335"/>
<rect x="426.344" y="42.197" transform="matrix(0.745 -0.6671 0.6671 0.745 79.6888 297.1742)" fill="#FFFFFF" stroke="#000000" stroke-miterlimit="10" width="4.333" height="4.335"/>
<rect x="428.393" y="42.427" transform="matrix(0.7449 -0.6672 0.6672 0.7449 80.0791 298.6291)" fill="#FFFFFF" stroke="#000000" stroke-miterlimit="10" width="4.333" height="4.335"/>
<rect x="431.453" y="42.596" transform="matrix(0.7449 -0.6672 0.6672 0.7449 80.7471 300.7141)" fill="#FFFFFF" stroke="#000000" stroke-miterlimit="10" width="4.333" height="4.335"/>
<rect x="435.505" y="43.76" transform="matrix(0.8975 -0.4411 0.4411 0.8975 24.6163 197.7541)" fill="#FFFFFF" stroke="#000000" stroke-miterlimit="10" width="4.333" height="4.335"/>
<rect x="438.406" y="44.428" transform="matrix(0.7449 -0.6672 0.6672 0.7449 81.2983 305.8203)" fill="#FFFFFF" stroke="#000000" stroke-miterlimit="10" width="4.333" height="4.335"/>
<rect x="439.817" y="44.428" transform="matrix(0.9974 -0.072 0.072 0.9974 -2.2079 31.9472)" fill="#FFFFFF" stroke="#000000" stroke-miterlimit="10" width="4.333" height="4.335"/>
<rect x="442.134" y="44.428" transform="matrix(0.7449 -0.6672 0.6672 0.7449 82.2688 308.3343)" fill="#FFFFFF" stroke="#000000" stroke-miterlimit="10" width="4.333" height="4.335"/>
<rect x="448.254" y="45.256" transform="matrix(0.7449 -0.6672 0.6672 0.7449 83.2578 312.6016)" fill="#FFFFFF" stroke="#000000" stroke-miterlimit="10" width="4.333" height="4.335"/>
<rect x="450.201" y="45.764" transform="matrix(0.7449 -0.6672 0.6672 0.7449 83.4159 314.0302)" fill="#FFFFFF" stroke="#000000" stroke-miterlimit="10" width="4.333" height="4.335"/>
<rect x="451.927" y="45.933" transform="matrix(0.9377 -0.3475 0.3475 0.9377 11.5876 160.8081)" fill="#FFFFFF" stroke="#000000" stroke-miterlimit="10" width="4.333" height="4.335"/>
<rect x="455.523" y="46.079" transform="matrix(0.999 0.045 -0.045 0.999 2.6318 -20.528)" fill="#FFFFFF" stroke="#000000" stroke-miterlimit="10" width="4.333" height="4.335"/>
<rect x="458.379" y="46.661" transform="matrix(0.402 -0.9156 0.9156 0.402 230.6809 450.8847)" fill="#FFFFFF" stroke="#000000" stroke-miterlimit="10" width="4.333" height="4.335"/>
<rect x="461.236" y="46.661" transform="matrix(0.9415 -0.3369 0.3369 0.9415 10.6451 158.9954)" fill="#FFFFFF" stroke="#000000" stroke-miterlimit="10" width="4.333" height="4.335"/>
<rect x="463.062" y="46.745" transform="matrix(0.7449 -0.6672 0.6672 0.7449 86.0624 322.8893)" fill="#FFFFFF" stroke="#000000" stroke-miterlimit="10" width="4.333" height="4.335"/>
<rect x="470.393" y="47.488" transform="matrix(0.7449 -0.6672 0.6672 0.7449 87.4164 327.9413)" fill="#FFFFFF" stroke="#000000" stroke-miterlimit="10" width="4.333" height="4.335"/>
<rect x="474.12" y="47.649" transform="matrix(0.745 -0.6671 0.6671 0.745 88.2386 330.44)" fill="#FFFFFF" stroke="#000000" stroke-miterlimit="10" width="4.334" height="4.335"/>
<rect x="475.507" y="48.341" transform="matrix(0.7449 -0.6672 0.6672 0.7449 88.1728 331.5995)" fill="#FFFFFF" stroke="#000000" stroke-miterlimit="10" width="4.333" height="4.335"/>
<rect x="480.907" y="48.764" transform="matrix(0.745 -0.6671 0.6671 0.745 89.2256 335.2521)" fill="#FFFFFF" stroke="#000000" stroke-miterlimit="10" width="4.334" height="4.335"/>
<rect x="482.837" y="48.824" transform="matrix(0.745 -0.6671 0.6671 0.745 89.6783 336.5545)" fill="#FFFFFF" stroke="#000000" stroke-miterlimit="10" width="4.334" height="4.335"/>
<rect x="486.753" y="48.718" transform="matrix(0.9375 -0.3481 0.3481 0.9375 12.8598 173.3548)" fill="#FFFFFF" stroke="#000000" stroke-miterlimit="10" width="4.333" height="4.334"/>
<rect x="489.304" y="50.547" transform="matrix(0.992 -0.1262 0.1262 0.992 -2.723 62.458)" fill="#FFFFFF" stroke="#000000" stroke-miterlimit="10" width="4.333" height="4.335"/>
<rect x="491.727" y="51.883" transform="matrix(0.7449 -0.6672 0.6672 0.7449 89.9478 343.3256)" fill="#FFFFFF" stroke="#000000" stroke-miterlimit="10" width="4.333" height="4.335"/>
<rect x="516.84" y="56.03" transform="matrix(0.745 -0.667 0.667 0.745 93.5172 361.0404)" fill="#FFFFFF" stroke="#000000" stroke-miterlimit="10" width="4.333" height="4.335"/>
<rect x="519.063" y="56.03" transform="matrix(0.745 -0.667 0.667 0.745 94.084 362.523)" fill="#FFFFFF" stroke="#000000" stroke-miterlimit="10" width="4.333" height="4.335"/>
<rect x="525.753" y="57.238" transform="matrix(0.8644 -0.5028 0.5028 0.8644 41.7238 273.5124)" fill="#FFFFFF" stroke="#000000" stroke-miterlimit="10" width="4.334" height="4.335"/>
<rect x="527.728" y="57.756" transform="matrix(0.7449 -0.6672 0.6672 0.7449 95.1887 368.808)" fill="#FFFFFF" stroke="#000000" stroke-miterlimit="10" width="4.333" height="4.335"/>
<rect x="536.394" y="59.09" transform="matrix(0.745 -0.667 0.667 0.745 96.4622 374.8637)" fill="#FFFFFF" stroke="#000000" stroke-miterlimit="10" width="4.333" height="4.335"/>
<rect x="538.172" y="59.09" transform="matrix(0.7449 -0.6672 0.6672 0.7449 96.9629 376.1163)" fill="#FFFFFF" stroke="#000000" stroke-miterlimit="10" width="4.333" height="4.335"/>
<rect x="545.063" y="60.201" transform="matrix(0.7449 -0.6672 0.6672 0.7449 98.0063 381.0352)" fill="#FFFFFF" stroke="#000000" stroke-miterlimit="10" width="4.333" height="4.335"/>
<rect x="551.184" y="60.816" transform="matrix(0.745 -0.667 0.667 0.745 99.0823 385.1693)" fill="#FFFFFF" stroke="#000000" stroke-miterlimit="10" width="4.333" height="4.335"/>
<path fill="#FFFFFF" stroke="#000000" stroke-miterlimit="10" d="M45.486,370.278c0.182-1.718,1.333-39.501,1.333-39.501"/>
<line fill="#FFFFFF" stroke="#000000" stroke-miterlimit="10" x1="47.123" y1="324.656" x2="49.213" y2="271.398"/>
<line fill="#FFFFFF" stroke="#000000" stroke-miterlimit="10" x1="49.517" y1="265.277" x2="49.213" y2="260.731"/>
<polyline fill="none" stroke="#000000" stroke-miterlimit="10" points="49.517,254.61 50.849,86.729 55.638,151.274 57.131,145.774 
	"/>
<line fill="none" stroke="#000000" stroke-miterlimit="10" x1="57.131" y1="142.467" x2="61.926" y2="111.371"/>
<line fill="none" stroke="#000000" stroke-miterlimit="10" x1="64.742" y1="106.738" x2="66.087" y2="92.851"/>
<path fill="none" stroke="#000000" stroke-miterlimit="10" d="M66.391,86.729c0,0,1.943-26.718,1.721-25.667"/>
<line fill="none" stroke="#000000" stroke-miterlimit="10" x1="69.085" y1="60.181" x2="70.309" y2="64.298"/>
<line fill="none" stroke="#000000" stroke-miterlimit="10" x1="73.564" y1="64.298" x2="76.848" y2="48.23"/>
<line fill="none" stroke="#000000" stroke-miterlimit="10" x1="78.873" y1="48.23" x2="82.14" y2="52.618"/>
<line fill="none" stroke="#000000" stroke-miterlimit="10" x1="83.625" y1="52.618" x2="85.864" y2="46.085"/>
<line fill="none" stroke="#000000" stroke-miterlimit="10" x1="88.104" y1="41.826" x2="90.141" y2="41.676"/>
<line fill="none" stroke="#000000" stroke-miterlimit="10" x1="93.224" y1="38.677" x2="92.334" y2="37.315"/>
<line fill="none" stroke="#000000" stroke-miterlimit="10" x1="130.458" y1="22.313" x2="137.406" y2="21.202"/>
<line fill="none" stroke="#000000" stroke-miterlimit="10" x1="141.83" y1="18.643" x2="143.264" y2="17.056"/>
<line fill="none" stroke="#000000" stroke-miterlimit="10" x1="157.136" y1="13.622" x2="158.41" y2="13.889"/>
<line fill="none" stroke="#000000" stroke-miterlimit="10" x1="255.3" y1="19.655" x2="258.832" y2="20.179"/>
<line fill="none" stroke="#000000" stroke-miterlimit="10" x1="309.554" y1="26.431" x2="313.965" y2="26.451"/>
<line fill="none" stroke="#000000" stroke-miterlimit="10" x1="357.059" y1="33.732" x2="364.027" y2="34.855"/>
<line fill="none" stroke="#000000" stroke-miterlimit="10" x1="468.289" y1="49.082" x2="469.5" y2="49.487"/>
<line fill="none" stroke="#000000" stroke-miterlimit="10" x1="496.953" y1="54.219" x2="515.946" y2="58.029"/>
<line fill="none" stroke="#000000" stroke-miterlimit="10" x1="523.13" y1="59.406" x2="524.957" y2="58.622"/>
<line fill="none" stroke="#000000" stroke-miterlimit="10" x1="532.954" y1="60.092" x2="535.5" y2="61.088"/>
<line fill="none" stroke="#000000" stroke-miterlimit="10" x1="331.618" y1="28.842" x2="336.113" y2="28.677"/>
<line fill="none" stroke="#000000" stroke-miterlimit="10" x1="174.026" y1="14.128" x2="175.158" y2="13.398"/>
<rect x="42.273" y="2.739" fill="none" stroke="#000000" stroke-miterlimit="10" width="576.78" height="367.539"/>
<text transform="matrix(1 0 0 1 30 10.1616)" font-family="'MyriadPro-Regular'" font-size="12">9</text>
<text transform="matrix(1 0 0 1 30 48.2466)" font-family="'MyriadPro-Regular'" font-size="12">8</text>
<text transform="matrix(1 0 0 1 30 89.7905)" font-family="'MyriadPro-Regular'" font-size="12">7</text>
<text transform="matrix(1 0 0 1 30 130.8335)" font-family="'MyriadPro-Regular'" font-size="12">6</text>
<text transform="matrix(1 0 0 1 30 170.6694)" font-family="'MyriadPro-Regular'" font-size="12">5</text>
<text transform="matrix(1 0 0 1 30 212.8335)" font-family="'MyriadPro-Regular'" font-size="12">4</text>
<text transform="matrix(1 0 0 1 30 254.6099)" font-family="'MyriadPro-Regular'" font-size="12">3</text>
<text transform="matrix(1 0 0 1 30 293.8335)" font-family="'MyriadPro-Regular'" font-size="12">2</text>
<text transform="matrix(1 0 0 1 30 334.8335)" font-family="'MyriadPro-Regular'" font-size="12">1</text>
<text transform="matrix(1 0 0 1 30 376.3999)" font-family="'MyriadPro-Regular'" font-size="12">0</text>
<text transform="matrix(1 0 0 1 42.2734 386.8335)" font-family="'MyriadPro-Regular'" font-size="12">0</text>
<text transform="matrix(1 0 0 1 103.0195 389.8335)" font-family="'MyriadPro-Regular'" font-size="12">30</text>
<text transform="matrix(1 0 0 1 166.0659 389.8335)" font-family="'MyriadPro-Regular'" font-size="12">60</text>
<text transform="matrix(1 0 0 1 231.123 389.8335)" font-family="'MyriadPro-Regular'" font-size="12">90</text>
<text transform="matrix(1 0 0 1 292.7256 389.8335)" font-family="'MyriadPro-Regular'" font-size="12">120</text>
<text transform="matrix(1 0 0 1 357.0586 389.8335)" font-family="'MyriadPro-Regular'" font-size="12">150</text>
<text transform="matrix(1 0 0 1 421.4995 389.8335)" font-family="'MyriadPro-Regular'" font-size="12">180</text>
<text transform="matrix(1 0 0 1 485.0039 389.8335)" font-family="'MyriadPro-Regular'" font-size="12">210</text>
<text transform="matrix(1 0 0 1 549.2324 389.8335)" font-family="'MyriadPro-Regular'" font-size="12">240</text>
<text transform="matrix(1 0 0 1 608.5 389.8335)" font-family="'MyriadPro-Regular'" font-size="12">270</text>
<text transform="matrix(1 0 0 1 275.5898 415.3335)" font-family="'MyriadPro-Regular'" font-size="12">Número de massa (A=Z+N)</text>
<text transform="matrix(0 -1 1 0 15 268.3374)" font-family="'MyriadPro-Regular'" font-size="12">Energia média por núcleon (MeV)</text>
<line fill="none" stroke="#000000" stroke-miterlimit="10" x1="108.667" y1="361.278" x2="108.667" y2="370.278"/>
<line fill="none" stroke="#000000" stroke-miterlimit="10" x1="172.25" y1="361.278" x2="172.25" y2="370.278"/>
<line fill="none" stroke="#000000" stroke-miterlimit="10" x1="237" y1="361.278" x2="237" y2="370.278"/>
<line fill="none" stroke="#000000" stroke-miterlimit="10" x1="301.5" y1="361.278" x2="301.5" y2="370.278"/>
<line fill="none" stroke="#000000" stroke-miterlimit="10" x1="365.5" y1="361.278" x2="365.5" y2="370.278"/>
<line fill="none" stroke="#000000" stroke-miterlimit="10" x1="430" y1="361.278" x2="430" y2="370.278"/>
<line fill="none" stroke="#000000" stroke-miterlimit="10" x1="493.25" y1="361.278" x2="493.25" y2="370.278"/>
<line fill="none" stroke="#000000" stroke-miterlimit="10" x1="558" y1="361.278" x2="558" y2="370.278"/>
<line fill="none" stroke="#000000" stroke-miterlimit="10" x1="42.319" y1="331.833" x2="51.319" y2="331.833"/>
<line fill="none" stroke="#000000" stroke-miterlimit="10" x1="42.319" y1="290.833" x2="51.319" y2="290.833"/>
<line fill="none" stroke="#000000" stroke-miterlimit="10" x1="42.623" y1="249.583" x2="51.623" y2="249.583"/>
<line fill="none" stroke="#000000" stroke-miterlimit="10" x1="42.623" y1="208.333" x2="51.623" y2="208.333"/>
<line fill="none" stroke="#000000" stroke-miterlimit="10" x1="42.319" y1="167.083" x2="51.319" y2="167.083"/>
<line fill="none" stroke="#000000" stroke-miterlimit="10" x1="41.805" y1="126.919" x2="50.805" y2="126.919"/>
<line fill="none" stroke="#000000" stroke-miterlimit="10" x1="42.319" y1="85.333" x2="51.319" y2="85.333"/>
<line fill="none" stroke="#000000" stroke-miterlimit="10" x1="42.623" y1="43.917" x2="51.623" y2="43.917"/>
<text transform="matrix(1 0 0 1 52.3618 333.8628)" font-family="'MyriadPro-Regular'" font-size="12">H</text>
<text transform="matrix(1 0 0 1 60.6108 327.6909)" font-family="'MyriadPro-Regular'" font-size="7.6139">2</text>
<text transform="matrix(1 0 0 1 49.1992 367.4507)" font-family="'MyriadPro-Regular'" font-size="12">H</text>
<text transform="matrix(1 0 0 1 57.4482 361.2788)" font-family="'MyriadPro-Regular'" font-size="7.6139">1</text>
<text transform="matrix(1 0 0 1 54.4585 273.4839)" font-family="'MyriadPro-Regular'" font-size="12">He</text>
<text transform="matrix(1 0 0 1 68.542 267.312)" font-family="'MyriadPro-Regular'" font-size="7.6139">3</text>
<text transform="matrix(1 0 0 1 56.4863 260.7573)" font-family="'MyriadPro-Regular'" font-size="12">H</text>
<text transform="matrix(1 0 0 1 64.7354 254.5854)" font-family="'MyriadPro-Regular'" font-size="7.6139">3</text>
<text transform="matrix(1 0 0 1 60.2114 165.5698)" font-family="'MyriadPro-Regular'" font-size="12">Li</text>
<text transform="matrix(1 0 0 1 69.2598 159.3979)" font-family="'MyriadPro-Regular'" font-size="7.6139">6</text>
<text transform="matrix(1 0 0 1 62.6357 146.5542)" font-family="'MyriadPro-Regular'" font-size="12">Li</text>
<text transform="matrix(1 0 0 1 71.8857 140.3823)" font-family="'MyriadPro-Regular'" font-size="7.6139">7</text>
<text transform="matrix(1 0 0 1 44.4966 76.9653)" font-family="'MyriadPro-Regular'" font-size="12">He</text>
<text transform="matrix(1 0 0 1 58.7495 70.7935)" font-family="'MyriadPro-Regular'" font-size="7.6139">4</text>
<text transform="matrix(1 0 0 1 53.3237 56.7573)" font-family="'MyriadPro-Regular'" font-size="12">C</text>
<text transform="matrix(1 0 0 1 61.5728 50.5854)" font-family="'MyriadPro-Regular'" font-size="7.6139">12</text>
<text transform="matrix(1 0 0 1 61.29 34.1772)" font-family="'MyriadPro-Regular'" font-size="12">O</text>
<text transform="matrix(1 0 0 1 69.5391 28.0054)" font-family="'MyriadPro-Regular'" font-size="7.6139">16</text>
<text transform="matrix(1 0 0 1 171.5005 39.8354)" font-family="'MyriadPro-Regular'" font-size="12">Fe</text>
<text transform="matrix(1 0 0 1 182.7515 33.6636)" font-family="'MyriadPro-Regular'" font-size="7.6139">56</text>
<line fill="none" stroke="#000000" stroke-miterlimit="10" x1="70.16" y1="35.792" x2="77.639" y2="46.158"/>
<line fill="none" stroke="#000000" stroke-miterlimit="10" x1="61.5" y1="53.568" x2="66.391" y2="56.264"/>
<line fill="none" stroke="#000000" stroke-miterlimit="10" x1="163.041" y1="16.291" x2="170.304" y2="31.733"/>
<text transform="matrix(1 0 0 1 570.8613 35.4175)" font-family="'MyriadPro-Regular'" font-size="12">U</text>
<text transform="matrix(1 0 0 1 579.1113 29.2456)" font-family="'MyriadPro-Regular'" font-size="7.6139">235</text>
<text transform="matrix(1 0 0 1 579.1113 57.0776)" font-family="'MyriadPro-Regular'" font-size="12">U</text>
<text transform="matrix(1 0 0 1 587.3613 50.9058)" font-family="'MyriadPro-Regular'" font-size="7.6139">238</text>
</svg>
