<?xml version="1.0" encoding="utf-8"?>
<!-- Generator: Adobe Illustrator 16.0.0, SVG Export Plug-In . SVG Version: 6.00 Build 0)  -->
<!DOCTYPE svg PUBLIC "-//W3C//DTD SVG 1.1//EN" "http://www.w3.org/Graphics/SVG/1.1/DTD/svg11.dtd">
<svg version="1.1" id="Layer_1" xmlns="http://www.w3.org/2000/svg" xmlns:xlink="http://www.w3.org/1999/xlink" x="0px" y="0px"
	 width="756.262px" height="530.771px" viewBox="0 0 756.262 530.771" enable-background="new 0 0 756.262 530.771"
	 xml:space="preserve">
<polygon fill-rule="evenodd" clip-rule="evenodd" fill="#99CCFF" points="404.658,493.89 287.713,493.89 287.713,313.804 
	521.576,313.804 521.576,493.89 404.658,493.89 "/>
<g>
	<defs>
		<rect id="SVGID_1_" width="756.262" height="510.452"/>
	</defs>
	<clipPath id="SVGID_2_">
		<use xlink:href="#SVGID_1_"  overflow="visible"/>
	</clipPath>
	
		<polygon clip-path="url(#SVGID_2_)" fill="none" stroke="#010101" stroke-width="5.754" stroke-linejoin="round" stroke-miterlimit="10" points="
		404.658,493.89 287.713,493.89 287.713,313.804 521.576,313.804 521.576,493.89 404.658,493.89 	"/>
</g>
<image overflow="visible" width="438" height="460" xlink:href="D4BF68B6E517F95A.jpg"  transform="matrix(0.1874 0 0 0.188 364.7422 367.8291)">
</image>
<polygon fill-rule="evenodd" clip-rule="evenodd" fill="#FFFFFF" points="402.592,367.914 389.984,367.914 389.984,308.132 
	415.17,308.132 415.17,367.914 402.592,367.914 "/>
<polygon fill="none" stroke="#FFFFFF" stroke-width="0" stroke-linejoin="round" stroke-miterlimit="10" points="402.592,367.914 
	389.984,367.914 389.984,308.132 415.17,308.132 415.17,367.914 402.592,367.914 "/>
<polygon fill-rule="evenodd" clip-rule="evenodd" fill="#010101" points="402.705,341.312 402.705,68.716 404.148,68.716 
	405.594,68.716 405.594,341.312 404.148,341.312 402.705,341.312 "/>
<polygon fill-rule="evenodd" clip-rule="evenodd" fill="#010101" points="404.148,53.175 397.689,72.63 410.637,72.63 
	404.148,53.175 "/>
<path fill-rule="evenodd" clip-rule="evenodd" fill="#010101" d="M403.838,340.547c-8.67-35.875-26.461-83.293-50.343-127.308
	l1.275-0.709l1.246-0.681c24.024,44.27,41.929,91.971,50.654,128.017l-1.416,0.341L403.838,340.547L403.838,340.547z"/>
<polygon fill-rule="evenodd" clip-rule="evenodd" fill="#010101" points="353.495,213.239 354.77,212.53 353.495,213.239 
	353.495,213.239 "/>
<path fill-rule="evenodd" clip-rule="evenodd" fill="#010101" d="M353.495,213.239c-11.927-22.007-25.384-43.164-40.002-61.569
	l1.133-0.908l1.133-0.907c14.704,18.547,28.245,39.846,40.257,61.995l-1.246,0.681L353.495,213.239L353.495,213.239z"/>
<polygon fill-rule="evenodd" clip-rule="evenodd" fill="#010101" points="315.759,149.854 314.626,150.762 315.759,149.854 
	315.759,149.854 "/>
<path fill-rule="evenodd" clip-rule="evenodd" fill="#010101" d="M313.493,151.669c-14.534-18.377-30.2-34.032-46.66-45.092
	l0.822-1.191l0.793-1.219c16.658,11.23,32.58,27.083,47.311,45.688l-1.133,0.907L313.493,151.669L313.493,151.669z"/>
<polygon fill-rule="evenodd" clip-rule="evenodd" fill="#010101" points="254.566,97.7 267.797,113.327 274.511,102.266 
	254.566,97.7 "/>
<path fill-rule="evenodd" clip-rule="evenodd" fill="#010101" d="M403.695,337.371c1.984-26.631,6.912-49.574,14.137-69.029
	l1.359,0.512l1.361,0.51c-7.141,19.229-12.012,41.916-13.967,68.234l-1.445-0.113L403.695,337.371L403.695,337.371z"/>
<path fill-rule="evenodd" clip-rule="evenodd" fill="#010101" d="M417.832,268.342c7.252-19.511,16.828-35.506,28.047-48.155
	l1.105,0.964l1.076,0.964c-11.049,12.421-20.398,28.104-27.508,47.248l-1.361-0.51L417.832,268.342L417.832,268.342z"/>
<path fill-rule="evenodd" clip-rule="evenodd" fill="#010101" d="M445.879,220.187c5.639-6.353,11.701-11.854,18.104-16.534
	l0.877,1.163l0.852,1.163c-6.262,4.566-12.154,9.955-17.65,16.137l-1.076-0.964L445.879,220.187L445.879,220.187z"/>
<path fill-rule="evenodd" clip-rule="evenodd" fill="#010101" d="M463.982,203.653c6.43-4.708,13.174-8.593,20.199-11.685
	l0.566,1.333l0.596,1.333c-6.828,2.978-13.4,6.778-19.633,11.344l-0.852-1.163L463.982,203.653L463.982,203.653z"/>
<path fill-rule="evenodd" clip-rule="evenodd" fill="#010101" d="M484.182,191.969c14.023-6.154,29.123-9.16,44.648-9.16v1.446
	v1.446c-15.129,0-29.832,2.921-43.486,8.934l-0.596-1.333L484.182,191.969L484.182,191.969z"/>
<path fill-rule="evenodd" clip-rule="evenodd" fill="#010101" d="M528.83,182.809c4.561,0,9.178,0.255,13.797,0.766l-0.143,1.446
	l-0.17,1.447c-4.533-0.511-9.037-0.766-13.484-0.766v-1.446V182.809L528.83,182.809z"/>
<polygon fill-rule="evenodd" clip-rule="evenodd" fill="#010101" points="557.557,187.743 539.424,178.214 537.357,191.005 
	557.557,187.743 "/>
<path fill-rule="evenodd" clip-rule="evenodd" fill="#800101" d="M327.658,123.763c-0.737-1.078-1.53-2.581-2.437-4.509
	c-3.003,3.205-5.609,4.821-7.848,4.821c-1.189,0-2.068-0.539-2.634-1.617c-0.454-0.879-0.68-1.928-0.68-3.205
	c0-2.439,0.708-4.679,2.097-6.693c1.558-2.269,3.484-3.403,5.808-3.403c1.161,0,2.181,0.794,3.003,2.382
	c0.34,0.681,0.821,1.985,1.445,3.942c1.218-2.581,1.841-4.566,1.841-5.956h2.776c-0.17,1.815-1.473,4.311-3.91,7.516
	c1.303,3.176,2.55,5.417,3.683,6.721H327.658L327.658,123.763z M324.712,118.205c-0.68-2.354-1.19-3.857-1.501-4.538
	c-0.907-2.127-1.813-3.205-2.748-3.205c-1.19,0-2.153,1.163-2.861,3.46c-0.51,1.73-0.765,3.403-0.765,5.02
	c0,2.382,0.68,3.602,2.011,3.602c1.133,0,2.267-0.482,3.372-1.475C322.87,120.502,323.692,119.538,324.712,118.205L324.712,118.205z
	"/>
<path fill-rule="evenodd" clip-rule="evenodd" fill="#800101" d="M533.504,168.146l3.684-18.406c1.047-5.36,3.598-8.054,7.619-8.054
	c2.607,0,3.883,1.191,3.883,3.517c0,2.553-1.645,4.509-4.959,5.899c2.891,0.737,4.363,2.496,4.363,5.275
	c0,2.184-0.822,3.886-2.408,5.133c-1.473,1.163-3.287,1.73-5.496,1.73c-0.879,0-1.869-0.199-3.002-0.596l-1.105,5.502H533.504
	L533.504,168.146z M537.611,160.546c1.02,1.191,2.238,1.787,3.74,1.787c1.303,0,2.352-0.539,3.145-1.673
	c0.68-1.021,1.02-2.212,1.02-3.602c0-1.531-0.482-2.723-1.473-3.573c-0.906-0.794-2.154-1.191-3.711-1.191l0.227-1.305
	c1.67,0,3.002-0.482,4.021-1.446c0.992-0.964,1.502-2.269,1.502-3.914c0-1.9-0.85-2.865-2.549-2.865
	c-1.135,0-2.012,0.737-2.635,2.269c-0.199,0.51-0.51,1.787-0.906,3.772L537.611,160.546L537.611,160.546z"/>
<path fill-rule="evenodd" clip-rule="evenodd" fill="#800101" d="M422.053,93.078c-0.17-2.042-0.453-3.942-0.82-5.729
	c-0.596-2.779-1.275-4.452-2.012-4.991c-0.736-0.567-1.869-0.822-3.314-0.794l2.068-1.9c2.549,0,4.361,1.333,5.41,4.027
	c0.539,1.446,0.963,3.857,1.275,7.317c3.854-4.368,5.779-7.629,5.779-9.756c0-0.567-0.143-1.106-0.453-1.588h3.285
	c0.029,0.255,0.057,0.482,0.057,0.681c0,1.106-1.189,3.148-3.512,6.069l-4.986,5.729c0.057,0.624,0.084,1.248,0.084,1.872
	c0,1.928-0.453,3.602-1.387,4.991c-1.049,1.645-2.494,2.439-4.307,2.439c-0.709,0-1.359-0.199-1.926-0.652
	c-0.568-0.425-0.852-0.993-0.852-1.673C416.443,97.332,418.314,95.318,422.053,93.078L422.053,93.078z M422.279,94.07
	c-3.059,1.843-4.588,3.403-4.588,4.623c0,0.908,0.453,1.361,1.33,1.361c1.078,0,1.898-0.567,2.494-1.73
	c0.51-0.936,0.793-1.985,0.793-3.148C422.309,94.751,422.279,94.382,422.279,94.07L422.279,94.07z"/>
<path fill="none" stroke="#010101" stroke-width="4.3084" stroke-linejoin="round" stroke-miterlimit="10" d="M110.508,54.026
	v396.189 M705.439,54.026v396.189"/>
<polygon fill-rule="evenodd" clip-rule="evenodd" fill="#010101" points="733.74,75.239 733.74,79.862 732.182,79.862 
	732.182,75.239 727.621,75.239 727.621,73.679 732.182,73.679 732.182,69.085 733.74,69.085 733.74,73.679 738.301,73.679 
	738.301,75.239 733.74,75.239 "/>
<polygon fill-rule="evenodd" clip-rule="evenodd" fill="#010101" points="733.768,131.987 733.768,136.61 732.211,136.61 
	732.211,131.987 727.648,131.987 727.648,130.428 732.211,130.428 732.211,125.833 733.768,125.833 733.768,130.428 738.33,130.428 
	738.33,131.987 733.768,131.987 "/>
<polygon fill-rule="evenodd" clip-rule="evenodd" fill="#010101" points="733.797,188.736 733.797,193.358 732.238,193.358 
	732.238,188.736 727.678,188.736 727.678,187.176 732.238,187.176 732.238,182.582 733.797,182.582 733.797,187.176 
	738.357,187.176 738.357,188.736 733.797,188.736 "/>
<polygon fill-rule="evenodd" clip-rule="evenodd" fill="#010101" points="733.768,245.428 733.768,250.05 732.211,250.05 
	732.211,245.428 727.648,245.428 727.648,243.868 732.211,243.868 732.211,239.273 733.768,239.273 733.768,243.868 738.33,243.868 
	738.33,245.428 733.768,245.428 "/>
<polygon fill-rule="evenodd" clip-rule="evenodd" fill="#010101" points="733.797,302.176 733.797,306.799 732.238,306.799 
	732.238,302.176 727.678,302.176 727.678,300.616 732.238,300.616 732.238,296.021 733.797,296.021 733.797,300.616 
	738.357,300.616 738.357,302.176 733.797,302.176 "/>
<polygon fill-rule="evenodd" clip-rule="evenodd" fill="#010101" points="733.824,358.924 733.824,363.547 732.268,363.547 
	732.268,358.924 727.705,358.924 727.705,357.364 732.268,357.364 732.268,352.771 733.824,352.771 733.824,357.364 
	738.387,357.364 738.387,358.924 733.824,358.924 "/>
<polygon fill-rule="evenodd" clip-rule="evenodd" fill="#010101" points="733.854,415.673 733.854,420.295 732.295,420.295 
	732.295,415.673 727.734,415.673 727.734,414.112 732.295,414.112 732.295,409.519 733.854,409.519 733.854,414.112 
	738.414,414.112 738.414,415.673 733.854,415.673 "/>
<polygon fill-rule="evenodd" clip-rule="evenodd" fill="#010101" points="75.946,76.827 75.946,75.097 81.329,75.097 81.329,76.827 
	75.946,76.827 "/>
<polygon fill-rule="evenodd" clip-rule="evenodd" fill="#010101" points="75.974,133.576 75.974,131.846 81.357,131.846 
	81.357,133.576 75.974,133.576 "/>
<polygon fill-rule="evenodd" clip-rule="evenodd" fill="#010101" points="76.002,190.324 76.002,188.594 81.385,188.594 
	81.385,190.324 76.002,190.324 "/>
<polygon fill-rule="evenodd" clip-rule="evenodd" fill="#010101" points="75.974,247.016 75.974,245.286 81.357,245.286 
	81.357,247.016 75.974,247.016 "/>
<polygon fill-rule="evenodd" clip-rule="evenodd" fill="#010101" points="76.002,303.764 76.002,302.034 81.385,302.034 
	81.385,303.764 76.002,303.764 "/>
<polygon fill-rule="evenodd" clip-rule="evenodd" fill="#010101" points="76.031,360.513 76.031,358.782 81.414,358.782 
	81.414,360.513 76.031,360.513 "/>
<polygon fill-rule="evenodd" clip-rule="evenodd" fill="#010101" points="76.059,417.261 76.059,415.531 81.442,415.531 
	81.442,417.261 76.059,417.261 "/>
<g>
	<g>
		<polygon fill-rule="evenodd" clip-rule="evenodd" fill="#010101" points="309.916,13.612 325.177,13.612 325.177,14.414 
			325.177,15.249 309.916,15.249 309.916,14.414 309.916,13.612 		"/>
		<polygon fill-rule="evenodd" clip-rule="evenodd" fill="#010101" points="332.934,14.414 323.255,11.557 323.255,17.271 
			332.934,14.414 		"/>
	</g>
	<text transform="matrix(1 0 0 1 113.0669 37.1279)" font-family="'MyriadPro-Regular'" font-size="27.6854">Campo Elétrico - E</text>
</g>
<g>
	<text transform="matrix(1 0 0 1 291.2964 523.8506)" font-family="'MyriadPro-Regular'" font-size="27.6854">Amostra Radioativa</text>
</g>
<g>
	<text transform="matrix(1 0 0 1 528.8301 441.8887)"><tspan x="0" y="0" font-family="'MyriadPro-Regular'" font-size="27.6854">Bloco de </tspan><tspan x="0" y="33.223" font-family="'MyriadPro-Regular'" font-size="27.6854">Chumbo</tspan></text>
</g>
</svg>
