<?xml version="1.0" encoding="utf-8"?>
<!-- Generator: Adobe Illustrator 16.0.0, SVG Export Plug-In . SVG Version: 6.00 Build 0)  -->
<!DOCTYPE svg PUBLIC "-//W3C//DTD SVG 1.1//EN" "http://www.w3.org/Graphics/SVG/1.1/DTD/svg11.dtd">
<svg version="1.1" id="Layer_1" xmlns="http://www.w3.org/2000/svg" xmlns:xlink="http://www.w3.org/1999/xlink" x="0px" y="0px"
	 width="133.563px" height="63.987px" viewBox="0 0 133.563 63.987" enable-background="new 0 0 133.563 63.987"
	 xml:space="preserve">
<g>
	<circle fill="#F3797C" stroke="#000000" stroke-width="0.25" cx="119.21" cy="17.708" r="6.917"/>
	<text transform="matrix(1 0 0 1 116.3345 20.228)" font-family="'MyriadPro-Regular'" font-size="10">+</text>
</g>
<g>
	<circle fill="#F5F4C0" stroke="#000000" stroke-width="0.25" cx="110.667" cy="14.084" r="7"/>
	<text transform="matrix(1 0 0 1 107.7915 16.7095)" font-family="'MyriadPro-Regular'" font-size="8">N</text>
</g>
<g>
	<circle fill="#F5F4C0" stroke="#000000" stroke-width="0.25" cx="116.334" cy="26.583" r="7"/>
	<text transform="matrix(1 0 0 1 113.4595 29.2085)" font-family="'MyriadPro-Regular'" font-size="8">N</text>
</g>
<g>
	<circle fill="#F3797C" stroke="#000000" stroke-width="0.25" cx="28.042" cy="7.042" r="6.917"/>
	<text transform="matrix(1 0 0 1 25.1665 9.562)" font-family="'MyriadPro-Regular'" font-size="10">+</text>
</g>
<g>
	<circle fill="#F3797C" stroke="#000000" stroke-width="0.25" cx="108.208" cy="22.541" r="6.917"/>
	<text transform="matrix(1 0 0 1 105.3335 25.062)" font-family="'MyriadPro-Regular'" font-size="10">+</text>
</g>
<g>
	<circle fill="#F3797C" stroke="#000000" stroke-width="0.25" cx="7.042" cy="7.042" r="6.917"/>
	<text transform="matrix(1 0 0 1 4.1665 9.562)" font-family="'MyriadPro-Regular'" font-size="10">+</text>
</g>
<g>
	<circle fill="#F5F4C0" stroke="#000000" stroke-width="0.25" cx="7.167" cy="29.667" r="7"/>
	<text transform="matrix(1 0 0 1 4.2915 32.2915)" font-family="'MyriadPro-Regular'" font-size="8">N</text>
</g>
<g>
	<circle fill="#F5F4C0" stroke="#000000" stroke-width="0.25" cx="28.167" cy="30.292" r="7"/>
	<text transform="matrix(1 0 0 1 25.2915 32.9165)" font-family="'MyriadPro-Regular'" font-size="8">N</text>
</g>
<text transform="matrix(1 0 0 1 40.626 9.8877)" font-family="'MyriadPro-Regular'" font-size="8">Prótons</text>
<text transform="matrix(1 0 0 1 40.626 30.2915)" font-family="'MyriadPro-Regular'" font-size="8">Nêutrons</text>
<text transform="matrix(1 0 0 1 94.7915 43.5552)"><tspan x="0" y="0" font-family="'MyriadPro-Regular'" font-size="8">Partícula  </tspan><tspan x="32.376" y="0" font-family="'TimesNewRomanPSMT'" font-size="9">α</tspan><tspan x="37.092" y="0" font-family="'MyriadPro-Regular'" font-size="8"> </tspan></text>
<text transform="matrix(1 0 0 1 94.7915 58.7915)" font-family="'MyriadPro-Regular'" font-size="6">m  =4,00153 u</text>
<text transform="matrix(1 0 0 1 99.7202 60.7388)" font-family="'TimesNewRomanPSMT'" font-size="6">α</text>
<text transform="matrix(1 0 0 1 3.417 52.2505)" font-family="'MyriadPro-Regular'" font-size="6">m  =1,00728 u</text>
<text transform="matrix(1 0 0 1 3.417 60.8657)" font-family="'MyriadPro-Regular'" font-size="6">m  =1,00866 u</text>
<text transform="matrix(1 0 0 1 7.9585 53.6431)" font-family="'ArialMT'" font-size="5">p</text>
<text transform="matrix(1 0 0 1 7.9585 62.3638)" font-family="'ArialMT'" font-size="5">n</text>
</svg>
