<?xml version="1.0" encoding="utf-8"?>
<!-- Generator: Adobe Illustrator 16.0.0, SVG Export Plug-In . SVG Version: 6.00 Build 0)  -->
<!DOCTYPE svg PUBLIC "-//W3C//DTD SVG 1.1//EN" "http://www.w3.org/Graphics/SVG/1.1/DTD/svg11.dtd">
<svg version="1.1" id="Layer_1" xmlns="http://www.w3.org/2000/svg" xmlns:xlink="http://www.w3.org/1999/xlink" x="0px" y="0px"
	 width="706.402px" height="526.627px" viewBox="0 0 706.402 526.627" enable-background="new 0 0 706.402 526.627"
	 xml:space="preserve">
<g>
	<path fill="none" stroke="#010101" stroke-width="2.8897" stroke-linejoin="round" stroke-miterlimit="10" d="M107.817,35.979
		v467.728 M108.044,423.108h554.077"/>
	
		<path fill="none" stroke="#010101" stroke-width="0" stroke-linejoin="round" stroke-miterlimit="10" stroke-dasharray="1.4448,1.4448,1.4448,1.4448" d="
		M107.817,366.59h539.687 M107.817,309.931h539.687 M107.817,253.271h539.687 M107.817,196.61h539.687 M107.817,139.95h539.687
		 M107.817,83.29h539.687"/>
	<path fill-rule="evenodd" clip-rule="evenodd" fill="#1B1B1B" d="M121.359,445.404c0,1.189-0.113,2.182-0.34,3.003
		s-0.51,1.474-0.907,1.955c-0.396,0.51-0.85,0.878-1.388,1.104c-0.51,0.198-1.076,0.312-1.671,0.312c-0.595,0-1.162-0.113-1.7-0.312
		c-0.51-0.227-0.963-0.595-1.36-1.076c-0.368-0.51-0.68-1.162-0.907-1.983c-0.198-0.793-0.312-1.813-0.312-3.003
		c0-1.246,0.113-2.295,0.312-3.088c0.227-0.821,0.539-1.473,0.935-1.955c0.368-0.51,0.822-0.85,1.36-1.048s1.105-0.283,1.728-0.283
		c0.595,0,1.133,0.085,1.643,0.283c0.539,0.198,0.992,0.538,1.36,1.048c0.397,0.482,0.708,1.134,0.935,1.955
		C121.246,443.109,121.359,444.158,121.359,445.404L121.359,445.404z M119.772,445.404c0-0.991-0.057-1.813-0.198-2.465
		c-0.113-0.651-0.283-1.161-0.51-1.558c-0.227-0.396-0.51-0.652-0.822-0.822c-0.34-0.17-0.708-0.255-1.133-0.255
		c-0.453,0-0.85,0.085-1.19,0.255c-0.34,0.17-0.623,0.454-0.85,0.822c-0.227,0.396-0.397,0.906-0.539,1.586
		c-0.113,0.651-0.17,1.445-0.17,2.437c0,0.963,0.057,1.757,0.198,2.408c0.113,0.651,0.284,1.161,0.51,1.558
		c0.227,0.397,0.51,0.681,0.85,0.851c0.34,0.17,0.708,0.255,1.133,0.255s0.793-0.085,1.133-0.255s0.623-0.453,0.85-0.851
		c0.227-0.396,0.425-0.906,0.539-1.558S119.772,446.367,119.772,445.404L119.772,445.404z"/>
	<path fill-rule="evenodd" clip-rule="evenodd" fill="#1B1B1B" d="M49.033,399.255l-10.539,6.601c0.283,0,0.566-0.028,0.85-0.028
		c0.227-0.028,0.481-0.028,0.765-0.028c0.255-0.028,0.482-0.028,0.708-0.028h8.216v1.502h-12.38v-1.955l10.624-6.686
		c-0.312,0-0.595,0.028-0.878,0.057c-0.227,0-0.51,0-0.793,0.028c-0.283,0-0.566,0.028-0.85,0.028h-8.102v-1.53h12.38V399.255
		L49.033,399.255z"/>
	<path fill-rule="evenodd" clip-rule="evenodd" fill="#1B1B1B" d="M39.514,392.994h6.034c0.453,0,0.85-0.028,1.162-0.113
		c0.312-0.057,0.566-0.17,0.736-0.312c0.198-0.17,0.34-0.369,0.425-0.624c0.057-0.227,0.113-0.538,0.113-0.906
		c0-0.396-0.057-0.736-0.198-1.02c-0.142-0.312-0.312-0.566-0.567-0.766c-0.255-0.227-0.566-0.396-0.935-0.51
		c-0.369-0.113-0.793-0.17-1.247-0.17h-5.524v-1.586h7.479c0.198,0,0.425,0,0.623,0c0.227,0,0.425,0,0.624-0.028
		c0.198,0,0.368,0,0.51,0s0.227-0.028,0.284-0.028v1.501c-0.028,0-0.114,0-0.255,0c-0.113,0.028-0.255,0.028-0.425,0.028
		c-0.17,0.028-0.34,0.028-0.51,0.028s-0.312,0-0.454,0v0.028c0.284,0.17,0.539,0.34,0.765,0.51s0.396,0.396,0.566,0.624
		c0.142,0.255,0.255,0.51,0.369,0.821c0.057,0.312,0.113,0.68,0.113,1.104c0,0.51-0.057,0.964-0.198,1.36
		c-0.114,0.368-0.312,0.68-0.595,0.935c-0.255,0.227-0.623,0.425-1.048,0.538c-0.396,0.113-0.906,0.17-1.501,0.17h-6.346V392.994
		L39.514,392.994z M38.465,392.144h-0.17l-2.521-1.897v-1.813h0.255l2.437,2.89V392.144L38.465,392.144z"/>
	<path fill-rule="evenodd" clip-rule="evenodd" fill="#1B1B1B" d="M49.033,379.112h-6.035c-0.453,0-0.85,0.028-1.162,0.085
		c-0.312,0.057-0.566,0.17-0.736,0.283c-0.198,0.142-0.34,0.34-0.425,0.538c-0.057,0.227-0.113,0.51-0.113,0.821
		c0,0.341,0.057,0.652,0.198,0.907c0.142,0.283,0.312,0.51,0.566,0.708c0.255,0.17,0.566,0.312,0.935,0.425
		c0.368,0.113,0.793,0.142,1.247,0.142h5.524v1.587h-7.479c-0.198,0-0.425,0-0.623,0c-0.227,0-0.425,0-0.624,0.028
		c-0.198,0-0.368,0-0.51,0s-0.227,0.028-0.283,0.028v-1.502c0.028,0,0.113,0,0.255-0.028c0.113,0,0.255,0,0.425,0
		c0.17-0.028,0.34-0.028,0.51-0.028s0.312,0,0.453,0v-0.028c-0.283-0.142-0.538-0.312-0.765-0.453
		c-0.227-0.17-0.396-0.368-0.566-0.595c-0.142-0.198-0.283-0.453-0.368-0.736s-0.113-0.624-0.113-0.992
		c0-0.736,0.142-1.303,0.425-1.728c0.283-0.396,0.737-0.709,1.388-0.851v-0.028c-0.283-0.142-0.538-0.312-0.765-0.481
		c-0.227-0.17-0.396-0.396-0.566-0.623c-0.142-0.227-0.283-0.481-0.368-0.793c-0.085-0.283-0.113-0.624-0.113-0.992
		c0-0.481,0.057-0.906,0.198-1.246c0.113-0.34,0.312-0.623,0.595-0.85c0.255-0.227,0.624-0.397,1.048-0.511
		c0.425-0.085,0.935-0.142,1.501-0.142h6.346v1.559h-6.035c-0.453,0-0.85,0.028-1.162,0.085c-0.312,0.057-0.566,0.17-0.736,0.312
		c-0.198,0.113-0.34,0.312-0.425,0.538c-0.057,0.198-0.113,0.481-0.113,0.794c0,0.34,0.057,0.651,0.198,0.906
		c0.113,0.283,0.312,0.51,0.566,0.708c0.227,0.17,0.538,0.34,0.907,0.425c0.368,0.113,0.793,0.17,1.275,0.17h5.524V379.112
		L49.033,379.112z"/>
	<path fill-rule="evenodd" clip-rule="evenodd" fill="#1B1B1B" d="M44.613,368.432c0.482,0,0.963-0.028,1.36-0.142
		c0.425-0.113,0.793-0.255,1.077-0.481c0.312-0.198,0.538-0.481,0.708-0.821c0.17-0.341,0.255-0.737,0.255-1.19
		c0-0.68-0.142-1.246-0.397-1.643c-0.283-0.426-0.623-0.709-1.048-0.851l0.396-1.388c0.255,0.113,0.51,0.227,0.793,0.425
		c0.255,0.17,0.51,0.396,0.708,0.708c0.227,0.312,0.396,0.68,0.539,1.134c0.142,0.425,0.198,0.963,0.198,1.614
		c0,1.389-0.425,2.465-1.247,3.201c-0.85,0.737-2.097,1.105-3.74,1.105c-0.906,0-1.643-0.113-2.266-0.34
		c-0.624-0.227-1.133-0.511-1.501-0.907c-0.397-0.396-0.68-0.85-0.85-1.359s-0.255-1.049-0.255-1.644
		c0-0.793,0.113-1.473,0.368-2.011c0.255-0.539,0.623-0.964,1.077-1.275c0.453-0.34,0.991-0.566,1.615-0.708
		c0.623-0.142,1.275-0.198,1.983-0.198h0.227V368.432L44.613,368.432z M43.395,363.304c-0.992,0.085-1.729,0.34-2.21,0.766
		c-0.453,0.425-0.68,1.02-0.68,1.812c0,0.255,0.028,0.538,0.142,0.822c0.085,0.283,0.227,0.566,0.453,0.821
		c0.198,0.227,0.51,0.453,0.878,0.623c0.368,0.17,0.85,0.255,1.417,0.283V363.304L43.395,363.304z"/>
	<path fill-rule="evenodd" clip-rule="evenodd" fill="#1B1B1B" d="M49.033,359.649h-7.31c-0.198,0-0.396,0-0.595,0
		c-0.227,0-0.425,0-0.595,0.028c-0.199,0-0.397,0-0.567,0s-0.312,0.028-0.453,0.028v-1.501c0.142,0,0.283,0,0.453-0.028
		c0.198,0,0.368,0,0.539-0.028c0.198,0,0.368,0,0.538,0s0.312,0,0.425,0v-0.057c-0.368-0.113-0.68-0.228-0.963-0.341
		c-0.255-0.142-0.482-0.283-0.652-0.453s-0.312-0.368-0.396-0.595s-0.113-0.538-0.113-0.85c0-0.142,0-0.255,0.028-0.368
		s0.028-0.228,0.057-0.284h1.445c-0.028,0.114-0.057,0.228-0.057,0.369c-0.028,0.142-0.028,0.312-0.028,0.481
		c0,0.368,0.085,0.68,0.255,0.935s0.396,0.453,0.68,0.623c0.284,0.142,0.624,0.255,1.048,0.34c0.396,0.086,0.822,0.113,1.303,0.113
		h4.958V359.649L49.033,359.649z"/>
	<path fill-rule="evenodd" clip-rule="evenodd" fill="#1B1B1B" d="M44.273,345.683c1.643,0,2.89,0.34,3.711,1.077
		c0.821,0.736,1.218,1.812,1.218,3.201c0,0.651-0.113,1.246-0.312,1.756c-0.198,0.539-0.481,0.964-0.906,1.332
		c-0.397,0.368-0.907,0.651-1.53,0.821c-0.624,0.198-1.36,0.283-2.182,0.283c-3.286,0-4.929-1.416-4.929-4.249
		c0-0.737,0.085-1.389,0.312-1.898c0.198-0.538,0.51-0.991,0.907-1.332c0.425-0.34,0.935-0.595,1.53-0.765
		C42.715,345.739,43.452,345.683,44.273,345.683L44.273,345.683z M44.273,347.326c-0.765,0-1.36,0.057-1.841,0.17
		s-0.878,0.283-1.162,0.51s-0.481,0.481-0.595,0.793s-0.17,0.68-0.17,1.077c0,0.396,0.057,0.765,0.17,1.104
		c0.142,0.312,0.34,0.595,0.623,0.821s0.68,0.397,1.162,0.511c0.481,0.142,1.077,0.198,1.813,0.198c0.737,0,1.332-0.085,1.813-0.198
		c0.482-0.143,0.878-0.312,1.162-0.539s0.482-0.481,0.624-0.793c0.113-0.312,0.17-0.651,0.17-1.02c0-0.396-0.057-0.766-0.17-1.077
		c-0.113-0.34-0.312-0.623-0.624-0.85c-0.283-0.227-0.651-0.396-1.162-0.51C45.604,347.383,45.01,347.326,44.273,347.326
		L44.273,347.326z"/>
	<path fill-rule="evenodd" clip-rule="evenodd" fill="#1B1B1B" d="M49.033,338.686h-7.31c-0.198,0-0.396,0-0.595,0
		c-0.227,0-0.425,0-0.595,0.028c-0.199,0-0.397,0-0.567,0s-0.312,0.028-0.453,0.028v-1.502c0.142,0,0.283,0,0.453-0.028
		c0.198,0,0.368,0,0.539-0.028c0.198,0,0.368,0,0.538,0s0.312,0,0.425,0v-0.057c-0.368-0.113-0.68-0.227-0.963-0.34
		c-0.255-0.142-0.482-0.283-0.652-0.453s-0.312-0.368-0.396-0.595s-0.113-0.538-0.113-0.851c0-0.142,0-0.255,0.028-0.368
		s0.028-0.227,0.057-0.283h1.445c-0.028,0.113-0.057,0.227-0.057,0.368c-0.028,0.142-0.028,0.312-0.028,0.481
		c0,0.369,0.085,0.681,0.255,0.936s0.396,0.453,0.68,0.623c0.284,0.142,0.624,0.255,1.048,0.34c0.396,0.085,0.822,0.113,1.303,0.113
		h4.958V338.686L49.033,338.686z"/>
	<path fill-rule="evenodd" clip-rule="evenodd" fill="#1B1B1B" d="M44.613,331.489c0.482,0,0.963-0.028,1.36-0.142
		c0.425-0.113,0.793-0.255,1.077-0.481c0.312-0.198,0.538-0.481,0.708-0.821c0.17-0.34,0.255-0.737,0.255-1.19
		c0-0.68-0.142-1.246-0.397-1.643c-0.283-0.425-0.623-0.709-1.048-0.851l0.396-1.388c0.255,0.113,0.51,0.227,0.793,0.425
		c0.255,0.17,0.51,0.396,0.708,0.708c0.227,0.312,0.396,0.681,0.539,1.134c0.142,0.425,0.198,0.963,0.198,1.614
		c0,1.389-0.425,2.465-1.247,3.201c-0.85,0.737-2.097,1.105-3.74,1.105c-0.906,0-1.643-0.113-2.266-0.34
		c-0.624-0.227-1.133-0.511-1.501-0.907c-0.397-0.396-0.68-0.85-0.85-1.359s-0.255-1.049-0.255-1.644
		c0-0.793,0.113-1.473,0.368-2.011c0.255-0.539,0.623-0.964,1.077-1.275c0.453-0.34,0.991-0.566,1.615-0.708
		c0.623-0.142,1.275-0.198,1.983-0.198h0.227V331.489L44.613,331.489z M43.395,326.361c-0.992,0.085-1.729,0.34-2.21,0.766
		c-0.453,0.425-0.68,1.02-0.68,1.812c0,0.255,0.028,0.539,0.142,0.822c0.085,0.283,0.227,0.566,0.453,0.821
		c0.198,0.227,0.51,0.453,0.878,0.623c0.368,0.17,0.85,0.255,1.417,0.283V326.361L43.395,326.361z"/>
	<polygon fill-rule="evenodd" clip-rule="evenodd" fill="#1B1B1B" points="49.061,322.764 36,322.764 36,321.178 49.061,321.178 
		49.061,322.764 	"/>
	<path fill-rule="evenodd" clip-rule="evenodd" fill="#1B1B1B" d="M49.203,316.39c0,0.935-0.255,1.671-0.765,2.153
		c-0.51,0.481-1.19,0.708-2.068,0.708c-0.652,0-1.162-0.113-1.559-0.368c-0.396-0.227-0.708-0.538-0.963-0.906
		c-0.227-0.397-0.368-0.822-0.453-1.332c-0.113-0.481-0.142-0.991-0.142-1.502v-2.124h-0.539c-0.396,0-0.708,0.028-0.992,0.113
		c-0.283,0.085-0.51,0.227-0.68,0.396s-0.283,0.368-0.368,0.623s-0.113,0.566-0.113,0.906c0,0.312,0,0.567,0.057,0.822
		c0.028,0.255,0.113,0.453,0.227,0.651c0.113,0.17,0.283,0.312,0.481,0.425s0.425,0.198,0.737,0.227l-0.142,1.644
		c-0.396-0.057-0.736-0.17-1.048-0.34c-0.312-0.142-0.595-0.396-0.822-0.681c-0.227-0.312-0.396-0.68-0.51-1.133
		c-0.142-0.453-0.198-1.02-0.198-1.644c0-1.218,0.283-2.096,0.821-2.719c0.539-0.596,1.332-0.907,2.38-0.907h4.08
		c0.481,0,0.85-0.057,1.077-0.17c0.227-0.113,0.34-0.368,0.34-0.708c0-0.085,0-0.17,0-0.255c-0.028-0.085-0.028-0.17-0.057-0.255
		h0.991c0.057,0.198,0.085,0.396,0.114,0.595s0.028,0.396,0.028,0.623c0,0.283-0.028,0.566-0.113,0.765
		c-0.085,0.227-0.199,0.396-0.369,0.539c-0.17,0.113-0.368,0.227-0.595,0.283c-0.227,0.085-0.51,0.113-0.822,0.142v0.057
		c0.283,0.17,0.567,0.34,0.822,0.566c0.227,0.198,0.453,0.425,0.623,0.708c0.17,0.255,0.312,0.566,0.397,0.906
		C49.146,315.54,49.203,315.937,49.203,316.39L49.203,316.39z M48.013,316.021c0-0.51-0.085-0.936-0.283-1.332
		c-0.17-0.368-0.397-0.68-0.68-0.935s-0.595-0.425-0.935-0.566c-0.34-0.113-0.68-0.17-0.991-0.17h-0.765v1.728
		c0,0.396,0.028,0.766,0.085,1.105c0.028,0.34,0.142,0.651,0.283,0.906c0.142,0.283,0.369,0.481,0.624,0.623
		c0.255,0.17,0.623,0.255,1.048,0.255c0.51,0,0.906-0.142,1.189-0.425C47.871,316.928,48.013,316.531,48.013,316.021L48.013,316.021
		z"/>
	<path fill-rule="evenodd" clip-rule="evenodd" fill="#1B1B1B" d="M48.976,305.199c0.057,0.255,0.114,0.481,0.142,0.736
		s0.057,0.538,0.057,0.879c0,1.246-0.708,1.897-2.153,1.897h-6.346v1.077h-1.162v-1.162l-2.125-0.453v-1.048h2.125v-1.757h1.162
		v1.757h6.006c0.453,0,0.765-0.085,0.963-0.227c0.17-0.142,0.284-0.426,0.284-0.794c0-0.142-0.028-0.283-0.057-0.425
		c0-0.142-0.028-0.312-0.085-0.481H48.976L48.976,305.199z"/>
	<path fill-rule="evenodd" clip-rule="evenodd" fill="#1B1B1B" d="M37.502,303.84H36v-1.587h1.501V303.84L37.502,303.84z
		 M49.061,303.84h-9.519v-1.587h9.519V303.84L49.061,303.84z"/>
	<path fill-rule="evenodd" clip-rule="evenodd" fill="#1B1B1B" d="M49.033,295.681v1.869l-9.519,3.456v-1.699l6.204-2.097
		c0.113-0.028,0.283-0.085,0.454-0.142c0.198-0.057,0.396-0.113,0.595-0.17s0.368-0.113,0.566-0.142
		c0.17-0.057,0.34-0.113,0.454-0.142c-0.113-0.028-0.284-0.085-0.454-0.142c-0.198-0.057-0.368-0.113-0.566-0.17
		s-0.396-0.113-0.566-0.17c-0.199-0.057-0.34-0.113-0.482-0.17l-6.204-2.153v-1.672L49.033,295.681L49.033,295.681z"/>
	<path fill-rule="evenodd" clip-rule="evenodd" fill="#1B1B1B" d="M44.273,282.847c1.643,0,2.89,0.34,3.711,1.077
		c0.821,0.736,1.218,1.812,1.218,3.201c0,0.651-0.113,1.246-0.312,1.756c-0.198,0.539-0.481,0.964-0.906,1.332
		c-0.397,0.368-0.907,0.651-1.53,0.821c-0.624,0.198-1.36,0.283-2.182,0.283c-3.286,0-4.929-1.416-4.929-4.249
		c0-0.737,0.085-1.389,0.312-1.898c0.198-0.538,0.51-0.991,0.907-1.332c0.425-0.34,0.935-0.595,1.53-0.765
		C42.715,282.903,43.452,282.847,44.273,282.847L44.273,282.847z M44.273,284.49c-0.765,0-1.36,0.057-1.841,0.17
		s-0.878,0.283-1.162,0.51s-0.481,0.481-0.595,0.793s-0.17,0.68-0.17,1.077c0,0.396,0.057,0.765,0.17,1.104
		c0.142,0.312,0.34,0.595,0.623,0.821s0.68,0.397,1.162,0.511c0.481,0.142,1.077,0.198,1.813,0.198c0.737,0,1.332-0.085,1.813-0.198
		c0.482-0.143,0.878-0.312,1.162-0.539s0.482-0.481,0.624-0.793c0.113-0.312,0.17-0.651,0.17-1.02c0-0.396-0.057-0.766-0.17-1.077
		c-0.113-0.34-0.312-0.623-0.624-0.85c-0.283-0.227-0.651-0.396-1.162-0.51C45.604,284.547,45.01,284.49,44.273,284.49
		L44.273,284.49z"/>
	<path fill-rule="evenodd" clip-rule="evenodd" fill="#1B1B1B" d="M47.531,269.844c0.595,0.312,1.048,0.68,1.303,1.189
		c0.255,0.481,0.397,1.076,0.397,1.785c0,1.189-0.397,2.068-1.218,2.635c-0.793,0.566-2.04,0.85-3.683,0.85
		c-3.314,0-4.958-1.162-4.958-3.484c0-0.709,0.113-1.332,0.396-1.813c0.255-0.481,0.68-0.85,1.247-1.161l0,0
		c-0.057,0-0.142,0-0.283,0c-0.113,0-0.255,0-0.397,0c-0.142,0-0.255,0-0.396,0c-0.113,0-0.198,0-0.255,0H36v-1.559h11.077
		c0.227,0,0.453,0,0.68-0.028c0.198,0,0.396,0,0.566,0s0.34,0,0.453-0.028c0.142,0,0.227,0,0.284,0v1.502
		c-0.085,0.027-0.142,0.027-0.255,0.027s-0.227,0.029-0.368,0.029s-0.312,0.027-0.453,0.027s-0.312,0-0.454,0V269.844
		L47.531,269.844z M44.301,274.66c0.652,0,1.218-0.058,1.671-0.143c0.482-0.085,0.85-0.198,1.162-0.396
		c0.312-0.17,0.51-0.396,0.652-0.68c0.142-0.283,0.227-0.623,0.227-1.02c0-0.426-0.085-0.794-0.198-1.105
		c-0.142-0.34-0.369-0.595-0.652-0.793c-0.312-0.227-0.708-0.396-1.19-0.51c-0.481-0.113-1.076-0.17-1.785-0.17
		c-0.68,0-1.247,0.057-1.728,0.17c-0.453,0.113-0.822,0.283-1.105,0.51c-0.312,0.198-0.51,0.481-0.623,0.793
		c-0.142,0.312-0.198,0.68-0.198,1.076s0.057,0.709,0.198,0.992s0.368,0.538,0.651,0.708c0.312,0.198,0.68,0.34,1.162,0.425
		S43.622,274.66,44.301,274.66L44.301,274.66z"/>
	<path fill-rule="evenodd" clip-rule="evenodd" fill="#1B1B1B" d="M44.613,264.688c0.482,0,0.963-0.028,1.36-0.142
		c0.425-0.113,0.793-0.255,1.077-0.481c0.312-0.199,0.538-0.482,0.708-0.822c0.17-0.34,0.255-0.736,0.255-1.189
		c0-0.68-0.142-1.247-0.397-1.643c-0.283-0.425-0.623-0.708-1.048-0.85l0.396-1.388c0.255,0.113,0.51,0.227,0.793,0.425
		c0.255,0.17,0.51,0.397,0.708,0.708c0.227,0.312,0.396,0.68,0.539,1.133c0.142,0.425,0.198,0.963,0.198,1.615
		c0,1.389-0.425,2.465-1.247,3.201c-0.85,0.736-2.097,1.105-3.74,1.105c-0.906,0-1.643-0.113-2.266-0.341
		c-0.624-0.227-1.133-0.51-1.501-0.906c-0.397-0.396-0.68-0.851-0.85-1.36s-0.255-1.048-0.255-1.643
		c0-0.793,0.113-1.473,0.368-2.012c0.255-0.538,0.623-0.963,1.077-1.274c0.453-0.34,0.991-0.567,1.615-0.708
		c0.623-0.142,1.275-0.198,1.983-0.198h0.227V264.688L44.613,264.688z M43.395,259.56c-0.992,0.085-1.729,0.34-2.21,0.765
		c-0.453,0.425-0.68,1.02-0.68,1.813c0,0.255,0.028,0.538,0.142,0.821c0.085,0.283,0.227,0.566,0.453,0.822
		c0.198,0.227,0.51,0.453,0.878,0.623c0.368,0.17,0.85,0.255,1.417,0.283V259.56L43.395,259.56z"/>
	<path fill-rule="evenodd" clip-rule="evenodd" fill="#1B1B1B" d="M44.216,242.901c0.737,0,1.388,0.057,2.012,0.17
		c0.595,0.113,1.133,0.312,1.586,0.567c0.425,0.283,0.765,0.651,1.02,1.077c0.255,0.453,0.369,1.02,0.369,1.671
		c0,0.68-0.113,1.275-0.369,1.785c-0.283,0.51-0.68,0.907-1.275,1.162v0.057c0-0.028,0.057-0.028,0.142-0.028
		c0.113,0,0.227,0,0.368,0s0.283,0,0.481,0c0.17-0.028,0.34-0.028,0.51-0.028h3.711v1.586H41.468c-0.227,0-0.453,0-0.651,0
		c-0.227,0-0.425,0.028-0.595,0.028s-0.312,0-0.425,0c-0.142,0.028-0.227,0.028-0.283,0.028v-1.53c0.028,0,0.085,0,0.198-0.028
		c0.085,0,0.227,0,0.368-0.028c0.142,0,0.312,0,0.482-0.028c0.17,0,0.34,0,0.481,0v-0.028c-0.312-0.142-0.566-0.312-0.793-0.51
		c-0.198-0.198-0.368-0.396-0.51-0.651c-0.142-0.227-0.255-0.481-0.312-0.793c-0.057-0.284-0.085-0.624-0.085-0.992
		c0-0.652,0.113-1.218,0.34-1.671c0.255-0.425,0.566-0.793,0.992-1.077c0.425-0.255,0.963-0.454,1.558-0.567
		C42.828,242.958,43.508,242.901,44.216,242.901L44.216,242.901z M44.273,244.545c-0.595,0-1.105,0.028-1.586,0.113
		c-0.453,0.057-0.822,0.198-1.162,0.368c-0.312,0.17-0.538,0.396-0.708,0.68s-0.255,0.652-0.255,1.077
		c0,0.368,0.057,0.68,0.142,0.992c0.113,0.312,0.312,0.595,0.595,0.821s0.652,0.425,1.162,0.539
		c0.481,0.142,1.133,0.198,1.926,0.198c0.68,0,1.247-0.057,1.7-0.142c0.482-0.113,0.85-0.284,1.133-0.51
		c0.312-0.198,0.51-0.481,0.624-0.793c0.142-0.312,0.198-0.68,0.198-1.077c0-0.453-0.085-0.822-0.255-1.105
		c-0.17-0.283-0.425-0.51-0.737-0.68c-0.34-0.17-0.708-0.312-1.19-0.368C45.406,244.573,44.868,244.545,44.273,244.545
		L44.273,244.545z"/>
	<path fill-rule="evenodd" clip-rule="evenodd" fill="#1B1B1B" d="M44.273,232.929c1.643,0,2.89,0.34,3.711,1.077
		c0.821,0.737,1.218,1.813,1.218,3.201c0,0.652-0.113,1.247-0.312,1.757c-0.198,0.538-0.481,0.963-0.906,1.331
		c-0.397,0.369-0.907,0.652-1.53,0.822c-0.624,0.198-1.36,0.283-2.182,0.283c-3.286,0-4.929-1.417-4.929-4.25
		c0-0.736,0.085-1.388,0.312-1.898c0.198-0.538,0.51-0.992,0.907-1.332c0.425-0.34,0.935-0.595,1.53-0.765
		C42.715,232.986,43.452,232.929,44.273,232.929L44.273,232.929z M44.273,234.572c-0.765,0-1.36,0.057-1.841,0.17
		c-0.481,0.113-0.878,0.283-1.162,0.51s-0.481,0.481-0.595,0.793c-0.113,0.312-0.17,0.68-0.17,1.076s0.057,0.765,0.17,1.105
		c0.142,0.312,0.34,0.595,0.623,0.822s0.68,0.396,1.162,0.51c0.481,0.142,1.077,0.198,1.813,0.198c0.737,0,1.332-0.085,1.813-0.198
		c0.482-0.142,0.878-0.312,1.162-0.538s0.482-0.482,0.624-0.793c0.113-0.312,0.17-0.651,0.17-1.02c0-0.396-0.057-0.765-0.17-1.076
		c-0.113-0.34-0.312-0.624-0.624-0.85c-0.283-0.227-0.651-0.396-1.162-0.51C45.604,234.629,45.01,234.572,44.273,234.572
		L44.273,234.572z M38.465,238.369h-0.17l-2.521-1.898v-1.813h0.255l2.437,2.89V238.369L38.465,238.369z"/>
	<path fill-rule="evenodd" clip-rule="evenodd" fill="#1B1B1B" d="M46.398,223.864c0.453,0,0.85,0.085,1.189,0.283
		c0.34,0.17,0.652,0.425,0.878,0.737c0.227,0.34,0.425,0.736,0.539,1.218c0.142,0.482,0.198,1.02,0.198,1.644
		c0,0.538-0.057,1.048-0.113,1.473c-0.114,0.453-0.227,0.821-0.425,1.162c-0.198,0.34-0.425,0.623-0.736,0.85
		c-0.312,0.227-0.68,0.396-1.133,0.481l-0.283-1.388c0.51-0.142,0.906-0.425,1.133-0.822c0.227-0.425,0.34-1.02,0.34-1.756
		c0-0.34,0-0.652-0.057-0.935s-0.142-0.538-0.255-0.737c-0.114-0.227-0.255-0.368-0.454-0.481c-0.17-0.113-0.425-0.17-0.708-0.17
		s-0.51,0.057-0.708,0.198c-0.17,0.142-0.34,0.312-0.453,0.567c-0.113,0.227-0.227,0.51-0.312,0.878
		c-0.085,0.34-0.199,0.708-0.312,1.105c-0.085,0.396-0.198,0.765-0.34,1.133c-0.113,0.396-0.283,0.736-0.481,1.02
		c-0.198,0.312-0.453,0.538-0.737,0.736c-0.312,0.198-0.68,0.283-1.133,0.283c-0.878,0-1.53-0.312-1.983-0.935
		c-0.453-0.624-0.68-1.502-0.68-2.691c0-1.048,0.17-1.87,0.538-2.493s0.963-1.02,1.785-1.19l0.17,1.445
		c-0.227,0.028-0.453,0.142-0.623,0.283s-0.283,0.312-0.396,0.51c-0.113,0.198-0.17,0.425-0.227,0.651
		c-0.028,0.255-0.057,0.51-0.057,0.793c0,0.708,0.113,1.246,0.312,1.586c0.227,0.34,0.566,0.51,0.991,0.51
		c0.255,0,0.482-0.057,0.652-0.198c0.17-0.113,0.312-0.312,0.425-0.538c0.113-0.199,0.198-0.482,0.283-0.793
		c0.085-0.312,0.17-0.68,0.284-1.048c0.057-0.255,0.113-0.51,0.198-0.765c0.057-0.283,0.17-0.539,0.255-0.793
		c0.113-0.227,0.227-0.481,0.368-0.68c0.142-0.227,0.312-0.425,0.481-0.595c0.199-0.142,0.425-0.283,0.68-0.368
		C45.746,223.92,46.058,223.864,46.398,223.864L46.398,223.864z"/>
	<path fill-rule="evenodd" clip-rule="evenodd" fill="#1B1B1B" d="M37.502,222.022H36v-1.586h1.501V222.022L37.502,222.022z
		 M49.061,222.022h-9.519v-1.586h9.519V222.022L49.061,222.022z"/>
	<path fill-rule="evenodd" clip-rule="evenodd" fill="#1B1B1B" d="M48.976,214.401c0.057,0.255,0.114,0.482,0.142,0.737
		s0.057,0.538,0.057,0.878c0,1.246-0.708,1.898-2.153,1.898h-6.346v1.077h-1.162v-1.162l-2.125-0.454v-1.048h2.125v-1.757h1.162
		v1.757h6.006c0.453,0,0.765-0.085,0.963-0.227c0.17-0.142,0.284-0.425,0.284-0.793c0-0.142-0.028-0.283-0.057-0.425
		c0-0.142-0.028-0.312-0.085-0.482H48.976L48.976,214.401z"/>
	<path fill-rule="evenodd" clip-rule="evenodd" fill="#1B1B1B" d="M49.033,212.985h-7.31c-0.198,0-0.396,0-0.595,0
		c-0.227,0-0.425,0-0.595,0.028c-0.199,0-0.397,0-0.567,0s-0.312,0.029-0.453,0.029v-1.502c0.142,0,0.283,0,0.453-0.028
		c0.198,0,0.368,0,0.539-0.028c0.198,0,0.368,0,0.538,0s0.312,0,0.425,0v-0.057c-0.368-0.113-0.68-0.227-0.963-0.34
		c-0.255-0.142-0.482-0.283-0.652-0.453s-0.312-0.368-0.396-0.595c-0.085-0.227-0.113-0.538-0.113-0.85c0-0.142,0-0.255,0.028-0.369
		s0.028-0.227,0.057-0.283h1.445c-0.028,0.113-0.057,0.227-0.057,0.368c-0.028,0.142-0.028,0.312-0.028,0.482
		c0,0.368,0.085,0.68,0.255,0.935c0.17,0.255,0.396,0.453,0.68,0.623c0.284,0.142,0.624,0.255,1.048,0.34
		c0.396,0.085,0.822,0.113,1.303,0.113h4.958V212.985L49.033,212.985z"/>
	<path fill-rule="evenodd" clip-rule="evenodd" fill="#1B1B1B" d="M44.273,198.99c1.643,0,2.89,0.34,3.711,1.076
		c0.821,0.737,1.218,1.813,1.218,3.201c0,0.652-0.113,1.247-0.312,1.757c-0.198,0.538-0.481,0.963-0.906,1.332
		c-0.397,0.368-0.907,0.651-1.53,0.821c-0.624,0.199-1.36,0.284-2.182,0.284c-3.286,0-4.929-1.417-4.929-4.25
		c0-0.736,0.085-1.388,0.312-1.898c0.198-0.538,0.51-0.992,0.907-1.332c0.425-0.34,0.935-0.595,1.53-0.765
		C42.715,199.047,43.452,198.99,44.273,198.99L44.273,198.99z M44.273,200.633c-0.765,0-1.36,0.057-1.841,0.17
		s-0.878,0.283-1.162,0.51s-0.481,0.482-0.595,0.793s-0.17,0.68-0.17,1.076c0,0.397,0.057,0.765,0.17,1.105
		c0.142,0.312,0.34,0.595,0.623,0.822s0.68,0.396,1.162,0.51c0.481,0.142,1.077,0.198,1.813,0.198c0.737,0,1.332-0.085,1.813-0.198
		c0.482-0.142,0.878-0.312,1.162-0.538s0.482-0.481,0.624-0.793c0.113-0.312,0.17-0.651,0.17-1.02c0-0.396-0.057-0.765-0.17-1.076
		c-0.113-0.34-0.312-0.624-0.624-0.85c-0.283-0.227-0.651-0.396-1.162-0.51C45.604,200.69,45.01,200.633,44.273,200.633
		L44.273,200.633z"/>
	<path fill-rule="evenodd" clip-rule="evenodd" fill="#1B1B1B" d="M49.033,191.029h-6.035c-0.453,0-0.85,0.028-1.162,0.113
		c-0.312,0.057-0.566,0.17-0.736,0.312c-0.198,0.17-0.34,0.368-0.425,0.624c-0.057,0.227-0.113,0.538-0.113,0.906
		c0,0.397,0.057,0.737,0.198,1.02c0.142,0.312,0.312,0.566,0.566,0.765c0.255,0.227,0.566,0.396,0.935,0.51
		c0.368,0.113,0.793,0.17,1.247,0.17h5.524v1.586h-7.479c-0.198,0-0.425,0-0.623,0c-0.227,0-0.425,0-0.624,0.028
		c-0.198,0-0.368,0-0.51,0s-0.227,0.028-0.283,0.028v-1.501c0.028,0,0.113,0,0.255-0.028c0.113,0,0.255,0,0.425,0
		c0.17-0.028,0.34-0.028,0.51-0.028s0.312,0,0.453,0v-0.028c-0.283-0.17-0.538-0.34-0.765-0.51c-0.227-0.17-0.396-0.397-0.566-0.624
		c-0.142-0.255-0.283-0.51-0.368-0.821s-0.113-0.68-0.113-1.105c0-0.51,0.057-0.963,0.198-1.36c0.113-0.368,0.312-0.68,0.595-0.935
		c0.255-0.227,0.624-0.425,1.048-0.538s0.935-0.17,1.501-0.17h6.346V191.029L49.033,191.029z"/>
	<path fill-rule="evenodd" clip-rule="evenodd" fill="#1B1B1B" d="M46.398,179.98c0.453,0,0.85,0.085,1.189,0.283
		c0.34,0.17,0.652,0.425,0.878,0.737c0.227,0.34,0.425,0.737,0.539,1.218c0.142,0.481,0.198,1.02,0.198,1.643
		c0,0.538-0.057,1.048-0.113,1.473c-0.114,0.453-0.227,0.822-0.425,1.162s-0.425,0.623-0.736,0.85
		c-0.312,0.227-0.68,0.396-1.133,0.481l-0.283-1.388c0.51-0.142,0.906-0.425,1.133-0.822c0.227-0.425,0.34-1.02,0.34-1.756
		c0-0.34,0-0.652-0.057-0.935s-0.142-0.538-0.255-0.736c-0.114-0.227-0.255-0.368-0.454-0.481c-0.17-0.114-0.425-0.17-0.708-0.17
		s-0.51,0.057-0.708,0.199c-0.17,0.142-0.34,0.312-0.453,0.566c-0.113,0.227-0.227,0.51-0.312,0.878
		c-0.085,0.34-0.199,0.708-0.312,1.105c-0.085,0.397-0.198,0.765-0.34,1.133c-0.113,0.396-0.283,0.737-0.481,1.02
		c-0.198,0.312-0.453,0.538-0.737,0.736c-0.312,0.199-0.68,0.284-1.133,0.284c-0.878,0-1.53-0.312-1.983-0.935
		c-0.453-0.624-0.68-1.501-0.68-2.691c0-1.048,0.17-1.87,0.538-2.493c0.368-0.623,0.963-1.02,1.785-1.19l0.17,1.445
		c-0.227,0.029-0.453,0.142-0.623,0.284s-0.283,0.312-0.396,0.51s-0.17,0.425-0.227,0.651c-0.028,0.255-0.057,0.51-0.057,0.793
		c0,0.708,0.113,1.247,0.312,1.586c0.227,0.34,0.566,0.51,0.991,0.51c0.255,0,0.482-0.057,0.652-0.198
		c0.17-0.113,0.312-0.312,0.425-0.538c0.113-0.198,0.198-0.481,0.283-0.793c0.085-0.312,0.17-0.68,0.284-1.048
		c0.057-0.255,0.113-0.51,0.198-0.765c0.057-0.283,0.17-0.538,0.255-0.793c0.113-0.227,0.227-0.482,0.368-0.68
		c0.142-0.227,0.312-0.425,0.481-0.595c0.199-0.142,0.425-0.284,0.68-0.369C45.746,180.037,46.058,179.98,46.398,179.98
		L46.398,179.98z"/>
	<path fill-rule="evenodd" clip-rule="evenodd" fill="#1B1B1B" d="M44.613,171.85c0.482,0,0.963-0.028,1.36-0.142
		c0.425-0.113,0.793-0.255,1.077-0.481c0.312-0.198,0.538-0.481,0.708-0.821c0.17-0.34,0.255-0.737,0.255-1.19
		c0-0.68-0.142-1.247-0.397-1.643c-0.283-0.425-0.623-0.708-1.048-0.85l0.396-1.388c0.255,0.113,0.51,0.227,0.793,0.425
		c0.255,0.17,0.51,0.396,0.708,0.708c0.227,0.312,0.396,0.68,0.539,1.133c0.142,0.425,0.198,0.963,0.198,1.615
		c0,1.388-0.425,2.464-1.247,3.201c-0.85,0.737-2.097,1.105-3.74,1.105c-0.906,0-1.643-0.113-2.266-0.34
		c-0.624-0.227-1.133-0.51-1.501-0.907c-0.397-0.396-0.68-0.85-0.85-1.36s-0.255-1.048-0.255-1.643c0-0.793,0.113-1.473,0.368-2.012
		c0.255-0.538,0.623-0.963,1.077-1.275c0.453-0.34,0.991-0.566,1.615-0.708c0.623-0.142,1.275-0.198,1.983-0.198h0.227V171.85
		L44.613,171.85z M43.395,166.722c-0.992,0.085-1.729,0.34-2.21,0.765c-0.453,0.425-0.68,1.02-0.68,1.813
		c0,0.255,0.028,0.538,0.142,0.821c0.085,0.284,0.227,0.567,0.453,0.822c0.198,0.227,0.51,0.453,0.878,0.623
		c0.368,0.17,0.85,0.255,1.417,0.283V166.722L43.395,166.722z"/>
	<path fill-rule="evenodd" clip-rule="evenodd" fill="#1B1B1B" d="M49.033,157.6h-6.035c-0.453,0-0.85,0.029-1.162,0.085
		c-0.312,0.057-0.566,0.17-0.736,0.283c-0.198,0.142-0.34,0.34-0.425,0.538c-0.057,0.227-0.113,0.51-0.113,0.822
		c0,0.34,0.057,0.651,0.198,0.906c0.142,0.284,0.312,0.51,0.566,0.708c0.255,0.17,0.566,0.312,0.935,0.425
		c0.368,0.113,0.793,0.142,1.247,0.142h5.524v1.586h-7.479c-0.198,0-0.425,0-0.623,0c-0.227,0-0.425,0-0.624,0.028
		c-0.198,0-0.368,0-0.51,0s-0.227,0.028-0.283,0.028v-1.501c0.028,0,0.113,0,0.255-0.028c0.113,0,0.255,0,0.425,0
		c0.17-0.029,0.34-0.029,0.51-0.029s0.312,0,0.453,0v-0.028c-0.283-0.142-0.538-0.312-0.765-0.453
		c-0.227-0.17-0.396-0.368-0.566-0.595c-0.142-0.199-0.283-0.454-0.368-0.737s-0.113-0.623-0.113-0.991
		c0-0.737,0.142-1.304,0.425-1.729c0.283-0.396,0.737-0.708,1.388-0.85v-0.028c-0.283-0.142-0.538-0.312-0.765-0.482
		c-0.227-0.17-0.396-0.396-0.566-0.623c-0.142-0.227-0.283-0.482-0.368-0.793c-0.085-0.283-0.113-0.623-0.113-0.991
		c0-0.482,0.057-0.907,0.198-1.247c0.113-0.34,0.312-0.624,0.595-0.85c0.255-0.227,0.624-0.396,1.048-0.51
		c0.425-0.085,0.935-0.142,1.501-0.142h6.346v1.558h-6.035c-0.453,0-0.85,0.028-1.162,0.085c-0.312,0.057-0.566,0.17-0.736,0.312
		c-0.198,0.113-0.34,0.312-0.425,0.538c-0.057,0.199-0.113,0.482-0.113,0.793c0,0.34,0.057,0.651,0.198,0.906
		c0.113,0.284,0.312,0.51,0.566,0.708c0.227,0.17,0.538,0.34,0.907,0.425c0.368,0.114,0.793,0.17,1.275,0.17h5.524V157.6
		L49.033,157.6z"/>
	<path fill-rule="evenodd" clip-rule="evenodd" fill="#1B1B1B" d="M37.502,148.166H36v-1.586h1.501V148.166L37.502,148.166z
		 M49.061,148.166h-9.519v-1.586h9.519V148.166L49.061,148.166z"/>
	<path fill-rule="evenodd" clip-rule="evenodd" fill="#1B1B1B" d="M48.976,140.517c0.057,0.255,0.114,0.481,0.142,0.736
		s0.057,0.539,0.057,0.878c0,1.247-0.708,1.898-2.153,1.898h-6.346v1.077h-1.162v-1.162l-2.125-0.453v-1.048h2.125v-1.756h1.162
		v1.756h6.006c0.453,0,0.765-0.085,0.963-0.227c0.17-0.142,0.284-0.425,0.284-0.793c0-0.142-0.028-0.283-0.057-0.425
		c0-0.142-0.028-0.312-0.085-0.481H48.976L48.976,140.517z"/>
	<path fill-rule="evenodd" clip-rule="evenodd" fill="#1B1B1B" d="M37.502,139.157H36v-1.587h1.501V139.157L37.502,139.157z
		 M49.061,139.157h-9.519v-1.587h9.519V139.157L49.061,139.157z"/>
	<path fill-rule="evenodd" clip-rule="evenodd" fill="#1B1B1B" d="M47.531,129.185c0.595,0.312,1.048,0.68,1.303,1.19
		c0.255,0.481,0.397,1.076,0.397,1.785c0,1.19-0.397,2.068-1.218,2.635c-0.793,0.566-2.04,0.85-3.683,0.85
		c-3.314,0-4.958-1.162-4.958-3.484c0-0.708,0.113-1.332,0.396-1.813c0.255-0.482,0.68-0.85,1.247-1.162l0,0
		c-0.057,0-0.142,0-0.283,0c-0.113,0-0.255,0-0.397,0c-0.142,0-0.255,0-0.396,0c-0.113,0-0.198,0-0.255,0H36v-1.558h11.077
		c0.227,0,0.453,0,0.68-0.028c0.198,0,0.396,0,0.566,0s0.34,0,0.453-0.028c0.142,0,0.227,0,0.284,0v1.501
		c-0.085,0.028-0.142,0.028-0.255,0.028s-0.227,0.028-0.368,0.028s-0.312,0.028-0.453,0.028s-0.312,0-0.454,0V129.185
		L47.531,129.185z M44.301,134.001c0.652,0,1.218-0.057,1.671-0.142c0.482-0.085,0.85-0.198,1.162-0.396
		c0.312-0.17,0.51-0.396,0.652-0.68c0.142-0.283,0.227-0.623,0.227-1.02c0-0.425-0.085-0.793-0.198-1.104
		c-0.142-0.34-0.369-0.595-0.652-0.793c-0.312-0.227-0.708-0.396-1.19-0.51c-0.481-0.113-1.076-0.17-1.785-0.17
		c-0.68,0-1.247,0.057-1.728,0.17c-0.453,0.113-0.822,0.283-1.105,0.51c-0.312,0.198-0.51,0.482-0.623,0.793
		c-0.142,0.312-0.198,0.68-0.198,1.076c0,0.397,0.057,0.708,0.198,0.992s0.368,0.539,0.651,0.708c0.312,0.198,0.68,0.34,1.162,0.425
		S43.622,134.001,44.301,134.001L44.301,134.001z"/>
	<path fill-rule="evenodd" clip-rule="evenodd" fill="#1B1B1B" d="M44.273,117.201c1.643,0,2.89,0.34,3.711,1.077
		c0.821,0.737,1.218,1.813,1.218,3.201c0,0.652-0.113,1.247-0.312,1.756c-0.198,0.539-0.481,0.963-0.906,1.332
		c-0.397,0.368-0.907,0.651-1.53,0.821c-0.624,0.198-1.36,0.283-2.182,0.283c-3.286,0-4.929-1.417-4.929-4.25
		c0-0.736,0.085-1.388,0.312-1.898c0.198-0.538,0.51-0.992,0.907-1.332c0.425-0.34,0.935-0.595,1.53-0.765
		C42.715,117.258,43.452,117.201,44.273,117.201L44.273,117.201z M44.273,118.845c-0.765,0-1.36,0.057-1.841,0.17
		s-0.878,0.283-1.162,0.51s-0.481,0.481-0.595,0.793c-0.113,0.312-0.17,0.68-0.17,1.077c0,0.397,0.057,0.765,0.17,1.105
		c0.142,0.312,0.34,0.595,0.623,0.821c0.283,0.227,0.68,0.397,1.162,0.51c0.481,0.142,1.077,0.198,1.813,0.198
		c0.737,0,1.332-0.085,1.813-0.198c0.482-0.142,0.878-0.312,1.162-0.539c0.283-0.227,0.482-0.481,0.624-0.793
		c0.113-0.312,0.17-0.651,0.17-1.02c0-0.396-0.057-0.765-0.17-1.077c-0.113-0.34-0.312-0.623-0.624-0.85
		c-0.283-0.227-0.651-0.396-1.162-0.51C45.604,118.901,45.01,118.845,44.273,118.845L44.273,118.845z"/>
	<path fill-rule="evenodd" clip-rule="evenodd" fill="#1B1B1B" d="M46.398,108.136c0.453,0,0.85,0.085,1.189,0.283
		c0.34,0.17,0.652,0.425,0.878,0.737c0.227,0.34,0.425,0.736,0.539,1.218c0.142,0.481,0.198,1.02,0.198,1.643
		c0,0.538-0.057,1.048-0.113,1.473c-0.114,0.453-0.227,0.821-0.425,1.161c-0.198,0.34-0.425,0.624-0.736,0.85
		c-0.312,0.227-0.68,0.396-1.133,0.482l-0.283-1.389c0.51-0.142,0.906-0.425,1.133-0.821c0.227-0.425,0.34-1.02,0.34-1.756
		c0-0.34,0-0.652-0.057-0.935s-0.142-0.538-0.255-0.736c-0.114-0.227-0.255-0.369-0.454-0.482c-0.17-0.113-0.425-0.17-0.708-0.17
		s-0.51,0.057-0.708,0.198c-0.17,0.142-0.34,0.312-0.453,0.567c-0.113,0.227-0.227,0.51-0.312,0.878
		c-0.085,0.34-0.199,0.708-0.312,1.105c-0.085,0.396-0.198,0.765-0.34,1.133c-0.113,0.396-0.283,0.736-0.481,1.02
		c-0.198,0.312-0.453,0.539-0.737,0.737c-0.312,0.198-0.68,0.283-1.133,0.283c-0.878,0-1.53-0.312-1.983-0.935
		c-0.453-0.623-0.68-1.501-0.68-2.691c0-1.048,0.17-1.87,0.538-2.493c0.368-0.624,0.963-1.02,1.785-1.19l0.17,1.445
		c-0.227,0.028-0.453,0.142-0.623,0.283s-0.283,0.312-0.396,0.51s-0.17,0.425-0.227,0.651c-0.028,0.255-0.057,0.51-0.057,0.793
		c0,0.708,0.113,1.247,0.312,1.586c0.227,0.34,0.566,0.51,0.991,0.51c0.255,0,0.482-0.057,0.652-0.198
		c0.17-0.113,0.312-0.312,0.425-0.538c0.113-0.198,0.198-0.482,0.283-0.793c0.085-0.312,0.17-0.68,0.284-1.048
		c0.057-0.255,0.113-0.51,0.198-0.765c0.057-0.283,0.17-0.539,0.255-0.793c0.113-0.227,0.227-0.481,0.368-0.68
		c0.142-0.227,0.312-0.425,0.481-0.595c0.199-0.142,0.425-0.283,0.68-0.368C45.746,108.192,46.058,108.136,46.398,108.136
		L46.398,108.136z"/>
	<path fill-rule="evenodd" clip-rule="evenodd" fill="#1B1B1B" d="M260.573,444.413c0,1.189-0.113,2.182-0.34,3.003
		c-0.227,0.821-0.51,1.473-0.906,1.955c-0.397,0.51-0.85,0.878-1.388,1.104c-0.51,0.198-1.077,0.312-1.671,0.312
		c-0.595,0-1.162-0.113-1.7-0.312c-0.51-0.227-0.963-0.595-1.36-1.077c-0.368-0.51-0.68-1.161-0.906-1.982
		c-0.198-0.793-0.312-1.813-0.312-3.003c0-1.247,0.113-2.295,0.312-3.088c0.227-0.822,0.538-1.474,0.935-1.955
		c0.369-0.51,0.822-0.85,1.36-1.048c0.539-0.198,1.105-0.283,1.729-0.283c0.595,0,1.133,0.085,1.643,0.283
		c0.538,0.198,0.991,0.538,1.36,1.048c0.396,0.481,0.708,1.133,0.935,1.955C260.459,442.118,260.573,443.166,260.573,444.413
		L260.573,444.413z M258.986,444.413c0-0.992-0.057-1.813-0.198-2.465c-0.113-0.651-0.283-1.161-0.51-1.559
		c-0.227-0.396-0.51-0.651-0.822-0.821c-0.34-0.17-0.708-0.255-1.133-0.255c-0.454,0-0.85,0.085-1.19,0.255s-0.624,0.453-0.85,0.821
		c-0.227,0.397-0.396,0.907-0.538,1.587c-0.113,0.651-0.17,1.444-0.17,2.437c0,0.963,0.057,1.756,0.198,2.408
		c0.113,0.651,0.283,1.161,0.51,1.558s0.51,0.68,0.85,0.85s0.708,0.256,1.133,0.256c0.425,0,0.793-0.086,1.133-0.256
		c0.34-0.17,0.624-0.453,0.85-0.85s0.425-0.906,0.538-1.558C258.901,446.169,258.986,445.376,258.986,444.413L258.986,444.413z"/>
	<path fill-rule="evenodd" clip-rule="evenodd" fill="#1B1B1B" d="M264.595,448.69v1.474c0,0.312,0,0.595-0.028,0.85
		s-0.057,0.51-0.142,0.708c-0.057,0.227-0.113,0.425-0.198,0.624c-0.085,0.198-0.198,0.396-0.312,0.595h-1.077
		c0.255-0.396,0.482-0.794,0.624-1.162c0.142-0.396,0.198-0.793,0.198-1.161h-0.765v-1.927H264.595L264.595,448.69z"/>
	<path fill-rule="evenodd" clip-rule="evenodd" fill="#1B1B1B" d="M267.173,450.617v-1.104c0.283-0.709,0.652-1.304,1.105-1.842
		c0.425-0.51,0.878-0.991,1.332-1.417c0.481-0.425,0.963-0.821,1.417-1.189c0.481-0.34,0.878-0.708,1.275-1.076
		c0.368-0.369,0.68-0.737,0.906-1.134c0.227-0.425,0.34-0.85,0.34-1.359c0-0.368-0.057-0.681-0.17-0.936
		c-0.085-0.255-0.255-0.481-0.454-0.68c-0.198-0.17-0.425-0.312-0.708-0.396s-0.595-0.142-0.935-0.142
		c-0.312,0-0.595,0.057-0.878,0.142c-0.283,0.085-0.538,0.198-0.736,0.396c-0.227,0.17-0.396,0.396-0.538,0.651
		c-0.142,0.256-0.227,0.567-0.284,0.907l-1.615-0.142c0.057-0.453,0.198-0.879,0.368-1.275c0.199-0.396,0.482-0.736,0.822-1.02
		c0.34-0.312,0.737-0.538,1.218-0.708s1.02-0.255,1.643-0.255c0.624,0,1.162,0.085,1.643,0.227c0.482,0.142,0.907,0.368,1.218,0.651
		c0.34,0.283,0.595,0.623,0.765,1.048s0.255,0.907,0.255,1.474c0,0.425-0.057,0.821-0.198,1.189
		c-0.17,0.368-0.369,0.736-0.624,1.077c-0.227,0.34-0.538,0.651-0.85,0.963c-0.34,0.34-0.68,0.651-1.02,0.935
		c-0.368,0.312-0.737,0.595-1.105,0.907c-0.34,0.283-0.68,0.595-1.02,0.878c-0.312,0.312-0.595,0.623-0.85,0.935
		c-0.255,0.283-0.453,0.623-0.595,0.963h6.459v1.332H267.173L267.173,450.617z"/>
	<path fill-rule="evenodd" clip-rule="evenodd" fill="#1B1B1B" d="M431.006,445.404c0,1.189-0.113,2.182-0.34,3.003
		s-0.51,1.474-0.906,1.955c-0.396,0.51-0.85,0.878-1.389,1.104c-0.51,0.198-1.076,0.312-1.672,0.312
		c-0.594,0-1.16-0.113-1.699-0.312c-0.51-0.227-0.963-0.595-1.359-1.076c-0.369-0.51-0.68-1.162-0.906-1.983
		c-0.199-0.793-0.312-1.813-0.312-3.003c0-1.246,0.113-2.295,0.312-3.088c0.227-0.821,0.537-1.473,0.934-1.955
		c0.369-0.51,0.822-0.85,1.359-1.048c0.539-0.198,1.105-0.283,1.729-0.283c0.596,0,1.133,0.085,1.645,0.283
		c0.537,0.198,0.99,0.538,1.359,1.048c0.396,0.482,0.707,1.134,0.934,1.955C430.893,443.109,431.006,444.158,431.006,445.404
		L431.006,445.404z M429.42,445.404c0-0.991-0.057-1.813-0.199-2.465c-0.113-0.651-0.283-1.161-0.51-1.558s-0.51-0.652-0.822-0.822
		c-0.34-0.17-0.707-0.255-1.133-0.255c-0.453,0-0.85,0.085-1.189,0.255s-0.623,0.454-0.85,0.822
		c-0.227,0.396-0.396,0.906-0.539,1.586c-0.113,0.651-0.17,1.445-0.17,2.437c0,0.963,0.057,1.757,0.199,2.408
		c0.113,0.651,0.283,1.161,0.51,1.558c0.227,0.397,0.51,0.681,0.85,0.851s0.709,0.255,1.133,0.255c0.426,0,0.793-0.085,1.133-0.255
		c0.342-0.17,0.625-0.453,0.852-0.851c0.227-0.396,0.424-0.906,0.537-1.558S429.42,446.367,429.42,445.404L429.42,445.404z"/>
	<path fill-rule="evenodd" clip-rule="evenodd" fill="#1B1B1B" d="M435.029,449.683v1.473c0,0.312,0,0.595-0.029,0.85
		c-0.027,0.255-0.057,0.511-0.141,0.709c-0.057,0.227-0.113,0.425-0.199,0.623c-0.084,0.198-0.197,0.396-0.311,0.595h-1.078
		c0.256-0.396,0.482-0.793,0.625-1.161c0.141-0.396,0.197-0.794,0.197-1.162h-0.766v-1.926H435.029L435.029,449.683z"/>
	<path fill-rule="evenodd" clip-rule="evenodd" fill="#1B1B1B" d="M444.434,448.804v2.805h-1.5v-2.805h-5.809v-1.218l5.666-8.386
		h1.643v8.357h1.758v1.246H444.434L444.434,448.804z M442.934,441.014c0,0.028-0.029,0.085-0.086,0.17
		c-0.027,0.085-0.084,0.17-0.141,0.283c-0.057,0.085-0.113,0.198-0.199,0.312c-0.057,0.113-0.113,0.198-0.143,0.255l-3.172,4.703
		c-0.029,0.028-0.086,0.113-0.143,0.17c-0.057,0.085-0.113,0.17-0.17,0.227c-0.057,0.085-0.113,0.17-0.17,0.255
		c-0.057,0.057-0.113,0.113-0.141,0.17h4.363V441.014L442.934,441.014z"/>
	<path fill-rule="evenodd" clip-rule="evenodd" fill="#1B1B1B" d="M600.561,444.413c0,1.189-0.113,2.182-0.34,3.003
		s-0.51,1.473-0.906,1.955c-0.396,0.51-0.85,0.878-1.389,1.104c-0.51,0.198-1.076,0.312-1.672,0.312
		c-0.594,0-1.16-0.113-1.699-0.312c-0.51-0.227-0.963-0.595-1.359-1.077c-0.369-0.51-0.68-1.161-0.906-1.982
		c-0.199-0.793-0.312-1.813-0.312-3.003c0-1.247,0.113-2.295,0.312-3.088c0.227-0.822,0.537-1.474,0.934-1.955
		c0.369-0.51,0.822-0.85,1.361-1.048c0.537-0.198,1.104-0.283,1.727-0.283c0.596,0,1.135,0.085,1.645,0.283
		c0.537,0.198,0.99,0.538,1.359,1.048c0.396,0.481,0.709,1.133,0.936,1.955C600.447,442.118,600.561,443.166,600.561,444.413
		L600.561,444.413z M598.975,444.413c0-0.992-0.057-1.813-0.199-2.465c-0.113-0.651-0.283-1.161-0.51-1.559
		c-0.227-0.396-0.51-0.651-0.82-0.821c-0.34-0.17-0.709-0.255-1.135-0.255c-0.453,0-0.85,0.085-1.189,0.255s-0.623,0.453-0.85,0.821
		c-0.227,0.397-0.396,0.907-0.537,1.587c-0.115,0.651-0.172,1.444-0.172,2.437c0,0.963,0.057,1.756,0.199,2.408
		c0.113,0.651,0.283,1.161,0.51,1.558s0.51,0.68,0.85,0.85s0.709,0.256,1.133,0.256c0.426,0,0.795-0.086,1.135-0.256
		s0.623-0.453,0.85-0.85s0.424-0.906,0.537-1.558C598.889,446.169,598.975,445.376,598.975,444.413L598.975,444.413z"/>
	<path fill-rule="evenodd" clip-rule="evenodd" fill="#1B1B1B" d="M604.584,448.69v1.474c0,0.312,0,0.595-0.029,0.85
		c-0.027,0.255-0.057,0.51-0.141,0.708c-0.057,0.227-0.113,0.425-0.199,0.624c-0.084,0.198-0.197,0.396-0.311,0.595h-1.076
		c0.254-0.396,0.48-0.794,0.623-1.162c0.141-0.396,0.197-0.793,0.197-1.161h-0.764v-1.927H604.584L604.584,448.69z"/>
	<path fill-rule="evenodd" clip-rule="evenodd" fill="#1B1B1B" d="M615.463,446.566c0,0.623-0.086,1.189-0.256,1.699
		s-0.424,0.963-0.764,1.332c-0.34,0.368-0.736,0.68-1.248,0.878c-0.51,0.198-1.076,0.312-1.727,0.312
		c-0.709,0-1.332-0.142-1.871-0.425c-0.566-0.255-0.99-0.651-1.359-1.19c-0.369-0.51-0.623-1.133-0.793-1.897
		c-0.199-0.765-0.283-1.615-0.283-2.578c0-1.104,0.113-2.068,0.311-2.89c0.199-0.85,0.482-1.53,0.879-2.097
		c0.369-0.538,0.85-0.963,1.389-1.246c0.537-0.283,1.162-0.425,1.869-0.425c0.396,0,0.793,0.057,1.162,0.142
		c0.367,0.085,0.707,0.227,1.02,0.425s0.566,0.453,0.793,0.765c0.227,0.34,0.396,0.708,0.539,1.189l-1.502,0.284
		c-0.17-0.539-0.426-0.936-0.793-1.162c-0.369-0.255-0.766-0.368-1.246-0.368c-0.426,0-0.822,0.113-1.191,0.312
		c-0.34,0.198-0.65,0.51-0.877,0.935c-0.256,0.397-0.453,0.907-0.566,1.53c-0.143,0.595-0.199,1.331-0.199,2.153
		c0.283-0.538,0.68-0.936,1.219-1.219c0.51-0.283,1.105-0.425,1.785-0.425c0.566,0,1.076,0.085,1.529,0.283
		c0.453,0.17,0.85,0.425,1.162,0.766c0.34,0.368,0.594,0.765,0.764,1.246C615.377,445.404,615.463,445.942,615.463,446.566
		L615.463,446.566z M613.877,446.623c0-0.426-0.057-0.822-0.17-1.162c-0.115-0.34-0.256-0.623-0.482-0.878
		c-0.199-0.255-0.453-0.425-0.766-0.566c-0.311-0.142-0.68-0.198-1.104-0.198c-0.283,0-0.568,0.057-0.852,0.142
		c-0.311,0.085-0.566,0.198-0.793,0.396c-0.254,0.198-0.424,0.453-0.594,0.765c-0.143,0.312-0.227,0.68-0.227,1.133
		c0,0.454,0.057,0.879,0.197,1.275c0.113,0.396,0.283,0.736,0.482,1.02c0.227,0.312,0.48,0.538,0.793,0.708
		c0.311,0.171,0.68,0.256,1.049,0.256c0.396,0,0.736-0.057,1.02-0.199c0.311-0.142,0.566-0.312,0.793-0.566
		c0.197-0.255,0.367-0.566,0.482-0.906C613.82,447.473,613.877,447.076,613.877,446.623L613.877,446.623z"/>
	<polygon fill-rule="evenodd" clip-rule="evenodd" fill="#1B1B1B" points="326.553,498.41 326.553,486.029 335.958,486.029 
		335.958,487.39 328.225,487.39 328.225,491.355 335.42,491.355 335.42,492.716 328.225,492.716 328.225,497.05 336.299,497.05 
		336.299,498.41 326.553,498.41 	"/>
	<path fill-rule="evenodd" clip-rule="evenodd" fill="#1B1B1B" d="M344.316,498.41v-6.034c0-0.454-0.028-0.851-0.113-1.162
		c-0.057-0.312-0.17-0.566-0.312-0.736c-0.17-0.198-0.368-0.34-0.623-0.425c-0.227-0.057-0.539-0.113-0.907-0.113
		c-0.396,0-0.737,0.057-1.02,0.198c-0.312,0.142-0.566,0.312-0.765,0.566c-0.227,0.255-0.397,0.566-0.51,0.935
		s-0.17,0.794-0.17,1.247v5.524h-1.586v-7.479c0-0.198,0-0.425,0-0.623c0-0.227,0-0.425-0.028-0.623c0-0.198,0-0.369,0-0.511
		s-0.028-0.227-0.028-0.283h1.501c0,0.028,0,0.113,0.028,0.255c0,0.113,0,0.255,0,0.426c0.028,0.17,0.028,0.34,0.028,0.51
		s0,0.312,0,0.453h0.028c0.17-0.283,0.34-0.538,0.51-0.765c0.17-0.227,0.397-0.396,0.624-0.567c0.255-0.142,0.51-0.283,0.821-0.368
		c0.312-0.085,0.68-0.113,1.105-0.113c0.51,0,0.963,0.057,1.36,0.198c0.368,0.113,0.68,0.312,0.935,0.596
		c0.227,0.255,0.425,0.623,0.538,1.048s0.17,0.935,0.17,1.501v6.347H344.316L344.316,498.41z"/>
	<path fill-rule="evenodd" clip-rule="evenodd" fill="#1B1B1B" d="M349.472,493.99c0,0.481,0.028,0.963,0.142,1.36
		c0.113,0.425,0.255,0.793,0.481,1.076c0.198,0.312,0.482,0.538,0.822,0.708s0.736,0.255,1.19,0.255c0.68,0,1.247-0.142,1.643-0.396
		c0.425-0.283,0.708-0.623,0.85-1.048l1.389,0.396c-0.113,0.255-0.227,0.51-0.426,0.793c-0.17,0.255-0.396,0.51-0.707,0.708
		c-0.312,0.228-0.681,0.397-1.134,0.539c-0.425,0.142-0.963,0.198-1.615,0.198c-1.388,0-2.465-0.425-3.202-1.247
		c-0.736-0.85-1.104-2.096-1.104-3.739c0-0.906,0.113-1.644,0.34-2.267s0.51-1.133,0.907-1.501c0.396-0.396,0.85-0.681,1.359-0.851
		c0.51-0.17,1.048-0.255,1.644-0.255c0.793,0,1.473,0.113,2.011,0.368s0.964,0.624,1.274,1.077c0.34,0.453,0.566,0.991,0.709,1.614
		c0.142,0.624,0.198,1.275,0.198,1.983v0.227H349.472L349.472,493.99z M354.6,492.772c-0.085-0.992-0.34-1.729-0.765-2.21
		c-0.425-0.453-1.02-0.68-1.813-0.68c-0.255,0-0.539,0.028-0.822,0.142c-0.283,0.085-0.566,0.227-0.822,0.453
		c-0.227,0.198-0.453,0.51-0.623,0.878s-0.255,0.85-0.283,1.417H354.6L354.6,492.772z"/>
	<path fill-rule="evenodd" clip-rule="evenodd" fill="#1B1B1B" d="M358.227,498.41v-7.31c0-0.198,0-0.396,0-0.595
		c0-0.227,0-0.425-0.029-0.595c0-0.198,0-0.396,0-0.567c0-0.17-0.027-0.312-0.027-0.453h1.501c0,0.142,0,0.283,0.028,0.453
		c0,0.199,0,0.369,0.028,0.539c0,0.198,0,0.368,0,0.538s0,0.312,0,0.425h0.057c0.113-0.368,0.227-0.68,0.34-0.963
		c0.142-0.255,0.284-0.482,0.454-0.652s0.367-0.312,0.594-0.396s0.539-0.113,0.851-0.113c0.142,0,0.255,0,0.368,0.028
		s0.227,0.028,0.283,0.057v1.445c-0.113-0.028-0.227-0.057-0.368-0.057c-0.142-0.028-0.312-0.028-0.481-0.028
		c-0.369,0-0.68,0.085-0.936,0.255c-0.254,0.17-0.453,0.396-0.623,0.68c-0.142,0.283-0.255,0.623-0.34,1.048
		c-0.085,0.397-0.113,0.822-0.113,1.304v4.958H358.227L358.227,498.41z"/>
	<path fill-rule="evenodd" clip-rule="evenodd" fill="#1B1B1B" d="M367.801,502.149c-0.537,0-1.02-0.057-1.443-0.17
		c-0.426-0.113-0.794-0.255-1.077-0.481c-0.312-0.198-0.566-0.453-0.737-0.736c-0.197-0.284-0.311-0.624-0.396-0.964l1.587-0.227
		c0.085,0.425,0.341,0.765,0.681,1.02c0.367,0.228,0.85,0.341,1.416,0.341c0.369,0,0.709-0.028,0.992-0.143
		c0.283-0.085,0.537-0.255,0.736-0.481c0.197-0.227,0.367-0.51,0.48-0.85s0.17-0.793,0.17-1.274v-1.559h-0.027
		c-0.113,0.255-0.256,0.481-0.426,0.708s-0.396,0.396-0.623,0.566c-0.254,0.171-0.537,0.312-0.877,0.426
		c-0.342,0.085-0.709,0.142-1.135,0.142c-0.594,0-1.104-0.085-1.529-0.283c-0.453-0.227-0.793-0.511-1.076-0.936
		c-0.256-0.396-0.453-0.906-0.596-1.501c-0.113-0.595-0.17-1.275-0.17-2.068c0-0.765,0.057-1.444,0.17-2.068
		c0.143-0.595,0.34-1.133,0.623-1.558c0.284-0.425,0.652-0.737,1.105-0.964s1.02-0.34,1.672-0.34c0.65,0,1.246,0.142,1.729,0.453
		c0.51,0.312,0.877,0.766,1.16,1.332l0,0c0-0.17,0.029-0.312,0.029-0.51c0-0.17,0.027-0.34,0.027-0.51
		c0-0.171,0.029-0.284,0.029-0.426c0-0.113,0.027-0.17,0.027-0.198h1.502c0,0.057,0,0.142,0,0.283
		c-0.027,0.113-0.027,0.284-0.027,0.454s0,0.368,0,0.566c-0.029,0.227-0.029,0.453-0.029,0.68v7.253
		c0,1.331-0.311,2.351-0.963,3.003C370.152,501.81,369.133,502.149,367.801,502.149L367.801,502.149z M370.209,493.65
		c0-0.651-0.084-1.218-0.227-1.7c-0.141-0.481-0.311-0.85-0.566-1.161c-0.227-0.283-0.48-0.51-0.793-0.651
		c-0.311-0.142-0.623-0.198-0.936-0.198c-0.396,0-0.736,0.057-1.047,0.198c-0.283,0.142-0.51,0.368-0.709,0.651
		c-0.198,0.312-0.34,0.708-0.425,1.161c-0.085,0.482-0.142,1.049-0.142,1.7c0,0.68,0.057,1.274,0.142,1.729
		c0.085,0.453,0.227,0.85,0.425,1.133c0.17,0.283,0.426,0.481,0.709,0.595c0.283,0.142,0.623,0.198,1.02,0.198
		c0.311,0,0.623-0.057,0.936-0.198c0.311-0.142,0.566-0.34,0.82-0.651c0.227-0.283,0.426-0.651,0.566-1.133
		C370.125,494.868,370.209,494.302,370.209,493.65L370.209,493.65z"/>
	<path fill-rule="evenodd" clip-rule="evenodd" fill="#1B1B1B" d="M374.119,486.88v-1.502h1.586v1.502H374.119L374.119,486.88z
		 M374.119,498.438v-9.52h1.586v9.52H374.119L374.119,498.438z"/>
	<path fill-rule="evenodd" clip-rule="evenodd" fill="#1B1B1B" d="M380.521,498.58c-0.936,0-1.672-0.255-2.152-0.766
		c-0.482-0.51-0.709-1.189-0.709-2.067c0-0.651,0.113-1.162,0.369-1.559c0.227-0.396,0.537-0.708,0.906-0.963
		c0.396-0.227,0.822-0.368,1.332-0.453c0.48-0.113,0.99-0.142,1.5-0.142h2.125v-0.539c0-0.396-0.027-0.708-0.113-0.991
		c-0.084-0.283-0.227-0.51-0.396-0.68s-0.367-0.283-0.623-0.368c-0.254-0.085-0.566-0.113-0.906-0.113c-0.312,0-0.566,0-0.822,0.057
		c-0.254,0.028-0.453,0.113-0.65,0.227c-0.17,0.113-0.312,0.283-0.426,0.481s-0.197,0.425-0.227,0.736l-1.643-0.142
		c0.057-0.396,0.17-0.736,0.34-1.048c0.141-0.312,0.396-0.595,0.68-0.821c0.311-0.228,0.68-0.397,1.133-0.511
		c0.453-0.142,1.02-0.198,1.643-0.198c1.219,0,2.098,0.283,2.721,0.822c0.594,0.538,0.906,1.331,0.906,2.379v4.08
		c0,0.481,0.057,0.85,0.17,1.076s0.369,0.34,0.709,0.34c0.084,0,0.17,0,0.254,0c0.086-0.028,0.17-0.028,0.256-0.057v0.992
		c-0.199,0.057-0.396,0.085-0.596,0.113c-0.197,0.028-0.396,0.028-0.623,0.028c-0.283,0-0.566-0.028-0.766-0.113
		c-0.227-0.085-0.396-0.198-0.537-0.368c-0.113-0.171-0.227-0.369-0.283-0.596c-0.086-0.227-0.113-0.51-0.143-0.821h-0.057
		c-0.17,0.283-0.34,0.566-0.566,0.821c-0.197,0.227-0.424,0.453-0.707,0.624c-0.256,0.17-0.568,0.312-0.908,0.396
		S380.975,498.58,380.521,498.58L380.521,498.58z M380.891,497.39c0.51,0,0.934-0.085,1.33-0.283c0.369-0.17,0.682-0.396,0.936-0.68
		c0.256-0.283,0.426-0.595,0.566-0.935c0.113-0.34,0.17-0.681,0.17-0.992v-0.765h-1.729c-0.396,0-0.764,0.028-1.104,0.085
		c-0.34,0.028-0.652,0.142-0.906,0.283c-0.283,0.142-0.482,0.368-0.625,0.623c-0.17,0.255-0.254,0.624-0.254,1.049
		c0,0.51,0.141,0.906,0.426,1.189C379.984,497.248,380.381,497.39,380.891,497.39L380.891,497.39z"/>
	<path fill-rule="evenodd" clip-rule="evenodd" fill="#1B1B1B" d="M394.291,493.594c0,0.566,0.057,1.048,0.113,1.502
		c0.084,0.481,0.227,0.878,0.424,1.189c0.17,0.34,0.426,0.595,0.736,0.765c0.312,0.198,0.68,0.283,1.133,0.283
		c0.568,0,1.021-0.142,1.418-0.453c0.367-0.283,0.594-0.736,0.68-1.359h1.615c-0.057,0.396-0.17,0.793-0.34,1.161
		c-0.199,0.368-0.426,0.68-0.738,0.963c-0.283,0.283-0.65,0.511-1.104,0.681c-0.426,0.17-0.906,0.255-1.502,0.255
		c-0.736,0-1.359-0.113-1.898-0.368c-0.51-0.255-0.934-0.596-1.246-1.049c-0.34-0.453-0.566-0.963-0.709-1.558
		c-0.141-0.624-0.227-1.275-0.227-1.955c0-0.651,0.057-1.218,0.17-1.7c0.086-0.481,0.256-0.906,0.426-1.274
		c0.197-0.368,0.424-0.68,0.68-0.935s0.539-0.454,0.85-0.596c0.283-0.142,0.596-0.255,0.936-0.312c0.34-0.085,0.68-0.113,1.02-0.113
		c0.539,0,0.992,0.085,1.416,0.227c0.426,0.142,0.766,0.34,1.076,0.596c0.312,0.255,0.539,0.566,0.738,0.906
		c0.197,0.34,0.311,0.708,0.396,1.104l-1.615,0.142c-0.086-0.538-0.312-0.963-0.623-1.274c-0.34-0.312-0.822-0.453-1.445-0.453
		c-0.453,0-0.822,0.057-1.133,0.227c-0.283,0.142-0.539,0.368-0.709,0.68c-0.197,0.283-0.34,0.68-0.424,1.133
		C394.348,492.461,394.291,492.999,394.291,493.594L394.291,493.594z"/>
	<path fill-rule="evenodd" clip-rule="evenodd" fill="#1B1B1B" d="M402.053,486.88v-1.502h1.586v1.502H402.053L402.053,486.88z
		 M402.053,498.438v-9.52h1.586v9.52H402.053L402.053,498.438z"/>
	<path fill-rule="evenodd" clip-rule="evenodd" fill="#1B1B1B" d="M412.082,498.41v-6.034c0-0.454-0.029-0.851-0.113-1.162
		c-0.057-0.312-0.17-0.566-0.312-0.736c-0.17-0.198-0.367-0.34-0.623-0.425c-0.227-0.057-0.539-0.113-0.906-0.113
		c-0.396,0-0.736,0.057-1.02,0.198c-0.312,0.142-0.566,0.312-0.766,0.566c-0.227,0.255-0.396,0.566-0.51,0.935
		s-0.17,0.794-0.17,1.247v5.524h-1.586v-7.479c0-0.198,0-0.425,0-0.623c0-0.227,0-0.425-0.029-0.623c0-0.198,0-0.369,0-0.511
		s-0.027-0.227-0.027-0.283h1.5c0,0.028,0,0.113,0.029,0.255c0,0.113,0,0.255,0,0.426c0.027,0.17,0.027,0.34,0.027,0.51
		s0,0.312,0,0.453h0.029c0.17-0.283,0.34-0.538,0.51-0.765s0.396-0.396,0.623-0.567c0.256-0.142,0.51-0.283,0.822-0.368
		c0.311-0.085,0.68-0.113,1.104-0.113c0.512,0,0.965,0.057,1.361,0.198c0.367,0.113,0.68,0.312,0.934,0.596
		c0.227,0.255,0.426,0.623,0.539,1.048s0.17,0.935,0.17,1.501v6.347H412.082L412.082,498.41z"/>
	<path fill-rule="evenodd" clip-rule="evenodd" fill="#1B1B1B" d="M417.238,493.99c0,0.481,0.027,0.963,0.141,1.36
		c0.113,0.425,0.256,0.793,0.482,1.076c0.197,0.312,0.48,0.538,0.82,0.708s0.736,0.255,1.191,0.255c0.68,0,1.246-0.142,1.643-0.396
		c0.424-0.283,0.707-0.623,0.85-1.048l1.389,0.396c-0.113,0.255-0.227,0.51-0.426,0.793c-0.17,0.255-0.396,0.51-0.707,0.708
		c-0.312,0.228-0.682,0.397-1.135,0.539c-0.424,0.142-0.963,0.198-1.613,0.198c-1.389,0-2.465-0.425-3.203-1.247
		c-0.736-0.85-1.104-2.096-1.104-3.739c0-0.906,0.113-1.644,0.34-2.267s0.51-1.133,0.906-1.501c0.396-0.396,0.85-0.681,1.359-0.851
		s1.049-0.255,1.645-0.255c0.793,0,1.473,0.113,2.01,0.368c0.539,0.255,0.965,0.624,1.275,1.077c0.34,0.453,0.566,0.991,0.709,1.614
		c0.141,0.624,0.197,1.275,0.197,1.983v0.227H417.238L417.238,493.99z M422.365,492.772c-0.086-0.992-0.34-1.729-0.766-2.21
		c-0.424-0.453-1.02-0.68-1.812-0.68c-0.256,0-0.539,0.028-0.822,0.142c-0.283,0.085-0.566,0.227-0.82,0.453
		c-0.227,0.198-0.453,0.51-0.623,0.878s-0.256,0.85-0.283,1.417H422.365L422.365,492.772z M418.654,487.843v-0.17l1.926-2.521h1.812
		v0.255l-2.889,2.437H418.654L418.654,487.843z"/>
	<path fill-rule="evenodd" clip-rule="evenodd" fill="#1B1B1B" d="M429.617,498.354c-0.254,0.057-0.48,0.113-0.736,0.142
		c-0.254,0.028-0.537,0.057-0.879,0.057c-1.246,0-1.896-0.709-1.896-2.153v-6.346h-1.078v-1.162h1.162l0.453-2.124h1.049v2.124
		h1.756v1.162h-1.756v6.006c0,0.453,0.084,0.765,0.227,0.963c0.141,0.17,0.426,0.283,0.793,0.283c0.143,0,0.283-0.028,0.426-0.057
		c0.141,0,0.311-0.028,0.48-0.085V498.354L429.617,498.354z"/>
	<path fill-rule="evenodd" clip-rule="evenodd" fill="#1B1B1B" d="M430.979,486.88v-1.502h1.586v1.502H430.979L430.979,486.88z
		 M430.979,498.438v-9.52h1.586v9.52H430.979L430.979,498.438z"/>
	<path fill-rule="evenodd" clip-rule="evenodd" fill="#1B1B1B" d="M436.162,493.594c0,0.566,0.057,1.048,0.113,1.502
		c0.084,0.481,0.227,0.878,0.426,1.189c0.17,0.34,0.424,0.595,0.736,0.765c0.311,0.198,0.68,0.283,1.133,0.283
		c0.566,0,1.02-0.142,1.416-0.453c0.369-0.283,0.596-0.736,0.68-1.359h1.615c-0.057,0.396-0.17,0.793-0.34,1.161
		c-0.199,0.368-0.426,0.68-0.736,0.963c-0.283,0.283-0.652,0.511-1.105,0.681c-0.424,0.17-0.906,0.255-1.502,0.255
		c-0.736,0-1.359-0.113-1.896-0.368c-0.512-0.255-0.936-0.596-1.248-1.049c-0.34-0.453-0.566-0.963-0.707-1.558
		c-0.143-0.624-0.227-1.275-0.227-1.955c0-0.651,0.057-1.218,0.17-1.7c0.084-0.481,0.254-0.906,0.424-1.274
		c0.199-0.368,0.426-0.68,0.68-0.935c0.256-0.255,0.539-0.454,0.85-0.596c0.285-0.142,0.596-0.255,0.936-0.312
		c0.34-0.085,0.68-0.113,1.02-0.113c0.539,0,0.992,0.085,1.418,0.227c0.424,0.142,0.764,0.34,1.076,0.596
		c0.311,0.255,0.537,0.566,0.736,0.906c0.197,0.34,0.311,0.708,0.396,1.104l-1.615,0.142c-0.084-0.538-0.311-0.963-0.623-1.274
		c-0.34-0.312-0.822-0.453-1.445-0.453c-0.453,0-0.82,0.057-1.133,0.227c-0.283,0.142-0.537,0.368-0.707,0.68
		c-0.199,0.283-0.342,0.68-0.426,1.133C436.219,492.461,436.162,492.999,436.162,493.594L436.162,493.594z"/>
	<path fill-rule="evenodd" clip-rule="evenodd" fill="#1B1B1B" d="M446.361,498.58c-0.936,0-1.672-0.255-2.154-0.766
		c-0.48-0.51-0.707-1.189-0.707-2.067c0-0.651,0.113-1.162,0.367-1.559c0.227-0.396,0.539-0.708,0.906-0.963
		c0.396-0.227,0.822-0.368,1.332-0.453c0.482-0.113,0.992-0.142,1.502-0.142h2.125v-0.539c0-0.396-0.029-0.708-0.113-0.991
		c-0.086-0.283-0.227-0.51-0.396-0.68s-0.369-0.283-0.623-0.368c-0.256-0.085-0.568-0.113-0.908-0.113c-0.311,0-0.566,0-0.82,0.057
		c-0.256,0.028-0.453,0.113-0.652,0.227c-0.17,0.113-0.311,0.283-0.424,0.481s-0.199,0.425-0.227,0.736l-1.645-0.142
		c0.057-0.396,0.17-0.736,0.34-1.048c0.143-0.312,0.396-0.595,0.68-0.821c0.312-0.228,0.682-0.397,1.135-0.511
		c0.453-0.142,1.02-0.198,1.643-0.198c1.219,0,2.096,0.283,2.719,0.822c0.596,0.538,0.908,1.331,0.908,2.379v4.08
		c0,0.481,0.057,0.85,0.17,1.076s0.367,0.34,0.707,0.34c0.086,0,0.17,0,0.256,0c0.084-0.028,0.17-0.028,0.254-0.057v0.992
		c-0.197,0.057-0.396,0.085-0.594,0.113c-0.199,0.028-0.396,0.028-0.623,0.028c-0.283,0-0.568-0.028-0.766-0.113
		c-0.227-0.085-0.396-0.198-0.539-0.368c-0.113-0.171-0.227-0.369-0.283-0.596c-0.084-0.227-0.113-0.51-0.141-0.821h-0.057
		c-0.17,0.283-0.34,0.566-0.566,0.821c-0.199,0.227-0.426,0.453-0.709,0.624c-0.254,0.17-0.566,0.312-0.906,0.396
		S446.814,498.58,446.361,498.58L446.361,498.58z M446.729,497.39c0.51,0,0.936-0.085,1.332-0.283c0.369-0.17,0.68-0.396,0.936-0.68
		c0.254-0.283,0.424-0.595,0.566-0.935c0.113-0.34,0.17-0.681,0.17-0.992v-0.765h-1.729c-0.396,0-0.766,0.028-1.105,0.085
		c-0.34,0.028-0.65,0.142-0.906,0.283c-0.283,0.142-0.48,0.368-0.623,0.623c-0.17,0.255-0.256,0.624-0.256,1.049
		c0,0.51,0.143,0.906,0.426,1.189S446.219,497.39,446.729,497.39L446.729,497.39z"/>
	<path fill-rule="evenodd" clip-rule="evenodd" fill="#1B1B1B" d="M458.826,493.735c0-0.793,0.084-1.587,0.197-2.323
		s0.312-1.473,0.568-2.153c0.283-0.68,0.623-1.359,1.02-1.982c0.396-0.651,0.906-1.275,1.473-1.898h1.529
		c-0.566,0.623-1.02,1.247-1.445,1.898c-0.396,0.651-0.707,1.303-0.99,2.011c-0.256,0.681-0.426,1.389-0.566,2.125
		c-0.113,0.766-0.17,1.53-0.17,2.352s0.057,1.587,0.17,2.352c0.141,0.736,0.311,1.444,0.566,2.153
		c0.283,0.68,0.594,1.359,0.99,1.982c0.426,0.652,0.879,1.275,1.445,1.898h-1.529c-0.566-0.623-1.076-1.246-1.473-1.898
		c-0.396-0.623-0.736-1.303-1.02-1.982c-0.256-0.681-0.455-1.417-0.568-2.153s-0.197-1.502-0.197-2.323V493.735L458.826,493.735z"/>
	<path fill-rule="evenodd" clip-rule="evenodd" fill="#1B1B1B" d="M475.711,498.41v-8.272c0-0.283,0-0.595,0-0.907
		c0-0.312,0-0.595,0.027-0.85c0-0.312,0.029-0.595,0.029-0.878c-0.086,0.312-0.17,0.595-0.256,0.906
		c-0.057,0.227-0.141,0.51-0.227,0.793c-0.113,0.284-0.197,0.539-0.283,0.766l-3.201,8.442h-1.162l-3.258-8.442
		c-0.027-0.085-0.057-0.198-0.113-0.312c-0.027-0.113-0.057-0.227-0.113-0.369c-0.057-0.142-0.084-0.255-0.141-0.396
		c-0.029-0.142-0.086-0.283-0.113-0.425c-0.113-0.312-0.199-0.623-0.283-0.963c0,0.34,0,0.651,0.027,0.991c0,0.255,0,0.566,0,0.85
		c0.029,0.312,0.029,0.567,0.029,0.794v8.272h-1.502v-12.381h2.209l3.287,8.584c0.057,0.113,0.084,0.255,0.141,0.453
		c0.086,0.171,0.115,0.369,0.172,0.567s0.113,0.368,0.141,0.538c0.057,0.17,0.086,0.312,0.113,0.396
		c0-0.085,0.029-0.227,0.086-0.396s0.113-0.368,0.17-0.538c0.057-0.198,0.113-0.396,0.17-0.567c0.057-0.198,0.113-0.34,0.17-0.453
		l3.229-8.584h2.154v12.381H475.711L475.711,498.41z"/>
	<path fill-rule="evenodd" clip-rule="evenodd" fill="#1B1B1B" d="M481.15,493.99c0,0.481,0.027,0.963,0.141,1.36
		c0.113,0.425,0.256,0.793,0.482,1.076c0.197,0.312,0.48,0.538,0.822,0.708c0.34,0.17,0.736,0.255,1.189,0.255
		c0.68,0,1.246-0.142,1.643-0.396c0.426-0.283,0.709-0.623,0.85-1.048l1.389,0.396c-0.113,0.255-0.227,0.51-0.426,0.793
		c-0.17,0.255-0.396,0.51-0.707,0.708c-0.312,0.228-0.68,0.397-1.133,0.539c-0.426,0.142-0.965,0.198-1.615,0.198
		c-1.389,0-2.465-0.425-3.201-1.247c-0.736-0.85-1.105-2.096-1.105-3.739c0-0.906,0.113-1.644,0.34-2.267s0.51-1.133,0.906-1.501
		c0.396-0.396,0.85-0.681,1.359-0.851c0.512-0.17,1.049-0.255,1.645-0.255c0.793,0,1.473,0.113,2.012,0.368
		c0.537,0.255,0.963,0.624,1.273,1.077c0.34,0.453,0.566,0.991,0.709,1.614c0.141,0.624,0.197,1.275,0.197,1.983v0.227H481.15
		L481.15,493.99z M486.277,492.772c-0.084-0.992-0.34-1.729-0.764-2.21c-0.426-0.453-1.021-0.68-1.814-0.68
		c-0.254,0-0.537,0.028-0.82,0.142c-0.283,0.085-0.568,0.227-0.822,0.453c-0.227,0.198-0.453,0.51-0.623,0.878
		s-0.256,0.85-0.283,1.417H486.277L486.277,492.772z"/>
	<path fill-rule="evenodd" clip-rule="evenodd" fill="#1B1B1B" d="M495.514,498.41h-1.729l-5.043-12.409h1.756l3.43,8.754
		c0.084,0.255,0.17,0.511,0.254,0.766c0.086,0.283,0.17,0.51,0.256,0.708c0.084,0.227,0.141,0.481,0.227,0.708
		c0.084-0.227,0.141-0.453,0.227-0.68c0.084-0.227,0.141-0.453,0.227-0.708c0.084-0.255,0.197-0.539,0.283-0.794l3.398-8.754h1.785
		L495.514,498.41L495.514,498.41z"/>
	<path fill-rule="evenodd" clip-rule="evenodd" fill="#1B1B1B" d="M505.514,493.792c0,0.821-0.057,1.587-0.17,2.323
		c-0.141,0.736-0.34,1.473-0.596,2.153c-0.254,0.68-0.594,1.359-1.02,1.982c-0.396,0.652-0.877,1.275-1.445,1.898h-1.529
		c0.539-0.623,1.02-1.246,1.416-1.898c0.398-0.623,0.738-1.303,0.992-1.982c0.256-0.709,0.453-1.417,0.566-2.153
		c0.143-0.765,0.199-1.53,0.199-2.352s-0.057-1.586-0.199-2.352c-0.113-0.736-0.311-1.444-0.566-2.125
		c-0.254-0.708-0.594-1.359-0.992-2.011c-0.396-0.651-0.877-1.275-1.416-1.898h1.529c0.568,0.623,1.049,1.247,1.445,1.898
		c0.426,0.623,0.766,1.303,1.02,1.982c0.256,0.681,0.455,1.417,0.596,2.153c0.113,0.736,0.17,1.53,0.17,2.323V493.792
		L505.514,493.792z"/>
	<g>
		<defs>
			<rect id="SVGID_1_" width="706.402" height="526.627"/>
		</defs>
		<clipPath id="SVGID_2_">
			<use xlink:href="#SVGID_1_"  overflow="visible"/>
		</clipPath>
		
			<path clip-path="url(#SVGID_2_)" fill="none" stroke="#018001" stroke-width="2.8897" stroke-linejoin="round" stroke-miterlimit="10" d="
			M113.483,365.457c89.948-612.58,282.167-59.635,534.021,48.303"/>
	</g>
	<path fill-rule="evenodd" clip-rule="evenodd" fill="#1B1B1B" d="M587.613,287.776c-0.084,1.161-0.254,1.586-0.707,1.586
		c-0.51,0-0.963-0.736-1.559-2.72c1.869-1.558,2.834-3.569,2.834-5.864c0-3.683-2.748-6.629-6.234-6.629
		c-1.473,0-2.719,0.481-3.824,1.444c-1.473,1.332-2.322,3.287-2.322,5.355c0,3.739,2.775,6.742,6.289,6.742
		c0.596,0,0.992-0.085,1.586-0.283c0.086,2.182,0.992,3.428,2.465,3.428c1.445,0,2.324-1.161,2.295-3.06H587.613L587.613,287.776z
		 M584.865,285.283c-0.453-1.7-1.557-2.635-3.059-2.635c-1.529,0-2.607,1.02-2.607,2.437c0,0.057,0,0.198,0.029,0.34
		c-0.736-0.963-1.076-2.408-1.076-4.476c0-1.785,0.311-3.258,0.934-4.363c0.539-1.02,1.588-1.586,2.918-1.586
		c1.361,0,2.521,0.65,3.061,1.784c0.539,0.991,0.736,2.267,0.736,4.108C585.801,282.988,585.547,284.15,584.865,285.283
		L584.865,285.283z M583.619,286.444c-0.566,0.284-0.99,0.397-1.699,0.397c-1.189,0-1.898-0.567-1.898-1.559
		c0-1.076,0.709-1.785,1.672-1.785c1.246,0,1.926,1.021,1.926,2.776V286.444L583.619,286.444z"/>
	<path fill-rule="evenodd" clip-rule="evenodd" fill="#1B1B1B" d="M589.908,285.425h9.066v-1.444h-9.066V285.425L589.908,285.425z
		 M589.908,281.799h9.066v-1.445h-9.066V281.799L589.908,281.799z"/>
	<path fill-rule="evenodd" clip-rule="evenodd" fill="#1B1B1B" d="M605.037,274.773c-2.521,0-4.334,2.748-4.334,6.516
		c0,3.711,1.785,6.431,4.191,6.431c2.521,0,4.279-2.635,4.279-6.374c0-1.927-0.396-3.514-1.133-4.731
		C607.332,275.453,606.17,274.773,605.037,274.773L605.037,274.773z M604.924,275.537c0.596,0,1.162,0.397,1.586,1.105
		c0.51,0.85,0.652,1.898,0.652,4.363c0,2.521-0.113,3.711-0.482,4.504c-0.396,0.906-1.047,1.445-1.729,1.445
		c-0.594,0-1.189-0.396-1.613-1.134c-0.51-0.85-0.652-1.983-0.652-4.901c0-2.096,0.143-3.172,0.482-3.938
		C603.592,276.048,604.244,275.537,604.924,275.537L604.924,275.537z"/>
	<path fill-rule="evenodd" clip-rule="evenodd" fill="#1B1B1B" d="M611.439,290.723c1.615-1.076,2.352-2.182,2.352-3.456
		c0-1.077-0.596-1.785-1.473-1.785c-0.652,0-1.162,0.481-1.162,1.077c0,0.651,0.482,1.076,1.219,1.076c0.084,0,0.254,0,0.283-0.028
		h0.057c0.113,0,0.141,0.057,0.141,0.17c0,0.765-0.623,1.614-1.812,2.465L611.439,290.723L611.439,290.723z"/>
	<path fill-rule="evenodd" clip-rule="evenodd" fill="#1B1B1B" d="M617.672,281.317c0.199-2.238,0.283-2.833,0.68-3.769
		c0.51-1.274,1.475-2.012,2.607-2.012c0.623,0,0.99,0.199,0.99,0.511c0,0.085,0,0.142-0.084,0.255
		c-0.17,0.34-0.256,0.595-0.256,0.85c0,0.623,0.453,1.077,1.078,1.077c0.68,0,1.189-0.538,1.189-1.304
		c0-1.246-1.246-2.152-2.947-2.152c-1.473,0-2.861,0.68-3.711,1.897c-0.992,1.388-1.529,3.258-1.529,5.241
		c0,3.513,1.729,5.808,4.391,5.808c1.162,0,2.125-0.396,2.891-1.19c0.764-0.793,1.246-1.982,1.246-3.116
		c0-2.124-1.529-3.711-3.57-3.711C619.428,279.702,618.521,280.184,617.672,281.317L617.672,281.317z M620.166,280.807
		c1.303,0,2.066,1.021,2.066,2.72c0,2.097-0.82,3.429-2.123,3.429c-0.822,0-1.445-0.454-1.871-1.332
		c-0.283-0.538-0.424-1.161-0.424-1.842C617.814,281.94,618.691,280.807,620.166,280.807L620.166,280.807z"/>
	<path fill-rule="evenodd" clip-rule="evenodd" fill="#1B1B1B" d="M627.814,276.784c0.963,0.227,1.473,0.312,2.182,0.312
		c1.529,0,2.635-0.538,3.229-1.529c0.199-0.34,0.283-0.51,0.283-0.652c0-0.113-0.057-0.17-0.141-0.17
		c-0.057,0-0.143,0.029-0.256,0.086c-0.877,0.367-1.359,0.453-2.379,0.453c-1.162,0-1.812-0.086-3.711-0.539
		c-0.057,1.53-0.227,3.457-0.482,5.694c-0.367,0.396-0.51,0.624-0.51,0.907c0,0.368,0.256,0.623,0.596,0.623
		c0.424,0,0.736-0.396,0.793-1.105c0.623-0.453,1.219-0.651,1.955-0.651c1.586,0,2.578,1.247,2.578,3.314
		c0,1.19-0.312,2.238-0.85,2.776c-0.369,0.396-1.105,0.652-1.842,0.652c-1.076,0-2.211-0.567-2.211-1.134
		c0-0.113,0.113-0.255,0.34-0.396c0.566-0.34,0.709-0.566,0.709-1.048c0-0.652-0.482-1.134-1.133-1.134
		c-0.709,0-1.275,0.681-1.275,1.53c0,0.878,0.51,1.785,1.332,2.352c0.594,0.396,1.332,0.595,2.266,0.595
		c2.834,0,4.619-1.672,4.619-4.307c0-2.464-1.645-4.107-4.08-4.107c-0.736,0-1.332,0.142-2.324,0.538L627.814,276.784
		L627.814,276.784z"/>
	<path fill-rule="evenodd" clip-rule="evenodd" fill="#1B1B1B" d="M641.045,280.807c0.254-0.085,0.283-0.085,0.396-0.142
		c1.275-0.538,1.982-1.529,1.982-2.805c0-1.869-1.445-3.087-3.654-3.087c-2.125,0-3.711,1.246-3.711,2.861
		c0,0.736,0.51,1.274,1.189,1.274c0.623,0,1.049-0.425,1.049-1.077c0-0.396-0.143-0.651-0.539-0.935
		c-0.197-0.113-0.254-0.198-0.254-0.312c0-0.51,1.076-1.049,2.068-1.049c1.303,0,1.982,0.794,1.982,2.323
		c0,1.672-0.68,2.55-1.982,2.55c-0.143,0-0.455,0-0.709,0c-0.143-0.028-0.283-0.028-0.396-0.028c-0.369,0-0.566,0.17-0.566,0.481
		c0,0.312,0.197,0.454,0.537,0.454c0.057,0,0.199,0,0.453-0.028c0.682,0,0.682,0,0.822,0c1.332,0,2.068,0.963,2.068,2.748
		c0,1.841-0.936,2.918-2.521,2.918c-1.133,0-2.352-0.624-2.352-1.19c0-0.142,0.029-0.198,0.396-0.396
		c0.482-0.312,0.68-0.595,0.68-1.048c0-0.652-0.48-1.134-1.133-1.134c-0.766,0-1.275,0.651-1.275,1.587
		c0,1.728,1.588,2.946,3.883,2.946c2.605,0,4.305-1.445,4.305-3.654C643.764,282.365,642.887,281.317,641.045,280.807
		L641.045,280.807z"/>
	<path fill-rule="evenodd" clip-rule="evenodd" fill="#1B1B1B" d="M654.982,274.433h-4.646v0.851h0.34
		c1.475,0,1.645,0.084,1.645,0.85v0.51v6.94c0,2.437-0.369,2.976-2.098,2.976v0.878h5.129v-0.878c-1.701,0-2.068-0.539-2.068-2.976
		v-7.989l4.277,11.843h0.709l4.023-11.843v9.633v0.51c0,0.793-0.172,0.85-1.615,0.85h-0.34v0.851h5.92v-0.851h-0.34
		c-1.445,0-1.615-0.057-1.615-0.85v-0.51v-8.584v-0.51c0-0.766,0.17-0.85,1.615-0.85h0.34v-0.851h-4.533l-3.285,9.604
		L654.982,274.433L654.982,274.433z"/>
	<path fill-rule="evenodd" clip-rule="evenodd" fill="#1B1B1B" d="M675.211,283.385c0.027-2.691-1.502-4.589-3.711-4.589
		c-2.295,0-4.023,1.982-4.023,4.702c0,2.521,1.643,4.222,4.08,4.222c1.699,0,2.918-0.85,3.654-2.55l-0.623-0.34
		c-0.736,1.388-1.502,1.926-2.691,1.926c-0.936,0-1.588-0.396-2.068-1.189c-0.312-0.538-0.453-1.189-0.426-2.182H675.211
		L675.211,283.385z M669.402,282.62c0-0.566,0.086-0.963,0.256-1.444c0.367-1.105,0.963-1.615,1.812-1.615
		c1.105,0,1.812,0.963,1.812,2.38c0,0.538-0.141,0.68-0.736,0.68H669.402L669.402,282.62z"/>
	<path fill-rule="evenodd" clip-rule="evenodd" fill="#1B1B1B" d="M682.916,284.66l-3.314-8.386
		c-0.084-0.227-0.141-0.425-0.141-0.538c0-0.34,0.311-0.453,1.133-0.453h0.707v-0.851h-5.609v0.851h0.369
		c0.793,0,1.02,0.17,1.389,1.02l4.531,11.417h0.738l4.135-10.681c0.539-1.416,0.936-1.756,1.955-1.756h0.17v-0.851h-4.873v0.851
		h0.34c0.936,0,1.475,0.34,1.475,0.935c0,0.255-0.113,0.651-0.227,0.991L682.916,284.66L682.916,284.66z"/>
	<polygon fill-rule="evenodd" clip-rule="evenodd" fill="#0101FF" points="643.283,311.488 643.283,386.762 642.547,386.762 
		641.838,386.762 641.838,311.488 642.547,311.488 643.283,311.488 	"/>
	<polygon fill-rule="evenodd" clip-rule="evenodd" fill="#0101FF" points="642.547,401.437 648.666,383.078 636.426,383.078 
		642.547,401.437 	"/>
	
		<path fill="none" stroke="#010101" stroke-width="0" stroke-linejoin="round" stroke-miterlimit="10" stroke-dasharray="1.4448,1.4448,1.4448,1.4448" d="
		M266.89,419.426V77.625 M181.9,419.454V77.653 M436.871,419.426V77.625 M351.88,419.454V77.653 M606.85,419.426V77.625
		 M521.859,419.454V77.653"/>
</g>
</svg>
