<?xml version="1.0" encoding="utf-8"?>
<!-- Generator: Adobe Illustrator 16.0.0, SVG Export Plug-In . SVG Version: 6.00 Build 0)  -->
<!DOCTYPE svg PUBLIC "-//W3C//DTD SVG 1.1//EN" "http://www.w3.org/Graphics/SVG/1.1/DTD/svg11.dtd">
<svg version="1.1" id="Layer_1" xmlns="http://www.w3.org/2000/svg" xmlns:xlink="http://www.w3.org/1999/xlink" x="0px" y="0px"
	 width="563.995px" height="299.463px" viewBox="0 0 563.995 299.463" enable-background="new 0 0 563.995 299.463"
	 xml:space="preserve">
<path fill-rule="evenodd" clip-rule="evenodd" fill="#1B1B1B" d="M8.259,109.37l-0.404,1.128c-0.213,0.596-0.639,1.086-1.299,1.448
	c-0.425,0.256-1,0.362-1.767,0.383c-1.341-0.021-2.427-0.533-3.278-1.576c-0.852-1.085-1.277-2.469-1.277-4.193
	c0-1.682,0.426-3.065,1.277-4.151c0.809-1.043,2.044-1.555,3.747-1.555c1.15,0,2.022,0.234,2.619,0.682
	c0.532,0.404,0.873,1.042,1.086,1.937l0.084,0.383l0.383-1.15c0.256-0.724,0.724-1.255,1.448-1.618H11.9v0.618
	c-0.66,0.212-1.107,0.618-1.32,1.277L9.494,105.9l0.724,3.15c0.256,1.064,0.511,1.66,0.767,1.788c0.383,0.171,0.979,0,1.852-0.532
	v1.256c-1.405,0.788-2.576,0.788-3.555-0.064c-0.447-0.383-0.745-0.852-0.852-1.405L8.259,109.37L8.259,109.37z M7.833,107.348
	l-0.66-3.023c-0.341-1.596-0.979-2.405-1.894-2.405c-0.788,0-1.491,0.426-2.087,1.256c-0.49,0.703-0.745,1.831-0.745,3.427
	c0,1.49,0.255,2.64,0.745,3.406c0.532,0.852,1.256,1.234,2.193,1.17c0.787-0.063,1.468-0.937,2.022-2.619L7.833,107.348
	L7.833,107.348z"/>
<path fill-rule="evenodd" clip-rule="evenodd" fill="#1B1B1B" d="M2.426,155.758c0.554,0.404,1.32,0.596,2.342,0.596
	c1.043,0,1.874-0.298,2.47-0.916c0.596-0.596,0.915-1.426,0.915-2.491c0-1.426-0.319-2.448-0.937-3.065
	c-0.638-0.639-1.554-0.958-2.746-0.958H3.491v-1.107h0.511c0.873,0,1.618-0.234,2.213-0.724c0.49-0.404,0.746-1.149,0.746-2.235
	c0-0.469-0.17-0.979-0.489-1.511c-0.533-0.873-1.107-1.32-1.725-1.32c-1.554,0-2.321,1.363-2.321,4.108V155.758L2.426,155.758z
	 M0.532,161.463v-15.285c0-2.874,0.766-4.513,2.32-4.896c0.81-0.192,1.491-0.298,2.065-0.298c1.277,0,2.321,0.511,3.151,1.512
	c0.639,0.788,0.979,1.533,0.979,2.214c0,0.979-0.255,1.745-0.724,2.32c-0.468,0.554-1.128,0.979-1.979,1.256
	c1.235,0.17,2.213,0.639,2.938,1.384c0.682,0.745,1.043,1.831,1.043,3.257c0,1.448-0.489,2.534-1.447,3.3s-2.363,1.15-4.151,1.15
	c-1.128,0-1.874-0.085-2.3-0.234v4.321H0.532L0.532,161.463z"/>
<path fill-rule="evenodd" clip-rule="evenodd" fill="#1B1B1B" d="M6.535,205.575c0.426,2.023,0.447,3.406,0.043,4.151
	c-0.32,0.596-0.703,0.872-1.192,0.894c-0.724-0.022-1.236-0.362-1.555-1.064c-0.362-0.788-0.063-1.958,0.895-3.513l-2.917-9.665H0
	v-1.108h3.491l2.661,8.878c1.554-2.086,2.427-3.853,2.598-5.279c0.084-0.683,0.042-1.257-0.128-1.704
	c-0.256-0.746-0.575-1.172-0.894-1.279v-0.617h1.149c0.788,0.489,1.277,0.938,1.468,1.341c0.277,0.576,0.426,1.044,0.426,1.407
	c0,0.66-0.362,1.639-1.064,2.959C9.43,201.488,8.387,203.02,6.535,205.575L6.535,205.575z"/>
<rect x="385.939" y="51.741" fill="#595959" stroke="#000000" stroke-miterlimit="10" width="94.029" height="217.165"/>
<polygon fill="#595959" stroke="#000000" stroke-miterlimit="10" points="479.968,51.741 385.939,51.741 355.803,1.796 
	449.341,1.796 "/>
<polygon fill="#595959" stroke="#000000" stroke-miterlimit="10" points="385.939,268.906 355.803,210.621 355.803,1.796 
	385.939,51.741 "/>
<polygon fill="#BABABA" stroke="#000000" stroke-miterlimit="10" points="286.635,268.906 256.499,210.621 256.499,1.796 
	286.635,51.741 "/>
<polygon fill="#FFFFFF" stroke="#000000" stroke-miterlimit="10" points="167.442,274.54 137.306,216.254 137.306,7.43 
	167.442,57.374 "/>
<path fill="none" stroke="#000000" stroke-miterlimit="10" d="M148.446,206.889l-3.224-4.157c-2.725-2.735-5.045-1.333-6.854,0.676
	c-1.808,2.009-4.019,10.067-8.351,3.93l-3.223-4.157c-2.926-2.938-5.848-1.209-7.224,1.136c-0.75,1.28-3.774,9.014-8.106,2.877
	l-3.223-4.157c-2.224-2.231-4.238-1.726-5.838-0.359c0,0-0.648,0.462-1.148,1.641c0,0-3.097,8.851-7.428,2.715l-3.224-4.158
	c-2.926-2.938-5.848-1.21-7.224,1.135c-0.751,1.28-3.775,9.014-8.106,2.877l-3.224-4.157c-2.725-2.735-5.046-1.333-6.854,0.676
	c-1.808,2.009-4.019,10.067-8.351,3.93l-3.223-4.157c-2.927-2.938-5.848-1.209-7.224,1.136c-0.751,1.28-3.774,9.014-8.106,2.877
	l-3.223-4.157c-5.399-5.419-9.563,5.302-9.563,5.302"/>
<path fill="none" stroke="#000000" stroke-miterlimit="10" d="M147.571,200.243l-3.224-4.157c-2.725-2.735-5.045-1.333-6.854,0.676
	c-1.808,2.009-4.019,10.067-8.351,3.93l-3.224-4.157c-2.926-2.937-5.848-1.209-7.224,1.136c-0.75,1.28-3.774,9.014-8.106,2.877
	l-3.223-4.157c-2.224-2.232-4.238-1.726-5.838-0.359c0,0-0.648,0.462-1.148,1.641c0,0-3.097,8.851-7.428,2.715l-3.224-4.158
	c-2.926-2.938-5.848-1.21-7.224,1.135c-0.75,1.28-3.775,9.014-8.106,2.877l-3.224-4.157c-2.725-2.735-5.045-1.333-6.854,0.676
	c-1.808,2.009-4.019,10.067-8.351,3.93l-3.223-4.157c-2.926-2.937-5.848-1.209-7.224,1.136c-0.75,1.28-3.774,9.014-8.106,2.877
	l-3.223-4.157c-5.399-5.419-9.562,5.302-9.562,5.302"/>
<path fill="none" stroke="#000000" stroke-miterlimit="10" d="M147.571,193.255l-3.224-4.157c-2.725-2.736-5.045-1.334-6.854,0.676
	c-1.808,2.009-4.019,10.067-8.351,3.93l-3.224-4.157c-2.926-2.937-5.848-1.209-7.224,1.136c-0.75,1.279-3.774,9.014-8.106,2.877
	l-3.223-4.157c-2.224-2.231-4.238-1.725-5.838-0.359c0,0-0.648,0.462-1.148,1.641c0,0-3.097,8.851-7.428,2.715l-3.224-4.158
	c-2.926-2.938-5.848-1.21-7.224,1.135c-0.75,1.28-3.775,9.014-8.106,2.877l-3.224-4.157c-2.725-2.736-5.045-1.334-6.854,0.676
	c-1.808,2.009-4.019,10.067-8.351,3.93l-3.223-4.157c-2.926-2.937-5.848-1.209-7.224,1.136c-0.75,1.279-3.774,9.014-8.106,2.877
	l-3.223-4.157c-5.399-5.419-9.562,5.302-9.562,5.302"/>
<path fill="none" stroke="#000000" stroke-miterlimit="10" d="M261.623,204.486c-0.751,1.279-3.774,9.014-8.106,2.877l-3.223-4.157
	c-2.225-2.231-4.238-1.725-5.838-0.359c0,0-0.649,0.462-1.149,1.641c0,0-3.098,8.85-7.428,2.714l-3.224-4.158
	c-2.926-2.938-5.848-1.21-7.224,1.135c-0.75,1.28-3.775,9.014-8.106,2.877l-3.224-4.157c-2.725-2.736-5.045-1.334-6.854,0.676
	c-1.808,2.009-4.019,10.067-8.351,3.93l-3.224-4.157c-2.926-2.937-5.848-1.209-7.224,1.136c-0.75,1.279-3.774,9.014-8.106,2.877
	l-3.223-4.157c-5.399-5.419-9.562,5.302-9.562,5.302"/>
<path fill="none" stroke="#000000" stroke-miterlimit="10" d="M260.748,197.84c-0.751,1.28-3.774,9.014-8.106,2.877l-3.223-4.157
	c-2.225-2.232-4.238-1.726-5.838-0.359c0,0-0.649,0.462-1.149,1.641c0,0-3.098,8.851-7.428,2.715l-3.224-4.158
	c-2.927-2.938-5.848-1.21-7.224,1.135c-0.75,1.28-3.775,9.014-8.106,2.877l-3.224-4.157c-2.725-2.735-5.045-1.333-6.854,0.676
	c-1.808,2.009-4.019,10.067-8.351,3.93l-3.224-4.157c-2.926-2.938-5.848-1.209-7.224,1.136c-0.75,1.28-3.774,9.014-8.106,2.877
	l-3.224-4.157c-5.399-5.419-9.562,5.302-9.562,5.302"/>
<path fill="none" stroke="#000000" stroke-miterlimit="10" d="M260.748,190.852c-0.751,1.279-3.774,9.014-8.106,2.877l-3.223-4.157
	c-2.225-2.23-4.238-1.724-5.838-0.358c0,0-0.649,0.462-1.149,1.641c0,0-3.098,8.851-7.428,2.714l-3.224-4.157
	c-2.927-2.937-5.848-1.21-7.224,1.135c-0.75,1.28-3.775,9.014-8.106,2.877l-3.224-4.156c-2.725-2.735-5.045-1.333-6.854,0.675
	c-1.808,2.009-4.019,10.067-8.351,3.93l-3.224-4.157c-2.926-2.936-5.848-1.208-7.224,1.136c-0.75,1.279-3.774,9.014-8.106,2.877
	l-3.224-4.157c-5.399-5.418-9.562,5.302-9.562,5.302"/>
<path fill="none" stroke="#000000" stroke-miterlimit="10" d="M370.248,203.854c-2.224-2.231-4.238-1.725-5.837-0.358
	c0,0-0.649,0.462-1.149,1.641c0,0-3.098,8.851-7.428,2.715l-3.225-4.158c-2.926-2.938-5.847-1.21-7.223,1.135
	c-0.752,1.279-3.775,9.014-8.106,2.877l-3.225-4.157c-2.725-2.735-5.046-1.334-6.854,0.676c-1.809,2.009-4.019,10.067-8.351,3.93
	l-3.224-4.157c-2.927-2.937-5.848-1.209-7.224,1.136c-0.752,1.28-3.774,9.014-8.107,2.877l-3.222-4.157
	c-5.399-5.419-9.562,5.302-9.562,5.302"/>
<path fill="none" stroke="#000000" stroke-miterlimit="10" d="M369.373,197.208c-2.225-2.231-4.238-1.725-5.838-0.358
	c0,0-0.648,0.462-1.148,1.641c0,0-3.098,8.851-7.429,2.715l-3.224-4.158c-2.926-2.938-5.848-1.21-7.224,1.136
	c-0.751,1.279-3.775,9.014-8.105,2.877l-3.225-4.157c-2.725-2.735-5.046-1.334-6.854,0.676c-1.808,2.009-4.018,10.067-8.351,3.93
	l-3.223-4.157c-2.927-2.937-5.849-1.209-7.225,1.136c-0.751,1.28-3.774,9.014-8.106,2.877l-3.223-4.157
	c-5.399-5.42-9.562,5.302-9.562,5.302"/>
<path fill="none" stroke="#000000" stroke-miterlimit="10" d="M369.373,190.219c-2.225-2.23-4.238-1.724-5.838-0.358
	c0,0-0.648,0.462-1.148,1.641c0,0-3.098,8.852-7.429,2.716l-3.224-4.159c-2.926-2.938-5.848-1.21-7.224,1.135
	c-0.751,1.281-3.775,9.015-8.105,2.878l-3.225-4.158c-2.725-2.735-5.046-1.333-6.854,0.676c-1.808,2.01-4.018,10.068-8.351,3.931
	l-3.223-4.159c-2.927-2.936-5.849-1.208-7.225,1.137c-0.751,1.28-3.774,9.015-8.106,2.878l-3.223-4.159
	c-5.399-5.417-9.562,5.304-9.562,5.304"/>
<path fill="none" stroke="#000000" stroke-miterlimit="10" d="M563.64,207.403c-2.225-2.231-4.238-1.725-5.838-0.359
	c0,0-0.649,0.462-1.148,1.641c0,0-3.098,8.851-7.429,2.714l-3.224-4.158c-2.927-2.938-5.848-1.21-7.224,1.135
	c-0.751,1.28-3.775,9.014-8.106,2.877l-3.224-4.157c-2.726-2.735-5.046-1.334-6.854,0.676c-1.808,2.009-4.019,10.067-8.351,3.93
	l-3.224-4.157c-2.927-2.937-5.848-1.209-7.224,1.136c-0.751,1.279-3.774,9.014-8.106,2.877l-3.223-4.157
	c-5.399-5.419-9.562,5.302-9.562,5.302"/>
<path fill="none" stroke="#000000" stroke-miterlimit="10" d="M506.75,198.971c-2.225-2.232-4.238-1.726-5.838-0.359
	c0,0-0.649,0.462-1.148,1.641c0,0-3.098,8.851-7.429,2.715l-3.224-4.158c-2.927-2.938-5.848-1.21-7.224,1.135
	c0,0-0.624,0.686-1.92,3.83"/>
<circle fill="#66FF99" cx="35.77" cy="151.224" r="6.939"/>
<line fill="none" stroke="#000000" stroke-miterlimit="10" x1="56.997" y1="151.224" x2="147.571" y2="151.224"/>
<g>
	<g>
		<line fill="none" stroke="#000000" stroke-miterlimit="10" x1="167.442" y1="151.224" x2="253.571" y2="151.224"/>
		<g>
			<polygon points="252.112,156.21 260.748,151.224 252.112,146.237 			"/>
		</g>
	</g>
</g>
<circle fill="#FF6464" cx="35.566" cy="99.652" r="6.939"/>
<circle fill="#6666FF" cx="42.914" cy="106.592" r="6.939"/>
<circle fill="#6666FF" cx="28.626" cy="106.592" r="6.939"/>
<circle fill="#FF6464" cx="35.566" cy="113.531" r="6.939"/>
<g>
	<g>
		<line fill="none" stroke="#000000" stroke-miterlimit="10" x1="56.997" y1="106.592" x2="140.395" y2="106.592"/>
		<g>
			<polygon points="138.936,111.579 147.571,106.592 138.936,101.606 			"/>
		</g>
	</g>
</g>
<text transform="matrix(1 0 0 1 152.374 296.4634)" font-family="'MyriadPro-Regular'" font-size="12">Papel</text>
<text transform="matrix(1 0 0 1 261.623 296.4634)" font-family="'MyriadPro-Regular'" font-size="12">Alumínio</text>
<text transform="matrix(1 0 0 1 412.2329 296.4634)" font-family="'MyriadPro-Regular'" font-size="12">Chumbo</text>
</svg>
