<?xml version="1.0" encoding="utf-8"?>
<!-- Generator: Adobe Illustrator 16.0.0, SVG Export Plug-In . SVG Version: 6.00 Build 0)  -->
<!DOCTYPE svg PUBLIC "-//W3C//DTD SVG 1.1//EN" "http://www.w3.org/Graphics/SVG/1.1/DTD/svg11.dtd">
<svg version="1.1" id="Layer_2" xmlns="http://www.w3.org/2000/svg" xmlns:xlink="http://www.w3.org/1999/xlink" x="0px" y="0px"
	 width="181.552px" height="250.354px" viewBox="0 0 181.552 250.354" enable-background="new 0 0 181.552 250.354"
	 xml:space="preserve">
<rect x="0.5" y="0.5" fill="none" stroke="#009FDA" width="5.667" height="238.854"/>
<rect x="146.771" y="0.562" fill="none" stroke="#009FDA" width="5.666" height="238.792"/>
<rect x="166.25" y="40.646" fill="none" stroke="#000000" width="4.499" height="99.625"/>
<rect x="159.75" y="40.771" fill="none" stroke="#4D4D4D" width="2.499" height="99.416"/>
<line fill="none" stroke="#009FDA" x1="76.979" y1="84.604" x2="77" y2="87.604"/>
<path fill="none" stroke="#009FDA" d="M77,99.688"/>
<line fill="none" stroke="#009FDA" x1="76.978" y1="96.583" x2="77" y2="99.583"/>
<line fill="none" stroke="#009FDA" x1="76.979" y1="108.604" x2="77" y2="111.604"/>
<line fill="none" stroke="#009FDA" x1="77" y1="116.604" x2="76.979" y2="115.583"/>
<line fill="none" stroke="#009FDA" x1="77.042" y1="104.625" x2="77.021" y2="103.604"/>
<line fill="none" stroke="#009FDA" x1="77.021" y1="92.604" x2="77" y2="91.583"/>
<line fill="none" stroke="#009FDA" x1="77.02" y1="132.562" x2="77.042" y2="135.562"/>
<path fill="none" stroke="#009FDA" d="M77.042,147.646"/>
<line fill="none" stroke="#009FDA" x1="77.02" y1="144.542" x2="77.042" y2="147.542"/>
<line fill="none" stroke="#009FDA" x1="77.02" y1="156.562" x2="77.042" y2="159.562"/>
<path stroke="#000000" d="M77.042,164.562"/>
<line fill="none" stroke="#009FDA" x1="77.083" y1="152.584" x2="77.062" y2="151.562"/>
<line fill="none" stroke="#009FDA" x1="77.063" y1="140.562" x2="77.042" y2="139.541"/>
<line fill="none" stroke="#009FDA" x1="76.854" y1="119.73" x2="76.875" y2="123.48"/>
<line fill="none" stroke="#009FDA" x1="76.979" y1="127.604" x2="77" y2="130.604"/>
<path stroke="#000000" d="M81.167,126.272"/>
<path fill="none" stroke="#009FDA" d="M76.875,119.355"/>
<path fill="none" stroke="#009FDA" d="M76.875,119.355"/>
<path stroke="#000000" d="M81.084,125.897"/>
<polygon fill="none" stroke="#000000" points="79.935,126.189 76.329,119.625 71.92,126.26 "/>
<text transform="matrix(1 0 0 1 40 202.9375)" font-family="'StoneSans'" font-size="10">Âmpola de vidro</text>
<text transform="matrix(1 0 0 1 56.5 28.1875)"><tspan x="0" y="0" font-family="'StoneSans'" font-size="10">Trajetória </tspan><tspan x="0" y="12" font-family="'StoneSans'" font-size="10">do elétron</tspan></text>
<text transform="matrix(1 0 0 1 54.5 233.4375)"><tspan x="0" y="0" font-family="'StoneSans'" font-size="10">Bobinas de</tspan><tspan x="0" y="12" font-family="'StoneSans'" font-size="10">Helmholtz</tspan></text>
<text transform="matrix(1 0 0 1 106.667 113.8545)" font-family="'StoneSans'" font-size="10">Ânodo</text>
<text transform="matrix(1 0 0 1 100.667 146.7705)" font-family="'StoneSans'" font-size="10">Cátodo</text>
<text transform="matrix(0 1 -1 0 173.1816 153.209)" font-family="'StoneSans'" font-size="10">Espelho</text>
<text transform="matrix(0 1 -1 0 162.6699 196.2207)" font-family="'StoneSans'" font-size="10">Marcadores</text>
<line fill="none" stroke="#000000" x1="71.375" y1="128.312" x2="80.5" y2="128.312"/>
<g>
	<g>
		<line fill="none" stroke="#000000" x1="76.975" y1="50.938" x2="76.975" y2="76.021"/>
		<polygon points="73.271,73.212 76.975,74.785 80.678,73.212 76.975,81.99 		"/>
	</g>
</g>
<g>
	<g>
		<line fill="none" stroke="#000000" x1="104.5" y1="117.688" x2="87.5" y2="120.688"/>
		<polygon points="89.622,116.552 88.717,120.473 90.909,123.847 81.621,121.725 		"/>
	</g>
</g>
<g>
	<g>
		<line fill="none" stroke="#000000" x1="101.5" y1="137.021" x2="87.75" y2="132.188"/>
		<polygon points="91.628,129.624 88.916,132.598 89.172,136.613 82.118,130.208 		"/>
	</g>
</g>
<g>
	<g>
		<line fill="none" stroke="#000000" x1="76.979" y1="189.564" x2="76.833" y2="173.021"/>
		<polygon points="80.562,175.797 76.844,174.256 73.155,175.861 76.781,167.052 		"/>
	</g>
</g>
<g>
	<g>
		<line fill="none" stroke="#000000" x1="41.5" y1="236.021" x2="15.167" y2="236.021"/>
		<polygon points="17.975,232.316 16.402,236.021 17.975,239.724 9.197,236.021 		"/>
	</g>
</g>
<g>
	<g>
		<line fill="none" stroke="#000000" x1="112.98" y1="235.121" x2="137.833" y2="235.121"/>
		<polygon points="135.024,238.825 136.598,235.121 135.024,231.418 143.803,235.121 		"/>
	</g>
</g>
<g>
	<g>
		<line fill="none" stroke="#000000" x1="160.167" y1="250.354" x2="160.167" y2="149.625"/>
		<polygon points="163.871,152.434 160.167,150.861 156.463,152.434 160.167,143.656 		"/>
	</g>
</g>
<g>
	<g>
		<line fill="none" stroke="#000000" x1="170.167" y1="187.688" x2="170.167" y2="150.021"/>
		<polygon points="173.871,152.829 170.167,151.256 166.463,152.829 170.167,144.051 		"/>
	</g>
</g>
<circle fill="none" stroke="#009FDA" cx="76.875" cy="120.062" r="67.197"/>
</svg>
