<?xml version="1.0" encoding="utf-8"?>
<!-- Generator: Adobe Illustrator 16.0.0, SVG Export Plug-In . SVG Version: 6.00 Build 0)  -->
<!DOCTYPE svg PUBLIC "-//W3C//DTD SVG 1.1//EN" "http://www.w3.org/Graphics/SVG/1.1/DTD/svg11.dtd">
<svg version="1.1" id="Camada_1" xmlns="http://www.w3.org/2000/svg" xmlns:xlink="http://www.w3.org/1999/xlink" x="0px" y="0px"
	 width="299.373px" height="196.836px" viewBox="0 0 299.373 196.836" enable-background="new 0 0 299.373 196.836"
	 xml:space="preserve">
<polygon fill="none" stroke="#000000" stroke-width="0.7527" points="298.997,164.731 34.801,164.731 34.801,45.664 34.801,2.054 
	298.997,2.054 "/>
<line fill="none" stroke="#000000" stroke-width="0.7527" x1="34.425" y1="7.323" x2="38.941" y2="7.323"/>
<line fill="none" stroke="#000000" stroke-width="0.7527" x1="34.425" y1="13.345" x2="38.91" y2="13.345"/>
<line fill="none" stroke="#000000" stroke-width="0.7527" x1="34.425" y1="18.708" x2="38.941" y2="18.708"/>
<line fill="none" stroke="#000000" stroke-width="0.7527" x1="34.425" y1="23.913" x2="38.91" y2="23.913"/>
<line fill="none" stroke="#000000" stroke-width="0.7527" x1="34.425" y1="29.214" x2="43.458" y2="29.214"/>
<line fill="none" stroke="#000000" stroke-width="0.7527" x1="34.425" y1="34.482" x2="38.878" y2="34.482"/>
<line fill="none" stroke="#000000" stroke-width="0.7527" x1="34.425" y1="39.72" x2="38.941" y2="39.72"/>
<line fill="none" stroke="#000000" stroke-width="0.7527" x1="38.91" y1="45.772" x2="34.801" y2="45.772"/>
<line fill="none" stroke="#000000" stroke-width="0.7527" x1="34.801" y1="51.011" x2="38.941" y2="51.011"/>
<line fill="none" stroke="#000000" stroke-width="0.7527" x1="34.801" y1="56.374" x2="43.394" y2="56.374"/>
<line fill="none" stroke="#000000" stroke-width="0.7527" x1="34.801" y1="61.642" x2="38.941" y2="61.642"/>
<line fill="none" stroke="#000000" stroke-width="0.7527" x1="34.801" y1="66.911" x2="38.91" y2="66.911"/>
<line fill="none" stroke="#000000" stroke-width="0.7527" x1="34.801" y1="72.933" x2="38.878" y2="72.933"/>
<line fill="none" stroke="#000000" stroke-width="0.7527" x1="34.801" y1="78.202" x2="38.941" y2="78.202"/>
<line fill="none" stroke="#000000" stroke-width="0.7527" x1="34.801" y1="83.502" x2="43.426" y2="83.502"/>
<line fill="none" stroke="#000000" stroke-width="0.7527" x1="34.801" y1="88.739" x2="38.941" y2="88.739"/>
<line fill="none" stroke="#000000" stroke-width="0.7527" x1="34.801" y1="94.009" x2="38.91" y2="94.009"/>
<line fill="none" stroke="#000000" stroke-width="0.7527" x1="34.801" y1="99.215" x2="38.972" y2="99.215"/>
<line fill="none" stroke="#000000" stroke-width="0.7527" x1="34.801" y1="105.268" x2="38.941" y2="105.268"/>
<line fill="none" stroke="#000000" stroke-width="0.7527" x1="34.801" y1="110.475" x2="43.458" y2="110.475"/>
<line fill="none" stroke="#000000" stroke-width="0.7527" x1="34.801" y1="115.868" x2="38.941" y2="115.868"/>
<line fill="none" stroke="#000000" stroke-width="0.7527" x1="34.801" y1="121.012" x2="38.941" y2="121.012"/>
<line fill="none" stroke="#000000" stroke-width="0.7527" x1="34.801" y1="126.406" x2="38.941" y2="126.406"/>
<line fill="none" stroke="#000000" stroke-width="0.7527" x1="34.801" y1="131.611" x2="38.91" y2="131.611"/>
<line fill="none" stroke="#000000" stroke-width="0.7527" x1="34.801" y1="137.633" x2="43.426" y2="137.633"/>
<line fill="none" stroke="#000000" stroke-width="0.7527" x1="34.801" y1="142.902" x2="38.941" y2="142.902"/>
<line fill="none" stroke="#000000" stroke-width="0.7527" x1="34.801" y1="148.141" x2="38.91" y2="148.141"/>
<line fill="none" stroke="#000000" stroke-width="0.7527" x1="34.801" y1="153.44" x2="38.941" y2="153.44"/>
<line fill="none" stroke="#000000" stroke-width="0.7527" x1="34.801" y1="158.709" x2="38.91" y2="158.709"/>
<polyline fill="none" stroke="#000000" stroke-width="0.7527" points="42.266,164.73 42.266,161.5 45.684,161.5 "/>
<line fill="none" stroke="#000000" stroke-width="1.5054" x1="45.003" y1="164.483" x2="44.96" y2="161.689"/>
<line fill="none" stroke="#000000" stroke-width="1.5054" x1="53.226" y1="164.73" x2="53.242" y2="161.343"/>
<path fill="none" stroke="#000000" stroke-width="0.7527" d="M52.866,156.043v5.395V156.043z"/>
<polyline fill="none" stroke="#000000" stroke-width="0.7527" points="55.876,156.427 52.866,156.427 52.615,156.427 "/>
<path fill="none" stroke="#000000" stroke-width="0.7527" d="M56.159,156.451"/>
<line fill="none" stroke="#000000" stroke-width="0.7527" x1="55.837" y1="156.831" x2="55.837" y2="134.25"/>
<line fill="none" stroke="#000000" stroke-width="0.7527" x1="55.5" y1="134.618" x2="60" y2="134.618"/>
<line fill="none" stroke="#000000" stroke-width="0.7527" x1="59.699" y1="134.979" x2="59.699" y2="120.713"/>
<line fill="none" stroke="#000000" stroke-width="0.7527" x1="59.322" y1="121.043" x2="63.78" y2="121.043"/>
<line fill="none" stroke="#000000" stroke-width="0.7527" x1="63.392" y1="121.396" x2="63.392" y2="13.089"/>
<line fill="none" stroke="#181818" stroke-width="0.7527" x1="63.016" y1="13.407" x2="66.779" y2="13.407"/>
<line fill="none" stroke="#000000" stroke-width="0.7527" x1="66.438" y1="13.03" x2="66.438" y2="86.03"/>
<line fill="none" stroke="#000000" stroke-width="0.7527" x1="66.062" y1="85.689" x2="70.542" y2="85.689"/>
<line fill="none" stroke="#000000" stroke-width="0.7527" x1="70.172" y1="85.542" x2="70.172" y2="148.071"/>
<polyline fill="none" stroke="#000000" stroke-width="0.7527" points="69.802,148.187 73.977,148.187 74.317,148.187 "/>
<line fill="none" stroke="#000000" stroke-width="0.7527" x1="73.926" y1="156.335" x2="73.926" y2="148.09"/>
<line fill="none" stroke="#000000" stroke-width="0.7527" x1="73.542" y1="156.335" x2="77.364" y2="156.335"/>
<line fill="none" stroke="#000000" stroke-width="0.7527" x1="76.987" y1="156.335" x2="76.987" y2="164.44"/>
<line fill="none" stroke="#000000" stroke-width="0.7527" x1="72.436" y1="159.112" x2="72.436" y2="164.381"/>
<polyline fill="none" stroke="#000000" stroke-width="0.7527" points="80.704,164.358 80.704,161.754 80.704,161.359 "/>
<polyline fill="none" stroke="#000000" stroke-width="0.7527" points="84.7,161.727 82.136,161.727 80.595,161.727 "/>
<line fill="none" stroke="#000000" stroke-width="0.7527" x1="82.209" y1="164.73" x2="82.209" y2="161.724"/>
<line fill="none" stroke="#000000" stroke-width="0.7527" x1="84.503" y1="162.101" x2="84.503" y2="158.324"/>
<line fill="none" stroke="#000000" stroke-width="0.7527" x1="84.173" y1="158.701" x2="87.843" y2="158.701"/>
<line fill="none" stroke="#000000" stroke-width="0.7527" x1="87.525" y1="159.077" x2="87.525" y2="150.821"/>
<line fill="none" stroke="#000000" stroke-width="0.7527" x1="87.149" y1="151.115" x2="91.642" y2="151.115"/>
<line fill="none" stroke="#000000" stroke-width="0.7527" x1="91.276" y1="151.468" x2="91.276" y2="142.554"/>
<polyline fill="none" stroke="#000000" stroke-width="0.7527" points="90.913,142.894 95.346,142.894 95.405,142.894 "/>
<line fill="none" stroke="#000000" stroke-width="0.7527" x1="95.029" y1="143.282" x2="95.029" y2="120.701"/>
<line fill="none" stroke="#000000" stroke-width="0.7527" x1="94.7" y1="121.066" x2="98.428" y2="121.066"/>
<line fill="none" stroke="#000000" stroke-width="0.7527" x1="98.074" y1="120.689" x2="98.074" y2="140.26"/>
<line fill="none" stroke="#000000" stroke-width="0.7527" x1="97.757" y1="139.942" x2="102.191" y2="139.942"/>
<line fill="none" stroke="#000000" stroke-width="0.7527" x1="101.826" y1="139.578" x2="101.826" y2="153.819"/>
<polyline fill="none" stroke="#000000" stroke-width="0.7527" points="101.785,153.456 105.602,153.456 105.939,153.456 "/>
<polyline fill="none" stroke="#000000" stroke-width="0.7527" points="105.549,162.089 105.549,161.793 105.549,153.126 "/>
<line fill="none" stroke="#000000" stroke-width="0.7527" x1="108.912" y1="161.712" x2="105.561" y2="161.712"/>
<line fill="none" stroke="#000000" stroke-width="0.7527" x1="101.039" y1="164.358" x2="101.039" y2="161.336"/>
<line fill="none" stroke="#000000" stroke-width="0.7527" x1="108.554" y1="162.089" x2="108.554" y2="158.324"/>
<polyline fill="none" stroke="#000000" stroke-width="0.7527" points="108.177,158.666 110.153,158.666 112.705,158.666 "/>
<line fill="none" stroke="#000000" stroke-width="0.7527" x1="110.036" y1="164.417" x2="110.036" y2="158.983"/>
<line fill="none" stroke="#000000" stroke-width="0.7527" x1="112.364" y1="159.013" x2="112.364" y2="153.079"/>
<line fill="none" stroke="#000000" stroke-width="0.7527" x1="112.011" y1="153.456" x2="116.457" y2="153.456"/>
<line fill="none" stroke="#000000" stroke-width="0.7527" x1="116.092" y1="153.832" x2="116.092" y2="150.798"/>
<line fill="none" stroke="#000000" stroke-width="0.7527" x1="115.716" y1="151.15" x2="123.231" y2="151.15"/>
<line fill="none" stroke="#000000" stroke-width="0.7527" x1="122.855" y1="151.491" x2="122.855" y2="139.507"/>
<line fill="none" stroke="#000000" stroke-width="0.7527" x1="122.479" y1="139.849" x2="127.006" y2="139.849"/>
<polyline fill="none" stroke="#000000" stroke-width="0.7527" points="126.63,140.225 126.63,131.674 126.63,131.24 "/>
<line fill="none" stroke="#000000" stroke-width="0.7527" x1="130.793" y1="131.604" x2="126.254" y2="131.604"/>
<line fill="none" stroke="#000000" stroke-width="0.7527" x1="130.394" y1="131.252" x2="130.394" y2="151.55"/>
<line fill="none" stroke="#000000" stroke-width="0.7527" x1="130.005" y1="151.187" x2="133.77" y2="151.187"/>
<line fill="none" stroke="#000000" stroke-width="0.7527" x1="133.393" y1="150.833" x2="133.393" y2="153.797"/>
<line fill="none" stroke="#000000" stroke-width="0.7527" x1="133.063" y1="153.426" x2="144.328" y2="153.426"/>
<line fill="none" stroke="#000000" stroke-width="0.7527" x1="143.966" y1="153.067" x2="143.966" y2="162.089"/>
<line fill="none" stroke="#000000" stroke-width="0.7527" x1="143.589" y1="161.735" x2="148.47" y2="161.735"/>
<line fill="none" stroke="#000000" stroke-width="0.7527" x1="147.682" y1="162.112" x2="147.682" y2="156.066"/>
<line fill="none" stroke="#000000" stroke-width="0.7527" x1="148.423" y1="159.042" x2="148.423" y2="164.404"/>
<line fill="none" stroke="#000000" stroke-width="0.7527" x1="147.306" y1="156.42" x2="151.845" y2="156.42"/>
<line fill="none" stroke="#000000" stroke-width="0.7527" x1="151.458" y1="156.748" x2="151.458" y2="153.056"/>
<line fill="none" stroke="#000000" stroke-width="0.7527" x1="151.069" y1="153.396" x2="154.856" y2="153.396"/>
<line fill="none" stroke="#000000" stroke-width="0.7527" x1="154.492" y1="153.738" x2="154.492" y2="137.261"/>
<line fill="none" stroke="#000000" stroke-width="0.7527" x1="154.156" y1="137.596" x2="158.596" y2="137.596"/>
<line fill="none" stroke="#000000" stroke-width="0.7527" x1="158.231" y1="137.238" x2="158.231" y2="159.065"/>
<line fill="none" stroke="#000000" stroke-width="0.7527" x1="157.855" y1="158.713" x2="162.371" y2="158.713"/>
<line fill="none" stroke="#000000" stroke-width="0.7527" x1="157.502" y1="164.393" x2="157.502" y2="161.371"/>
<line fill="none" stroke="#000000" stroke-width="0.7527" x1="162.019" y1="159.077" x2="162.019" y2="144.775"/>
<line fill="none" stroke="#000000" stroke-width="0.7527" x1="161.643" y1="145.141" x2="165.383" y2="145.141"/>
<line fill="none" stroke="#000000" stroke-width="0.7527" x1="165.006" y1="144.788" x2="165.006" y2="159.089"/>
<line fill="none" stroke="#000000" stroke-width="0.7527" x1="164.617" y1="158.713" x2="172.921" y2="158.713"/>
<line fill="none" stroke="#000000" stroke-width="0.7527" x1="172.568" y1="158.348" x2="172.568" y2="162.076"/>
<line fill="none" stroke="#000000" stroke-width="0.7527" x1="167.299" y1="164.398" x2="167.299" y2="161.336"/>
<line fill="none" stroke="#000000" stroke-width="0.7527" x1="172.191" y1="161.7" x2="176.672" y2="161.7"/>
<line fill="none" stroke="#000000" stroke-width="0.7527" x1="176.338" y1="161.365" x2="176.338" y2="164.347"/>
<line fill="none" stroke="#000000" stroke-width="0.7527" x1="175.531" y1="161.7" x2="175.531" y2="158.312"/>
<line fill="none" stroke="#000000" stroke-width="0.7527" x1="175.144" y1="158.666" x2="179.695" y2="158.666"/>
<line fill="none" stroke="#000000" stroke-width="0.7527" x1="179.366" y1="159.035" x2="179.366" y2="153.05"/>
<line fill="none" stroke="#000000" stroke-width="0.7527" x1="178.989" y1="153.42" x2="183.447" y2="153.42"/>
<line fill="none" stroke="#000000" stroke-width="0.7527" x1="183.082" y1="153.773" x2="183.082" y2="150.798"/>
<line fill="none" stroke="#000000" stroke-width="0.7527" x1="182.706" y1="151.15" x2="186.47" y2="151.15"/>
<line fill="none" stroke="#000000" stroke-width="0.7527" x1="186.094" y1="151.468" x2="186.094" y2="147.775"/>
<line fill="none" stroke="#000000" stroke-width="0.7527" x1="185.705" y1="148.14" x2="190.232" y2="148.14"/>
<line fill="none" stroke="#000000" stroke-width="0.7527" x1="189.856" y1="147.852" x2="189.856" y2="164.398"/>
<line fill="none" stroke="#000000" stroke-width="0.7527" x1="186.105" y1="164.358" x2="186.105" y2="159.077"/>
<line fill="none" stroke="#000000" stroke-width="0.7527" x1="195.126" y1="164.381" x2="195.126" y2="161.336"/>
<line fill="none" stroke="#000000" stroke-width="0.7527" x1="193.585" y1="164.37" x2="193.585" y2="153.067"/>
<line fill="none" stroke="#000000" stroke-width="0.7527" x1="193.195" y1="153.408" x2="196.992" y2="153.408"/>
<line fill="none" stroke="#000000" stroke-width="0.7527" x1="196.693" y1="153.063" x2="196.693" y2="164.37"/>
<line fill="none" stroke="#000000" stroke-width="0.7527" x1="213.942" y1="164.37" x2="213.942" y2="161.327"/>
<line fill="none" stroke="#000000" stroke-width="0.7527" x1="215.072" y1="161.704" x2="203.719" y2="161.704"/>
<line fill="none" stroke="#000000" stroke-width="0.7527" x1="204.11" y1="164.354" x2="204.11" y2="162.064"/>
<line fill="none" stroke="#000000" stroke-width="0.7527" x1="204.926" y1="164.385" x2="204.926" y2="162.064"/>
<line fill="none" stroke="#000000" stroke-width="0.7527" x1="204.55" y1="161.878" x2="204.55" y2="164.401"/>
<line fill="none" stroke="#000000" stroke-width="0.7527" x1="214.696" y1="162.018" x2="214.696" y2="156.105"/>
<line fill="none" stroke="#000000" stroke-width="0.7527" x1="214.318" y1="156.412" x2="218.067" y2="156.412"/>
<line fill="none" stroke="#000000" stroke-width="0.7527" x1="217.754" y1="156.78" x2="217.754" y2="153.033"/>
<line fill="none" stroke="#000000" stroke-width="0.7527" x1="217.377" y1="153.394" x2="221.847" y2="153.394"/>
<line fill="none" stroke="#000000" stroke-width="0.7527" x1="221.471" y1="153.284" x2="221.471" y2="162.034"/>
<line fill="none" stroke="#000000" stroke-width="0.7527" x1="221.094" y1="161.688" x2="225.625" y2="161.688"/>
<line fill="none" stroke="#000000" stroke-width="0.7527" x1="223.713" y1="164.37" x2="223.713" y2="159.055"/>
<line fill="none" stroke="#000000" stroke-width="0.7527" x1="225.257" y1="162.034" x2="225.257" y2="153.017"/>
<line fill="none" stroke="#000000" stroke-width="0.7527" x1="224.889" y1="153.394" x2="229.389" y2="153.394"/>
<line fill="none" stroke="#000000" stroke-width="0.7527" x1="229.027" y1="153.111" x2="229.027" y2="156.812"/>
<line fill="none" stroke="#000000" stroke-width="0.7527" x1="228.652" y1="156.515" x2="232.385" y2="156.515"/>
<line fill="none" stroke="#000000" stroke-width="0.7527" x1="232.07" y1="156.154" x2="232.07" y2="164.354"/>
<line fill="none" stroke="#000000" stroke-width="0.7527" x1="232.729" y1="161.36" x2="232.729" y2="164.386"/>
<line fill="none" stroke="#000000" stroke-width="0.7527" x1="239.534" y1="164.37" x2="239.534" y2="158.302"/>
<line fill="none" stroke="#000000" stroke-width="0.7527" x1="239.173" y1="158.678" x2="242.906" y2="158.678"/>
<line fill="none" stroke="#000000" stroke-width="0.7527" x1="242.545" y1="158.317" x2="242.545" y2="164.354"/>
<line fill="none" stroke="#000000" stroke-width="0.7527" x1="242.153" y1="161.72" x2="246.67" y2="161.72"/>
<line fill="none" stroke="#000000" stroke-width="0.7527" x1="246.372" y1="161.36" x2="246.372" y2="164.386"/>
<line fill="none" stroke="#000000" stroke-width="0.7527" x1="250.042" y1="164.385" x2="250.042" y2="161.313"/>
<line fill="none" stroke="#000000" stroke-width="0.7527" x1="251.562" y1="164.354" x2="251.562" y2="161.375"/>
<line fill="none" stroke="#000000" stroke-width="0.7527" x1="249.649" y1="161.673" x2="257.223" y2="161.673"/>
<line fill="none" stroke="#000000" stroke-width="0.7527" x1="256.87" y1="161.995" x2="256.87" y2="158.333"/>
<line fill="none" stroke="#000000" stroke-width="0.7527" x1="256.563" y1="158.709" x2="260.971" y2="158.709"/>
<line fill="none" stroke="#000000" stroke-width="0.7527" x1="260.657" y1="158.364" x2="260.657" y2="164.354"/>
<line fill="none" stroke="#000000" stroke-width="0.7527" x1="261.395" y1="159.085" x2="261.395" y2="164.37"/>
<line fill="none" stroke="#000000" stroke-width="0.7527" x1="263.62" y1="164.354" x2="263.62" y2="161.327"/>
<line fill="none" stroke="#000000" stroke-width="0.7527" x1="263.245" y1="161.688" x2="267.745" y2="161.688"/>
<line fill="none" stroke="#000000" stroke-width="0.7527" x1="267.385" y1="161.297" x2="267.385" y2="164.401"/>
<line fill="none" stroke="#000000" stroke-width="0.7527" x1="271.115" y1="164.386" x2="271.115" y2="158.333"/>
<line fill="none" stroke="#000000" stroke-width="0.7527" x1="270.74" y1="158.631" x2="282.062" y2="158.631"/>
<line fill="none" stroke="#000000" stroke-width="0.7527" x1="281.701" y1="158.271" x2="281.701" y2="162.097"/>
<line fill="none" stroke="#000000" stroke-width="0.7527" x1="280.165" y1="161.312" x2="280.165" y2="164.354"/>
<line fill="none" stroke="#000000" stroke-width="0.7527" x1="281.324" y1="161.735" x2="285.073" y2="161.735"/>
<line fill="none" stroke="#000000" stroke-width="0.7527" x1="284.697" y1="162.034" x2="284.697" y2="158.317"/>
<line fill="none" stroke="#000000" stroke-width="0.7527" x1="284.305" y1="158.631" x2="288.852" y2="158.631"/>
<line fill="none" stroke="#000000" stroke-width="0.7527" x1="288.468" y1="158.285" x2="288.468" y2="164.433"/>
<line fill="none" stroke="#000000" stroke-width="0.7527" x1="289.997" y1="161.36" x2="289.997" y2="164.386"/>
<line fill="none" stroke="#000000" stroke-width="0.7527" x1="91.222" y1="164.354" x2="91.222" y2="161.343"/>
<line fill="none" stroke="#000000" stroke-width="0.7527" x1="119.825" y1="164.354" x2="119.825" y2="161.313"/>
<line fill="none" stroke="#000000" stroke-width="0.7527" x1="129.672" y1="164.386" x2="129.672" y2="161.313"/>
<line fill="none" stroke="#000000" stroke-width="0.7527" x1="138.673" y1="164.574" x2="138.673" y2="161.343"/>
<text transform="matrix(1 0 0 1 19.4941 6.6958)" font-family="'MyriadPro-Regular'" font-size="8">60</text>
<text transform="matrix(1 0 0 1 20.3716 32.3774)" font-family="'MyriadPro-Regular'" font-size="8">50</text>
<text transform="matrix(1 0 0 1 20.3716 61.6421)" font-family="'MyriadPro-Regular'" font-size="8">40</text>
<text transform="matrix(1 0 0 1 20.3716 113.3555)" font-family="'MyriadPro-Regular'" font-size="8">20</text>
<text transform="matrix(1 0 0 1 20.3716 140.2598)" font-family="'MyriadPro-Regular'" font-size="8">10</text>
<text transform="matrix(1 0 0 1 26.8955 169.1543)" font-family="'MyriadPro-Regular'" font-size="8">0</text>
<text transform="matrix(1 0 0 1 140.957 194.6836)"><tspan x="0" y="0" font-family="'MyriadPro-Regular'" font-size="8.6104">Carga (10</tspan><tspan x="34.027" y="-2.87" font-family="'MyriadPro-Regular'" font-size="6.4578">-19</tspan><tspan x="42.636" y="0" font-family="'MyriadPro-Regular'" font-size="8.6104"> C)</tspan></text>
<text transform="matrix(0 -1 1 0 7.5332 111.2334)" font-family="'MyriadPro-Regular'" font-size="9">Nro. de gotas</text>
<g>
	<text transform="matrix(1 0 0 1 34.4248 177.9355)" font-family="'MyriadPro-Regular'" font-size="8">0</text>
</g>
<text transform="matrix(1 0 0 1 70.3442 177.4727)" font-family="'MyriadPro-Regular'" font-size="8">2</text>
<text transform="matrix(1 0 0 1 107.0381 177.4727)" font-family="'MyriadPro-Regular'" font-size="8">4</text>
<text transform="matrix(1 0 0 1 145.8315 177.4727)" font-family="'MyriadPro-Regular'" font-size="8">6</text>
<text transform="matrix(1 0 0 1 182.5078 177.4727)" font-family="'MyriadPro-Regular'" font-size="8">8</text>
<text transform="matrix(1 0 0 1 214.1201 177.4727)" font-family="'MyriadPro-Regular'" font-size="8">10</text>
<text transform="matrix(1 0 0 1 246.4707 177.4736)" font-family="'MyriadPro-Regular'" font-size="8">12</text>
<text transform="matrix(1 0 0 1 283 177.4727)" font-family="'MyriadPro-Regular'" font-size="8">14</text>
<text transform="matrix(1 0 0 1 19.4941 85.543)" font-family="'MyriadPro-Regular'" font-size="8">30</text>
</svg>
