<?xml version="1.0" encoding="utf-8"?>
<!-- Generator: Adobe Illustrator 16.0.0, SVG Export Plug-In . SVG Version: 6.00 Build 0)  -->
<!DOCTYPE svg PUBLIC "-//W3C//DTD SVG 1.1//EN" "http://www.w3.org/Graphics/SVG/1.1/DTD/svg11.dtd">
<svg version="1.1" xmlns="http://www.w3.org/2000/svg" xmlns:xlink="http://www.w3.org/1999/xlink" x="0px" y="0px"
	 width="447.87px" height="217.624px" viewBox="0 0 447.87 217.624" enable-background="new 0 0 447.87 217.624"
	 xml:space="preserve">
<g id="Layer_2">
	<path fill="none" stroke="#009FDA" d="M102,137.874c4.511,0,8.167,8.059,8.167,17.999c0,9.941-3.656,18-8.167,18"/>
	<path fill="none" stroke="#009FDA" d="M388.726,99.648c0-3.333,3.182-9.151,1.941-7.911"/>
	<path fill="none" stroke="#009FDA" d="M391.535,115.418c-1.915-4.16-2.737-8.728-3.023-12.78"/>
	<path fill="none" stroke="#009FDA" d="M358.505,140.55c-3.914,0.098-9.144-8.856-11.687-20.001
		c-2.54-11.143-1.428-20.256,2.485-20.354"/>
	<path fill="none" stroke="#009FDA" d="M319.238,153.033c-3.914,0.098-9.148-9.008-11.697-20.337
		c-2.546-11.329-1.438-20.593,2.475-20.69"/>
	<path fill="none" stroke="#009FDA" d="M288.546,101.635c-1.412-1.537-2.787-3.176-4.076-4.88"/>
	<path fill="none" stroke="#009FDA" d="M297.11,109.335c-2.087-1.481-4.313-3.379-6.506-5.559"/>
	<path fill="none" stroke="#009FDA" d="M327.389,80.723c-2.087-1.481-4.313-3.379-6.506-5.559"/>
	<path fill="none" stroke="#009FDA" d="M317.669,72.784c-1.996-2.067-3.939-4.273-5.763-6.566"/>
	<path fill="none" stroke="#009FDA" d="M341.771,34.257c0,0,8.028,10.06,13.36,13.361"/>
	<line fill="none" stroke="#009FDA" x1="65.333" y1="159.958" x2="65.333" y2="192.707"/>
	<polyline fill="none" stroke="#009FDA" points="65.333,119.374 65.333,120.874 65.333,151.208 	"/>
	<polyline fill="none" stroke="#009FDA" points="65.333,151.374 65.333,136.374 161.5,136.041 	"/>
	<polyline fill="none" stroke="#009FDA" points="161.833,177.541 65.333,177.041 65.333,159.874 	"/>
	<path fill="none" stroke="#009FDA" d="M161.25,136.041c4.28,0,7.75,9.29,7.75,20.75s-3.47,20.75-7.75,20.75"/>
	<path fill="none" stroke="#000000" d="M68,155.062l28.491-12.477L68,155.062z"/>
	<path fill="none" stroke="#000000" d="M95.248,169.175l-26.914-14.134L95.248,169.175z"/>
	<path fill="none" stroke="#000000" d="M95,167.707"/>
	<path fill="none" stroke="#000000" d="M232.5,169.374"/>
	<path fill="none" stroke="#000000" d="M68.333,155.041l26.458-5.709L68.333,155.041z"/>
	<line fill="none" stroke="#00C0F3" x1="324.917" y1="69.957" x2="348.25" y2="33.249"/>
	<line fill="none" stroke="#00C0F3" x1="232.667" y1="162.207" x2="324.917" y2="69.957"/>
	<polyline fill="none" stroke="#000000" points="68.333,155.041 93.5,162.207 232.667,162.207 	"/>
	<line fill="none" stroke="#00C0F3" x1="321.896" y1="66.937" x2="351.916" y2="36.916"/>
	<line fill="none" stroke="#00C0F3" x1="232.625" y1="156.207" x2="321.896" y2="66.937"/>
	<line fill="none" stroke="#000000" x1="68.333" y1="155.041" x2="232.625" y2="156.207"/>
	<path fill="none" stroke="#000000" stroke-width="2" d="M96.27,142.587"/>
	<line fill="none" stroke="#000000" x1="232.566" y1="141.879" x2="96.491" y2="142.586"/>
	<line fill="none" stroke="#00C0F3" x1="317.541" y1="64.416" x2="355.125" y2="40.999"/>
	<line fill="none" stroke="#00C0F3" x1="232.625" y1="149.332" x2="317.541" y2="64.416"/>
	<line fill="none" stroke="#000000" x1="94.792" y1="149.332" x2="232.625" y2="149.332"/>
	<line fill="none" stroke="#000000" x1="95.014" y1="169.176" x2="233.062" y2="169.374"/>
	<line fill="none" stroke="#4D4D4D" x1="233.062" y1="133.124" x2="233.062" y2="180.687"/>
	<line fill="none" stroke="#00C0F3" x1="328.781" y1="72.822" x2="343.5" y2="29.124"/>
	<line fill="none" stroke="#00C0F3" x1="233.062" y1="168.541" x2="328.781" y2="72.822"/>
	<path fill="none" stroke="#009FDA" d="M423.931,112.715l9.569-2.841c4.833-19.5-7.5-26.5-7.5-26.5l-11.213,2.645"/>
	<path fill="none" stroke="#009FDA" d="M319.434,153.229l88.502-28.669C412.436,96.893,397,86.043,397,86.043l-88.127,26.295"/>
	<line fill="none" stroke="#00C0F3" x1="315.114" y1="60.322" x2="358.5" y2="44.999"/>
	<line fill="none" stroke="#00C0F3" x1="233.062" y1="142.374" x2="315.114" y2="60.322"/>
	<polyline fill="none" stroke="#6DCFF6" points="399,117.041 347.833,105.874 233.062,142.374 	"/>
	<line fill="none" stroke="#6DCFF6" x1="351" y1="119.874" x2="394.833" y2="105.874"/>
	<path fill="none" stroke="#000000" d="M352.5,126.541"/>
	<line fill="none" stroke="#6DCFF6" x1="233.062" y1="155.77" x2="351" y2="119.874"/>
	<polyline fill="none" stroke="#6DCFF6" points="233.062,148.895 349.833,113.041 395,111.874 	"/>
	<polyline fill="none" stroke="#000000" points="296.598,153.347 298.24,149.502 295.33,147.347 	"/>
	<polyline fill="none" stroke="#000000" points="298.749,145.62 300.392,141.775 297.481,139.62 	"/>
	<polyline fill="none" stroke="#000000" points="301.454,138.226 303.097,134.381 300.187,132.226 	"/>
	<polyline fill="none" stroke="#000000" points="294.667,133.402 296.31,129.558 293.399,127.402 	"/>
	<polyline fill="none" stroke="#000000" points="287.798,128.465 289.44,124.62 286.53,122.465 	"/>
	<polyline fill="none" stroke="#6DCFF6" points="392.096,94.041 356.43,132.457 233.062,169.374 	"/>
	<polyline fill="none" stroke="#6DCFF6" points="392.917,99.708 354.833,125.041 233.062,162.541 	"/>
	<ellipse fill="none" stroke="#4D4D4D" cx="233.667" cy="157.414" rx="37.833" ry="38.21"/>
	<polyline fill="none" stroke="#000000" points="181.412,145.724 184.159,142.317 181.118,139.318 	"/>
	<polyline fill="none" stroke="#000000" points="177.282,152.707 180.029,149.301 176.988,146.302 	"/>
	<polyline fill="none" stroke="#000000" points="172.368,159.125 175.115,155.719 172.074,152.72 	"/>
	<polyline fill="none" stroke="#000000" points="176.998,165.456 179.745,162.05 176.704,159.051 	"/>
	<polyline fill="none" stroke="#000000" points="181.965,172.417 184.712,169.011 181.671,166.012 	"/>
	<line fill="none" stroke="#009FDA" x1="314.75" y1="103.374" x2="320.25" y2="97.874"/>
	<line fill="none" stroke="#009FDA" x1="322.75" y1="95.374" x2="328.062" y2="90.062"/>
	<line fill="none" stroke="#009FDA" x1="362.438" y1="55.687" x2="368.25" y2="49.874"/>
	<line fill="none" stroke="#009FDA" x1="354.625" y1="63.499" x2="360.312" y2="57.812"/>
	<line fill="none" stroke="#009FDA" x1="346.75" y1="71.374" x2="352.375" y2="65.749"/>
	<line fill="none" stroke="#009FDA" x1="338.5" y1="79.624" x2="344.5" y2="73.624"/>
	<line fill="none" stroke="#009FDA" x1="330.688" y1="87.437" x2="336.25" y2="81.874"/>
	<line fill="none" stroke="#009FDA" x1="306.938" y1="111.187" x2="312.438" y2="105.687"/>
	<line fill="none" stroke="#009FDA" x1="370.75" y1="47.124" x2="371.5" y2="47.124"/>
	<line fill="none" stroke="#009FDA" x1="334" y1="25.874" x2="339.688" y2="20.187"/>
	<line fill="none" stroke="#009FDA" x1="326.125" y1="33.749" x2="331.75" y2="28.124"/>
	<line fill="none" stroke="#009FDA" x1="318.625" y1="41.249" x2="324.312" y2="35.562"/>
	<line fill="none" stroke="#009FDA" x1="310.75" y1="49.124" x2="316.375" y2="43.499"/>
	<line fill="none" stroke="#009FDA" x1="302.375" y1="57.249" x2="308.375" y2="51.249"/>
	<line fill="none" stroke="#009FDA" x1="294.562" y1="65.062" x2="300.125" y2="59.499"/>
	<line fill="none" stroke="#009FDA" x1="278.875" y1="80.749" x2="284.188" y2="75.437"/>
	<line fill="none" stroke="#009FDA" x1="286.812" y1="72.812" x2="292.375" y2="67.249"/>
	<line fill="none" stroke="#009FDA" x1="413.833" y1="85.333" x2="392.75" y2="90.374"/>
	<path fill="none" stroke="#009FDA" d="M423.816,113.362c3.737-19.523-9.983-28.029-9.983-28.029"/>
	<path fill="none" stroke="#009FDA" d="M423.417,115.208c0.15-0.626,0.283-1.241,0.399-1.846"/>
	<line fill="none" stroke="#009FDA" x1="401.875" y1="122.624" x2="423.417" y2="115.208"/>
	<path fill="none" stroke="#009FDA" d="M394.063,91.337c2.152,1.793,3.735,4.248,4.896,7.002"/>
	<path fill="none" stroke="#009FDA" d="M399.812,100.976c1.006,2.614,1.934,5.42,2.023,8.687"/>
	<path fill="none" stroke="#009FDA" d="M402.016,111.483c0.353,3.53,0.313,5.842-0.016,9.109"/>
	<line fill="none" stroke="#000000" x1="385.375" y1="156.312" x2="382.625" y2="156.312"/>
	<line fill="none" stroke="#000000" x1="381.375" y1="156.312" x2="378.625" y2="156.312"/>
	<line fill="none" stroke="#000000" x1="370.375" y1="156.187" x2="367.625" y2="156.187"/>
	<line fill="none" stroke="#000000" x1="366.376" y1="156.187" x2="363.626" y2="156.187"/>
	<line fill="none" stroke="#000000" x1="355.438" y1="156.187" x2="352.499" y2="156.187"/>
	<line fill="none" stroke="#000000" x1="351.374" y1="156.187" x2="348.436" y2="156.187"/>
	<line fill="none" stroke="#000000" x1="344.376" y1="156.187" x2="341.438" y2="156.187"/>
	<line fill="none" stroke="#000000" x1="340.518" y1="156.187" x2="337.579" y2="156.187"/>
	<line fill="none" stroke="#000000" x1="336.519" y1="156.187" x2="333.58" y2="156.187"/>
	<line fill="none" stroke="#000000" x1="329.394" y1="156.187" x2="326.455" y2="156.187"/>
	<line fill="none" stroke="#000000" x1="325.332" y1="156.187" x2="322.394" y2="156.187"/>
	<line fill="none" stroke="#000000" x1="321.581" y1="156.187" x2="318.643" y2="156.187"/>
	<line fill="none" stroke="#000000" x1="314.395" y1="156.187" x2="311.456" y2="156.187"/>
	<line fill="none" stroke="#000000" x1="310.52" y1="156.187" x2="307.581" y2="156.187"/>
	<line fill="none" stroke="#000000" x1="299.458" y1="156.187" x2="296.52" y2="156.187"/>
	<line fill="none" stroke="#000000" x1="295.54" y1="156.187" x2="292.602" y2="156.187"/>
	<line fill="none" stroke="#000000" x1="288.053" y1="156.187" x2="285.114" y2="156.187"/>
	<line fill="none" stroke="#000000" x1="284.489" y1="156.187" x2="281.551" y2="156.187"/>
	<line fill="none" stroke="#000000" x1="280.397" y1="156.187" x2="277.459" y2="156.187"/>
	<line fill="none" stroke="#000000" x1="269.364" y1="156.187" x2="266.426" y2="156.187"/>
	<line fill="none" stroke="#000000" x1="265.241" y1="156.187" x2="262.303" y2="156.187"/>
	<line fill="none" stroke="#000000" x1="258.615" y1="156.187" x2="255.677" y2="156.187"/>
	<line fill="none" stroke="#000000" x1="254.489" y1="156.187" x2="251.551" y2="156.187"/>
	<line fill="none" stroke="#000000" x1="250.365" y1="156.187" x2="247.427" y2="156.187"/>
	<line fill="none" stroke="#000000" x1="243.49" y1="156.187" x2="240.552" y2="156.187"/>
	<line fill="none" stroke="#000000" x1="239.553" y1="156.187" x2="236.614" y2="156.187"/>
	<line fill="none" stroke="#000000" x1="235.24" y1="156.187" x2="232.302" y2="156.187"/>
	<line fill="none" stroke="#000000" x1="261.438" y1="156.187" x2="259.552" y2="156.187"/>
	<line fill="none" stroke="#000000" x1="277.698" y1="156.187" x2="270.865" y2="156.187"/>
	<line fill="none" stroke="#000000" x1="306.625" y1="156.187" x2="300.5" y2="156.187"/>
	<line fill="none" stroke="#000000" x1="317.312" y1="156.187" x2="315.427" y2="156.187"/>
	<line fill="none" stroke="#000000" x1="332.438" y1="156.187" x2="330.552" y2="156.187"/>
	<line fill="none" stroke="#000000" x1="347.5" y1="156.187" x2="345.614" y2="156.187"/>
	<line fill="none" stroke="#000000" x1="362.593" y1="156.187" x2="356.468" y2="156.187"/>
	<line fill="none" stroke="#000000" x1="377.344" y1="156.187" x2="371.219" y2="156.187"/>
	<text transform="matrix(1 -8.100000e-04 8.100000e-04 1 289.668 182.0684)" font-family="'StoneSans'" font-size="10">Luz verde</text>
	<text transform="matrix(1 0 0 1 280.4004 203.124)"><tspan x="0" y="0" font-family="'StoneSans'" font-size="10">Rede de difração</tspan><tspan x="14.08" y="12" font-family="'StoneSans'" font-size="10">ou prisma</tspan></text>
	<text transform="matrix(1 0 0 1 384.6104 142.124)"><tspan x="0" y="0" font-family="'StoneSans'" font-size="10">Ângulo de</tspan><tspan x="9.62" y="12" font-family="'StoneSans'" font-size="10">difração</tspan></text>
	<text transform="matrix(1 0 0 1 364.75 73.374)" font-family="'StoneSans'" font-size="10">Telescópio</text>
	<text transform="matrix(1 0 0 1 420.5 56.624)" font-family="'StoneSans'" font-size="10">Ocular</text>
	<text transform="matrix(1 0 0 1 191.5 94.374)" font-family="'StoneSans'" font-size="10">Luz vermelha</text>
	<text transform="matrix(1 0 0 1 118.25 107.374)" font-family="'StoneSans'" font-size="10">Colimador</text>
	<text transform="matrix(1 0 0 1 23.5 108.124)" font-family="'StoneSans'" font-size="10">Fenda</text>
	<text transform="matrix(1 0 0 1 0 151.624)"><tspan x="0" y="0" font-family="'StoneSans'" font-size="10">Fonte</tspan><tspan x="0" y="12" font-family="'StoneSans'" font-size="10">de Luz</tspan></text>
	<text transform="matrix(1 0 0 1 121.75 204.124)" font-family="'StoneSans'" font-size="10">Feixe paralelo</text>
	<polyline fill="none" stroke="#009FDA" points="353.751,10.041 347.667,15.208 347.667,15.208 	"/>
	<path fill="none" stroke="#009FDA" d="M362.584,9.041c-3.696-2.064-7-0.833-7-0.833"/>
	<path fill="none" stroke="#009FDA" d="M372.584,16.041c-2.125-3.208-6.271-4.917-6.271-4.917"/>
	<path fill="none" stroke="#009FDA" d="M374.917,18.791c0,0,3.191,4.042,3.191,6.371"/>
	<path fill="none" stroke="#009FDA" d="M376.251,34.708"/>
	<path fill="none" stroke="#009FDA" d="M356.917,48.541c4.75,2.417,11.667-6.167,11.667-6.167"/>
	<path fill="none" stroke="#009FDA" d="M345.751,17.541c0,0-10.958,8.125-5.75,13.333"/>
	<line fill="none" stroke="#009FDA" x1="370.417" y1="40.458" x2="375.834" y2="34.708"/>
	<line fill="none" stroke="#009FDA" x1="381.251" y1="25.208" x2="385.793" y2="20.666"/>
	<path fill="none" stroke="#009FDA" d="M383.424,11.448c1.8,2.397,2.996,5.146,2.639,8.051"/>
	<path fill="none" stroke="#009FDA" d="M375.316,3.489c1.721,1.239,4.099,3.145,6.187,5.505"/>
	<path fill="none" stroke="#009FDA" d="M361.181,5.568c0,0,5.007-8.288,11.75-3.667"/>
	<path fill="none" stroke="#009FDA" d="M378.334,32.207c1.375-1.375,1-4.167,1-4.167"/>
	<path fill="none" stroke="#009FDA" d="M342.167,17.207c2.458-1.042,8,1.333,8,1.333"/>
	<path fill="none" stroke="#009FDA" d="M353.501,20.791c2.25,0.736,5.812,4.699,5.812,4.699"/>
	<path fill="none" stroke="#009FDA" d="M361.415,27.443c1.799,1.489,4.619,6.103,4.619,6.103"/>
	<path fill="none" stroke="#009FDA" d="M368.167,36.874c0,0,3.417,5.459,3.156,6.448"/>
	<polyline fill="none" stroke="#000000" points="282.821,122.499 282.812,118.829 279.386,118.494 	"/>
	<polyline fill="none" stroke="#000000" points="281.756,116.937 281.747,113.267 278.32,112.932 	"/>
	<polyline fill="none" stroke="#000000" points="281.629,110.812 281.62,107.142 278.193,106.807 	"/>
	<polyline fill="none" stroke="#000000" points="274.754,111.062 274.745,107.393 271.318,107.058 	"/>
	<polyline fill="none" stroke="#000000" points="268.069,111.125 268.061,107.456 264.634,107.121 	"/>
	<path fill="none" stroke="#009FDA" d="M278.101,81.908c0.325-0.952,1.075-1.496,2.276-1.524c1.301-0.031,2.988,0.545,4.894,1.595"
		/>
	<path fill="none" stroke="#009FDA" d="M280.927,91.479c-1.499-2.581-2.459-4.875-2.835-6.7"/>
	<path fill="none" stroke="#009FDA" d="M284.47,96.755c-0.478-0.632-0.931-1.256-1.359-1.87"/>
	<path fill="none" stroke="#009FDA" d="M304.857,112.741c-1.335,0.032-3.076-0.576-5.042-1.678"/>
	<path fill="none" stroke="#009FDA" d="M307.322,109.936c-0.001,1.735-0.799,2.766-2.465,2.806"/>
	<path fill="none" stroke="#009FDA" d="M306.981,107.664c0.227,0.849,0.342,1.611,0.341,2.271"/>
	<path fill="none" stroke="#009FDA" d="M303.071,99.642c2,3.069,3.326,5.833,3.91,8.022"/>
	<path fill="none" stroke="#F8971D" d="M300.765,96.369c0.036,0.048,0.072,0.096,0.108,0.144"/>
	<path fill="none" stroke="#009FDA" d="M296.481,91.266c1.485,1.601,2.932,3.316,4.283,5.103"/>
	<path fill="none" stroke="#009FDA" d="M288.327,83.935c1.922,1.383,3.955,3.112,5.968,5.083"/>
	<path fill="none" stroke="#009FDA" d="M334.676,83.742c-1.335,0.032-3.076-0.576-5.042-1.678"/>
	<path fill="none" stroke="#009FDA" d="M332.355,68.795c2,3.069,3.326,5.833,3.91,8.022"/>
	<path fill="none" stroke="#009FDA" d="M326.668,61.281c1.485,1.601,2.932,3.316,4.283,5.103"/>
	<path fill="none" stroke="#009FDA" d="M317.202,53.41c1.922,1.383,3.955,3.112,5.968,5.083"/>
	<path fill="none" stroke="#009FDA" d="M308,51.913c0.325-0.952,1.075-1.496,2.276-1.524c1.301-0.031,2.988,0.545,4.894,1.595"/>
	<path fill="none" stroke="#009FDA" d="M309.542,62.974c-1.499-2.581-2.459-4.875-2.835-6.7"/>
	<path fill="none" stroke="#009FDA" d="M359.66,36.868c1.024,1.685,1.957,3.584,2.84,6.007"/>
	<path fill="none" stroke="#009FDA" d="M359.473,36.563c0.062,0.101,0.125,0.202,0.188,0.304"/>
	<path fill="none" stroke="#009FDA" d="M352.735,28.757c1.805,1.521,3.647,3.411,5.339,5.74"/>
	<path fill="none" stroke="#009FDA" d="M342.667,23.041c0,0,3.147,0.862,7.079,3.473"/>
	<path fill="none" stroke="#009FDA" d="M359.766,36.826"/>
	<path fill="none" stroke="#009FDA" d="M398.792,124.343c-2.31-1.618-4.125-3.607-5.546-5.803"/>
	<path fill="none" stroke="#009FDA" d="M310.016,112.006c3.914-0.098,9.15,9.008,11.698,20.336
		c2.547,11.33,1.438,20.593-2.476,20.69"/>
	<path fill="none" stroke="#009FDA" d="M349.304,100.195c3.914-0.098,9.146,8.857,11.688,19.999
		c2.541,11.145,1.428,20.259-2.486,20.356"/>
	<path fill="none" stroke="#009FDA" d="M161.25,177.541c-4.28,0-7.75-9.29-7.75-20.75s3.47-20.75,7.75-20.75"/>
	<path fill="none" stroke="#009FDA" d="M102,173.873c-4.511,0-8.167-8.059-8.167-18c0-9.94,3.656-17.999,8.167-17.999"/>
</g>
<g id="Layer_3">
	<g>
		<g>
			<line fill="none" stroke="#000000" x1="305.167" y1="169.708" x2="291.892" y2="158.092"/>
			<polygon points="295.534,157.341 292.636,158.743 291.632,161.801 288.298,154.947 			"/>
		</g>
	</g>
	<g>
		<g>
			<line fill="none" stroke="#000000" x1="273" y1="202.874" x2="239.69" y2="179.18"/>
			<polygon points="243.239,178.067 240.496,179.753 239.804,182.896 235.799,176.412 			"/>
		</g>
	</g>
	<g>
		<g>
			<line fill="none" stroke="#000000" x1="156.584" y1="193.458" x2="171.769" y2="175.03"/>
			<polygon points="172.627,178.648 171.14,175.793 168.054,174.88 174.806,171.345 			"/>
		</g>
	</g>
	<g>
		<g>
			<line fill="none" stroke="#000000" x1="143.75" y1="112.124" x2="147.175" y2="127.537"/>
			<polygon points="143.795,125.986 146.961,126.572 149.58,124.701 148.211,132.199 			"/>
		</g>
	</g>
	<g>
		<g>
			<line fill="none" stroke="#000000" x1="374" y1="76.874" x2="374.271" y2="83.777"/>
			<polygon points="371.222,81.648 374.231,82.79 377.144,81.416 374.457,88.549 			"/>
		</g>
	</g>
	<g>
		<g>
			<line fill="none" stroke="#000000" x1="373.807" y1="61.682" x2="371.248" y2="55.235"/>
			<polygon points="374.831,56.23 371.613,56.154 369.323,58.417 369.486,50.797 			"/>
		</g>
	</g>
	<g>
		<g>
			<line fill="none" stroke="#000000" x1="436.06" y1="61.761" x2="430.692" y2="83.374"/>
			<polygon points="428.358,80.479 430.931,82.415 434.109,81.907 429.541,88.009 			"/>
		</g>
	</g>
	<g>
		<g>
			<path fill="none" stroke="#000000" d="M370.308,122.075c0,0,6.69,15.844,2.004,24.978"/>
			<polygon points="370.701,143.701 372.763,146.173 375.974,146.406 370.132,151.302 			"/>
			<polygon points="373.911,122.992 370.692,122.986 368.452,125.298 368.45,117.676 			"/>
		</g>
	</g>
	<g>
		<g>
			<line fill="none" stroke="#000000" x1="38" y1="113.374" x2="60.842" y2="146.645"/>
			<polygon points="57.127,146.47 60.283,145.829 62.013,143.115 63.545,150.581 			"/>
		</g>
	</g>
	<path fill="none" stroke="#8ED8F8" d="M34.125,181.083h-3.5c0.529-0.581,1.01-1.182,1.522-1.731
		c19.725-21.161,4.634-39.572-0.18-44.485c-0.82-0.838-1.342-1.283-1.342-1.283h5.188"/>
	<line fill="none" stroke="#8ED8F8" x1="37.547" y1="135.567" x2="32.719" y2="135.63"/>
	<line fill="none" stroke="#8ED8F8" x1="38.957" y1="137.289" x2="34.197" y2="137.227"/>
	<line fill="none" stroke="#8ED8F8" x1="40.43" y1="138.95" x2="35.645" y2="138.95"/>
	<line fill="none" stroke="#8ED8F8" x1="41.562" y1="140.828" x2="36.805" y2="140.84"/>
	<line fill="none" stroke="#8ED8F8" x1="42.688" y1="142.583" x2="38.028" y2="142.583"/>
	<line fill="none" stroke="#8ED8F8" x1="43.406" y1="144.583" x2="38.865" y2="144.583"/>
	<line fill="none" stroke="#8ED8F8" x1="44.188" y1="146.271" x2="39.838" y2="146.271"/>
	<line fill="none" stroke="#8ED8F8" x1="44.688" y1="148.333" x2="40.291" y2="148.333"/>
	<line fill="none" stroke="#8ED8F8" x1="45.312" y1="150.458" x2="41.25" y2="150.458"/>
	<line fill="none" stroke="#8ED8F8" x1="45.562" y1="152.415" x2="41.398" y2="152.514"/>
	<path fill="none" stroke="#FFCB05" d="M44.312,153.583"/>
	<path fill="none" stroke="#8ED8F8" d="M41.813,153.999"/>
	<line fill="none" stroke="#8ED8F8" x1="45.875" y1="154.271" x2="42.125" y2="154.271"/>
	<polyline fill="none" stroke="#8ED8F8" points="44.5,156.208 41.979,156.208 46,156.146 	"/>
	<line fill="none" stroke="#8ED8F8" x1="45.938" y1="158.646" x2="41.994" y2="158.646"/>
	<line fill="none" stroke="#8ED8F8" x1="45.438" y1="160.708" x2="41.808" y2="160.708"/>
	<line fill="none" stroke="#8ED8F8" x1="45.438" y1="162.896" x2="41.425" y2="162.896"/>
	<line fill="none" stroke="#8ED8F8" x1="45.25" y1="164.771" x2="40.946" y2="164.771"/>
	<line fill="none" stroke="#8ED8F8" x1="44.75" y1="166.583" x2="40.625" y2="166.583"/>
	<line fill="none" stroke="#8ED8F8" x1="43.688" y1="168.646" x2="39.875" y2="168.646"/>
	<line fill="none" stroke="#8ED8F8" x1="42.75" y1="170.583" x2="38.812" y2="170.583"/>
	<line fill="none" stroke="#8ED8F8" x1="41.438" y1="172.583" x2="37.566" y2="172.583"/>
	<line fill="none" stroke="#8ED8F8" x1="40.5" y1="174.72" x2="36.25" y2="174.72"/>
	<line fill="none" stroke="#8ED8F8" x1="39.438" y1="176.646" x2="34.188" y2="176.646"/>
	<line fill="none" stroke="#8ED8F8" x1="38.219" y1="178.052" x2="33.392" y2="178.052"/>
	<line fill="none" stroke="#8ED8F8" x1="36.531" y1="179.387" x2="31.981" y2="179.409"/>
	<g>
		<g>
			<line fill="none" stroke="#000000" x1="240.157" y1="97.22" x2="258.491" y2="109.22"/>
			<polygon points="254.988,110.469 257.664,108.679 258.233,105.511 262.487,111.835 			"/>
		</g>
	</g>
</g>
</svg>
