<?xml version="1.0" encoding="utf-8"?>
<!-- Generator: Adobe Illustrator 16.0.0, SVG Export Plug-In . SVG Version: 6.00 Build 0)  -->
<!DOCTYPE svg PUBLIC "-//W3C//DTD SVG 1.1//EN" "http://www.w3.org/Graphics/SVG/1.1/DTD/svg11.dtd">
<svg version="1.1" xmlns="http://www.w3.org/2000/svg" xmlns:xlink="http://www.w3.org/1999/xlink" x="0px" y="0px"
	 width="272.826px" height="231.196px" viewBox="0 0 272.826 231.196" enable-background="new 0 0 272.826 231.196"
	 xml:space="preserve">
<g id="Layer_2">
	<linearGradient id="SVGID_1_" gradientUnits="userSpaceOnUse" x1="137.3066" y1="181.9658" x2="137.8065" y2="37.9655">
		<stop  offset="0" style="stop-color:#4D4D4D"/>
		<stop  offset="0.544" style="stop-color:#FFFFFF"/>
		<stop  offset="0.6051" style="stop-color:#EEEEEE"/>
		<stop  offset="0.726" style="stop-color:#C2C2C2"/>
		<stop  offset="0.8934" style="stop-color:#7D7D7D"/>
		<stop  offset="1" style="stop-color:#4D4D4D"/>
	</linearGradient>
	<path fill="url(#SVGID_1_)" stroke="#B3B3B3" d="M47.634,146.696c25.5-37,5.75-90.75-0.75-93.75l0,0l169.25,0.25
		c6.5,3,23.75,48.5,0.75,93.25L47.634,146.696L47.634,146.696z"/>
	<line fill="none" stroke="#000000" x1="92.208" y1="100.113" x2="92.051" y2="132.779"/>
	<line fill="none" stroke="#000000" x1="92.385" y1="63.279" x2="92.228" y2="96.029"/>
	<line fill="none" stroke="#000000" x1="144.208" y1="99.905" x2="144.051" y2="132.571"/>
	<line fill="none" stroke="#000000" x1="144.385" y1="63.07" x2="144.228" y2="95.82"/>
	<line fill="none" stroke="#000000" x1="159.083" y1="99.905" x2="158.926" y2="132.571"/>
	<line fill="none" stroke="#000000" x1="159.259" y1="63.07" x2="159.103" y2="95.82"/>
	<line fill="none" stroke="#000000" stroke-width="2" x1="93.134" y1="24.113" x2="137.968" y2="164.946"/>
	<ellipse stroke="#000000" cx="216.051" cy="97.613" rx="4.917" ry="17.083"/>
	<line fill="none" stroke="#000000" x1="211.134" y1="97.498" x2="86.801" y2="97.613"/>
	<polyline fill="none" stroke="#000000" points="222.467,186.927 228.467,186.907 233.134,176.363 241.051,194.697 249.051,176.197 
		257.134,194.863 259.801,186.808 268.467,186.78 267.801,97.446 221.301,97.489 	"/>
	<polyline fill="none" stroke="#000000" points="201.801,146.78 201.467,186.946 216.467,186.946 	"/>
	<polyline fill="none" stroke="#000000" points="95.301,131.778 92.051,134.862 88.968,131.778 	"/>
	<polyline fill="none" stroke="#000000" points="147.384,131.779 144.134,134.863 141.051,131.779 	"/>
	<polyline fill="none" stroke="#000000" points="162.218,131.612 158.968,134.696 155.885,131.612 	"/>
	<polyline fill="none" stroke="#000000" points="156.045,63.812 159.289,60.721 162.379,63.799 	"/>
	<polyline fill="none" stroke="#000000" points="141.129,64.145 144.372,61.055 147.463,64.133 	"/>
	<polyline fill="none" stroke="#000000" points="89.129,64.395 92.372,61.305 95.463,64.383 	"/>
	<line fill="none" stroke="#000000" x1="101.467" y1="69.196" x2="104.801" y2="69.196"/>
	<line fill="none" stroke="#000000" x1="104.467" y1="79.363" x2="107.801" y2="79.363"/>
	<line fill="none" stroke="#000000" x1="107.467" y1="89.447" x2="110.801" y2="89.447"/>
	<line fill="none" stroke="#000000" x1="112.634" y1="103.363" x2="115.967" y2="103.363"/>
	<line fill="none" stroke="#000000" x1="121.717" y1="106.28" x2="125.051" y2="106.28"/>
	<line fill="none" stroke="#000000" x1="115.467" y1="112.447" x2="118.801" y2="112.447"/>
	<line fill="none" stroke="#000000" x1="118.467" y1="122.446" x2="121.801" y2="122.446"/>
	<line fill="none" stroke="#000000" x1="128.551" y1="127.28" x2="131.884" y2="127.28"/>
	<line fill="none" stroke="#000000" x1="125.467" y1="118.447" x2="128.801" y2="118.447"/>
	<line fill="none" stroke="#000000" x1="122.384" y1="135.28" x2="125.717" y2="135.28"/>
	<line fill="none" stroke="#000000" x1="132.634" y1="140.447" x2="135.967" y2="140.447"/>
	<line fill="none" stroke="#000000" x1="117.634" y1="93.364" x2="120.967" y2="93.364"/>
	<line fill="none" stroke="#000000" x1="114.467" y1="81.197" x2="117.801" y2="81.197"/>
	<line fill="none" stroke="#000000" x1="111.467" y1="73.28" x2="114.801" y2="73.28"/>
	<line fill="none" stroke="#000000" x1="107.384" y1="62.28" x2="110.717" y2="62.28"/>
	<line fill="none" stroke="#000000" x1="99.301" y1="58.447" x2="101.8" y2="58.447"/>
	<text transform="matrix(1 0 0 1 163.6343 88.6963)" font-family="'MyriadPro-It'" font-size="8">E</text>
	<line fill="none" stroke="#000000" x1="82.634" y1="114.363" x2="85.967" y2="114.363"/>
	<line fill="none" stroke="#000000" x1="78.551" y1="122.364" x2="81.884" y2="122.364"/>
	<line fill="none" stroke="#000000" x1="70.551" y1="125.364" x2="73.884" y2="125.364"/>
	<line fill="none" stroke="#000000" x1="61.301" y1="128.281" x2="64.634" y2="128.281"/>
	<line fill="none" stroke="#000000" x1="72.551" y1="117.281" x2="75.884" y2="117.281"/>
	<line fill="none" stroke="#000000" x1="63.551" y1="120.365" x2="66.884" y2="120.365"/>
	<line fill="none" stroke="#000000" x1="225.363" y1="187.259" x2="225.197" y2="212.821"/>
	<line fill="none" stroke="#000000" x1="262.3" y1="187.134" x2="262.301" y2="213.28"/>
	<rect x="223.468" y="212.811" stroke="#000000" width="3" height="2.938"/>
	<rect x="260.551" y="212.812" stroke="#000000" width="3" height="2.938"/>
	<line fill="#221F1F" stroke="#000000" stroke-width="2" x1="217.301" y1="182.78" x2="217.384" y2="190.53"/>
	<line fill="#221F1F" stroke="#000000" stroke-width="2" x1="221.885" y1="176.197" x2="221.802" y2="197.698"/>
	<g>
		<g>
			<line fill="none" stroke="#000000" stroke-width="0.5" x1="165.134" y1="78.196" x2="171.634" y2="78.196"/>
			<polygon points="170.932,79.122 171.326,78.196 170.932,77.271 173.126,78.196 			"/>
		</g>
	</g>
	<radialGradient id="SVGID_2_" cx="201.6343" cy="105.165" r="1.7812" gradientUnits="userSpaceOnUse">
		<stop  offset="0.1" style="stop-color:#F2F2F2"/>
		<stop  offset="1" style="stop-color:#333333"/>
	</radialGradient>
	<circle fill="url(#SVGID_2_)" cx="201.634" cy="105.165" r="1.781"/>
	<g>
		<g>
			<radialGradient id="SVGID_3_" cx="70.0093" cy="62.4463" r="1.7812" gradientUnits="userSpaceOnUse">
				<stop  offset="0.1" style="stop-color:#F2F2F2"/>
				<stop  offset="1" style="stop-color:#333333"/>
			</radialGradient>
			<circle fill="url(#SVGID_3_)" cx="70.009" cy="62.446" r="1.781"/>
			<radialGradient id="SVGID_4_" cx="135.3843" cy="68.4463" r="1.7812" gradientUnits="userSpaceOnUse">
				<stop  offset="0.1" style="stop-color:#F2F2F2"/>
				<stop  offset="1" style="stop-color:#333333"/>
			</radialGradient>
			<circle fill="url(#SVGID_4_)" cx="135.384" cy="68.446" r="1.781"/>
			<radialGradient id="SVGID_5_" cx="137.1655" cy="85.4463" r="1.7812" gradientUnits="userSpaceOnUse">
				<stop  offset="0.1" style="stop-color:#F2F2F2"/>
				<stop  offset="1" style="stop-color:#333333"/>
			</radialGradient>
			<circle fill="url(#SVGID_5_)" cx="137.166" cy="85.446" r="1.781"/>
			<radialGradient id="SVGID_6_" cx="124.4155" cy="60.9463" r="1.7812" gradientUnits="userSpaceOnUse">
				<stop  offset="0.1" style="stop-color:#F2F2F2"/>
				<stop  offset="1" style="stop-color:#333333"/>
			</radialGradient>
			<circle fill="url(#SVGID_6_)" cx="124.416" cy="60.946" r="1.781"/>
			<radialGradient id="SVGID_7_" cx="112.6343" cy="65.6963" r="1.7812" gradientUnits="userSpaceOnUse">
				<stop  offset="0.1" style="stop-color:#F2F2F2"/>
				<stop  offset="1" style="stop-color:#333333"/>
			</radialGradient>
			<circle fill="url(#SVGID_7_)" cx="112.634" cy="65.696" r="1.781"/>
			<radialGradient id="SVGID_8_" cx="122.8843" cy="86.4463" r="1.7812" gradientUnits="userSpaceOnUse">
				<stop  offset="0.1" style="stop-color:#F2F2F2"/>
				<stop  offset="1" style="stop-color:#333333"/>
			</radialGradient>
			<circle fill="url(#SVGID_8_)" cx="122.884" cy="86.446" r="1.781"/>
			<radialGradient id="SVGID_9_" cx="126.8843" cy="113.9463" r="1.7812" gradientUnits="userSpaceOnUse">
				<stop  offset="0.1" style="stop-color:#F2F2F2"/>
				<stop  offset="1" style="stop-color:#333333"/>
			</radialGradient>
			<circle fill="url(#SVGID_9_)" cx="126.884" cy="113.946" r="1.781"/>
			<radialGradient id="SVGID_10_" cx="80.1968" cy="84.2275" r="1.7812" gradientUnits="userSpaceOnUse">
				<stop  offset="0.1" style="stop-color:#F2F2F2"/>
				<stop  offset="1" style="stop-color:#333333"/>
			</radialGradient>
			<circle fill="url(#SVGID_10_)" cx="80.197" cy="84.228" r="1.781"/>
			<radialGradient id="SVGID_11_" cx="64.6343" cy="75.165" r="1.7812" gradientUnits="userSpaceOnUse">
				<stop  offset="0.1" style="stop-color:#F2F2F2"/>
				<stop  offset="1" style="stop-color:#333333"/>
			</radialGradient>
			<circle fill="url(#SVGID_11_)" cx="64.634" cy="75.165" r="1.781"/>
			<radialGradient id="SVGID_12_" cx="191.8843" cy="70.6963" r="1.7812" gradientUnits="userSpaceOnUse">
				<stop  offset="0.1" style="stop-color:#F2F2F2"/>
				<stop  offset="1" style="stop-color:#333333"/>
			</radialGradient>
			<circle fill="url(#SVGID_12_)" cx="191.884" cy="70.696" r="1.781"/>
			<radialGradient id="SVGID_13_" cx="178.3843" cy="59.4463" r="1.7812" gradientUnits="userSpaceOnUse">
				<stop  offset="0.1" style="stop-color:#F2F2F2"/>
				<stop  offset="1" style="stop-color:#333333"/>
			</radialGradient>
			<circle fill="url(#SVGID_13_)" cx="178.384" cy="59.446" r="1.781"/>
			<radialGradient id="SVGID_14_" cx="187.1343" cy="86.415" r="1.7812" gradientUnits="userSpaceOnUse">
				<stop  offset="0.1" style="stop-color:#F2F2F2"/>
				<stop  offset="1" style="stop-color:#333333"/>
			</radialGradient>
			<circle fill="url(#SVGID_14_)" cx="187.134" cy="86.415" r="1.781"/>
			<radialGradient id="SVGID_15_" cx="171.3843" cy="114.4463" r="1.7812" gradientUnits="userSpaceOnUse">
				<stop  offset="0.1" style="stop-color:#F2F2F2"/>
				<stop  offset="1" style="stop-color:#333333"/>
			</radialGradient>
			<circle fill="url(#SVGID_15_)" cx="171.384" cy="114.446" r="1.781"/>
			<radialGradient id="SVGID_16_" cx="183.2437" cy="135.0557" r="1.7812" gradientUnits="userSpaceOnUse">
				<stop  offset="0.1" style="stop-color:#F2F2F2"/>
				<stop  offset="1" style="stop-color:#333333"/>
			</radialGradient>
			<circle fill="url(#SVGID_16_)" cx="183.244" cy="135.056" r="1.781"/>
			<radialGradient id="SVGID_17_" cx="193.6343" cy="118.165" r="1.7812" gradientUnits="userSpaceOnUse">
				<stop  offset="0.1" style="stop-color:#F2F2F2"/>
				<stop  offset="1" style="stop-color:#333333"/>
			</radialGradient>
			<circle fill="url(#SVGID_17_)" cx="193.634" cy="118.165" r="1.781"/>
			<radialGradient id="SVGID_18_" cx="209.1343" cy="133.1963" r="1.7812" gradientUnits="userSpaceOnUse">
				<stop  offset="0.1" style="stop-color:#F2F2F2"/>
				<stop  offset="1" style="stop-color:#333333"/>
			</radialGradient>
			<circle fill="url(#SVGID_18_)" cx="209.134" cy="133.196" r="1.781"/>
			<radialGradient id="SVGID_19_" cx="79.3008" cy="138.165" r="1.7812" gradientUnits="userSpaceOnUse">
				<stop  offset="0.1" style="stop-color:#F2F2F2"/>
				<stop  offset="1" style="stop-color:#333333"/>
			</radialGradient>
			<circle fill="url(#SVGID_19_)" cx="79.301" cy="138.165" r="1.781"/>
			<radialGradient id="SVGID_20_" cx="106.6343" cy="128.165" r="1.7812" gradientUnits="userSpaceOnUse">
				<stop  offset="0.1" style="stop-color:#F2F2F2"/>
				<stop  offset="1" style="stop-color:#333333"/>
			</radialGradient>
			<circle fill="url(#SVGID_20_)" cx="106.634" cy="128.165" r="1.781"/>
			<radialGradient id="SVGID_21_" cx="65.9937" cy="107.8057" r="1.7812" gradientUnits="userSpaceOnUse">
				<stop  offset="0.1" style="stop-color:#F2F2F2"/>
				<stop  offset="1" style="stop-color:#333333"/>
			</radialGradient>
			<circle fill="url(#SVGID_21_)" cx="65.994" cy="107.806" r="1.781"/>
			<radialGradient id="SVGID_22_" cx="123.3843" cy="132.1963" r="1.7812" gradientUnits="userSpaceOnUse">
				<stop  offset="0.1" style="stop-color:#F2F2F2"/>
				<stop  offset="1" style="stop-color:#333333"/>
			</radialGradient>
			<circle fill="url(#SVGID_22_)" cx="123.384" cy="132.196" r="1.781"/>
		</g>
		<radialGradient id="SVGID_23_" cx="152.1343" cy="141.665" r="1.7812" gradientUnits="userSpaceOnUse">
			<stop  offset="0.1" style="stop-color:#F2F2F2"/>
			<stop  offset="1" style="stop-color:#333333"/>
		</radialGradient>
		<circle fill="url(#SVGID_23_)" cx="152.134" cy="141.665" r="1.781"/>
		<radialGradient id="SVGID_24_" cx="203.1343" cy="82.165" r="1.7812" gradientUnits="userSpaceOnUse">
			<stop  offset="0.1" style="stop-color:#F2F2F2"/>
			<stop  offset="1" style="stop-color:#333333"/>
		</radialGradient>
		<circle fill="url(#SVGID_24_)" cx="203.134" cy="82.165" r="1.781"/>
	</g>
	<radialGradient id="SVGID_25_" cx="100.353" cy="106.9463" r="1.7812" gradientUnits="userSpaceOnUse">
		<stop  offset="0.1" style="stop-color:#F2F2F2"/>
		<stop  offset="1" style="stop-color:#333333"/>
	</radialGradient>
	<circle fill="url(#SVGID_25_)" cx="100.353" cy="106.946" r="1.781"/>
	<linearGradient id="SVGID_26_" gradientUnits="userSpaceOnUse" x1="47.2285" y1="146.6787" x2="47.2285" y2="52.9448">
		<stop  offset="0" style="stop-color:#4D4D4D"/>
		<stop  offset="0.0421" style="stop-color:#5D5D5D"/>
		<stop  offset="0.1989" style="stop-color:#979797"/>
		<stop  offset="0.333" style="stop-color:#C2C2C2"/>
		<stop  offset="0.4376" style="stop-color:#DCDCDC"/>
		<stop  offset="0.5" style="stop-color:#E6E6E6"/>
		<stop  offset="0.5561" style="stop-color:#DFDFDF"/>
		<stop  offset="0.6376" style="stop-color:#CBCBCB"/>
		<stop  offset="0.7347" style="stop-color:#ABABAB"/>
		<stop  offset="0.8439" style="stop-color:#7F7F7F"/>
		<stop  offset="0.9616" style="stop-color:#474747"/>
		<stop  offset="1" style="stop-color:#333333"/>
	</linearGradient>
	<ellipse fill="url(#SVGID_26_)" stroke="#999999" cx="47.229" cy="99.812" rx="13.037" ry="46.867"/>
	<line fill="none" stroke="#000000" x1="0.134" y1="141.613" x2="84.467" y2="118.113"/>
</g>
<g id="Layer_3">
	<g>
		<g>
			<path fill="none" stroke="#009FDA" d="M47.134,98.113c0,0-57.709-28.109-41-64.167"/>
			<polygon fill="#009FDA" points="43.817,99.793 46.246,97.68 46.412,94.465 51.427,100.204 			"/>
		</g>
	</g>
	<text transform="matrix(1 0 0 1 10.9673 28.2808)"><tspan x="0" y="0" font-family="'MyriadPro-Regular'" font-size="8">janela</tspan><tspan x="0" y="9.6" font-family="'MyriadPro-Regular'" font-size="8">fina</tspan></text>
	<g>
		<g>
			<path fill="none" stroke="#009FDA" d="M17.967,144.113c0,0,9.333,24.334,28.333,24"/>
			<polygon fill="#009FDA" points="21.539,145.15 18.321,145.036 16.005,147.272 16.257,139.654 			"/>
		</g>
	</g>
	<text transform="matrix(1 0 0 1 49.1343 162.7793)"><tspan x="0" y="0" font-family="'MyriadPro-Regular'" font-size="8">partícula</tspan><tspan x="0" y="9.6" font-family="'MyriadPro-Regular'" font-size="8">ionizante</tspan></text>
	<g>
		<g>
			<path fill="none" stroke="#009FDA" d="M106.634,41.28c0,0,28.834-14.167,28.834-20.833"/>
			<polygon fill="#009FDA" points="107.344,37.629 107.521,40.844 109.958,42.948 102.348,43.386 			"/>
		</g>
	</g>
	<g>
		<g>
			<line fill="none" stroke="#009FDA" x1="227.467" y1="90.613" x2="258.301" y2="71.28"/>
			<polygon fill="#009FDA" points="227.796,86.909 228.305,90.088 230.945,91.93 223.421,93.15 			"/>
		</g>
	</g>
	<g>
		<g>
			<path fill="none" stroke="#009FDA" d="M200.967,69.78c34.834-4.667,33.334-57.5,33.334-57.5"/>
			<polygon fill="#009FDA" points="202.801,66.544 201.947,69.648 203.587,72.418 196.234,70.414 			"/>
		</g>
	</g>
	<text transform="matrix(1 0 0 1 232.3843 229.1963)" font-family="'MyriadPro-Regular'" font-size="8">sinal</text>
	<text transform="matrix(1 0 0 1 182.8843 210.9463)" font-family="'MyriadPro-Regular'" font-size="8">1000 V</text>
	<text transform="matrix(1 0 0 1 138.9463 15.3628)"><tspan x="0" y="0" font-family="'StoneSans'" font-size="8">partícula</tspan><tspan x="0" y="9.6" font-family="'StoneSans'" font-size="8">ionizante</tspan></text>
	<text transform="matrix(1 0 0 1 229.6343 6.6963)" font-family="'MyriadPro-Regular'" font-size="8">gás</text>
	<text transform="matrix(1 0 0 1 246.6343 69.1963)" font-family="'MyriadPro-Regular'" font-size="8">isolante</text>
</g>
</svg>
