<?xml version="1.0" encoding="utf-8"?>
<!-- Generator: Adobe Illustrator 16.0.0, SVG Export Plug-In . SVG Version: 6.00 Build 0)  -->
<!DOCTYPE svg PUBLIC "-//W3C//DTD SVG 1.1//EN" "http://www.w3.org/Graphics/SVG/1.1/DTD/svg11.dtd">
<svg version="1.1" id="Layer_2" xmlns="http://www.w3.org/2000/svg" xmlns:xlink="http://www.w3.org/1999/xlink" x="0px" y="0px"
	 width="241.839px" height="248.87px" viewBox="0 0 241.839 248.87" enable-background="new 0 0 241.839 248.87"
	 xml:space="preserve">
<polyline fill="none" stroke="#009FDA" stroke-width="3" points="0,12.141 31.462,12.141 47.021,12.141 "/>
<polyline fill="none" stroke="#009FDA" stroke-width="3" points="80.75,100.162 114.973,100.162 131.896,100.162 "/>
<polyline fill="none" stroke="#009FDA" stroke-width="3" points="161.625,131.162 192.502,131.162 207.771,131.162 "/>
<text transform="matrix(1 0 0 1 161.5205 127.4116)" font-family="'MyriadPro-Regular'" font-size="10">7/2+</text>
<text transform="matrix(1 0 0 1 138.3955 103.0366)" font-family="'MyriadPro-Regular'" font-size="10">2,55m</text>
<text transform="matrix(1 0 0 1 143.8955 145.4116)" font-family="'MyriadPro-Regular'" font-size="10">CE</text>
<text transform="matrix(1 0 0 1 115.396 158.6616)" font-family="'MyriadPro-Regular'" font-size="10">281</text>
<text transform="matrix(1.1208 0 0 1 210.0205 134.0962)" font-family="'MyriadPro-Regular'" font-size="9.7622">6x10  a</text>
<text transform="matrix(1 0 0 1 172.2705 144.1616)" font-family="'MyriadPro-Bold'" font-size="10">137</text>
<text transform="matrix(1 0 0 1 177.6455 159.2866)" font-family="'MyriadPro-Bold'" font-size="10">57</text>
<text transform="matrix(1 0 0 1 191.3955 152.6616)" font-family="'MyriadPro-Bold'" font-size="10">La</text>
<text transform="matrix(1 0 0 1 80.271 158.4116)" font-family="'MyriadPro-Regular'" font-size="10">1/2+</text>
<text transform="matrix(1 0 0 1 112.521 117.2866)" font-family="'MyriadPro-Regular'" font-size="10">TI</text>
<line fill="none" stroke="#000000" x1="79.229" y1="56.704" x2="131.896" y2="56.704"/>
<text transform="matrix(1 0 0 1 108.021 54.1616)" font-family="'MyriadPro-Regular'" font-size="10">900</text>
<text transform="matrix(1 0 0 1 82.2085 95.7241)" font-family="'MyriadPro-Regular'" font-size="10">11/2-661.6</text>
<line stroke="#000000" stroke-width="2" x1="100.052" y1="102.505" x2="105.927" y2="102.505"/>
<line fill="none" stroke="#000000" stroke-width="2" x1="107.177" y1="160.787" x2="131.896" y2="160.787"/>
<line fill="none" stroke="#000000" stroke-width="2" x1="79.927" y1="161.037" x2="98.771" y2="161.037"/>
<g>
	<g>
		<line fill="none" stroke="#000000" x1="60.562" y1="92.37" x2="80.729" y2="204.704"/>
		<polygon points="77.416,203.016 80.554,203.731 83.248,201.968 81.573,209.404 		"/>
	</g>
</g>
<line fill="none" stroke="#000000" x1="55.062" y1="90.87" x2="74.562" y2="78.703"/>
<polyline fill="none" stroke="#000000" points="79.021,88.974 46.812,10.823 59.521,82.974 "/>
<g>
	<g>
		<line fill="none" stroke="#000000" x1="102.896" y1="102.87" x2="102.896" y2="205.87"/>
		<polygon points="99.932,203.623 102.896,204.881 105.858,203.623 102.896,210.645 		"/>
	</g>
</g>
<g>
	<g>
		<line fill="none" stroke="#000000" x1="165.979" y1="131.704" x2="134.396" y2="207.204"/>
		<polygon points="132.529,203.987 134.777,206.292 137.996,206.274 132.553,211.609 		"/>
	</g>
</g>
<line fill="none" stroke="#000000" x1="75.698" y1="176.679" x2="54.896" y2="189.037"/>
<polyline fill="none" stroke="#009FDA" stroke-width="3" points="82.083,215.787 114.522,215.787 130.562,215.787 "/>
<text transform="matrix(1 0 0 1 118.396 212.2036)" font-family="'MyriadPro-Regular'" font-size="10">0</text>
<text transform="matrix(1 0 0 1 60.0625 218.7036)" font-family="'MyriadPro-Regular'" font-size="10">3/2+</text>
<text transform="matrix(1 0 0 1 84.896 231.5376)" font-family="'MyriadPro-Bold'" font-size="10">137</text>
<text transform="matrix(1 0 0 1 90.2295 246.3696)" font-family="'MyriadPro-Bold'" font-size="10">56</text>
<text transform="matrix(1 0 0 1 105.3955 240.2026)" font-family="'MyriadPro-Bold'" font-size="10">Ba</text>
<text transform="matrix(1 0 0 1 28.5625 193.8706)" font-family="'MyriadPro-Regular'" font-size="10">6,5%</text>
<text transform="matrix(1 0 0 1 23.2295 95.8691)" font-family="'MyriadPro-Regular'" font-size="10">93,5%</text>
<text transform="matrix(1 0 0 1 50.0625 154.5366)" font-family="'MyriadPro-Regular'" font-size="10">ß</text>
<text transform="matrix(1 0 0 1 57.395 150.7036)" font-family="'TimesNewRomanPS-ItalicMT'" font-size="12">-</text>
<text transform="matrix(1 0 0 1 54.5625 13.5371)" font-family="'MyriadPro-Regular'" font-size="10">30a</text>
<text transform="matrix(1 0 0 1 0.7295 8.3701)" font-family="'MyriadPro-Regular'" font-size="10">7/2+</text>
<text transform="matrix(1 0 0 1 0.3955 25.2026)" font-family="'MyriadPro-Bold'" font-size="10">137</text>
<text transform="matrix(1 0 0 1 5.396 39.5361)" font-family="'MyriadPro-Bold'" font-size="10">55</text>
<text transform="matrix(1 0 0 1 19.5625 31.8701)" font-family="'MyriadPro-Bold'" font-size="10">Cs</text>
<text transform="matrix(1.0781 0 0 1 233.3096 130.4878)" font-family="'MyriadPro-Regular'" font-size="8.8087">4</text>
</svg>
