<?xml version="1.0" encoding="utf-8"?>
<!-- Generator: Adobe Illustrator 16.0.0, SVG Export Plug-In . SVG Version: 6.00 Build 0)  -->
<!DOCTYPE svg PUBLIC "-//W3C//DTD SVG 1.1//EN" "http://www.w3.org/Graphics/SVG/1.1/DTD/svg11.dtd">
<svg version="1.1" id="Layer_1" xmlns="http://www.w3.org/2000/svg" xmlns:xlink="http://www.w3.org/1999/xlink" x="0px" y="0px"
	 width="271.967px" height="167.676px" viewBox="0 0 271.967 167.676" enable-background="new 0 0 271.967 167.676"
	 xml:space="preserve">
<g>
	<line fill="none" stroke="#000000" stroke-width="0.5" x1="102.762" y1="139.726" x2="102.762" y2="138.163"/>
	<line fill="none" stroke="#000000" stroke-width="0.5" x1="94.961" y1="139.726" x2="94.961" y2="138.163"/>
	<line fill="none" stroke="#000000" stroke-width="0.5" x1="125.159" y1="139.726" x2="125.159" y2="138.163"/>
	<line fill="none" stroke="#000000" stroke-width="0.5" x1="117.362" y1="139.726" x2="117.362" y2="138.163"/>
	<line fill="none" stroke="#000000" stroke-width="0.5" x1="161.721" y1="139.726" x2="161.721" y2="138.163"/>
	<line fill="none" stroke="#000000" stroke-width="0.5" x1="213.012" y1="139.726" x2="213.012" y2="138.163"/>
	<line fill="none" stroke="#000000" stroke-width="0.5" x1="205.211" y1="139.726" x2="205.211" y2="138.163"/>
	<line fill="none" stroke="#000000" stroke-width="0.5" x1="198.221" y1="139.726" x2="198.221" y2="138.163"/>
	<line fill="none" stroke="#000000" stroke-width="0.5" x1="190.424" y1="139.726" x2="190.424" y2="138.163"/>
	<line fill="none" stroke="#000000" stroke-width="0.744" x1="220.08" y1="139.677" x2="220.08" y2="136.218"/>
	<line fill="none" stroke="#000000" stroke-width="0.5" x1="226.986" y1="139.726" x2="226.986" y2="138.163"/>
	<line fill="none" stroke="#000000" stroke-width="0.744" x1="256.643" y1="139.677" x2="256.643" y2="136.218"/>
	<line fill="none" stroke="#000000" stroke-miterlimit="10" x1="109.831" y1="139.677" x2="109.831" y2="136.218"/>
	<line fill="none" stroke="#000000" stroke-miterlimit="10" x1="168.711" y1="139.726" x2="168.711" y2="138.163"/>
	<line fill="none" stroke="#000000" stroke-width="0.9328" x1="36.683" y1="139.846" x2="271.967" y2="139.846"/>
	<line fill="none" stroke="#000000" stroke-width="0.5" x1="66.137" y1="139.726" x2="66.137" y2="138.163"/>
	<line fill="none" stroke="#000000" stroke-width="0.5" x1="58.336" y1="139.726" x2="58.336" y2="138.163"/>
	<line fill="none" stroke="#000000" stroke-width="0.5" x1="51.346" y1="139.726" x2="51.346" y2="138.163"/>
	<line fill="none" stroke="#000000" stroke-width="0.5" x1="43.549" y1="139.726" x2="43.549" y2="138.163"/>
	<line fill="none" stroke="#000000" stroke-width="0.744" x1="73.206" y1="139.677" x2="73.206" y2="136.218"/>
	<line fill="none" stroke="#000000" stroke-width="0.5" x1="87.971" y1="139.726" x2="87.971" y2="138.163"/>
	<line fill="none" stroke="#000000" stroke-width="0.5" x1="80.174" y1="139.726" x2="80.174" y2="138.163"/>
	<line fill="none" stroke="#000000" stroke-width="0.5" x1="139.949" y1="139.726" x2="139.949" y2="138.163"/>
	<line fill="none" stroke="#000000" stroke-width="0.5" x1="132.149" y1="139.726" x2="132.149" y2="138.163"/>
	<line fill="none" stroke="#000000" stroke-width="0.744" x1="147.018" y1="139.677" x2="147.018" y2="136.218"/>
	<line fill="none" stroke="#000000" stroke-width="0.5" x1="176.512" y1="139.726" x2="176.512" y2="138.163"/>
	<line fill="none" stroke="#000000" stroke-width="0.5" x1="153.924" y1="139.726" x2="153.924" y2="138.163"/>
	<line fill="none" stroke="#000000" stroke-width="0.744" x1="183.58" y1="139.677" x2="183.58" y2="136.218"/>
	<line fill="none" stroke="#000000" stroke-width="0.5" x1="249.574" y1="139.726" x2="249.574" y2="138.163"/>
	<line fill="none" stroke="#000000" stroke-width="0.5" x1="241.773" y1="139.726" x2="241.773" y2="138.163"/>
	<line fill="none" stroke="#000000" stroke-width="0.5" x1="234.783" y1="139.726" x2="234.783" y2="138.163"/>
</g>
<g>
	<line fill="none" stroke="#000000" x1="36.517" y1="100.387" x2="43.474" y2="100.387"/>
	<line fill="none" stroke="#000000" stroke-miterlimit="10" x1="36.517" y1="83.741" x2="40.349" y2="83.741"/>
	<line fill="none" stroke="#000000" stroke-width="1.0524" x1="36.683" y1="139.846" x2="36.683" y2="0"/>
	<line fill="none" stroke="#000000" stroke-width="0.5" x1="36.517" y1="132.595" x2="40.349" y2="132.595"/>
	<line fill="none" stroke="#000000" stroke-width="0.5" x1="36.517" y1="124.741" x2="40.349" y2="124.741"/>
	<line fill="none" stroke="#000000" stroke-width="0.5" x1="36.517" y1="116.012" x2="40.349" y2="116.012"/>
	<line fill="none" stroke="#000000" stroke-width="0.5" x1="36.517" y1="108.22" x2="40.349" y2="108.22"/>
	<line fill="none" stroke="#000000" stroke-width="0.5" x1="36.517" y1="91.595" x2="40.349" y2="91.595"/>
	<line fill="none" stroke="#000000" stroke-width="0.5" x1="36.517" y1="75.012" x2="40.349" y2="75.012"/>
	<line fill="none" stroke="#000000" stroke-width="0.5" x1="36.517" y1="67.22" x2="40.349" y2="67.22"/>
	<line fill="none" stroke="#000000" stroke-width="0.6737" x1="36.517" y1="59.387" x2="43.474" y2="59.387"/>
	<line fill="none" stroke="#000000" stroke-width="0.5" x1="36.517" y1="51.595" x2="40.349" y2="51.595"/>
	<line fill="none" stroke="#000000" stroke-width="0.5" x1="36.517" y1="43.074" x2="40.349" y2="43.074"/>
	<line fill="none" stroke="#000000" stroke-width="0.5" x1="36.517" y1="35.771" x2="40.349" y2="35.771"/>
	<line fill="none" stroke="#000000" stroke-width="0.5" x1="36.517" y1="27.25" x2="40.349" y2="27.25"/>
	<line fill="none" stroke="#000000" stroke-width="0.5" x1="36.517" y1="10.512" x2="40.349" y2="10.512"/>
	<line fill="none" stroke="#000000" stroke-width="0.5" x1="36.517" y1="2.72" x2="40.349" y2="2.72"/>
	<line fill="none" stroke="#000000" stroke-width="0.6737" x1="36.517" y1="18.553" x2="43.474" y2="18.553"/>
</g>
<g>
	<rect x="37.111" y="70.542" fill="#009FDA" width="3.167" height="15.417"/>
	<rect x="39.903" y="94.792" fill="#009FDA" width="3.875" height="12.083"/>
	<rect x="43.195" y="105.209" fill="#009FDA" width="4.167" height="11"/>
	<rect x="46.403" y="119.126" fill="#009FDA" width="5.208" height="7.5"/>
	<rect x="51.028" y="125.292" fill="#009FDA" width="4" height="6.5"/>
	<rect x="54.611" y="126.042" fill="#009FDA" width="3.917" height="6.667"/>
	<rect x="58.028" y="123.459" fill="#009FDA" width="4.083" height="7"/>
	<rect x="61.445" y="128.709" fill="#009FDA" width="5.083" height="5.917"/>
	<rect x="65.695" y="123.459" fill="#009FDA" width="7.667" height="7.083"/>
	<rect x="72.945" y="130.376" fill="#009FDA" width="3.917" height="5.916"/>
	<rect x="76.278" y="125.209" fill="#009FDA" width="3.917" height="6.75"/>
	<rect x="79.945" y="131.209" fill="#009FDA" width="4.583" height="6.167"/>
	<rect x="84.028" y="119.209" fill="#009FDA" width="4.25" height="7.583"/>
	<rect x="87.611" y="131.375" fill="#009FDA" width="3.917" height="5.834"/>
	<rect x="90.528" y="132.292" fill="#009FDA" width="4.333" height="4.917"/>
	<rect x="94.445" y="134.625" fill="#009FDA" width="5.167" height="4.584"/>
	<rect x="98.945" y="130.375" fill="#009FDA" width="4.083" height="5.917"/>
	<rect x="102.278" y="133.875" fill="#009FDA" width="4.167" height="4.167"/>
	<rect x="105.778" y="134.875" fill="#009FDA" width="4.083" height="4.167"/>
	<rect x="109.831" y="137.042" fill="#009FDA" width="4.781" height="2.635"/>
	<rect x="113.695" y="132.125" fill="#009FDA" width="4.25" height="4.917"/>
	<rect x="117.362" y="135.792" fill="#009FDA" width="3.333" height="3.934"/>
	<rect x="120.695" y="134.709" fill="#009FDA" width="4.083" height="4"/>
	<rect x="124.695" y="136.459" fill="#009FDA" width="3.667" height="2.75"/>
	<rect x="127.528" y="104.209" fill="#009FDA" width="5.167" height="11.417"/>
	<rect x="131.945" y="0.542" fill="#009FDA" width="4.25" height="16.5"/>
	<rect x="135.194" y="17.292" fill="#009FDA" width="4.542" height="19.917"/>
	<rect x="138.778" y="94.625" fill="#009FDA" width="4.333" height="12.25"/>
	<rect x="142.152" y="66.709" fill="#009FDA" width="5.293" height="14.666"/>
	<rect x="146.486" y="13.709" fill="#009FDA" width="4.542" height="19.917"/>
	<rect x="150.195" y="73.792" fill="#009FDA" width="4.208" height="14.667"/>
	<rect x="153.444" y="129.459" fill="#009FDA" width="4.501" height="6.166"/>
	<rect x="156.986" y="137.251" fill="#009FDA" width="15.75" height="2.166"/>
	<rect x="160.528" y="136.334" fill="#009FDA" width="5.166" height="1.292"/>
	<rect x="190.153" y="133.834" fill="#009FDA" width="4.208" height="4.125"/>
	<rect x="193.653" y="137.417" fill="#009FDA" width="5.291" height="1.917"/>
	<rect x="198.028" y="134.834" fill="#009FDA" width="4.208" height="4.125"/>
	<rect x="204.986" y="136.417" fill="#009FDA" width="4.375" height="2.917"/>
	<rect x="212.902" y="137.292" fill="#009FDA" width="4.209" height="2.208"/>
	<rect x="220.152" y="137.251" fill="#009FDA" width="3.834" height="2.25"/>
	<rect x="226.611" y="137.251" fill="#009FDA" width="5.125" height="2.166"/>
	<rect x="252.652" y="137.376" fill="#009FDA" width="4.209" height="2.125"/>
	<rect x="264.152" y="137.334" fill="#009FDA" width="4.084" height="2.167"/>
</g>
<g>
	<text transform="matrix(1 0 0 1 134.0703 165.4258)" font-family="'MyriadPro-Regular'" font-size="9">canal</text>
</g>
<text transform="matrix(1 0 0 1 66.3496 152.5117)" font-family="'MyriadPro-Regular'" font-size="9">10</text>
<text transform="matrix(1 0 0 1 102.1836 152.5117)" font-family="'MyriadPro-Regular'" font-size="9">20</text>
<text transform="matrix(1 0 0 1 139.8506 152.5117)" font-family="'MyriadPro-Regular'" font-size="9">30</text>
<text transform="matrix(1 0 0 1 177.0156 152.5117)" font-family="'MyriadPro-Regular'" font-size="9">40</text>
<text transform="matrix(1 0 0 1 213.3496 152.5117)" font-family="'MyriadPro-Regular'" font-size="9">50</text>
<text transform="matrix(1 0 0 1 250.0156 152.5117)" font-family="'MyriadPro-Regular'" font-size="9">60</text>
<g>
	<text transform="matrix(0 -1 1 0 7.5332 100.6836)" font-family="'MyriadPro-Regular'" font-size="9">contagens</text>
</g>
<text transform="matrix(1 0 0 1 26.4326 152.4463)" font-family="'MyriadPro-Regular'" font-size="9">0</text>
<text transform="matrix(1 0 0 1 20.4326 103.4697)" font-family="'MyriadPro-Regular'" font-size="9">50</text>
<text transform="matrix(1 0 0 1 14.4326 62.4697)" font-family="'MyriadPro-Regular'" font-size="9">100</text>
<text transform="matrix(1 0 0 1 14.4326 21.6367)" font-family="'MyriadPro-Regular'" font-size="9">150</text>
<g>
	<line fill="none" stroke="#009FDA" x1="40.278" y1="70.542" x2="40.278" y2="94.834"/>
	<line fill="none" stroke="#009FDA" x1="46.914" y1="115.75" x2="46.914" y2="120.709"/>
	<line fill="none" stroke="#009FDA" x1="84.539" y1="125.084" x2="84.539" y2="136.876"/>
	<line fill="none" stroke="#009FDA" x1="87.914" y1="125.459" x2="87.914" y2="134.875"/>
	<line fill="none" stroke="#009FDA" x1="127.997" y1="136.917" x2="127.997" y2="115.125"/>
	<line fill="none" stroke="#009FDA" x1="132.361" y1="104.876" x2="132.361" y2="15.376"/>
	<line fill="none" stroke="#009FDA" x1="135.653" y1="16.042" x2="135.653" y2="18.459"/>
	<line fill="none" stroke="#009FDA" x1="139.283" y1="36.834" x2="139.283" y2="95.334"/>
	<line fill="none" stroke="#009FDA" x1="142.658" y1="81.021" x2="142.658" y2="95.334"/>
	<line fill="none" stroke="#009FDA" x1="146.986" y1="67.271" x2="146.986" y2="33.084"/>
	<line fill="none" stroke="#009FDA" x1="150.611" y1="32.834" x2="150.611" y2="74.771"/>
	<line fill="none" stroke="#009FDA" x1="153.944" y1="87.042" x2="153.944" y2="131.459"/>
	<line fill="none" stroke="#009FDA" x1="157.444" y1="134.459" x2="157.444" y2="138.792"/>
</g>
</svg>
