<?xml version="1.0" encoding="utf-8"?>
<!-- Generator: Adobe Illustrator 16.0.0, SVG Export Plug-In . SVG Version: 6.00 Build 0)  -->
<!DOCTYPE svg PUBLIC "-//W3C//DTD SVG 1.1//EN" "http://www.w3.org/Graphics/SVG/1.1/DTD/svg11.dtd">
<svg version="1.1" id="Layer_1" xmlns="http://www.w3.org/2000/svg" xmlns:xlink="http://www.w3.org/1999/xlink" x="0px" y="0px"
	 width="280.526px" height="156.525px" viewBox="0 0 280.526 156.525" enable-background="new 0 0 280.526 156.525"
	 xml:space="preserve">
<line fill="none" stroke="#000000" stroke-width="0.5" x1="220.89" y1="127.321" x2="220.89" y2="125.759"/>
<line fill="none" stroke="#000000" stroke-width="0.744" x1="227.765" y1="127.272" x2="227.765" y2="123.813"/>
<polyline fill="none" stroke="#009FDA" stroke-width="0.83" points="45.242,65.104 48.224,65.104 48.224,89.188 52.033,89.188 
	52.033,98.604 55.307,98.604 55.307,104.771 59.64,104.771 59.64,107.438 63.307,107.438 63.307,110.521 66.724,110.521 
	66.724,111.271 70.307,111.271 70.307,113.854 74.39,113.854 74.39,114.688 77.724,114.688 77.724,116.021 84.89,116.021 
	84.89,117.354 88.39,117.354 88.39,118.354 92.224,118.354 92.224,119.312 96.224,119.312 96.224,120.25 99.537,120.25 
	99.537,121.062 103.099,121.062 103.099,121.875 110.662,121.875 110.662,122.75 114.224,122.75 114.224,123.625 128.912,123.625 
	128.912,124.188 132.162,124.188 132.162,120 136.162,120 136.162,91.75 140.412,91.75 140.412,23.938 143.724,23.938 
	143.724,5.812 147.474,5.812 147.474,61.812 150.724,61.812 150.724,65 155.099,65 155.099,28.688 158.412,28.688 158.412,55.312 
	162.037,55.312 162.037,104.375 165.349,104.375 165.349,122.438 168.849,122.438 168.849,126.719 171.693,126.719 216.787,126.719 
	216.787,127.441 221.412,127.441 221.412,126.5 227.765,126.5 227.765,127.062 231.443,127.062 231.443,126.375 "/>
<line fill="none" stroke="#000000" stroke-width="0.5" x1="234.562" y1="127.321" x2="234.562" y2="125.759"/>
<line fill="none" stroke="#000000" stroke-width="0.744" x1="264.099" y1="127.272" x2="264.099" y2="123.813"/>
<line fill="none" stroke="#000000" x1="118.39" y1="127.272" x2="118.39" y2="123.813"/>
<text transform="matrix(0 -1 1 0 7.5332 88.1484)" font-family="'MyriadPro-Regular'" font-size="9">contagens</text>
<text transform="matrix(1 0 0 1 148.0757 154.2754)" font-family="'MyriadPro-Regular'" font-size="9">canal</text>
<g>
	<text transform="matrix(1 0 0 1 75.9097 138.6074)" font-family="'MyriadPro-Regular'" font-size="9">10</text>
</g>
<g>
	<text transform="matrix(1 0 0 1 111.7437 138.6074)" font-family="'MyriadPro-Regular'" font-size="9">20</text>
</g>
<g>
	<text transform="matrix(1 0 0 1 149.4097 138.6074)" font-family="'MyriadPro-Regular'" font-size="9">30</text>
</g>
<g>
	<text transform="matrix(1 0 0 1 186.5757 138.6074)" font-family="'MyriadPro-Regular'" font-size="9">40</text>
</g>
<g>
	<text transform="matrix(1 0 0 1 222.9097 138.6074)" font-family="'MyriadPro-Regular'" font-size="9">50</text>
</g>
<g>
	<text transform="matrix(1 0 0 1 259.5757 138.6074)" font-family="'MyriadPro-Regular'" font-size="9">60</text>
</g>
<g>
	<text transform="matrix(1 0 0 1 36.9917 134.7744)" font-family="'MyriadPro-Regular'" font-size="9">0</text>
</g>
<g>
	<text transform="matrix(1 0 0 1 18.9922 91.8369)" font-family="'MyriadPro-Regular'" font-size="9">2000</text>
</g>
<g>
	<text transform="matrix(1 0 0 1 18.9922 52.3359)" font-family="'MyriadPro-Regular'" font-size="9">4000</text>
</g>
<g>
	<text transform="matrix(1 0 0 1 18.9922 12.8359)" font-family="'MyriadPro-Regular'" font-size="9">6000</text>
</g>
<line fill="none" stroke="#000000" stroke-width="1.0524" x1="45.242" y1="127.441" x2="45.242" y2="0"/>
<line fill="none" stroke="#000000" stroke-width="0.9328" x1="45.242" y1="127.441" x2="280.526" y2="127.441"/>
<line fill="none" stroke="#000000" stroke-width="0.5" x1="45.076" y1="117.875" x2="48.908" y2="117.875"/>
<line fill="none" stroke="#000000" stroke-width="0.5" x1="45.076" y1="108.25" x2="48.908" y2="108.25"/>
<line fill="none" stroke="#000000" stroke-width="0.5" x1="45.076" y1="98.188" x2="48.908" y2="98.188"/>
<line fill="none" stroke="#000000" stroke-width="0.6737" x1="45.076" y1="88.688" x2="52.033" y2="88.688"/>
<line fill="none" stroke="#000000" stroke-width="0.5" x1="45.076" y1="78.375" x2="48.908" y2="78.375"/>
<line fill="none" stroke="#000000" stroke-width="0.5" x1="45.076" y1="68.75" x2="48.908" y2="68.75"/>
<line fill="none" stroke="#000000" stroke-width="0.5" x1="45.076" y1="58.688" x2="48.908" y2="58.688"/>
<line fill="none" stroke="#000000" stroke-width="0.6737" x1="45.076" y1="49.188" x2="52.033" y2="49.188"/>
<line fill="none" stroke="#000000" stroke-width="0.5" x1="45.763" y1="38.875" x2="49.595" y2="38.875"/>
<line fill="none" stroke="#000000" stroke-width="0.5" x1="45.763" y1="29.25" x2="49.595" y2="29.25"/>
<line fill="none" stroke="#000000" stroke-width="0.5" x1="45.451" y1="20.25" x2="49.283" y2="20.25"/>
<line fill="none" stroke="#000000" stroke-width="0.6737" x1="45.763" y1="9.688" x2="52.72" y2="9.688"/>
<path fill="none" stroke="#000000" stroke-width="0.8699" d="M80.633,151.143"/>
<line fill="none" stroke="#000000" stroke-width="0.5" x1="74.697" y1="127.321" x2="74.697" y2="125.759"/>
<line fill="none" stroke="#000000" stroke-width="0.5" x1="66.896" y1="127.321" x2="66.896" y2="125.759"/>
<line fill="none" stroke="#000000" stroke-width="0.5" x1="59.906" y1="127.321" x2="59.906" y2="125.759"/>
<line fill="none" stroke="#000000" stroke-width="0.5" x1="52.109" y1="127.321" x2="52.109" y2="125.759"/>
<line fill="none" stroke="#000000" stroke-width="0.744" x1="81.765" y1="127.272" x2="81.765" y2="123.813"/>
<line fill="none" stroke="#000000" stroke-width="0.5" x1="110.948" y1="127.321" x2="110.948" y2="125.759"/>
<line fill="none" stroke="#000000" stroke-width="0.5" x1="103.147" y1="127.321" x2="103.147" y2="125.759"/>
<line fill="none" stroke="#000000" stroke-width="0.5" x1="96.157" y1="127.321" x2="96.157" y2="125.759"/>
<line fill="none" stroke="#000000" stroke-width="0.5" x1="88.36" y1="127.321" x2="88.36" y2="125.759"/>
<line fill="none" stroke="#000000" stroke-width="0.744" x1="118.016" y1="127.272" x2="118.016" y2="123.813"/>
<line fill="none" stroke="#000000" x1="155.473" y1="127.272" x2="155.473" y2="123.813"/>
<line fill="none" stroke="#000000" stroke-width="0.5" x1="147.432" y1="127.321" x2="147.432" y2="125.759"/>
<line fill="none" stroke="#000000" stroke-width="0.5" x1="140.432" y1="127.321" x2="140.432" y2="125.759"/>
<line fill="none" stroke="#000000" stroke-width="0.5" x1="132.682" y1="127.321" x2="132.682" y2="125.759"/>
<line fill="none" stroke="#000000" stroke-width="0.5" x1="125.766" y1="127.321" x2="125.766" y2="125.759"/>
<line fill="none" stroke="#000000" stroke-width="0.744" x1="155.099" y1="127.272" x2="155.099" y2="123.813"/>
<line fill="none" stroke="#000000" x1="191.93" y1="127.272" x2="191.93" y2="123.813"/>
<line fill="none" stroke="#000000" stroke-width="0.5" x1="183.889" y1="127.321" x2="183.889" y2="125.759"/>
<line fill="none" stroke="#000000" stroke-width="0.5" x1="176.889" y1="127.321" x2="176.889" y2="125.759"/>
<line fill="none" stroke="#000000" stroke-width="0.5" x1="169.139" y1="127.321" x2="169.139" y2="125.759"/>
<line fill="none" stroke="#000000" stroke-width="0.5" x1="162.223" y1="127.321" x2="162.223" y2="125.759"/>
<line fill="none" stroke="#000000" stroke-width="0.744" x1="191.556" y1="127.272" x2="191.556" y2="123.813"/>
<line fill="none" stroke="#000000" x1="228.139" y1="127.272" x2="228.139" y2="123.813"/>
<line fill="none" stroke="#000000" stroke-width="0.5" x1="213.098" y1="127.321" x2="213.098" y2="125.759"/>
<line fill="none" stroke="#000000" stroke-width="0.5" x1="206.14" y1="127.321" x2="206.14" y2="125.759"/>
<line fill="none" stroke="#000000" stroke-width="0.5" x1="198.432" y1="127.321" x2="198.432" y2="125.759"/>
<line fill="none" stroke="#000000" stroke-width="0.5" x1="271.807" y1="127.321" x2="271.807" y2="125.759"/>
<line fill="none" stroke="#000000" stroke-width="0.5" x1="257.182" y1="127.321" x2="257.182" y2="125.759"/>
<line fill="none" stroke="#000000" stroke-width="0.5" x1="249.349" y1="127.321" x2="249.349" y2="125.759"/>
<line fill="none" stroke="#000000" stroke-width="0.5" x1="242.359" y1="127.321" x2="242.359" y2="125.759"/>
</svg>
