<?xml version="1.0" encoding="utf-8"?>
<!-- Generator: Adobe Illustrator 16.0.0, SVG Export Plug-In . SVG Version: 6.00 Build 0)  -->
<!DOCTYPE svg PUBLIC "-//W3C//DTD SVG 1.1//EN" "http://www.w3.org/Graphics/SVG/1.1/DTD/svg11.dtd">
<svg version="1.1" id="Layer_1" xmlns="http://www.w3.org/2000/svg" xmlns:xlink="http://www.w3.org/1999/xlink" x="0px" y="0px"
	 width="282.19px" height="214.072px" viewBox="0 0 282.19 214.072" enable-background="new 0 0 282.19 214.072"
	 xml:space="preserve">
<g>
	<text transform="matrix(0 -1 1 0 7.5332 113.3848)" font-family="'MyriadPro-Regular'" font-size="9">contagens</text>
</g>
<g>
	<text transform="matrix(1 0 0 1 139.0342 211.8223)" font-family="'MyriadPro-Regular'" font-size="9">canal</text>
</g>
<text transform="matrix(1 0 0 1 76.5332 197.1553)" font-family="'MyriadPro-Regular'" font-size="9">100</text>
<text transform="matrix(1 0 0 1 117.4502 197.1553)" font-family="'MyriadPro-Regular'" font-size="9">200</text>
<text transform="matrix(1 0 0 1 160.5332 197.1553)" font-family="'MyriadPro-Regular'" font-size="9">300</text>
<text transform="matrix(1 0 0 1 205.1484 198.0928)" font-family="'MyriadPro-Regular'" font-size="9">400</text>
<text transform="matrix(1 0 0 1 247.5332 197.1553)" font-family="'MyriadPro-Regular'" font-size="9">500</text>
<text transform="matrix(1 0 0 1 36.6172 196.1543)" font-family="'MyriadPro-Regular'" font-size="9">0</text>
<text transform="matrix(1 0 0 1 24.6172 129.6172)" font-family="'MyriadPro-Regular'" font-size="9">500</text>
<text transform="matrix(1 0 0 1 19.3667 69.2832)" font-family="'MyriadPro-Regular'" font-size="9">1000</text>
<line fill="none" stroke="#000000" stroke-width="1.0224" x1="42.617" y1="184.491" x2="42.617" y2="2.854"/>
<line fill="none" stroke="#000000" stroke-width="0.5" x1="42.451" y1="173.342" x2="46.283" y2="173.342"/>
<line fill="none" stroke="#000000" stroke-width="0.5" x1="42.451" y1="161.217" x2="46.283" y2="161.217"/>
<line fill="none" stroke="#000000" stroke-width="0.5" x1="46.408" y1="149.051" x2="42.576" y2="149.051"/>
<line fill="none" stroke="#000000" stroke-width="0.5" x1="42.451" y1="136.968" x2="46.408" y2="136.968"/>
<line fill="none" stroke="#000000" stroke-width="0.5" x1="42.71" y1="126.104" x2="50.422" y2="126.104"/>
<line fill="none" stroke="#000000" stroke-width="0.5" x1="42.451" y1="113.383" x2="46.283" y2="113.383"/>
<line fill="none" stroke="#000000" stroke-width="0.5" x1="46.408" y1="101.217" x2="42.576" y2="101.217"/>
<line fill="none" stroke="#000000" stroke-width="0.5" x1="42.541" y1="77.049" x2="46.566" y2="77.049"/>
<line fill="none" stroke="#000000" stroke-width="0.5" x1="50.472" y1="64.883" x2="42.663" y2="64.883"/>
<line fill="none" stroke="#000000" stroke-width="0.5" x1="42.451" y1="89.134" x2="46.408" y2="89.134"/>
<line fill="none" stroke="#000000" stroke-width="0.5" x1="153.627" y1="184.257" x2="153.627" y2="182.694"/>
<line fill="none" stroke="#000000" stroke-width="0.5" x1="136.596" y1="184.569" x2="136.596" y2="183.007"/>
<line fill="none" stroke="#000000" stroke-width="0.5" x1="145.377" y1="184.257" x2="145.377" y2="182.694"/>
<line fill="none" stroke="#000000" stroke-width="0.5" x1="110.408" y1="184.257" x2="110.408" y2="182.694"/>
<line fill="none" stroke="#000000" stroke-width="0.5" x1="162.365" y1="184.257" x2="162.365" y2="182.694"/>
<line fill="none" stroke="#000000" stroke-width="0.5" x1="102.293" y1="184.257" x2="102.293" y2="182.694"/>
<line fill="none" stroke="#000000" stroke-width="0.5" x1="93.558" y1="184.257" x2="93.558" y2="182.694"/>
<line fill="none" stroke="#000000" stroke-width="0.5" x1="76.615" y1="184.257" x2="76.615" y2="182.694"/>
<line fill="none" stroke="#000000" stroke-width="0.5" x1="67.7" y1="184.257" x2="67.7" y2="182.694"/>
<line fill="none" stroke="#000000" stroke-width="0.5" x1="59.595" y1="184.257" x2="59.595" y2="182.694"/>
<line fill="none" stroke="#000000" stroke-width="0.5" x1="50.559" y1="184.257" x2="50.559" y2="182.694"/>
<line fill="none" stroke="#000000" stroke-width="0.5" x1="85.527" y1="184.208" x2="85.527" y2="180.749"/>
<line fill="none" stroke="#000000" stroke-width="0.5" x1="170.428" y1="184.257" x2="170.428" y2="181.413"/>
<line fill="none" stroke="#000000" stroke-width="0.5" x1="213.303" y1="184.257" x2="213.303" y2="181.413"/>
<line fill="none" stroke="#000000" stroke-width="0.5" x1="239.314" y1="184.257" x2="239.314" y2="182.694"/>
<line fill="none" stroke="#000000" stroke-width="0.5" x1="222.283" y1="184.569" x2="222.283" y2="183.007"/>
<line fill="none" stroke="#000000" stroke-width="0.5" x1="230.189" y1="184.257" x2="230.189" y2="182.694"/>
<line fill="none" stroke="#000000" stroke-width="0.5" x1="247.365" y1="184.257" x2="247.365" y2="182.694"/>
<line fill="none" stroke="#000000" stroke-width="0.5" x1="256.115" y1="184.257" x2="256.115" y2="181.413"/>
<line fill="none" stroke="#000000" stroke-width="0.5" x1="119.428" y1="184.257" x2="119.428" y2="182.694"/>
<line fill="none" stroke="#000000" stroke-width="0.5" x1="127.49" y1="184.257" x2="127.49" y2="181.413"/>
<g>
	<path fill="none" stroke="#009FDA" stroke-width="0.83" d="M179.544,184.198"/>
	<polyline fill="none" stroke="#009FDA" stroke-width="0.83" points="175.846,184.068 175.846,183.202 175.846,183.945 	"/>
	<path fill="none" stroke="#009FDA" stroke-width="0.83" d="M43.396,114.354l-0.067,1.936l1.396-0.176v9.426h0.864v8.628h1.264
		v8.538h1.663v2.379v3.169h1.13v5.461h0.798v-3.256h1.13v3.694h0.998v3.523h0.931v1.938h2.194v2.992h0.931v1.144v-2.816h1.065v2.641
		v-1.671h4.521l-2.394,0.088v1.497h4.256v1.234h-4.189l2.195,0.174v1.761h3.457h2.328v1.322h-2.561h-1.961v1.145h1.994l0.332-1.145
		v-2.287H68.4v5.986v-1.192h0.799v-3.082h0.565v3.613v0.791h0.964v-2.776v2.602h1.097h0.333v-3.082h0.699v3.301h0.797v-3.256h0.565
		v-1.145h0.599v4.182h1.098v1.013v-1.013h0.964h0.765v-1.586v3.873h0.698v-2.728h1.93v1.145h-2.195h2.195v1.721h1.462v-2.029h2.295
		V173h-1.463v1.06h1.529h-1.264v1.319h0.898v0.749c0,0,0.365,0,0.598,0c0.233,0,0.333-0.443,0.333-0.443v-1.015l-0.249-0.329h0.779
		v-0.769h1.031v1.319v0.353h3.924v0.793h-3.158v-1.146h1.764v-1.538h0.83v0.965v2.995h0.997v-0.967v-1.015h0.966v-2.905v3.92
		l0.065-1.677h2.66v1.193h-2.262h7.615v1.186h-6.219h0.765v1.543h0.832v-1.367h1.43v1.233h0.965l-0.1-1.409l2.095-0.043v1.321h1.597
		v-1.716h0.83v-2.249h0.865v4.403h5.719v0.972h-2.129v-0.838h-2.825v-1.016h4.688v-0.747h-4.755h6.717v1.321h0.965v1.279h0.631
		v-3.041h1.364v1.896h4.089v0.484h-3.259v0.747h1.729v2.421v-1.585h3.958v-1.233h-3.159l0.599,0.794h4.754v-2.555h1.663v2.775h1.696
		v-1.364h2.095h3.724v2.643h-5.354v-1.455h4.556h2.561v-2.29h0.798v-3.433h1.021v-3.77h0.951v-8.323h0.555v-5.75h0.288V133.69h0.932
		v-20.937h0.709h0.266v-37.86h0.998V51.598h1.263V25.074h0.688V5.843h0.666v16.958v0.412h1.373v22.84h0.82v16.095h0.6v26.398h0.799
		v34.634h0.864v16.263h1.04v10.951l0.643,0.012v5.463v-1.985h1.02v-5.38h0.932V127.18h0.976v-27.063h0.953V83.301h0.888v-7.333
		h0.975V57.723h0.421V47.58h0.799v-1.877v10.684h1.198v14.959h0.908v24.442h0.975v22.965h0.598v25.323h0.578v12.496h1.15v7.117h0.6
		v8.98h0.931v4.027h1.13l-0.055,5.556h0.954v0.646h4.522v0.942h2.771l-0.155-0.784l4.483-0.146"/>
</g>
<line fill="none" stroke="#000000" stroke-width="0.5" x1="42.389" y1="51.728" x2="46.221" y2="51.728"/>
<line fill="none" stroke="#000000" stroke-width="0.5" x1="46.346" y1="39.562" x2="42.514" y2="39.562"/>
<line fill="none" stroke="#000000" stroke-width="0.5" x1="42.389" y1="27.479" x2="46.346" y2="27.479"/>
<line fill="none" stroke="#000000" stroke-width="0.5" x1="42.292" y1="14.104" x2="46.317" y2="14.104"/>
<line fill="none" stroke="#000000" x1="50.472" y1="2.854" x2="42.663" y2="2.854"/>
<text transform="matrix(1 0 0 1 19.3667 7.5332)" font-family="'MyriadPro-Regular'" font-size="9">1500</text>
<line fill="none" stroke="#000000" stroke-width="0.5" x1="280.148" y1="184.461" x2="280.148" y2="182.898"/>
<line fill="none" stroke="#000000" stroke-width="0.5" x1="263.117" y1="184.773" x2="263.117" y2="183.211"/>
<line fill="none" stroke="#000000" stroke-width="0.5" x1="271.023" y1="184.461" x2="271.023" y2="182.898"/>
<path fill="none" stroke="#009FDA" stroke-width="0.83" d="M200.519,183.998"/>
<path fill="none" stroke="#009FDA" stroke-width="0.83" d="M215.687,183.501"/>
<path fill="none" stroke="#009FDA" stroke-width="0.83" d="M190.489,184.144"/>
<g>
	<polyline fill="none" stroke="#009FDA" stroke-width="0.83" points="175.819,183.818 175.846,182.479 175.819,183.763 	"/>
	<polyline fill="none" stroke="#009FDA" stroke-width="0.83" points="176.904,184.192 176.904,183.326 176.904,184.296 	"/>
</g>
<g>
	<polyline fill="none" stroke="#009FDA" stroke-width="0.83" points="177.861,184.186 177.861,183.16 177.861,184.13 	"/>
	<polyline fill="none" stroke="#009FDA" stroke-width="0.83" points="178.946,184.22 178.946,183.354 178.946,184.323 	"/>
</g>
<g>
	<polyline fill="none" stroke="#009FDA" stroke-width="0.83" points="179.842,184.255 179.842,183.229 179.842,184.199 	"/>
	<polyline fill="none" stroke="#009FDA" stroke-width="0.83" points="180.927,184.289 180.927,183.423 180.927,184.233 	"/>
</g>
<g>
	<polyline fill="none" stroke="#009FDA" stroke-width="0.83" points="181.736,184.255 181.736,183.229 181.736,184.199 	"/>
	<polyline fill="none" stroke="#009FDA" stroke-width="0.83" points="182.821,184.325 182.821,183.423 182.821,184.233 	"/>
</g>
<g>
	<polyline fill="none" stroke="#009FDA" stroke-width="0.83" points="183.609,184.207 183.609,183.182 183.609,184.151 	"/>
	<polyline fill="none" stroke="#009FDA" stroke-width="0.83" points="184.694,184.345 184.694,183.375 184.694,184.345 	"/>
</g>
<g>
	<polyline fill="none" stroke="#009FDA" stroke-width="0.83" points="185.504,184.207 185.504,183.182 185.504,184.151 	"/>
	<polyline fill="none" stroke="#009FDA" stroke-width="0.83" points="186.589,184.4 186.589,183.375 186.589,184.345 	"/>
</g>
<g>
	<polyline fill="none" stroke="#009FDA" stroke-width="0.83" points="187.632,184.304 187.632,183.278 187.632,184.248 	"/>
	<polyline fill="none" stroke="#009FDA" stroke-width="0.83" points="188.717,184.497 188.717,183.472 188.717,184.441 	"/>
</g>
<g>
	<polyline fill="none" stroke="#009FDA" stroke-width="0.83" points="189.526,184.304 189.526,183.278 189.526,184.248 	"/>
	<polyline fill="none" stroke="#009FDA" stroke-width="0.83" points="190.611,184.497 190.611,183.472 190.611,184.441 	"/>
</g>
<g>
	<polyline fill="none" stroke="#009FDA" stroke-width="0.83" points="191.839,184.198 191.839,183.73 191.839,184.173 	"/>
	<polyline fill="none" stroke="#009FDA" stroke-width="0.83" points="192.924,184.278 192.924,183.811 192.924,183.748 	"/>
</g>
<g>
	<polyline fill="none" stroke="#009FDA" stroke-width="0.83" points="193.733,184.659 193.733,184.048 193.733,183.723 	"/>
	<polyline fill="none" stroke="#009FDA" stroke-width="0.83" points="194.818,183.87 194.818,183.259 194.818,183.837 	"/>
</g>
<g>
	<polyline fill="none" stroke="#009FDA" stroke-width="0.83" points="195.861,184.003 195.861,183.392 195.861,183.97 	"/>
	<polyline fill="none" stroke="#009FDA" stroke-width="0.83" points="196.946,184.653 196.946,184.043 196.946,184.62 	"/>
</g>
<g>
	<polyline fill="none" stroke="#009FDA" stroke-width="0.83" points="197.756,183.96 197.756,183.348 197.756,183.927 	"/>
	<polyline fill="none" stroke="#009FDA" stroke-width="0.83" points="198.841,184.074 198.841,183.464 198.841,184.041 	"/>
</g>
<g>
	<polyline fill="none" stroke="#009FDA" stroke-width="0.83" points="199.629,183.931 199.629,183.32 199.629,183.897 	"/>
	<polyline fill="none" stroke="#009FDA" stroke-width="0.83" points="200.714,184.047 200.714,183.435 200.714,184.014 	"/>
</g>
<g>
	<polyline fill="none" stroke="#009FDA" stroke-width="0.83" points="201.523,183.931 201.523,183.32 201.523,183.897 	"/>
	<polyline fill="none" stroke="#009FDA" stroke-width="0.83" points="202.608,184.047 202.608,183.435 202.608,184.014 	"/>
</g>
<g>
	<polyline fill="none" stroke="#009FDA" stroke-width="0.83" points="203.651,183.989 203.651,183.377 203.651,183.956 	"/>
	<polyline fill="none" stroke="#009FDA" stroke-width="0.83" points="204.736,184.104 204.736,183.492 204.736,184.071 	"/>
</g>
<g>
	<polyline fill="none" stroke="#009FDA" stroke-width="0.83" points="205.546,183.989 205.546,183.377 205.546,183.956 	"/>
	<polyline fill="none" stroke="#009FDA" stroke-width="0.83" points="206.631,184.104 206.631,183.492 206.631,184.071 	"/>
</g>
<g>
	<polyline fill="none" stroke="#009FDA" stroke-width="0.83" points="206.64,183.649 206.64,183.038 206.64,183.616 	"/>
	<polyline fill="none" stroke="#009FDA" stroke-width="0.83" points="207.725,184.3 207.725,183.689 207.725,184.267 	"/>
</g>
<g>
	<polyline fill="none" stroke="#009FDA" stroke-width="0.83" points="208.534,184.185 208.534,183.573 208.534,184.151 	"/>
	<polyline fill="none" stroke="#009FDA" stroke-width="0.83" points="209.619,184.3 209.619,183.689 209.619,184.267 	"/>
</g>
<g>
	<polyline fill="none" stroke="#009FDA" stroke-width="0.83" points="210.407,184.155 210.407,183.545 210.407,184.122 	"/>
	<polyline fill="none" stroke="#009FDA" stroke-width="0.83" points="211.492,184.271 211.492,183.659 211.492,184.238 	"/>
</g>
<g>
	<polyline fill="none" stroke="#009FDA" stroke-width="0.83" points="212.302,184.155 212.302,183.545 212.302,184.122 	"/>
	<polyline fill="none" stroke="#009FDA" stroke-width="0.83" points="213.387,184.271 213.387,183.659 213.387,184.238 	"/>
</g>
<g>
	<polyline fill="none" stroke="#009FDA" stroke-width="0.83" points="214.43,184.214 214.43,183.603 214.43,184.181 	"/>
	<polyline fill="none" stroke="#009FDA" stroke-width="0.83" points="215.515,184.329 215.515,183.717 215.515,184.296 	"/>
</g>
<g>
	<polyline fill="none" stroke="#009FDA" stroke-width="0.83" points="216.324,184.214 216.324,183.603 216.324,184.181 	"/>
	<polyline fill="none" stroke="#009FDA" stroke-width="0.83" points="217.409,184.329 217.409,183.717 217.409,184.296 	"/>
</g>
<path fill="none" stroke="#009FDA" stroke-width="0.83" d="M225.614,183.495"/>
<g>
	<polyline fill="none" stroke="#009FDA" stroke-width="0.83" points="218.462,184.178 218.462,183.566 218.462,184.145 	"/>
	<polyline fill="none" stroke="#009FDA" stroke-width="0.83" points="219.547,184.293 219.547,183.683 219.547,184.26 	"/>
</g>
<g>
	<polyline fill="none" stroke="#009FDA" stroke-width="0.83" points="220.335,184.148 220.335,183.538 220.335,184.115 	"/>
	<polyline fill="none" stroke="#009FDA" stroke-width="0.83" points="221.42,184.265 221.42,183.653 221.42,184.231 	"/>
</g>
<g>
	<polyline fill="none" stroke="#009FDA" stroke-width="0.83" points="222.229,184.148 222.229,183.538 222.229,184.115 	"/>
	<polyline fill="none" stroke="#009FDA" stroke-width="0.83" points="223.314,184.265 223.314,183.653 223.314,184.231 	"/>
</g>
<g>
	<polyline fill="none" stroke="#009FDA" stroke-width="0.83" points="224.357,184.207 224.357,183.596 224.357,184.174 	"/>
	<polyline fill="none" stroke="#009FDA" stroke-width="0.83" points="225.442,184.322 225.442,183.711 225.442,184.289 	"/>
</g>
<g>
	<polyline fill="none" stroke="#009FDA" stroke-width="0.83" points="226.252,184.207 226.252,183.596 226.252,184.174 	"/>
	<polyline fill="none" stroke="#009FDA" stroke-width="0.83" points="227.337,184.322 227.337,183.711 227.337,184.289 	"/>
</g>
<path fill="none" stroke="#009FDA" stroke-width="0.83" d="M234.489,183.231"/>
<g>
	<polyline fill="none" stroke="#009FDA" stroke-width="0.83" points="227.337,183.915 227.337,183.304 227.337,183.882 	"/>
	<polyline fill="none" stroke="#009FDA" stroke-width="0.83" points="228.422,184.03 228.422,183.42 228.422,183.997 	"/>
</g>
<g>
	<polyline fill="none" stroke="#009FDA" stroke-width="0.83" points="229.21,183.886 229.21,183.275 229.21,183.853 	"/>
	<polyline fill="none" stroke="#009FDA" stroke-width="0.83" points="230.295,184.002 230.295,183.391 230.295,183.969 	"/>
</g>
<g>
	<polyline fill="none" stroke="#009FDA" stroke-width="0.83" points="231.104,183.886 231.104,183.275 231.104,183.853 	"/>
	<polyline fill="none" stroke="#009FDA" stroke-width="0.83" points="232.189,184.002 232.189,183.391 232.189,183.969 	"/>
</g>
<g>
	<polyline fill="none" stroke="#009FDA" stroke-width="0.83" points="233.232,183.944 233.232,183.333 233.232,183.911 	"/>
	<polyline fill="none" stroke="#009FDA" stroke-width="0.83" points="234.317,184.06 234.317,183.447 234.317,184.026 	"/>
</g>
<g>
	<polyline fill="none" stroke="#009FDA" stroke-width="0.83" points="235.127,183.944 235.127,183.333 235.127,183.911 	"/>
	<polyline fill="none" stroke="#009FDA" stroke-width="0.83" points="236.212,184.06 236.212,183.447 236.212,184.026 	"/>
</g>
<path fill="none" stroke="#009FDA" stroke-width="0.83" d="M244.555,183.341"/>
<g>
	<polyline fill="none" stroke="#009FDA" stroke-width="0.83" points="237.402,184.023 237.402,183.412 237.402,183.99 	"/>
	<polyline fill="none" stroke="#009FDA" stroke-width="0.83" points="238.487,184.139 238.487,183.528 238.487,184.105 	"/>
</g>
<g>
	<polyline fill="none" stroke="#009FDA" stroke-width="0.83" points="239.275,183.994 239.275,183.384 239.275,183.961 	"/>
	<polyline fill="none" stroke="#009FDA" stroke-width="0.83" points="240.36,184.11 240.36,183.499 240.36,184.077 	"/>
</g>
<g>
	<polyline fill="none" stroke="#009FDA" stroke-width="0.83" points="241.17,183.994 241.17,183.384 241.17,183.961 	"/>
	<polyline fill="none" stroke="#009FDA" stroke-width="0.83" points="242.255,184.11 242.255,183.499 242.255,184.077 	"/>
</g>
<g>
	<polyline fill="none" stroke="#009FDA" stroke-width="0.83" points="243.298,184.053 243.298,183.441 243.298,184.02 	"/>
	<polyline fill="none" stroke="#009FDA" stroke-width="0.83" points="244.383,184.168 244.383,183.557 244.383,184.135 	"/>
</g>
<g>
	<polyline fill="none" stroke="#009FDA" stroke-width="0.83" points="245.192,184.053 245.192,183.441 245.192,184.02 	"/>
	<polyline fill="none" stroke="#009FDA" stroke-width="0.83" points="246.277,184.168 246.277,183.557 246.277,184.135 	"/>
</g>
<g>
	<polyline fill="none" stroke="#009FDA" stroke-width="0.83" points="247.238,184.074 247.238,183.463 247.238,184.041 	"/>
	<polyline fill="none" stroke="#009FDA" stroke-width="0.83" points="248.323,184.189 248.323,183.579 248.323,184.156 	"/>
</g>
<g>
	<polyline fill="none" stroke="#009FDA" stroke-width="0.83" points="249.111,184.045 249.111,183.435 249.111,184.012 	"/>
	<polyline fill="none" stroke="#009FDA" stroke-width="0.83" points="250.196,184.161 250.196,183.55 250.196,184.128 	"/>
</g>
<line fill="none" stroke="#000000" stroke-width="0.8976" x1="42.784" y1="184.438" x2="282.19" y2="184.438"/>
</svg>
