<?xml version="1.0" encoding="utf-8"?>
<!-- Generator: Adobe Illustrator 16.0.0, SVG Export Plug-In . SVG Version: 6.00 Build 0)  -->
<!DOCTYPE svg PUBLIC "-//W3C//DTD SVG 1.1//EN" "http://www.w3.org/Graphics/SVG/1.1/DTD/svg11.dtd">
<svg version="1.1" id="Camada_1" xmlns="http://www.w3.org/2000/svg" xmlns:xlink="http://www.w3.org/1999/xlink" x="0px" y="0px"
	 width="295.539px" height="184.464px" viewBox="0 0 295.539 184.464" enable-background="new 0 0 295.539 184.464"
	 xml:space="preserve">
<rect x="51.719" y="18.446" fill-rule="evenodd" clip-rule="evenodd" fill="#FFFFFF" width="214.265" height="133.736"/>
<rect x="51.719" y="18.446" fill="none" stroke="#000000" stroke-miterlimit="10" width="214.265" height="133.736"/>
<text transform="matrix(1 0 0 1 173.7681 176.8608)" font-family="'MyriadPro-Regular'" font-size="8.5837">)</text>
<rect x="0" y="0" fill="none" width="295.539" height="184.463"/>
<text transform="matrix(1 0 0 1 168.7388 174.1519)" font-family="'MyriadPro-Regular'" font-size="6.1912">-2</text>
<rect x="0" y="0" fill="none" width="295.539" height="184.463"/>
<text transform="matrix(1 0 0 1 154.8091 176.8608)" font-family="'MyriadPro-Regular'" font-size="8.5837"> cm</text>
<rect x="0" y="0" fill="none" width="295.539" height="184.463"/>
<text transform="matrix(1 0 0 1 145.7651 171.8442)" font-family="'MyriadPro-Regular'" font-size="5.2886">-3</text>
<rect x="0" y="0" fill="none" width="295.539" height="184.463"/>
<text transform="matrix(1 0 0 1 135.4614 176.8608)" font-family="'MyriadPro-Regular'" font-size="8.5837"> (10</text>
<rect x="0" y="0" fill="none" width="295.539" height="184.463"/>
<text transform="matrix(1 0 0 1 132.3647 172.9907)" font-family="'MyriadPro-Regular'" font-size="6.1912">2</text>
<rect x="0" y="0" fill="none" width="295.539" height="184.463"/>
<text transform="matrix(1 0 0 1 127.3354 176.8608)" font-family="'MyriadPro-Regular'" font-size="8.5837">d</text>
<rect x="0" y="0" fill="none" width="295.539" height="184.463"/>
<text transform="matrix(1 0 0 1 119.9839 176.8608)" font-family="'MyriadPro-Regular'" font-size="8.5837">1/</text>
<rect x="0" y="0" fill="none" width="295.539" height="184.463"/>
<line fill="none" stroke="#000000" stroke-miterlimit="10" x1="56.606" y1="150.175" x2="56.606" y2="152.182"/>
<line fill="none" stroke="#000000" stroke-miterlimit="10" x1="61.494" y1="150.175" x2="61.494" y2="152.182"/>
<line fill="none" stroke="#000000" stroke-miterlimit="10" x1="66.381" y1="150.175" x2="66.381" y2="152.182"/>
<line fill="none" stroke="#000000" stroke-miterlimit="10" x1="71.269" y1="150.175" x2="71.269" y2="152.182"/>
<line fill="none" stroke="#000000" stroke-miterlimit="10" x1="76.156" y1="148.17" x2="76.156" y2="152.182"/>
<line fill="none" stroke="#000000" stroke-miterlimit="10" x1="81.044" y1="150.175" x2="81.044" y2="152.182"/>
<line fill="none" stroke="#000000" stroke-miterlimit="10" x1="85.93" y1="150.175" x2="85.93" y2="152.182"/>
<line fill="none" stroke="#000000" stroke-miterlimit="10" x1="90.818" y1="150.175" x2="90.818" y2="152.182"/>
<line fill="none" stroke="#000000" stroke-miterlimit="10" x1="95.706" y1="150.175" x2="95.706" y2="152.182"/>
<line fill="none" stroke="#000000" stroke-miterlimit="10" x1="100.593" y1="148.17" x2="100.593" y2="152.182"/>
<line fill="none" stroke="#000000" stroke-miterlimit="10" x1="105.481" y1="150.175" x2="105.481" y2="152.182"/>
<line fill="none" stroke="#000000" stroke-miterlimit="10" x1="110.369" y1="150.175" x2="110.369" y2="152.182"/>
<line fill="none" stroke="#000000" stroke-miterlimit="10" x1="115.256" y1="150.175" x2="115.256" y2="152.182"/>
<line fill="none" stroke="#000000" stroke-miterlimit="10" x1="120.143" y1="150.175" x2="120.143" y2="152.182"/>
<line fill="none" stroke="#000000" stroke-miterlimit="10" x1="125.031" y1="148.17" x2="125.031" y2="152.182"/>
<line fill="none" stroke="#000000" stroke-miterlimit="10" x1="129.918" y1="150.175" x2="129.918" y2="152.182"/>
<line fill="none" stroke="#000000" stroke-miterlimit="10" x1="134.806" y1="150.175" x2="134.806" y2="152.182"/>
<line fill="none" stroke="#000000" stroke-miterlimit="10" x1="139.693" y1="150.175" x2="139.693" y2="152.182"/>
<line fill="none" stroke="#000000" stroke-miterlimit="10" x1="144.58" y1="150.175" x2="144.58" y2="152.182"/>
<line fill="none" stroke="#000000" stroke-miterlimit="10" x1="149.468" y1="148.17" x2="149.468" y2="152.182"/>
<line fill="none" stroke="#000000" stroke-miterlimit="10" x1="154.355" y1="150.175" x2="154.355" y2="152.182"/>
<line fill="none" stroke="#000000" stroke-miterlimit="10" x1="159.243" y1="150.175" x2="159.243" y2="152.182"/>
<line fill="none" stroke="#000000" stroke-miterlimit="10" x1="164.13" y1="150.175" x2="164.13" y2="152.182"/>
<line fill="none" stroke="#000000" stroke-miterlimit="10" x1="169.017" y1="150.175" x2="169.017" y2="152.182"/>
<line fill="none" stroke="#000000" stroke-miterlimit="10" x1="173.906" y1="148.17" x2="173.906" y2="152.182"/>
<line fill="none" stroke="#000000" stroke-miterlimit="10" x1="178.792" y1="150.175" x2="178.792" y2="152.182"/>
<line fill="none" stroke="#000000" stroke-miterlimit="10" x1="183.679" y1="150.175" x2="183.679" y2="152.182"/>
<line fill="none" stroke="#000000" stroke-miterlimit="10" x1="188.568" y1="150.175" x2="188.568" y2="152.182"/>
<line fill="none" stroke="#000000" stroke-miterlimit="10" x1="193.455" y1="150.175" x2="193.455" y2="152.182"/>
<line fill="none" stroke="#000000" stroke-miterlimit="10" x1="198.342" y1="148.17" x2="198.342" y2="152.182"/>
<line fill="none" stroke="#000000" stroke-miterlimit="10" x1="203.23" y1="150.175" x2="203.23" y2="152.182"/>
<line fill="none" stroke="#000000" stroke-miterlimit="10" x1="208.117" y1="150.175" x2="208.117" y2="152.182"/>
<line fill="none" stroke="#000000" stroke-miterlimit="10" x1="213.004" y1="150.175" x2="213.004" y2="152.182"/>
<line fill="none" stroke="#000000" stroke-miterlimit="10" x1="217.892" y1="150.175" x2="217.892" y2="152.182"/>
<line fill="none" stroke="#000000" stroke-miterlimit="10" x1="222.779" y1="148.17" x2="222.779" y2="152.182"/>
<line fill="none" stroke="#000000" stroke-miterlimit="10" x1="227.666" y1="150.175" x2="227.666" y2="152.182"/>
<line fill="none" stroke="#000000" stroke-miterlimit="10" x1="232.556" y1="150.175" x2="232.556" y2="152.182"/>
<line fill="none" stroke="#000000" stroke-miterlimit="10" x1="237.443" y1="150.175" x2="237.443" y2="152.182"/>
<line fill="none" stroke="#000000" stroke-miterlimit="10" x1="242.33" y1="150.175" x2="242.33" y2="152.182"/>
<line fill="none" stroke="#000000" stroke-miterlimit="10" x1="247.216" y1="148.17" x2="247.216" y2="152.182"/>
<line fill="none" stroke="#000000" stroke-miterlimit="10" x1="247.216" y1="148.17" x2="247.216" y2="152.182"/>
<line fill="none" stroke="#000000" stroke-miterlimit="10" x1="252.105" y1="150.175" x2="252.105" y2="152.182"/>
<line fill="none" stroke="#000000" stroke-miterlimit="10" x1="256.992" y1="150.175" x2="256.992" y2="152.182"/>
<line fill="none" stroke="#000000" stroke-miterlimit="10" x1="261.878" y1="150.175" x2="261.878" y2="152.182"/>
<g>
	<text transform="matrix(1 0 0 1 48.5952 163.1431)" font-family="'MyriadPro-Regular'" font-size="9.1601">0</text>
</g>
<rect x="0" y="0" fill="none" width="295.539" height="184.463"/>
<g>
	<text transform="matrix(1 0 0 1 72.8926 163.1431)" font-family="'MyriadPro-Regular'" font-size="9.1601">5</text>
</g>
<rect x="0" y="0" fill="none" width="295.539" height="184.463"/>
<g>
	<text transform="matrix(1 0 0 1 94.2148 163.1431)" font-family="'MyriadPro-Regular'" font-size="9.1601">10</text>
</g>
<rect x="0" y="0" fill="none" width="295.539" height="184.463"/>
<g>
	<text transform="matrix(1 0 0 1 119.0093 163.1431)" font-family="'MyriadPro-Regular'" font-size="9.1601">15</text>
</g>
<rect x="0" y="0" fill="none" width="295.539" height="184.463"/>
<g>
	<text transform="matrix(1 0 0 1 143.3066 163.1431)" font-family="'MyriadPro-Regular'" font-size="9.1601">20</text>
</g>
<rect x="0" y="0" fill="none" width="295.539" height="184.463"/>
<g>
	<text transform="matrix(1 0 0 1 167.604 163.1431)" font-family="'MyriadPro-Regular'" font-size="9.1601">25</text>
</g>
<rect x="0" y="0" fill="none" width="295.539" height="184.463"/>
<g>
	<text transform="matrix(1 0 0 1 191.9019 163.1431)" font-family="'MyriadPro-Regular'" font-size="9.1601">30</text>
</g>
<rect x="0" y="0" fill="none" width="295.539" height="184.463"/>
<g>
	<text transform="matrix(1 0 0 1 216.6938 163.1431)" font-family="'MyriadPro-Regular'" font-size="9.1601">35</text>
</g>
<rect x="0" y="0" fill="none" width="295.539" height="184.463"/>
<g>
	<text transform="matrix(1 0 0 1 240.9937 163.1431)" font-family="'MyriadPro-Regular'" font-size="9.1601">40</text>
</g>
<rect x="0" y="0" fill="none" width="295.539" height="184.463"/>
<rect x="0" y="0" fill="none" width="295.539" height="184.463"/>
<text transform="matrix(0 -1 1 0 21.3135 130.7271)" font-family="'MyriadPro-Regular'" font-size="9.1601">Taxa de contagem (part/s)</text>
<line fill="none" stroke="#000000" stroke-miterlimit="10" x1="54.933" y1="145.497" x2="51.719" y2="145.497"/>
<line fill="none" stroke="#000000" stroke-miterlimit="10" x1="54.933" y1="138.809" x2="51.719" y2="138.809"/>
<line fill="none" stroke="#000000" stroke-miterlimit="10" x1="54.933" y1="132.122" x2="51.719" y2="132.122"/>
<line fill="none" stroke="#000000" stroke-miterlimit="10" x1="58.147" y1="125.435" x2="51.719" y2="125.435"/>
<line fill="none" stroke="#000000" stroke-miterlimit="10" x1="54.933" y1="118.749" x2="51.719" y2="118.749"/>
<line fill="none" stroke="#000000" stroke-miterlimit="10" x1="54.933" y1="112.062" x2="51.719" y2="112.062"/>
<line fill="none" stroke="#000000" stroke-miterlimit="10" x1="54.933" y1="105.375" x2="51.719" y2="105.375"/>
<line fill="none" stroke="#000000" stroke-miterlimit="10" x1="58.147" y1="98.688" x2="51.719" y2="98.688"/>
<line fill="none" stroke="#000000" stroke-miterlimit="10" x1="54.933" y1="92.001" x2="51.719" y2="92.001"/>
<line fill="none" stroke="#000000" stroke-miterlimit="10" x1="54.933" y1="85.314" x2="51.719" y2="85.314"/>
<line fill="none" stroke="#000000" stroke-miterlimit="10" x1="54.933" y1="78.628" x2="51.719" y2="78.628"/>
<line fill="none" stroke="#000000" stroke-miterlimit="10" x1="58.147" y1="71.94" x2="51.719" y2="71.94"/>
<line fill="none" stroke="#000000" stroke-miterlimit="10" x1="54.933" y1="65.254" x2="51.719" y2="65.254"/>
<line fill="none" stroke="#000000" stroke-miterlimit="10" x1="54.933" y1="58.567" x2="51.719" y2="58.567"/>
<line fill="none" stroke="#000000" stroke-miterlimit="10" x1="54.933" y1="51.88" x2="51.719" y2="51.88"/>
<line fill="none" stroke="#000000" stroke-miterlimit="10" x1="58.147" y1="45.194" x2="51.719" y2="45.194"/>
<line fill="none" stroke="#000000" stroke-miterlimit="10" x1="54.933" y1="38.506" x2="51.719" y2="38.506"/>
<line fill="none" stroke="#000000" stroke-miterlimit="10" x1="54.933" y1="31.82" x2="51.719" y2="31.82"/>
<line fill="none" stroke="#000000" stroke-miterlimit="10" x1="54.933" y1="25.133" x2="51.719" y2="25.133"/>
<g>
	<text transform="matrix(1 0 0 1 44.1323 156.2007)" font-family="'MyriadPro-Regular'" font-size="9.1601">0</text>
</g>
<rect x="0" y="0" fill="none" width="295.539" height="184.463"/>
<g>
	<text transform="matrix(1 0 0 1 38.1821 129.4224)" font-family="'MyriadPro-Regular'" font-size="9.1601">20</text>
</g>
<rect x="0" y="0" fill="none" width="295.539" height="184.463"/>
<g>
	<text transform="matrix(1 0 0 1 38.1821 103.1421)" font-family="'MyriadPro-Regular'" font-size="9.1601">40</text>
</g>
<rect x="0" y="0" fill="none" width="295.539" height="184.463"/>
<g>
	<text transform="matrix(1 0 0 1 38.1821 76.3647)" font-family="'MyriadPro-Regular'" font-size="9.1601">60</text>
</g>
<rect x="0" y="0" fill="none" width="295.539" height="184.463"/>
<g>
	<text transform="matrix(1 0 0 1 38.1821 49.5874)" font-family="'MyriadPro-Regular'" font-size="9.1601">80</text>
</g>
<rect x="0" y="0" fill="none" width="295.539" height="184.463"/>
<rect x="0" y="0" fill="none" width="295.539" height="184.463"/>
<g>
	<text transform="matrix(1 0 0 1 32.2314 22.811)" font-family="'MyriadPro-Regular'" font-size="9.1601">100</text>
</g>
<polyline fill="none" stroke="#000000" stroke-miterlimit="10" stroke-dasharray="1,2" points="247.216,54.287 100.593,127.708 
	73.441,141.309 63.938,146.058 59.539,148.25 "/>
<path d="M58.393,148.25c0-1.528,2.293-1.528,2.293,0C60.686,149.78,58.393,149.78,58.393,148.25z M62.791,146.058
	c0-1.53,2.293-1.53,2.293,0C65.084,147.587,62.791,147.587,62.791,146.058z M72.294,141.309c0-1.528,2.294-1.528,2.294,0
	C74.588,142.838,72.294,142.838,72.294,141.309z M99.447,127.708c0-1.529,2.293-1.529,2.293,0S99.447,129.238,99.447,127.708z
	 M246.07,54.287c0-1.529,2.293-1.529,2.293,0C248.363,55.816,246.07,55.816,246.07,54.287z"/>
<line fill="none" stroke="#000000" stroke-miterlimit="10" stroke-dasharray="1,2" x1="247.304" y1="55.245" x2="247.304" y2="50.351"/>
<line fill="none" stroke="#000000" stroke-miterlimit="10" stroke-dasharray="1,2" x1="246.721" y1="49.393" x2="248.705" y2="49.393"/>
<line fill="none" stroke="#000000" stroke-miterlimit="10" stroke-dasharray="1,2" x1="247.221" y1="53.537" x2="247.221" y2="58.432"/>
<line fill="none" stroke="#000000" stroke-miterlimit="10" stroke-dasharray="1,2" x1="246.721" y1="59.182" x2="248.705" y2="59.182"/>
<line fill="none" stroke="#000000" stroke-miterlimit="10" stroke-dasharray="1,2" x1="100.593" y1="127.708" x2="100.593" y2="126.485"/>
<line fill="none" stroke="#000000" stroke-miterlimit="10" stroke-dasharray="1,2" x1="99.602" y1="126.485" x2="101.585" y2="126.485"/>
<line fill="none" stroke="#000000" stroke-miterlimit="10" stroke-dasharray="1,2" x1="100.593" y1="127.708" x2="100.593" y2="128.934"/>
<line fill="none" stroke="#000000" stroke-miterlimit="10" stroke-dasharray="1,2" x1="99.602" y1="128.934" x2="101.585" y2="128.934"/>
<line fill="none" stroke="#000000" stroke-miterlimit="10" stroke-dasharray="1,2" x1="73.441" y1="141.309" x2="73.441" y2="140.766"/>
<line fill="none" stroke="#000000" stroke-miterlimit="10" stroke-dasharray="1,2" x1="72.449" y1="140.766" x2="74.433" y2="140.766"/>
<line fill="none" stroke="#000000" stroke-miterlimit="10" stroke-dasharray="1,2" x1="73.441" y1="141.309" x2="73.441" y2="141.853"/>
<line fill="none" stroke="#000000" stroke-miterlimit="10" stroke-dasharray="1,2" x1="72.449" y1="141.853" x2="74.433" y2="141.853"/>
<line fill="none" stroke="#000000" stroke-miterlimit="10" stroke-dasharray="1,2" x1="63.938" y1="146.058" x2="63.938" y2="145.751"/>
<line fill="none" stroke="#000000" stroke-miterlimit="10" stroke-dasharray="1,2" x1="62.946" y1="145.751" x2="64.93" y2="145.751"/>
<line fill="none" stroke="#000000" stroke-miterlimit="10" stroke-dasharray="1,2" x1="63.938" y1="146.058" x2="63.938" y2="146.364"/>
<line fill="none" stroke="#000000" stroke-miterlimit="10" stroke-dasharray="1,2" x1="62.946" y1="146.364" x2="64.93" y2="146.364"/>
<line fill="none" stroke="#000000" stroke-miterlimit="10" stroke-dasharray="1,2" x1="59.539" y1="148.25" x2="59.539" y2="148.054"/>
<line fill="none" stroke="#000000" stroke-miterlimit="10" stroke-dasharray="1,2" x1="58.547" y1="148.054" x2="60.531" y2="148.054"/>
<line fill="none" stroke="#000000" stroke-miterlimit="10" stroke-dasharray="1,2" x1="59.539" y1="148.25" x2="59.539" y2="148.447"/>
<line fill="none" stroke="#000000" stroke-miterlimit="10" stroke-dasharray="1,2" x1="58.547" y1="148.447" x2="60.531" y2="148.447"/>
</svg>
