<?xml version="1.0" encoding="utf-8"?>
<!-- Generator: Adobe Illustrator 16.0.0, SVG Export Plug-In . SVG Version: 6.00 Build 0)  -->
<!DOCTYPE svg PUBLIC "-//W3C//DTD SVG 1.1//EN" "http://www.w3.org/Graphics/SVG/1.1/DTD/svg11.dtd">
<svg version="1.1" id="Layer_1" xmlns="http://www.w3.org/2000/svg" xmlns:xlink="http://www.w3.org/1999/xlink" x="0px" y="0px"
	 width="272.744px" height="162.017px" viewBox="0 0 272.744 162.017" enable-background="new 0 0 272.744 162.017"
	 xml:space="preserve">
<g>
	<rect x="40.482" y="82.03" fill="#009FDA" width="0.875" height="22.188"/>
	<g>
		<g>
			<rect x="37.649" y="78.718" fill="#009FDA" width="3.667" height="3.708"/>
			<rect x="40.482" y="102.134" fill="#009FDA" width="4.417" height="2.542"/>
			<rect x="44.024" y="112.509" fill="#009FDA" width="4.292" height="2.625"/>
			<rect x="47.482" y="116.884" fill="#009FDA" width="5.25" height="1.709"/>
			<rect x="51.816" y="119.676" fill="#009FDA" width="4.292" height="2.5"/>
			<rect x="55.357" y="123.176" fill="#009FDA" width="4.25" height="1.625"/>
			<rect x="58.774" y="125.718" fill="#009FDA" width="8.708" height="1.541"/>
			<rect x="62.274" y="124.801" fill="#009FDA" width="5.25" height="1.125"/>
			<rect x="66.649" y="127.343" fill="#009FDA" width="4.333" height="1.875"/>
			<rect x="70.024" y="129.093" fill="#009FDA" width="4.417" height="1.75"/>
			<rect x="73.691" y="128.384" fill="#009FDA" width="4.25" height="1.584"/>
			<rect x="77.107" y="129.885" fill="#009FDA" width="8.583" height="1.875"/>
			<rect x="84.982" y="130.885" fill="#009FDA" width="4.292" height="1.708"/>
			<rect x="88.399" y="132.593" fill="#009FDA" width="4.125" height="1.666"/>
			<rect x="91.857" y="131.843" fill="#009FDA" width="4.375" height="1.583"/>
			<rect x="95.191" y="133.301" fill="#009FDA" width="8.917" height="1.917"/>
			<rect x="102.982" y="134.343" fill="#009FDA" width="7.875" height="1.667"/>
			<rect x="110.566" y="135.801" fill="#009FDA" width="15.167" height="1.083"/>
			<rect x="114.649" y="136.343" fill="#009FDA" width="4.167" height="1.625"/>
			<rect x="121.482" y="135.259" fill="#009FDA" width="4.292" height="0.834"/>
			<rect x="124.941" y="133.593" fill="#009FDA" width="4.333" height="1.75"/>
			<rect x="128.357" y="102.176" fill="#009FDA" width="0.917" height="31.958"/>
			<rect x="128.357" y="102.176" fill="#009FDA" width="5.334" height="3.417"/>
			<rect x="132.732" y="4.718" fill="#009FDA" width="0.959" height="100.875"/>
			<rect x="132.67" y="3.843" fill="#009FDA" width="4.438" height="5.188"/>
			<rect x="136.232" y="9.03" fill="#009FDA" width="0.875" height="9.531"/>
			<rect x="136.514" y="14.28" fill="#009FDA" width="4.031" height="4.25"/>
			<rect x="139.701" y="18.28" fill="#009FDA" width="0.844" height="83.25"/>
			<rect x="139.701" y="101.249" fill="#009FDA" width="4.375" height="2.531"/>
			<rect x="143.17" y="69.905" fill="#009FDA" width="0.906" height="31.344"/>
			<rect x="143.17" y="69.905" fill="#009FDA" width="5.25" height="3.5"/>
			<rect x="147.503" y="21.968" fill="#009FDA" width="0.854" height="47.938"/>
			<rect x="151.003" y="21.968" fill="#009FDA" width="0.854" height="61.688"/>
			<rect x="147.545" y="19.489" fill="#009FDA" width="4.375" height="4.312"/>
			<rect x="151.232" y="80.343" fill="#009FDA" width="4" height="3.375"/>
			<rect x="154.399" y="80.343" fill="#009FDA" width="0.833" height="51.375"/>
			<rect x="158.014" y="131.437" fill="#009FDA" width="0.812" height="7.031"/>
			<rect x="158.264" y="136.999" fill="#009FDA" width="4.094" height="1.656"/>
			<rect x="161.514" y="137.843" fill="#009FDA" width="12.062" height="1.781"/>
		</g>
		<rect x="44.107" y="104.405" fill="#009FDA" width="0.562" height="9.75"/>
		<rect x="47.42" y="114.28" fill="#009FDA" width="0.75" height="3.062"/>
		<rect x="51.857" y="118.093" fill="#009FDA" width="0.75" height="2.375"/>
		<rect x="55.232" y="121.78" fill="#009FDA" width="0.812" height="2.375"/>
		<rect x="58.795" y="124.155" fill="#009FDA" width="0.812" height="3.125"/>
	</g>
</g>
<g>
	<line fill="none" stroke="#000000" stroke-width="0.5" x1="103.613" y1="139.485" x2="103.613" y2="137.923"/>
	<line fill="none" stroke="#000000" stroke-width="0.5" x1="95.812" y1="139.485" x2="95.812" y2="137.923"/>
	<line fill="none" stroke="#000000" stroke-width="0.5" x1="126.01" y1="139.485" x2="126.01" y2="137.923"/>
	<line fill="none" stroke="#000000" stroke-width="0.5" x1="118.213" y1="139.485" x2="118.213" y2="137.923"/>
	<path fill="none" stroke="#000000" stroke-width="0.5" d="M162.572,137.923"/>
	<path fill="none" stroke="#000000" stroke-width="0.5" d="M162.572,139.485"/>
	<line fill="none" stroke="#000000" stroke-width="0.5" x1="213.863" y1="139.485" x2="213.863" y2="137.923"/>
	<line fill="none" stroke="#000000" stroke-width="0.5" x1="206.062" y1="139.485" x2="206.062" y2="137.923"/>
	<line fill="none" stroke="#000000" stroke-width="0.5" x1="199.072" y1="139.485" x2="199.072" y2="137.923"/>
	<line fill="none" stroke="#000000" stroke-width="0.5" x1="191.275" y1="139.485" x2="191.275" y2="137.923"/>
	<line fill="none" stroke="#000000" stroke-width="0.744" x1="220.932" y1="139.437" x2="220.932" y2="135.978"/>
	<line fill="none" stroke="#000000" stroke-width="0.5" x1="227.838" y1="139.485" x2="227.838" y2="137.923"/>
	<line fill="none" stroke="#000000" stroke-width="0.744" x1="257.494" y1="139.437" x2="257.494" y2="135.978"/>
	<line fill="none" stroke="#000000" stroke-width="0.744" x1="110.682" y1="139.437" x2="110.682" y2="135.978"/>
	<line fill="none" stroke="#000000" stroke-miterlimit="10" x1="169.562" y1="139.485" x2="169.562" y2="137.923"/>
	<line fill="none" stroke="#000000" stroke-width="0.5" x1="66.988" y1="139.485" x2="66.988" y2="137.923"/>
	<line fill="none" stroke="#000000" stroke-width="0.5" x1="59.188" y1="139.485" x2="59.188" y2="137.923"/>
	<line fill="none" stroke="#000000" stroke-width="0.5" x1="52.197" y1="139.485" x2="52.197" y2="137.923"/>
	<line fill="none" stroke="#000000" stroke-width="0.5" x1="44.4" y1="139.485" x2="44.4" y2="137.923"/>
	<line fill="none" stroke="#000000" stroke-width="0.744" x1="74.057" y1="139.437" x2="74.057" y2="135.978"/>
	<line fill="none" stroke="#000000" stroke-width="0.5" x1="88.822" y1="139.485" x2="88.822" y2="137.923"/>
	<line fill="none" stroke="#000000" stroke-width="0.5" x1="81.025" y1="139.485" x2="81.025" y2="137.923"/>
	<line fill="none" stroke="#000000" stroke-width="0.5" x1="140.801" y1="139.485" x2="140.801" y2="137.923"/>
	<line fill="none" stroke="#000000" stroke-width="0.5" x1="133" y1="139.485" x2="133" y2="137.923"/>
	<line fill="none" stroke="#000000" stroke-width="0.744" x1="147.869" y1="139.437" x2="147.869" y2="135.978"/>
	<line fill="none" stroke="#000000" stroke-width="0.5" x1="177.363" y1="139.485" x2="177.363" y2="137.923"/>
	<line fill="none" stroke="#000000" stroke-width="0.5" x1="154.775" y1="139.485" x2="154.775" y2="137.923"/>
	<line fill="none" stroke="#000000" stroke-width="0.744" x1="184.432" y1="139.437" x2="184.432" y2="135.978"/>
	<line fill="none" stroke="#000000" stroke-width="0.5" x1="250.426" y1="139.485" x2="250.426" y2="137.923"/>
	<line fill="none" stroke="#000000" stroke-width="0.5" x1="242.625" y1="139.485" x2="242.625" y2="137.923"/>
	<line fill="none" stroke="#000000" stroke-width="0.5" x1="235.635" y1="139.485" x2="235.635" y2="137.923"/>
</g>
<g>
	<text transform="matrix(0 -1 1 0 6.6958 87.6572)" font-family="'MyriadPro-Regular'" font-size="8">contagens</text>
</g>
<g>
	<text transform="matrix(1 0 0 1 138.5293 160.0166)" font-family="'MyriadPro-Regular'" font-size="8">canal</text>
</g>
<text transform="matrix(1 0 0 1 70.1284 148.5088)" font-family="'MyriadPro-Regular'" font-size="8">10</text>
<text transform="matrix(1 0 0 1 105.9624 148.5088)" font-family="'MyriadPro-Regular'" font-size="8">20</text>
<text transform="matrix(1 0 0 1 143.6289 148.5088)" font-family="'MyriadPro-Regular'" font-size="8">30</text>
<text transform="matrix(1 0 0 1 180.7949 148.5088)" font-family="'MyriadPro-Regular'" font-size="8">40</text>
<text transform="matrix(1 0 0 1 217.1279 148.5088)" font-family="'MyriadPro-Regular'" font-size="8">50</text>
<text transform="matrix(1 0 0 1 253.7949 148.5088)" font-family="'MyriadPro-Regular'" font-size="8">60</text>
<text transform="matrix(1 0 0 1 31.2114 148.5088)" font-family="'MyriadPro-Regular'" font-size="8">0</text>
<text transform="matrix(1 0 0 1 17.2139 114.4102)" font-family="'MyriadPro-Regular'" font-size="8">1000</text>
<text transform="matrix(1 0 0 1 17.2139 85.7852)" font-family="'MyriadPro-Regular'" font-size="8">2000</text>
<text transform="matrix(1 0 0 1 17.2139 56.1611)" font-family="'MyriadPro-Regular'" font-size="8">3000</text>
<text transform="matrix(1 0 0 1 17.2139 27.4736)" font-family="'MyriadPro-Regular'" font-size="8">4000</text>
<line fill="none" stroke="#000000" stroke-width="1.0524" x1="37.46" y1="139.846" x2="37.46" y2="0"/>
<line fill="none" stroke="#000000" stroke-width="0.9328" x1="37.46" y1="139.846" x2="272.744" y2="139.846"/>
<line fill="none" stroke="#000000" stroke-width="0.5" x1="37.294" y1="134.782" x2="41.126" y2="134.782"/>
<line fill="none" stroke="#000000" stroke-width="0.5" x1="37.294" y1="128.741" x2="41.126" y2="128.741"/>
<line fill="none" stroke="#000000" stroke-width="0.5" x1="37.294" y1="122.637" x2="41.126" y2="122.637"/>
<line fill="none" stroke="#000000" stroke-width="0.5" x1="37.294" y1="117.407" x2="41.126" y2="117.407"/>
<line fill="none" stroke="#000000" stroke-width="0.6737" x1="37.294" y1="111.262" x2="44.251" y2="111.262"/>
<line fill="none" stroke="#000000" stroke-width="0.5" x1="37.294" y1="105.324" x2="41.126" y2="105.324"/>
<line fill="none" stroke="#000000" stroke-width="0.5" x1="37.294" y1="99.846" x2="41.126" y2="99.846"/>
<line fill="none" stroke="#000000" stroke-width="0.5" x1="37.294" y1="93.866" x2="41.126" y2="93.866"/>
<line fill="none" stroke="#000000" stroke-width="0.5" x1="37.294" y1="87.657" x2="41.126" y2="87.657"/>
<line fill="none" stroke="#000000" stroke-width="0.6737" x1="37.294" y1="82.637" x2="44.251" y2="82.637"/>
<line fill="none" stroke="#000000" stroke-width="0.5" x1="37.294" y1="76.532" x2="41.126" y2="76.532"/>
<line fill="none" stroke="#000000" stroke-width="0.5" x1="37.294" y1="70.491" x2="41.126" y2="70.491"/>
<line fill="none" stroke="#000000" stroke-width="0.5" x1="37.294" y1="64.387" x2="41.126" y2="64.387"/>
<line fill="none" stroke="#000000" stroke-width="0.5" x1="37.294" y1="59.157" x2="41.126" y2="59.157"/>
<line fill="none" stroke="#000000" stroke-width="0.6737" x1="37.294" y1="53.012" x2="44.251" y2="53.012"/>
<line fill="none" stroke="#000000" stroke-width="0.5" x1="37.294" y1="47.845" x2="41.126" y2="47.845"/>
<line fill="none" stroke="#000000" stroke-width="0.5" x1="37.294" y1="41.804" x2="41.126" y2="41.804"/>
<line fill="none" stroke="#000000" stroke-width="0.5" x1="37.294" y1="35.699" x2="41.126" y2="35.699"/>
<line fill="none" stroke="#000000" stroke-width="0.5" x1="37.294" y1="30.47" x2="41.126" y2="30.47"/>
<line fill="none" stroke="#000000" stroke-width="0.6737" x1="37.294" y1="24.324" x2="44.251" y2="24.324"/>
<line fill="none" stroke="#000000" stroke-width="0.5" x1="37.731" y1="18.282" x2="41.563" y2="18.282"/>
<line fill="none" stroke="#000000" stroke-width="0.5" x1="37.731" y1="12.929" x2="41.563" y2="12.929"/>
<line fill="none" stroke="#000000" stroke-width="0.5" x1="37.731" y1="6.824" x2="41.563" y2="6.824"/>
<line fill="none" stroke="#000000" stroke-width="0.5" x1="37.731" y1="0.345" x2="41.563" y2="0.345"/>
<rect x="154.399" y="129.124" fill="#009FDA" width="4.458" height="2.594"/>
</svg>
