<?xml version="1.0" encoding="utf-8"?>
<!-- Generator: Adobe Illustrator 16.0.0, SVG Export Plug-In . SVG Version: 6.00 Build 0)  -->
<!DOCTYPE svg PUBLIC "-//W3C//DTD SVG 1.1//EN" "http://www.w3.org/Graphics/SVG/1.1/DTD/svg11.dtd">
<svg version="1.1" id="Layer_1" xmlns="http://www.w3.org/2000/svg" xmlns:xlink="http://www.w3.org/1999/xlink" x="0px" y="0px"
	 width="259.395px" height="164.932px" viewBox="0 0 259.395 164.932" enable-background="new 0 0 259.395 164.932"
	 xml:space="preserve">
<text transform="matrix(0 -1 1 0 7.5332 122.2402)" font-family="'MyriadPro-Regular'" font-size="9">Posição do máximo (canal)</text>
<text transform="matrix(1 0 0 1 114.3276 162.6816)" font-family="'MyriadPro-Regular'" font-size="9">Tensão no fototubo (V)</text>
<text transform="matrix(1 0 0 1 63.6479 148.0996)" font-family="'MyriadPro-Regular'" font-size="9">1000</text>
<text transform="matrix(1 0 0 1 105.8979 148.0996)" font-family="'MyriadPro-Regular'" font-size="9">1500</text>
<text transform="matrix(1 0 0 1 148.3975 148.0996)" font-family="'MyriadPro-Regular'" font-size="9">2000</text>
<text transform="matrix(1 0 0 1 190.814 148.0996)" font-family="'MyriadPro-Regular'" font-size="9">2500</text>
<text transform="matrix(1 0 0 1 233.064 148.0996)" font-family="'MyriadPro-Regular'" font-size="9">3000</text>
<text transform="matrix(1 0 0 1 31.9805 148.0996)" font-family="'MyriadPro-Regular'" font-size="9">0</text>
<text transform="matrix(1 0 0 1 25.9805 112.665)" font-family="'MyriadPro-Regular'" font-size="9">20</text>
<text transform="matrix(1 0 0 1 25.9805 86.1641)" font-family="'MyriadPro-Regular'" font-size="9">40</text>
<text transform="matrix(1 0 0 1 25.9805 59.457)" font-family="'MyriadPro-Regular'" font-size="9">60</text>
<text transform="matrix(1 0 0 1 25.9805 33.5391)" font-family="'MyriadPro-Regular'" font-size="9">80</text>
<text transform="matrix(1 0 0 1 19.9805 7.5332)" font-family="'MyriadPro-Regular'" font-size="9">100</text>
<line fill="none" stroke="#000000" stroke-width="1.0524" x1="40.229" y1="135.434" x2="40.229" y2="5.136"/>
<line fill="none" stroke="#000000" stroke-width="0.9328" x1="40.229" y1="135.434" x2="259.395" y2="135.434"/>
<line fill="none" stroke="#000000" stroke-width="0.5" x1="40.062" y1="128.803" x2="43.895" y2="128.803"/>
<line fill="none" stroke="#000000" stroke-width="0.5" x1="40.062" y1="122.24" x2="43.895" y2="122.24"/>
<line fill="none" stroke="#000000" stroke-width="0.5" x1="40.062" y1="115.74" x2="43.895" y2="115.74"/>
<line fill="none" stroke="#000000" stroke-width="0.6737" x1="40.062" y1="109.678" x2="47.02" y2="109.678"/>
<line fill="none" stroke="#000000" stroke-width="0.5" x1="40.062" y1="103.115" x2="43.895" y2="103.115"/>
<line fill="none" stroke="#000000" stroke-width="0.5" x1="40.062" y1="96.365" x2="43.895" y2="96.365"/>
<line fill="none" stroke="#000000" stroke-width="0.5" x1="40.062" y1="89.99" x2="43.895" y2="89.99"/>
<line fill="none" stroke="#000000" stroke-width="0.6737" x1="40.062" y1="83.428" x2="47.02" y2="83.428"/>
<line fill="none" stroke="#000000" stroke-width="0.5" x1="40.062" y1="76.761" x2="43.895" y2="76.761"/>
<line fill="none" stroke="#000000" stroke-width="0.5" x1="40.062" y1="70.636" x2="43.895" y2="70.636"/>
<line fill="none" stroke="#000000" stroke-width="0.5" x1="40.062" y1="63.97" x2="43.895" y2="63.97"/>
<line fill="none" stroke="#000000" stroke-width="0.6737" x1="40.062" y1="56.719" x2="47.02" y2="56.719"/>
<line fill="none" stroke="#000000" stroke-width="0.5" x1="40.062" y1="50.136" x2="43.895" y2="50.136"/>
<line fill="none" stroke="#000000" stroke-width="0.5" x1="40.062" y1="44.011" x2="43.895" y2="44.011"/>
<line fill="none" stroke="#000000" stroke-width="0.5" x1="40.062" y1="37.136" x2="43.895" y2="37.136"/>
<line fill="none" stroke="#000000" stroke-width="0.6737" x1="40.062" y1="30.678" x2="47.02" y2="30.678"/>
<line fill="none" stroke="#000000" stroke-width="0.5" x1="40.062" y1="24.136" x2="43.895" y2="24.136"/>
<line fill="none" stroke="#000000" stroke-width="0.5" x1="40.062" y1="18.011" x2="43.895" y2="18.011"/>
<line fill="none" stroke="#000000" stroke-width="0.5" x1="40.062" y1="11.261" x2="43.895" y2="11.261"/>
<line fill="none" stroke="#000000" stroke-width="0.5" x1="82.644" y1="135.242" x2="82.644" y2="133.594"/>
<line fill="none" stroke="#000000" stroke-width="0.5" x1="65.229" y1="135.199" x2="65.229" y2="133.637"/>
<line fill="none" stroke="#000000" stroke-width="0.5" x1="57.147" y1="135.199" x2="57.147" y2="133.637"/>
<line fill="none" stroke="#000000" stroke-width="0.5" x1="48.313" y1="135.199" x2="48.313" y2="133.637"/>
<line fill="none" stroke="#000000" stroke-width="0.744" x1="73.562" y1="135.152" x2="73.562" y2="131.691"/>
<line fill="none" stroke="#000000" stroke-width="0.5" x1="107.396" y1="135.199" x2="107.396" y2="133.637"/>
<line fill="none" stroke="#000000" stroke-width="0.5" x1="90.479" y1="135.242" x2="90.479" y2="133.594"/>
<line fill="none" stroke="#000000" stroke-width="0.5" x1="99.812" y1="135.242" x2="99.812" y2="133.594"/>
<line fill="none" stroke="#000000" stroke-width="0.744" x1="115.562" y1="135.152" x2="115.562" y2="131.691"/>
<line fill="none" stroke="#000000" stroke-width="0.5" x1="124.727" y1="135.242" x2="124.727" y2="133.594"/>
<line fill="none" stroke="#000000" stroke-width="0.5" x1="149.479" y1="135.199" x2="149.479" y2="133.637"/>
<line fill="none" stroke="#000000" stroke-width="0.5" x1="132.562" y1="135.242" x2="132.562" y2="133.594"/>
<line fill="none" stroke="#000000" stroke-width="0.5" x1="141.895" y1="135.242" x2="141.895" y2="133.594"/>
<line fill="none" stroke="#000000" stroke-width="0.744" x1="157.645" y1="135.152" x2="157.645" y2="131.691"/>
<line fill="none" stroke="#000000" stroke-width="0.5" x1="166.644" y1="135.242" x2="166.644" y2="133.594"/>
<line fill="none" stroke="#000000" stroke-width="0.5" x1="191.396" y1="135.199" x2="191.396" y2="133.637"/>
<line fill="none" stroke="#000000" stroke-width="0.5" x1="174.479" y1="135.242" x2="174.479" y2="133.594"/>
<line fill="none" stroke="#000000" stroke-width="0.5" x1="183.812" y1="135.242" x2="183.812" y2="133.594"/>
<line fill="none" stroke="#000000" stroke-width="0.744" x1="199.562" y1="135.152" x2="199.562" y2="131.691"/>
<line fill="none" stroke="#000000" stroke-width="0.5" x1="208.977" y1="135.242" x2="208.977" y2="133.594"/>
<line fill="none" stroke="#000000" stroke-width="0.5" x1="233.729" y1="135.199" x2="233.729" y2="133.637"/>
<line fill="none" stroke="#000000" stroke-width="0.5" x1="251.062" y1="135.199" x2="251.062" y2="133.637"/>
<line fill="none" stroke="#000000" stroke-width="0.5" x1="216.812" y1="135.242" x2="216.812" y2="133.594"/>
<line fill="none" stroke="#000000" stroke-width="0.5" x1="226.145" y1="135.242" x2="226.145" y2="133.594"/>
<line fill="none" stroke="#000000" stroke-width="0.744" x1="241.895" y1="135.152" x2="241.895" y2="131.691"/>
<polyline fill="none" stroke="#009FDA" stroke-width="0.83" points="56.979,130.304 65.312,125.47 73.312,116.97 81.979,103.804 
	90.146,87.304 98.812,71.304 106.979,58.304 114.979,50.304 124.312,45.637 132.146,42.304 140.979,41.47 149.312,39.804 
	157.312,39.804 178.312,39.804 199.479,39.804 220.479,39.804 241.979,39.804 "/>
<circle fill="#ABE1FA" stroke="#009FDA" stroke-width="0.5" cx="56.979" cy="130.304" r="1.406"/>
<circle fill="#ABE1FA" stroke="#009FDA" stroke-width="0.5" cx="65.312" cy="125.47" r="1.406"/>
<circle fill="#ABE1FA" stroke="#009FDA" stroke-width="0.5" cx="72.939" cy="116.97" r="1.406"/>
<circle fill="#ABE1FA" stroke="#009FDA" stroke-width="0.5" cx="81.979" cy="103.804" r="1.406"/>
<circle fill="#ABE1FA" stroke="#009FDA" stroke-width="0.5" cx="98.812" cy="71.304" r="1.406"/>
<circle fill="#ABE1FA" stroke="#009FDA" stroke-width="0.5" cx="89.312" cy="88.137" r="1.406"/>
<circle fill="#ABE1FA" stroke="#009FDA" stroke-width="0.5" cx="106.979" cy="58.304" r="1.406"/>
<circle fill="#ABE1FA" stroke="#009FDA" stroke-width="0.5" cx="114.979" cy="50.304" r="1.406"/>
<circle fill="#ABE1FA" stroke="#009FDA" stroke-width="0.5" cx="124.312" cy="45.637" r="1.406"/>
<circle fill="#ABE1FA" stroke="#009FDA" stroke-width="0.5" cx="132.146" cy="42.304" r="1.406"/>
<circle fill="#ABE1FA" stroke="#009FDA" stroke-width="0.5" cx="140.979" cy="41.47" r="1.406"/>
<circle fill="#ABE1FA" stroke="#009FDA" stroke-width="0.5" cx="149.312" cy="39.804" r="1.406"/>
<circle fill="#ABE1FA" stroke="#009FDA" stroke-width="0.5" cx="157.312" cy="39.804" r="1.406"/>
<circle fill="#ABE1FA" stroke="#009FDA" stroke-width="0.5" cx="178.312" cy="39.804" r="1.406"/>
<circle fill="#ABE1FA" stroke="#009FDA" stroke-width="0.5" cx="199.479" cy="39.804" r="1.406"/>
<circle fill="#ABE1FA" stroke="#009FDA" stroke-width="0.5" cx="220.479" cy="39.804" r="1.406"/>
<circle fill="#ABE1FA" stroke="#009FDA" stroke-width="0.5" cx="241.979" cy="39.804" r="1.406"/>
</svg>
