<?xml version="1.0" encoding="utf-8"?>
<!-- Generator: Adobe Illustrator 16.0.0, SVG Export Plug-In . SVG Version: 6.00 Build 0)  -->
<!DOCTYPE svg PUBLIC "-//W3C//DTD SVG 1.1//EN" "http://www.w3.org/Graphics/SVG/1.1/DTD/svg11.dtd">
<svg version="1.1" id="Layer_1" xmlns="http://www.w3.org/2000/svg" xmlns:xlink="http://www.w3.org/1999/xlink" x="0px" y="0px"
	 width="282.51px" height="132.756px" viewBox="0 0 282.51 132.756" enable-background="new 0 0 282.51 132.756"
	 xml:space="preserve">
<text transform="matrix(0 -1 1 0 6.6958 67.4453)" font-family="'MyriadPro-Regular'" font-size="8">contagens</text>
<text transform="matrix(1 0 0 1 150.1133 130.7559)" font-family="'MyriadPro-Regular'" font-size="8">canal</text>
<text transform="matrix(1 0 0 1 85.5312 111.8359)" font-family="'MyriadPro-Regular'" font-size="8">100</text>
<text transform="matrix(1 0 0 1 131.6987 111.8359)" font-family="'MyriadPro-Regular'" font-size="8">200</text>
<text transform="matrix(1 0 0 1 176.6982 111.8359)" font-family="'MyriadPro-Regular'" font-size="8">300</text>
<text transform="matrix(1 0 0 1 222.1973 111.8359)" font-family="'MyriadPro-Regular'" font-size="8">400</text>
<text transform="matrix(1 0 0 1 270.1973 111.8359)" font-family="'MyriadPro-Regular'" font-size="8">500</text>
<text transform="matrix(1 0 0 1 38.2812 111.8359)" font-family="'MyriadPro-Regular'" font-size="8">0</text>
<text transform="matrix(1 0 0 1 26.2852 67.4443)" font-family="'MyriadPro-Regular'" font-size="8">2000</text>
<text transform="matrix(1 0 0 1 26.2837 31.9023)" font-family="'MyriadPro-Regular'" font-size="8">4000</text>
<line fill="none" stroke="#000000" stroke-width="1.0524" x1="46.53" y1="101.172" x2="46.53" y2="0.5"/>
<line fill="none" stroke="#000000" stroke-width="0.9328" x1="46.53" y1="101.172" x2="281.813" y2="101.172"/>
<line fill="none" stroke="#000000" stroke-width="0.5" x1="46.364" y1="92.504" x2="50.196" y2="92.504"/>
<line fill="none" stroke="#000000" stroke-width="0.5" x1="46.364" y1="82.9" x2="50.196" y2="82.9"/>
<line fill="none" stroke="#000000" stroke-width="0.5" x1="46.364" y1="73.254" x2="50.196" y2="73.254"/>
<line fill="none" stroke="#000000" stroke-width="0.5" x1="46.364" y1="64.629" x2="53.321" y2="64.629"/>
<line fill="none" stroke="#000000" stroke-width="0.6737" x1="46.364" y1="54.963" x2="50.196" y2="54.963"/>
<line fill="none" stroke="#000000" stroke-width="0.5" x1="46.364" y1="45.629" x2="50.196" y2="45.629"/>
<line fill="none" stroke="#000000" stroke-width="0.5" x1="46.364" y1="36.025" x2="50.196" y2="36.025"/>
<line fill="none" stroke="#000000" stroke-width="0.5" x1="46.429" y1="27.129" x2="53.255" y2="27.129"/>
<line fill="none" stroke="#000000" stroke-width="0.5" x1="46.364" y1="17.754" x2="50.196" y2="17.754"/>
<line fill="none" stroke="#000000" stroke-width="0.5" x1="83.034" y1="100.938" x2="83.034" y2="99.375"/>
<line fill="none" stroke="#000000" stroke-width="0.5" x1="73.446" y1="100.938" x2="73.446" y2="99.375"/>
<line fill="none" stroke="#000000" stroke-width="0.5" x1="64.758" y1="100.938" x2="64.758" y2="99.375"/>
<line fill="none" stroke="#000000" stroke-width="0.5" x1="55.138" y1="100.938" x2="55.138" y2="99.375"/>
<line fill="none" stroke="#000000" stroke-width="0.744" x1="92.524" y1="100.891" x2="92.524" y2="97.43"/>
<line fill="none" stroke="#000000" stroke-width="0.5" x1="128.971" y1="100.938" x2="128.971" y2="99.375"/>
<line fill="none" stroke="#000000" stroke-width="0.5" x1="119.383" y1="100.938" x2="119.383" y2="99.375"/>
<line fill="none" stroke="#000000" stroke-width="0.5" x1="110.696" y1="100.938" x2="110.696" y2="99.375"/>
<line fill="none" stroke="#000000" stroke-width="0.5" x1="165.533" y1="100.938" x2="165.533" y2="99.375"/>
<line fill="none" stroke="#000000" stroke-width="0.5" x1="155.945" y1="100.938" x2="155.945" y2="99.375"/>
<line fill="none" stroke="#000000" stroke-width="0.5" x1="147.258" y1="100.938" x2="147.258" y2="99.375"/>
<line fill="none" stroke="#000000" stroke-width="0.5" x1="101.076" y1="100.938" x2="101.076" y2="99.375"/>
<line fill="none" stroke="#000000" stroke-width="0.744" x1="137.711" y1="100.891" x2="137.711" y2="97.43"/>
<path stroke="#000000" stroke-width="0.8699" d="M81.921,124.873"/>
<polyline fill="none" stroke="#009FDA" stroke-width="0.83" points="47.374,69.694 47.374,79.754 48.354,79.754 48.354,85.048 
	49.08,85.048 49.08,88.226 49.848,88.226 49.848,88.941 50.829,88.941 50.829,90.031 51.553,90.031 51.553,91.776 52.877,91.776 
	52.877,93.052 53.814,93.052 53.814,94.206 55.821,94.206 55.821,94.798 56.801,94.798 56.801,95.482 58.168,95.482 58.168,95.733 
	59.915,95.733 59.915,96.075 57.912,96.075 57.912,96.292 60.945,96.292 60.945,96.562 57.938,96.562 57.938,96.785 60.897,96.785 
	62.561,96.785 62.561,96.971 59.394,96.971 59.394,97.203 62.578,97.203 62.578,97.438 59.376,97.438 59.376,97.602 64.257,97.602 
	64.257,97.799 61.073,97.799 61.073,98.01 64.352,98.01 64.352,98.219 62.688,98.219 62.688,98.594 64.4,98.594 69.279,98.594 
	67.552,98.594 67.552,99.249 67.199,99.249 67.199,98.605 64.688,98.605 64.688,98.278 64.761,98.229 65.473,98.229 67.84,98.229 
	68.415,98.229 68.592,98.229 68.976,98.229 68.976,85.617 69.633,85.617 69.633,31.046 70.56,31.046 70.56,7.334 70.56,15.839 
	71.263,15.839 71.263,71.717 71.999,71.717 72.182,71.717 72.182,84.086 72.182,76.078 72.65,76.078 72.65,71.424 72.65,56.463 
	73.726,56.463 73.726,27.985 74.239,27.985 74.239,67.653 75.167,67.653 75.167,95.335 76.096,95.335 76.096,100.171 
	92.541,100.171 "/>
<line fill="none" stroke="#000000" stroke-width="0.5" x1="175.209" y1="100.938" x2="175.209" y2="99.375"/>
<line fill="none" stroke="#000000" stroke-width="0.744" x1="182.709" y1="101.105" x2="182.709" y2="97.645"/>
<line fill="none" stroke="#000000" stroke-width="0.5" x1="218.271" y1="100.914" x2="218.271" y2="99.352"/>
<line fill="none" stroke="#000000" stroke-width="0.5" x1="208.684" y1="100.914" x2="208.684" y2="99.352"/>
<line fill="none" stroke="#000000" stroke-width="0.5" x1="199.996" y1="100.914" x2="199.996" y2="99.352"/>
<line fill="none" stroke="#000000" stroke-width="0.5" x1="190.376" y1="100.914" x2="190.376" y2="99.352"/>
<line fill="none" stroke="#000000" stroke-width="0.744" x1="227.762" y1="100.867" x2="227.762" y2="97.406"/>
<line fill="none" stroke="#000000" stroke-width="0.5" x1="264.797" y1="100.891" x2="264.797" y2="99.328"/>
<line fill="none" stroke="#000000" stroke-width="0.5" x1="255.209" y1="100.891" x2="255.209" y2="99.328"/>
<line fill="none" stroke="#000000" stroke-width="0.5" x1="246.521" y1="100.891" x2="246.521" y2="99.328"/>
<line fill="none" stroke="#000000" stroke-width="0.5" x1="236.901" y1="100.891" x2="236.901" y2="99.328"/>
<line fill="none" stroke="#000000" stroke-width="0.744" x1="274.287" y1="100.844" x2="274.287" y2="97.383"/>
<line fill="none" stroke="#000000" stroke-width="0.5" x1="46.364" y1="9.396" x2="50.196" y2="9.396"/>
<line fill="none" stroke="#000000" x1="46.364" y1="0.5" x2="53.19" y2="0.5"/>
</svg>
