<?xml version="1.0" encoding="utf-8"?>
<!-- Generator: Adobe Illustrator 16.0.0, SVG Export Plug-In . SVG Version: 6.00 Build 0)  -->
<!DOCTYPE svg PUBLIC "-//W3C//DTD SVG 1.1//EN" "http://www.w3.org/Graphics/SVG/1.1/DTD/svg11.dtd">
<svg version="1.1" id="Layer_1" xmlns="http://www.w3.org/2000/svg" xmlns:xlink="http://www.w3.org/1999/xlink" x="0px" y="0px"
	 width="264.885px" height="175.497px" viewBox="0 0 264.885 175.497" enable-background="new 0 0 264.885 175.497"
	 xml:space="preserve">
<text transform="matrix(0 -1 1 0 7.5332 94.0098)" font-family="'MyriadPro-Regular'" font-size="9">contagens</text>
<text transform="matrix(1 0 0 1 140.7007 159.0352)" font-family="'MyriadPro-Regular'" font-size="9">canal</text>
<text transform="matrix(1 0 0 1 77.5337 143.6572)" font-family="'MyriadPro-Regular'" font-size="9">100</text>
<text transform="matrix(1 0 0 1 118.4507 143.6572)" font-family="'MyriadPro-Regular'" font-size="9">200</text>
<text transform="matrix(1 0 0 1 164.0337 143.6572)" font-family="'MyriadPro-Regular'" font-size="9">300</text>
<text transform="matrix(1 0 0 1 207.5332 143.6572)" font-family="'MyriadPro-Regular'" font-size="9">400</text>
<text transform="matrix(1 0 0 1 251.0332 143.6572)" font-family="'MyriadPro-Regular'" font-size="9">500</text>
<text transform="matrix(1 0 0 1 34.6172 143.6572)" font-family="'MyriadPro-Regular'" font-size="9">0</text>
<text transform="matrix(1 0 0 1 22.6157 90.4521)" font-family="'MyriadPro-Regular'" font-size="9">500</text>
<text transform="matrix(1 0 0 1 16.1152 44.6191)" font-family="'MyriadPro-Regular'" font-size="9">1000</text>
<line fill="none" stroke="#000000" stroke-width="1.0224" x1="42.617" y1="131.704" x2="42.617" y2="0"/>
<line fill="none" stroke="#000000" stroke-width="0.8976" x1="42.617" y1="131.704" x2="264.461" y2="131.704"/>
<line fill="none" stroke="#000000" stroke-width="0.5" x1="42.451" y1="123.139" x2="46.283" y2="123.139"/>
<line fill="none" stroke="#000000" stroke-width="0.5" x1="42.951" y1="114.119" x2="46.783" y2="114.119"/>
<line fill="none" stroke="#000000" stroke-width="0.5" x1="42.451" y1="105.014" x2="46.283" y2="105.014"/>
<line fill="none" stroke="#000000" stroke-width="0.5" x1="46.283" y1="96.139" x2="42.451" y2="96.139"/>
<line fill="none" stroke="#000000" stroke-width="0.6737" x1="42.451" y1="87.014" x2="49.408" y2="87.014"/>
<line fill="none" stroke="#000000" stroke-width="0.5" x1="42.451" y1="77.306" x2="46.283" y2="77.306"/>
<line fill="none" stroke="#000000" stroke-width="0.5" x1="42.951" y1="68.286" x2="46.783" y2="68.286"/>
<line fill="none" stroke="#000000" stroke-width="0.5" x1="42.451" y1="59.181" x2="46.283" y2="59.181"/>
<line fill="none" stroke="#000000" stroke-width="0.5" x1="46.283" y1="50.306" x2="42.451" y2="50.306"/>
<line fill="none" stroke="#000000" stroke-width="0.5" x1="42.451" y1="32.223" x2="46.283" y2="32.223"/>
<line fill="none" stroke="#000000" stroke-width="0.5" x1="42.951" y1="23.203" x2="46.783" y2="23.203"/>
<line fill="none" stroke="#000000" stroke-width="0.5" x1="42.451" y1="14.098" x2="46.283" y2="14.098"/>
<line fill="none" stroke="#000000" stroke-width="0.5" x1="46.283" y1="5.223" x2="42.451" y2="5.223"/>
<line fill="none" stroke="#000000" stroke-width="0.6737" x1="42.451" y1="41.181" x2="49.408" y2="41.181"/>
<line fill="none" stroke="#000000" stroke-width="0.5" x1="152.002" y1="131.47" x2="152.002" y2="129.907"/>
<line fill="none" stroke="#000000" stroke-width="0.5" x1="135.658" y1="131.47" x2="135.658" y2="129.907"/>
<line fill="none" stroke="#000000" stroke-width="0.5" x1="144.127" y1="131.47" x2="144.127" y2="129.907"/>
<line fill="none" stroke="#000000" stroke-width="0.5" x1="110.658" y1="131.47" x2="110.658" y2="129.907"/>
<line fill="none" stroke="#000000" stroke-width="0.5" x1="118.99" y1="131.47" x2="118.99" y2="129.907"/>
<line fill="none" stroke="#000000" stroke-width="0.5" x1="102.73" y1="131.47" x2="102.73" y2="129.907"/>
<line fill="none" stroke="#000000" stroke-width="0.5" x1="94.141" y1="131.47" x2="94.141" y2="129.907"/>
<line fill="none" stroke="#000000" stroke-width="0.5" x1="77.865" y1="131.47" x2="77.865" y2="129.907"/>
<line fill="none" stroke="#000000" stroke-width="0.5" x1="69.033" y1="131.47" x2="69.033" y2="129.907"/>
<line fill="none" stroke="#000000" stroke-width="0.5" x1="61.012" y1="131.47" x2="61.012" y2="129.907"/>
<line fill="none" stroke="#000000" stroke-width="0.5" x1="52.559" y1="131.47" x2="52.559" y2="129.907"/>
<line fill="none" stroke="#000000" stroke-width="0.744" x1="86.277" y1="131.421" x2="86.277" y2="127.962"/>
<line fill="none" stroke="#000000" stroke-width="0.5" x1="126.928" y1="131.47" x2="126.928" y2="128.626"/>
<line fill="none" stroke="#009FDA" x1="43.586" y1="80.16" x2="43.586" y2="82.994"/>
<g>
	<line fill="none" stroke="#009FDA" x1="201.773" y1="130.91" x2="206.273" y2="130.91"/>
	<line fill="none" stroke="#009FDA" x1="207.586" y1="130.973" x2="211.398" y2="130.973"/>
	<line fill="none" stroke="#009FDA" x1="212.336" y1="130.91" x2="215.273" y2="130.91"/>
	<line fill="none" stroke="#009FDA" x1="217.148" y1="131.098" x2="219.523" y2="131.098"/>
	<line fill="none" stroke="#009FDA" x1="220.461" y1="131.035" x2="224.398" y2="131.035"/>
	<line fill="none" stroke="#009FDA" x1="226.398" y1="131.035" x2="228.961" y2="131.035"/>
	<line fill="none" stroke="#009FDA" x1="233.336" y1="130.973" x2="235.523" y2="130.973"/>
	<line fill="none" stroke="#009FDA" x1="237.461" y1="130.91" x2="238.586" y2="130.91"/>
	<line fill="none" stroke="#009FDA" x1="246.711" y1="131.035" x2="247.836" y2="131.035"/>
	<line fill="none" stroke="#009FDA" x1="258.336" y1="131.348" x2="258.336" y2="128.223"/>
	<path fill="none" stroke="#009FDA" stroke-width="0.83" d="M43.58,82.899l0.061,1.106l1.312-0.125v6.688h0.812v6.125h1.188v6.062
		h1.562v1.688v2.25h1.062v3.875h0.75v-2.312h1.062v2.625h0.938v2.5h0.875v1.375h2.062v2.125h0.875v0.812v-2h1v1.875v-1.188h4.25
		l-2.25,0.062v1.062h4v0.875h-3.938l2.062,0.125v1.25h3.25h2.188v0.938h-2.406h-1.844v0.812h1.875l0.312-0.812v-1.625h2.562v4.25
		v-0.844h0.75v-2.188h0.531v2.562v0.562h0.906v-1.969v1.844h1.031h0.312V121.1h0.656v2.344h0.75v-2.312h0.531v-0.812h0.562v2.969
		h1.031v0.719v-0.719h0.906h0.719v-1.125v2.75h0.656v-1.938h1.812v0.812h-2.062h2.062v1.219h1.375v-1.438h2.156v0.688h-1.375v0.75
		h1.438h-1.188v0.938h0.844v0.531c0,0,0.344,0,0.562,0s0.312-0.312,0.312-0.312v-0.719l-0.234-0.234h0.734v-0.547h0.969v0.938v0.25
		h3.688v0.562h-2.969V125.6h1.656v-1.094h0.781v0.688v2.125h0.938v-0.688v-0.719h0.906v-2.062v2.781l0.062-1.188h2.5v0.844H89.39
		h7.156v0.844h-5.844h0.719v1.094h0.781v-0.969h1.344v0.875h0.906l-0.094-1l1.969-0.031v0.938h1.5v-1.219h0.781v-1.594h0.812v3.125
		h5.375v0.688h-2v-0.594h-2.656v-0.719h4.406v-0.531h-4.469h6.312v0.938h0.906v0.906h0.594v-2.156h1.281v1.344h3.844v0.344h-3.062
		v0.531h1.625v1.719v-1.125h3.719v-0.875h-2.969l0.562,0.562h4.469v-1.812h1.562v1.969h1.594v-0.969h1.969h3.5v1.875h-5.031v-1.031
		h4.281h2.406v-1.625h0.75v-2.438h0.959v-2.677h0.895v-7.166h0.521v-6.562h0.271V94.049h0.875V73.652h0.666h0.25V50.882h0.938
		V31.257h1.188V10.59h0.646V5.611h0.625v5.125v0.291h1.291v13.167h0.771v14.604h0.562v19.771h0.75v23.604h0.812v14.708h0.979v9.979
		h0.604v5.166v-3.688h0.959v-4.438h0.875V91.735h0.916V74.757h0.896V60.59h0.834V48.507h0.916v-8.959h0.396v-4.312h0.75v-1.333
		v7.583h1.125v8.959h0.854V63.36h0.917v19.542h0.562V96.84h0.543v14.917h1.082v4.854h0.563v8.083h0.875v2.188h1.062v2.979h0.896
		v0.459h4.25v0.666h2.604v-0.771h3.958v0.812h-3.416h5.25v-0.729v0.688h2.625v-2.459l-0.105,2.479h2.48h6.541h0.896h0.354v0.749"/>
	<line fill="none" stroke="#009FDA" x1="182.898" y1="130.91" x2="199.961" y2="130.91"/>
</g>
</svg>
