<?xml version="1.0" encoding="utf-8"?>
<!-- Generator: Adobe Illustrator 16.0.0, SVG Export Plug-In . SVG Version: 6.00 Build 0)  -->
<!DOCTYPE svg PUBLIC "-//W3C//DTD SVG 1.1//EN" "http://www.w3.org/Graphics/SVG/1.1/DTD/svg11.dtd">
<svg version="1.1" id="Layer_1" xmlns="http://www.w3.org/2000/svg" xmlns:xlink="http://www.w3.org/1999/xlink" x="0px" y="0px"
	 width="247.694px" height="156.447px" viewBox="0 0 247.694 156.447" enable-background="new 0 0 247.694 156.447"
	 xml:space="preserve">
<text transform="matrix(0 -1 1 0 6.6958 103.7817)" font-family="'MyriadPro-Regular'" font-size="8">Contagens por segundo</text>
<text transform="matrix(1 0 0 1 96.3633 154.4468)" font-family="'MyriadPro-Regular'" font-size="8">Energia de fóton (keV)</text>
<text transform="matrix(1 0 0 1 36.6968 140.1094)" font-family="'MyriadPro-Regular'" font-size="7">10</text>
<g>
	<text transform="matrix(1 0 0 1 29.2808 131.6934)" font-family="'MyriadPro-Regular'" font-size="7">0</text>
</g>
<g>
	<text transform="matrix(1 0 0 1 23.2808 115.0527)" font-family="'MyriadPro-Regular'" font-size="7">50</text>
</g>
<g>
	<text transform="matrix(1 0 0 1 17.2808 99.3555)" font-family="'MyriadPro-Regular'" font-size="7">100</text>
</g>
<g>
	<text transform="matrix(1 0 0 1 17.2808 83.5098)" font-family="'MyriadPro-Regular'" font-size="7">150</text>
</g>
<g>
	<text transform="matrix(1 0 0 1 17.2808 68.2949)" font-family="'MyriadPro-Regular'" font-size="7">200</text>
</g>
<g>
	<text transform="matrix(1 0 0 1 17.2808 51.293)" font-family="'MyriadPro-Regular'" font-size="7">250</text>
</g>
<g>
	<text transform="matrix(1 0 0 1 17.2808 35.5)" font-family="'MyriadPro-Regular'" font-size="7">300</text>
</g>
<g>
	<text transform="matrix(1 0 0 1 17.2808 19.75)" font-family="'MyriadPro-Regular'" font-size="7">350</text>
</g>
<g>
	<text transform="matrix(1 0 0 1 17.2808 5.8594)" font-family="'MyriadPro-Regular'" font-size="7">400</text>
</g>
<text transform="matrix(1 0 0 1 97.3638 140.1094)" font-family="'MyriadPro-Regular'" font-size="7">10</text>
<text transform="matrix(0.583 0 0 0.583 104.5454 137.7783)" font-family="'MyriadPro-Regular'" font-size="7">2</text>
<text transform="matrix(1 0 0 1 222.3643 140.1094)" font-family="'MyriadPro-Regular'" font-size="7">10</text>
<text transform="matrix(0.583 0 0 0.583 229.5459 137.7783)" font-family="'MyriadPro-Regular'" font-size="7">4</text>
<text transform="matrix(1 0 0 1 159.3647 140.1094)" font-family="'MyriadPro-Regular'" font-size="7">10</text>
<text transform="matrix(0.583 0 0 0.583 166.5464 137.7783)" font-family="'MyriadPro-Regular'" font-size="7">3</text>
<line fill="none" stroke="#000000" x1="35.029" y1="128.446" x2="35.029" y2="2.113"/>
<line fill="none" stroke="#000000" stroke-width="0.8789" x1="35.029" y1="128.446" x2="247.694" y2="128.446"/>
<line fill="none" stroke="#000000" stroke-width="0.5" x1="34.862" y1="125.53" x2="38.695" y2="125.53"/>
<line fill="none" stroke="#000000" stroke-width="0.5" x1="34.862" y1="122.405" x2="38.695" y2="122.405"/>
<line fill="none" stroke="#000000" stroke-width="0.5" x1="34.862" y1="119.237" x2="38.695" y2="119.237"/>
<line fill="none" stroke="#000000" stroke-width="0.5" x1="34.862" y1="116.071" x2="38.695" y2="116.071"/>
<line fill="none" stroke="#000000" stroke-width="0.6737" x1="34.862" y1="112.903" x2="41.82" y2="112.903"/>
<line fill="none" stroke="#000000" stroke-width="0.5" x1="34.862" y1="109.737" x2="38.695" y2="109.737"/>
<line fill="none" stroke="#000000" stroke-width="0.5" x1="34.862" y1="106.612" x2="38.695" y2="106.612"/>
<line fill="none" stroke="#000000" stroke-width="0.5" x1="34.862" y1="103.456" x2="38.695" y2="103.456"/>
<line fill="none" stroke="#000000" stroke-width="0.5" x1="34.862" y1="100.237" x2="38.695" y2="100.237"/>
<line fill="none" stroke="#000000" stroke-width="0.6752" x1="34.862" y1="97.206" x2="41.852" y2="97.206"/>
<line fill="none" stroke="#000000" stroke-width="0.5" x1="34.862" y1="93.987" x2="38.695" y2="93.987"/>
<line fill="none" stroke="#000000" stroke-width="0.5" x1="34.862" y1="90.862" x2="38.695" y2="90.862"/>
<line fill="none" stroke="#000000" stroke-width="0.5" x1="34.862" y1="87.675" x2="38.695" y2="87.675"/>
<line fill="none" stroke="#000000" stroke-width="0.5" x1="34.862" y1="84.519" x2="38.695" y2="84.519"/>
<line fill="none" stroke="#000000" stroke-width="0.5" x1="34.862" y1="78.269" x2="38.695" y2="78.269"/>
<line fill="none" stroke="#000000" stroke-width="0.5" x1="34.862" y1="75.081" x2="38.695" y2="75.081"/>
<line fill="none" stroke="#000000" stroke-width="0.5" x1="34.862" y1="71.925" x2="38.695" y2="71.925"/>
<line fill="none" stroke="#000000" stroke-width="0.5" x1="34.862" y1="68.769" x2="38.695" y2="68.769"/>
<line fill="none" stroke="#000000" stroke-width="0.5" x1="34.862" y1="62.487" x2="38.695" y2="62.487"/>
<line fill="none" stroke="#000000" stroke-width="0.5" x1="34.862" y1="59.331" x2="38.695" y2="59.331"/>
<line fill="none" stroke="#000000" stroke-width="0.5" x1="34.862" y1="56.206" x2="38.695" y2="56.206"/>
<line fill="none" stroke="#000000" stroke-width="0.5" x1="34.862" y1="52.237" x2="38.695" y2="52.237"/>
<line fill="none" stroke="#000000" stroke-width="0.5" x1="34.862" y1="45.894" x2="38.695" y2="45.894"/>
<line fill="none" stroke="#000000" stroke-width="0.5" x1="34.862" y1="42.8" x2="38.695" y2="42.8"/>
<line fill="none" stroke="#000000" stroke-width="0.5" x1="34.862" y1="39.644" x2="38.695" y2="39.644"/>
<line fill="none" stroke="#000000" stroke-width="0.5" x1="34.862" y1="36.456" x2="38.695" y2="36.456"/>
<line fill="none" stroke="#000000" stroke-width="0.5" x1="34.862" y1="30.165" x2="38.695" y2="30.165"/>
<line fill="none" stroke="#000000" stroke-width="0.5" x1="34.862" y1="27.06" x2="38.695" y2="27.06"/>
<line fill="none" stroke="#000000" stroke-width="0.5" x1="34.862" y1="23.894" x2="38.695" y2="23.894"/>
<line fill="none" stroke="#000000" stroke-width="0.5" x1="34.862" y1="20.748" x2="38.695" y2="20.748"/>
<line fill="none" stroke="#000000" stroke-width="0.5" x1="34.862" y1="14.388" x2="38.695" y2="14.388"/>
<line fill="none" stroke="#000000" stroke-width="0.5" x1="34.862" y1="11.279" x2="38.695" y2="11.279"/>
<line fill="none" stroke="#000000" stroke-width="0.5" x1="34.862" y1="8.123" x2="38.695" y2="8.123"/>
<line fill="none" stroke="#000000" stroke-width="0.5" x1="34.862" y1="4.998" x2="38.695" y2="4.998"/>
<line fill="none" stroke="#000000" stroke-width="0.6752" x1="34.862" y1="17.602" x2="41.852" y2="17.602"/>
<line fill="none" stroke="#000000" stroke-width="0.6921" x1="34.508" y1="2.071" x2="41.852" y2="2.071"/>
<line fill="none" stroke="#000000" stroke-width="0.6747" x1="34.862" y1="33.353" x2="41.841" y2="33.353"/>
<line fill="none" stroke="#000000" stroke-width="0.6752" x1="34.862" y1="49.144" x2="41.852" y2="49.144"/>
<line fill="none" stroke="#000000" stroke-width="0.6797" x1="34.769" y1="66.147" x2="41.852" y2="66.147"/>
<line fill="none" stroke="#000000" stroke-width="0.6752" x1="34.862" y1="81.362" x2="41.852" y2="81.362"/>
<line fill="none" stroke="#000000" stroke-width="0.5" x1="204.308" y1="128.212" x2="204.308" y2="126.651"/>
<line fill="none" stroke="#000000" stroke-width="0.5" x1="215.31" y1="128.212" x2="215.31" y2="126.651"/>
<line fill="none" stroke="#000000" stroke-width="0.5" x1="219.204" y1="128.212" x2="219.204" y2="126.651"/>
<line fill="none" stroke="#000000" stroke-width="0.5" x1="223.142" y1="128.212" x2="223.142" y2="126.651"/>
<line fill="none" stroke="#000000" stroke-width="0.7019" x1="228.685" y1="128.212" x2="228.685" y2="125.136"/>
<line fill="none" stroke="#000000" stroke-width="0.5" x1="226.288" y1="128.212" x2="226.288" y2="126.651"/>
<line fill="none" stroke="#000000" stroke-width="0.5" x1="209.81" y1="128.212" x2="209.81" y2="126.651"/>
<line fill="none" stroke="#000000" stroke-width="0.5" x1="196.435" y1="128.212" x2="196.435" y2="126.651"/>
<line fill="none" stroke="#000000" stroke-width="0.5" x1="185.392" y1="128.212" x2="185.392" y2="126.651"/>
<line fill="none" stroke="#000000" stroke-width="0.5" x1="163.435" y1="128.212" x2="163.435" y2="126.651"/>
<line fill="none" stroke="#000000" stroke-width="0.5" x1="166.529" y1="128.212" x2="166.529" y2="125.366"/>
<line fill="none" stroke="#000000" stroke-width="0.5" x1="160.289" y1="128.212" x2="160.289" y2="126.651"/>
<line fill="none" stroke="#000000" stroke-width="0.5" x1="156.267" y1="128.212" x2="156.267" y2="126.651"/>
<line fill="none" stroke="#000000" stroke-width="0.5" x1="152.373" y1="128.212" x2="152.373" y2="126.651"/>
<line fill="none" stroke="#000000" stroke-width="0.5" x1="147.654" y1="128.212" x2="147.654" y2="126.651"/>
<line fill="none" stroke="#000000" stroke-width="0.5" x1="141.424" y1="128.212" x2="141.424" y2="126.651"/>
<line fill="none" stroke="#000000" stroke-width="0.5" x1="133.507" y1="128.212" x2="133.507" y2="126.651"/>
<line fill="none" stroke="#000000" stroke-width="0.5" x1="122.549" y1="128.212" x2="122.549" y2="126.651"/>
<line fill="none" stroke="#000000" stroke-width="0.5" x1="100.508" y1="128.212" x2="100.508" y2="126.651"/>
<line fill="none" stroke="#000000" stroke-width="0.5" x1="97.32" y1="128.212" x2="97.32" y2="126.651"/>
<line fill="none" stroke="#000000" stroke-width="0.5" x1="94.236" y1="128.212" x2="94.236" y2="126.651"/>
<line fill="none" stroke="#000000" stroke-width="0.5" x1="89.465" y1="128.212" x2="89.465" y2="126.651"/>
<line fill="none" stroke="#000000" stroke-width="0.5" x1="84.799" y1="128.212" x2="84.799" y2="126.651"/>
<line fill="none" stroke="#000000" stroke-width="0.5" x1="78.346" y1="128.212" x2="78.346" y2="126.651"/>
<line fill="none" stroke="#000000" stroke-width="0.5" x1="70.564" y1="128.165" x2="70.564" y2="126.604"/>
<line fill="none" stroke="#000000" stroke-width="0.5" x1="59.549" y1="128.212" x2="59.549" y2="126.651"/>
<line fill="none" stroke="#000000" stroke-width="0.5" x1="103.632" y1="128.212" x2="103.632" y2="125.37"/>
<path fill="none" stroke="#009FDA" stroke-width="0.83" d="M40.195,128.28c0,0,19.75-50,18.75-53"/>
<path fill="none" stroke="#009FDA" stroke-width="0.83" d="M58.945,75.446c0,0,6.5-12.166,11.25-29.666l7.75-7.125l5.625-5.125
	l5.75-0.875l4.625-2.125l3.125-1.625l6.5-1l18.5-3.875l25.75-4.375l18.75-1.375l43.375-4.5l19.25-1.75"/>
<rect x="57.612" y="74.614" fill="#8ED8F8" stroke="#009FDA" stroke-width="0.83" width="2.583" height="2.582"/>
<rect x="68.987" y="44.739" fill="#8ED8F8" stroke="#009FDA" stroke-width="0.83" width="2.583" height="2.582"/>
<rect x="76.925" y="37.239" fill="#8ED8F8" stroke="#009FDA" stroke-width="0.83" width="2.583" height="2.582"/>
<rect x="82.425" y="32.114" fill="#8ED8F8" stroke="#009FDA" stroke-width="0.83" width="2.583" height="2.582"/>
<rect x="88.05" y="31.364" fill="#8ED8F8" stroke="#009FDA" stroke-width="0.83" width="2.583" height="2.582"/>
<rect x="92.675" y="29.114" fill="#8ED8F8" stroke="#009FDA" stroke-width="0.83" width="2.583" height="2.582"/>
<rect x="95.779" y="27.613" fill="#8ED8F8" stroke="#009FDA" stroke-width="0.83" width="2.583" height="2.583"/>
<rect x="98.529" y="27.113" fill="#8ED8F8" stroke="#009FDA" stroke-width="0.83" width="2.583" height="2.583"/>
<rect x="101.091" y="26.988" fill="#E8E8E8" stroke="#009FDA" stroke-width="0.83" width="2.583" height="2.583"/>
<rect x="101.341" y="27.02" fill="#8ED8F8" stroke="#009FDA" stroke-width="0.83" width="2.583" height="2.583"/>
<rect x="121.174" y="22.79" fill="#8ED8F8" stroke="#009FDA" stroke-width="0.83" width="2.584" height="2.584"/>
<rect x="146.425" y="18.207" fill="#8ED8F8" stroke="#009FDA" stroke-width="0.83" width="2.584" height="2.583"/>
<rect x="165.132" y="16.999" fill="#8ED8F8" stroke="#009FDA" stroke-width="0.83" width="2.584" height="2.583"/>
<rect x="208.341" y="12.249" fill="#8ED8F8" stroke="#009FDA" stroke-width="0.83" width="2.584" height="2.583"/>
<rect x="227.882" y="10.749" fill="#8ED8F8" stroke="#009FDA" stroke-width="0.83" width="2.584" height="2.583"/>
</svg>
