<?xml version="1.0" encoding="utf-8"?>
<!-- Generator: Adobe Illustrator 16.0.0, SVG Export Plug-In . SVG Version: 6.00 Build 0)  -->
<!DOCTYPE svg PUBLIC "-//W3C//DTD SVG 1.1//EN" "http://www.w3.org/Graphics/SVG/1.1/DTD/svg11.dtd">
<svg version="1.1" id="Camada_1" xmlns="http://www.w3.org/2000/svg" xmlns:xlink="http://www.w3.org/1999/xlink" x="0px" y="0px"
	 width="271.367px" height="169.092px" viewBox="0 0 271.367 169.092" enable-background="new 0 0 271.367 169.092"
	 xml:space="preserve">
<g>
	<text transform="matrix(0 -1 1 0 7.5332 94.4238)" font-family="'MyriadPro-Regular'" font-size="9">contagens</text>
</g>
<g>
	<text transform="matrix(1 0 0 1 142.604 166.8418)" font-family="'MyriadPro-Regular'" font-size="9">canal</text>
</g>
<text transform="matrix(1 0 0 1 77.5625 150.5898)" font-family="'MyriadPro-Regular'" font-size="9">200</text>
<text transform="matrix(1 0 0 1 121.3965 150.5898)" font-family="'MyriadPro-Regular'" font-size="9">400</text>
<text transform="matrix(1 0 0 1 164.896 150.5898)" font-family="'MyriadPro-Regular'" font-size="9">600</text>
<text transform="matrix(1 0 0 1 209.521 150.5898)" font-family="'MyriadPro-Regular'" font-size="9">800</text>
<text transform="matrix(1 0 0 1 250.063 150.5898)" font-family="'MyriadPro-Regular'" font-size="9">1000</text>
<line fill="none" stroke="#000000" stroke-width="0.8699" x1="42.188" y1="137.926" x2="271.367" y2="137.926"/>
<line fill="none" stroke="#000000" stroke-width="0.5" x1="74.958" y1="137.691" x2="74.958" y2="136.129"/>
<line fill="none" stroke="#000000" stroke-width="0.5" x1="64.197" y1="137.691" x2="64.197" y2="136.129"/>
<line fill="none" stroke="#000000" stroke-width="0.5" x1="53.296" y1="137.691" x2="53.296" y2="136.129"/>
<line fill="none" stroke="#000000" stroke-width="0.5" x1="86.917" y1="137.691" x2="86.917" y2="134.848"/>
<line fill="none" stroke="#000000" stroke-width="0.5" x1="119.208" y1="137.691" x2="119.208" y2="136.129"/>
<line fill="none" stroke="#000000" stroke-width="0.5" x1="108.447" y1="137.691" x2="108.447" y2="136.129"/>
<line fill="none" stroke="#000000" stroke-width="0.5" x1="97.546" y1="137.691" x2="97.546" y2="136.129"/>
<line fill="none" stroke="#000000" stroke-width="0.5" x1="130.042" y1="137.691" x2="130.042" y2="134.848"/>
<line fill="none" stroke="#000000" stroke-width="0.5" x1="163.52" y1="137.691" x2="163.52" y2="136.129"/>
<line fill="none" stroke="#000000" stroke-width="0.5" x1="152.759" y1="137.691" x2="152.759" y2="136.129"/>
<line fill="none" stroke="#000000" stroke-width="0.5" x1="141.858" y1="137.691" x2="141.858" y2="136.129"/>
<line fill="none" stroke="#000000" stroke-width="0.5" x1="174.354" y1="137.691" x2="174.354" y2="134.848"/>
<line fill="none" stroke="#000000" stroke-width="0.5" x1="207.708" y1="137.691" x2="207.708" y2="136.129"/>
<line fill="none" stroke="#000000" stroke-width="0.5" x1="196.947" y1="137.691" x2="196.947" y2="136.129"/>
<line fill="none" stroke="#000000" stroke-width="0.5" x1="185.295" y1="137.691" x2="185.295" y2="136.129"/>
<line fill="none" stroke="#000000" stroke-width="0.5" x1="218.542" y1="137.691" x2="218.542" y2="134.848"/>
<line fill="none" stroke="#000000" stroke-width="0.5" x1="252.02" y1="137.691" x2="252.02" y2="136.129"/>
<line fill="none" stroke="#000000" stroke-width="0.5" x1="240.197" y1="137.691" x2="240.197" y2="136.129"/>
<line fill="none" stroke="#000000" stroke-width="0.5" x1="229.608" y1="137.691" x2="229.608" y2="136.129"/>
<line fill="none" stroke="#000000" stroke-width="0.5" x1="262.854" y1="137.691" x2="262.854" y2="134.848"/>
<text transform="matrix(1 0 0 1 33.3662 151.248)" font-family="'MyriadPro-Regular'" font-size="9">0</text>
<line fill="none" stroke="#000000" stroke-width="1.0524" x1="42.617" y1="138.582" x2="42.617" y2="0"/>
<line fill="none" stroke="#000000" stroke-width="0.5" x1="42.451" y1="128.686" x2="46.283" y2="128.686"/>
<line fill="none" stroke="#000000" stroke-width="0.5" x1="42.451" y1="124.874" x2="46.283" y2="124.874"/>
<line fill="none" stroke="#000000" stroke-width="0.5" x1="42.451" y1="121.373" x2="46.283" y2="121.373"/>
<line fill="none" stroke="#000000" stroke-width="0.5" x1="42.451" y1="117.873" x2="46.283" y2="117.873"/>
<line fill="none" stroke="#000000" stroke-width="0.5" x1="42.451" y1="114.062" x2="46.283" y2="114.062"/>
<line fill="none" stroke="#000000" stroke-width="0.5" x1="42.451" y1="110.561" x2="46.283" y2="110.561"/>
<line fill="none" stroke="#000000" stroke-width="0.6737" x1="42.451" y1="131.853" x2="49.408" y2="131.853"/>
<line fill="none" stroke="#000000" stroke-width="0.6737" x1="42.451" y1="106.665" x2="49.408" y2="106.665"/>
<line fill="none" stroke="#000000" stroke-width="0.5" x1="42.451" y1="103.686" x2="46.283" y2="103.686"/>
<line fill="none" stroke="#000000" stroke-width="0.5" x1="42.451" y1="99.874" x2="46.283" y2="99.874"/>
<line fill="none" stroke="#000000" stroke-width="0.5" x1="42.451" y1="96.373" x2="46.283" y2="96.373"/>
<line fill="none" stroke="#000000" stroke-width="0.5" x1="42.451" y1="92.873" x2="46.283" y2="92.873"/>
<line fill="none" stroke="#000000" stroke-width="0.5" x1="42.451" y1="89.062" x2="46.283" y2="89.062"/>
<line fill="none" stroke="#000000" stroke-width="0.5" x1="42.451" y1="85.561" x2="46.283" y2="85.561"/>
<line fill="none" stroke="#000000" stroke-width="0.6737" x1="42.451" y1="81.665" x2="49.408" y2="81.665"/>
<line fill="none" stroke="#000000" stroke-width="0.5" x1="42.451" y1="78.686" x2="46.283" y2="78.686"/>
<line fill="none" stroke="#000000" stroke-width="0.5" x1="42.451" y1="74.874" x2="46.283" y2="74.874"/>
<line fill="none" stroke="#000000" stroke-width="0.5" x1="42.451" y1="71.373" x2="46.283" y2="71.373"/>
<line fill="none" stroke="#000000" stroke-width="0.5" x1="42.451" y1="67.873" x2="46.283" y2="67.873"/>
<line fill="none" stroke="#000000" stroke-width="0.5" x1="42.451" y1="64.062" x2="46.283" y2="64.062"/>
<line fill="none" stroke="#000000" stroke-width="0.5" x1="42.451" y1="60.561" x2="46.283" y2="60.561"/>
<line fill="none" stroke="#000000" stroke-width="0.6737" x1="42.451" y1="56.665" x2="49.408" y2="56.665"/>
<line fill="none" stroke="#000000" stroke-width="0.5" x1="42.451" y1="53.603" x2="46.283" y2="53.603"/>
<line fill="none" stroke="#000000" stroke-width="0.5" x1="42.451" y1="49.791" x2="46.283" y2="49.791"/>
<line fill="none" stroke="#000000" stroke-width="0.5" x1="42.451" y1="46.29" x2="46.283" y2="46.29"/>
<line fill="none" stroke="#000000" stroke-width="0.5" x1="42.451" y1="42.79" x2="46.283" y2="42.79"/>
<line fill="none" stroke="#000000" stroke-width="0.5" x1="42.451" y1="38.979" x2="46.283" y2="38.979"/>
<line fill="none" stroke="#000000" stroke-width="0.5" x1="42.451" y1="35.478" x2="46.283" y2="35.478"/>
<line fill="none" stroke="#000000" stroke-width="0.6737" x1="42.451" y1="31.582" x2="49.408" y2="31.582"/>
<line fill="none" stroke="#000000" stroke-width="0.5" x1="42.451" y1="29.27" x2="46.283" y2="29.27"/>
<line fill="none" stroke="#000000" stroke-width="0.5" x1="42.451" y1="25.458" x2="46.283" y2="25.458"/>
<line fill="none" stroke="#000000" stroke-width="0.5" x1="42.451" y1="21.957" x2="46.283" y2="21.957"/>
<line fill="none" stroke="#000000" stroke-width="0.5" x1="42.451" y1="18.457" x2="46.283" y2="18.457"/>
<line fill="none" stroke="#000000" stroke-width="0.5" x1="42.451" y1="14.646" x2="46.283" y2="14.646"/>
<line fill="none" stroke="#000000" stroke-width="0.5" x1="42.451" y1="11.145" x2="46.283" y2="11.145"/>
<line fill="none" stroke="#000000" stroke-width="0.6737" x1="42.451" y1="7.249" x2="49.408" y2="7.249"/>
<text transform="matrix(1 0 0 1 25.3647 111.666)" font-family="'MyriadPro-Regular'" font-size="9">10</text>
<text transform="matrix(1 0 0 1 24.8706 86.8125)" font-family="'MyriadPro-Regular'" font-size="9">10 </text>
<text transform="matrix(0.583 0 0 0.583 36.0122 83.8154)" font-family="'MyriadPro-Regular'" font-size="9">2</text>
<text transform="matrix(1 0 0 1 24.8706 61.8125)" font-family="'MyriadPro-Regular'" font-size="9">10 </text>
<text transform="matrix(0.583 0 0 0.583 36.0122 58.8154)" font-family="'MyriadPro-Regular'" font-size="9">3</text>
<text transform="matrix(1 0 0 1 24.8706 36.7295)" font-family="'MyriadPro-Regular'" font-size="9">10 </text>
<text transform="matrix(0.583 0 0 0.583 36.0122 33.7324)" font-family="'MyriadPro-Regular'" font-size="9">4</text>
<text transform="matrix(1 0 0 1 24.8706 12.3965)" font-family="'MyriadPro-Regular'" font-size="9">10 </text>
<text transform="matrix(0.583 0 0 0.583 36.0122 9.3994)" font-family="'MyriadPro-Regular'" font-size="9">5</text>
<text transform="matrix(1 0 0 1 26.3618 135.002)" font-family="'MyriadPro-Regular'" font-size="9">1</text>
<polyline fill="none" stroke="#009FDA" points="46.721,137.25 46.596,113.938 47.534,113.938 47.534,31.125 49.346,31.125 
	49.346,29.875 51.659,29.875 51.659,30.938 53.971,30.938 53.971,29.75 54.846,29.75 54.846,29.125 55.721,29.125 55.721,27.625 
	56.534,27.625 56.534,24.75 58.346,24.75 58.346,26.688 59.159,26.688 59.159,27.562 59.971,27.562 59.971,29.25 60.846,29.25 
	60.846,29.875 61.596,29.875 61.596,30.812 64.721,30.812 64.721,29.688 71.846,29.688 71.846,28.75 74.721,28.75 74.721,27.688 
	75.971,27.688 75.971,26.875 90.096,26.875 90.096,27.375 97.346,27.375 97.346,28.25 99.784,28.25 99.784,29.062 100.846,29.062 
	100.846,30.062 101.846,30.062 101.846,30.938 102.846,30.938 102.846,32.438 103.909,32.438 103.909,34.312 104.721,34.312 
	104.721,35.75 105.784,35.75 105.784,36.812 106.784,36.812 106.784,37.583 108.326,37.583 108.326,38.25 109.867,38.25 109.867,39 
	114.909,39 114.909,38 116.451,38 116.451,34.583 117.742,34.583 117.742,31.375 118.659,31.375 118.659,27.375 119.326,27.375 
	119.326,23.083 119.992,23.083 119.992,19.75 121.076,19.75 121.076,16.625 121.742,16.625 121.742,13.083 122.742,13.083 
	122.742,11.166 123.451,11.166 123.451,10.208 124.284,10.208 124.284,11.083 124.471,11.271 125.284,11.271 125.284,12.625 
	126.201,12.625 126.201,15.5 126.784,15.5 126.784,19 127.367,19 127.367,22.333 128.534,22.333 128.534,28.125 129.326,28.125 
	129.326,34.875 130.284,34.875 130.284,39.917 130.992,39.917 130.992,43.083 131.867,43.083 131.867,44.167 132.45,44.167 
	132.45,44.833 141.617,44.833 141.617,43.917 149.617,43.917 149.617,43.083 155.159,43.083 155.159,42.25 160.7,42.25 
	160.7,41.167 164.534,41.167 164.534,40.292 171.2,40.292 171.2,41.708 172.2,41.708 172.2,42.375 173.117,42.375 173.117,43.5 
	173.992,43.5 173.992,44.375 174.617,44.375 174.617,45.25 175.2,45.25 175.2,46.667 176.075,46.667 176.075,47.708 176.867,47.708 
	176.867,48.958 177.784,48.958 177.784,51.25 178.617,51.25 178.617,52.125 179.367,52.125 179.367,52.916 181.534,52.916 
	181.534,51.625 182.617,51.625 182.617,49.875 183.575,49.875 183.575,46.667 184.326,46.667 184.326,43 185.201,43 185.201,39.667 
	185.992,39.667 185.992,36.708 186.784,36.708 186.784,34.958 187.659,34.958 187.659,33.5 188.326,33.5 188.326,32.333 
	190.909,32.333 190.909,34.083 191.576,34.083 191.576,36.583 192.534,36.583 192.534,39.208 193.451,39.208 193.451,42.917 
	194.451,42.917 194.451,45.792 195.367,45.792 195.367,50.917 196.242,50.917 196.242,54.875 196.992,54.875 196.992,57.708 
	197.909,57.708 197.909,60.833 199.201,60.833 199.201,62.167 203.284,62.167 203.284,63.458 208.075,63.458 208.075,65.208 
	209.367,65.208 209.367,66.458 210.242,66.458 210.242,67.542 211.534,67.542 211.534,68.5 212.45,68.5 212.45,70.458 
	212.45,73.542 213.534,73.542 213.534,74.625 214.575,74.625 214.575,75.25 215.325,75.25 216.742,75.25 216.742,74.167 
	216.742,72.708 217.784,72.708 217.784,71.625 218.742,71.625 218.742,68.833 219.492,68.833 219.492,67 220.409,67 220.409,64.667 
	221.325,64.667 221.325,63.167 222.659,63.167 222.659,64.542 223.7,64.542 223.7,65.5 224.575,65.5 224.575,67.625 225.159,67.625 
	225.159,70.958 226.325,70.958 226.325,76.042 226.909,76.042 226.909,79.417 227.617,79.417 227.617,86.208 228.7,86.208 
	228.7,90.458 229.367,90.458 229.367,94.667 230.201,94.667 230.201,91.458 231.326,91.458 231.326,99.417 231.284,98.417 
	232.826,98.417 232.243,97.834 232.243,97.333 232.243,95.667 "/>
<rect x="234.284" y="96.458" fill="#009FDA" stroke="#009FDA" width="3.042" height="5.542"/>
<rect x="238.159" y="101.208" fill="#009FDA" stroke="#009FDA" width="3.292" height="4.125"/>
<rect x="245.826" y="103.125" fill="#009FDA" stroke="#009FDA" width="4.041" height="4.792"/>
<rect x="247.701" y="106.916" fill="#009FDA" stroke="#009FDA" width="5.458" height="3.334"/>
<rect x="248.201" y="109.583" fill="#009FDA" stroke="#009FDA" width="10.833" height="2.583"/>
<rect x="249.992" y="111.916" fill="#009FDA" stroke="#009FDA" width="3.959" height="2.542"/>
<rect x="254.867" y="111.666" fill="#009FDA" stroke="#009FDA" width="4.25" height="2.875"/>
<rect x="254.076" y="104.791" fill="#009FDA" stroke="#009FDA" width="1.583" height="5.667"/>
<rect x="249.992" y="113.75" fill="#009FDA" stroke="#009FDA" width="1.584" height="3.291"/>
<rect x="254.951" y="114" fill="#009FDA" stroke="#009FDA" width="2.416" height="3.166"/>
<rect x="262.409" y="109.583" fill="#009FDA" stroke="#009FDA" width="5.375" height="5"/>
<rect x="264.951" y="114.583" fill="#009FDA" stroke="#009FDA" width="2.833" height="10"/>
<rect x="263.242" y="114.125" fill="#009FDA" stroke="#009FDA" width="2.667" height="5.208"/>
<rect x="262.451" y="104.708" fill="#009FDA" stroke="#009FDA" width="1.541" height="5.459"/>
<rect x="260.742" y="107" fill="#009FDA" stroke="#009FDA" width="3" height="3.375"/>
<rect x="257.534" y="103.792" fill="#009FDA" stroke="#009FDA" width="2.542" height="4.125"/>
<rect x="257.617" y="107.708" fill="#009FDA" stroke="#009FDA" width="1.334" height="2.292"/>
<rect x="241.576" y="100.542" fill="#009FDA" stroke="#009FDA" width="4.083" height="2.416"/>
<rect x="237.034" y="99.625" fill="#009FDA" stroke="#009FDA" width="2.625" height="1.833"/>
<rect x="237.159" y="99.5" fill="#009FDA" stroke="#009FDA" width="2.75" height="2.833"/>
<rect x="259.534" y="105.541" fill="#009FDA" stroke="#009FDA" width="1.958" height="3.875"/>
<rect x="245.784" y="107.5" fill="#009FDA" stroke="#009FDA" width="0.875" height="4.562"/>
<rect x="265.409" y="124.125" fill="#009FDA" stroke="#009FDA" width="0.938" height="8.062"/>
<rect x="255.659" y="117" fill="#009FDA" stroke="#009FDA" width="0.938" height="2.688"/>
<rect x="248.346" y="112.062" fill="#009FDA" stroke="#009FDA" width="0.75" height="4.938"/>
<rect x="231.471" y="96.438" fill="#009FDA" stroke="#009FDA" width="3.625" height="1.875"/>
</svg>
