<?xml version="1.0" encoding="utf-8"?>
<!-- Generator: Adobe Illustrator 16.0.0, SVG Export Plug-In . SVG Version: 6.00 Build 0)  -->
<!DOCTYPE svg PUBLIC "-//W3C//DTD SVG 1.1//EN" "http://www.w3.org/Graphics/SVG/1.1/DTD/svg11.dtd">
<svg version="1.1" id="Layer_1" xmlns="http://www.w3.org/2000/svg" xmlns:xlink="http://www.w3.org/1999/xlink" x="0px" y="0px"
	 width="242.022px" height="164.751px" viewBox="0 0 242.022 164.751" enable-background="new 0 0 242.022 164.751"
	 xml:space="preserve">
<polyline fill="none" stroke="#009FDA" stroke-width="0.83" points="32.618,139.944 32.618,121.194 34.618,121.194 34.618,120.111 
	37.118,120.111 37.118,121.277 38.785,121.277 38.785,120.277 39.535,120.277 39.535,119.194 40.451,119.194 40.451,114.194 
	41.285,114.194 41.285,108.444 41.785,108.444 41.785,107.444 43.118,107.444 43.118,112.111 43.951,112.111 43.951,115.111 
	44.618,115.111 44.618,116.777 44.618,117.444 45.535,117.444 45.535,119.444 46.368,119.444 46.368,120.944 49.201,120.944 
	49.201,120.527 49.201,120.111 54.368,120.111 54.368,119.277 55.993,119.277 55.993,118.736 56.91,118.736 56.91,118.319 
	57.493,118.319 57.493,117.569 58.243,117.569 58.243,116.027 59.326,116.027 59.326,114.236 60.326,114.236 60.326,112.944 
	61.201,112.944 61.201,112.277 69.701,112.277 69.701,113.236 70.826,113.236 72.535,113.236 72.535,114.152 75.201,114.152 
	75.201,114.819 79.743,114.819 76.701,114.819 76.701,115.777 79.951,115.777 79.951,116.61 82.076,116.61 82.076,117.402 
	82.076,118.86 83.326,118.86 83.326,120.777 83.826,120.777 83.826,122.152 84.66,122.152 84.66,124.569 85.285,124.569 
	85.285,126.027 86.326,126.027 86.326,126.777 86.618,126.777 86.618,127.944 87.785,127.944 87.785,129.069 88.785,129.069 
	88.785,130.152 89.493,130.152 89.493,130.819 91.034,130.819 91.034,131.444 94.326,131.444 95.659,131.444 95.659,130.402 
	96.951,130.402 96.951,129.569 98.118,129.569 98.118,127.152 98.451,127.152 98.451,122.652 99.534,122.652 99.534,115.277 
	99.534,114.777 100.451,114.777 100.451,102.486 101.326,102.486 101.326,87.86 102.201,87.86 102.201,67.402 103.118,67.402 
	103.118,44.944 103.618,44.944 103.618,26.652 104.326,26.652 104.326,18.819 104.993,18.819 104.993,23.569 105.826,23.569 
	105.826,36.985 106.784,36.985 106.784,61.069 107.326,61.069 107.326,85.069 108.034,85.069 108.034,99.944 108.785,99.944 
	108.785,117.277 109.326,117.277 109.326,127.611 110.367,127.611 110.367,132.152 111.368,132.152 111.368,134.735 
	112.993,134.735 112.993,135.861 124.576,135.861 124.576,134.694 137.159,134.694 137.159,133.902 141.951,133.902 
	141.951,132.652 148.659,132.652 148.659,133.944 150.576,133.944 150.576,134.485 152.076,134.485 152.076,135.277 
	153.242,135.277 153.242,136.11 154.867,136.11 154.867,136.944 155.784,136.944 155.784,137.944 159.701,137.944 159.701,136.86 
	160.617,136.86 160.617,135.902 161.326,135.902 161.326,134.652 162.492,134.652 162.492,131.985 163.451,131.985 163.451,129.902 
	164.034,129.902 164.034,127.569 164.742,127.569 164.742,125.319 165.451,125.319 165.451,123.444 167.159,123.444 
	167.159,124.444 168.117,124.444 168.117,126.569 169.159,126.569 169.159,129.319 169.826,129.319 169.826,131.277 
	170.451,131.277 170.451,134.694 171.159,134.694 171.159,136.402 171.992,136.402 171.992,137.819 172.659,137.819 
	172.659,138.694 173.909,138.694 173.909,139.527 185.326,139.527 "/>
<g>
	<text transform="matrix(0 -1 1 0 6.6958 105.1182)" font-family="'MyriadPro-Regular'" font-size="8">contagens</text>
</g>
<g>
	<text transform="matrix(1 0 0 1 120.6895 162.751)" font-family="'MyriadPro-Regular'" font-size="8">canal</text>
</g>
<text transform="matrix(1 0 0 1 61.1064 151.9502)" font-family="'MyriadPro-Regular'" font-size="8">200</text>
<text transform="matrix(1 0 0 1 102.9404 151.9502)" font-family="'MyriadPro-Regular'" font-size="8">400</text>
<text transform="matrix(1 0 0 1 144.4395 151.9502)" font-family="'MyriadPro-Regular'" font-size="8">600</text>
<text transform="matrix(1 0 0 1 186.9395 151.9502)" font-family="'MyriadPro-Regular'" font-size="8">800</text>
<text transform="matrix(1 0 0 1 225.6074 151.9502)" font-family="'MyriadPro-Regular'" font-size="8">1000</text>
<line fill="none" stroke="#000000" stroke-width="0.8699" x1="27.605" y1="140.287" x2="241.076" y2="140.287"/>
<line fill="none" stroke="#000000" stroke-width="0.5" x1="58.438" y1="140.053" x2="58.438" y2="138.49"/>
<line fill="none" stroke="#000000" stroke-width="0.5" x1="48.177" y1="140.053" x2="48.177" y2="138.49"/>
<line fill="none" stroke="#000000" stroke-width="0.5" x1="38.088" y1="140.053" x2="38.088" y2="138.49"/>
<line fill="none" stroke="#000000" stroke-width="0.5" x1="69.584" y1="140.053" x2="69.584" y2="137.209"/>
<line fill="none" stroke="#000000" stroke-width="0.5" x1="100.188" y1="140.053" x2="100.188" y2="138.49"/>
<line fill="none" stroke="#000000" stroke-width="0.5" x1="89.927" y1="140.053" x2="89.927" y2="138.49"/>
<line fill="none" stroke="#000000" stroke-width="0.5" x1="79.838" y1="140.053" x2="79.838" y2="138.49"/>
<line fill="none" stroke="#000000" stroke-width="0.5" x1="110.521" y1="140.053" x2="110.521" y2="137.209"/>
<line fill="none" stroke="#000000" stroke-width="0.5" x1="183.688" y1="140.053" x2="183.688" y2="138.49"/>
<line fill="none" stroke="#000000" stroke-width="0.5" x1="173.427" y1="140.053" x2="173.427" y2="138.49"/>
<line fill="none" stroke="#000000" stroke-width="0.5" x1="162.588" y1="140.053" x2="162.588" y2="138.49"/>
<line fill="none" stroke="#000000" stroke-width="0.5" x1="194.021" y1="140.053" x2="194.021" y2="137.209"/>
<line fill="none" stroke="#000000" stroke-width="0.5" x1="225.375" y1="140.053" x2="225.375" y2="138.49"/>
<line fill="none" stroke="#000000" stroke-width="0.5" x1="215.114" y1="140.053" x2="215.114" y2="138.49"/>
<line fill="none" stroke="#000000" stroke-width="0.5" x1="204.275" y1="140.053" x2="204.275" y2="138.49"/>
<line fill="none" stroke="#000000" stroke-width="0.5" x1="235.709" y1="140.053" x2="235.709" y2="137.209"/>
<text transform="matrix(1 0 0 1 20.7852 152.6094)" font-family="'MyriadPro-Regular'" font-size="8">0</text>
<text transform="matrix(1 0 0 1 14.7852 109.0488)" font-family="'MyriadPro-Regular'" font-size="8">20</text>
<text transform="matrix(1 0 0 1 14.7852 74.4668)" font-family="'MyriadPro-Regular'" font-size="8">40</text>
<text transform="matrix(1 0 0 1 14.7852 40.4668)" font-family="'MyriadPro-Regular'" font-size="8">60</text>
<line fill="none" stroke="#000000" stroke-width="1.0524" x1="28.034" y1="140.943" x2="28.034" y2="13.765"/>
<line fill="none" stroke="#000000" stroke-width="0.5" x1="27.868" y1="132.859" x2="31.7" y2="132.859"/>
<line fill="none" stroke="#000000" stroke-width="0.5" x1="27.868" y1="124.173" x2="31.7" y2="124.173"/>
<line fill="none" stroke="#000000" stroke-width="0.5" x1="27.868" y1="115.484" x2="31.7" y2="115.484"/>
<line fill="none" stroke="#000000" stroke-width="0.6737" x1="27.868" y1="106.901" x2="34.825" y2="106.901"/>
<line fill="none" stroke="#000000" stroke-width="0.5" x1="27.868" y1="98.276" x2="31.7" y2="98.276"/>
<line fill="none" stroke="#000000" stroke-width="0.5" x1="27.868" y1="89.59" x2="31.7" y2="89.59"/>
<line fill="none" stroke="#000000" stroke-width="0.5" x1="27.868" y1="80.901" x2="31.7" y2="80.901"/>
<line fill="none" stroke="#000000" stroke-width="0.6737" x1="27.868" y1="72.318" x2="34.825" y2="72.318"/>
<line fill="none" stroke="#000000" stroke-width="0.5" x1="27.868" y1="63.526" x2="31.7" y2="63.526"/>
<line fill="none" stroke="#000000" stroke-width="0.5" x1="27.868" y1="29.757" x2="31.7" y2="29.757"/>
<line fill="none" stroke="#000000" stroke-width="0.5" x1="27.868" y1="21.068" x2="31.7" y2="21.068"/>
<line fill="none" stroke="#000000" stroke-width="0.6737" x1="27.868" y1="38.318" x2="34.825" y2="38.318"/>
<text transform="matrix(1 0 0 1 28.2026 9.3604)" font-family="'MyriadPro-Regular'" font-size="8">х10 </text>
<text transform="matrix(0.583 0 0 0.583 41.8105 6.6963)" font-family="'MyriadPro-Regular'" font-size="8">3</text>
</svg>
