<?xml version="1.0" encoding="utf-8"?>
<!-- Generator: Adobe Illustrator 16.0.0, SVG Export Plug-In . SVG Version: 6.00 Build 0)  -->
<!DOCTYPE svg PUBLIC "-//W3C//DTD SVG 1.1//EN" "http://www.w3.org/Graphics/SVG/1.1/DTD/svg11.dtd">
<svg version="1.1" id="Camada_1" xmlns="http://www.w3.org/2000/svg" xmlns:xlink="http://www.w3.org/1999/xlink" x="0px" y="0px"
	 width="249.029px" height="167.658px" viewBox="0 0 249.029 167.658" enable-background="new 0 0 249.029 167.658"
	 xml:space="preserve">
<path d="M242.277,133.068c0-1.539,2.307-1.539,2.307,0C244.584,134.605,242.277,134.605,242.277,133.068z M139.691,85.957
	c0-1.539,2.307-1.539,2.307,0C141.998,87.494,139.691,87.494,139.691,85.957z M88.4,60.139c0-1.537,2.306-1.537,2.306,0
	S88.4,61.676,88.4,60.139z M57.625,45.479c0-1.538,2.306-1.538,2.306,0C59.931,47.016,57.625,47.016,57.625,45.479z M47.366,40.43
	c0-1.537,2.307-1.537,2.307,0C49.673,41.967,47.366,41.967,47.366,40.43z M42.237,37.847c0-1.538,2.306-1.538,2.306,0
	C44.543,39.384,42.237,39.384,42.237,37.847z M39.16,36.482c0-1.537,2.306-1.537,2.306,0C41.465,38.02,39.16,38.02,39.16,36.482z
	 M38.134,35.875c0-1.538,2.307-1.538,2.307,0C40.44,37.412,38.134,37.412,38.134,35.875z"/>
<rect x="33.102" y="6.795" fill="none" stroke="#000000" stroke-miterlimit="10" width="215.427" height="134.46"/>
<g>
	<text transform="matrix(1 0 0 1 113.0791 165.4082)" font-family="'MyriadPro-Regular'" font-size="9">Espessura (cm)</text>
</g>
<line fill="none" stroke="#000000" stroke-miterlimit="10" x1="38.231" y1="137.223" x2="38.231" y2="141.256"/>
<line fill="none" stroke="#000000" stroke-miterlimit="10" x1="48.489" y1="139.24" x2="48.489" y2="141.256"/>
<line fill="none" stroke="#000000" stroke-miterlimit="10" x1="58.748" y1="139.24" x2="58.748" y2="141.256"/>
<line fill="none" stroke="#000000" stroke-miterlimit="10" x1="69.006" y1="139.24" x2="69.006" y2="141.256"/>
<line fill="none" stroke="#000000" stroke-miterlimit="10" x1="79.264" y1="139.24" x2="79.264" y2="141.256"/>
<line fill="none" stroke="#000000" stroke-miterlimit="10" x1="89.523" y1="137.223" x2="89.523" y2="141.256"/>
<line fill="none" stroke="#000000" stroke-miterlimit="10" x1="99.781" y1="139.24" x2="99.781" y2="141.256"/>
<line fill="none" stroke="#000000" stroke-miterlimit="10" x1="110.04" y1="139.24" x2="110.04" y2="141.256"/>
<line fill="none" stroke="#000000" stroke-miterlimit="10" x1="120.298" y1="139.24" x2="120.298" y2="141.256"/>
<line fill="none" stroke="#000000" stroke-miterlimit="10" x1="130.557" y1="139.24" x2="130.557" y2="141.256"/>
<line fill="none" stroke="#000000" stroke-miterlimit="10" x1="140.815" y1="137.223" x2="140.815" y2="141.256"/>
<line fill="none" stroke="#000000" stroke-miterlimit="10" x1="151.074" y1="139.24" x2="151.074" y2="141.256"/>
<line fill="none" stroke="#000000" stroke-miterlimit="10" x1="161.333" y1="139.24" x2="161.333" y2="141.256"/>
<line fill="none" stroke="#000000" stroke-miterlimit="10" x1="171.591" y1="139.24" x2="171.591" y2="141.256"/>
<line fill="none" stroke="#000000" stroke-miterlimit="10" x1="181.85" y1="139.24" x2="181.85" y2="141.256"/>
<line fill="none" stroke="#000000" stroke-miterlimit="10" x1="192.107" y1="137.223" x2="192.107" y2="141.256"/>
<line fill="none" stroke="#000000" stroke-miterlimit="10" x1="202.366" y1="139.24" x2="202.366" y2="141.256"/>
<line fill="none" stroke="#000000" stroke-miterlimit="10" x1="212.624" y1="139.24" x2="212.624" y2="141.256"/>
<line fill="none" stroke="#000000" stroke-miterlimit="10" x1="222.883" y1="139.24" x2="222.883" y2="141.256"/>
<line fill="none" stroke="#000000" stroke-miterlimit="10" x1="233.141" y1="139.24" x2="233.141" y2="141.256"/>
<line fill="none" stroke="#000000" stroke-miterlimit="10" x1="243.4" y1="137.223" x2="243.4" y2="141.256"/>
<line fill="none" stroke="#000000" stroke-miterlimit="10" x1="38.231" y1="137.223" x2="38.231" y2="141.256"/>
<line fill="none" stroke="#000000" stroke-miterlimit="10" x1="243.4" y1="137.223" x2="243.4" y2="141.256"/>
<g>
	<text transform="matrix(1 0 0 1 34.9468 152.2754)" font-family="'MyriadPro-Regular'" font-size="9">0</text>
</g>
<g>
	<text transform="matrix(1 0 0 1 86.2988 152.2754)" font-family="'MyriadPro-Regular'" font-size="9">5</text>
</g>
<g>
	<text transform="matrix(1 0 0 1 134.6582 152.2754)" font-family="'MyriadPro-Regular'" font-size="9">10</text>
</g>
<g>
	<text transform="matrix(1 0 0 1 186.0098 152.2754)" font-family="'MyriadPro-Regular'" font-size="9">15</text>
</g>
<g>
	<text transform="matrix(1 0 0 1 237.3623 152.2754)" font-family="'MyriadPro-Regular'" font-size="9">20</text>
</g>
<text transform="matrix(1 0 0 1 24.4736 140.8086)" font-family="'MyriadPro-Regular'" font-size="8">2</text>
<text transform="matrix(1 0 0 1 13.5093 146.293)" font-family="'MyriadPro-Regular'" font-size="9">10</text>
<line fill="none" stroke="#000000" stroke-width="0.75" stroke-miterlimit="10" x1="36.333" y1="120.77" x2="33.102" y2="120.77"/>
<line fill="none" stroke="#000000" stroke-width="0.75" stroke-miterlimit="10" x1="36.333" y1="108.957" x2="33.102" y2="108.957"/>
<line fill="none" stroke="#000000" stroke-width="0.75" stroke-miterlimit="10" x1="36.333" y1="100.576" x2="33.102" y2="100.576"/>
<line fill="none" stroke="#000000" stroke-width="0.75" stroke-miterlimit="10" x1="36.333" y1="94.074" x2="33.102" y2="94.074"/>
<line fill="none" stroke="#000000" stroke-width="0.75" stroke-miterlimit="10" x1="36.333" y1="88.762" x2="33.102" y2="88.762"/>
<line fill="none" stroke="#000000" stroke-width="0.75" stroke-miterlimit="10" x1="36.333" y1="84.271" x2="33.102" y2="84.271"/>
<line fill="none" stroke="#000000" stroke-width="0.75" stroke-miterlimit="10" x1="36.333" y1="80.38" x2="33.102" y2="80.38"/>
<line fill="none" stroke="#000000" stroke-width="0.75" stroke-miterlimit="10" x1="36.333" y1="76.95" x2="33.102" y2="76.95"/>
<line fill="none" stroke="#000000" stroke-width="0.75" stroke-miterlimit="10" x1="39.564" y1="73.88" x2="33.102" y2="73.88"/>
<text transform="matrix(1 0 0 1 24.9727 73.0049)" font-family="'TimesNewRomanPSMT'" font-size="8">3</text>
<text transform="matrix(1 0 0 1 14.0078 78.9873)" font-family="'MyriadPro-Regular'" font-size="9">10</text>
<line fill="none" stroke="#000000" stroke-width="0.75" stroke-miterlimit="10" x1="36.333" y1="53.686" x2="33.102" y2="53.686"/>
<line fill="none" stroke="#000000" stroke-width="0.75" stroke-miterlimit="10" x1="36.333" y1="41.873" x2="33.102" y2="41.873"/>
<line fill="none" stroke="#000000" stroke-width="0.75" stroke-miterlimit="10" x1="36.333" y1="33.492" x2="33.102" y2="33.492"/>
<line fill="none" stroke="#000000" stroke-width="0.75" stroke-miterlimit="10" x1="36.333" y1="26.99" x2="33.102" y2="26.99"/>
<line fill="none" stroke="#000000" stroke-width="0.75" stroke-miterlimit="10" x1="36.333" y1="21.678" x2="33.102" y2="21.678"/>
<line fill="none" stroke="#000000" stroke-width="0.75" stroke-miterlimit="10" x1="36.333" y1="17.188" x2="33.102" y2="17.188"/>
<line fill="none" stroke="#000000" stroke-width="0.75" stroke-miterlimit="10" x1="36.333" y1="13.297" x2="33.102" y2="13.297"/>
<line fill="none" stroke="#000000" stroke-width="0.75" stroke-miterlimit="10" x1="36.333" y1="9.865" x2="33.102" y2="9.865"/>
<line fill="none" stroke="#000000" stroke-width="0.75" stroke-miterlimit="10" x1="39.564" y1="6.795" x2="33.102" y2="6.795"/>
<text transform="matrix(1 0 0 1 24.4736 6.6958)" font-family="'MyriadPro-Regular'" font-size="8">4</text>
<text transform="matrix(1 0 0 1 13.5093 12.1802)" font-family="'MyriadPro-Regular'" font-size="9">10</text>
<polyline fill="none" stroke="#000000" stroke-width="0.75" stroke-miterlimit="10" stroke-dasharray="1,2" points="39.257,35.905 
	40.282,36.512 43.36,37.877 48.489,40.46 58.748,45.509 89.523,60.169 140.815,85.986 243.4,133.098 "/>
<line fill="none" stroke="#000000" stroke-width="0.75" stroke-miterlimit="10" stroke-dasharray="1,2" x1="242.401" y1="130.656" x2="244.396" y2="130.656"/>
<line fill="none" stroke="#000000" stroke-width="0.75" stroke-miterlimit="10" stroke-dasharray="1,2" x1="242.401" y1="135.761" x2="244.396" y2="135.761"/>
<text transform="matrix(0 -1 1 0 7.5332 118.7695)" font-family="'MyriadPro-Regular'" font-size="9">Transmissão de (fótons)</text>
</svg>
