<?xml version="1.0" encoding="utf-8"?>
<!-- Generator: Adobe Illustrator 16.0.0, SVG Export Plug-In . SVG Version: 6.00 Build 0)  -->
<!DOCTYPE svg PUBLIC "-//W3C//DTD SVG 1.1//EN" "http://www.w3.org/Graphics/SVG/1.1/DTD/svg11.dtd">
<svg version="1.1" id="Layer_1" xmlns="http://www.w3.org/2000/svg" xmlns:xlink="http://www.w3.org/1999/xlink" x="0px" y="0px"
	 width="271.582px" height="167.584px" viewBox="0 0 271.582 167.584" enable-background="new 0 0 271.582 167.584"
	 xml:space="preserve">
<line fill="none" stroke="#000000" stroke-width="0.83" x1="242.02" y1="136.594" x2="242.02" y2="135.031"/>
<line fill="none" stroke="#000000" stroke-width="0.83" x1="231.02" y1="136.594" x2="231.02" y2="135.031"/>
<line fill="none" stroke="#000000" stroke-width="0.83" x1="253.957" y1="136.594" x2="253.957" y2="135.031"/>
<line fill="none" stroke="#000000" stroke-width="0.83" x1="264.77" y1="136.594" x2="264.77" y2="133.75"/>
<line fill="none" stroke="#000000" stroke-width="0.83" x1="197.082" y1="136.594" x2="197.082" y2="135.031"/>
<line fill="none" stroke="#000000" stroke-width="0.83" x1="186.082" y1="136.594" x2="186.082" y2="135.031"/>
<line fill="none" stroke="#000000" stroke-width="0.83" x1="209.02" y1="136.594" x2="209.02" y2="135.031"/>
<line fill="none" stroke="#000000" stroke-width="0.83" x1="219.832" y1="136.594" x2="219.832" y2="133.75"/>
<line fill="none" stroke="#000000" stroke-width="0.83" x1="152.395" y1="136.594" x2="152.395" y2="135.031"/>
<line fill="none" stroke="#000000" stroke-width="0.83" x1="141.395" y1="136.594" x2="141.395" y2="135.031"/>
<line fill="none" stroke="#000000" stroke-width="0.83" x1="164.332" y1="136.594" x2="164.332" y2="135.031"/>
<line fill="none" stroke="#000000" stroke-width="0.83" x1="175.145" y1="136.594" x2="175.145" y2="133.75"/>
<rect x="134.665" y="135.757" fill="none" stroke="#009FDA" stroke-width="0.83" width="134.751" height="0.831"/>
<polyline fill="none" stroke="#009FDA" stroke-width="0.83" points="105.582,43.715 105.582,36.133 106.624,36.133 106.624,27.716 
	107.374,27.716 107.374,24.383 108.291,24.383 108.291,11.299 113.207,11.299 113.541,11.299 113.541,22.131 113.541,28.466 
	114.863,28.466 114.863,30.382 115.327,30.846 115.327,35.674 115.999,35.674 115.999,43.091 116.853,43.091 116.853,55.193 
	117.666,55.193 117.666,64.882 118.457,64.882 118.749,64.882 118.749,71.383 119.416,71.383 119.416,80.883 120.207,80.883 
	120.207,88.299 121.082,88.299 121.082,100.007 121.707,100.007 122.082,100.007 122.082,108.757 123.707,108.757 123.707,119.091 
	125.582,119.091 125.582,125.299 126.165,125.299 126.165,126.882 126.874,126.882 126.874,128.174 128.082,128.174 
	128.082,132.466 129.374,132.466 129.374,134.507 131.332,134.507 133.79,134.507 133.79,135.049 135.374,135.049 135.374,136.091 
	"/>
<line fill="none" stroke="#000000" stroke-width="0.83" x1="138.207" y1="135.757" x2="138.207" y2="133.133"/>
<g>
	<rect x="51.926" y="111.527" fill="#009FDA" width="3.312" height="3.469"/>
	<rect x="53.676" y="112.496" fill="#009FDA" width="2.438" height="4.188"/>
	<rect x="54.488" y="115.027" fill="#009FDA" width="5.094" height="3.469"/>
	<rect x="55.363" y="118.496" fill="#009FDA" width="3.375" height="2.562"/>
	<rect x="57.895" y="114.184" fill="#009FDA" width="1.688" height="1.125"/>
	<rect x="59.645" y="117.684" fill="#009FDA" width="5.969" height="3.406"/>
	<rect x="61.426" y="121.09" fill="#009FDA" width="8.531" height="2.531"/>
	<rect x="59.582" y="115.871" fill="#009FDA" width="1.656" height="1.812"/>
	<rect x="67.395" y="123.621" fill="#009FDA" width="3.312" height="2.594"/>
	<rect x="70.707" y="124.48" fill="#009FDA" width="1.734" height="4.266"/>
	<rect x="70.145" y="124.527" fill="#009FDA" width="4.969" height="1.688"/>
	<rect x="75.082" y="127.059" fill="#009FDA" width="10.281" height="2.469"/>
	<rect x="75.113" y="125.434" fill="#009FDA" width="1.688" height="4.094"/>
	<rect x="73.457" y="125.434" fill="#009FDA" width="3.344" height="1.656"/>
	<rect x="85.363" y="128.934" fill="#009FDA" width="6.094" height="2.406"/>
	<rect x="86.332" y="127.934" fill="#009FDA" width="7.625" height="1"/>
	<rect x="88.926" y="126.215" fill="#009FDA" width="4.25" height="4.406"/>
	<rect x="88.926" y="124.496" fill="#009FDA" width="1.656" height="1.719"/>
	<rect x="77.728" y="126.277" fill="#009FDA" width="6.896" height="0.781"/>
	<rect x="92.332" y="124.506" fill="#009FDA" width="1.771" height="5.146"/>
	<rect x="94.103" y="118.507" fill="#009FDA" width="0.771" height="8.625"/>
	<rect x="94.207" y="119.382" fill="#009FDA" width="2.479" height="4.291"/>
	<rect x="94.832" y="123.569" fill="#009FDA" width="0.917" height="0.875"/>
	<rect x="80.311" y="129.527" fill="#009FDA" width="1.708" height="1.812"/>
	<rect x="76.874" y="129.527" fill="#009FDA" width="1.646" height="1.041"/>
	<rect x="77.696" y="125.36" fill="#009FDA" width="2.573" height="0.917"/>
	<rect x="71.707" y="122.756" fill="#009FDA" width="1.688" height="1.771"/>
	<g>
		<rect x="44.176" y="98.715" fill="#009FDA" width="3.438" height="5.062"/>
		<rect x="46.738" y="103.777" fill="#009FDA" width="3.344" height="1.75"/>
		<rect x="48.488" y="103.777" fill="#009FDA" width="1.594" height="6.969"/>
		<rect x="51.051" y="106.402" fill="#009FDA" width="1.656" height="1.031"/>
		<rect x="43.082" y="97.027" fill="#009FDA" width="2.375" height="1.688"/>
		<rect x="42.27" y="94.465" fill="#009FDA" width="2.375" height="2.562"/>
		<g>
			<rect x="42.27" y="85.84" fill="#009FDA" width="1.625" height="8.625"/>
			<rect x="42.238" y="81.402" fill="#009FDA" width="0.906" height="4.438"/>
			<rect x="40.676" y="75.496" fill="#009FDA" width="1.562" height="8.562"/>
			<g>
				<rect x="40.707" y="59.965" fill="#009FDA" width="0.906" height="15.531"/>
				<rect x="39.707" y="49.621" fill="#009FDA" width="1" height="11.25"/>
			</g>
		</g>
	</g>
	<rect x="96.666" y="110.632" fill="#009FDA" width="1.667" height="2.708"/>
	<rect x="95.749" y="115.215" fill="#009FDA" width="1.75" height="2.292"/>
	<rect x="95.749" y="117.507" fill="#009FDA" width="0.938" height="2.166"/>
	<rect x="96.666" y="112.882" fill="#009FDA" width="0.833" height="2.333"/>
</g>
<line fill="none" stroke="#000000" stroke-width="0.5" x1="106.52" y1="136.594" x2="106.52" y2="135.031"/>
<line fill="none" stroke="#000000" stroke-width="0.5" x1="95.52" y1="136.594" x2="95.52" y2="135.031"/>
<line fill="none" stroke="#000000" stroke-width="0.5" x1="118.457" y1="136.594" x2="118.457" y2="135.031"/>
<line fill="none" stroke="#000000" stroke-width="0.5" x1="61.082" y1="136.594" x2="61.082" y2="135.031"/>
<line fill="none" stroke="#000000" stroke-width="0.5" x1="50.082" y1="136.594" x2="50.082" y2="135.031"/>
<line fill="none" stroke="#000000" stroke-width="0.5" x1="73.02" y1="136.594" x2="73.02" y2="135.031"/>
<line fill="none" stroke="#000000" stroke-width="0.5" x1="84.582" y1="136.594" x2="84.582" y2="133.75"/>
<g>
	<text transform="matrix(0 -1 1 0 7.5332 85.0586)" font-family="'MyriadPro-Regular'" font-size="9">contagens</text>
</g>
<g>
	<text transform="matrix(1 0 0 1 141.1445 165.334)" font-family="'MyriadPro-Regular'" font-size="9">canal</text>
</g>
<text transform="matrix(1 0 0 1 75.5596 149.665)" font-family="'MyriadPro-Regular'" font-size="9">200</text>
<text transform="matrix(1 0 0 1 118.8936 149.665)" font-family="'MyriadPro-Regular'" font-size="9">400</text>
<text transform="matrix(1 0 0 1 164.6436 149.665)" font-family="'MyriadPro-Regular'" font-size="9">600</text>
<text transform="matrix(1 0 0 1 209.6436 149.665)" font-family="'MyriadPro-Regular'" font-size="9">800</text>
<text transform="matrix(1 0 0 1 250.8096 149.665)" font-family="'MyriadPro-Regular'" font-size="9">1000</text>
<line fill="none" stroke="#000000" stroke-width="0.8699" x1="38.56" y1="137.001" x2="271.582" y2="137.001"/>
<text transform="matrix(1 0 0 1 29.7383 150.3242)" font-family="'MyriadPro-Regular'" font-size="9">0</text>
<text transform="matrix(1 0 0 1 19.7397 91.1562)" font-family="'MyriadPro-Regular'" font-size="9">500</text>
<text transform="matrix(1 0 0 1 13.7397 42.4893)" font-family="'MyriadPro-Regular'" font-size="9">1000</text>
<line fill="none" stroke="#000000" stroke-width="1.0524" x1="38.989" y1="137.001" x2="38.989" y2="0"/>
<line fill="none" stroke="#000000" stroke-width="0.5" x1="38.854" y1="124.924" x2="42.687" y2="124.924"/>
<line fill="none" stroke="#000000" stroke-width="0.5" x1="38.854" y1="112.965" x2="42.687" y2="112.965"/>
<line fill="none" stroke="#000000" stroke-width="0.5" x1="38.854" y1="100.841" x2="42.687" y2="100.841"/>
<line fill="none" stroke="#000000" stroke-width="0.6737" x1="38.823" y1="88.008" x2="45.78" y2="88.008"/>
<line fill="none" stroke="#000000" stroke-width="0.5" x1="38.854" y1="76.256" x2="42.687" y2="76.256"/>
<line fill="none" stroke="#000000" stroke-width="0.5" x1="38.854" y1="63.965" x2="42.687" y2="63.965"/>
<line fill="none" stroke="#000000" stroke-width="0.5" x1="38.854" y1="50.966" x2="42.687" y2="50.966"/>
<line fill="none" stroke="#000000" stroke-width="0.6737" x1="38.823" y1="39.34" x2="45.78" y2="39.34"/>
<line fill="none" stroke="#000000" stroke-width="0.5" x1="38.854" y1="26.674" x2="42.687" y2="26.674"/>
<line fill="none" stroke="#000000" stroke-width="0.5" x1="38.854" y1="14.174" x2="42.687" y2="14.174"/>
<line fill="none" stroke="#000000" stroke-width="0.5" x1="38.854" y1="2.007" x2="42.687" y2="2.007"/>
<rect x="48.488" y="107.434" fill="#009FDA" width="4.25" height="3.312"/>
<rect x="49.301" y="110.746" fill="#009FDA" width="3.438" height="0.781"/>
<rect x="39.207" y="49.621" fill="#009FDA" width="0.5" height="6.906"/>
<rect x="96.666" y="106.507" fill="#009FDA" width="2.542" height="4.125"/>
<rect x="97.541" y="104.84" fill="#009FDA" width="1.708" height="1.667"/>
<rect x="98.374" y="95.298" fill="#009FDA" width="0.875" height="9.542"/>
<rect x="99.249" y="95.298" fill="#009FDA" width="1.583" height="4.167"/>
<rect x="99.249" y="99.465" fill="#009FDA" width="0.792" height="2.625"/>
<rect x="100.041" y="85.757" fill="#009FDA" width="0.792" height="9.541"/>
<rect x="100.916" y="77.173" fill="#009FDA" width="1.75" height="9.459"/>
<rect x="100.832" y="85.757" fill="#009FDA" width="0.958" height="5.25"/>
<rect x="101.791" y="71.173" fill="#009FDA" width="1.75" height="6"/>
<rect x="102.666" y="53.09" fill="#009FDA" width="0.875" height="18.25"/>
<rect x="103.541" y="53.09" fill="#009FDA" width="0.833" height="5.083"/>
<rect x="103.541" y="51.465" fill="#009FDA" width="1.667" height="2.459"/>
<rect x="104.416" y="43.715" fill="#009FDA" width="1.708" height="8.416"/>
<rect x="106.166" y="27.298" fill="#009FDA" width="1.667" height="3.375"/>
<rect x="106.999" y="23.048" fill="#009FDA" width="1.75" height="2.458"/>
<rect x="107.874" y="8.423" fill="#009FDA" width="1.542" height="11.125"/>
<rect x="109.416" y="9.256" fill="#009FDA" width="4.417" height="3.417"/>
<rect x="107.874" y="4.09" fill="#009FDA" width="0.792" height="4.333"/>
<rect x="111.249" y="12.673" fill="#009FDA" width="2.583" height="3.417"/>
<rect x="109.374" y="7.548" fill="#009FDA" width="2.708" height="1.708"/>
<rect x="110.541" y="5.715" fill="#009FDA" width="0.708" height="1.833"/>
<rect x="109.604" y="6.652" fill="#009FDA" width="0.937" height="1.938"/>
<rect x="111.791" y="8.423" fill="#009FDA" width="1.042" height="1.458"/>
<rect x="112.999" y="22.131" fill="#009FDA" width="1.458" height="6.917"/>
<rect x="113.874" y="25.506" fill="#009FDA" width="1.708" height="5.917"/>
<rect x="114.666" y="29.84" fill="#009FDA" width="1.708" height="6.875"/>
<rect x="115.541" y="41.84" fill="#009FDA" width="1.667" height="3.583"/>
<rect x="116.457" y="54.798" fill="#009FDA" width="1.708" height="3.458"/>
<rect x="117.207" y="64.257" fill="#009FDA" width="1.833" height="2.583"/>
<rect x="118.207" y="70.215" fill="#009FDA" width="1.625" height="6.083"/>
<rect x="118.999" y="79.798" fill="#009FDA" width="1.75" height="5.125"/>
<rect x="121.582" y="108.215" fill="#009FDA" width="2.5" height="2.458"/>
</svg>
