<?xml version="1.0" encoding="utf-8"?>
<!-- Generator: Adobe Illustrator 16.0.0, SVG Export Plug-In . SVG Version: 6.00 Build 0)  -->
<!DOCTYPE svg PUBLIC "-//W3C//DTD SVG 1.1//EN" "http://www.w3.org/Graphics/SVG/1.1/DTD/svg11.dtd">
<svg version="1.1" id="Layer_1" xmlns="http://www.w3.org/2000/svg" xmlns:xlink="http://www.w3.org/1999/xlink" x="0px" y="0px"
	 width="274.571px" height="166.928px" viewBox="0 0 274.571 166.928" enable-background="new 0 0 274.571 166.928"
	 xml:space="preserve">
<line fill="none" stroke="#000000" stroke-width="0.5" x1="245.387" y1="135.938" x2="245.387" y2="134.375"/>
<line fill="none" stroke="#000000" stroke-width="0.5" x1="234.387" y1="135.938" x2="234.387" y2="134.375"/>
<line fill="none" stroke="#000000" stroke-width="0.5" x1="257.325" y1="135.938" x2="257.325" y2="134.375"/>
<line fill="none" stroke="#000000" stroke-width="0.5" x1="268.137" y1="135.938" x2="268.137" y2="133.094"/>
<line fill="none" stroke="#000000" stroke-width="0.5" x1="200.45" y1="135.938" x2="200.45" y2="134.375"/>
<line fill="none" stroke="#000000" stroke-width="0.5" x1="189.45" y1="135.938" x2="189.45" y2="134.375"/>
<line fill="none" stroke="#000000" stroke-width="0.5" x1="212.387" y1="135.938" x2="212.387" y2="134.375"/>
<line fill="none" stroke="#000000" stroke-width="0.5" x1="223.2" y1="135.938" x2="223.2" y2="133.094"/>
<line fill="none" stroke="#000000" stroke-width="0.5" x1="155.762" y1="135.938" x2="155.762" y2="134.375"/>
<line fill="none" stroke="#000000" stroke-width="0.5" x1="144.762" y1="135.938" x2="144.762" y2="134.375"/>
<line fill="none" stroke="#000000" stroke-width="0.5" x1="167.7" y1="135.938" x2="167.7" y2="134.375"/>
<line fill="none" stroke="#000000" stroke-width="0.5" x1="178.512" y1="135.938" x2="178.512" y2="133.094"/>
<polyline fill="none" stroke="#009FDA" stroke-width="0.83" points="45.283,6 45.283,41.75 46.387,41.75 46.387,58.25 47.325,58.25 
	47.325,67.188 48.137,67.188 48.137,60.062 48.387,60.062 48.387,63.812 48.971,63.812 48.971,57.5 49.637,57.5 49.637,63.021 
	49.637,48.833 50.2,48.833 50.2,54.708 50.846,54.708 50.846,47.208 50.846,50.354 51.366,50.354 51.366,38.021 51.846,38.021 
	51.846,36.188 51.846,43.458 52.533,43.458 52.533,36.229 52.533,38.688 52.867,38.688 52.867,43.438 53.596,43.438 53.742,43.438 
	53.742,53.521 54.95,53.521 54.95,65.312 55.741,65.312 55.741,73 55.741,71.021 56.429,71.021 56.429,90.854 56.429,88.75 
	57.137,88.75 57.137,97.583 57.137,96.188 57.887,96.188 57.887,110.333 58.929,110.333 58.929,120.479 60.012,120.479 
	60.012,123.583 60.679,123.583 60.679,128.688 61.637,128.688 61.637,131.292 62.387,131.292 62.387,132.458 62.387,133.062 
	68.367,133.062 68.367,133.875 79.637,133.875 79.637,134.854 103.887,134.854 103.887,135.25 103.887,135.541 107.45,135.541 
	170.991,135.541 "/>
<rect x="82.325" y="133.5" fill="#009FDA" stroke="#009FDA" width="3.438" height="1.167"/>
<rect x="86.658" y="133.458" fill="#009FDA" stroke="#009FDA" width="4.146" height="1.209"/>
<rect x="87.471" y="135.25" fill="#009FDA" stroke="#009FDA" width="2.521" height="0.604"/>
<rect x="89.116" y="132.604" fill="#009FDA" stroke="#009FDA" width="0.75" height="1.166"/>
<rect x="92.491" y="133.479" fill="#009FDA" stroke="#009FDA" width="2.542" height="1.104"/>
<rect x="92.575" y="135.271" fill="#009FDA" stroke="#009FDA" width="1.646" height="0.667"/>
<rect x="95.137" y="134.854" fill="#009FDA" stroke="#009FDA" width="8.542" height="1.124"/>
<rect x="107.752" y="134.354" fill="#009FDA" stroke="#009FDA" width="7.657" height="0.885"/>
<rect x="116.284" y="134.25" fill="#009FDA" stroke="#009FDA" width="7.438" height="0.979"/>
<rect x="125.553" y="134.25" fill="#009FDA" stroke="#009FDA" width="3.334" height="1"/>
<rect x="129.762" y="134.312" fill="#009FDA" stroke="#009FDA" width="1.708" height="0.979"/>
<rect x="172.22" y="135.062" fill="#009FDA" stroke="#009FDA" width="5.021" height="0.854"/>
<rect x="178.116" y="135.167" fill="#009FDA" stroke="#009FDA" width="9.188" height="0.771"/>
<rect x="188.345" y="135.146" fill="#009FDA" stroke="#009FDA" width="5.792" height="0.729"/>
<rect x="195.033" y="135.188" fill="#009FDA" stroke="#009FDA" width="3.333" height="0.771"/>
<rect x="199.345" y="135.167" fill="#009FDA" stroke="#009FDA" width="5" height="0.875"/>
<g>
	<text transform="matrix(0 -1 1 0 7.5332 91.4258)" font-family="'MyriadPro-Regular'" font-size="9">contagens</text>
</g>
<g>
	<text transform="matrix(1 0 0 1 146.438 164.6777)" font-family="'MyriadPro-Regular'" font-size="9">canal</text>
</g>
<text transform="matrix(1 0 0 1 80.854 147.0078)" font-family="'MyriadPro-Regular'" font-size="9">200</text>
<text transform="matrix(1 0 0 1 124.188 147.0078)" font-family="'MyriadPro-Regular'" font-size="9">400</text>
<text transform="matrix(1 0 0 1 169.938 147.0078)" font-family="'MyriadPro-Regular'" font-size="9">600</text>
<text transform="matrix(1 0 0 1 214.938 147.0078)" font-family="'MyriadPro-Regular'" font-size="9">800</text>
<text transform="matrix(1 0 0 1 256.104 147.0078)" font-family="'MyriadPro-Regular'" font-size="9">1000</text>
<text transform="matrix(1 0 0 1 35.0327 147.667)" font-family="'MyriadPro-Regular'" font-size="9">0</text>
<text transform="matrix(1 0 0 1 25.0342 96.3369)" font-family="'MyriadPro-Regular'" font-size="9">500</text>
<text transform="matrix(1 0 0 1 19.0342 53.2324)" font-family="'MyriadPro-Regular'" font-size="9">1000</text>
<text transform="matrix(1 0 0 1 19.0342 9.1484)" font-family="'MyriadPro-Regular'" font-size="9">1500</text>
<g>
	<line fill="none" stroke="#000000" stroke-width="1.0524" x1="44.283" y1="137.001" x2="44.283" y2="0"/>
	<line fill="none" stroke="#000000" stroke-width="0.5" x1="44.149" y1="127.969" x2="47.981" y2="127.969"/>
	<line fill="none" stroke="#000000" stroke-width="0.5" x1="44.149" y1="119.376" x2="47.981" y2="119.376"/>
	<line fill="none" stroke="#000000" stroke-width="0.5" x1="44.149" y1="111.043" x2="47.981" y2="111.043"/>
	<line fill="none" stroke="#000000" stroke-width="0.5" x1="44.149" y1="101.688" x2="47.981" y2="101.688"/>
	<line fill="none" stroke="#000000" stroke-width="0.6737" x1="44.117" y1="93.188" x2="51.074" y2="93.188"/>
	<line fill="none" stroke="#000000" stroke-width="0.5" x1="44.149" y1="84.865" x2="47.981" y2="84.865"/>
	<line fill="none" stroke="#000000" stroke-width="0.5" x1="44.149" y1="76.272" x2="47.981" y2="76.272"/>
	<line fill="none" stroke="#000000" stroke-width="0.5" x1="44.149" y1="67.939" x2="47.981" y2="67.939"/>
	<line fill="none" stroke="#000000" stroke-width="0.5" x1="44.149" y1="58.584" x2="47.981" y2="58.584"/>
	<line fill="none" stroke="#000000" stroke-width="0.6737" x1="44.117" y1="50.084" x2="51.074" y2="50.084"/>
	<line fill="none" stroke="#000000" stroke-width="0.5" x1="44.149" y1="41.75" x2="47.981" y2="41.75"/>
	<line fill="none" stroke="#000000" stroke-width="0.5" x1="44.149" y1="32.188" x2="47.981" y2="32.188"/>
	<line fill="none" stroke="#000000" stroke-width="0.5" x1="44.149" y1="23.855" x2="47.981" y2="23.855"/>
	<line fill="none" stroke="#000000" stroke-width="0.5" x1="44.149" y1="14.5" x2="47.981" y2="14.5"/>
	<line fill="none" stroke="#000000" stroke-width="0.6737" x1="44.117" y1="6" x2="51.074" y2="6"/>
</g>
<rect x="62.866" y="132.625" fill="#009FDA" stroke="#009FDA" stroke-miterlimit="10" width="5.854" height="1.646"/>
<rect x="66.304" y="134.271" fill="#009FDA" stroke="#009FDA" stroke-miterlimit="10" width="4.146" height="0.834"/>
<rect x="71.335" y="134.219" fill="#009FDA" stroke="#009FDA" stroke-miterlimit="10" width="8.093" height="0.886"/>
<rect x="79.96" y="135.178" fill="#009FDA" stroke="#009FDA" stroke-miterlimit="10" width="2.364" height="0.697"/>
<rect x="80.658" y="132.583" fill="#009FDA" stroke="#009FDA" stroke-miterlimit="10" width="1.667" height="1.938"/>
<line fill="none" stroke="#000000" stroke-width="0.8699" x1="43.854" y1="136.345" x2="273.45" y2="136.345"/>
</svg>
