<?xml version="1.0" encoding="utf-8"?>
<!-- Generator: Adobe Illustrator 16.0.0, SVG Export Plug-In . SVG Version: 6.00 Build 0)  -->
<!DOCTYPE svg PUBLIC "-//W3C//DTD SVG 1.1//EN" "http://www.w3.org/Graphics/SVG/1.1/DTD/svg11.dtd">
<svg version="1.1" id="Layer_1" xmlns="http://www.w3.org/2000/svg" xmlns:xlink="http://www.w3.org/1999/xlink" x="0px" y="0px"
	 width="250.539px" height="162.005px" viewBox="0 0 250.539 162.005" enable-background="new 0 0 250.539 162.005"
	 xml:space="preserve">
<g>
	<text transform="matrix(0 -1 1 0 7.5332 93.124)" font-family="'MyriadPro-Regular'" font-size="9">Resolução (%)</text>
</g>
<g>
	<text transform="matrix(1 0 0 1 108.9663 159.7549)" font-family="'MyriadPro-Regular'" font-size="9">Tensão no fototubo (V)</text>
</g>
<text transform="matrix(1 0 0 1 56.7842 144.3916)" font-family="'MyriadPro-Regular'" font-size="9">1000</text>
<text transform="matrix(1 0 0 1 98.4512 144.3916)" font-family="'MyriadPro-Regular'" font-size="9">1500</text>
<text transform="matrix(1 0 0 1 140.1162 144.3916)" font-family="'MyriadPro-Regular'" font-size="9">2000</text>
<text transform="matrix(1 0 0 1 180.9502 144.3916)" font-family="'MyriadPro-Regular'" font-size="9">2500</text>
<text transform="matrix(1 0 0 1 221.7842 144.3916)" font-family="'MyriadPro-Regular'" font-size="9">3000</text>
<text transform="matrix(1 0 0 1 29.3687 144.3916)" font-family="'MyriadPro-Regular'" font-size="9">0</text>
<text transform="matrix(1 0 0 1 23.3687 93.124)" font-family="'MyriadPro-Regular'" font-size="9">50</text>
<text transform="matrix(1 0 0 1 17.3687 50.4541)" font-family="'MyriadPro-Regular'" font-size="9">100</text>
<text transform="matrix(1 0 0 1 17.3687 7.5332)" font-family="'MyriadPro-Regular'" font-size="9">150</text>
<line fill="none" stroke="#000000" stroke-width="1.0524" x1="37.617" y1="131.726" x2="37.617" y2="4.306"/>
<line fill="none" stroke="#000000" stroke-width="0.9328" x1="37.617" y1="131.726" x2="250.539" y2="131.726"/>
<line fill="none" stroke="#000000" stroke-width="0.5" x1="37.451" y1="123.975" x2="41.283" y2="123.975"/>
<line fill="none" stroke="#000000" stroke-width="0.5" x1="37.451" y1="115.205" x2="41.283" y2="115.205"/>
<line fill="none" stroke="#000000" stroke-width="0.5" x1="37.451" y1="106.434" x2="41.283" y2="106.434"/>
<line fill="none" stroke="#000000" stroke-width="0.5" x1="37.451" y1="97.809" x2="41.283" y2="97.809"/>
<line fill="none" stroke="#000000" stroke-width="0.6737" x1="37.451" y1="89.975" x2="44.408" y2="89.975"/>
<line fill="none" stroke="#000000" stroke-width="0.5" x1="37.451" y1="81.306" x2="41.283" y2="81.306"/>
<line fill="none" stroke="#000000" stroke-width="0.5" x1="37.451" y1="72.536" x2="41.283" y2="72.536"/>
<line fill="none" stroke="#000000" stroke-width="0.5" x1="37.451" y1="63.765" x2="41.283" y2="63.765"/>
<line fill="none" stroke="#000000" stroke-width="0.5" x1="37.451" y1="55.14" x2="41.283" y2="55.14"/>
<line fill="none" stroke="#000000" stroke-width="0.5" x1="37.451" y1="39.389" x2="41.283" y2="39.389"/>
<line fill="none" stroke="#000000" stroke-width="0.5" x1="37.451" y1="30.619" x2="41.283" y2="30.619"/>
<line fill="none" stroke="#000000" stroke-width="0.5" x1="37.451" y1="21.848" x2="41.283" y2="21.848"/>
<line fill="none" stroke="#000000" stroke-width="0.5" x1="37.451" y1="13.223" x2="41.283" y2="13.223"/>
<line fill="none" stroke="#000000" stroke-width="0.6737" x1="37.451" y1="47.306" x2="44.408" y2="47.306"/>
<line fill="none" stroke="#000000" stroke-width="0.5" x1="78.456" y1="131.491" x2="78.456" y2="129.929"/>
<line fill="none" stroke="#000000" stroke-width="0.5" x1="62.039" y1="131.491" x2="62.039" y2="129.929"/>
<line fill="none" stroke="#000000" stroke-width="0.5" x1="53.956" y1="131.491" x2="53.956" y2="129.929"/>
<line fill="none" stroke="#000000" stroke-width="0.5" x1="45.122" y1="131.491" x2="45.122" y2="129.929"/>
<line fill="none" stroke="#000000" stroke-width="0.744" x1="69.706" y1="131.444" x2="69.706" y2="127.983"/>
<line fill="none" stroke="#000000" stroke-width="0.5" x1="103.038" y1="131.491" x2="103.038" y2="129.929"/>
<line fill="none" stroke="#000000" stroke-width="0.5" x1="86.372" y1="131.491" x2="86.372" y2="129.929"/>
<line fill="none" stroke="#000000" stroke-width="0.5" x1="94.956" y1="131.491" x2="94.956" y2="129.929"/>
<line fill="none" stroke="#000000" stroke-width="0.744" x1="110.706" y1="131.444" x2="110.706" y2="127.983"/>
<line fill="none" stroke="#000000" stroke-width="0.5" x1="119.456" y1="131.491" x2="119.456" y2="129.929"/>
<line fill="none" stroke="#000000" stroke-width="0.5" x1="144.038" y1="131.491" x2="144.038" y2="129.929"/>
<line fill="none" stroke="#000000" stroke-width="0.5" x1="127.372" y1="131.491" x2="127.372" y2="129.929"/>
<line fill="none" stroke="#000000" stroke-width="0.5" x1="135.956" y1="131.491" x2="135.956" y2="129.929"/>
<line fill="none" stroke="#000000" stroke-width="0.744" x1="151.706" y1="131.444" x2="151.706" y2="127.983"/>
<line fill="none" stroke="#000000" stroke-width="0.5" x1="160.539" y1="131.491" x2="160.539" y2="129.929"/>
<line fill="none" stroke="#000000" stroke-width="0.5" x1="185.121" y1="131.491" x2="185.121" y2="129.929"/>
<line fill="none" stroke="#000000" stroke-width="0.5" x1="168.455" y1="131.491" x2="168.455" y2="129.929"/>
<line fill="none" stroke="#000000" stroke-width="0.5" x1="177.039" y1="131.491" x2="177.039" y2="129.929"/>
<line fill="none" stroke="#000000" stroke-width="0.744" x1="192.789" y1="131.444" x2="192.789" y2="127.983"/>
<line fill="none" stroke="#000000" stroke-width="0.5" x1="201.455" y1="131.491" x2="201.455" y2="129.929"/>
<line fill="none" stroke="#000000" stroke-width="0.5" x1="226.037" y1="131.491" x2="226.037" y2="129.929"/>
<line fill="none" stroke="#000000" stroke-width="0.5" x1="242.872" y1="131.491" x2="242.872" y2="129.929"/>
<line fill="none" stroke="#000000" stroke-width="0.5" x1="209.371" y1="131.491" x2="209.371" y2="129.929"/>
<line fill="none" stroke="#000000" stroke-width="0.5" x1="217.955" y1="131.491" x2="217.955" y2="129.929"/>
<line fill="none" stroke="#000000" stroke-width="0.744" x1="233.705" y1="131.444" x2="233.705" y2="127.983"/>
<polyline fill="none" stroke="#009FDA" points="53.206,21.058 61.372,60.391 69.706,85.391 77.872,100.891 85.372,110.058 
	94.206,116.558 102.206,120.058 110.372,122.891 118.706,123.558 126.706,124.62 135.706,124.62 143.539,124.62 151.039,124.62 
	172.206,124.62 192.372,124.62 212.706,124.62 233.372,124.62 "/>
<circle fill="#ABE1FA" stroke="#009FDA" stroke-width="0.5" cx="233.372" cy="124.62" r="1.406"/>
<circle fill="#ABE1FA" stroke="#009FDA" stroke-width="0.5" cx="212.872" cy="124.62" r="1.406"/>
<circle fill="#ABE1FA" stroke="#009FDA" stroke-width="0.5" cx="192.497" cy="124.62" r="1.406"/>
<circle fill="#ABE1FA" stroke="#009FDA" stroke-width="0.5" cx="171.997" cy="124.62" r="1.406"/>
<circle fill="#ABE1FA" stroke="#009FDA" stroke-width="0.5" cx="151.122" cy="124.62" r="1.406"/>
<circle fill="#ABE1FA" stroke="#009FDA" stroke-width="0.5" cx="143.497" cy="124.62" r="1.406"/>
<circle fill="#ABE1FA" stroke="#009FDA" stroke-width="0.5" cx="135.56" cy="124.62" r="1.406"/>
<circle fill="#ABE1FA" stroke="#009FDA" stroke-width="0.5" cx="126.747" cy="124.62" r="1.406"/>
<circle fill="#ABE1FA" stroke="#009FDA" stroke-width="0.5" cx="118.706" cy="123.558" r="1.406"/>
<circle fill="#ABE1FA" stroke="#009FDA" stroke-width="0.5" cx="110.372" cy="122.891" r="1.406"/>
<circle fill="#ABE1FA" stroke="#009FDA" stroke-width="0.5" cx="102.206" cy="120.058" r="1.406"/>
<circle fill="#ABE1FA" stroke="#009FDA" stroke-width="0.5" cx="94.206" cy="116.558" r="1.406"/>
<circle fill="#ABE1FA" stroke="#009FDA" stroke-width="0.5" cx="85.372" cy="110.058" r="1.406"/>
<circle fill="#ABE1FA" stroke="#009FDA" stroke-width="0.5" cx="77.872" cy="100.891" r="1.406"/>
<circle fill="#ABE1FA" stroke="#009FDA" stroke-width="0.5" cx="69.706" cy="85.391" r="1.406"/>
<circle fill="#ABE1FA" stroke="#009FDA" stroke-width="0.5" cx="61.581" cy="60.599" r="1.406"/>
<circle fill="#ABE1FA" stroke="#009FDA" stroke-width="0.5" cx="53.206" cy="21.058" r="1.406"/>
</svg>
