<?xml version="1.0" encoding="utf-8"?>
<!-- Generator: Adobe Illustrator 16.0.0, SVG Export Plug-In . SVG Version: 6.00 Build 0)  -->
<!DOCTYPE svg PUBLIC "-//W3C//DTD SVG 1.1//EN" "http://www.w3.org/Graphics/SVG/1.1/DTD/svg11.dtd">
<svg version="1.1" id="Layer_1" xmlns="http://www.w3.org/2000/svg" xmlns:xlink="http://www.w3.org/1999/xlink" x="0px" y="0px"
	 width="250.277px" height="156.035px" viewBox="0 0 250.277 156.035" enable-background="new 0 0 250.277 156.035"
	 xml:space="preserve">
<g>
	<text transform="matrix(0 -1 1 0 7.5332 90.7598)" font-family="'MyriadPro-Regular'" font-size="9">contagens</text>
</g>
<g id="Layer_2">
</g>
<g>
	<text transform="matrix(1 0 0 1 129.7598 153.7852)" font-family="'MyriadPro-Regular'" font-size="9">canal</text>
</g>
<g>
	<text transform="matrix(1 0 0 1 70.7598 136.1172)" font-family="'MyriadPro-Regular'" font-size="9">100</text>
</g>
<g>
	<text transform="matrix(1 0 0 1 111.4277 136.1172)" font-family="'MyriadPro-Regular'" font-size="9">200</text>
</g>
<g>
	<text transform="matrix(1 0 0 1 153.2598 136.1172)" font-family="'MyriadPro-Regular'" font-size="9">300</text>
</g>
<g>
	<text transform="matrix(1 0 0 1 194.7598 136.1172)" font-family="'MyriadPro-Regular'" font-size="9">400</text>
</g>
<g>
	<text transform="matrix(1 0 0 1 236.4277 136.1172)" font-family="'MyriadPro-Regular'" font-size="9">500</text>
</g>
<text transform="matrix(1 0 0 1 28.6738 137.1172)" font-family="'MyriadPro-Regular'" font-size="9">0</text>
<text transform="matrix(1 0 0 1 16.6738 102.4131)" font-family="'MyriadPro-Regular'" font-size="9">200</text>
<text transform="matrix(1 0 0 1 16.6738 74.3291)" font-family="'MyriadPro-Regular'" font-size="9">400</text>
<text transform="matrix(1 0 0 1 16.6738 20.1611)" font-family="'MyriadPro-Regular'" font-size="9">800</text>
<text transform="matrix(1 0 0 1 16.6738 47.6611)" font-family="'MyriadPro-Regular'" font-size="9">600</text>
<line fill="none" stroke="#000000" stroke-width="1.0018" x1="37.676" y1="126.453" x2="37.676" y2="0"/>
<line fill="none" stroke="#000000" stroke-width="0.8775" x1="37.676" y1="126.453" x2="249.688" y2="126.453"/>
<line fill="none" stroke="#000000" stroke-width="0.5" x1="37.51" y1="120.056" x2="41.342" y2="120.056"/>
<line fill="none" stroke="#000000" stroke-width="0.5" x1="37.51" y1="113.036" x2="41.342" y2="113.036"/>
<line fill="none" stroke="#000000" stroke-width="0.5" x1="37.51" y1="105.931" x2="41.342" y2="105.931"/>
<line fill="none" stroke="#000000" stroke-width="0.6737" x1="44.467" y1="100.265" x2="37.51" y2="100.265"/>
<line fill="none" stroke="#000000" stroke-width="0.5" x1="41.342" y1="92.556" x2="37.51" y2="92.556"/>
<line fill="none" stroke="#000000" stroke-width="0.5" x1="37.51" y1="85.536" x2="41.342" y2="85.536"/>
<line fill="none" stroke="#000000" stroke-width="0.5" x1="37.51" y1="78.431" x2="41.342" y2="78.431"/>
<line fill="none" stroke="#000000" stroke-width="0.6737" x1="37.51" y1="72.181" x2="44.467" y2="72.181"/>
<line fill="none" stroke="#000000" stroke-width="0.5" x1="37.51" y1="65.889" x2="41.342" y2="65.889"/>
<line fill="none" stroke="#000000" stroke-width="0.5" x1="37.51" y1="58.869" x2="41.342" y2="58.869"/>
<line fill="none" stroke="#000000" stroke-width="0.5" x1="37.51" y1="51.764" x2="41.342" y2="51.764"/>
<line fill="none" stroke="#000000" stroke-width="0.6737" x1="37.51" y1="45.514" x2="44.467" y2="45.514"/>
<line fill="none" stroke="#000000" stroke-width="0.5" x1="37.51" y1="38.389" x2="41.342" y2="38.389"/>
<line fill="none" stroke="#000000" stroke-width="0.5" x1="37.51" y1="31.369" x2="41.342" y2="31.369"/>
<line fill="none" stroke="#000000" stroke-width="0.5" x1="37.51" y1="25.18" x2="41.342" y2="25.18"/>
<line fill="none" stroke="#000000" stroke-width="0.6737" x1="37.51" y1="18.014" x2="44.467" y2="18.014"/>
<line fill="none" stroke="#000000" stroke-width="0.5" x1="149.801" y1="126.219" x2="149.801" y2="123.371"/>
<line fill="none" stroke="#000000" stroke-width="0.5" x1="144.686" y1="126.219" x2="144.686" y2="124.656"/>
<line fill="none" stroke="#000000" stroke-width="0.5" x1="128.342" y1="126.219" x2="128.342" y2="124.656"/>
<line fill="none" stroke="#000000" stroke-width="0.5" x1="136.812" y1="126.219" x2="136.812" y2="124.656"/>
<line fill="none" stroke="#000000" stroke-width="0.5" x1="103.342" y1="126.219" x2="103.342" y2="124.656"/>
<line fill="none" stroke="#000000" stroke-width="0.5" x1="111.675" y1="126.219" x2="111.675" y2="124.656"/>
<line fill="none" stroke="#000000" stroke-width="0.5" x1="95.414" y1="126.219" x2="95.414" y2="124.656"/>
<line fill="none" stroke="#000000" stroke-width="0.5" x1="86.825" y1="126.219" x2="86.825" y2="124.656"/>
<line fill="none" stroke="#000000" stroke-width="0.5" x1="70.55" y1="126.219" x2="70.55" y2="124.656"/>
<line fill="none" stroke="#000000" stroke-width="0.5" x1="61.717" y1="126.219" x2="61.717" y2="124.656"/>
<line fill="none" stroke="#000000" stroke-width="0.5" x1="53.695" y1="126.219" x2="53.695" y2="124.656"/>
<line fill="none" stroke="#000000" stroke-width="0.5" x1="45.242" y1="126.219" x2="45.242" y2="124.656"/>
<line fill="none" stroke="#000000" stroke-width="0.744" x1="78.962" y1="126.171" x2="78.962" y2="122.711"/>
<line fill="none" stroke="#000000" stroke-width="0.5" x1="119.612" y1="126.219" x2="119.612" y2="123.375"/>
<polyline fill="none" stroke="#009FDA" stroke-width="0.83" points="101.604,119.959 102.646,119.959 102.646,124.001 
	103.312,124.001 103.312,119.042 104.146,119.042 104.146,122.209 104.146,122.729 104.812,122.729 104.812,119.251 
	104.812,120.542 105.438,120.542 105.438,122.917 105.438,123.542 106.354,123.542 106.354,119.917 106.979,119.917 
	106.979,122.667 107.646,122.667 107.646,121.501 108.188,121.501 108.188,123.834 108.812,123.834 108.812,120.709 
	109.312,120.709 109.312,119.251 109.312,123.751 111.271,123.751 111.271,121.376 111.938,121.376 111.938,120.501 
	111.938,123.542 112.771,123.542 112.771,124.251 112.771,121.459 114.188,121.459 114.188,120.626 114.188,124.292 
	114.229,122.459 113.062,122.459 115.604,122.459 115.604,123.334 118.354,123.334 118.354,122.584 114.771,122.584 
	114.771,120.667 115.438,120.667 115.438,121.917 118.979,121.917 118.979,120.959 117.812,120.959 117.812,120.126 
	119.896,120.126 119.896,119.167 118.562,119.167 118.562,118.417 119.521,118.417 119.521,117.667 119.521,117.001 
	120.396,117.001 120.396,110.709 121.104,110.709 121.104,115.126 121.104,102.292 121.688,102.292 121.688,103.001 121.688,96.751 
	122.688,96.751 122.688,97.501 122.688,84.751 123.354,84.751 123.354,85.376 123.354,66.25 124.021,66.25 124.021,49.208 
	124.688,49.208 124.688,52 124.688,32.542 125.812,32.542 125.812,20.083 126.479,20.083 126.479,27.417 126.479,8.709 
	127.312,8.709 127.312,7.084 127.312,17.459 128.062,17.459 128.062,19.125 128.062,10.167 128.688,10.167 128.688,9.334 
	128.688,31.417 128.729,28.625 129.646,28.625 129.646,37.625 129.646,32.542 130.521,32.542 130.521,51.292 131.229,51.292 
	131.229,67.458 131.229,65.583 131.896,65.583 131.896,81.958 132.688,81.958 132.688,76.792 132.688,78.417 133.562,78.417 
	133.562,83.583 134.271,83.583 134.271,76.042 135.146,76.042 135.146,80.126 135.146,63.917 136.021,63.917 136.021,66.5 
	136.021,60.042 136.812,60.042 136.812,53.958 137.604,53.958 137.604,40.083 137.979,40.083 137.979,33.083 137.979,47.458 
	138.938,47.458 138.938,36.917 138.979,38.542 139.729,38.542 139.729,46.125 139.812,39.292 140.604,39.292 140.604,49.792 
	140.604,43.25 141.146,43.25 141.146,58.875 141.229,57.917 141.979,57.917 141.979,70.625 142.021,67.709 142.729,67.709 
	142.729,85.876 142.729,81.001 143.604,81.001 143.604,94.333 143.604,87.751 144.271,87.751 144.271,107.417 144.312,103.751 
	144.812,103.751 144.812,109.584 145.854,109.584 145.854,116.751 145.854,113.376 146.312,113.376 146.312,120.376 
	146.354,117.459 147.021,117.459 147.021,121.251 148.396,121.251 148.396,124.209 149.562,124.209 149.562,125.626 
	247.354,125.626 247.354,124.917 149.979,124.917 149.979,124.251 150.938,124.251 151.312,124.251 151.312,123.126 
	151.312,124.251 155.854,124.251 155.854,125.292 157.521,125.292 157.521,123.042 157.521,124.334 159.729,124.334 
	159.729,125.042 160.896,125.042 160.896,122.167 160.854,124.042 162.062,124.042 162.062,124.833 163.312,124.833 
	163.312,123.083 163.312,123.876 163.938,123.876 163.938,125.083 165.271,125.001 165.271,124.001 166.188,124.001 
	166.188,124.751 169.062,124.751 169.062,124.083 172.479,124.083 172.479,124.751 174.688,124.751 174.688,124.042 
	177.896,124.042 177.896,124.792 180.104,124.792 180.104,123.792 180.104,124.626 181.688,124.626 181.688,123.958 
	182.521,123.958 182.521,124.417 182.521,124.792 184.104,124.792 184.104,123.833 184.104,124.792 188.396,124.792 
	188.396,123.958 189.188,123.958 189.188,124.792 191.771,124.792 191.771,123.876 191.771,124.792 196.354,124.792 
	196.354,123.958 196.354,124.708 201.771,124.708 201.771,122.251 201.812,123.833 202.812,123.833 202.812,124.626 
	205.229,124.626 205.229,123.917 206.021,123.917 206.021,124.667 208.354,124.667 208.354,124.001 208.979,124.001 
	208.979,124.542 210.812,124.542 210.812,123.876 212.146,123.876 212.146,124.501 213.604,124.501 213.604,123.667 
	213.604,125.042 215.688,125.042 215.688,123.917 216.646,123.917 216.646,124.751 220.854,124.751 221.354,124.751 
	221.354,124.001 222.104,124.001 222.104,124.667 228.771,124.667 229.312,124.667 229.312,123.834 230.104,123.834 
	230.104,124.542 231.396,124.542 231.396,123.834 232.354,123.834 232.354,124.459 242.438,124.459 242.438,122.251 
	242.438,124.459 "/>
<polyline fill="none" stroke="#009FDA" stroke-width="0.83" points="38.354,61.583 38.354,73.083 39.271,73.083 39.271,79.333 
	40.021,79.333 40.021,87.333 40.771,87.333 40.771,89 41.771,89 41.771,92.583 41.688,91.167 42.354,91.167 42.354,95.25 
	43.021,95.25 43.021,91.667 43.854,91.667 43.854,99.25 44.688,99.25 44.688,102 45.604,102 45.604,104.958 45.896,104.958 
	45.896,103.458 46.271,103.458 46.271,104.75 46.854,104.75 46.854,103.333 46.854,106.875 46.854,107.208 47.271,107.208 
	47.271,104.125 47.646,104.125 47.646,107.166 48.188,107.166 48.188,104 48.604,104 48.604,110.416 48.604,107.583 49.188,107.583 
	49.188,104.875 49.688,104.875 49.688,108.375 49.688,108.541 50.104,108.541 50.104,104.708 50.104,108.333 50.688,108.333 
	51.104,108.333 51.104,106.375 51.646,106.375 51.646,108.166 51.646,108.541 52.313,108.541 52.313,111.666 52.813,111.666 
	52.813,109.583 53.271,109.583 53.271,111.708 53.688,111.708 53.688,110.458 54.146,110.458 54.146,112.625 54.646,112.625 
	54.646,111.166 54.646,114 55.063,114 55.063,111.916 55.563,111.916 55.563,113.958 55.979,113.958 55.979,112.041 56.438,112.041 
	56.771,112.041 56.771,111.166 57.313,111.166 57.313,112.833 57.396,111.875 57.729,111.875 57.729,116.5 58.146,116.5 
	58.146,114.708 58.396,114.708 58.396,111.166 58.688,111.166 58.688,114.833 58.729,113.041 59.229,113.041 59.229,111.083 
	59.521,111.083 59.521,113.166 59.771,113.166 59.771,113.677 59.771,113.791 "/>
<polyline fill="none" stroke="#009FDA" stroke-width="0.83" points="59.75,114.021 60.25,114.021 60.25,112.708 60.719,112.708 
	60.719,109.521 60.906,109.521 60.906,116.146 60.906,116.646 61.344,116.646 61.344,111.864 61.719,111.864 61.719,116.458 
	62.219,116.458 62.219,111.802 62.719,111.802 62.719,116.427 63,116.427 63,113.552 63.531,113.552 63.531,116.583 63.875,116.583 
	63.875,117.114 63.875,117.489 63.875,113.364 64.344,113.364 64.344,117.333 64.875,117.333 64.875,114.239 65.312,114.239 
	65.312,114.896 65.719,114.896 65.719,114.208 66.281,114.208 66.281,116.364 66.656,116.364 66.656,114.333 66.656,114.958 
	66.969,114.958 66.969,116.489 67.375,116.489 67.375,115.021 67.719,115.021 67.719,114.114 67.719,118.114 68.125,118.114 
	68.125,114.114 68.562,114.114 68.562,117.958 68.938,117.958 68.938,114.208 68.938,115.958 70.656,115.958 70.656,116.396 
	69.156,116.396 69.156,116.802 70.812,116.802 70.812,117.177 69.125,117.177 69.125,117.427 70.844,117.427 69.125,117.427 
	69.125,117.864 70.906,117.864 70.906,114.271 71.281,114.271 71.281,117.989 71.281,117.177 71.562,117.177 71.562,114.146 
	72.031,114.146 72.031,117.021 72.406,117.021 72.406,115.177 72.781,115.177 72.781,116.958 73.281,116.958 73.281,117.958 
	73.688,117.958 73.688,116.583 73.656,117.458 74.469,117.458 74.062,117.864 74.406,117.864 74.688,117.583 74.953,117.317 
	75.469,117.317 75.469,119.458 75.875,119.458 75.875,117.458 76.188,117.458 76.188,115.677 76.188,118.896 76.656,118.896 
	76.656,115.708 76.719,117.458 77.531,117.458 77.531,117.958 77.031,117.958 77.031,119.614 77.594,119.614 77.594,118.208 
	77.875,118.208 77.875,119.802 77.875,120.364 78.375,120.364 78.375,118.052 78.719,118.052 78.719,120.271 79.25,120.271 
	79.25,118.208 79.562,118.208 79.562,117.396 79.562,120.208 79.688,120.333 80.094,120.333 80.094,117.396 80.406,117.396 
	80.406,121.239 81,121.239 81,118.958 81.406,118.958 81.406,121.146 81.406,120.208 88.688,120.208 88.688,119.739 81.531,119.739 
	81.531,119.271 84.594,119.271 84.344,120.177 84.875,120.239 84.875,121.052 85.312,121.052 85.312,120.521 85.312,119.927 
	86.438,119.927 86.438,122.708 86.906,122.708 86.906,120.146 88.188,120.146 88.188,122.739 89.312,122.739 89.312,122.333 
	88.375,122.333 88.375,121.771 90.125,121.771 90.125,121.271 88.312,121.271 88.312,120.708 90.156,120.708 90.156,119.052 
	90.719,119.052 90.719,121.208 91.062,121.208 91.062,119.021 91.5,119.021 91.5,120.552 94.938,120.552 94.938,121.083 
	91.406,121.083 91.938,121.114 91.938,121.458 97.938,121.458 97.938,121.864 91.906,121.864 91.906,122.271 101.906,122.271 
	101.906,122.677 91.875,122.677 97.344,122.677 97.344,123.458 101.125,123.458 101.125,122.927 97.438,122.927 97.438,122.208 
	99.688,122.271 99.688,121.396 100,121.396 100.906,121.396 100.906,119.771 101.406,119.771 101.406,121.802 99.844,121.802 
	101.844,121.802 101.844,120.208 "/>
</svg>
