<?xml version="1.0" encoding="utf-8"?>
<!-- Generator: Adobe Illustrator 16.0.0, SVG Export Plug-In . SVG Version: 6.00 Build 0)  -->
<!DOCTYPE svg PUBLIC "-//W3C//DTD SVG 1.1//EN" "http://www.w3.org/Graphics/SVG/1.1/DTD/svg11.dtd">
<svg version="1.1" id="Layer_3" xmlns="http://www.w3.org/2000/svg" xmlns:xlink="http://www.w3.org/1999/xlink" x="0px" y="0px"
	 width="251.627px" height="155.035px" viewBox="0 0 251.627 155.035" enable-background="new 0 0 251.627 155.035"
	 xml:space="preserve">
<g>
	<polyline fill="none" stroke="#009FDA" stroke-width="0.83" points="40.525,35.109 40.275,56.276 41.108,56.276 41.108,67.359 
		42.025,67.359 42.025,82.276 42.691,82.276 42.691,82.776 44.025,82.776 44.025,89.859 44.441,89.859 44.441,92.276 44.775,92.276 
		44.775,98.776 45.9,98.776 45.9,96.568 46.733,96.568 46.733,100.777 47.358,100.777 47.358,102.527 47.941,102.527 
		47.941,101.235 48.65,101.235 48.65,105.36 49.483,105.36 49.483,103.068 50.316,103.068 50.316,105.235 51.15,105.235 
		51.15,103.61 51.816,103.61 51.816,106.235 53.108,106.235 53.108,107.152 54.15,107.152 54.15,107.943 55.025,107.943 
		55.025,109.443 56.65,109.443 56.65,110.402 54.816,110.402 54.816,111.277 58.566,111.277 58.566,113.985 58.566,112.86 
		59.941,112.86 61.191,112.86 61.191,117.152 61.691,117.152 61.691,114.568 64.691,114.568 64.691,115.193 62.233,115.193 
		62.233,116.193 65.483,116.193 66.358,116.193 66.358,117.027 66.9,117.027 66.9,118.61 67.983,118.61 67.983,115.86 
		68.691,115.86 69.566,115.86 69.566,116.652 68.733,116.652 68.421,116.965 69.691,116.965 69.691,119.61 71.15,119.61 
		71.15,120.402 71.816,120.402 71.816,119.235 72.483,119.235 75.025,119.235 75.025,116.319 77.025,116.319 77.025,111.194 
		78.108,111.194 78.108,107.485 78.691,107.485 78.691,101.318 79.275,101.318 79.275,98.902 80.025,98.902 80.025,87.943 
		80.733,87.943 80.733,78.86 81.4,78.86 81.4,62.318 82.275,62.318 82.275,49.735 82.941,49.735 82.941,39.902 83.65,39.902 
		83.65,27.318 84.358,27.318 84.358,30.652 85.025,30.652 85.025,18.902 85.816,18.902 85.816,14.902 86.483,14.902 87.108,14.902 
		87.108,7.277 87.858,7.277 87.858,11.277 89.025,11.277 89.025,20.693 89.65,20.693 89.65,23.86 89.65,16.318 90.566,16.318 
		90.566,26.11 91.525,26.11 91.525,37.068 92.275,37.068 92.275,46.402 93.025,46.402 93.025,52.61 93.775,52.61 93.775,63.527 
		94.191,63.527 94.191,67.985 95.233,67.985 95.233,76.568 96.025,76.568 96.025,85.943 97.025,85.943 97.025,96.86 97.733,96.86 
		97.733,105.277 98.191,105.277 98.191,106.652 98.191,111.152 98.9,111.152 98.9,115.819 98.9,116.444 99.941,116.444 
		99.941,119.527 100.9,119.527 100.9,121.902 101.525,121.902 101.525,123.068 101.983,123.068 101.983,123.818 102.691,123.818 
		102.691,124.443 102.691,125.443 104.65,125.443 104.65,124.485 105.775,124.485 105.775,125.36 106.4,125.36 112.316,125.36 
		109.691,125.36 109.691,126.068 112.108,126.068 113.066,126.068 114.4,126.068 115.108,126.068 158.858,126.068 116.566,126.068 
		116.566,125.152 119.4,125.152 119.358,126.027 124.358,126.027 124.358,125.277 124.358,126.152 130.483,126.068 130.483,124.943 
		130.483,126.152 138.483,126.068 138.483,124.985 138.483,126.068 154.983,126.027 154.983,125.277 	"/>
	<line fill="none" stroke="#009FDA" x1="159.941" y1="125.964" x2="164.4" y2="125.964"/>
	<line fill="none" stroke="#009FDA" x1="165.566" y1="125.964" x2="169.275" y2="125.964"/>
	<line fill="none" stroke="#009FDA" x1="169.983" y1="125.964" x2="180.233" y2="125.964"/>
	<line fill="none" stroke="#009FDA" x1="181.858" y1="125.964" x2="187.566" y2="125.964"/>
	<line fill="none" stroke="#009FDA" x1="188.858" y1="125.964" x2="195.358" y2="125.964"/>
	<line fill="none" stroke="#009FDA" x1="196.65" y1="125.964" x2="200.358" y2="125.964"/>
	<line fill="none" stroke="#009FDA" x1="201.524" y1="125.964" x2="211.066" y2="125.964"/>
	<line fill="none" stroke="#009FDA" x1="212.066" y1="125.964" x2="220.608" y2="125.964"/>
	<line fill="none" stroke="#009FDA" x1="223.149" y1="125.964" x2="229.107" y2="125.964"/>
</g>
<g>
	<text transform="matrix(0 -1 1 0 7.5332 83.7559)" font-family="'MyriadPro-Regular'" font-size="9">contagens</text>
</g>
<g>
	<text transform="matrix(1 0 0 1 132.6992 152.7852)" font-family="'MyriadPro-Regular'" font-size="9">canal</text>
</g>
<text transform="matrix(1 0 0 1 70.6982 138.1172)" font-family="'MyriadPro-Regular'" font-size="9">100</text>
<text transform="matrix(1 0 0 1 111.3652 138.1172)" font-family="'MyriadPro-Regular'" font-size="9">200</text>
<text transform="matrix(1 0 0 1 153.1982 138.1172)" font-family="'MyriadPro-Regular'" font-size="9">300</text>
<text transform="matrix(1 0 0 1 194.6982 138.1172)" font-family="'MyriadPro-Regular'" font-size="9">400</text>
<text transform="matrix(1 0 0 1 236.3652 138.1172)" font-family="'MyriadPro-Regular'" font-size="9">500</text>
<text transform="matrix(1 0 0 1 31.6147 135.4512)" font-family="'MyriadPro-Regular'" font-size="9">0</text>
<text transform="matrix(1 0 0 1 19.6133 86.3301)" font-family="'MyriadPro-Regular'" font-size="9">500</text>
<text transform="matrix(1 0 0 1 13.1128 42.1621)" font-family="'MyriadPro-Regular'" font-size="9">1000</text>
<line fill="none" stroke="#000000" stroke-width="1.0018" x1="39.616" y1="126.454" x2="39.616" y2="0"/>
<line fill="none" stroke="#000000" stroke-width="0.8775" x1="39.616" y1="126.454" x2="251.627" y2="126.454"/>
<line fill="none" stroke="#000000" stroke-width="0.5" x1="39.45" y1="117.889" x2="43.282" y2="117.889"/>
<line fill="none" stroke="#000000" stroke-width="0.5" x1="39.45" y1="109.369" x2="43.282" y2="109.369"/>
<line fill="none" stroke="#000000" stroke-width="0.5" x1="39.45" y1="100.097" x2="43.282" y2="100.097"/>
<line fill="none" stroke="#000000" stroke-width="0.5" x1="43.282" y1="91.389" x2="39.45" y2="91.389"/>
<line fill="none" stroke="#000000" stroke-width="0.6737" x1="39.45" y1="82.014" x2="46.407" y2="82.014"/>
<line fill="none" stroke="#000000" stroke-width="0.5" x1="39.45" y1="73.556" x2="43.282" y2="73.556"/>
<line fill="none" stroke="#000000" stroke-width="0.5" x1="39.45" y1="65.036" x2="43.282" y2="65.036"/>
<line fill="none" stroke="#000000" stroke-width="0.5" x1="39.45" y1="55.764" x2="43.282" y2="55.764"/>
<line fill="none" stroke="#000000" stroke-width="0.5" x1="43.282" y1="47.056" x2="39.45" y2="47.056"/>
<line fill="none" stroke="#000000" stroke-width="0.6737" x1="39.45" y1="37.681" x2="46.407" y2="37.681"/>
<line fill="none" stroke="#000000" stroke-width="0.5" x1="39.45" y1="29.389" x2="43.282" y2="29.389"/>
<line fill="none" stroke="#000000" stroke-width="0.5" x1="39.45" y1="20.869" x2="43.282" y2="20.869"/>
<line fill="none" stroke="#000000" stroke-width="0.5" x1="39.45" y1="11.597" x2="43.282" y2="11.597"/>
<line fill="none" stroke="#000000" stroke-width="0.5" x1="43.282" y1="2.889" x2="39.45" y2="2.889"/>
<line fill="none" stroke="#000000" stroke-width="0.5" x1="151.741" y1="126.22" x2="151.741" y2="123.372"/>
<line fill="none" stroke="#000000" stroke-width="0.5" x1="146.625" y1="126.22" x2="146.625" y2="124.657"/>
<line fill="none" stroke="#000000" stroke-width="0.5" x1="130.282" y1="126.22" x2="130.282" y2="124.657"/>
<line fill="none" stroke="#000000" stroke-width="0.5" x1="138.75" y1="126.22" x2="138.75" y2="124.657"/>
<line fill="none" stroke="#000000" stroke-width="0.5" x1="105.282" y1="126.22" x2="105.282" y2="124.657"/>
<line fill="none" stroke="#000000" stroke-width="0.5" x1="113.614" y1="126.22" x2="113.614" y2="124.657"/>
<line fill="none" stroke="#000000" stroke-width="0.5" x1="97.354" y1="126.22" x2="97.354" y2="124.657"/>
<line fill="none" stroke="#000000" stroke-width="0.5" x1="88.764" y1="126.22" x2="88.764" y2="124.657"/>
<line fill="none" stroke="#000000" stroke-width="0.5" x1="72.489" y1="126.22" x2="72.489" y2="124.657"/>
<line fill="none" stroke="#000000" stroke-width="0.5" x1="63.657" y1="126.22" x2="63.657" y2="124.657"/>
<line fill="none" stroke="#000000" stroke-width="0.5" x1="55.635" y1="126.22" x2="55.635" y2="124.657"/>
<line fill="none" stroke="#000000" stroke-width="0.5" x1="47.182" y1="126.22" x2="47.182" y2="124.657"/>
<line fill="none" stroke="#000000" stroke-width="0.744" x1="80.901" y1="126.171" x2="80.901" y2="122.712"/>
<line fill="none" stroke="#000000" stroke-width="0.5" x1="121.551" y1="126.22" x2="121.551" y2="123.376"/>
</svg>
