<?xml version="1.0" encoding="utf-8"?>
<!-- Generator: Adobe Illustrator 16.0.0, SVG Export Plug-In . SVG Version: 6.00 Build 0)  -->
<!DOCTYPE svg PUBLIC "-//W3C//DTD SVG 1.1//EN" "http://www.w3.org/Graphics/SVG/1.1/DTD/svg11.dtd">
<svg version="1.1" id="Layer_1" xmlns="http://www.w3.org/2000/svg" xmlns:xlink="http://www.w3.org/1999/xlink" x="0px" y="0px"
	 width="264.278px" height="166.678px" viewBox="0 0 264.278 166.678" enable-background="new 0 0 264.278 166.678"
	 xml:space="preserve">
<line fill="none" stroke="#009FDA" stroke-width="0.9" x1="226.437" y1="135.781" x2="222.562" y2="135.781"/>
<g>
	<polyline fill="none" stroke="#009FDA" stroke-width="0.9" points="160.262,130.93 160.29,130.35 159.26,130.299 159.212,131.294 
		159.198,131.559 155.279,131.365 155.249,131.965 158.404,132.119 158.446,131.255 156.688,131.169 156.744,130.009 
		155.914,129.969 155.879,130.696 155.767,132.955 154.771,132.905 154.808,132.177 154.845,131.41 153.882,131.362 
		153.989,129.171 153.844,132.129 153.839,130.862 151.182,130.73 151.138,131.628 153.396,131.74 145.792,131.365 145.746,132.26 
		151.958,132.566 151.192,132.529 151.136,133.694 150.307,133.652 150.357,132.622 148.927,132.55 148.882,133.479 
		147.918,133.433 148.069,132.376 145.98,132.241 145.932,133.237 144.338,133.157 144.401,131.861 143.57,131.822 143.653,130.125 
		142.789,130.083 142.627,133.405 136.915,133.123 136.878,133.854 139.005,133.96 139.036,133.327 141.857,133.468 
		141.896,132.703 137.214,132.473 137.241,131.906 141.99,132.141 135.283,131.812 135.234,132.807 134.27,132.759 134.222,133.724 
		133.591,133.693 133.704,131.4 132.342,131.332 132.272,132.764 128.188,132.562 128.17,132.927 131.425,133.087 131.396,133.651 
		129.67,133.565 129.578,135.393 129.638,134.197 125.687,134.001 125.731,133.071 128.887,133.227 128.26,133.796 123.511,133.562 
		123.605,131.636 121.947,131.556 121.845,133.646 120.147,133.562 120.199,132.534 118.105,132.43 114.386,132.246 114.289,134.24 
		119.636,134.504 119.689,133.406 115.14,133.183 112.581,133.057 	"/>
	<polyline fill="none" stroke="#009FDA" stroke-width="0.9" points="161.163,131.882 161.191,131.302 160.161,131.251 
		160.113,132.246 160.1,132.511 156.181,132.317 156.15,132.917 159.306,133.071 159.348,132.207 157.589,132.121 157.646,130.961 
		156.815,130.921 156.78,131.648 156.668,133.907 155.673,133.857 155.709,133.129 155.746,132.362 154.783,132.314 
		154.891,130.123 154.745,133.081 154.74,131.814 152.083,131.683 152.039,132.58 154.298,132.692 146.693,132.317 146.647,133.212 
		152.859,133.519 152.094,133.481 152.037,134.646 151.208,134.604 151.259,133.574 149.828,133.502 149.783,134.431 
		148.819,134.385 148.971,133.328 146.882,133.193 146.833,134.189 145.239,134.109 145.303,132.813 144.472,132.774 
		144.555,131.077 143.69,131.035 143.528,134.357 137.816,134.075 137.779,134.807 139.906,134.912 139.938,134.279 142.759,134.42 
		142.797,133.655 138.115,133.425 138.143,132.858 142.892,133.093 136.185,132.764 136.136,133.759 135.171,133.711 
		135.123,134.676 134.492,134.646 134.605,132.353 133.243,132.284 133.174,133.716 129.089,133.514 129.071,133.879 
		132.326,134.039 132.298,134.604 130.571,134.518 130.479,136.345 130.539,135.149 126.588,134.953 126.633,134.023 
		129.788,134.179 129.161,134.748 124.412,134.514 124.507,132.588 122.849,132.508 122.746,134.598 121.049,134.515 
		121.101,133.486 119.007,133.382 115.287,133.198 115.19,135.192 120.537,135.456 120.591,134.358 116.041,134.135 
		113.482,134.009 	"/>
	<path fill="none" stroke="#009FDA" stroke-width="0.9" d="M35.296,93.556h0.864v6.796h1.264v6.725h1.663v1.874v2.497h1.13v4.301
		h0.798v-2.565h1.13v2.91h0.998v2.774h0.931v1.528h2.194v2.356H47.2v0.901v-2.22h1.065v2.079v-1.314h4.521l-2.393,0.069v1.178h4.255
		v0.972h-4.189l2.195,0.138v1.387h3.458h2.328v1.042h-2.56h-1.961v0.9h1.995l0.332-0.9v-1.802h2.727v4.714v-0.936h0.799v-2.429
		h0.565v2.845V130h0.964v-2.187v2.048h1.097h0.333v-2.428h0.699v2.6h0.797v-2.565h0.565v-0.899h0.599v3.293h1.098v0.798v-0.798
		h0.963h0.765v-1.248v3.05h0.698v-2.147h1.93v0.901h-2.195h2.195v1.353h1.462v-1.596h2.295v0.763h-1.463v0.833h1.529h-1.264v1.039
		H74.3v0.592c0,0,0.365,0,0.599,0c0.233,0,0.333-0.351,0.333-0.351v-0.797l-0.25-0.26h0.78"/>
	<polyline fill="none" stroke="#009FDA" stroke-width="0.9" points="72.732,128.901 72.732,128.321 73.764,128.321 73.764,129.317 
		73.764,129.583 77.688,129.583 77.688,130.182 74.529,130.182 74.529,129.317 76.292,129.317 76.292,128.156 77.123,128.156 
		77.123,128.885 77.123,131.146 78.12,131.146 78.12,130.416 78.12,129.649 79.085,129.649 79.085,127.455 79.085,130.416 
		79.151,129.15 81.812,129.15 81.812,130.05 79.55,130.05 87.165,130.05 87.165,130.946 80.946,130.946 81.712,130.946 
		81.712,132.112 82.542,132.112 82.542,131.08 83.974,131.08 83.974,132.01 84.938,132.01 84.839,130.946 86.933,130.915 
		86.933,131.912 88.528,131.912 88.528,130.615 89.36,130.615 89.36,128.917 90.226,128.917 90.226,132.243 95.944,132.243 
		95.944,132.976 93.815,132.976 93.815,132.344 90.989,132.344 90.989,131.578 95.677,131.578 95.677,131.013 90.923,131.013 
		97.638,131.013 97.638,132.01 98.604,132.01 98.604,132.976 99.235,132.976 99.235,130.68 100.599,130.68 100.599,132.112 
		104.688,132.112 104.688,132.477 101.429,132.477 101.429,133.041 103.159,133.041 103.159,134.87 103.159,133.673 
		107.116,133.673 107.116,132.742 103.958,132.742 104.556,133.341 109.31,133.341 109.31,131.413 110.972,131.413 110.972,133.507 
		112.669,133.507 112.669,132.477 114.765,132.477 118.487,132.477 118.487,134.473 113.134,134.473 113.134,133.374 
		117.69,133.374 120.251,133.374 	"/>
	<path fill="none" stroke="#009FDA" stroke-width="0.9" d="M35.094,92.584h0.864v6.796h1.264v6.725h1.663v1.874v2.497h1.13v4.301
		h0.798v-2.565h1.13v2.91h0.998v2.774h0.931v1.528h2.194v2.356h0.931v0.901v-2.22h1.065v2.079v-1.314h4.521l-2.393,0.069v1.178
		h4.255v0.972h-4.189l2.195,0.138v1.387h3.458h2.328v1.042h-2.56h-1.961v0.9h1.995l0.332-0.9v-1.802h2.727v4.714v-0.936h0.799
		v-2.429h0.565v2.845v0.624h0.964v-2.187v2.048h1.097h0.333v-2.428h0.699v2.6h0.797v-2.565h0.565v-0.899h0.599v3.293h1.098v0.798
		v-0.798h0.963h0.765v-1.248v3.05h0.698v-2.147h1.93v0.901h-2.195h2.195v1.353h1.462v-1.596h2.295v0.763h-1.463v0.833h1.529H73.2
		v1.039h0.898v0.592c0,0,0.365,0,0.599,0c0.233,0,0.333-0.351,0.333-0.351v-0.797l-0.25-0.26h0.78"/>
	<polyline fill="none" stroke="#009FDA" stroke-width="0.9" points="161.478,131.231 161.478,124.49 163.318,124.49 163.318,118.24 
		163.859,118.24 163.859,108.74 164.567,108.74 164.567,97.281 165.567,97.281 165.567,93.115 166.483,93.115 166.483,74.948 
		167.233,74.948 167.233,55.365 168.192,55.365 168.192,44.157 169.067,44.157 169.067,31.782 169.692,31.782 169.692,21.656 
		170.608,21.656 170.608,14.115 171.359,14.115 171.359,6.406 171.359,7.031 172.109,7.031 172.109,14.365 172.109,10.74 
		172.775,10.74 172.775,14.281 173.817,14.281 173.817,26.031 175.067,26.031 175.067,37.615 175.567,37.615 175.567,45.031 
		176.317,45.031 176.317,62.615 177.15,62.615 177.15,70.24 178.317,70.24 178.317,91.281 178.817,91.281 178.817,99.698 
		179.692,99.698 179.692,109.74 180.483,109.74 180.483,119.656 181.358,119.656 181.358,122.865 182.15,122.865 182.15,129.115 
		183.067,129.115 183.067,131.198 183.817,131.198 183.817,132.99 184.942,132.99 184.942,133.448 185.65,133.448 185.65,134.156 
		187.608,134.156 187.608,135.198 215.108,135.198 	"/>
	<polyline fill="none" stroke="#009FDA" stroke-width="0.9" points="161.641,131.734 161.641,124.993 163.481,124.993 
		163.481,118.743 164.022,118.743 164.022,109.243 164.73,109.243 164.73,97.784 165.73,97.784 165.73,93.618 166.646,93.618 
		166.646,75.451 167.396,75.451 167.396,55.868 168.355,55.868 168.355,44.66 169.23,44.66 169.23,32.285 169.855,32.285 
		169.855,22.159 170.771,22.159 170.771,14.618 171.522,14.618 171.522,6.909 171.522,7.534 172.272,7.534 172.272,14.868 
		172.272,11.243 172.938,11.243 172.938,14.784 173.98,14.784 173.98,26.534 175.23,26.534 175.23,38.118 175.73,38.118 
		175.73,45.534 176.48,45.534 176.48,63.118 177.313,63.118 177.313,70.743 178.48,70.743 178.48,91.784 178.98,91.784 
		178.98,100.201 179.855,100.201 179.855,110.243 180.646,110.243 180.646,120.159 181.521,120.159 181.521,123.368 
		182.313,123.368 182.313,129.618 183.23,129.618 183.23,131.701 183.98,131.701 183.98,133.493 185.105,133.493 185.105,133.951 
		185.813,133.951 185.813,134.659 187.771,134.659 187.771,135.701 215.271,135.701 	"/>
	<line fill="none" stroke="#009FDA" stroke-width="0.9" x1="212.645" y1="135.701" x2="212.645" y2="132.656"/>
	<path fill="none" stroke="#009FDA" stroke-width="0.9" d="M257.354,132.906"/>
	<path fill="none" stroke="#009FDA" stroke-width="0.9" d="M257.354,135.865"/>
</g>
<polyline fill="none" stroke="#009FDA" stroke-width="0.9" points="72.934,129.873 72.934,129.293 73.965,129.293 73.965,130.289 
	73.965,130.555 77.89,130.555 77.89,131.153 74.73,131.153 74.73,130.289 76.493,130.289 76.493,129.128 77.324,129.128 
	77.324,129.856 77.324,132.118 78.321,132.118 78.321,131.388 78.321,130.621 79.287,130.621 79.287,128.427 79.287,131.388 
	79.353,130.122 82.013,130.122 82.013,131.021 79.751,131.021 87.366,131.021 87.366,131.918 81.147,131.918 81.913,131.918 
	81.913,133.084 82.743,133.084 82.743,132.052 84.175,132.052 84.175,132.981 85.14,132.981 85.04,131.918 87.134,131.887 
	87.134,132.884 88.729,132.884 88.729,131.587 89.562,131.587 89.562,129.889 90.427,129.889 90.427,133.215 96.146,133.215 
	96.146,133.947 94.017,133.947 94.017,133.315 91.19,133.315 91.19,132.55 95.878,132.55 95.878,131.984 91.124,131.984 
	97.839,131.984 97.839,132.981 98.806,132.981 98.806,133.947 99.437,133.947 99.437,131.651 100.8,131.651 100.8,133.084 
	104.89,133.084 104.89,133.448 101.63,133.448 101.63,134.013 103.36,134.013 103.36,135.842 103.36,134.645 107.317,134.645 
	107.317,133.714 104.159,133.714 104.757,134.312 109.511,134.312 109.511,132.385 111.173,132.385 111.173,134.479 112.87,134.479 
	112.87,133.448 114.966,133.448 118.688,133.448 118.688,135.444 113.335,135.444 113.335,134.346 117.892,134.346 120.452,134.346 
	"/>
<line fill="none" stroke="#000000" stroke-width="0.5" x1="146.771" y1="135.938" x2="146.771" y2="134.375"/>
<line fill="none" stroke="#000000" stroke-width="0.5" x1="135.771" y1="135.938" x2="135.771" y2="134.375"/>
<line fill="none" stroke="#000000" stroke-width="0.5" x1="158.708" y1="135.938" x2="158.708" y2="134.375"/>
<line fill="none" stroke="#000000" stroke-width="0.5" x1="168.146" y1="135.938" x2="168.146" y2="133.094"/>
<line fill="none" stroke="#000000" stroke-width="0.5" x1="257.228" y1="135.938" x2="257.228" y2="133.094"/>
<line fill="none" stroke="#000000" stroke-width="0.5" x1="101.833" y1="135.938" x2="101.833" y2="134.375"/>
<line fill="none" stroke="#000000" stroke-width="0.5" x1="90.833" y1="135.938" x2="90.833" y2="134.375"/>
<line fill="none" stroke="#000000" stroke-width="0.5" x1="113.771" y1="135.938" x2="113.771" y2="134.375"/>
<line fill="none" stroke="#000000" stroke-width="0.5" x1="121.807" y1="136.491" x2="121.807" y2="133.647"/>
<line fill="none" stroke="#000000" stroke-width="0.5" x1="57.146" y1="135.938" x2="57.146" y2="134.375"/>
<line fill="none" stroke="#000000" stroke-width="0.5" x1="46.146" y1="135.938" x2="46.146" y2="134.375"/>
<line fill="none" stroke="#000000" stroke-width="0.5" x1="69.083" y1="135.938" x2="69.083" y2="134.375"/>
<line fill="none" stroke="#000000" stroke-width="0.5" x1="79.896" y1="135.938" x2="79.896" y2="133.094"/>
<g>
	<text transform="matrix(0 -1 1 0 6.6958 84.2051)" font-family="'MyriadPro-Regular'" font-size="8">contagens</text>
</g>
<g>
	<text transform="matrix(1 0 0 1 137.2676 164.6777)" font-family="'MyriadPro-Regular'" font-size="8">canal</text>
</g>
<text transform="matrix(1 0 0 1 71.6831 149.0088)" font-family="'MyriadPro-Regular'" font-size="8">200</text>
<text transform="matrix(1 0 0 1 115.0166 149.0088)" font-family="'MyriadPro-Regular'" font-size="8">400</text>
<text transform="matrix(1 0 0 1 160.7666 149.0088)" font-family="'MyriadPro-Regular'" font-size="8">600</text>
<text transform="matrix(1 0 0 1 205.7666 149.0088)" font-family="'MyriadPro-Regular'" font-size="8">800</text>
<text transform="matrix(1 0 0 1 246.9326 149.0088)" font-family="'MyriadPro-Regular'" font-size="8">1000</text>
<line fill="none" stroke="#000000" stroke-width="0.8699" x1="34.684" y1="136.345" x2="264.278" y2="136.345"/>
<text transform="matrix(1 0 0 1 28.8638 147.667)" font-family="'MyriadPro-Regular'" font-size="8">0</text>
<text transform="matrix(1 0 0 1 16.8638 74.7168)" font-family="'MyriadPro-Regular'" font-size="8">400</text>
<text transform="matrix(1 0 0 1 16.8638 107.5977)" font-family="'MyriadPro-Regular'" font-size="8">200</text>
<text transform="matrix(1 0 0 1 16.8638 42.0146)" font-family="'MyriadPro-Regular'" font-size="8">600</text>
<text transform="matrix(1 0 0 1 16.8638 9.1484)" font-family="'MyriadPro-Regular'" font-size="8">800</text>
<line fill="none" stroke="#000000" stroke-width="1.0524" x1="35.112" y1="137.001" x2="35.112" y2="0"/>
<line fill="none" stroke="#000000" stroke-width="0.5" x1="34.978" y1="128.866" x2="38.81" y2="128.866"/>
<line fill="none" stroke="#000000" stroke-width="0.5" x1="34.978" y1="120.273" x2="38.81" y2="120.273"/>
<line fill="none" stroke="#000000" stroke-width="0.5" x1="34.978" y1="111.94" x2="38.81" y2="111.94"/>
<line fill="none" stroke="#000000" stroke-width="0.6737" x1="34.946" y1="104.449" x2="41.903" y2="104.449"/>
<line fill="none" stroke="#000000" stroke-width="0.5" x1="34.978" y1="96.2" x2="38.81" y2="96.2"/>
<line fill="none" stroke="#000000" stroke-width="0.5" x1="34.978" y1="87.607" x2="38.81" y2="87.607"/>
<line fill="none" stroke="#000000" stroke-width="0.5" x1="34.978" y1="80.033" x2="38.81" y2="80.033"/>
<line fill="none" stroke="#000000" stroke-width="0.6737" x1="34.946" y1="71.568" x2="41.903" y2="71.568"/>
<line fill="none" stroke="#000000" stroke-width="0.5" x1="34.978" y1="63.283" x2="38.81" y2="63.283"/>
<line fill="none" stroke="#000000" stroke-width="0.5" x1="34.978" y1="54.69" x2="38.81" y2="54.69"/>
<line fill="none" stroke="#000000" stroke-width="0.5" x1="34.978" y1="47.116" x2="38.81" y2="47.116"/>
<line fill="none" stroke="#000000" stroke-width="0.6737" x1="34.946" y1="38.866" x2="41.903" y2="38.866"/>
<line fill="none" stroke="#000000" stroke-width="0.5" x1="34.978" y1="30.533" x2="38.81" y2="30.533"/>
<line fill="none" stroke="#000000" stroke-width="0.5" x1="34.978" y1="22.949" x2="38.81" y2="22.949"/>
<line fill="none" stroke="#000000" stroke-width="0.5" x1="34.978" y1="14.5" x2="38.81" y2="14.5"/>
<line fill="none" stroke="#000000" stroke-width="0.6737" x1="34.946" y1="6" x2="41.903" y2="6"/>
</svg>
