<?xml version="1.0" encoding="utf-8"?>
<!-- Generator: Adobe Illustrator 16.0.0, SVG Export Plug-In . SVG Version: 6.00 Build 0)  -->
<!DOCTYPE svg PUBLIC "-//W3C//DTD SVG 1.1//EN" "http://www.w3.org/Graphics/SVG/1.1/DTD/svg11.dtd">
<svg version="1.1" xmlns="http://www.w3.org/2000/svg" xmlns:xlink="http://www.w3.org/1999/xlink" x="0px" y="0px"
	 width="311.81px" height="58.71px" viewBox="0 0 311.81 58.71" enable-background="new 0 0 311.81 58.71" xml:space="preserve">
<g id="molas">
	<path fill="none" stroke="#000000" stroke-width="0.5" stroke-miterlimit="10" d="M38.623,22.072
		c-0.826-0.917-2.279-1.04-2.279-1.04c-6.518-0.269-5.629,10.893-5.629,10.893c-0.449,8.574,2.334,10.101,2.334,10.101
		c3.053,2.154,3.951-6.555,3.951-6.555c0.449-9.338-3.322-12.929-3.322-12.929c-0.957-1.271-2.183-1.526-2.183-1.526
		c-6.517-0.269-6.322,10.909-6.322,10.909c-0.449,8.574,2.334,10.101,2.334,10.101c3.052,2.154,3.951-6.555,3.951-6.555
		c0.448-9.338-3.323-12.929-3.323-12.929c-8.619-5.389-9.337,11.492-9.337,11.492l-7.755,0.259"/>
	<path fill="none" stroke="#000000" stroke-width="0.5" stroke-miterlimit="10" d="M60.022,21.035
		c5.552-0.243,5.598,10.89,5.598,10.89c0.449,8.574-2.334,10.101-2.334,10.101c-3.052,2.154-3.95-6.555-3.95-6.555
		c-0.449-9.338,3.322-12.929,3.322-12.929c6.868-4.31,7.407,11.717,7.407,11.717l20.596-0.225c0,0,0.719-16.881,9.338-11.492
		c0,0,3.771,3.593,3.323,12.929c0,0-0.898,8.709-3.951,6.555c0,0-2.783-1.526-2.334-10.101c0,0-0.195-11.178,6.321-10.909
		c0,0,1.226,0.256,2.182,1.526c0,0,3.772,3.593,3.323,12.929c0,0-0.898,8.709-3.951,6.555c0,0-2.783-1.526-2.334-10.101
		c0,0-0.887-11.161,5.63-10.893c0,0,1.453,0.123,2.278,1.041"/>
	<path fill="none" stroke="#000000" stroke-width="0.5" stroke-miterlimit="10" d="M38.623,22.072c0,0,3.597,4.061,3.148,13.398
		c0,0-0.897,8.709-3.951,6.555c0,0-2.783-1.526-2.334-10.101c0,0-0.63-11.178,5.887-10.908c0,0,1.32,0.157,2.347,1.179"/>
	<path fill="none" stroke="#000000" stroke-width="0.5" stroke-miterlimit="10" d="M43.719,22.195c0,0,3.74,3.938,3.291,13.275
		c0,0-0.897,8.709-3.95,6.555c0,0-2.783-1.526-2.334-10.101c0,0-1.029-11.979,5.397-10.867c0.496,0.087,1.169,0.364,1.736,1.014"/>
	<path fill="none" stroke="#000000" stroke-width="0.5" stroke-miterlimit="10" d="M47.858,22.071c0,0,3.598,4.062,3.149,13.399
		c0,0-0.897,8.709-3.951,6.555c0,0-2.782-1.526-2.334-10.101c0,0-0.434-11.179,6.083-10.91c0,0,1.604,0.051,2.418,1.058"/>
	<path fill="none" stroke="#000000" stroke-width="0.5" stroke-miterlimit="10" d="M53.224,22.072c0,0,3.598,4.061,3.149,13.398
		c0,0-0.898,8.709-3.951,6.555c0,0-2.783-1.526-2.334-10.101c0,0-0.69-11.177,5.827-10.908c0,0,1.176,0.131,1.961,1.052"/>
	<path fill="none" stroke="#000000" stroke-width="0.5" stroke-miterlimit="10" d="M57.876,22.068c0,0,3.598,4.064,3.148,13.402
		c0,0-0.898,8.709-3.95,6.555c0,0-2.784-1.526-2.334-10.101c0,0-0.195-11.178,6.323-10.909"/>
	<path fill="none" stroke="#000000" stroke-width="0.5" stroke-miterlimit="10" d="M131.887,21.035
		c5.551-0.243,5.597,10.89,5.597,10.89c0.449,8.574-2.334,10.101-2.334,10.101c-3.053,2.154-3.95-6.555-3.95-6.555
		c-0.449-9.336,3.322-12.929,3.322-12.929c6.868-4.31,7.595,11.446,7.595,11.446l22.243,0.046c0,0,0.718-16.881,9.337-11.492
		c0,0,3.771,3.591,3.322,12.929c0,0-0.896,8.709-3.949,6.555c0,0-2.784-1.526-2.335-10.101c0,0-0.194-11.178,6.322-10.909
		c0,0,1.225,0.255,2.183,1.526c0,0,3.77,3.591,3.322,12.929c0,0-0.899,8.709-3.952,6.555c0,0-2.782-1.526-2.334-10.101
		c0,0-0.888-11.161,5.63-10.893c0,0,1.454,0.123,2.277,1.04"/>
	<path fill="none" stroke="#000000" stroke-width="0.5" stroke-miterlimit="10" d="M110.485,22.073c0,0,3.598,4.062,3.149,13.397
		c0,0-0.898,8.709-3.951,6.555c0,0-2.783-1.526-2.334-10.101c0,0-0.63-11.178,5.887-10.908c0,0,1.319,0.157,2.347,1.179"/>
	<path fill="none" stroke="#000000" stroke-width="0.5" stroke-miterlimit="10" d="M115.583,22.195c0,0,3.74,3.939,3.292,13.275
		c0,0-0.899,8.709-3.951,6.555c0,0-2.783-1.526-2.334-10.101c0,0-1.029-11.979,5.397-10.866c0.496,0.086,1.168,0.364,1.736,1.014"/>
	<path fill="none" stroke="#000000" stroke-width="0.5" stroke-miterlimit="10" d="M119.722,22.072c0,0,3.598,4.062,3.149,13.398
		c0,0-0.898,8.709-3.951,6.555c0,0-2.782-1.526-2.334-10.101c0,0-0.435-11.179,6.083-10.91c0,0,1.604,0.051,2.418,1.059"/>
	<path fill="none" stroke="#000000" stroke-width="0.5" stroke-miterlimit="10" d="M125.087,22.073c0,0,3.598,4.062,3.148,13.397
		c0,0-0.898,8.709-3.951,6.555c0,0-2.782-1.526-2.334-10.101c0,0-0.69-11.177,5.827-10.908c0,0,1.178,0.131,1.962,1.052"/>
	<path fill="none" stroke="#000000" stroke-width="0.5" stroke-miterlimit="10" d="M129.74,22.068c0,0,3.597,4.066,3.148,13.402
		c0,0-0.898,8.709-3.951,6.555c0,0-2.782-1.526-2.334-10.101c0,0-0.195-11.178,6.322-10.909"/>
	<path fill="none" stroke="#000000" stroke-width="0.5" stroke-miterlimit="10" d="M205.585,21.035
		c5.551-0.243,5.597,10.89,5.597,10.89c0.449,8.574-2.333,10.101-2.333,10.101c-3.053,2.154-3.951-6.555-3.951-6.555
		c-0.449-9.338,3.322-12.929,3.322-12.929c6.867-4.31,7.396,11.197,7.396,11.197l22.503,0.295c0,0,0.719-16.881,9.337-11.492
		c0,0,3.772,3.591,3.323,12.929c0,0-0.898,8.709-3.951,6.555c0,0-2.783-1.526-2.334-10.101c0,0-0.195-11.178,6.321-10.909
		c0,0,1.226,0.255,2.182,1.526c0,0,3.772,3.591,3.322,12.929c0,0-0.898,8.709-3.95,6.555c0,0-2.784-1.526-2.334-10.101
		c0,0-0.888-11.161,5.63-10.893c0,0,1.452,0.123,2.278,1.04"/>
	<path fill="none" stroke="#000000" stroke-width="0.5" stroke-miterlimit="10" d="M184.183,22.072c0,0,3.6,4.061,3.149,13.398
		c0,0-0.898,8.709-3.951,6.555c0,0-2.782-1.526-2.334-10.101c0,0-0.629-11.178,5.888-10.908c0,0,1.319,0.157,2.347,1.179"/>
	<path fill="none" stroke="#000000" stroke-width="0.5" stroke-miterlimit="10" d="M189.281,22.195c0,0,3.74,3.938,3.291,13.275
		c0,0-0.898,8.709-3.951,6.555c0,0-2.782-1.526-2.335-10.101c0,0-1.027-11.979,5.398-10.867c0.495,0.087,1.168,0.364,1.735,1.014"/>
	<path fill="none" stroke="#000000" stroke-width="0.5" stroke-miterlimit="10" d="M193.42,22.071c0,0,3.599,4.062,3.149,13.399
		c0,0-0.898,8.709-3.951,6.555c0,0-2.782-1.526-2.335-10.101c0,0-0.432-11.179,6.084-10.91c0,0,1.604,0.051,2.419,1.058"/>
	<path fill="none" stroke="#000000" stroke-width="0.5" stroke-miterlimit="10" d="M198.786,22.072c0,0,3.598,4.061,3.148,13.398
		c0,0-0.898,8.709-3.951,6.555c0,0-2.783-1.526-2.333-10.101c0,0-0.69-11.177,5.826-10.908c0,0,1.178,0.131,1.962,1.052"/>
	<path fill="none" stroke="#000000" stroke-width="0.5" stroke-miterlimit="10" d="M203.438,22.068c0,0,3.597,4.064,3.148,13.402
		c0,0-0.898,8.709-3.951,6.555c0,0-2.782-1.526-2.333-10.101c0,0-0.196-11.178,6.321-10.909"/>
	<path fill="none" stroke="#000000" stroke-width="0.5" stroke-miterlimit="10" d="M279.344,21.035
		c5.552-0.243,5.598,10.89,5.598,10.89c0.449,8.574-2.335,10.101-2.335,10.101c-3.053,2.154-3.951-6.555-3.951-6.555
		c-0.448-9.338,3.322-12.929,3.322-12.929c6.868-4.31,7.772,11.447,7.772,11.447h22.06"/>
	<path fill="none" stroke="#000000" stroke-width="0.5" stroke-miterlimit="10" d="M257.942,22.072c0,0,3.598,4.061,3.148,13.398
		c0,0-0.897,8.709-3.95,6.555c0,0-2.783-1.526-2.335-10.101c0,0-0.63-11.178,5.887-10.908c0,0,1.32,0.157,2.347,1.179"/>
	<path fill="none" stroke="#000000" stroke-width="0.5" stroke-miterlimit="10" d="M263.039,22.195c0,0,3.741,3.938,3.292,13.275
		c0,0-0.898,8.709-3.951,6.555c0,0-2.782-1.526-2.334-10.101c0,0-1.028-11.979,5.398-10.867c0.494,0.087,1.169,0.364,1.735,1.014"/>
	<path fill="none" stroke="#000000" stroke-width="0.5" stroke-miterlimit="10" d="M267.18,22.071c0,0,3.598,4.062,3.147,13.399
		c0,0-0.897,8.709-3.949,6.555c0,0-2.783-1.526-2.335-10.101c0,0-0.436-11.179,6.084-10.91c0,0,1.604,0.051,2.418,1.058"/>
	<path fill="none" stroke="#000000" stroke-width="0.5" stroke-miterlimit="10" d="M272.545,22.072c0,0,3.597,4.061,3.148,13.398
		c0,0-0.898,8.709-3.951,6.555c0,0-2.783-1.526-2.334-10.101c0,0-0.691-11.177,5.827-10.908c0,0,1.178,0.131,1.962,1.052"/>
	<path fill="none" stroke="#000000" stroke-width="0.5" stroke-miterlimit="10" d="M277.197,22.068c0,0,3.597,4.064,3.148,13.402
		c0,0-0.898,8.709-3.95,6.555c0,0-2.783-1.526-2.335-10.101c0,0-0.195-11.178,6.322-10.909"/>
</g>
<g id="bolas">
	<circle stroke="#000000" stroke-width="0.5" stroke-miterlimit="10" cx="8.113" cy="33.989" r="4.916"/>
	<circle stroke="#000000" stroke-width="0.5" stroke-miterlimit="10" cx="80.896" cy="33.99" r="4.916"/>
	<circle stroke="#000000" stroke-width="0.5" stroke-miterlimit="10" cx="153.291" cy="33.989" r="4.916"/>
	<circle stroke="#000000" stroke-width="0.5" stroke-miterlimit="10" cx="227.445" cy="33.989" r="4.916"/>
	<circle stroke="#000000" stroke-width="0.5" stroke-miterlimit="10" cx="301.813" cy="33.988" r="4.916"/>
</g>
<g id="setas">
	<g>
		<g>
			
				<line fill="none" stroke="#000000" stroke-width="0.75" stroke-miterlimit="10" x1="2.411" y1="16.078" x2="13.456" y2="16.078"/>
			<g>
				<polygon points="-0.237,16.078 3.494,17.603 2.609,16.078 3.494,14.554 				"/>
			</g>
			<g>
				<polygon points="16.104,16.078 12.373,17.603 13.258,16.078 12.373,14.554 				"/>
			</g>
		</g>
	</g>
	<g>
		<g>
			
				<line fill="none" stroke="#000000" stroke-width="0.75" stroke-miterlimit="10" x1="74.752" y1="16.078" x2="85.798" y2="16.078"/>
			<g>
				<polygon points="72.104,16.078 75.835,17.603 74.95,16.078 75.835,14.554 				"/>
			</g>
			<g>
				<polygon points="88.446,16.078 84.715,17.603 85.6,16.078 84.715,14.554 				"/>
			</g>
		</g>
	</g>
	<g>
		<g>
			
				<line fill="none" stroke="#000000" stroke-width="0.75" stroke-miterlimit="10" x1="147.746" y1="16.078" x2="158.791" y2="16.078"/>
			<g>
				<polygon points="145.099,16.078 148.83,17.603 147.944,16.078 148.83,14.554 				"/>
			</g>
			<g>
				<polygon points="161.438,16.078 157.707,17.603 158.593,16.078 157.707,14.554 				"/>
			</g>
		</g>
	</g>
	<g>
		<g>
			
				<line fill="none" stroke="#000000" stroke-width="0.75" stroke-miterlimit="10" x1="222.843" y1="16.078" x2="233.891" y2="16.078"/>
			<g>
				<polygon points="220.195,16.078 223.926,17.603 223.041,16.078 223.926,14.554 				"/>
			</g>
			<g>
				<polygon points="236.538,16.078 232.807,17.603 233.692,16.078 232.807,14.554 				"/>
			</g>
		</g>
	</g>
	<g>
		<g>
			
				<line fill="none" stroke="#000000" stroke-width="0.75" stroke-miterlimit="10" x1="297.116" y1="16.078" x2="308.162" y2="16.078"/>
			<g>
				<polygon points="294.469,16.078 298.199,17.603 297.314,16.078 298.199,14.554 				"/>
			</g>
			<g>
				<polygon points="310.81,16.078 307.078,17.603 307.964,16.078 307.078,14.554 				"/>
			</g>
		</g>
	</g>
</g>
<g id="texto">
	<text transform="matrix(1 0 0 1 42.6221 10.5098)" font-family="'MyriadPro-Regular'" font-size="8">K</text>
	<text transform="matrix(1 0 0 1 115.126 10.5098)" font-family="'MyriadPro-Regular'" font-size="8">K</text>
	<text transform="matrix(1 0 0 1 188.1318 10.5098)" font-family="'MyriadPro-Regular'" font-size="8">K</text>
	<text transform="matrix(1 0 0 1 262.04 10.5098)" font-family="'MyriadPro-Regular'" font-size="8">K</text>
	<text transform="matrix(1 0 0 1 4.1963 55.916)" font-family="'MyriadPro-Regular'" font-size="8">m</text>
	<text transform="matrix(1 0 0 1 76.9805 55.916)" font-family="'MyriadPro-Regular'" font-size="8">m</text>
	<text transform="matrix(1 0 0 1 149.3418 55.916)" font-family="'MyriadPro-Regular'" font-size="8">m</text>
	<text transform="matrix(1 0 0 1 223.5303 55.916)" font-family="'MyriadPro-Regular'" font-size="8">m</text>
	<text transform="matrix(1 0 0 1 298.4873 55.916)" font-family="'MyriadPro-Regular'" font-size="8">m</text>
	<rect x="-0.237" fill="none" width="312.046" height="58.71"/>
</g>
</svg>
