<?xml version="1.0" encoding="utf-8"?>
<!-- Generator: Adobe Illustrator 16.0.0, SVG Export Plug-In . SVG Version: 6.00 Build 0)  -->
<!DOCTYPE svg PUBLIC "-//W3C//DTD SVG 1.1//EN" "http://www.w3.org/Graphics/SVG/1.1/DTD/svg11.dtd">
<svg version="1.1" xmlns="http://www.w3.org/2000/svg" xmlns:xlink="http://www.w3.org/1999/xlink" x="0px" y="0px"
	 width="217.667px" height="215.167px" viewBox="0 0 217.667 215.167" enable-background="new 0 0 217.667 215.167"
	 xml:space="preserve">
<g id="setas">
	<g>
		<g>
			<line fill="none" stroke="#000000" stroke-miterlimit="10" x1="210.344" y1="195.532" x2="0" y2="195.532"/>
			<g>
				<polygon points="215.992,195.532 208.033,192.28 209.922,195.532 208.033,198.784 				"/>
			</g>
		</g>
	</g>
	<g>
		<g>
			<line fill="none" stroke="#000000" stroke-miterlimit="10" x1="82.5" y1="11.648" x2="82.5" y2="195.532"/>
			<g>
				<polygon points="82.5,6 79.248,13.959 82.5,12.07 85.751,13.959 				"/>
			</g>
		</g>
	</g>
	
		<line fill="none" stroke="#000000" stroke-width="0.5" stroke-miterlimit="10" x1="157.01" y1="124.275" x2="115.141" y2="124.275"/>
	<line fill="none" stroke="#000000" stroke-width="0.5" stroke-miterlimit="10" x1="157.01" y1="152.16" x2="115.141" y2="152.16"/>
	<line fill="none" x1="48.91" y1="198.656" x2="48.91" y2="192.954"/>
	<line fill="none" x1="115.141" y1="198.656" x2="115.141" y2="192.954"/>
	<line fill="none" x1="146.284" y1="198.656" x2="146.284" y2="192.954"/>
	
		<line fill="none" stroke="#000000" stroke-width="0.25" stroke-miterlimit="10" stroke-dasharray="4" x1="44.742" y1="122.775" x2="52.857" y2="150.407"/>
	
		<line fill="none" stroke="#000000" stroke-width="0.25" stroke-miterlimit="10" stroke-dasharray="4" x1="46.716" y1="150.407" x2="55.269" y2="124.275"/>
	
		<line fill="none" stroke="#000000" stroke-width="0.25" stroke-miterlimit="10" stroke-dasharray="4" x1="108.18" y1="124.275" x2="115.968" y2="149.311"/>
	
		<line fill="none" stroke="#000000" stroke-width="0.25" stroke-miterlimit="10" stroke-dasharray="4" x1="111.473" y1="149.311" x2="120.464" y2="122.775"/>
</g>
<g id="arcos">
	<path fill="none" stroke="#000000" stroke-width="0.75" stroke-miterlimit="10" d="M26.43,29.239c0,0,12.5,94.743,22.699,94.743
		c0,0,10.088,10.416,24.562-92.659"/>
	<path fill="none" stroke="#000000" stroke-width="0.75" stroke-miterlimit="10" d="M91.262,29.239c0,0,12.501,94.743,22.699,94.743
		c0,0,10.089,10.416,24.563-92.659"/>
	<path fill="none" stroke="#000000" stroke-width="0.75" stroke-miterlimit="10" d="M0,176.725c0,0,4.609,18.808,19.303,18.808
		c0,0,16.448-0.384,26.536-38.106c0,0,0.549-5.264,4.222-5.264c0,0,3.235-0.22,4.55,5.044c0,0,11.915,38.326,27.889,38.326"/>
	<path fill="none" stroke="#000000" stroke-width="0.75" stroke-miterlimit="10" d="M163.584,176.725
		c0,0-4.609,18.808-19.302,18.808c0,0-16.448-0.384-26.536-38.106c0,0-0.549-5.264-4.222-5.264c0,0-3.235-0.22-4.551,5.044
		c0,0-11.915,38.326-27.889,38.326"/>
</g>
<g id="texto">
	<text transform="matrix(1 0 0 1 88.6997 15.0254)" font-family="'MyriadPro-Light'" font-size="18">E</text>
	<text transform="matrix(1 0 0 1 168.4121 143.9785)" font-family="'MyriadPro-Light'" font-size="18">2 U</text>
	<text transform="matrix(1 0 0 1 77.9761 213.5)" font-family="'MyriadPro-Light'" font-size="18">0</text>
	<text transform="matrix(1 0 0 1 101.5894 213.5)" font-family="'MyriadPro-Light'" font-size="18">π/a</text>
	<text transform="matrix(1 0 0 1 134.0249 213.502)" font-family="'MyriadPro-Light'" font-size="18">2π/a</text>
	<text transform="matrix(1 0 0 1 207.6621 213.502)" font-family="'MyriadPro-Light'" font-size="18">K</text>
	<line fill="none" stroke="#000000" stroke-miterlimit="10" x1="18.403" y1="193.912" x2="18.403" y2="198.656"/>
	<line fill="none" stroke="#000000" stroke-miterlimit="10" x1="50.061" y1="193.912" x2="50.061" y2="198.656"/>
	<line fill="none" stroke="#000000" stroke-miterlimit="10" x1="113.478" y1="193.912" x2="113.478" y2="198.656"/>
	<line fill="none" stroke="#000000" stroke-miterlimit="10" x1="144.745" y1="193.912" x2="144.745" y2="198.656"/>
	<rect fill="none" width="217.667" height="215.167"/>
	<g>
		<g>
			<line fill="none" stroke="#000000" stroke-width="0.75" stroke-miterlimit="10" x1="162" y1="125.133" x2="162" y2="151.304"/>
			<g>
				<polygon points="160.729,126.627 162,125.354 163.271,126.627 163.271,125.547 162,124.275 160.729,125.547 				"/>
			</g>
			<g>
				<polygon points="160.729,149.811 162,151.082 163.271,149.811 163.271,150.89 162,152.161 160.729,150.89 				"/>
			</g>
		</g>
	</g>
</g>
</svg>
