<?xml version="1.0" encoding="utf-8"?>
<!-- Generator: Adobe Illustrator 16.0.0, SVG Export Plug-In . SVG Version: 6.00 Build 0)  -->
<!DOCTYPE svg PUBLIC "-//W3C//DTD SVG 1.1//EN" "http://www.w3.org/Graphics/SVG/1.1/DTD/svg11.dtd">
<svg version="1.1" xmlns="http://www.w3.org/2000/svg" xmlns:xlink="http://www.w3.org/1999/xlink" x="0px" y="0px"
	 width="311.81px" height="212.717px" viewBox="0 0 311.81 212.717" enable-background="new 0 0 311.81 212.717"
	 xml:space="preserve">
<g id="retas">
	<g>
		<g>
			<line fill="none" stroke="#000000" stroke-miterlimit="10" x1="303.207" y1="182.314" x2="7.49" y2="182.314"/>
			<g>
				<polygon points="308.855,182.314 300.896,179.062 302.785,182.314 300.896,185.566 				"/>
			</g>
		</g>
	</g>
	<g>
		<g>
			<line fill="none" stroke="#000000" stroke-miterlimit="10" x1="153.834" y1="5.648" x2="153.834" y2="182.314"/>
			<g>
				<polygon points="153.834,0 150.582,7.959 153.834,6.071 157.086,7.959 				"/>
			</g>
		</g>
	</g>
	<line fill="none" stroke="#000000" stroke-miterlimit="10" x1="37.428" y1="198.112" x2="50.545" y2="198.112"/>
	<line fill="none" stroke="#000000" stroke-miterlimit="10" x1="73.107" y1="198.112" x2="84.65" y2="198.112"/>
	<line fill="none" stroke="#000000" stroke-miterlimit="10" x1="112.196" y1="198.112" x2="124.526" y2="198.112"/>
	<line fill="none" stroke="#000000" stroke-miterlimit="10" x1="182.768" y1="198.112" x2="195.36" y2="198.112"/>
	<line fill="none" stroke="#000000" stroke-miterlimit="10" x1="218.446" y1="198.112" x2="230.514" y2="198.112"/>
	<line fill="none" stroke="#000000" stroke-miterlimit="10" x1="256.486" y1="198.112" x2="268.292" y2="198.112"/>
	
		<line fill="none" stroke="#000000" stroke-width="0.75" stroke-miterlimit="10" x1="45.691" y1="176.14" x2="45.691" y2="181.775"/>
	
		<line fill="none" stroke="#000000" stroke-width="0.75" stroke-miterlimit="10" x1="78.878" y1="176.402" x2="78.878" y2="182.037"/>
	
		<line fill="none" stroke="#000000" stroke-width="0.75" stroke-miterlimit="10" x1="116.656" y1="176.402" x2="116.656" y2="182.037"/>
	
		<line fill="none" stroke="#000000" stroke-width="0.75" stroke-miterlimit="10" x1="191.23" y1="176.678" x2="191.23" y2="182.314"/>
	
		<line fill="none" stroke="#000000" stroke-width="0.75" stroke-miterlimit="10" x1="227.104" y1="176.678" x2="227.104" y2="182.314"/>
	
		<line fill="none" stroke="#000000" stroke-width="0.75" stroke-miterlimit="10" x1="260.815" y1="176.008" x2="260.815" y2="181.644"/>
</g>
<g id="arcos">
	<path fill="none" stroke="#000000" stroke-width="2" stroke-miterlimit="10" d="M50.545,44.114c0,0,46.023,138.2,103.29,138.2"/>
	<path fill="none" stroke="#000000" stroke-width="2" stroke-miterlimit="10" d="M256.336,44.114c0,0-46.022,138.2-103.289,138.2"/>
	<g>
		<path fill="none" stroke="#000000" stroke-width="0.75" stroke-miterlimit="10" d="M12.655,44.114c0,0,46.023,138.2,103.29,138.2"
			/>
		<path fill="none" stroke="#000000" stroke-width="0.75" stroke-miterlimit="10" d="M218.446,44.114
			c0,0-46.023,138.2-103.289,138.2"/>
	</g>
	<g>
		<path fill="none" stroke="#000000" stroke-width="0.75" stroke-miterlimit="10" d="M87.941,44.114c0,0,46.023,138.2,103.29,138.2"
			/>
		<path fill="none" stroke="#000000" stroke-width="0.75" stroke-miterlimit="10" d="M293.732,44.114
			c0,0-46.023,138.2-103.289,138.2"/>
	</g>
	<path fill="none" stroke="#000000" stroke-width="0.75" stroke-miterlimit="10" d="M126.175,44.114c0,0,46.022,138.2,103.289,138.2
		c0,0,37.517-0.205,74.77-71.564"/>
	<path fill="none" stroke="#000000" stroke-width="0.75" stroke-miterlimit="10" d="M141.841,42.54
		c0,0-43.668,139.774-100.934,139.774c0,0-21.32-3.879-35.224-21.719"/>
	<path fill="none" stroke="#000000" stroke-width="0.75" stroke-miterlimit="10" d="M163.56,44.114c0,0,46.023,138.2,103.29,138.2
		c0,0,20.069-1.255,37.384-25.391"/>
	<path fill="none" stroke="#000000" stroke-width="0.75" stroke-miterlimit="10" d="M180.721,44.114c0,0-46.023,138.2-103.288,138.2
		c0,0-37.119-4.723-71.749-69.1"/>
</g>
<g id="texto">
	<text transform="matrix(1 0 0 1 39.6587 196.0142)" font-family="'MyriadPro-Regular'" font-size="10">6π</text>
	<text transform="matrix(1 0 0 1 73.1074 196.0142)" font-family="'MyriadPro-Regular'" font-size="10">4π</text>
	<text transform="matrix(1 0 0 1 114.4277 196.0142)" font-family="'MyriadPro-Regular'" font-size="10">2π</text>
	<text transform="matrix(1 0 0 1 184.2119 196.0142)" font-family="'MyriadPro-Regular'" font-size="10">2π</text>
	<text transform="matrix(1 0 0 1 218.4482 196.0142)" font-family="'MyriadPro-Regular'" font-size="10">4π</text>
	<text transform="matrix(1 0 0 1 257.2744 196.0142)" font-family="'MyriadPro-Regular'" font-size="10">6π</text>
	<text transform="matrix(1 0 0 1 41.3633 209.5229)" font-family="'MyriadPro-Regular'" font-size="10">0</text>
	<text transform="matrix(1 0 0 1 75.7305 209.5229)" font-family="'MyriadPro-Regular'" font-size="10">0</text>
	<text transform="matrix(1 0 0 1 115.9453 209.5229)" font-family="'MyriadPro-Regular'" font-size="10">0</text>
	<text transform="matrix(1 0 0 1 186.834 209.5229)" font-family="'MyriadPro-Regular'" font-size="10">0</text>
	<text transform="matrix(1 0 0 1 222.5137 209.5229)" font-family="'MyriadPro-Regular'" font-size="10">0</text>
	<text transform="matrix(1 0 0 1 260.8164 209.5229)" font-family="'MyriadPro-Regular'" font-size="10">0</text>
	<text transform="matrix(1 0 0 1 297.0195 196.4888)" font-family="'MyriadPro-Semibold'" font-size="10">k</text>
	<text transform="matrix(1 0 0 1 301.873 200.5542)" font-family="'MyriadPro-Semibold'" font-size="10">x</text>
	<text transform="matrix(1 0 0 1 141.8413 9.6978)" font-family="'MyriadPro-Semibold'" font-size="10">E</text>
	<text transform="matrix(1 0 0 1 151.0049 194.5698)" font-family="'MyriadPro-Regular'" font-size="10">0</text>
	<rect fill="none" width="311.81" height="212.717"/>
</g>
</svg>
