<?xml version="1.0" encoding="utf-8"?>
<!-- Generator: Adobe Illustrator 16.0.0, SVG Export Plug-In . SVG Version: 6.00 Build 0)  -->
<!DOCTYPE svg PUBLIC "-//W3C//DTD SVG 1.1//EN" "http://www.w3.org/Graphics/SVG/1.1/DTD/svg11.dtd">
<svg version="1.1" xmlns="http://www.w3.org/2000/svg" xmlns:xlink="http://www.w3.org/1999/xlink" x="0px" y="0px"
	 width="311.81px" height="286.837px" viewBox="0 0 311.81 286.837" enable-background="new 0 0 311.81 286.837"
	 xml:space="preserve">
<g id="retas">
	<g>
		<g>
			<g>
				
					<line fill="none" stroke="#D1D3D4" stroke-width="0.5" stroke-miterlimit="10" x1="52.512" y1="23.472" x2="54.512" y2="23.472"/>
				
					<line fill="none" stroke="#D1D3D4" stroke-width="0.5" stroke-miterlimit="10" stroke-dasharray="4.0524,4.0524" x1="58.564" y1="23.472" x2="307.783" y2="23.472"/>
				
					<line fill="none" stroke="#D1D3D4" stroke-width="0.5" stroke-miterlimit="10" x1="309.81" y1="23.472" x2="311.81" y2="23.472"/>
			</g>
		</g>
		<g>
			<g>
				
					<line fill="none" stroke="#D1D3D4" stroke-width="0.5" stroke-miterlimit="10" x1="52.512" y1="69.894" x2="54.512" y2="69.894"/>
				
					<line fill="none" stroke="#D1D3D4" stroke-width="0.5" stroke-miterlimit="10" stroke-dasharray="4.0524,4.0524" x1="58.564" y1="69.894" x2="307.783" y2="69.894"/>
				
					<line fill="none" stroke="#D1D3D4" stroke-width="0.5" stroke-miterlimit="10" x1="309.81" y1="69.894" x2="311.81" y2="69.894"/>
			</g>
		</g>
		<g>
			<g>
				
					<line fill="none" stroke="#D1D3D4" stroke-width="0.5" stroke-miterlimit="10" x1="52.512" y1="115.795" x2="54.512" y2="115.795"/>
				
					<line fill="none" stroke="#D1D3D4" stroke-width="0.5" stroke-miterlimit="10" stroke-dasharray="4.0524,4.0524" x1="58.564" y1="115.795" x2="307.783" y2="115.795"/>
				
					<line fill="none" stroke="#D1D3D4" stroke-width="0.5" stroke-miterlimit="10" x1="309.81" y1="115.795" x2="311.81" y2="115.795"/>
			</g>
		</g>
		<g>
			<g>
				
					<line fill="none" stroke="#D1D3D4" stroke-width="0.5" stroke-miterlimit="10" x1="52.512" y1="163.26" x2="54.512" y2="163.26"/>
				
					<line fill="none" stroke="#D1D3D4" stroke-width="0.5" stroke-miterlimit="10" stroke-dasharray="4.0524,4.0524" x1="58.564" y1="163.26" x2="307.783" y2="163.26"/>
				
					<line fill="none" stroke="#D1D3D4" stroke-width="0.5" stroke-miterlimit="10" x1="309.81" y1="163.26" x2="311.81" y2="163.26"/>
			</g>
		</g>
		<g>
			<g>
				
					<line fill="none" stroke="#D1D3D4" stroke-width="0.5" stroke-miterlimit="10" x1="52.512" y1="209.161" x2="54.512" y2="209.161"/>
				
					<line fill="none" stroke="#D1D3D4" stroke-width="0.5" stroke-miterlimit="10" stroke-dasharray="4.0524,4.0524" x1="58.564" y1="209.161" x2="307.783" y2="209.161"/>
				
					<line fill="none" stroke="#D1D3D4" stroke-width="0.5" stroke-miterlimit="10" x1="309.81" y1="209.161" x2="311.81" y2="209.161"/>
			</g>
		</g>
		<g>
			<g>
				
					<line fill="none" stroke="#D1D3D4" stroke-width="0.5" stroke-miterlimit="10" x1="87.458" y1="256.627" x2="87.458" y2="254.627"/>
				
					<line fill="none" stroke="#D1D3D4" stroke-width="0.5" stroke-miterlimit="10" stroke-dasharray="4.0099,4.0099" x1="87.458" y1="250.617" x2="87.458" y2="4.005"/>
				<line fill="none" stroke="#D1D3D4" stroke-width="0.5" stroke-miterlimit="10" x1="87.458" y1="2" x2="87.458" y2="0"/>
			</g>
		</g>
		<g>
			<g>
				
					<line fill="none" stroke="#D1D3D4" stroke-width="0.5" stroke-miterlimit="10" x1="122.406" y1="256.627" x2="122.406" y2="254.627"/>
				
					<line fill="none" stroke="#D1D3D4" stroke-width="0.5" stroke-miterlimit="10" stroke-dasharray="4.0099,4.0099" x1="122.406" y1="250.617" x2="122.406" y2="4.005"/>
				<line fill="none" stroke="#D1D3D4" stroke-width="0.5" stroke-miterlimit="10" x1="122.406" y1="2" x2="122.406" y2="0"/>
			</g>
		</g>
		<g>
			<g>
				
					<line fill="none" stroke="#D1D3D4" stroke-width="0.5" stroke-miterlimit="10" x1="156.832" y1="256.627" x2="156.832" y2="254.627"/>
				
					<line fill="none" stroke="#D1D3D4" stroke-width="0.5" stroke-miterlimit="10" stroke-dasharray="4.0099,4.0099" x1="156.832" y1="250.617" x2="156.832" y2="4.005"/>
				<line fill="none" stroke="#D1D3D4" stroke-width="0.5" stroke-miterlimit="10" x1="156.832" y1="2" x2="156.832" y2="0"/>
			</g>
		</g>
		<g>
			<g>
				
					<line fill="none" stroke="#D1D3D4" stroke-width="0.5" stroke-miterlimit="10" x1="191.257" y1="256.627" x2="191.257" y2="254.627"/>
				
					<line fill="none" stroke="#D1D3D4" stroke-width="0.5" stroke-miterlimit="10" stroke-dasharray="4.0099,4.0099" x1="191.257" y1="250.617" x2="191.257" y2="4.005"/>
				<line fill="none" stroke="#D1D3D4" stroke-width="0.5" stroke-miterlimit="10" x1="191.257" y1="2" x2="191.257" y2="0"/>
			</g>
		</g>
		<g>
			<g>
				
					<line fill="none" stroke="#D1D3D4" stroke-width="0.5" stroke-miterlimit="10" x1="260.63" y1="256.627" x2="260.63" y2="254.627"/>
				
					<line fill="none" stroke="#D1D3D4" stroke-width="0.5" stroke-miterlimit="10" stroke-dasharray="4.0645,4.0645" x1="260.63" y1="250.562" x2="260.63" y2="8.726"/>
				<line fill="none" stroke="#D1D3D4" stroke-width="0.5" stroke-miterlimit="10" x1="260.63" y1="6.694" x2="260.63" y2="4.694"/>
			</g>
		</g>
		<g>
			<g>
				
					<line fill="none" stroke="#D1D3D4" stroke-width="0.5" stroke-miterlimit="10" x1="225.902" y1="256.627" x2="225.902" y2="254.627"/>
				
					<line fill="none" stroke="#D1D3D4" stroke-width="0.5" stroke-miterlimit="10" stroke-dasharray="4.0099,4.0099" x1="225.902" y1="250.617" x2="225.902" y2="4.005"/>
				<line fill="none" stroke="#D1D3D4" stroke-width="0.5" stroke-miterlimit="10" x1="225.902" y1="2" x2="225.902" y2="0"/>
			</g>
		</g>
		<g>
			<g>
				
					<line fill="none" stroke="#D1D3D4" stroke-width="0.5" stroke-miterlimit="10" x1="296.099" y1="256.627" x2="296.099" y2="254.627"/>
				
					<line fill="none" stroke="#D1D3D4" stroke-width="0.5" stroke-miterlimit="10" stroke-dasharray="4.0099,4.0099" x1="296.099" y1="250.617" x2="296.099" y2="4.005"/>
				<line fill="none" stroke="#D1D3D4" stroke-width="0.5" stroke-miterlimit="10" x1="296.099" y1="2" x2="296.099" y2="0"/>
			</g>
		</g>
	</g>
	<polyline fill="none" stroke="#000000" stroke-miterlimit="10" points="52.512,0 52.512,256.627 311.81,256.627 	"/>
</g>
<g id="linhas_grafico">
	<polyline fill="none" stroke="#ED1C24" stroke-width="2" stroke-miterlimit="10" points="52.512,23.472 225.902,23.472 
		225.902,256.627 	"/>
	<path fill="none" stroke="#39B54A" stroke-width="2" stroke-miterlimit="10" d="M129.55,23.472h65.802
		c16.895,0,21.427,23.784,22.251,31.202c0.824,7.417,6.593,61.122,6.593,61.122c1.648,33.514,13.599,126.367,13.599,126.367
		c4.12,16.07,22.835,14.465,22.835,14.465h51.18"/>
	<line fill="none" stroke="#ED1C24" stroke-width="3" stroke-miterlimit="10" x1="96" y1="121.657" x2="118.5" y2="121.657"/>
	<line fill="none" stroke="#39B54A" stroke-width="3" stroke-miterlimit="10" x1="96" y1="139.021" x2="118.5" y2="139.021"/>
	<line fill="none" stroke="#006838" stroke-width="3" stroke-miterlimit="10" x1="96" y1="156.506" x2="118.5" y2="156.506"/>
	<path fill="none" stroke="#006838" stroke-width="2" stroke-miterlimit="10" d="M311.81,254.937c0,0-41.05,0.125-60.829-45.775
		c0,0-27.608-73.724-39.146-113.282c0,0-19.367-56.98-46.151-64.694c0,0-15.658-7.714-55.216-7.714H52.512"/>
</g>
<g id="texto">
	<text transform="matrix(1 0 0 1 130.896 283.3682)" font-family="'MyriadPro-Regular'" font-size="18">Energia</text>
	<text transform="matrix(1 0 0 1 219.3086 273.3604)" font-family="'MyriadPro-Regular'" font-size="18">E</text>
	<text transform="matrix(1 0 0 1 230.9053 280.3076)" font-family="'MyriadPro-Regular'" font-size="14">F</text>
	<text transform="matrix(1 0 0 1 25.7012 265.2373)" font-family="'MyriadPro-Regular'" font-size="18">0,0</text>
	<text transform="matrix(1 0 0 1 25.7012 212.082)" font-family="'MyriadPro-Regular'" font-size="18">0,2</text>
	<text transform="matrix(1 0 0 1 25.7007 165.9307)" font-family="'MyriadPro-Regular'" font-size="18">0,4</text>
	<text transform="matrix(1 0 0 1 25.7012 118.9551)" font-family="'MyriadPro-Regular'" font-size="18">0,6</text>
	<text transform="matrix(1 0 0 1 25.7012 72.3921)" font-family="'MyriadPro-Regular'" font-size="18">0,8</text>
	<text transform="matrix(1 0 0 1 25.7012 25.417)" font-family="'MyriadPro-Regular'" font-size="18">1,0</text>
	<text transform="matrix(1 0 0 1 147.1006 127.6582)" font-family="'MyriadPro-Regular'" font-size="16">0</text>
	<text transform="matrix(1 0 0 1 130.6846 145.0244)" font-family="'MyriadPro-Regular'" font-size="16">300</text>
	<text transform="matrix(1 0 0 1 122.4771 161.8008)" font-family="'MyriadPro-Regular'" font-size="16">1200</text>
	<text transform="matrix(1 0 0 1 157.6191 127.6582)" font-family="'MyriadPro-Regular'" font-size="16">k</text>
	<text transform="matrix(1 0 0 1 157.6191 145.0244)" font-family="'MyriadPro-Regular'" font-size="16">k</text>
	<text transform="matrix(1 0 0 1 157.6191 161.7998)" font-family="'MyriadPro-Regular'" font-size="16">k</text>
	<rect fill="none" width="311.81" height="286.837"/>
	<text transform="matrix(0 -1 1 0 13.5762 151.4268)" font-family="'MyriadPro-Regular'" font-size="18">f (E)</text>
</g>
</svg>
