<?xml version="1.0" encoding="utf-8"?>
<!-- Generator: Adobe Illustrator 16.0.0, SVG Export Plug-In . SVG Version: 6.00 Build 0)  -->
<!DOCTYPE svg PUBLIC "-//W3C//DTD SVG 1.1//EN" "http://www.w3.org/Graphics/SVG/1.1/DTD/svg11.dtd">
<svg version="1.1" xmlns="http://www.w3.org/2000/svg" xmlns:xlink="http://www.w3.org/1999/xlink" x="0px" y="0px"
	 width="235.25px" height="79.947px" viewBox="0 0 235.25 79.947" enable-background="new 0 0 235.25 79.947" xml:space="preserve">
<g id="retas">
	
		<line fill="none" stroke="#000000" stroke-width="0.75" stroke-linejoin="round" stroke-miterlimit="10" stroke-dasharray="2" x1="8.218" y1="34.309" x2="8.218" y2="66.163"/>
	
		<line fill="none" stroke="#000000" stroke-width="0.75" stroke-linejoin="round" stroke-miterlimit="10" stroke-dasharray="2" x1="49.779" y1="34.309" x2="49.779" y2="66.163"/>
	
		<line fill="none" stroke="#000000" stroke-width="0.75" stroke-linejoin="round" stroke-miterlimit="10" stroke-dasharray="2" x1="93.608" y1="34.309" x2="93.608" y2="66.163"/>
	<g>
		<path fill="none" stroke="#000000" stroke-width="0.5" stroke-miterlimit="10" d="M2.56,25.352l16.12,0.211
			c0,0,0.515-12.093,6.688-8.232c0,0,2.702,2.572,2.38,9.261c0,0-0.644,6.239-2.83,4.695c0,0-1.994-1.093-1.672-7.235
			c0,0-0.14-8.007,4.528-7.814c0,0,0.878,0.182,1.563,1.093c0,0,2.702,2.572,2.38,9.261c0,0-0.644,6.239-2.83,4.695
			c0,0-1.995-1.093-1.672-7.235c0,0-0.636-7.995,4.033-7.803c0,0,1.04,0.088,1.632,0.745"/>
		<path fill="none" stroke="#000000" stroke-width="0.5" stroke-miterlimit="10" d="M30.81,16.244
			c3.977-0.174,4.01,7.801,4.01,7.801c0.322,6.142-1.672,7.235-1.672,7.235c-2.187,1.543-2.831-4.695-2.831-4.695
			c-0.321-6.689,2.38-9.261,2.38-9.261c4.92-3.087,5.568,8.2,5.568,8.2h15.802"/>
	</g>
	<g>
		<path fill="none" stroke="#000000" stroke-width="0.5" stroke-miterlimit="10" d="M45.277,25.351l16.12,0.211
			c0,0,0.515-12.093,6.688-8.232c0,0,2.702,2.572,2.38,9.261c0,0-0.644,6.239-2.83,4.695c0,0-1.994-1.093-1.672-7.235
			c0,0-0.14-8.007,4.528-7.814c0,0,0.878,0.182,1.563,1.093c0,0,2.702,2.572,2.38,9.261c0,0-0.644,6.239-2.83,4.695
			c0,0-1.995-1.093-1.672-7.235c0,0-0.636-7.995,4.033-7.803c0,0,1.04,0.088,1.632,0.745"/>
		<path fill="none" stroke="#000000" stroke-width="0.5" stroke-miterlimit="10" d="M73.528,16.243
			c3.977-0.174,4.01,7.801,4.01,7.801c0.322,6.142-1.672,7.235-1.672,7.235c-2.187,1.543-2.831-4.695-2.831-4.695
			c-0.321-6.689,2.38-9.261,2.38-9.261c4.92-3.087,5.568,8.2,5.568,8.2h15.802"/>
	</g>
	<g>
		<path fill="none" stroke="#000000" stroke-width="0.5" stroke-miterlimit="10" d="M88.858,25.352l16.12,0.211
			c0,0,0.515-12.093,6.688-8.232c0,0,2.702,2.572,2.38,9.261c0,0-0.644,6.239-2.83,4.695c0,0-1.994-1.093-1.672-7.235
			c0,0-0.14-8.007,4.528-7.814c0,0,0.878,0.182,1.563,1.093c0,0,2.702,2.572,2.38,9.261c0,0-0.644,6.239-2.83,4.695
			c0,0-1.995-1.093-1.672-7.235c0,0-0.636-7.995,4.033-7.803c0,0,1.04,0.088,1.632,0.745"/>
		<path fill="none" stroke="#000000" stroke-width="0.5" stroke-miterlimit="10" d="M117.108,16.244
			c3.977-0.174,4.01,7.801,4.01,7.801c0.322,6.142-1.672,7.235-1.672,7.235c-2.187,1.543-2.831-4.695-2.831-4.695
			c-0.321-6.689,2.38-9.261,2.38-9.261c4.92-3.087,5.568,8.2,5.568,8.2h14.354"/>
	</g>
	<g>
		<path fill="none" stroke="#000000" stroke-width="0.5" stroke-miterlimit="10" d="M131.461,25.686l13.785,0.211
			c0,0,0.515-12.093,6.688-8.232c0,0,2.702,2.572,2.38,9.261c0,0-0.644,6.239-2.83,4.695c0,0-1.994-1.093-1.672-7.235
			c0,0-0.14-8.007,4.528-7.814c0,0,0.878,0.182,1.563,1.093c0,0,2.702,2.572,2.379,9.261c0,0-0.643,6.239-2.829,4.695
			c0,0-1.995-1.093-1.672-7.235c0,0-0.636-7.995,4.032-7.803c0,0,1.041,0.088,1.633,0.745"/>
		<path fill="none" stroke="#000000" stroke-width="0.5" stroke-miterlimit="10" d="M157.377,16.578
			c3.977-0.174,4.01,7.801,4.01,7.801c0.322,6.142-1.672,7.235-1.672,7.235c-2.188,1.543-2.831-4.695-2.831-4.695
			c-0.321-6.689,2.38-9.261,2.38-9.261c4.92-3.087,5.568,8.2,5.568,8.2h15.801"/>
	</g>
	<g>
		<path fill="none" stroke="#000000" stroke-width="0.5" stroke-miterlimit="10" d="M174.258,25.686l16.12,0.211
			c0,0,0.515-12.093,6.688-8.232c0,0,2.703,2.572,2.381,9.261c0,0-0.644,6.239-2.83,4.695c0,0-1.994-1.093-1.672-7.235
			c0,0-0.141-8.007,4.527-7.814c0,0,0.879,0.182,1.563,1.093c0,0,2.702,2.572,2.38,9.261c0,0-0.644,6.239-2.83,4.695
			c0,0-1.994-1.093-1.672-7.235c0,0-0.636-7.995,4.033-7.803c0,0,1.04,0.088,1.632,0.745"/>
		<path fill="none" stroke="#000000" stroke-width="0.5" stroke-miterlimit="10" d="M202.509,16.578
			c3.977-0.174,4.01,7.801,4.01,7.801c0.321,6.142-1.673,7.235-1.673,7.235c-2.187,1.543-2.831-4.695-2.831-4.695
			c-0.32-6.689,2.381-9.261,2.381-9.261c4.92-3.087,5.567,8.2,5.567,8.2h13.787"/>
	</g>
	
		<line fill="none" stroke="#000000" stroke-width="0.75" stroke-linejoin="round" stroke-miterlimit="10" stroke-dasharray="2" x1="135.087" y1="34.309" x2="135.087" y2="66.163"/>
	
		<line fill="none" stroke="#000000" stroke-width="0.75" stroke-linejoin="round" stroke-miterlimit="10" stroke-dasharray="2" x1="178.834" y1="34.309" x2="178.834" y2="66.163"/>
	
		<line fill="none" stroke="#000000" stroke-width="0.75" stroke-linejoin="round" stroke-miterlimit="10" stroke-dasharray="2" x1="220.832" y1="34.309" x2="220.832" y2="66.163"/>
</g>
<g id="bolas">
	<radialGradient id="SVGID_1_" cx="8.2183" cy="25.3457" r="7.2185" gradientUnits="userSpaceOnUse">
		<stop  offset="0" style="stop-color:#FFFFFF"/>
		<stop  offset="0.0064" style="stop-color:#FCFDFB"/>
		<stop  offset="0.1394" style="stop-color:#DFECD2"/>
		<stop  offset="0.2759" style="stop-color:#C9DFB2"/>
		<stop  offset="0.4135" style="stop-color:#B6D599"/>
		<stop  offset="0.5528" style="stop-color:#A8CE87"/>
		<stop  offset="0.6944" style="stop-color:#9EC97A"/>
		<stop  offset="0.8397" style="stop-color:#98C772"/>
		<stop  offset="0.9944" style="stop-color:#96C66F"/>
	</radialGradient>
	<circle fill="url(#SVGID_1_)" cx="8.218" cy="25.346" r="7.218"/>
	<radialGradient id="SVGID_2_" cx="93.9639" cy="25.3457" r="7.2185" gradientUnits="userSpaceOnUse">
		<stop  offset="0" style="stop-color:#FFFFFF"/>
		<stop  offset="0.0064" style="stop-color:#FCFDFB"/>
		<stop  offset="0.1394" style="stop-color:#DFECD2"/>
		<stop  offset="0.2759" style="stop-color:#C9DFB2"/>
		<stop  offset="0.4135" style="stop-color:#B6D599"/>
		<stop  offset="0.5528" style="stop-color:#A8CE87"/>
		<stop  offset="0.6944" style="stop-color:#9EC97A"/>
		<stop  offset="0.8397" style="stop-color:#98C772"/>
		<stop  offset="0.9944" style="stop-color:#96C66F"/>
	</radialGradient>
	<circle fill="url(#SVGID_2_)" cx="93.964" cy="25.346" r="7.218"/>
	<radialGradient id="SVGID_3_" cx="178.834" cy="25.3457" r="7.2187" gradientUnits="userSpaceOnUse">
		<stop  offset="0" style="stop-color:#FFFFFF"/>
		<stop  offset="0.0064" style="stop-color:#FCFDFB"/>
		<stop  offset="0.1394" style="stop-color:#DFECD2"/>
		<stop  offset="0.2759" style="stop-color:#C9DFB2"/>
		<stop  offset="0.4135" style="stop-color:#B6D599"/>
		<stop  offset="0.5528" style="stop-color:#A8CE87"/>
		<stop  offset="0.6944" style="stop-color:#9EC97A"/>
		<stop  offset="0.8397" style="stop-color:#98C772"/>
		<stop  offset="0.9944" style="stop-color:#96C66F"/>
	</radialGradient>
	<circle fill="url(#SVGID_3_)" cx="178.834" cy="25.346" r="7.218"/>
	<radialGradient id="SVGID_4_" cx="49.7783" cy="25.3457" r="4.5012" gradientUnits="userSpaceOnUse">
		<stop  offset="0.0056" style="stop-color:#AEB0B7"/>
		<stop  offset="0.272" style="stop-color:#AAABAB"/>
		<stop  offset="0.3539" style="stop-color:#A9A9A6"/>
		<stop  offset="0.5249" style="stop-color:#969B9D"/>
		<stop  offset="0.6742" style="stop-color:#838C92"/>
		<stop  offset="1" style="stop-color:#657076"/>
	</radialGradient>
	<circle fill="url(#SVGID_4_)" cx="49.779" cy="25.346" r="4.501"/>
	<radialGradient id="SVGID_5_" cx="135.0869" cy="25.3457" r="4.501" gradientUnits="userSpaceOnUse">
		<stop  offset="0.0056" style="stop-color:#AEB0B7"/>
		<stop  offset="0.272" style="stop-color:#AAABAB"/>
		<stop  offset="0.3539" style="stop-color:#A9A9A6"/>
		<stop  offset="0.5249" style="stop-color:#969B9D"/>
		<stop  offset="0.6742" style="stop-color:#838C92"/>
		<stop  offset="1" style="stop-color:#657076"/>
	</radialGradient>
	<circle fill="url(#SVGID_5_)" cx="135.087" cy="25.346" r="4.501"/>
	<radialGradient id="SVGID_6_" cx="220.832" cy="25.3457" r="4.501" gradientUnits="userSpaceOnUse">
		<stop  offset="0.0056" style="stop-color:#AEB0B7"/>
		<stop  offset="0.272" style="stop-color:#AAABAB"/>
		<stop  offset="0.3539" style="stop-color:#A9A9A6"/>
		<stop  offset="0.5249" style="stop-color:#969B9D"/>
		<stop  offset="0.6742" style="stop-color:#838C92"/>
		<stop  offset="1" style="stop-color:#657076"/>
	</radialGradient>
	<circle fill="url(#SVGID_6_)" cx="220.832" cy="25.346" r="4.501"/>
</g>
<g id="texto">
	<text transform="matrix(1 0 0 1 28.313 7.7998)" font-family="'MyriadPro-Regular'" font-size="8">K</text>
	<text transform="matrix(1 0 0 1 65.2412 7.7998)" font-family="'MyriadPro-Regular'" font-size="8">K</text>
	<text transform="matrix(1 0 0 1 113.2119 7.7998)" font-family="'MyriadPro-Regular'" font-size="8">K</text>
	<text transform="matrix(1 0 0 1 149.96 7.7998)" font-family="'MyriadPro-Regular'" font-size="8">K</text>
	<text transform="matrix(1 0 0 1 199.6836 7.7998)" font-family="'MyriadPro-Regular'" font-size="8">K</text>
	<text transform="matrix(1 0 0 1 88.8877 13.6191)" font-family="'MyriadPro-Semibold'" font-size="10">m</text>
	<text transform="matrix(1 0 0 1 97.04 17.1265)" font-family="'MyriadPro-Semibold'" font-size="6">2</text>
	<text transform="matrix(1 0 0 1 129.585 14.6191)" font-family="'MyriadPro-Semibold'" font-size="10">m</text>
	<text transform="matrix(1 0 0 1 137.5347 17.127)" font-family="'MyriadPro-Semibold'" font-size="6">1</text>
	<text transform="matrix(1 0 0 1 8.2173 79.4551)" font-family="'MyriadPro-It'" font-size="8">n-1</text>
	<text transform="matrix(1 0 0 1 50.7778 79.4551)" font-family="'MyriadPro-It'" font-size="8">n-1</text>
	<text transform="matrix(1 0 0 1 180.833 79.4551)" font-family="'MyriadPro-It'" font-size="8">n+1</text>
	<text transform="matrix(1 0 0 1 222.4209 79.9473)" font-family="'MyriadPro-It'" font-size="8">n+1</text>
	<text transform="matrix(1 0 0 1 139.3672 79.9473)" font-family="'MyriadPro-It'" font-size="8">n</text>
	<text transform="matrix(1 0 0 1 95.8931 79.9473)" font-family="'MyriadPro-It'" font-size="8">n</text>
	<rect fill="none" width="235.25" height="79.947"/>
	<text transform="matrix(1 0 0 1 1 76.2451)" font-family="'MyriadPro-Regular'" font-size="10">U</text>
	<text transform="matrix(1 0 0 1 43.5 76.2451)" font-family="'MyriadPro-Regular'" font-size="10">U</text>
	<text transform="matrix(1 0 0 1 88.8877 76.2451)" font-family="'MyriadPro-Regular'" font-size="10">U</text>
	<text transform="matrix(1 0 0 1 132.5 76.2451)" font-family="'MyriadPro-Regular'" font-size="10">U</text>
	<text transform="matrix(1 0 0 1 174.2568 76.2451)" font-family="'MyriadPro-Regular'" font-size="10">U</text>
	<text transform="matrix(1 0 0 1 216.3311 76.2451)" font-family="'MyriadPro-Regular'" font-size="10">U</text>
</g>
</svg>
