<?xml version="1.0" encoding="utf-8"?>
<!-- Generator: Adobe Illustrator 16.0.0, SVG Export Plug-In . SVG Version: 6.00 Build 0)  -->
<!DOCTYPE svg PUBLIC "-//W3C//DTD SVG 1.1//EN" "http://www.w3.org/Graphics/SVG/1.1/DTD/svg11.dtd">
<svg version="1.1" xmlns="http://www.w3.org/2000/svg" xmlns:xlink="http://www.w3.org/1999/xlink" x="0px" y="0px" width="144px"
	 height="123.27px" viewBox="0 0 144 123.27" enable-background="new 0 0 144 123.27" xml:space="preserve">
<g id="arcos">
	<path fill="none" stroke="#1C75BC" stroke-miterlimit="10" d="M4.547,31.875c0,0,14.836,0.326,23.64-4.728
		c0,0,20.721-12.716,34.326-12.879"/>
	<path fill="none" stroke="#1C75BC" stroke-miterlimit="10" d="M121.279,31.879c0,0-15.488,0.322-24.292-4.732
		c0,0-20.722-12.716-34.327-12.879"/>
	<path fill="none" stroke="#BE1E2D" stroke-miterlimit="10" d="M4.547,53.069c0,0,25.503-11.085,57.966,53.91"/>
	<path fill="none" stroke="#BE1E2D" stroke-miterlimit="10" d="M121.279,52.853c0,0-26.155-10.869-58.619,54.127"/>
</g>
<g id="retas">
	<g>
		<g>
			
				<line fill="none" stroke="#000000" stroke-width="0.75" stroke-miterlimit="10" x1="1.938" y1="106.979" x2="133.103" y2="106.979"/>
			<g>
				<polygon points="135.75,106.979 132.019,108.504 132.904,106.979 132.019,105.455 				"/>
			</g>
		</g>
	</g>
	
		<line fill="none" stroke="#000000" stroke-width="0.75" stroke-miterlimit="10" stroke-dasharray="4" x1="4.547" y1="5.681" x2="4.547" y2="110.675"/>
	
		<line fill="none" stroke="#000000" stroke-width="0.75" stroke-miterlimit="10" stroke-dasharray="4" x1="121.279" y1="5.681" x2="121.279" y2="110.675"/>
	<g>
		<g>
			
				<line fill="none" stroke="#000000" stroke-width="0.75" stroke-miterlimit="10" x1="62.513" y1="5.938" x2="62.513" y2="123.27"/>
			<g>
				<polygon points="62.513,3.29 60.989,7.021 62.513,6.136 64.037,7.021 				"/>
			</g>
		</g>
	</g>
</g>
<g id="texto">
	<g>
		<text transform="matrix(1 0 0 1 0 120.8926)" font-family="'MyriadPro-Regular'" font-size="7">-π/a</text>
	</g>
	<g>
		<text transform="matrix(1 0 0 1 118.4727 120.8926)" font-family="'MyriadPro-Regular'" font-size="7">π/a</text>
	</g>
	<g>
		<text transform="matrix(1 0 0 1 63.6606 115.4805)" font-family="'MyriadPro-Regular'" font-size="7">0</text>
	</g>
	<text transform="matrix(1 0 0 1 46.3677 8.8613)" font-family="'MyriadPro-Regular'" font-size="7">ω</text>
	<text transform="matrix(1 0 0 1 51.5557 8.8613)" font-family="'MyriadPro-Regular'" font-size="7">(k)</text>
	<g>
		<text transform="matrix(1 0 0 1 90.9697 15.2676)" font-family="'MyriadPro-Regular'" font-size="7">óptico</text>
	</g>
	<g>
		<text transform="matrix(1 0 0 1 90.9697 79.1025)" font-family="'MyriadPro-Regular'" font-size="7">acústico</text>
	</g>
	<rect fill="none" width="144" height="123.27"/>
	<g>
		<text transform="matrix(1 0 0 1 139.3057 109.1113)" font-family="'MyriadPro-Regular'" font-size="7">k</text>
	</g>
</g>
</svg>
