<?xml version="1.0" encoding="utf-8"?>
<!-- Generator: Adobe Illustrator 16.0.0, SVG Export Plug-In . SVG Version: 6.00 Build 0)  -->
<!DOCTYPE svg PUBLIC "-//W3C//DTD SVG 1.1//EN" "http://www.w3.org/Graphics/SVG/1.1/DTD/svg11.dtd">
<svg version="1.1" id="Layer_1" xmlns="http://www.w3.org/2000/svg" xmlns:xlink="http://www.w3.org/1999/xlink" x="0px" y="0px"
	 width="99.307px" height="206.402px" viewBox="0 0 99.307 206.402" enable-background="new 0 0 99.307 206.402"
	 xml:space="preserve">
<g opacity="0.63">
	<path fill="#CCD7CB" d="M0.481,57.449c3.293-3.705,32.796-7.135,45.97-7.135c15.238,0,33.483,2.47,42.128,7.684
		c0,0.823-25.799,8.508-41.854,9.057C21.901,67.902,8.714,59.919,0.481,57.449"/>
	<g>
		<path fill="#6D6E71" d="M0.675,57.489c3.759-3.594,12.381-3.86,17.184-4.593c7.797-1.19,15.683-1.945,23.56-2.322
			c8.692-0.416,17.446,0.173,26.054,1.385c4.889,0.688,9.73,1.745,14.427,3.27c1.565,0.508,3.076,1.154,4.566,1.847
			c1.588,0.738,2.159,0.934,0.472,1.582c-14.095,5.412-30.464,8.437-45.51,8.309c-9.214-0.079-18.322-1.728-27.06-4.598
			C9.73,60.845,5.289,58.77,0.629,57.318c-0.152-0.048-0.567,0.177-0.296,0.262c6.48,2.02,12.626,4.89,19.192,6.692
			c9.575,2.628,19.694,3.408,29.582,2.786c9.304-0.585,18.596-2.737,27.594-5.073c3.119-0.81,6.245-1.669,9.291-2.727
			c0.715-0.249,2.353-0.527,2.812-1.256c0.032-0.051,0.019-0.093-0.032-0.122c-7.759-4.427-17.115-5.794-25.854-6.806
			c-8.225-0.952-16.512-1.087-24.77-0.587c-8.361,0.506-16.723,1.474-24.974,2.916C9.298,54.082,3.311,54.52,0.287,57.41
			C0.083,57.604,0.561,57.598,0.675,57.489L0.675,57.489z"/>
	</g>
</g>
<g>
	<g>
		<path fill="#D79B76" d="M25.567,168.211c0.159-1.697,5.288-12.963,6.099-12.683c0.54,0.183,1.654,2.227,2.094,2.618
			c0.511,0.449,1.197,0.745,1.817,1.048C36.17,159.76,29.48,166.141,25.567,168.211"/>
	</g>
	<g>
		<g>
			<path d="M26.613,165.339c0.154,0,0.523-0.234,0.199-0.234C26.658,165.104,26.289,165.339,26.613,165.339L26.613,165.339z"/>
		</g>
	</g>
	<g>
		<path d="M26.713,165.222c-0.237,0.16-0.257,0.484-0.413,0.765c-0.278,0.811-0.89,1.534-1.105,2.338l0,0l-0.063,0.01
			c0.811-0.688,2.723-1.331,3.102-2.35c-0.414-0.2-0.892-0.396-1.259-0.734"/>
	</g>
	<g>
		
			<linearGradient id="SVGID_1_" gradientUnits="userSpaceOnUse" x1="41.5479" y1="148.7529" x2="103.9934" y2="17.6995" gradientTransform="matrix(0.9966 -0.0824 0.0824 0.9966 -9.9295 0.0766)">
			<stop  offset="0" style="stop-color:#2A5195"/>
			<stop  offset="1" style="stop-color:#2C559D"/>
		</linearGradient>
		<path fill="url(#SVGID_1_)" d="M93.86,0.375c1.088-1.183,5.186,0.64,5.446,2.579c0,0-27.442,91.889-28.225,94.702
			c-1.413,6.771-33.402,59.607-34.832,61.482c-0.274,0.36-1.348,1.499-2.119,1.513c-0.77,0.019,0.42-1.378-0.377-1.367
			c-0.776,0.006-1.583,0.129-1.745-0.022c-0.52-0.499,0.034-1.148-0.665-1.589c-0.741-0.47-1.435,0.836-1.896-0.196
			c0.35-1.721,28.726-51.794,33.331-57.83c1.143-1.496,0.771-0.928,0.822-1.185c0.053-0.258-0.38,0.161-0.154-1.028"/>
	</g>
</g>
<g opacity="0.46">
	<path fill="#A8E0F9" d="M6.519,105.066c6.174-5.352,10.359-5.009,18.181-5.833c3.705-0.41,6.999,1.647,10.704,1.236
		c3.705-0.412,6.587-2.883,10.292-2.883s6.586,2.471,10.704,2.471c3.293,0,6.587-1.647,10.291-2.058
		c3.706-0.413,6.176-0.413,9.881-1.646c3.293-0.823,5.352-2.06,8.646-0.823c0,7.409,2.95,73.896-5.97,94.892
		c-6.709,15.791-22.848,16.399-42.128,14.408c-7.069-0.73-16.604-3.157-19.896-9.743c-3.705-6.998-6.477-41.435-7.959-49.126
		c-2.196-11.391-3.225-42.401-2.813-40.755"/>
</g>
<g opacity="0.81">
	
		<radialGradient id="SVGID_2_" cx="44.5293" cy="131.9941" r="61.3166" gradientTransform="matrix(1 0 0 2 0 -131.9941)" gradientUnits="userSpaceOnUse">
		<stop  offset="0" style="stop-color:#FFFFFF;stop-opacity:0"/>
		<stop  offset="0.1533" style="stop-color:#F6F7F7;stop-opacity:0.1571"/>
		<stop  offset="0.3665" style="stop-color:#E4E9E9;stop-opacity:0.3756"/>
		<stop  offset="0.6149" style="stop-color:#C7D5D6;stop-opacity:0.6302"/>
		<stop  offset="0.8878" style="stop-color:#A2BDBE;stop-opacity:0.9099"/>
		<stop  offset="0.9758" style="stop-color:#95B5B6"/>
	</radialGradient>
	<path fill="url(#SVGID_2_)" d="M0,57.998c3.294,4.116,2.882,12.762,3.705,18.114c0.823,5.763,6.176,115.681,14.82,122.678
		c7.41,5.764,19.349,6.998,28.406,7.41c8.233,0.823,18.113-0.823,25.112-5.764c9.057-6.174,9.468-16.055,11.526-25.936
		c2.059-9.469,3.395-100.212,3.705-104.977c0.618-9.469,0.887-7.077,1.784-11.115c0,0-34.233,9.057-42.883,9.057
		c-16.879,0-39.383-6.313-45.49-9.88"/>
	<g>
		<path fill="#6D6E71" d="M-0.242,58.062c3.85,5.609,3.419,13.946,3.928,20.572c0.355,4.622,0.633,9.25,0.939,13.875
			c1.054,15.909,2.183,31.813,3.593,47.695c1.364,15.357,2.749,30.846,5.709,45.994c0.757,3.872,1.468,8.335,3.584,11.749
			c1.643,2.65,5.752,3.949,8.477,4.986c5.213,1.983,11.008,2.717,16.539,3.104c10.024,0.702,19.539,0.435,28.435-4.764
			c9.73-5.687,10.835-16.831,12.849-26.838c2.244-11.149,1.586-23.406,1.951-34.714c0.547-16.958,0.918-33.921,1.284-50.884
			c0.212-9.791-0.45-20.233,2.079-29.748c0.057-0.242,0.114-0.485,0.171-0.727c0.021-0.089-0.22-0.029-0.255-0.02
			c-11.518,3.042-23.126,5.953-34.853,8.067c-9.138,1.648-18.176,0.572-27.262-1.078c-8.649-1.57-18.25-3.518-26.012-7.828
			c-0.118-0.065-0.5,0.135-0.456,0.159c8.222,4.565,18.452,6.463,27.58,8.12c8.365,1.519,16.74,2.34,25.148,0.943
			c8.355-1.389,16.621-3.429,24.841-5.448c3.001-0.737,5.997-1.496,8.989-2.269c2.771-0.717,1.709,0.035,0.967,2.373
			c-1.25,3.936-0.986,8.514-1.089,12.643c-0.146,5.853-0.262,11.708-0.389,17.561c-0.37,17.098-0.758,34.196-1.327,51.289
			c-0.398,12.001-0.479,24.085-2.662,35.912c-1.088,5.891-2.205,11.645-5.573,16.702c-6.161,9.249-19.568,11.453-29.813,10.62
			c-6.047-0.491-11.918-0.895-17.814-2.431c-3.713-0.967-9.565-2.752-11.626-6.374c-2.11-3.71-2.762-8.496-3.547-12.618
			c-1.335-7.011-2.231-14.107-3.067-21.192c-2.004-16.993-3.351-34.065-4.591-51.129c-0.689-9.489-1.304-18.983-1.939-28.477
			c-0.157-2.349-0.302-4.7-0.513-7.044c-0.55-6.099-0.206-13.688-3.791-18.913C0.166,57.822-0.271,58.021-0.242,58.062
			L-0.242,58.062z"/>
	</g>
</g>
</svg>
