<?xml version="1.0" encoding="utf-8"?>
<!-- Generator: Adobe Illustrator 16.0.0, SVG Export Plug-In . SVG Version: 6.00 Build 0)  -->
<!DOCTYPE svg PUBLIC "-//W3C//DTD SVG 1.1//EN" "http://www.w3.org/Graphics/SVG/1.1/DTD/svg11.dtd">
<svg version="1.1" id="Layer_1" xmlns="http://www.w3.org/2000/svg" xmlns:xlink="http://www.w3.org/1999/xlink" x="0px" y="0px"
	 width="166.714px" height="95.022px" viewBox="0 0 166.714 95.022" enable-background="new 0 0 166.714 95.022"
	 xml:space="preserve">
<g>
	<g>
		<rect x="42.448" y="87.221" fill="#1C1B1C" width="0.821" height="6.214"/>
		<rect x="55.339" y="87.221" fill="#1C1B1C" width="0.821" height="6.214"/>
		<g>
			<path fill="#1C1B1C" d="M40.125,84.266c0.22-0.031,0.348,3.096,0.6,3.477c0.443,0.664,1.896,0.095,2.591,0.095
				c0.664,0,1.295-0.095,1.927-0.126c0.664-0.032,1.296,0.156,1.959,0.094c1.897-0.157,3.824-0.062,5.718-0.094
				c0.854-0.032,1.675,0,2.529,0.031c0.347,0,0.694-0.031,1.01,0c0.222,0,0.506,0.125,0.727,0.095
				c0.316-0.064,0.285-0.158,0.285-0.476c0-0.443-0.032-0.884-0.032-1.325c0-0.697,0-1.423-0.126-2.118
				c0.222,1.392-3.191,0.411-3.728,0.286c-0.98-0.159-1.959,0.125-2.939,0.219c-1.073,0.127-2.148,0.284-3.224,0.349
				c-1.231,0.062-2.434,0.316-3.664,0.221c-1.138-0.064-2.213-0.064-3.319-0.254c0-0.157-0.03-0.347-0.157-0.474
				c-0.032,0.034-0.032,0.095-0.032,0.127"/>
		</g>
		<g>
			<path fill="#282829" d="M39.572,81.059c-0.189,0.381,0.032,1.2,0.032,1.676c0,0.853,0,1.739,0.032,2.589
				c-0.032,0-0.063,0-0.094,0.032c1.454,0.063,2.937-0.062,4.392-0.093c1.799-0.062,3.603-0.097,5.403,0.031
				c1.642,0.093,3.316,0.345,4.991,0.315c0.98,0,1.926-0.158,2.874-0.189c0.602,0,1.203,0.031,1.803,0
				c0.125-0.663,0-1.389,0.094-2.086c0.063-0.599,0.189-1.199,0.158-1.802c-0.82,0.224-1.421,0.127-2.274-0.092
				c-0.886-0.222-1.738-0.222-2.654-0.159c-1.928,0.127-3.855,0.159-5.782,0.223c-1.833,0.061-3.633-0.128-5.466-0.191
				c-0.823-0.031-1.612,0-2.401,0.033c-0.159,0-1.012,0-0.885-0.097"/>
		</g>
		<g>
			<g>
				<path d="M47.061,47.094c0.102,0,0.551-0.197,0.313-0.197C47.273,46.897,46.824,47.094,47.061,47.094L47.061,47.094z"/>
			</g>
		</g>
		<g>
			<g>
				<path d="M46.883,46.683c-0.229,2.304,0.021,4.642,0.021,6.954c0,1.889-0.568,3.796-0.062,5.625
					c0.676,2.445-0.805,6.362,2.007,7.819c0.975,0.505,2.83,0.27,2.972-1.046c0.258-2.405-0.416-4.742-0.46-7.138
					c-0.05-2.707-0.856-1.85-3.039-2.145c-0.111-0.015-0.559,0.175-0.311,0.209c2.046,0.275,2.845,0.91,2.883,2.929
					c0.028,1.504,0.396,3.034,0.514,4.537c0.31,1.469-0.559,2.21-2.605,2.226c-0.704-0.365-0.936-1.447-1.112-2.13
					c-0.316-1.22-0.217-2.585-0.123-3.827c0.129-1.695-0.354-3.336-0.25-5.137c0.173-2.998-0.249-6.022,0.048-9.006
					C47.374,46.476,46.898,46.53,46.883,46.683L46.883,46.683z"/>
			</g>
		</g>
		<g>
			<g>
				<path d="M49.595,59.398c-0.02-1.281-0.11-2.561-0.162-3.84c-0.041-1.004-0.48-2.253,0.56-2.315
					c0.112-0.006,0.245-0.076,0.266-0.195c0.264-1.508,0.007-3.401-0.334-4.882c-0.022-0.097-0.14-0.112-0.22-0.112
					c-1.216,0-2.433,0-3.649,0c-0.276,0-0.371,0.354-0.043,0.354c1.196,0,2.392,0,3.588,0c-0.156,0,0.088,1.924,0.129,2.446
					c0.076,0.962,0.583,2.019-0.498,2.083c-0.114,0.007-0.243,0.076-0.266,0.195c-0.39,1.999,0.108,4.277,0.14,6.303
					C49.11,59.689,49.599,59.615,49.595,59.398L49.595,59.398z"/>
			</g>
		</g>
		<g>
			<g>
				<path d="M45.369,66.659c0,0.035,0,0.069,0,0.104c0.127,0.003,0.255,0.006,0.382,0.009c1.224-2.321,5.462-1.733,7.119-0.159
					c0.109-0.066,0.218-0.133,0.327-0.199c-2.954,0.011-5.403-1.012-8.207,0.35c0.128-0.006,0.256-0.012,0.385-0.018
					c-0.032-0.095-0.063-0.189-0.095-0.284c-0.045-0.135-0.524,0.006-0.483,0.13c0.032,0.095,0.063,0.189,0.095,0.284
					c0.04,0.119,0.32,0.013,0.385-0.018c2.604-1.265,5.026-0.209,7.72-0.219c0.05,0,0.436-0.095,0.327-0.199
					c-1.865-1.772-6.667-2.215-8.049,0.409c-0.069,0.13,0.351,0.024,0.382,0.009c0.143-0.072,0.144-0.106,0.192-0.273
					C45.885,66.454,45.408,66.522,45.369,66.659L45.369,66.659z"/>
			</g>
		</g>
		<g>
			<g>
				<path d="M47.64,65.643c0.217,1.323-0.259,2.569-0.284,3.885c-0.016,0.859-0.317,1.12-1.083,1.458
					c-0.306,0.134-0.941,0.568-1.273,0.533c-0.139-0.014-0.566,0.219-0.3,0.247c0.44,0.046,0.879-0.218,1.267-0.39
					c0.532-0.235,1.148-0.409,1.598-0.79c0.451-0.382,0.28-1.439,0.331-1.915c0.116-1.075,0.406-2.072,0.229-3.158
					C48.098,65.364,47.613,65.477,47.64,65.643L47.64,65.643z"/>
			</g>
		</g>
		<g>
			<g>
				<path d="M50.501,65.576c1.692,1.504-0.539,5.662,2.446,6.006c0.148,0.018,0.568-0.227,0.297-0.258
					c-2.712-0.313-0.678-4.5-2.294-5.936C50.825,65.277,50.374,65.462,50.501,65.576L50.501,65.576z"/>
			</g>
		</g>
		<g>
			
				<radialGradient id="SVGID_1_" cx="48.6655" cy="58.062" r="16.1336" gradientTransform="matrix(0.0114 -0.9999 0.4345 0.005 22.8841 106.4367)" gradientUnits="userSpaceOnUse">
				<stop  offset="0.0061" style="stop-color:#E5F1D4;stop-opacity:0.5636"/>
				<stop  offset="0.1767" style="stop-color:#E8EFCB;stop-opacity:0.6386"/>
				<stop  offset="0.4854" style="stop-color:#EDECB1;stop-opacity:0.7741"/>
				<stop  offset="0.8942" style="stop-color:#F6E889;stop-opacity:0.9536"/>
				<stop  offset="1" style="stop-color:#F8E77D"/>
			</radialGradient>
			<path fill="url(#SVGID_1_)" d="M42.638,62.638l0.884-18.324h10.869l0.094,18.134c1.674,1.013,0.91,4.471-0.222,5.499
				c-0.347,0.315,0.9,2.02,0.539,2.843c-1.867,0.598-11.162,1.783-11.88,0.316c-0.327-0.668,1.051-2.912,0.315-3.117
				C42.638,67.82,40.868,64.407,42.638,62.638z"/>
		</g>
		<g>
			<path fill="#2D313D" d="M43.616,44.376c0.063-1.138,0.316-2.75,1.169-3.602c0.695-0.694,2.148-2.655,2.466-3.35
				c0.821-1.769,2.843-1.455,3.538,0.191c0.476,1.119,1.959,2.398,2.78,3.159c0.75,0.692,0.505,2.59,0.822,3.54
				C52.02,45.225,42.376,44.262,43.616,44.376"/>
		</g>
		<g>
			<path fill="#3D3D3E" d="M39.652,78.398c0-0.858,0.222-2.163,0.252-3.173c0-0.375,0-0.708,0-1.083
				c-0.031-0.523,0-0.709,0.441-0.896c0.697-0.3,1.519-0.188,2.244-0.263c1.675-0.149,3.287-0.561,4.961-0.487
				c0.979,0.039,1.959-0.074,2.938-0.112c0.885-0.035,1.77,0.112,2.654,0.112c0.947,0,1.897,0.039,2.844,0.039
				c0.727,0,1.294-0.113,1.39,0.897c0.095,0.784,0.095,1.566,0.221,2.351c0.064,0.413,0.064,0.787,0.094,1.194
				c0,0.301,0.222,0.9,0.126,1.16c-0.156,0.521-2.116,0.224-2.622,0.224c-0.916,0-1.8,0.073-2.717,0.185
				c-0.884,0.112-1.769,0.412-2.654,0.526c-0.948,0.11-1.896,0.147-2.811,0.299c-1.138,0.186-2.464,0.074-3.603-0.112
				c-1.2-0.227-2.654,0.112-3.728-0.377v0.039l0,0c0,0,0,0.038-0.031,0.038c-0.031-0.186-0.064-0.561,0.031-0.673"/>
		</g>
		<g>
			<path fill="#333334" d="M34.329,82.007c0.979-0.476,0.379-2.4,0.663-3.255c0.221-0.663,0.727-0.915,1.453-1.042
				c0.6-0.097,25.4-0.041,25.704-0.047c0.971-0.023,1.264,0.742,1.327,1.374c0.063,0.631,0.111,2.148,0.396,2.749
				c0.063,0.127-28.752,0.285-29.51,0.285"/>
		</g>
		<g>
			<path fill="#434345" d="M40.085,73.257c0,0-0.442-2.142,0.071-2.372c0.428-0.188,15.767-0.213,16.375-0.048
				c0.782,0.216,0.592,2.063,0.592,2.063S42.17,72.876,40.085,73.257"/>
		</g>
	</g>
	<g>
		<g>
			<path fill="#002C00" d="M40.918,93.596c-1.803,0.216-4.917-1.044-7.242-1.244c-3.91-0.334-7.864-0.291-11.784-0.281
				c-6.617,0.016-13.235,0.196-19.847,0.444c-0.542,0.021,0.036,0.792,0.041-0.721c0.005-1.758,0.01-3.516,0.015-5.274
				c0.018-6.27,0.035-12.54,0.053-18.81c0.044-15.786,0.088-31.571,0.133-47.357C2.3,15.474,2.314,10.595,2.328,5.716
				C2.333,3.65,2.746,4.283,1.371,4.247C3.105,4.292,4.84,4.338,6.574,4.383c13.093,0.342,26.186,0.7,39.28,1.021
				c0.637,0.016,1.509-0.936,0.526-0.96C31.542,4.081,16.704,3.674,1.866,3.287C1.573,3.279,0.874,3.42,0.873,3.836
				c-0.083,29.75-0.167,59.5-0.25,89.25c-0.001,0.359,0.359,0.42,0.652,0.408c7.038-0.282,14.083-0.45,21.126-0.467
				c4.002-0.01,8.036-0.006,12.021,0.403c3.471,0.357,6.189,2.42,9.706,0.768c0.191-0.09,0.624-0.431,0.36-0.68
				c-1.126-1.063-1.831-1.069-3.415-0.88C40.311,92.731,39.924,93.714,40.918,93.596L40.918,93.596z"/>
		</g>
	</g>
	<g>
		<rect x="127.058" y="87.221" fill="#1C1B1C" width="0.824" height="6.214"/>
		<rect x="139.948" y="87.221" fill="#1C1B1C" width="0.821" height="6.214"/>
		<g>
			<path fill="#1C1B1C" d="M124.735,84.266c0.224-0.031,0.348,3.096,0.6,3.477c0.441,0.664,1.896,0.095,2.591,0.095
				c0.665,0,1.294-0.095,1.927-0.126c0.665-0.032,1.294,0.156,1.959,0.094c1.897-0.157,3.822-0.062,5.721-0.094
				c0.852-0.032,1.675,0,2.527,0.031c0.346,0,0.697-0.031,1.011,0c0.221,0,0.505,0.125,0.725,0.095
				c0.318-0.064,0.284-0.158,0.284-0.476c0-0.443-0.028-0.884-0.028-1.325c0-0.697,0-1.423-0.127-2.118
				c0.22,1.392-3.189,0.411-3.729,0.286c-0.98-0.159-1.959,0.125-2.938,0.219c-1.073,0.127-2.15,0.284-3.226,0.349
				c-1.23,0.062-2.433,0.316-3.663,0.221c-1.138-0.064-2.213-0.064-3.32-0.254c0-0.157-0.03-0.347-0.157-0.474
				c-0.03,0.034-0.03,0.095-0.03,0.127"/>
		</g>
		<g>
			<path fill="#282829" d="M124.185,81.059c-0.189,0.381,0.028,1.2,0.028,1.676c0,0.853,0,1.739,0.032,2.589
				c-0.032,0-0.061,0-0.095,0.032c1.454,0.063,2.938-0.062,4.394-0.093c1.8-0.062,3.6-0.097,5.402,0.031
				c1.641,0.093,3.321,0.345,4.994,0.315c0.98,0,1.927-0.158,2.873-0.189c0.602,0,1.202,0.031,1.8,0
				c0.126-0.663,0-1.389,0.094-2.086c0.062-0.599,0.191-1.199,0.162-1.802c-0.824,0.224-1.422,0.127-2.277-0.092
				c-0.884-0.222-1.738-0.222-2.652-0.159c-1.929,0.127-3.858,0.159-5.783,0.223c-1.832,0.061-3.634-0.128-5.467-0.191
				c-0.823-0.031-1.61,0-2.402,0.033c-0.159,0-1.013,0-0.884-0.097"/>
		</g>
		<g>
			<g>
				<path d="M131.673,47.094c0.102,0,0.551-0.197,0.313-0.197C131.885,46.897,131.436,47.094,131.673,47.094L131.673,47.094z"/>
			</g>
		</g>
		<g>
			<g>
				<path d="M131.496,46.683c-0.24,2.301,0.021,4.643,0.021,6.954c0,1.889-0.57,3.795-0.063,5.625
					c0.677,2.445-0.806,6.361,2.006,7.819c0.975,0.506,2.829,0.27,2.97-1.046c0.258-2.404-0.411-4.743-0.458-7.138
					c-0.053-2.707-0.854-1.851-3.04-2.145c-0.111-0.015-0.559,0.175-0.311,0.209c2.045,0.275,2.845,0.91,2.884,2.929
					c0.029,1.504,0.394,3.033,0.511,4.537c0.309,1.468-0.559,2.21-2.604,2.226c-0.703-0.365-0.934-1.447-1.111-2.13
					c-0.316-1.22-0.217-2.584-0.122-3.827c0.129-1.697-0.359-3.334-0.249-5.137c0.183-2.997-0.262-6.024,0.049-9.006
					C131.987,46.477,131.512,46.529,131.496,46.683L131.496,46.683z"/>
			</g>
		</g>
		<g>
			<g>
				<path d="M134.206,59.398c-0.02-1.281-0.11-2.561-0.163-3.84c-0.041-1.007-0.482-2.253,0.561-2.315
					c0.112-0.006,0.246-0.076,0.266-0.195c0.262-1.509,0.009-3.401-0.336-4.882c-0.023-0.097-0.14-0.112-0.22-0.112
					c-1.217,0-2.433,0-3.649,0c-0.276,0-0.371,0.354-0.043,0.354c1.196,0,2.392,0,3.588,0c-0.153,0,0.091,1.924,0.132,2.446
					c0.075,0.965,0.583,2.019-0.5,2.083c-0.113,0.007-0.243,0.076-0.266,0.195c-0.387,2,0.11,4.276,0.142,6.303
					C133.72,59.689,134.209,59.615,134.206,59.398L134.206,59.398z"/>
			</g>
		</g>
		<g>
			<g>
				<path d="M129.978,66.659c0,0.035,0.001,0.069,0.002,0.104c0.127,0.003,0.255,0.006,0.382,0.009
					c1.222-2.323,5.461-1.732,7.117-0.159c0.109-0.066,0.218-0.133,0.327-0.199c-2.953,0.011-5.402-1.013-8.205,0.35
					c0.128-0.006,0.256-0.012,0.385-0.018c-0.032-0.095-0.064-0.189-0.097-0.284c-0.046-0.135-0.525,0.007-0.483,0.13
					c0.032,0.095,0.064,0.189,0.097,0.284c0.041,0.119,0.32,0.013,0.385-0.018c2.604-1.265,5.024-0.209,7.718-0.219
					c0.05,0,0.436-0.095,0.327-0.199c-1.864-1.771-6.667-2.216-8.048,0.409c-0.068,0.13,0.351,0.025,0.382,0.009
					c0.143-0.073,0.143-0.106,0.19-0.273C130.493,66.454,130.017,66.522,129.978,66.659L129.978,66.659z"/>
			</g>
		</g>
		<g>
			<g>
				<path d="M132.25,65.643c0.215,1.323-0.258,2.569-0.284,3.885c-0.016,0.858-0.318,1.12-1.083,1.458
					c-0.306,0.135-0.943,0.567-1.275,0.533c-0.139-0.014-0.566,0.219-0.3,0.247c0.441,0.046,0.879-0.218,1.268-0.39
					c0.533-0.235,1.149-0.409,1.599-0.79c0.451-0.382,0.28-1.439,0.331-1.915c0.115-1.075,0.404-2.072,0.228-3.158
					C132.709,65.364,132.224,65.477,132.25,65.643L132.25,65.643z"/>
			</g>
		</g>
		<g>
			<g>
				<path d="M135.113,65.576c1.691,1.503-0.54,5.662,2.444,6.006c0.148,0.018,0.568-0.227,0.297-0.258
					c-2.71-0.313-0.677-4.5-2.292-5.936C135.436,65.277,134.985,65.462,135.113,65.576L135.113,65.576z"/>
			</g>
		</g>
		<g>
			
				<radialGradient id="SVGID_2_" cx="133.2759" cy="58.062" r="16.1339" gradientTransform="matrix(0.0114 -0.9999 0.4345 0.005 106.5297 191.0416)" gradientUnits="userSpaceOnUse">
				<stop  offset="0.0061" style="stop-color:#E5F1D4;stop-opacity:0.5636"/>
				<stop  offset="0.1767" style="stop-color:#E8EFCB;stop-opacity:0.6386"/>
				<stop  offset="0.4854" style="stop-color:#EDECB1;stop-opacity:0.7741"/>
				<stop  offset="0.8942" style="stop-color:#F6E889;stop-opacity:0.9536"/>
				<stop  offset="1" style="stop-color:#F8E77D"/>
			</radialGradient>
			<path fill="url(#SVGID_2_)" d="M127.247,62.638l0.884-18.324H139l0.097,18.134c1.673,1.013,0.912,4.471-0.222,5.499
				c-0.351,0.315,0.899,2.02,0.536,2.843c-1.865,0.598-11.164,1.783-11.877,0.316c-0.329-0.668,1.051-2.912,0.314-3.117
				C127.247,67.82,125.479,64.407,127.247,62.638z"/>
		</g>
		<g>
			<path fill="#2D313D" d="M128.226,44.376c0.062-1.138,0.318-2.75,1.172-3.602c0.695-0.694,2.146-2.655,2.465-3.35
				c0.821-1.769,2.843-1.455,3.535,0.191c0.476,1.119,1.959,2.398,2.783,3.159c0.751,0.692,0.503,2.59,0.819,3.54
				C136.632,45.225,126.985,44.262,128.226,44.376"/>
		</g>
		<g>
			<path fill="#3D3D3E" d="M124.26,78.398c0-0.858,0.224-2.163,0.253-3.173c0-0.375,0-0.708,0-1.083
				c-0.03-0.523,0-0.709,0.445-0.896c0.692-0.3,1.514-0.188,2.241-0.263c1.675-0.149,3.286-0.561,4.959-0.487
				c0.981,0.039,1.961-0.074,2.94-0.112c0.884-0.035,1.768,0.112,2.656,0.112c0.949,0,1.897,0.039,2.843,0.039
				c0.725,0,1.297-0.113,1.389,0.897c0.092,0.784,0.092,1.566,0.222,2.351c0.06,0.413,0.06,0.787,0.094,1.194
				c0,0.301,0.224,0.9,0.127,1.16c-0.161,0.521-2.116,0.224-2.624,0.224c-0.914,0-1.8,0.073-2.718,0.185
				c-0.884,0.112-1.768,0.412-2.654,0.526c-0.946,0.11-1.895,0.147-2.811,0.299c-1.138,0.186-2.465,0.074-3.602-0.112
				c-1.2-0.227-2.654,0.112-3.729-0.377v0.039l0,0c0,0,0,0.038-0.032,0.038c-0.03-0.186-0.062-0.561,0.032-0.673"/>
		</g>
		<g>
			<path fill="#333334" d="M118.935,82.007c0.981-0.476,0.381-2.4,0.665-3.255c0.224-0.663,0.727-0.915,1.452-1.042
				c0.604-0.097,25.402-0.041,25.708-0.047c0.968-0.023,1.267,0.742,1.325,1.374c0.064,0.631,0.112,2.148,0.398,2.749
				c0.062,0.127-28.755,0.285-29.514,0.285"/>
		</g>
		<g>
			<path fill="#434345" d="M124.697,73.257c0,0-0.443-2.142,0.071-2.372c0.426-0.188,15.766-0.213,16.376-0.048
				c0.78,0.216,0.589,2.063,0.589,2.063S126.783,72.876,124.697,73.257"/>
		</g>
	</g>
	<g>
		<g>
			<path fill="#CE181E" d="M54.514,93.399c1.009-0.104,1.347-0.165,2.34-0.389c0.197-0.044,0.616-0.239,0.616-0.496
				c0-0.059,0-0.119,0-0.178c0-0.193-0.104-0.312-0.296-0.358c-1.213-0.291-3.713-0.107-3.173,1.909
				c0.658,2.456,8.671,0.178,9.926,0.084c7.345-0.547,14.551-0.716,21.916-0.687c8.803,0.035,17.608,0.148,26.409,0.373
				c3.513,0.09,7.026,0.204,10.535,0.395c1.629,0.088,5.477,1.363,5.226-1.128c-0.057-0.561-1.511-0.227-1.449,0.389
				c-0.062,0.372-0.125,0.745-0.187,1.117c-0.069,0.251,0.272,0.385,0.46,0.385c0.358,0,0.715,0,1.073,0
				c0.279,0,0.997-0.129,0.997-0.536c0-2.259-27.963-1.777-30.412-1.81c-7.043-0.093-14.088-0.143-21.132-0.104
				c-1.821,0.01-3.645,0.018-5.465,0.096c-2.601,0.11-5.207,0.405-7.803,0.598c-1.875,0.139-3.749,0.283-5.622,0.433
				c-1.088,0.087-3.653-1.019-3.791-1.004C53.931,92.563,53.517,93.501,54.514,93.399L54.514,93.399z"/>
		</g>
	</g>
	<g>
		<g>
			<path fill="#6D6E71" d="M89.325,2.933c0.514,0,1.032-0.142,1.265,0.326c0.468,0.75,0.282,2.292,0.232,3.134
				c-0.606,0.142-1.215,0.236-1.823,0.236l0,0c0.279-0.61-0.28-3.041,0.141-3.278"/>
		</g>
		<g>
			<path fill="#F7941E" d="M89.389,0.204c-0.065-0.074-1.935,0.749-2.715-0.182c0,0-40.385-0.129-40.704,0.244
				c-0.348,0.406-0.251,7.298-0.063,9.544c2.128,0.267,40.922-0.066,40.922-0.066c0.719-1.024,2.526-0.116,2.622-0.183
				C89.889,9.25,89.763,0.389,89.389,0.204"/>
		</g>
		<rect x="45.907" y="0.079" fill="#383839" width="31.978" height="9.73"/>
	</g>
	<g>
		<g>
			<path fill="#6D6E71" d="M134.389,3.128c0.514,0,1.028-0.14,1.262,0.328c0.469,0.748,0.282,2.292,0.234,3.134
				c-0.608,0.14-1.215,0.235-1.828,0.235l0,0c0.284-0.609-0.279-3.041,0.144-3.276"/>
		</g>
		<g>
			<path fill="#F7941E" d="M134.449,0.399c-0.064-0.074-1.933,0.75-2.712-0.182c0,0-40.386-0.128-40.705,0.246
				c-0.348,0.404-0.251,7.297-0.063,9.542c2.129,0.268,40.925-0.067,40.925-0.067c0.718-1.023,2.522-0.115,2.619-0.181
				C134.95,9.445,134.823,0.586,134.449,0.399"/>
		</g>
		<rect x="90.969" y="0.276" fill="#383839" width="31.977" height="9.729"/>
	</g>
	<g>
		<g>
			<path fill="#002C00" d="M141.718,92.387c-0.002-0.059-0.005-0.118-0.007-0.176c-0.003-0.087-0.21-0.096-0.252-0.095
				c-0.941,0.034-1.786,0.185-2.566,0.735c-0.025,0.018-0.223,0.137-0.171,0.208c0.7,0.976,2.058,0.953,3.1,0.581
				c2.628-0.938,5.18-0.857,7.991-0.946c4.999-0.158,10-0.259,15-0.346c0.248-0.004,1.194-0.11,1.196-0.483
				c0.106-28.972,0.251-57.945,0.319-86.918c0-0.087-0.214-0.094-0.253-0.094c-9.774-0.025-19.549-0.051-29.324-0.076
				c-0.295-0.001-1.648,0.576-0.943,0.577c9.76,0.025,19.52,0.051,29.279,0.076c-0.439-0.001-0.283,20.694-0.29,22.31
				c-0.078,21.504-0.158,43.009-0.237,64.514c0.398-0.161,0.798-0.322,1.196-0.483c-4.672,0.081-9.344,0.184-14.015,0.316
				c-0.489,0.014-11.479,0.518-11.472,0.688C140.278,93.012,141.733,92.781,141.718,92.387L141.718,92.387z"/>
		</g>
	</g>
</g>
</svg>
