<?xml version="1.0" encoding="utf-8"?>
<!-- Generator: Adobe Illustrator 16.0.0, SVG Export Plug-In . SVG Version: 6.00 Build 0)  -->
<!DOCTYPE svg PUBLIC "-//W3C//DTD SVG 1.1//EN" "http://www.w3.org/Graphics/SVG/1.1/DTD/svg11.dtd">
<svg version="1.1" id="Layer_1" xmlns="http://www.w3.org/2000/svg" xmlns:xlink="http://www.w3.org/1999/xlink" x="0px" y="0px"
	 width="135.304px" height="133.083px" viewBox="0 0 135.304 133.083" enable-background="new 0 0 135.304 133.083"
	 xml:space="preserve">
<g>
	<g>
		<rect x="67.567" y="126.09" fill="#1C1B1C" width="0.711" height="5.385"/>
		<rect x="78.74" y="126.09" fill="#1C1B1C" width="0.712" height="5.385"/>
		<g>
			<path fill="#1C1B1C" d="M65.555,123.528c0.19-0.026,0.301,2.685,0.52,3.013c0.384,0.575,1.645,0.083,2.245,0.083
				c0.576,0,1.124-0.083,1.671-0.109c0.574-0.028,1.123,0.136,1.697,0.081c1.644-0.137,3.314-0.055,4.957-0.081
				c0.74-0.028,1.451,0,2.191,0.026c0.301,0,0.603-0.026,0.876,0c0.192,0,0.438,0.109,0.63,0.083
				c0.273-0.058,0.246-0.138,0.246-0.411c0-0.385-0.027-0.768-0.027-1.149c0-0.604,0-1.233-0.11-1.836
				c0.192,1.206-2.765,0.356-3.229,0.247c-0.85-0.137-1.699,0.109-2.548,0.19c-0.931,0.11-1.861,0.247-2.794,0.303
				c-1.067,0.054-2.108,0.273-3.176,0.192c-0.984-0.056-1.917-0.056-2.875-0.221c0-0.136-0.027-0.301-0.137-0.411
				c-0.028,0.028-0.028,0.082-0.028,0.11"/>
		</g>
		<g>
			<path fill="#282829" d="M65.075,120.748c-0.164,0.33,0.028,1.041,0.028,1.453c0,0.738,0,1.507,0.027,2.244
				c-0.027,0-0.055,0-0.082,0.028c1.26,0.055,2.546-0.054,3.806-0.081c1.56-0.055,3.122-0.084,4.683,0.027
				c1.423,0.08,2.875,0.299,4.326,0.272c0.85,0,1.67-0.137,2.491-0.164c0.521,0,1.042,0.027,1.562,0
				c0.108-0.575,0-1.204,0.082-1.809c0.055-0.519,0.164-1.038,0.137-1.561c-0.711,0.193-1.231,0.11-1.971-0.081
				c-0.769-0.191-1.507-0.191-2.301-0.137c-1.67,0.109-3.341,0.137-5.011,0.191c-1.589,0.055-3.148-0.109-4.737-0.165
				c-0.713-0.026-1.397,0-2.082,0.028c-0.137,0-0.876,0-0.767-0.084"/>
		</g>
		<g>
			<g>
				<path d="M71.545,91.325c0.101,0,0.55-0.197,0.312-0.197C71.757,91.128,71.308,91.325,71.545,91.325L71.545,91.325z"/>
			</g>
		</g>
		<g>
			<g>
				<path d="M71.379,90.964c-0.198,1.997,0.018,4.023,0.018,6.027c0,1.637-0.49,3.29-0.054,4.875
					c0.584,2.12-0.697,5.517,1.742,6.779c0.857,0.444,2.514,0.233,2.638-0.927c0.224-2.084-0.359-4.11-0.398-6.186
					c-0.044-2.351-0.753-1.607-2.646-1.865c-0.111-0.015-0.56,0.175-0.311,0.209c1.769,0.24,2.455,0.787,2.488,2.534
					c0.024,1.304,0.343,2.629,0.445,3.932c0.268,1.251-0.464,1.887-2.196,1.909c-0.608-0.315-0.809-1.252-0.962-1.843
					c-0.274-1.057-0.188-2.24-0.106-3.316c0.111-1.47-0.306-2.892-0.217-4.451c0.148-2.599-0.214-5.221,0.042-7.807
					C71.869,90.757,71.394,90.811,71.379,90.964L71.379,90.964z"/>
			</g>
		</g>
		<g>
			<g>
				<path d="M73.796,101.972c-0.018-1.109-0.097-2.219-0.142-3.327c-0.039-0.948-0.396-1.932,0.448-1.979
					c0.112-0.007,0.245-0.077,0.267-0.196c0.229-1.308,0.008-2.953-0.29-4.237c-0.022-0.097-0.14-0.113-0.22-0.113
					c-1.055,0-2.108,0-3.162,0c-0.276,0-0.37,0.355-0.043,0.355c1.036,0,2.072,0,3.109,0c-0.206,0,0.046,1.628,0.083,2.104
					c0.066,0.844,0.506,1.722-0.397,1.771c-0.113,0.007-0.243,0.077-0.267,0.196c-0.334,1.733,0.096,3.705,0.123,5.463
					C73.311,102.263,73.799,102.189,73.796,101.972L73.796,101.972z"/>
			</g>
		</g>
		<g>
			<g>
				<path d="M70.065,108.274c0.005,0.025,0.01,0.052,0.015,0.077c0.128,0.003,0.256,0.006,0.383,0.009
					c1.052-1.994,4.688-1.469,6.106-0.121c0.109-0.066,0.218-0.133,0.327-0.199c-2.574,0.011-4.7-0.875-7.146,0.312
					c0.129-0.006,0.257-0.012,0.385-0.018c-0.026-0.082-0.054-0.164-0.081-0.246c-0.044-0.135-0.523,0.005-0.482,0.129
					c0.026,0.082,0.054,0.164,0.081,0.246c0.039,0.119,0.32,0.014,0.385-0.018c2.237-1.086,4.34-0.171,6.658-0.181
					c0.051,0,0.437-0.096,0.327-0.199c-1.633-1.551-5.831-1.919-7.038,0.371c-0.069,0.131,0.352,0.024,0.383,0.009
					c0.129-0.063,0.135-0.101,0.177-0.247C70.581,108.068,70.104,108.138,70.065,108.274L70.065,108.274z"/>
			</g>
		</g>
		<g>
			<g>
				<path d="M72.035,107.396c0.187,1.146-0.225,2.228-0.246,3.367c-0.015,0.736-0.265,0.955-0.92,1.243
					c-0.252,0.111-0.801,0.485-1.071,0.458c-0.14-0.015-0.566,0.22-0.301,0.246c0.396,0.04,0.782-0.188,1.132-0.342
					c0.466-0.206,1.004-0.359,1.397-0.693c0.397-0.337,0.249-1.246,0.294-1.668c0.1-0.933,0.352-1.798,0.197-2.74
					C72.493,107.118,72.008,107.23,72.035,107.396L72.035,107.396z"/>
			</g>
		</g>
		<g>
			<g>
				<path d="M74.518,107.343c1.473,1.308-0.476,4.909,2.13,5.21c0.148,0.018,0.568-0.227,0.297-0.258
					c-2.331-0.27-0.583-3.9-1.978-5.14C74.841,107.044,74.39,107.229,74.518,107.343L74.518,107.343z"/>
			</g>
		</g>
		<g>
			
				<radialGradient id="SVGID_1_" cx="72.9556" cy="100.8184" r="13.9826" gradientTransform="matrix(0.0114 -0.9999 0.4345 0.005 28.3206 173.2697)" gradientUnits="userSpaceOnUse">
				<stop  offset="0.0061" style="stop-color:#E5F1D4;stop-opacity:0.5636"/>
				<stop  offset="0.1767" style="stop-color:#E8EFCB;stop-opacity:0.6386"/>
				<stop  offset="0.4854" style="stop-color:#EDECB1;stop-opacity:0.7741"/>
				<stop  offset="0.8942" style="stop-color:#F6E889;stop-opacity:0.9536"/>
				<stop  offset="1" style="stop-color:#F8E77D"/>
			</radialGradient>
			<path fill="url(#SVGID_1_)" d="M67.732,104.783l0.766-15.881h9.42L78,104.62c1.452,0.876,0.788,3.874-0.192,4.765
				c-0.3,0.273,0.78,1.75,0.467,2.464c-1.618,0.519-9.675,1.546-10.296,0.274c-0.285-0.58,0.91-2.523,0.272-2.701
				C67.732,109.275,66.199,106.316,67.732,104.783z"/>
		</g>
		<g>
			<path fill="#2D313D" d="M68.579,88.957c0.056-0.986,0.274-2.384,1.015-3.122c0.603-0.602,1.86-2.302,2.137-2.903
				c0.711-1.532,2.463-1.26,3.065,0.166c0.412,0.969,1.697,2.078,2.41,2.737c0.649,0.6,0.438,2.245,0.712,3.067
				C75.863,89.692,67.504,88.857,68.579,88.957"/>
		</g>
		<g>
			<path fill="#3D3D3E" d="M65.144,118.443c0-0.744,0.192-1.875,0.219-2.75c0-0.324,0-0.615,0-0.939
				c-0.027-0.453,0-0.613,0.382-0.775c0.604-0.26,1.317-0.163,1.945-0.228c1.452-0.13,2.848-0.486,4.301-0.422
				c0.849,0.032,1.697-0.064,2.546-0.097c0.767-0.029,1.534,0.097,2.3,0.097c0.82,0,1.645,0.032,2.465,0.032
				c0.63,0,1.123-0.097,1.205,0.779c0.082,0.678,0.082,1.357,0.191,2.036c0.056,0.358,0.056,0.683,0.082,1.036
				c0,0.26,0.193,0.779,0.109,1.004c-0.136,0.452-1.834,0.194-2.272,0.194c-0.794,0-1.561,0.064-2.355,0.161
				c-0.766,0.097-1.534,0.356-2.3,0.455c-0.822,0.096-1.644,0.128-2.437,0.26c-0.987,0.16-2.137,0.063-3.123-0.098
				c-1.04-0.196-2.3,0.098-3.231-0.326v0.033l0,0c0,0,0,0.032-0.027,0.032c-0.027-0.161-0.056-0.485,0.027-0.583"/>
		</g>
		<g>
			<path fill="#333334" d="M60.53,121.57c0.849-0.411,0.329-2.08,0.575-2.82c0.192-0.574,0.63-0.794,1.259-0.904
				c0.521-0.082,22.014-0.033,22.277-0.041c0.842-0.02,1.095,0.645,1.15,1.191c0.055,0.548,0.096,1.862,0.342,2.383
				c0.055,0.109-24.918,0.246-25.576,0.246"/>
		</g>
		<g>
			<path fill="#434345" d="M65.52,113.986c0,0-0.384-1.856,0.061-2.056c0.371-0.163,13.665-0.185,14.192-0.042
				c0.677,0.188,0.514,1.789,0.514,1.789S67.327,113.657,65.52,113.986"/>
		</g>
	</g>
	<g>
		<rect x="66.796" y="63.644" fill="#1C1B1C" width="0.711" height="5.386"/>
		<rect x="77.969" y="63.644" fill="#1C1B1C" width="0.712" height="5.386"/>
		<g>
			<path fill="#1C1B1C" d="M64.784,61.083c0.189-0.027,0.3,2.684,0.52,3.012c0.384,0.576,1.644,0.083,2.245,0.083
				c0.576,0,1.124-0.083,1.671-0.109c0.574-0.028,1.123,0.135,1.698,0.082c1.644-0.137,3.314-0.056,4.956-0.082
				c0.74-0.028,1.451,0,2.191,0.026c0.301,0,0.603-0.026,0.876,0c0.192,0,0.438,0.109,0.63,0.083
				c0.273-0.057,0.246-0.137,0.246-0.412c0-0.384-0.027-0.767-0.027-1.149c0-0.604,0-1.234-0.109-1.836
				c0.191,1.207-2.766,0.356-3.23,0.248c-0.85-0.137-1.698,0.109-2.548,0.19c-0.931,0.11-1.86,0.247-2.794,0.303
				c-1.066,0.053-2.108,0.273-3.175,0.192c-0.985-0.056-1.917-0.056-2.875-0.22c0-0.136-0.027-0.301-0.136-0.411
				c-0.028,0.029-0.028,0.082-0.028,0.11"/>
		</g>
		<g>
			<path fill="#282829" d="M64.304,58.303c-0.165,0.33,0.027,1.041,0.027,1.453c0,0.739,0,1.507,0.027,2.244
				c-0.027,0-0.055,0-0.082,0.028c1.26,0.055,2.546-0.054,3.807-0.081c1.559-0.055,3.122-0.084,4.682,0.027
				c1.423,0.081,2.875,0.299,4.326,0.272c0.851,0,1.67-0.137,2.491-0.164c0.521,0,1.042,0.027,1.562,0
				c0.109-0.575,0-1.205,0.082-1.809c0.055-0.519,0.164-1.039,0.137-1.561c-0.711,0.193-1.231,0.11-1.971-0.081
				c-0.768-0.191-1.507-0.191-2.301-0.137c-1.67,0.11-3.34,0.137-5.011,0.192c-1.589,0.054-3.148-0.11-4.737-0.165
				c-0.713-0.027-1.397,0-2.082,0.029c-0.137,0-0.876,0-0.767-0.084"/>
		</g>
		<g>
			<g>
				<path d="M70.773,28.879c0.101,0,0.55-0.197,0.312-0.197C70.985,28.682,70.536,28.879,70.773,28.879L70.773,28.879z"/>
			</g>
		</g>
		<g>
			<g>
				<path d="M70.608,28.519c-0.199,1.997,0.017,4.023,0.017,6.026c0,1.637-0.491,3.291-0.054,4.875
					c0.585,2.121-0.697,5.516,1.742,6.779c0.857,0.445,2.513,0.233,2.638-0.927c0.225-2.084-0.359-4.11-0.398-6.186
					c-0.044-2.351-0.753-1.607-2.646-1.865c-0.111-0.015-0.56,0.175-0.311,0.209c1.768,0.241,2.454,0.787,2.487,2.534
					c0.024,1.304,0.343,2.629,0.445,3.932c0.268,1.25-0.464,1.887-2.196,1.909c-0.608-0.315-0.809-1.252-0.962-1.843
					c-0.274-1.057-0.188-2.24-0.106-3.316c0.111-1.469-0.305-2.892-0.217-4.451c0.147-2.598-0.215-5.221,0.043-7.807
					C71.099,28.312,70.623,28.365,70.608,28.519L70.608,28.519z"/>
			</g>
		</g>
		<g>
			<g>
				<path d="M73.024,39.526c-0.018-1.11-0.097-2.219-0.142-3.328c-0.038-0.947-0.394-1.931,0.448-1.979
					c0.112-0.006,0.245-0.076,0.267-0.195c0.229-1.309,0.008-2.953-0.29-4.238c-0.022-0.097-0.14-0.113-0.22-0.113
					c-1.055,0-2.108,0-3.162,0c-0.276,0-0.37,0.354-0.043,0.354c1.036,0,2.072,0,3.109,0c-0.206,0,0.046,1.629,0.083,2.105
					c0.065,0.842,0.505,1.72-0.396,1.772c-0.113,0.006-0.243,0.076-0.267,0.195c-0.336,1.733,0.096,3.706,0.122,5.462
					C72.539,39.817,73.027,39.744,73.024,39.526L73.024,39.526z"/>
			</g>
		</g>
		<g>
			<g>
				<path d="M69.294,45.828c0.005,0.026,0.01,0.052,0.015,0.078c0.128,0.003,0.256,0.006,0.383,0.009
					c1.052-1.994,4.688-1.469,6.106-0.121c0.109-0.066,0.218-0.133,0.327-0.199c-2.574,0.01-4.7-0.876-7.146,0.311
					c0.129-0.006,0.257-0.012,0.385-0.018c-0.027-0.082-0.055-0.164-0.082-0.246c-0.045-0.135-0.524,0.006-0.482,0.13
					c0.027,0.082,0.055,0.164,0.082,0.246c0.039,0.119,0.32,0.013,0.385-0.018c2.237-1.086,4.34-0.172,6.657-0.181
					c0.051,0,0.437-0.095,0.327-0.199c-1.633-1.551-5.831-1.919-7.038,0.371c-0.069,0.13,0.352,0.024,0.383,0.009
					c0.129-0.064,0.135-0.1,0.177-0.248C69.81,45.622,69.333,45.691,69.294,45.828L69.294,45.828z"/>
			</g>
		</g>
		<g>
			<g>
				<path d="M71.265,44.95c0.187,1.146-0.226,2.228-0.247,3.368c-0.015,0.735-0.265,0.954-0.92,1.243
					c-0.252,0.111-0.801,0.485-1.071,0.457c-0.14-0.014-0.566,0.219-0.301,0.247c0.396,0.041,0.782-0.188,1.132-0.342
					c0.466-0.206,1.004-0.359,1.397-0.693c0.397-0.336,0.249-1.247,0.294-1.668c0.101-0.934,0.352-1.798,0.198-2.741
					C71.723,44.671,71.237,44.785,71.265,44.95L71.265,44.95z"/>
			</g>
		</g>
		<g>
			<g>
				<path d="M73.746,44.896c1.472,1.308-0.476,4.91,2.13,5.211c0.148,0.017,0.568-0.227,0.297-0.259
					c-2.331-0.269-0.583-3.9-1.978-5.14C74.069,44.597,73.618,44.783,73.746,44.896L73.746,44.896z"/>
			</g>
		</g>
		<g>
			
				<radialGradient id="SVGID_2_" cx="72.1846" cy="38.3716" r="13.9826" gradientTransform="matrix(0.0114 -0.9999 0.4345 0.005 54.69 110.3613)" gradientUnits="userSpaceOnUse">
				<stop  offset="0.0061" style="stop-color:#E5F1D4;stop-opacity:0.5636"/>
				<stop  offset="0.1767" style="stop-color:#E8EFCB;stop-opacity:0.6386"/>
				<stop  offset="0.4854" style="stop-color:#EDECB1;stop-opacity:0.7741"/>
				<stop  offset="0.8942" style="stop-color:#F6E889;stop-opacity:0.9536"/>
				<stop  offset="1" style="stop-color:#F8E77D"/>
			</radialGradient>
			<path fill="url(#SVGID_2_)" d="M66.961,42.338l0.766-15.882h9.42l0.082,15.718c1.452,0.876,0.788,3.874-0.191,4.765
				c-0.301,0.273,0.779,1.75,0.466,2.464c-1.618,0.518-9.675,1.545-10.296,0.273c-0.285-0.579,0.91-2.522,0.272-2.701
				C66.961,46.83,65.427,43.871,66.961,42.338z"/>
		</g>
		<g>
			<path fill="#2D313D" d="M67.808,26.51c0.056-0.986,0.274-2.383,1.015-3.121c0.603-0.602,1.861-2.302,2.137-2.903
				c0.711-1.533,2.464-1.261,3.065,0.165c0.413,0.97,1.698,2.079,2.41,2.738c0.649,0.6,0.438,2.245,0.712,3.067
				C75.092,27.246,66.733,26.411,67.808,26.51"/>
		</g>
		<g>
			<path fill="#3D3D3E" d="M64.373,55.997c0-0.743,0.192-1.875,0.219-2.75c0-0.324,0-0.614,0-0.938
				c-0.027-0.453,0-0.614,0.381-0.776c0.604-0.26,1.317-0.163,1.945-0.227c1.452-0.129,2.848-0.486,4.301-0.421
				c0.849,0.033,1.698-0.064,2.547-0.097c0.766-0.029,1.533,0.097,2.3,0.097c0.819,0,1.644,0.033,2.464,0.033
				c0.631,0,1.123-0.097,1.205,0.778c0.082,0.679,0.082,1.357,0.191,2.037c0.057,0.359,0.057,0.682,0.082,1.036
				c0,0.261,0.193,0.78,0.109,1.005c-0.135,0.452-1.834,0.193-2.271,0.193c-0.795,0-1.562,0.064-2.356,0.161
				c-0.766,0.097-1.534,0.357-2.3,0.456c-0.821,0.095-1.644,0.127-2.437,0.259c-0.987,0.16-2.137,0.064-3.123-0.097
				c-1.04-0.196-2.3,0.097-3.231-0.327v0.034l0,0c0,0,0,0.033-0.027,0.033c-0.027-0.161-0.056-0.486,0.027-0.583"/>
		</g>
		<g>
			<path fill="#333334" d="M59.759,59.125c0.849-0.412,0.329-2.081,0.574-2.821c0.192-0.574,0.63-0.794,1.26-0.903
				c0.52-0.083,22.015-0.035,22.276-0.041c0.842-0.021,1.096,0.644,1.15,1.191c0.055,0.547,0.096,1.861,0.342,2.382
				c0.055,0.11-24.918,0.247-25.576,0.247"/>
		</g>
		<g>
			<path fill="#434345" d="M64.749,51.541c0,0-0.383-1.857,0.061-2.056c0.372-0.163,13.665-0.185,14.192-0.042
				c0.678,0.188,0.514,1.788,0.514,1.788S66.556,51.211,64.749,51.541"/>
		</g>
	</g>
	<g>
		<g>
			<path fill="#002C00" d="M78.902,67.668c-0.997-0.217-1.21-0.154-2.134,0.351c-0.249,0.135-0.677,0.604-0.242,0.829
				c2.629,1.36,5.887,0.706,8.792,0.646c6.289-0.129,12.576-0.295,18.863-0.461c9.25-0.244,18.499-0.502,27.748-0.771
				c0.286-0.008,0.79-0.232,0.8-0.578c0.625-21.375,1.25-42.75,1.875-64.125c0.011-0.375-0.36-0.466-0.667-0.462
				c-8.903,0.139-17.809,0.318-26.713,0.333c-0.82,0.001-1.118,1.042-0.134,1.04c7.766-0.014,15.533-0.165,23.298-0.281
				c1.058-0.016,2.116-0.032,3.174-0.048c0.042,0-0.415-0.845-0.44,0.028c-0.052,1.771-0.104,3.541-0.155,5.311
				c-0.434,14.851-0.869,29.702-1.303,44.553c-0.131,4.483-0.262,8.966-0.393,13.449c-0.022,0.769,1.181-0.271,0.537-0.252
				c-0.635,0.019-1.27,0.037-1.905,0.055c-3.042,0.088-6.084,0.174-9.126,0.259c-8.688,0.244-17.377,0.48-26.067,0.696
				c-3.601,0.089-7.202,0.174-10.803,0.245c-1.265,0.025-2.53,0.046-3.795,0.063c-0.527,0.007-3.297-0.189-1.718,0.153
				C79.095,68.855,79.861,67.876,78.902,67.668L78.902,67.668z"/>
		</g>
	</g>
	<g>
		<g>
			<path fill="#002C00" d="M78.07,130.973c1.387,0.372,1.547,0.367,2.587-0.587c0.27-0.247,0.093-0.557-0.181-0.675
				c-1.115-0.482-1.21-0.607-2.223-0.227c-0.188,0.071-0.388,0.262-0.417,0.469c-0.068,0.498-0.06,0.584-0.007,1.083
				c0.015,0.142,0.188,0.24,0.303,0.281c3.299,1.169,7.296,0.954,10.735,1.061c6.043,0.189,12.096,0.134,18.14,0.058
				c8.766-0.11,17.533-0.342,26.293-0.681c0.267-0.01,0.811-0.23,0.802-0.572c-0.258-9.911-0.494-19.821-0.711-29.733
				c-0.255-11.628-1.11-23.489-0.445-35.113c0.042-0.735-1.429-0.51-1.465,0.12c-0.567,9.897,0.127,19.984,0.333,29.885
				c0.23,11.089,0.496,22.177,0.78,33.265c0.047,1.836-0.246,1.166,0.74,1.128c-1.123,0.043-2.246,0.082-3.369,0.121
				c-5.522,0.189-11.046,0.337-16.57,0.452c-11.129,0.229-23.875,1.565-34.481-1.284C78.314,129.862,77.198,130.739,78.07,130.973
				L78.07,130.973z"/>
		</g>
	</g>
	<g>
		<g>
			<path fill="#002C00" d="M31.65,4.66c-4.544-1.738-11.212-0.676-15.957-0.646C10.945,4.045,6.196,4.134,1.45,4.269
				C1.2,4.275,0.639,4.488,0.641,4.813c0.125,20.917,0.25,41.833,0.375,62.75c0.002,0.267,0.213,0.391,0.466,0.406
				c11.606,0.691,23.225,1.233,34.846,1.62c7.536,0.25,15.085,0.45,22.625,0.272c2.137-0.05,7.769,0.551,9.298-1.559
				c0.276-0.381-0.354-0.557-0.606-0.528c-1.349,0.156-1.653,0.066-2.41,1.17c-0.157,0.229,0.054,0.429,0.256,0.501
				c1.058,0.377,1.332,0.481,2.339,0.049c0.92-0.395,0.093-1.044-0.611-0.742c-1.299,0.558,0.435-0.725-1.036-0.379
				c-0.891,0.21-1.833,0.261-2.743,0.336c-3.179,0.262-6.385,0.259-9.571,0.261c-8.013,0.007-16.028-0.276-24.034-0.588
				c-7.129-0.278-14.255-0.623-21.379-1.004c-1.829-0.098-3.658-0.2-5.487-0.305c-1.312-0.076-0.489,0.69-0.497-0.622
				C2.391,53.22,2.312,39.99,2.233,26.76C2.195,20.465,2.158,14.17,2.12,7.875C2.114,6.814,2.107,5.754,2.101,4.693
				c0.004,0.716-1.235,0.533,0.723,0.483C4.43,5.136,6.036,5.102,7.642,5.071C12.17,4.982,16.7,4.935,21.23,4.965
				c2.888,0.02,6.803-0.466,9.562,0.589C31.335,5.763,32.489,4.981,31.65,4.66L31.65,4.66z"/>
		</g>
	</g>
	<g>
		<g>
			<path fill="#002C00" d="M0.892,62.314c-0.767,23.169-0.075,46.448,0.125,69.625c0.002,0.26,0.213,0.394,0.464,0.4
				c12.019,0.295,24.046,0.424,36.068,0.372c7.428-0.032,14.87-0.114,22.284-0.593c1.725-0.111,8.424,0.18,9.344-2.039
				c0.208-0.501-0.459-0.58-0.8-0.484c-0.91,0.255-1.963,0.439-2.729,1.041c-0.117,0.092-0.344,0.288-0.259,0.47
				c0.591,1.268,2.822,0.812,3.636,0.06c0.646-0.597-0.778-0.717-1.188-0.338c-0.519,0.479-1.037-0.303-0.236-0.683
				c-0.702,0.333-1.592,0.408-2.345,0.523c-2.457,0.376-4.958,0.504-7.436,0.642c-7.232,0.4-14.487,0.441-21.728,0.464
				c-11.2,0.036-22.403-0.108-33.601-0.368c-0.548-0.013-0.012,0.671-0.023-0.651c-0.017-1.988-0.032-3.976-0.047-5.964
				c-0.054-7.023-0.099-14.046-0.137-21.07c-0.075-13.835-0.39-27.72,0.068-41.551C2.374,61.482,0.911,61.744,0.892,62.314
				L0.892,62.314z"/>
		</g>
	</g>
	<g>
		<g>
			<path fill="#6D6E71" d="M67.334,2.542c0.446,0,0.895-0.123,1.096,0.282c0.406,0.65,0.244,1.988,0.203,2.717
				c-0.527,0.123-1.054,0.205-1.582,0.205l0,0c0.243-0.528-0.243-2.636,0.122-2.84"/>
		</g>
		<g>
			<path fill="#F7941E" d="M67.389,0.176c-0.056-0.064-1.676,0.649-2.354-0.158c0,0-34.999-0.112-35.276,0.211
				c-0.302,0.352-0.218,6.325-0.055,8.272c1.845,0.231,35.466-0.058,35.466-0.058c0.624-0.888,2.19-0.101,2.272-0.158
				C67.822,8.017,67.714,0.337,67.389,0.176"/>
		</g>
		<rect x="29.705" y="0.068" fill="#383839" width="27.715" height="8.434"/>
	</g>
	<g>
		<g>
			<path fill="#6D6E71" d="M106.391,2.711c0.445,0,0.891-0.122,1.094,0.284c0.406,0.648,0.242,1.987,0.203,2.716
				c-0.527,0.122-1.053,0.205-1.584,0.205l0,0c0.244-0.529-0.242-2.636,0.123-2.84"/>
		</g>
		<g>
			<path fill="#F7941E" d="M106.443,0.346c-0.057-0.064-1.676,0.65-2.352-0.158c0,0-35.001-0.111-35.277,0.213
				c-0.303,0.351-0.22,6.324-0.055,8.271c1.846,0.232,35.469-0.058,35.469-0.058c0.621-0.887,2.186-0.101,2.27-0.157
				C106.875,8.186,106.768,0.508,106.443,0.346"/>
		</g>
		<rect x="68.76" y="0.239" fill="#383839" width="27.715" height="8.433"/>
	</g>
</g>
</svg>
