<?xml version="1.0" encoding="utf-8"?>
<!-- Generator: Adobe Illustrator 16.0.0, SVG Export Plug-In . SVG Version: 6.00 Build 0)  -->
<!DOCTYPE svg PUBLIC "-//W3C//DTD SVG 1.1//EN" "http://www.w3.org/Graphics/SVG/1.1/DTD/svg11.dtd">
<svg version="1.1" id="Layer_1" xmlns="http://www.w3.org/2000/svg" xmlns:xlink="http://www.w3.org/1999/xlink" x="0px" y="0px"
	 width="313px" height="246.333px" viewBox="-75.333 0 313 246.333" enable-background="new -75.333 0 313 246.333"
	 xml:space="preserve">
<path opacity="0.63" fill="#CCD7CB" stroke="#6E979A" stroke-miterlimit="10" enable-background="new    " d="M168.481,47.398
	c0,23.171-26.871,42.625-76.91,43.088C44.315,90.924,7.25,69.929,7.25,49.715c0-20.214,36.049-38.455,77.373-38.455
	C125.948,11.26,168.481,23.769,168.481,47.398z"/>
<radialGradient id="SVGID_1_" cx="-479.4204" cy="-303.2593" r="38.7318" gradientTransform="matrix(0.0622 -0.7161 -0.5001 -0.0178 -32.9194 -269.8862)" gradientUnits="userSpaceOnUse">
	<stop  offset="0" style="stop-color:#D7BA79"/>
	<stop  offset="1" style="stop-color:#C3AA6E"/>
</radialGradient>
<path fill="url(#SVGID_1_)" d="M113.211,82.922c-3.703,10.716-44.254,6.073-46.983-1.9c-3.266-9.547-1.821-11.188-1.821-11.188
	s10.623,6.211,26.017,6.71c12.416,0.403,24.039-4.337,24.039-4.337C112.664,93.099,114.185,80.102,113.211,82.922z"/>
<g opacity="0.67">
	<g opacity="0.46">
		<path fill="#A8E0F9" d="M7.444,53.347c7.809-5.377,49.537-25.699,85.249-23.938c39.158,1.931,71.246,21.658,74.438,22.856
			c-3.707,17.143-14.438,113.667-25.095,152.584c-8.396,30.668-39.247,29.479-74.98,25.791c-13.099-1.354-28.182-5.865-34.284-18.07
			c-6.866-12.969-12.542-74.7-15.29-88.955c-4.07-21.109-10.81-67.642-10.191-70.035"/>
	</g>
	<g opacity="0.81">
		
			<radialGradient id="SVGID_2_" cx="88.0615" cy="197.0308" r="90.7378" gradientTransform="matrix(1 0 0 -2 -0.0552 530.4604)" gradientUnits="userSpaceOnUse">
			<stop  offset="0" style="stop-color:#FFFFFF;stop-opacity:0"/>
			<stop  offset="0.1533" style="stop-color:#F6F7F7;stop-opacity:0.1571"/>
			<stop  offset="0.3665" style="stop-color:#E4E9E9;stop-opacity:0.3756"/>
			<stop  offset="0.6149" style="stop-color:#C7D5D6;stop-opacity:0.6302"/>
			<stop  offset="0.8878" style="stop-color:#A2BDBE;stop-opacity:0.9099"/>
			<stop  offset="0.9758" style="stop-color:#95B5B6"/>
		</radialGradient>
		<path fill="url(#SVGID_2_)" d="M9.258,41.252c-5.096,6.023,2.955,45.061,4.479,54.98c1.526,10.68,14.73,99.813,18.532,116.291
			c2.78,12.046,32.301,22.671,49.085,23.435c15.258,1.526,33.568-1.524,46.54-10.681c16.782-11.442,17.547-29.754,21.361-48.065
			c3.814-17.547,11.702-68.442,12.277-77.272c1.145-17.548,11.352-54.67,4.17-63.474c0,0,24.09,44.659-69.035,53.462
			C65.524,92.872-2.667,77.594,8.794,41.408"/>
		<g>
			<path fill="#77A3A7" d="M8.849,41.093C5.637,45.417,7.095,53.349,7.502,58.26c0.784,9.455,2.414,18.846,4.042,28.186
				c1.913,10.974,3.474,21.994,5.124,33.011c2.705,18.064,5.462,36.122,8.333,54.159c2.091,13.145,3.429,26.936,6.993,39.788
				c2.06,7.429,11.763,11.956,18.073,14.871c9.344,4.317,19.79,7.19,30.06,7.994c21.843,1.708,47.911-3.222,59.938-23.603
				c5.752-9.746,7.016-21.693,9.102-32.596c1.605-8.391,3.285-16.754,4.727-25.178c2.992-17.51,6.029-35.12,7.934-52.789
				c1.251-11.614,3.248-23.051,5.02-34.598c0.985-6.417,1.818-12.889,1.889-19.389c0.043-3.949-0.148-8.579-2.59-11.873
				c-0.278-0.375-1.133-0.033-0.881,0.438c6.953,13.005,0.346,27.813-10.647,35.993c-16.528,12.297-40.481,15.75-60.399,17.065
				c-18.08,1.194-37.189-2.323-54.119-8.545C23.394,75.06,3.064,62.172,9.259,41.475c0.166-0.554-0.797-0.577-0.93-0.135
				C-2.019,75.914,52.102,87.576,75.584,89.989c19.601,2.014,40.085-0.875,58.813-6.784c11.746-3.706,24.172-9.729,30.795-20.619
				c3.707-6.095,4.59-13.448,3.051-20.347c-0.41-1.84-1.008-3.655-1.795-5.368c-0.533-1.158-0.957,0.086-0.506,0.822
				c2.182,3.542,1.875,8.673,1.769,12.635c-0.288,10.618-2.457,21.208-4.209,31.655c-1.262,7.525-2.035,15.042-2.935,22.606
				c-2.188,18.398-5.276,36.734-8.455,54.983c-1.533,8.8-3.391,17.531-5.004,26.316c-2.357,12.86-5.053,25.821-14.752,35.313
				c-19.192,18.778-52.021,17.336-75.487,8.932c-8.345-2.987-21.469-8.188-24.118-17.74c-1.395-5.031-2.034-10.379-2.919-15.514
				c-3.021-17.527-5.719-35.112-8.414-52.692c-2.429-15.847-4.837-31.697-7.125-47.563c-1.25-8.674-3.032-17.268-4.304-25.941
				C9.124,64.78,8.404,58.842,8.136,52.879c-0.153-3.408-0.642-8.543,1.531-11.468C10.038,40.911,9.131,40.713,8.849,41.093
				L8.849,41.093z"/>
		</g>
	</g>
</g>
<radialGradient id="SVGID_3_" cx="-679.4966" cy="102.3115" r="64.7516" gradientTransform="matrix(0.0555 -0.3823 -0.8344 -0.0177 213.4626 -194.5018)" gradientUnits="userSpaceOnUse">
	<stop  offset="0" style="stop-color:#D7BA79"/>
	<stop  offset="1" style="stop-color:#996037"/>
</radialGradient>
<path fill="url(#SVGID_3_)" d="M114.082,72.268c-5.218,6.64-46.91,4.815-49.802-0.247c-3.464-6.06-2.206-19.946-2.206-19.946
	l57.637,0.414C115.89,70.977,114.082,72.268,114.082,72.268z"/>
<radialGradient id="SVGID_4_" cx="97.1475" cy="15.0649" r="30.8161" gradientTransform="matrix(0.9824 0 0 -0.4354 -4.749 58.8538)" gradientUnits="userSpaceOnUse">
	<stop  offset="0" style="stop-color:#EDCC84"/>
	<stop  offset="0.9879" style="stop-color:#D7BA79"/>
</radialGradient>
<ellipse fill="url(#SVGID_4_)" cx="90.892" cy="53.314" rx="28.819" ry="12.809"/>
<g>
	<path fill="#7E8083" stroke="#000000" stroke-width="0.6688" stroke-miterlimit="10" d="M56.59,36.699
		c-0.076-0.031-0.119-0.053-0.119-0.053S56.514,36.668,56.59,36.699z"/>
	<path fill="#7E8083" stroke="#000000" stroke-width="0.6688" stroke-miterlimit="10" d="M119.836,64.386
		c-0.53-1.835-6.444-2.256-8.526-3.104c-13.629-5.525-52.303-23.464-54.72-24.583c2.417,1.119,41.091,19.118,53.517,26.052
		c1.914,1.064,4.393,4.871,6.865,4.43C118.044,66.993,120.067,65.183,119.836,64.386z M115.541,65.361
		c-0.12-0.509,0.731-1.276,1.394-1.433c0.662-0.15,1.198,0.152,1.317,0.659c0.118,0.505-0.966,1.241-1.627,1.394
		C115.967,66.139,115.66,65.87,115.541,65.361z"/>
</g>
<path fill="#EFF9FE" d="M84.518,52.879l4.942,2.701c0,0,2.725-0.774,3.389-1.312c0.295-0.239,0.131-0.865,0.491-0.985
	c0.28-0.092,0.865,0.411,1.158,0.435c0.854,0.067,3.378-0.917,3.378-0.917l-5.404-2.393c0,0-2.105,1.035-2.839,1.022
	c-0.166-0.003-0.45-0.253-0.608-0.203c-0.131,0.043-0.207,0.38-0.317,0.463C87.817,52.358,84.518,52.879,84.518,52.879z"/>
</svg>
