<?xml version="1.0" encoding="utf-8"?>
<!-- Generator: Adobe Illustrator 16.0.0, SVG Export Plug-In . SVG Version: 6.00 Build 0)  -->
<!DOCTYPE svg PUBLIC "-//W3C//DTD SVG 1.1//EN" "http://www.w3.org/Graphics/SVG/1.1/DTD/svg11.dtd">
<svg version="1.1" id="Layer_1" xmlns="http://www.w3.org/2000/svg" xmlns:xlink="http://www.w3.org/1999/xlink" x="0px" y="0px"
	 width="215px" height="193.047px" viewBox="-24.199 0 215 193.047" enable-background="new -24.199 0 215 193.047"
	 xml:space="preserve">
<g>
	
		<linearGradient id="SVGID_1_" gradientUnits="userSpaceOnUse" x1="84.3689" y1="65.6938" x2="89.522" y2="63.8775" gradientTransform="matrix(1 0 0 -1 -0.0552 192.9062)">
		<stop  offset="0" style="stop-color:#F7941E"/>
		<stop  offset="0.0909" style="stop-color:#F48F1E"/>
		<stop  offset="0.9939" style="stop-color:#DC661E"/>
	</linearGradient>
	<path fill="url(#SVGID_1_)" d="M86.447,135.584c-0.34-0.342-2.101-4.831-2.101-5.854c0-2.728,2.783-7.385,3.753-8.805l0,0
		c-0.515,2.047,1.533,4.092,1.704,6.137C89.972,129.62,86.618,133.197,86.447,135.584"/>
	<g>
		<path fill="#DC661E" d="M86.669,135.482c-1.039-1.514-1.676-3.741-2.052-5.521c-0.543-2.574,1.916-6.117,3.198-8.221
			c0.386-0.579,0.372-0.586-0.042-0.023c-0.05,0.477,0.214,1.143,0.352,1.577c0.568,1.793,1.688,3.024,1.286,5.036
			c-0.523,2.625-2.771,4.598-3.208,7.275c-0.037,0.229,0.455,0.158,0.487-0.043c0.399-2.457,2.235-4.295,2.993-6.615
			c0.997-3.059-1.659-5.045-1.342-8.043c0.026-0.25-0.395-0.116-0.473,0.002c-3.143,4.732-5.18,9.631-1.645,14.781
			C86.339,135.854,86.803,135.676,86.669,135.482L86.669,135.482z"/>
	</g>
</g>
<g>
	
		<linearGradient id="SVGID_2_" gradientUnits="userSpaceOnUse" x1="81.76" y1="31.5186" x2="90.4373" y2="31.5186" gradientTransform="matrix(1 0 0 -1 -0.0552 192.9062)">
		<stop  offset="0" style="stop-color:#F2F2F2"/>
		<stop  offset="0.4893" style="stop-color:#F0F0F0"/>
		<stop  offset="0.6656" style="stop-color:#EAEAEA"/>
		<stop  offset="0.7912" style="stop-color:#DEDEDE"/>
		<stop  offset="0.8925" style="stop-color:#CDCDCD"/>
		<stop  offset="0.9785" style="stop-color:#B7B7B7"/>
		<stop  offset="0.9939" style="stop-color:#B3B3B3"/>
	</linearGradient>
	<path fill="url(#SVGID_2_)" d="M85.653,133.988c0.169,1.137,1.135,1.023,1.306,0.23c3.125,2.952,3.015,3.635,3.043,4.659
		c0.682,1.704,0.397,49.647-0.455,49.817c-1.417,0.281-7.842-0.17-7.842-0.17s0.914-48.35,0.796-49.479
		C82.386,137.969,84.289,135.523,85.653,133.988"/>
	<g>
		<path fill="#A7A9AC" d="M85.411,134.053c0.237,0.467,0.562,1.35,1.328,0.809c1.352-0.952,2.984,3.605,3.102,4.529
			c0.59,4.6,0.28,9.449,0.294,14.073c0.036,11.408,0.837,23.464-0.694,34.8c-0.138,1.022-7.483-0.176-7.491,0.213
			c0.022-1.156,0.043-2.312,0.065-3.468c0.106-5.772,0.213-11.545,0.314-17.317c0.118-6.623,0.232-13.248,0.332-19.873
			c0.084-5.603-0.682-9.228,3.191-13.769c0.194-0.229-0.27-0.274-0.399-0.122c-3.031,3.555-3.167,5.381-3.22,9.698
			c-0.07,5.698-0.171,11.396-0.27,17.095c-0.158,9.276-0.327,18.553-0.503,27.827c-0.001,0.091,0.073,0.136,0.157,0.142
			c2.362,0.162,8.094,2.004,8.404-1.334c0.584-6.275,0.459-12.67,0.533-18.965c0.088-7.525,0.114-15.055,0.006-22.58
			c-0.072-4.963,0.336-8.033-3.38-11.694c-0.128-0.128-0.359-0.052-0.451,0.082c-0.278-0.093-0.558-0.183-0.835-0.272
			C85.795,133.729,85.321,133.875,85.411,134.053L85.411,134.053z"/>
	</g>
</g>
<g>
	
		<linearGradient id="SVGID_3_" gradientUnits="userSpaceOnUse" x1="86.3562" y1="109.2334" x2="93.4964" y2="129.9155" gradientTransform="matrix(1 0 0 -1 -0.0552 192.9062)">
		<stop  offset="0.0075" style="stop-color:#F2F2F2"/>
		<stop  offset="0.1929" style="stop-color:#E8E8E8"/>
		<stop  offset="0.5071" style="stop-color:#CECECE"/>
		<stop  offset="0.9095" style="stop-color:#A3A3A3"/>
		<stop  offset="0.9698" style="stop-color:#9C9C9C"/>
	</linearGradient>
	<path fill="url(#SVGID_3_)" d="M52.125,72.297c-5.875,4.625-21.315,17.01-0.25,28.625c23.125,12.75,53.375,9.5,69.375,2
		c9.312-4.365,1-13.75,1-13.75c4.75,10.5-66.5,13-66.5-4.625c0-14.625,41.25-22.625,58.125-12.25l2.959-5.542
		C108.167,61.423,70.716,57.662,52.125,72.297z"/>
	
		<linearGradient id="SVGID_4_" gradientUnits="userSpaceOnUse" x1="103.6248" y1="145.7949" x2="71.5486" y2="113.1905" gradientTransform="matrix(1 0 0 -1 -0.0552 192.9062)">
		<stop  offset="0" style="stop-color:#919191"/>
		<stop  offset="0.6197" style="stop-color:#C9C9C9"/>
		<stop  offset="1" style="stop-color:#EDEDED"/>
	</linearGradient>
	<path fill="url(#SVGID_4_)" d="M112.959,48.996c0,0-0.904,2.856-1.792,1.969C100.5,40.298,67.892,42.2,58.833,56.882
		c-5.802,9.404,7.612,20.189,24.003,21.469c10.916,0.853,32.165,0.197,32.998-12.136c0,0,4.056,1.145,3.166,5.833
		c-1.833,9.667-12.666,13.667-26.375,14.375c-34.544,1.785-61.792-19.542-30.314-39.35C76.938,37.868,110.209,40.13,112.959,48.996z
		"/>
	
		<linearGradient id="SVGID_5_" gradientUnits="userSpaceOnUse" x1="54.4924" y1="577.959" x2="117.0027" y2="577.959" gradientTransform="matrix(0.8692 -0.106 0.1067 0.8755 -51.3351 -452.2092)">
		<stop  offset="0" style="stop-color:#F2F2F2"/>
		<stop  offset="0.1836" style="stop-color:#EDEDED"/>
		<stop  offset="0.3972" style="stop-color:#DFDFDF"/>
		<stop  offset="0.6258" style="stop-color:#C8C8C8"/>
		<stop  offset="0.8633" style="stop-color:#A8A8A8"/>
		<stop  offset="1" style="stop-color:#919191"/>
	</linearGradient>
	<path fill="url(#SVGID_5_)" d="M100.167,28.214c-6.667-6-23.045-9.048-35.667,4.5c-30.316,32.54,49.667,46.167,48.459,16.282
		c0,0-22.959,19.885-44.959,1.552c-6.863-5.72,1.568-16.444,4.5-18.333c13.717-8.835,25.167-1.833,25.167-1.833
		S101.896,29.771,100.167,28.214z"/>
	
		<linearGradient id="SVGID_6_" gradientUnits="userSpaceOnUse" x1="68.0374" y1="126.6758" x2="38.0512" y2="143.4379" gradientTransform="matrix(0.9864 -0.1646 -0.1646 -0.9864 60.0232 166.3126)">
		<stop  offset="0" style="stop-color:#919191"/>
		<stop  offset="0.117" style="stop-color:#A0A0A0"/>
		<stop  offset="0.5135" style="stop-color:#CCCCCC"/>
		<stop  offset="0.821" style="stop-color:#E8E8E8"/>
		<stop  offset="1" style="stop-color:#F2F2F2"/>
	</linearGradient>
	<path fill="url(#SVGID_6_)" d="M90,6.881c0,0-3,0.167-6.333,0.667c-6.446,0.967-13.18,10.335-12.024,17.255
		c1.154,6.923,7.141,15.63,18.607,15.912c20.334,0.5,11.5-18.5,4.083-12.167c0,0,12.917,6-2.917,7.167
		C77.33,36.752,71.667,16.047,90,6.881z"/>
</g>
<linearGradient id="SVGID_7_" gradientUnits="userSpaceOnUse" x1="84.2449" y1="199.2988" x2="84.4839" y2="177.0109" gradientTransform="matrix(1 0 0 -1 -0.0552 192.9062)">
	<stop  offset="0" style="stop-color:#000000"/>
	<stop  offset="1" style="stop-color:#FFFFFF"/>
</linearGradient>
<rect x="0" y="0.48" fill="url(#SVGID_7_)" width="168.602" height="7.048"/>
<g>
	<g>
		<path fill="none" stroke="#000000" d="M41.833,50.214c0,0-10,0.667-8-5c1.983-5.619,14.264-7.122,18.333-7"/>
		<path d="M54.08,37.451c-1.31-0.439-2.158-0.833-3.206-1.29l-0.121,4.034c0.386-0.169,1.943-0.736,3.277-1.096
			c1.428-0.385,2.72-0.639,3.555-0.718C56.756,38.251,55.482,37.92,54.08,37.451z"/>
	</g>
</g>
<g>
	<g>
		<path fill="none" stroke="#000000" d="M128.5,88.881c0,0,16.565,1.336,16.334,10.333c-0.334,13-26.334,13.667-26.334,13.667"/>
		<path d="M116.633,113.749c1.332,0.366,2.201,0.711,3.272,1.11l-0.104-4.034c-0.375,0.19-1.898,0.843-3.212,1.276
			c-1.402,0.463-2.68,0.789-3.509,0.914C113.916,113.1,115.206,113.357,116.633,113.749z"/>
	</g>
</g>
</svg>
