<?xml version="1.0" encoding="utf-8"?>
<!-- Generator: Adobe Illustrator 16.0.0, SVG Export Plug-In . SVG Version: 6.00 Build 0)  -->
<!DOCTYPE svg PUBLIC "-//W3C//DTD SVG 1.1//EN" "http://www.w3.org/Graphics/SVG/1.1/DTD/svg11.dtd">
<svg version="1.1" id="Layer_1" xmlns="http://www.w3.org/2000/svg" xmlns:xlink="http://www.w3.org/1999/xlink" x="0px" y="0px"
	 width="227px" height="206.5px" viewBox="-67.51 0 227 206.5" enable-background="new -67.51 0 227 206.5" xml:space="preserve">
<g opacity="0.39">
	<path fill="#CCD7CB" d="M0.595,57.672c3.475-3.704,34.608-7.137,48.508-7.137c16.079,0,35.331,2.472,44.453,7.686
		c0,0.823-27.223,8.51-44.163,9.056C23.198,68.126,9.284,60.143,0.595,57.672"/>
	<g>
		<path fill="#6D6E71" d="M0.816,57.663c2.12-1.938,6.028-2.403,8.724-2.978c3.345-0.713,6.736-1.219,10.122-1.696
			c7.758-1.094,15.583-1.802,23.408-2.186c9.172-0.451,18.387,0.09,27.487,1.258c5.046,0.647,10.046,1.645,14.932,3.057
			c1.649,0.477,3.255,1.08,4.844,1.723c1.653,0.669,3.324,1.429,1.133,2.195c-14.896,5.209-31.644,8.276-47.398,8.18
			c-9.364-0.057-18.661-1.562-27.622-4.237c-5.295-1.581-10.357-3.848-15.654-5.41c-0.123-0.036-0.557,0.156-0.392,0.205
			c6.792,2.003,13.262,4.868,20.134,6.663c10.518,2.746,21.62,3.536,32.443,2.738c9.404-0.694,18.753-2.714,27.896-4.958
			c3.417-0.839,6.849-1.726,10.188-2.842c0.703-0.235,2.28-0.479,2.735-1.192c0.008-0.019,0.003-0.036-0.013-0.049
			c-7.94-4.302-17.361-5.665-26.216-6.699c-9.598-1.122-19.257-1.221-28.889-0.593c-8.682,0.565-17.367,1.535-25.938,3.031
			C8.997,54.527,3.34,54.97,0.374,57.682C0.252,57.792,0.721,57.75,0.816,57.663L0.816,57.663z"/>
	</g>
</g>
<g opacity="0.81">
	
		<radialGradient id="SVGID_1_" cx="-511.8416" cy="-497.5571" r="55.4428" gradientTransform="matrix(0.0282 -0.9651 -0.4575 -0.0125 -160.84 -429.7654)" gradientUnits="userSpaceOnUse">
		<stop  offset="0" style="stop-color:#FFFFFF;stop-opacity:0"/>
		<stop  offset="0.1698" style="stop-color:#F4F5F5;stop-opacity:0.1719"/>
		<stop  offset="0.3661" style="stop-color:#DFE2E2;stop-opacity:0.3706"/>
		<stop  offset="0.5756" style="stop-color:#C3C9CA;stop-opacity:0.5826"/>
		<stop  offset="0.7927" style="stop-color:#A0AAAD;stop-opacity:0.8025"/>
		<stop  offset="0.9879" style="stop-color:#7D8D90"/>
	</radialGradient>
	<path fill="url(#SVGID_1_)" d="M41.832,59.758c0.266,3.456-8.49,12.55-9.55,15.88c0,0-0.944,20.217-0.944,25.34
		c0,0,4.379,1.35,8.011-0.239c8.717-3.818,8.048-2.164,16.375-0.08c3.178,0.796,15.733-1.78,15.804-2.437
		c0.163-1.539,0.681-21.301,0.681-21.301c-0.16-3.375-7.646-12.583-8.623-16.013c-0.668-2.348-1.061-30.349-0.795-33.933
		c0.267-2.818,2.633-4.614,2.389-6.789c-0.088-0.759-1.727-2.562-1.727-2.562c0.266,0.511,0.397-7.555,0.662-11.396
		c-3.713-2.303-20.159-2.303-20.69,0.512c-0.266,2.051,0.794,9.732,0.53,10.758c-0.53,1.281-1.832,2.385-1.856,3.33
		c-0.024,0.916,1.326,2.305,1.593,3.33C43.955,25.181,42.097,55.662,41.832,59.758"/>
</g>
<g>
	<path fill="#981B1E" d="M42.516,15.355c-0.951,1.352,1.2,4.3,1.2,4.3c3.733,0,17.174,0.194,20.106-0.197c0,0,1.75-2.246,1.6-3.907
		c-0.062-0.697-1.75-2.962-1.75-3.613c0,0,2.052-9.866,0.351-10.501c-3.53-1.316-14.354-2.393-20.257-0.096
		c-1.123,0.438,0.167,10.271,0.301,11.182L42.516,15.355"/>
</g>
<g>
	<path fill="#FFFFFF" d="M44.066,12.523c1.847-1.388,13.984-1.873,19.605-0.388l1.75,3.417c-1.649,0.146-22.056,1.32-22.906-0.196"
		/>
</g>
<g opacity="0.46">
	<path fill="#D9DEF0" d="M7.301,105.85c6.48-5.243,10.875-4.906,19.084-5.714c3.891-0.401,7.345,1.614,11.234,1.211
		c3.89-0.403,6.913-2.824,10.803-2.824c3.889,0,6.914,2.421,11.234,2.421c3.458,0,6.914-1.611,10.804-2.016
		c3.89-0.405,6.483-0.405,10.371-1.613c3.458-0.808,5.617-2.018,9.075-0.808c0,7.26,3.095,72.386-6.267,92.951
		c-7.04,15.467-23.983,16.062-44.222,14.113c-7.42-0.716-17.427-3.093-20.884-9.544c-3.889-6.854-6.798-40.586-8.354-48.118
		c-2.305-11.158-3.387-41.535-2.954-39.922"/>
</g>
<g opacity="0.9">
	
		<radialGradient id="SVGID_2_" cx="38.217" cy="167.6099" r="62.8013" gradientTransform="matrix(1.0303 0 0 -1.9528 7.6157 459.3966)" gradientUnits="userSpaceOnUse">
		<stop  offset="0" style="stop-color:#FFFFFF;stop-opacity:0"/>
		<stop  offset="0.1533" style="stop-color:#F6F7F7;stop-opacity:0.1571"/>
		<stop  offset="0.3665" style="stop-color:#E4E9E9;stop-opacity:0.3756"/>
		<stop  offset="0.6149" style="stop-color:#C7D5D6;stop-opacity:0.6302"/>
		<stop  offset="0.8878" style="stop-color:#A2BDBE;stop-opacity:0.9099"/>
		<stop  offset="0.9758" style="stop-color:#95B5B6"/>
	</radialGradient>
	<path fill="url(#SVGID_2_)" d="M0,58.091c3.477,4.115,3.041,12.763,3.91,18.112c0.868,5.763,6.517,115.687,15.64,122.686
		c7.819,5.764,20.417,6.998,29.975,7.408c8.688,0.826,19.115-0.821,26.5-5.762c9.558-6.177,9.989-16.056,12.164-25.938
		c2.172-9.471,3.581-100.218,3.908-104.981c0.65-9.469,0.938-7.077,1.885-11.115c0,0-36.126,9.058-45.254,9.058
		c-17.812,0-41.56-6.314-48.003-9.882"/>
	<g>
		<path fill="#6D6E71" d="M-0.22,58.201c4.088,5.645,3.645,14.376,4.176,21.189c0.381,4.89,0.698,9.785,1.041,14.677
			c1.105,15.773,2.299,31.541,3.788,47.282c1.441,15.231,2.892,30.629,6.067,45.616c0.781,3.693,1.558,7.908,3.663,11.125
			c1.456,2.228,4.891,3.399,7.189,4.365c5.637,2.369,11.967,3.142,18,3.678c10.434,0.93,22,1.13,31.224-4.686
			c9.921-6.253,11.237-16.201,13.505-26.865c2.36-11.104,1.674-23.436,2.058-34.715c0.578-16.959,0.969-33.923,1.355-50.887
			c0.223-9.769-0.471-20.254,2.187-29.719c0.068-0.257,0.133-0.516,0.193-0.776c0.039-0.156-0.197-0.186-0.293-0.162
			c-12.581,3.15-25.268,6.208-38.074,8.283c-9.012,1.46-18.07,0.329-27.015-1.18C19.56,63.864,9.28,61.944,0.86,57.507
			c-0.211-0.111-0.55,0.197-0.274,0.342C9.04,62.304,19.379,64.14,28.681,65.8c9.344,1.668,18.664,2.558,28.052,1.037
			c8.526-1.381,16.973-3.336,25.383-5.292c3.129-0.727,6.254-1.476,9.374-2.239c3.021-0.738,2.277-0.599,1.373,2.093
			c-1.316,3.917-1.051,8.54-1.159,12.671c-0.153,5.854-0.274,11.708-0.409,17.562c-0.391,17.099-0.8,34.199-1.398,51.291
			c-0.422,12.007-0.508,24.104-2.812,35.916c-1.243,6.377-2.54,12.546-6.723,17.711c-5.396,6.662-15.177,8.994-23.28,9.658
			c-6.299,0.517-13.04-0.271-19.291-1.129c-5.604-0.77-14.479-2.283-18.512-6.779c-2.521-2.809-3.177-7.939-3.944-11.463
			c-1.464-6.726-2.411-13.567-3.299-20.39c-2.248-17.264-3.705-34.633-5.052-51.985c-0.787-10.141-1.48-20.286-2.196-30.431
			c-0.167-2.365-0.32-4.733-0.545-7.094C3.658,70.796,3.98,63.173,0.22,57.982C0.083,57.792-0.375,57.988-0.22,58.201L-0.22,58.201z
			"/>
	</g>
</g>
</svg>
