<?xml version="1.0" encoding="utf-8"?>
<!-- Generator: Adobe Illustrator 16.0.0, SVG Export Plug-In . SVG Version: 6.00 Build 0)  -->
<!DOCTYPE svg PUBLIC "-//W3C//DTD SVG 1.1//EN" "http://www.w3.org/Graphics/SVG/1.1/DTD/svg11.dtd">
<svg version="1.1" id="Layer_1" xmlns="http://www.w3.org/2000/svg" xmlns:xlink="http://www.w3.org/1999/xlink" x="0px" y="0px"
	 width="35.568px" height="197.623px" viewBox="0 0 35.568 197.623" enable-background="new 0 0 35.568 197.623"
	 xml:space="preserve">
<g>
	<linearGradient id="SVGID_1_" gradientUnits="userSpaceOnUse" x1="0" y1="98.8115" x2="35.5684" y2="98.8115">
		<stop  offset="0.2848" style="stop-color:#242424"/>
		<stop  offset="1" style="stop-color:#1A1A1A"/>
	</linearGradient>
	<path fill="url(#SVGID_1_)" d="M35.201,40.116c0-2.523-5.299-1.514-9.589-1.514c0-1.262-0.254-17.531-0.254-20.188
		c0-1.766,4.495-1.208,8.835-1.43c0.529-3.292-0.172-15.308-0.172-15.308C28.472-1.351,1.219-0.004,1.219,3.528
		c0,13.229-1.114,148.495-0.655,149.387c1.111,2.164,5.612,1.346,7.998,1.484c0.649-0.227,0.144,16.363,0.144,21.474
		c0,1.263-8.074,0.505-8.074,0.505c-1.009,0-0.505,13.812-0.505,18.168c0,4.543,35.075,3.785,35.328-0.504
		C35.817,187.843,35.201,45.935,35.201,40.116z M30.934,153.062l-18.058,26.02l0.373-28.441c-2.118-0.137-8.354,1.107-9.338-1.01
		C3.503,148.755,4.916,48.412,4.916,35.469L21.682,8.71c0.053,0.427-0.024,4.996-0.192,7.015
		c-0.213,2.591,0.338,24.755,0.338,25.991c3.805,0,8.831,0.167,8.831,0.167C30.658,47.577,31.095,148.413,30.934,153.062z"/>
</g>
<linearGradient id="SVGID_2_" gradientUnits="userSpaceOnUse" x1="9.6455" y1="253.4658" x2="13.8369" y2="253.4658" gradientTransform="matrix(0.8185 0.5745 -0.5745 0.8185 157.8739 -48.324)">
	<stop  offset="0" style="stop-color:#72C6EF"/>
	<stop  offset="0.1242" style="stop-color:#85C8EA"/>
	<stop  offset="0.497" style="stop-color:#B5D5E5"/>
	<stop  offset="0.5944" style="stop-color:#B0D4E5"/>
	<stop  offset="0.737" style="stop-color:#A0D2E5"/>
	<stop  offset="0.9064" style="stop-color:#83CFE7"/>
	<stop  offset="0.9879" style="stop-color:#71CFEB"/>
</linearGradient>
<polygon fill="url(#SVGID_2_)" points="30.988,156.534 31.041,149.804 12.93,174.968 12.93,182.126 "/>
<linearGradient id="SVGID_3_" gradientUnits="userSpaceOnUse" x1="-57.1807" y1="125.6309" x2="-52.1094" y2="125.6309" gradientTransform="matrix(0.8793 0.4762 -0.4762 0.8793 121.0479 -58.8981)">
	<stop  offset="0" style="stop-color:#72C6EF"/>
	<stop  offset="0.1242" style="stop-color:#85C8EA"/>
	<stop  offset="0.497" style="stop-color:#B5D5E5"/>
	<stop  offset="0.5944" style="stop-color:#B0D4E5"/>
	<stop  offset="0.737" style="stop-color:#A0D2E5"/>
	<stop  offset="0.9064" style="stop-color:#83CFE7"/>
	<stop  offset="0.9879" style="stop-color:#71CFEB"/>
</linearGradient>
<polygon fill="url(#SVGID_3_)" points="21.554,15.396 21.682,8.71 4.916,35.469 4.916,42.521 "/>
</svg>
