<?xml version="1.0" encoding="utf-8"?>
<!-- Generator: Adobe Illustrator 16.0.0, SVG Export Plug-In . SVG Version: 6.00 Build 0)  -->
<!DOCTYPE svg PUBLIC "-//W3C//DTD SVG 1.1//EN" "http://www.w3.org/Graphics/SVG/1.1/DTD/svg11.dtd">
<svg version="1.1" id="Camada_1" xmlns="http://www.w3.org/2000/svg" xmlns:xlink="http://www.w3.org/1999/xlink" x="0px" y="0px"
	 width="306.14px" height="226.333px" viewBox="0 0 306.14 226.333" enable-background="new 0 0 306.14 226.333"
	 xml:space="preserve">
<g>
	<linearGradient id="SVGID_1_" gradientUnits="userSpaceOnUse" x1="213.7773" y1="202.168" x2="1.5421" y2="30.3033">
		<stop  offset="0" style="stop-color:#666666"/>
		<stop  offset="0.1939" style="stop-color:#8C8C8C"/>
		<stop  offset="0.2586" style="stop-color:#9F9F9F"/>
		<stop  offset="0.332" style="stop-color:#AEAEAE"/>
		<stop  offset="0.3939" style="stop-color:#B3B3B3"/>
		<stop  offset="0.5304" style="stop-color:#A9A9A9"/>
		<stop  offset="0.7545" style="stop-color:#919191"/>
		<stop  offset="0.7879" style="stop-color:#8C8C8C"/>
		<stop  offset="0.9939" style="stop-color:#4D4D4D"/>
	</linearGradient>
	<path fill="url(#SVGID_1_)" stroke="#6D6E71" stroke-width="0.5" stroke-miterlimit="10" d="M10.574,19.151v194.17h194.172V19.151
		H10.574z M107.661,155.071c-21.449,0-38.835-17.387-38.835-38.836c0-21.446,17.387-38.833,38.835-38.833
		c21.446,0,38.834,17.387,38.834,38.833C146.495,137.684,129.107,155.071,107.661,155.071z"/>
	<linearGradient id="SVGID_2_" gradientUnits="userSpaceOnUse" x1="127.2993" y1="136.019" x2="75.6199" y2="94.1699">
		<stop  offset="0" style="stop-color:#666666"/>
		<stop  offset="0.1939" style="stop-color:#8C8C8C"/>
		<stop  offset="0.2586" style="stop-color:#9F9F9F"/>
		<stop  offset="0.332" style="stop-color:#AEAEAE"/>
		<stop  offset="0.3939" style="stop-color:#B3B3B3"/>
		<stop  offset="0.5304" style="stop-color:#A9A9A9"/>
		<stop  offset="0.7545" style="stop-color:#919191"/>
		<stop  offset="0.7879" style="stop-color:#8C8C8C"/>
		<stop  offset="0.9939" style="stop-color:#4D4D4D"/>
	</linearGradient>
	<path fill="url(#SVGID_2_)" stroke="#6D6E71" stroke-width="0.5" stroke-miterlimit="10" d="M77.585,116.234
		c0-19.976,15.087-36.422,34.488-38.585c-1.427-0.159-2.877-0.248-4.347-0.248c-21.449,0-38.836,17.387-38.836,38.833
		c0,21.448,17.388,38.835,38.836,38.835c1.47,0,2.92-0.089,4.347-0.248C92.672,152.659,77.585,136.213,77.585,116.234z"/>
	<linearGradient id="SVGID_3_" gradientUnits="userSpaceOnUse" x1="171.1885" y1="62.5513" x2="52.9598" y2="-33.1884">
		<stop  offset="0.0121" style="stop-color:#666666"/>
		<stop  offset="0.1939" style="stop-color:#8C8C8C"/>
		<stop  offset="0.2586" style="stop-color:#9F9F9F"/>
		<stop  offset="0.332" style="stop-color:#AEAEAE"/>
		<stop  offset="0.3939" style="stop-color:#B3B3B3"/>
		<stop  offset="0.5304" style="stop-color:#A9A9A9"/>
		<stop  offset="0.7545" style="stop-color:#919191"/>
		<stop  offset="0.7879" style="stop-color:#8C8C8C"/>
		<stop  offset="1" style="stop-color:#333333"/>
	</linearGradient>
	<polygon fill="url(#SVGID_3_)" stroke="#6D6E71" stroke-width="0.5" stroke-miterlimit="10" points="10.575,19.151 19.394,10.211 
		213.572,10.211 204.746,19.151 	"/>
	
		<linearGradient id="SVGID_4_" gradientUnits="userSpaceOnUse" x1="83.0371" y1="-25.5986" x2="-35.1923" y2="-121.3389" gradientTransform="matrix(0 -1 -1 0 135.6328 135.6328)">
		<stop  offset="0" style="stop-color:#333333"/>
		<stop  offset="0.2" style="stop-color:#595959"/>
		<stop  offset="0.2608" style="stop-color:#6C6C6C"/>
		<stop  offset="0.3297" style="stop-color:#7B7B7B"/>
		<stop  offset="0.3879" style="stop-color:#808080"/>
		<stop  offset="0.7008" style="stop-color:#898989"/>
		<stop  offset="0.7879" style="stop-color:#8C8C8C"/>
		<stop  offset="0.9939" style="stop-color:#333333"/>
	</linearGradient>
	<polygon fill="url(#SVGID_4_)" stroke="#6D6E71" stroke-width="0.5" stroke-miterlimit="10" points="204.633,213.209 
		213.572,204.39 213.572,10.211 204.633,19.039 	"/>
</g>
<g>
	
		<linearGradient id="SVGID_5_" gradientUnits="userSpaceOnUse" x1="-201.4844" y1="136.834" x2="-250.3452" y2="97.2673" gradientTransform="matrix(-1 0 0 1 30.9131 0)">
		<stop  offset="0" style="stop-color:#666666"/>
		<stop  offset="0.1939" style="stop-color:#8C8C8C"/>
		<stop  offset="0.2586" style="stop-color:#9F9F9F"/>
		<stop  offset="0.332" style="stop-color:#AEAEAE"/>
		<stop  offset="0.3939" style="stop-color:#B3B3B3"/>
		<stop  offset="0.5304" style="stop-color:#A9A9A9"/>
		<stop  offset="0.7545" style="stop-color:#919191"/>
		<stop  offset="0.7879" style="stop-color:#8C8C8C"/>
		<stop  offset="0.9939" style="stop-color:#4D4D4D"/>
	</linearGradient>
	<path fill="url(#SVGID_5_)" stroke="#6D6E71" stroke-width="0.5" stroke-miterlimit="10" d="M259.321,77.294
		c0.805,0,4.79,0.145,5.866,0.127c-15.916,1.544-28.452,18.277-28.452,38.705c0,20.432,12.896,37.389,28.811,38.93
		c-0.792,0.078-4.775-0.093-5.583-0.093c-17.04,0-31.41-17.387-31.41-38.835C228.553,94.683,242.281,77.294,259.321,77.294z"/>
	<linearGradient id="SVGID_6_" gradientUnits="userSpaceOnUse" x1="292.9473" y1="137.7812" x2="239.7332" y2="94.6894">
		<stop  offset="0" style="stop-color:#666666"/>
		<stop  offset="0.1939" style="stop-color:#8C8C8C"/>
		<stop  offset="0.2586" style="stop-color:#9F9F9F"/>
		<stop  offset="0.332" style="stop-color:#AEAEAE"/>
		<stop  offset="0.3939" style="stop-color:#B3B3B3"/>
		<stop  offset="0.5304" style="stop-color:#A9A9A9"/>
		<stop  offset="0.7545" style="stop-color:#919191"/>
		<stop  offset="0.7879" style="stop-color:#8C8C8C"/>
		<stop  offset="0.9939" style="stop-color:#4D4D4D"/>
	</linearGradient>
	<path fill="url(#SVGID_6_)" stroke="#6D6E71" stroke-width="0.5" stroke-miterlimit="10" d="M266.343,77.401
		c-17.042,0-30.854,17.387-30.854,38.833c0,21.448,13.812,38.835,30.854,38.835c17.036,0,30.849-17.387,30.849-38.835
		C297.191,94.789,283.379,77.401,266.343,77.401z M266.341,125.944c-4.258,0-7.712-4.346-7.712-9.708
		c0-5.361,3.454-9.708,7.712-9.708c4.259,0,7.713,4.347,7.713,9.708C274.054,121.598,270.6,125.944,266.341,125.944z"/>
	<linearGradient id="SVGID_7_" gradientUnits="userSpaceOnUse" x1="273.167" y1="121.5098" x2="260.0511" y2="110.8888">
		<stop  offset="0" style="stop-color:#999999"/>
		<stop  offset="0.1939" style="stop-color:#8C8C8C"/>
		<stop  offset="0.2586" style="stop-color:#9F9F9F"/>
		<stop  offset="0.332" style="stop-color:#AEAEAE"/>
		<stop  offset="0.3939" style="stop-color:#B3B3B3"/>
		<stop  offset="0.5304" style="stop-color:#A9A9A9"/>
		<stop  offset="0.7545" style="stop-color:#919191"/>
		<stop  offset="0.7879" style="stop-color:#8C8C8C"/>
		<stop  offset="0.9818" style="stop-color:#4D4D4D"/>
	</linearGradient>
	<path fill="url(#SVGID_7_)" stroke="#6D6E71" stroke-width="0.5" stroke-miterlimit="10" d="M266.037,105.907
		c-1.023,0-2.969,1.609-3.298,1.663c3.784,0.619,6.976,3.732,6.976,8.666c0,4.935-2.559,8.342-6.343,8.961
		c0.334,0.309,2.239,1.133,2.579,1.133c4.259,0,8.357-4.746,8.357-10.108C274.309,110.86,270.296,105.907,266.037,105.907z"/>
</g>
</svg>
