<?xml version="1.0" encoding="utf-8"?>
<!-- Generator: Adobe Illustrator 16.0.0, SVG Export Plug-In . SVG Version: 6.00 Build 0)  -->
<!DOCTYPE svg PUBLIC "-//W3C//DTD SVG 1.1//EN" "http://www.w3.org/Graphics/SVG/1.1/DTD/svg11.dtd">
<svg version="1.1" id="Camada_1" xmlns="http://www.w3.org/2000/svg" xmlns:xlink="http://www.w3.org/1999/xlink" x="0px" y="0px"
	 width="215.048px" height="85.233px" viewBox="0 0 215.048 85.233" enable-background="new 0 0 215.048 85.233"
	 xml:space="preserve">
<linearGradient id="SVGID_1_" gradientUnits="userSpaceOnUse" x1="3.8652" y1="0.25" x2="3.8652" y2="24.6299">
	<stop  offset="0.0303" style="stop-color:#999999"/>
	<stop  offset="0.4606" style="stop-color:#000000"/>
	<stop  offset="0.7636" style="stop-color:#B3B3B3"/>
	<stop  offset="0.9818" style="stop-color:#666666"/>
</linearGradient>
<path fill="url(#SVGID_1_)" stroke="#58595B" stroke-width="0.5" stroke-miterlimit="10" d="M7.481,6.438
	c0,0-1.222-5.208-2.693-5.881C1.957-0.735,0.362,1.852,0.255,12.151c-0.122,11.93,1.818,13.607,4.532,11.93
	c1.279-0.791,2.693-5.377,2.693-5.377V7.109"/>
<linearGradient id="SVGID_2_" gradientUnits="userSpaceOnUse" x1="109.207" y1="6.8105" x2="109.207" y2="18.0684">
	<stop  offset="0.0303" style="stop-color:#999999"/>
	<stop  offset="0.4606" style="stop-color:#000000"/>
	<stop  offset="0.7636" style="stop-color:#B3B3B3"/>
	<stop  offset="0.9818" style="stop-color:#666666"/>
</linearGradient>
<path fill="url(#SVGID_2_)" stroke="#58595B" stroke-width="0.5" stroke-miterlimit="10" d="M5.358,18.068h199.445l9.745-5.377
	l-9.745-5.881H5.358C3.368,8.801,3.368,16.078,5.358,18.068z"/>
<path fill="none" stroke="#000000" stroke-width="0.8809" stroke-miterlimit="10" d="M24.163,6.992c0,0,0.399-3.965-1.596-2.98
	v66.552h23.9"/>
<path fill="none" stroke="#000000" stroke-width="0.8809" stroke-miterlimit="10" d="M27.819,6.853c0,0,0.43-3.837-1.747-2.829
	l-0.174,17.632c-2.509,0-1.271-3.545-1.271-3.545"/>
<path fill="none" stroke="#000000" stroke-width="0.8809" stroke-miterlimit="10" d="M31.352,6.853c0,0,0.429-3.837-1.747-2.829
	l-0.174,17.632c-2.509,0-1.271-3.545-1.271-3.545"/>
<path fill="none" stroke="#000000" stroke-width="0.8809" stroke-miterlimit="10" d="M34.883,6.853c0,0,0.429-3.837-1.747-2.829
	l-0.175,17.632c-2.509,0-1.271-3.545-1.271-3.545"/>
<path fill="none" stroke="#000000" stroke-width="0.8809" stroke-miterlimit="10" d="M38.415,6.853c0,0,0.43-3.837-1.747-2.829
	l-0.174,17.632c-2.508,0-1.271-3.545-1.271-3.545"/>
<path fill="none" stroke="#000000" stroke-width="0.8809" stroke-miterlimit="10" d="M41.947,6.853c0,0,0.429-3.837-1.747-2.829
	l-0.174,17.632c-2.509,0-1.272-3.545-1.272-3.545"/>
<path fill="none" stroke="#000000" stroke-width="0.8809" stroke-miterlimit="10" d="M45.479,6.853c0,0,0.429-3.837-1.747-2.829
	l-0.175,17.632c-2.508,0-1.271-3.545-1.271-3.545"/>
<path fill="none" stroke="#000000" stroke-width="0.8809" stroke-miterlimit="10" d="M49.01,6.853c0,0,0.429-3.837-1.747-2.829
	l-0.174,17.632c-2.508,0-1.271-3.545-1.271-3.545"/>
<path fill="none" stroke="#000000" stroke-width="0.8809" stroke-miterlimit="10" d="M52.542,6.853c0,0,0.43-3.837-1.747-2.829
	l-0.174,17.632c-2.509,0-1.272-3.545-1.272-3.545"/>
<path fill="none" stroke="#000000" stroke-width="0.8809" stroke-miterlimit="10" d="M56.073,6.853c0,0,0.429-3.837-1.747-2.829
	l-0.174,17.632c-2.508,0-1.271-3.545-1.271-3.545"/>
<path fill="none" stroke="#000000" stroke-width="0.8809" stroke-miterlimit="10" d="M59.605,6.853c0,0,0.429-3.837-1.747-2.829
	l-0.174,17.632c-2.509,0-1.271-3.545-1.271-3.545"/>
<path fill="none" stroke="#000000" stroke-width="0.8809" stroke-miterlimit="10" d="M63.137,6.853c0,0,0.43-3.837-1.747-2.829
	l-0.174,17.632c-2.509,0-1.271-3.545-1.271-3.545"/>
<path fill="none" stroke="#000000" stroke-width="0.8809" stroke-miterlimit="10" d="M66.668,6.853c0,0,0.429-3.837-1.747-2.829
	l-0.174,17.632c-2.508,0-1.271-3.545-1.271-3.545"/>
<path fill="none" stroke="#000000" stroke-width="0.8809" stroke-miterlimit="10" d="M70.201,6.853c0,0,0.429-3.837-1.747-2.829
	l-0.174,17.632c-2.509,0-1.271-3.545-1.271-3.545"/>
<path fill="none" stroke="#000000" stroke-width="0.8809" stroke-miterlimit="10" d="M73.732,6.853c0,0,0.43-3.837-1.747-2.829
	l-0.174,17.632c-2.509,0-1.271-3.545-1.271-3.545"/>
<path fill="none" stroke="#000000" stroke-width="0.8809" stroke-miterlimit="10" d="M77.264,6.853c0,0,0.429-3.837-1.747-2.829
	l-0.174,17.632c-2.508,0-1.271-3.545-1.271-3.545"/>
<path fill="none" stroke="#000000" stroke-width="0.8809" stroke-miterlimit="10" d="M80.796,6.853c0,0,0.429-3.837-1.748-2.829
	l-0.174,17.632c-2.509,0-1.271-3.545-1.271-3.545"/>
<path fill="none" stroke="#000000" stroke-width="0.8809" stroke-miterlimit="10" d="M84.327,6.853c0,0,0.429-3.837-1.747-2.829
	l-0.174,17.632c-2.509,0-1.271-3.545-1.271-3.545"/>
<path fill="none" stroke="#000000" stroke-width="0.8809" stroke-miterlimit="10" d="M87.859,6.853c0,0,0.429-3.837-1.747-2.829
	l-0.174,17.632c-2.509,0-1.271-3.545-1.271-3.545"/>
<path fill="none" stroke="#000000" stroke-width="0.8809" stroke-miterlimit="10" d="M91.391,6.853c0,0,0.43-3.837-1.747-2.829
	L89.47,21.656c-2.509,0-1.271-3.545-1.271-3.545"/>
<path fill="none" stroke="#000000" stroke-width="0.8809" stroke-miterlimit="10" d="M94.922,6.853c0,0,0.429-3.837-1.747-2.829
	l-0.174,17.632c-2.509,0-1.271-3.545-1.271-3.545"/>
<path fill="none" stroke="#000000" stroke-width="0.8809" stroke-miterlimit="10" d="M98.454,6.853c0,0,0.429-3.837-1.747-2.829
	l-0.174,17.632c-2.509,0-1.271-3.545-1.271-3.545"/>
<path fill="none" stroke="#000000" stroke-width="0.8809" stroke-miterlimit="10" d="M101.985,6.853c0,0,0.43-3.837-1.747-2.829
	l-0.174,17.632c-2.509,0-1.271-3.545-1.271-3.545"/>
<path fill="none" stroke="#000000" stroke-width="0.8809" stroke-miterlimit="10" d="M105.517,6.853c0,0,0.429-3.837-1.747-2.829
	l-0.174,17.632c-2.509,0-1.271-3.545-1.271-3.545"/>
<path fill="none" stroke="#000000" stroke-width="0.8809" stroke-miterlimit="10" d="M109.048,6.853c0,0,0.43-3.837-1.746-2.829
	l-0.174,17.632c-2.509,0-1.271-3.545-1.271-3.545"/>
<path fill="none" stroke="#000000" stroke-width="0.8809" stroke-miterlimit="10" d="M112.581,6.853c0,0,0.43-3.837-1.747-2.829
	l-0.174,17.632c-2.509,0-1.271-3.545-1.271-3.545"/>
<path fill="none" stroke="#000000" stroke-width="0.8809" stroke-miterlimit="10" d="M116.113,6.853c0,0,0.429-3.837-1.747-2.829
	l-0.175,17.632c-2.508,0-1.271-3.545-1.271-3.545"/>
<path fill="none" stroke="#000000" stroke-width="0.8809" stroke-miterlimit="10" d="M119.645,6.853c0,0,0.429-3.837-1.748-2.829
	l-0.174,17.632c-2.508,0-1.271-3.545-1.271-3.545"/>
<path fill="none" stroke="#000000" stroke-width="0.8809" stroke-miterlimit="10" d="M123.175,6.853c0,0,0.43-3.837-1.747-2.829
	l-0.174,17.632c-2.509,0-1.271-3.545-1.271-3.545"/>
<path fill="none" stroke="#000000" stroke-width="0.8809" stroke-miterlimit="10" d="M126.707,6.853c0,0,0.43-3.837-1.746-2.829
	l-0.173,17.632c-2.511,0-1.271-3.545-1.271-3.545"/>
<path fill="none" stroke="#000000" stroke-width="0.8809" stroke-miterlimit="10" d="M130.239,6.853c0,0,0.429-3.837-1.746-2.829
	l-0.175,17.632c-2.508,0-1.271-3.545-1.271-3.545"/>
<path fill="none" stroke="#000000" stroke-width="0.8809" stroke-miterlimit="10" d="M133.772,6.853c0,0,0.428-3.837-1.749-2.829
	l-0.173,17.632c-2.509,0-1.271-3.545-1.271-3.545"/>
<path fill="none" stroke="#000000" stroke-width="0.8809" stroke-miterlimit="10" d="M137.302,6.853c0,0,0.43-3.837-1.747-2.829
	l-0.173,17.632c-2.508,0-1.271-3.545-1.271-3.545"/>
<path fill="none" stroke="#000000" stroke-width="0.8809" stroke-miterlimit="10" d="M140.834,6.853c0,0,0.43-3.837-1.746-2.829
	l-0.174,17.632c-2.51,0-1.271-3.545-1.271-3.545"/>
<path fill="none" stroke="#000000" stroke-width="0.8809" stroke-miterlimit="10" d="M144.366,6.853c0,0,0.428-3.837-1.747-2.829
	l-0.175,17.632c-2.509,0-1.271-3.545-1.271-3.545"/>
<path fill="none" stroke="#000000" stroke-width="0.8809" stroke-miterlimit="10" d="M147.898,6.853c0,0,0.429-3.837-1.748-2.829
	l-0.174,17.632c-2.509,0-1.271-3.545-1.271-3.545"/>
<path fill="none" stroke="#000000" stroke-width="0.8809" stroke-miterlimit="10" d="M151.428,6.853c0,0,0.43-3.837-1.746-2.829
	l-0.175,17.632c-2.507,0-1.271-3.545-1.271-3.545"/>
<path fill="none" stroke="#000000" stroke-width="0.8809" stroke-miterlimit="10" d="M154.959,6.853c0,0,0.429-3.837-1.746-2.829
	l-0.173,17.632c-2.51,0-1.271-3.545-1.271-3.545"/>
<path fill="none" stroke="#000000" stroke-width="0.8809" stroke-miterlimit="10" d="M158.493,6.853c0,0,0.429-3.837-1.749-2.829
	l-0.173,17.632c-2.509,0-1.271-3.545-1.271-3.545"/>
<path fill="none" stroke="#000000" stroke-width="0.8809" stroke-miterlimit="10" d="M162.023,6.853c0,0,0.431-3.837-1.746-2.829
	l-0.173,17.632c-2.51,0-1.271-3.545-1.271-3.545"/>
<path fill="none" stroke="#000000" stroke-width="0.8809" stroke-miterlimit="10" d="M165.555,6.853c0,0,0.431-3.837-1.746-2.829
	l-0.174,17.632c-2.511,0-1.271-3.545-1.271-3.545"/>
<path fill="none" stroke="#000000" stroke-width="0.8809" stroke-miterlimit="10" d="M169.087,6.853c0,0,0.428-3.837-1.746-2.829
	l-0.176,17.632c-2.509,0-1.271-3.545-1.271-3.545"/>
<path fill="none" stroke="#000000" stroke-width="0.8809" stroke-miterlimit="10" d="M172.62,6.853c0,0,0.429-3.837-1.748-2.829
	l-0.174,17.632c-2.509,0-1.271-3.545-1.271-3.545"/>
<path fill="none" stroke="#000000" stroke-width="0.8809" stroke-miterlimit="10" d="M176.15,6.853c0,0,0.43-3.837-1.746-2.829
	l-0.175,17.632c-2.507,0-1.271-3.545-1.271-3.545"/>
<path fill="none" stroke="#000000" stroke-width="0.8809" stroke-miterlimit="10" d="M179.682,6.853c0,0,0.431-3.837-1.747-2.829
	l-0.173,17.632c-2.51,0-1.271-3.545-1.271-3.545"/>
<path fill="none" stroke="#000000" stroke-width="0.8809" stroke-miterlimit="10" d="M183.214,6.853c0,0,0.429-3.837-1.746-2.829
	l-0.176,17.632c-2.509,0-1.271-3.545-1.271-3.545"/>
<path fill="none" stroke="#000000" stroke-width="0.8809" stroke-miterlimit="10" d="M186.747,6.853c0,0,0.428-3.837-1.748-2.829
	l-0.174,17.632c-2.509,0-1.271-3.545-1.271-3.545"/>
<path fill="none" stroke="#000000" stroke-width="0.8809" stroke-miterlimit="10" d="M159.324,70.564h31.073
	c0,0,0.008-63.738-0.001-64.112c-0.028-1.065-0.33-3.341-1.866-2.429l-0.173,17.632c-2.509,0-1.271-3.545-1.271-3.545"/>
<g>
	<g>
		<path fill="#6D6E71" d="M162.45,66.245c1.398,0,2.806-0.385,3.439,0.886c1.274,2.042,0.769,6.238,0.632,8.527
			c-1.648,0.388-3.306,0.644-4.957,0.644l0,0c0.758-1.657-0.767-8.272,0.382-8.917"/>
	</g>
	<g>
		<linearGradient id="SVGID_3_" gradientUnits="userSpaceOnUse" x1="103.7129" y1="58.2676" x2="103.7129" y2="85.2334">
			<stop  offset="0.0303" style="stop-color:#FCBB76"/>
			<stop  offset="0.6424" style="stop-color:#F7941E"/>
			<stop  offset="0.7241" style="stop-color:#F89520"/>
			<stop  offset="0.7887" style="stop-color:#F89828"/>
			<stop  offset="0.8474" style="stop-color:#F99F37"/>
			<stop  offset="0.9026" style="stop-color:#FAA84D"/>
			<stop  offset="0.955" style="stop-color:#FBB467"/>
			<stop  offset="0.9818" style="stop-color:#FCBB76"/>
		</linearGradient>
		<path fill="url(#SVGID_3_)" d="M162.62,58.822c-0.174-0.201-5.259,2.035-7.384-0.496c0,0-109.854-0.351-110.721,0.663
			c-0.947,1.105-0.684,19.853-0.172,25.961c5.79,0.728,111.318-0.18,111.318-0.18c1.956-2.784,6.87-0.315,7.13-0.495
			C163.981,83.432,163.64,59.325,162.62,58.822"/>
	</g>
	<linearGradient id="SVGID_4_" gradientUnits="userSpaceOnUse" x1="86.083" y1="58.4824" x2="86.083" y2="84.9507">
		<stop  offset="0.0303" style="stop-color:#999999"/>
		<stop  offset="0.4606" style="stop-color:#000000"/>
		<stop  offset="0.5861" style="stop-color:#030303"/>
		<stop  offset="0.6852" style="stop-color:#0D0D0D"/>
		<stop  offset="0.7754" style="stop-color:#1E1E1E"/>
		<stop  offset="0.8602" style="stop-color:#353535"/>
		<stop  offset="0.9406" style="stop-color:#535353"/>
		<stop  offset="0.9818" style="stop-color:#666666"/>
	</linearGradient>
	<path fill="url(#SVGID_4_)" d="M44.343,84.951c-4.678-4.679-4.678-21.789,0-26.468h86.989v26.468H44.343z"/>
</g>
</svg>
