<?xml version="1.0" encoding="utf-8"?>
<!-- Generator: Adobe Illustrator 16.0.0, SVG Export Plug-In . SVG Version: 6.00 Build 0)  -->
<!DOCTYPE svg PUBLIC "-//W3C//DTD SVG 1.1//EN" "http://www.w3.org/Graphics/SVG/1.1/DTD/svg11.dtd">
<svg version="1.1" id="Camada_1" xmlns="http://www.w3.org/2000/svg" xmlns:xlink="http://www.w3.org/1999/xlink" x="0px" y="0px"
	 width="89.544px" height="226.333px" viewBox="0 0 89.544 226.333" enable-background="new 0 0 89.544 226.333"
	 xml:space="preserve">
<linearGradient id="SVGID_1_" gradientUnits="userSpaceOnUse" x1="15.0049" y1="118.8076" x2="78.5117" y2="118.8076">
	<stop  offset="0" style="stop-color:#DCDDDE;stop-opacity:0.4"/>
	<stop  offset="1" style="stop-color:#BCBEC0;stop-opacity:0.6"/>
</linearGradient>
<path opacity="0.7" fill="url(#SVGID_1_)" stroke="#6D6E71" stroke-width="0.5" stroke-miterlimit="10" d="M54.707,17.864
	c0,0-0.103,7.073,0.765,8.064c18.056,20.59,20.925,27.328,22.352,39.671v67.031c-3.089,18.252-3.327,20.742-3.21,27.5
	c0.155,8.934,2.322,26.374,3.751,36.708c0.797,5.769-1.662,20.838-6.82,22.977c-8.688,3.604-13.022-2.716-13.022-2.716
	s0.095,3.809-7.271,3.835c-8.548,0.03-10.865-3.835-10.865-3.835s-9.108,6.791-17.837,2.462c-5.002-2.48-8.221-16.955-7.423-22.723
	c1.429-10.334,3.596-27.774,3.75-36.708c0.117-6.758-0.122-9.247-3.209-27.5V65.599c1.426-12.343,4.295-19.081,22.351-39.671
	c0.869-0.991,0.569-8.177,0.569-8.177C42.584,16.338,50.369,16.092,54.707,17.864z"/>
<linearGradient id="SVGID_2_" gradientUnits="userSpaceOnUse" x1="15.0054" y1="129.5879" x2="78.5107" y2="129.5879">
	<stop  offset="0" style="stop-color:#9FCEEF;stop-opacity:0.4"/>
	<stop  offset="0.7818" style="stop-color:#3BAFE4;stop-opacity:0.5564"/>
	<stop  offset="1" style="stop-color:#00A7E1;stop-opacity:0.6"/>
</linearGradient>
<path opacity="0.7" fill="url(#SVGID_2_)" d="M67.658,40.787c7.408,10.098,9.15,16.04,10.163,24.812v67.031
	c-3.087,18.252-3.325,20.741-3.21,27.499c0.154,8.934,2.322,26.375,3.752,36.708c0.798,5.769-1.662,20.837-6.82,22.977
	c-8.688,3.604-13.021-2.717-13.021-2.717s0.095,3.809-7.271,3.837c-8.549,0.03-10.867-3.837-10.867-3.837s-9.106,6.792-17.835,2.463
	c-5.002-2.479-8.22-16.954-7.422-22.722c1.428-10.334,3.596-27.775,3.749-36.708c0.117-6.758-0.122-9.246-3.209-27.499V65.599
	c0.971-8.404,2.612-14.21,9.26-23.562C28.042,37.657,64.644,36.678,67.658,40.787z"/>
<linearGradient id="SVGID_3_" gradientUnits="userSpaceOnUse" x1="36.563" y1="18.75" x2="38.6714" y2="18.75">
	<stop  offset="0" style="stop-color:#BCBEC0;stop-opacity:0.4"/>
	<stop  offset="1" style="stop-color:#808285;stop-opacity:0.6"/>
</linearGradient>
<path fill="url(#SVGID_3_)" d="M36.563,19.239c0.001,0.549,2.108,0.536,2.108,0.536l-0.047-2.049
	C38.625,17.726,36.562,18.333,36.563,19.239z"/>
<linearGradient id="SVGID_4_" gradientUnits="userSpaceOnUse" x1="54.7041" y1="18.8711" x2="56.7939" y2="18.8711">
	<stop  offset="0" style="stop-color:#808285;stop-opacity:0.4"/>
	<stop  offset="1" style="stop-color:#BCBEC0;stop-opacity:0.6"/>
</linearGradient>
<path fill="url(#SVGID_4_)" d="M56.794,19.247c-0.002,0.549-2.09,0.649-2.09,0.649v-2.049
	C54.704,17.847,56.797,18.341,56.794,19.247z"/>
<linearGradient id="SVGID_5_" gradientUnits="userSpaceOnUse" x1="36.6377" y1="17.4072" x2="56.8779" y2="17.4072">
	<stop  offset="0" style="stop-color:#808285;stop-opacity:0.4"/>
	<stop  offset="0.5212" style="stop-color:#D1D3D4;stop-opacity:0.6"/>
	<stop  offset="1" style="stop-color:#808285;stop-opacity:0.6"/>
</linearGradient>
<path fill="url(#SVGID_5_)" d="M36.721,17.966c0,0,3.002-2.136,10.295-2.136c6.52,0,9.68,2.136,9.68,2.136
	c0.166,0.343,0.258,0.762,0.099,1.019c0,0-1.914-2.238-9.821-2.299c-8.908-0.069-10.335,2.299-10.335,2.299
	C36.636,18.801,36.639,18.292,36.721,17.966z"/>
<linearGradient id="SVGID_6_" gradientUnits="userSpaceOnUse" x1="37.5337" y1="10.5986" x2="55.9824" y2="10.5986">
	<stop  offset="0" style="stop-color:#ED1C24"/>
	<stop  offset="0.5212" style="stop-color:#F37053"/>
	<stop  offset="1" style="stop-color:#ED1C24"/>
</linearGradient>
<path fill="url(#SVGID_6_)" d="M55.012,17.187c0,0,0.198-2.452,0.354-3.164c0.124-0.578,0.395-1.511,0.616-2.451l-0.346-5.218
	c-0.513-0.942-1.542-1.72-2.712-2.007c-2.266-0.556-9.263-0.294-10.94-0.137c-1.199,0.112-3.214,0.577-4.314,2.144l-0.137,5.524
	c0.421,1.85,0.349,1.953,0.409,2.145c0.226,0.735,0.372,3.164,0.372,3.164C46.343,14.627,51.412,16.22,55.012,17.187z"/>
<g>
	<linearGradient id="SVGID_7_" gradientUnits="userSpaceOnUse" x1="44.8516" y1="159.9644" x2="48.6641" y2="159.9644">
		<stop  offset="0" style="stop-color:#645FAA"/>
		<stop  offset="0.5273" style="stop-color:#2E3192"/>
		<stop  offset="1" style="stop-color:#645FAA"/>
	</linearGradient>
	<path fill="url(#SVGID_7_)" d="M45.682,157.21h2.183c0.396,0.229,0.8,1.553,0.8,1.553v2.767c0,0-0.123,0.701-0.307,0.847
		c-0.604,0.481-2.55,0.43-3.198,0c-0.197-0.131-0.308-0.847-0.308-0.847v-2.88C44.852,158.65,45.302,157.419,45.682,157.21z"/>
	
		<linearGradient id="SVGID_8_" gradientUnits="userSpaceOnUse" x1="44.8516" y1="24.8428" x2="48.6641" y2="24.8428" gradientTransform="matrix(1 0 0 -1 0 107.9102)">
		<stop  offset="0" style="stop-color:#645FAA"/>
		<stop  offset="0.5273" style="stop-color:#2E3192"/>
		<stop  offset="1" style="stop-color:#645FAA"/>
	</linearGradient>
	<path fill="url(#SVGID_8_)" d="M45.682,85.822h2.183c0.396-0.23,0.8-1.553,0.8-1.553v-2.767c0,0-0.123-0.7-0.307-0.847
		c-0.604-0.481-2.55-0.429-3.198,0c-0.197,0.13-0.308,0.847-0.308,0.847v2.88C44.852,84.382,45.302,85.611,45.682,85.822z"/>
	<linearGradient id="SVGID_9_" gradientUnits="userSpaceOnUse" x1="44.5923" y1="125.2871" x2="48.9238" y2="125.2871">
		<stop  offset="0" style="stop-color:#27AAE1;stop-opacity:0.5"/>
		<stop  offset="0.7515" style="stop-color:#27AAE1;stop-opacity:0.3"/>
		<stop  offset="1" style="stop-color:#27AAE1;stop-opacity:0.5"/>
	</linearGradient>
	<path fill="url(#SVGID_9_)" d="M44.592,162.238c0.765,0.914,3.651,1.005,4.332,0V88.189c-0.767-0.765-3.566-0.765-4.332,0V162.238z
		"/>
	<linearGradient id="SVGID_10_" gradientUnits="userSpaceOnUse" x1="44.5923" y1="121.5293" x2="48.9238" y2="121.5293">
		<stop  offset="0" style="stop-color:#BCBEC0;stop-opacity:0.5"/>
		<stop  offset="0.7515" style="stop-color:#27AAE1;stop-opacity:0.3"/>
		<stop  offset="1" style="stop-color:#BCBEC0;stop-opacity:0.5"/>
	</linearGradient>
	<path fill="url(#SVGID_10_)" d="M44.592,162.238c0.765,0.914,3.651,1.005,4.332,0V80.821c-0.681-1.005-3.566-0.914-4.332,0V162.238
		z"/>
</g>
</svg>
