
<svg version="1.1" xmlns="http://www.w3.org/2000/svg" xmlns:xlink="http://www.w3.org/1999/xlink" x="0px" y="0px"
	 width="69.061px" height="67.388px" viewBox="0 0 69.061 67.388" enable-background="new 0 0 69.061 67.388" xml:space="preserve">
<path d="M66.233,30.866c-0.778-0.778-1.804-1.803-2.829-2.829s-2.051-2.051-2.828-2.829L36.534,1.167
	c-1.556-1.556-4.101-1.556-5.657,0c-1.556,1.556-1.556,4.101,0,5.657l22.87,22.87L4.001,29.693c-2.2,0-4,1.8-4.001,4l0,0.001
	c-0.001,2.2,1.798,4,3.999,4l49.748,0.002l-22.87,22.869c-1.556,1.556-1.556,4.102,0,5.657c1.556,1.556,4.101,1.556,5.657,0
	l24.042-24.042c0.778-0.778,1.803-1.803,2.828-2.828s2.051-2.051,2.829-2.829l2.828-2.828L66.233,30.866z"/>
</svg>
