<?xml version="1.0" encoding="utf-8"?>
<!-- Generator: Adobe Illustrator 16.0.0, SVG Export Plug-In . SVG Version: 6.00 Build 0)  -->
<!DOCTYPE svg PUBLIC "-//W3C//DTD SVG 1.1//EN" "http://www.w3.org/Graphics/SVG/1.1/DTD/svg11.dtd">
<svg version="1.1" id="Layer_1" xmlns="http://www.w3.org/2000/svg" xmlns:xlink="http://www.w3.org/1999/xlink" x="0px" y="0px"
	 width="48.155px" height="50.001px" viewBox="0 0 48.155 50.001" enable-background="new 0 0 48.155 50.001" xml:space="preserve">
<path d="M47.291,22.902L47.26,22.87c-1.152-1.153-2.097-2.097-2.097-2.097c-0.001,0.001-0.944-0.943-2.097-2.096L25.252,0.864
	c-1.152-1.152-3.04-1.152-4.193,0l-0.032,0.032c-1.153,1.153-1.153,3.04,0,4.193l16.959,16.959H2.965
	C1.334,22.049,0,23.383,0,25.014v0.046c0,1.63,1.334,2.966,2.965,2.966h34.948L21.027,44.91c-1.153,1.152-1.153,3.041,0,4.193
	l0.032,0.033c1.153,1.152,3.041,1.152,4.193,0l17.814-17.814c1.152-1.152,2.096-2.098,2.097-2.096c0,0,0.944-0.943,2.097-2.098
	l0.031-0.031C48.443,25.943,48.443,24.056,47.291,22.902z"/>
</svg>
