
<svg version="1.1"  xmlns="http://www.w3.org/2000/svg" xmlns:xlink="http://www.w3.org/1999/xlink" x="0px" y="0px"
	 width="818.147px" height="324.966px" viewBox="0 0 818.147 324.966" enable-background="new 0 0 818.147 324.966"
	 xml:space="preserve">
<path d="M6.625,324.966c-7.371,0-8.553-4.951-3.736-11.458c4.627-6.252,13.367-11.521,20.175-11.521
	c3.936,0,5.586,1.078,6.563,3.015c-1.842,1.181-2.765,1.771-4.617,2.952c-0.73-1.46-1.793-2.381-4.684-2.381
	c-4.191,0-9.977,3.555-13.138,7.872c-3.371,4.602-2.658,7.966,2.124,7.966c2.207,0,4.689-0.666,6.842-1.683
	c1.177-1.663,1.765-2.493,2.942-4.156h-5.922c0.976-1.359,1.464-2.038,2.44-3.397h9.799c-2.615,3.733-3.923,5.599-6.537,9.332
	C15.256,323.379,10.798,324.966,6.625,324.966"/>
<path d="M66.721,324.966c-7.236,0-9.013-5.174-5.039-11.458c3.973-6.284,12.189-11.521,19.126-11.521
	c6.938,0,8.736,5.173,5.04,11.458C82.153,319.729,73.958,324.966,66.721,324.966 M78.557,305.574c-4.516,0-9.867,3.523-12.582,7.872
	c-2.716,4.349-1.645,7.934,3.003,7.934s9.991-3.522,12.582-7.871C84.15,309.161,83.071,305.574,78.557,305.574"/>
<path d="M144.112,302.369h4.295c-6.795,7.523-13.663,14.982-20.601,22.376h-3.633c0.623-8.95,1.015-13.427,1.953-22.376h4.392
	c-0.803,6.83-1.162,10.245-1.791,17.076C134.968,312.614,138.045,309.199,144.112,302.369"/>
<path d="M199.981,305.86H187.11c-0.942,2.31-1.414,3.466-2.356,5.775h11.53c-0.54,1.397-0.81,2.095-1.35,3.492h-11.605
	c-0.974,2.387-1.461,3.58-2.434,5.967h13.403c-0.536,1.396-0.804,2.096-1.34,3.491h-17.625c3.691-8.886,5.538-13.331,9.229-22.217
	h16.76C200.785,303.764,200.517,304.463,199.981,305.86"/>
<path d="M246.595,324.585c-1.424-3.098-2.12-4.646-3.479-7.744h-5.108c-0.951,3.098-1.427,4.646-2.378,7.744h-4.137
	c2.794-8.886,4.192-13.331,6.986-22.217h10.076c5.199,0,7.641,2.697,6.424,7.045c-1.031,3.682-3.93,5.904-7.425,6.761
	c1.529,3.365,2.313,5.047,3.919,8.411H246.595z M247.179,305.922h-5.819c-0.916,2.984-1.374,4.476-2.29,7.459h5.932
	c2.901,0,5.166-1.46,5.823-3.746C251.528,307.192,250.137,305.922,247.179,305.922"/>
<path d="M309.899,302.369h3.908c-1.541,8.886-2.312,13.331-3.853,22.217h-3.465c-4.057-6.322-6.012-9.484-9.775-15.806
	c-1.283,6.321-1.925,9.483-3.208,15.806h-4.071c1.869-8.886,2.804-13.331,4.673-22.217h3.681c3.594,6.144,5.461,9.217,9.334,15.361
	C308.233,311.585,308.79,308.512,309.899,302.369"/>
<path d="M360.836,324.966c-7.237,0-11.748-5.174-11.095-11.458c0.654-6.284,6.103-11.521,13.041-11.521s11.47,5.173,11.095,11.458
	C373.502,319.729,368.074,324.966,360.836,324.966 M362.424,305.574c-4.516,0-8.005,3.523-8.424,7.872
	c-0.418,4.349,2.548,7.934,7.197,7.934c4.649,0,8.13-3.522,8.424-7.871C369.915,309.161,366.94,305.574,362.424,305.574"/>
<path d="M470.854,305.922h-12.938c0.231,2.426,0.348,3.638,0.581,6.062h11.604c0.167,1.422,0.25,2.133,0.417,3.555h-11.681
	c0.347,3.618,0.52,5.428,0.867,9.046h-4.139c-0.785-8.886-1.177-13.331-1.962-22.217h16.824
	C470.599,303.79,470.685,304.5,470.854,305.922"/>
<path d="M524.598,305.86h-12.872c0.453,2.31,0.679,3.466,1.132,5.775h11.532c0.303,1.397,0.454,2.095,0.758,3.492h-11.605
	c0.467,2.387,0.701,3.58,1.169,5.967h13.404c0.307,1.396,0.461,2.096,0.768,3.491h-17.625c-1.675-8.886-2.513-13.331-4.188-22.217
	h16.761C524.138,303.764,524.291,304.463,524.598,305.86"/>
<path d="M576.198,324.585h-8.779c-2.571-8.886-3.858-13.331-6.43-22.217h8.428c7.104,0,13.583,4.792,15.644,11.076
	C587.119,319.73,583.599,324.585,576.198,324.585 M570.502,305.922h-4.485c1.793,6.043,2.69,9.065,4.484,15.108h4.612
	c4.913,0,7.116-3.143,5.715-7.523C579.428,309.128,575.281,305.922,570.502,305.922"/>
<path d="M636.777,305.86h-12.871c0.934,2.31,1.402,3.466,2.337,5.775h11.531c0.595,1.397,0.892,2.095,1.487,3.492h-11.606
	c0.966,2.387,1.449,3.58,2.415,5.967h13.403c0.599,1.396,0.897,2.096,1.497,3.491h-17.625c-3.529-8.886-5.294-13.331-8.823-22.217
	h16.759C635.879,303.764,636.18,304.463,636.777,305.86"/>
<path d="M698.606,324.585c-3.941-3.098-5.896-4.646-9.772-7.744h-5.107c1.565,3.098,2.349,4.646,3.915,7.744h-4.138
	c-4.426-8.886-6.64-13.331-11.065-22.217h10.075c5.198,0,9.831,2.697,12.147,7.045c1.961,3.682,0.869,5.904-1.93,6.761
	c4.263,3.365,6.413,5.047,10.752,8.411H698.606z M684.025,305.922h-5.819c1.509,2.984,2.263,4.476,3.771,7.459h5.932
	c2.901,0,3.979-1.46,2.78-3.746C689.405,307.192,686.983,305.922,684.025,305.922"/>
<path d="M763.979,324.585h-4.373c-2.316-2.146-3.471-3.219-5.77-5.363h-11.025c0.351,2.145,0.521,3.218,0.854,5.363h-4.237
	c-1.214-8.949-1.906-13.427-3.453-22.375h3.68C747.722,309.715,755.827,317.17,763.979,324.585 M740.644,306.875
	c0.643,3.555,0.952,5.332,1.544,8.887h7.978C746.33,312.208,744.426,310.43,740.644,306.875"/>
<path d="M785.85,302.369h3.971c5.359,7.464,8.039,11.197,13.398,18.662h12.298c1.052,1.422,1.579,2.133,2.631,3.555h-16.514
	C795.32,315.7,792.162,311.254,785.85,302.369"/>
<polygon points="659.145,162.427 705.215,245.416 776.983,245.416 806.251,287.853 673.659,287.853 616.034,162.427 "/>
<path d="M608.304,162.426h-43.11l3.87,11.167c-4.513-2.212-9.107-4.132-13.833-5.765c-4.691-1.621-9.523-2.964-14.546-4.033
	c-5-1.065-10.199-1.86-15.65-2.389c-5.438-0.527-11.14-0.791-17.155-0.791c-3.085,0-6.016,0.116-8.813,0.328
	c-9.13,18.074-22.92,33.391-39.792,44.375c1.058,2.367,2.421,4.563,4.086,6.588c3.657,4.446,8.676,8.074,14.707,11.102
	c6.103,3.062,13.211,5.493,20.962,7.535c7.813,2.057,16.255,3.713,24.973,5.225c4.178,0.711,7.643,1.376,10.509,2.04
	c2.873,0.666,5.143,1.331,6.923,2.039c1.784,0.71,3.078,1.465,3.995,2.31c0.92,0.848,1.462,1.785,1.74,2.861
	c0.242,0.937,0.215,1.775-0.109,2.51s-0.945,1.362-1.887,1.873c-0.941,0.513-2.205,0.906-3.812,1.173
	c-1.608,0.266-3.558,0.403-5.873,0.403c-4.517,0-9.17-0.301-13.9-0.933c-4.72-0.63-9.505-1.589-14.299-2.903
	c-4.77-1.307-9.535-2.963-14.235-4.991c-4.665-2.012-9.255-4.386-13.708-7.14l-14.223,17.431l-21.654-38.524
	c-13.567,6.044-28.528,9.52-44.27,9.814l4.223,10.145h-27.325l5.475-11.16c-14.458-1.955-28.055-6.612-40.27-13.448l-34.229,53.943
	l-13.851-25.158c4.986-1.953,9.579-4.244,13.708-6.874c4.088-2.602,7.709-5.53,10.798-8.778c3.051-3.208,5.574-6.721,7.511-10.532
	c1.687-3.322,2.922-6.864,3.674-10.621c-13.376-9.945-24.503-22.746-32.478-37.501c-1.27-0.196-2.571-0.377-3.932-0.531
	c-4.586-0.516-9.705-0.788-15.415-0.788h-63.005l-8.001,18.485c0.082-0.991,0.07-1.931-0.025-2.82
	c-0.095-0.886-0.273-1.722-0.524-2.511c-0.25-0.785-0.573-1.523-0.96-2.215c-0.385-0.69-0.833-1.334-1.335-1.933
	c-1.253-1.488-2.81-2.798-4.718-3.923c-1.898-1.119-4.149-2.058-6.801-2.811c-2.643-0.751-5.689-1.32-9.19-1.7
	c-3.495-0.38-7.449-0.573-11.917-0.573H98.396L11.894,287.851h91.383c7.031,0,13.763-0.534,20.142-1.543
	c6.357-1.006,12.343-2.479,17.912-4.357c5.532-1.866,10.638-4.126,15.278-6.714c4.598-2.566,8.728-5.449,12.36-8.588l-9.177,21.202
	h55.114l14.307-42.436h10.908l17.642,42.436h33.68h29.199h29.68l10.283-20.755h55.623l8.983,20.755h59.811l-4.964-8.841
	c4.575,1.925,9.342,3.625,14.27,5.095c4.954,1.477,10.064,2.718,15.296,3.716c5.25,1.002,10.615,1.759,16.062,2.265
	c5.456,0.507,10.983,0.763,16.551,0.763c8.212,0,15.7-0.71,22.373-2.075c6.641-1.358,12.445-3.361,17.336-5.947
	c4.848-2.562,8.779-5.688,11.735-9.311c2.918-3.576,4.875-7.625,5.825-12.081l9.155,26.417h55.114L608.304,162.426z
	 M136.238,239.579l-0.201,0.389c-0.749,1.447-1.797,2.793-3.125,4c-1.334,1.212-2.949,2.283-4.822,3.171
	c-1.878,0.893-4.015,1.601-6.383,2.086c-2.373,0.487-4.976,0.749-7.781,0.749h-25.74l11.937-20.014h24.994
	c2.701,0,4.926,0.243,6.701,0.695c1.778,0.452,3.106,1.115,4.006,1.956c0.903,0.843,1.377,1.865,1.441,3.033
	C137.33,236.819,136.981,238.141,136.238,239.579 M155.036,196.336l-0.172,0.328c-0.661,1.261-1.549,2.384-2.667,3.36
	c-1.122,0.981-2.474,1.813-4.059,2.487c-1.589,0.675-3.41,1.191-5.464,1.538c-2.057,0.347-4.344,0.525-6.863,0.525h-20.548
	l9.48-15.896h19.691c2.437,0,4.478,0.167,6.129,0.493c1.653,0.328,2.917,0.816,3.797,1.458c0.881,0.644,1.378,1.444,1.491,2.394
	C155.965,193.978,155.693,195.084,155.036,196.336 M185.857,227.632c-0.655-1.594-1.572-3.039-2.728-4.351
	c-1.151-1.305-2.54-2.479-4.144-3.537c-1.598-1.056-3.411-1.996-5.418-2.838c-2-0.84-4.193-1.581-6.559-2.24
	c3.506-0.903,6.876-1.977,10.07-3.227c3.179-1.243,6.181-2.66,8.967-4.258c2.769-1.587,5.322-3.349,7.623-5.291
	c2.283-1.927,4.315-4.026,6.061-6.307L185.857,227.632z M281.972,202.572l-0.087,0.336c-0.465,1.797-1.314,3.416-2.506,4.837
	c-1.199,1.429-2.744,2.653-4.592,3.652c-1.855,1.004-4.012,1.778-6.426,2.304c-2.419,0.524-5.091,0.797-7.967,0.797h-20.758
	l7.691-22.812h20.011c2.649,0,5.001,0.219,7.012,0.659c2.014,0.441,3.688,1.105,4.973,1.996c1.291,0.896,2.192,2.022,2.652,3.385
	C282.438,199.096,282.455,200.709,281.972,202.572 M574.383,214.298c-4.375-2.406-9.24-4.455-14.548-6.229
	c-5.27-1.763-10.985-3.259-17.097-4.563c-6.08-1.299-12.559-2.412-19.384-3.414c-3.823-0.574-6.947-1.127-9.494-1.681
	c-2.541-0.555-4.507-1.108-6.014-1.688c-1.505-0.577-2.554-1.178-3.263-1.826c-0.708-0.646-1.078-1.338-1.227-2.097l-0.063-0.322
	c-0.133-0.676-0.059-1.301,0.233-1.856c0.291-0.556,0.799-1.043,1.537-1.446c0.736-0.403,1.7-0.721,2.906-0.939
	c1.205-0.218,2.651-0.335,4.353-0.335c3.165,0,6.546,0.205,10.07,0.631c3.53,0.427,7.212,1.075,10.97,1.963
	c3.773,0.891,7.631,2.023,11.502,3.419c3.895,1.402,7.811,3.072,11.675,5.03l13.291-23.133l16.281,46.977
	C582.726,219.528,578.798,216.727,574.383,214.298"/>
<path d="M407.685,78.523c-59.396-20.452-113.824-18.798-121.569,3.693c-1.736,5.043-0.976,10.706,1.914,16.687
	c0.112-1.163,0.243-2.32,0.391-3.473c-1.288-4.116-1.39-8.018-0.161-11.586c7.419-21.547,60.501-22.807,118.562-2.815
	c58.062,19.992,99.114,53.665,91.695,75.212c-1.227,3.562-3.707,6.566-7.245,9.014c-0.596,1.006-1.208,2-1.835,2.985
	c5.952-2.934,10.037-6.923,11.771-11.962C508.952,133.788,467.08,98.976,407.685,78.523"/>
<path d="M303.147,55.009c0.631-1.002,1.363-1.932,2.195-2.789s1.75-1.61,2.756-2.261c1.006-0.65,2.056-1.143,3.15-1.479
	c1.107-0.339,2.028-0.451,2.764-0.334c0.735,0.117,1.288,0.42,1.656,0.909c0.369,0.488,0.558,1.136,0.567,1.941
	c0.009,0.806-0.169,1.737-0.532,2.792c-0.354,1.029-0.845,2.038-1.472,3.027c-0.627,0.989-1.354,1.905-2.181,2.749
	c-0.828,0.844-1.74,1.586-2.737,2.228s-2.049,1.133-3.156,1.472c-1.094,0.336-2.013,0.449-2.757,0.341
	c-0.745-0.108-1.304-0.4-1.677-0.876c-0.373-0.475-0.566-1.109-0.58-1.902c-0.013-0.792,0.157-1.703,0.511-2.732
	C302.018,57.039,302.515,56.011,303.147,55.009 M304.41,58.798c-0.053,0.518-0.003,0.954,0.149,1.308
	c0.152,0.355,0.429,0.592,0.83,0.711c0.4,0.119,0.954,0.07,1.661-0.146c0.707-0.217,1.354-0.536,1.941-0.958
	c0.586-0.422,1.11-0.904,1.572-1.447c0.461-0.542,0.858-1.116,1.192-1.72c0.333-0.603,0.602-1.202,0.806-1.796
	c0.214-0.62,0.35-1.199,0.41-1.736c0.06-0.538,0.015-0.987-0.135-1.348c-0.151-0.361-0.426-0.601-0.826-0.721
	c-0.401-0.119-0.955-0.07-1.662,0.147c-0.707,0.216-1.354,0.536-1.941,0.957c-0.586,0.422-1.112,0.908-1.575,1.457
	c-0.464,0.549-0.866,1.136-1.206,1.759c-0.34,0.624-0.616,1.246-0.83,1.866C304.592,57.725,304.463,58.281,304.41,58.798"/>
<path d="M327.51,45.829c0.666-0.07,1.231-0.03,1.695,0.119c0.464,0.15,0.826,0.382,1.085,0.699c0.259,0.317,0.408,0.699,0.448,1.146
	c0.04,0.448-0.033,0.942-0.219,1.483c-0.286,0.831-0.718,1.57-1.295,2.215c-0.577,0.645-1.336,1.169-2.278,1.572l-0.013,0.039
	c0.366,0.064,0.643,0.191,0.832,0.382c0.189,0.19,0.316,0.425,0.38,0.704c0.064,0.28,0.073,0.594,0.027,0.942
	c-0.047,0.349-0.117,0.7-0.212,1.053c-0.064,0.223-0.141,0.485-0.231,0.787c-0.091,0.303-0.173,0.61-0.247,0.923
	c-0.075,0.313-0.123,0.607-0.144,0.883c-0.022,0.276,0.01,0.505,0.095,0.687l-3.269,0.339c-0.026-0.43,0.047-0.953,0.219-1.569
	c0.172-0.615,0.314-1.203,0.426-1.761c0.143-0.728,0.094-1.244-0.149-1.55c-0.243-0.305-0.774-0.416-1.593-0.331l-3.268,0.339
	l-1.902,5.522l-3.268,0.339l4.865-14.131L327.51,45.829z M324.143,52.342c0.75-0.078,1.366-0.294,1.85-0.65
	c0.484-0.355,0.848-0.889,1.094-1.602c0.236-0.686,0.22-1.165-0.048-1.436c-0.268-0.271-0.777-0.368-1.526-0.29l-3.581,0.371
	l-1.37,3.978L324.143,52.342z"/>
<path d="M340.083,45.428c0.963,0.012,1.81,0.168,2.54,0.468c0.73,0.3,1.299,0.744,1.706,1.332c0.407,0.588,0.632,1.319,0.674,2.194
	s-0.139,1.899-0.544,3.074c-0.354,1.029-0.821,1.977-1.4,2.845c-0.579,0.867-1.26,1.614-2.043,2.241
	c-0.783,0.626-1.659,1.116-2.628,1.469c-0.97,0.353-2.026,0.522-3.17,0.508l-6.447-0.077l4.866-14.131L340.083,45.428z
	 M335.886,56.944c0.474,0.006,0.96-0.061,1.456-0.201c0.497-0.14,0.977-0.376,1.442-0.708c0.465-0.333,0.895-0.768,1.291-1.306
	c0.395-0.539,0.727-1.197,0.995-1.976c0.245-0.712,0.394-1.356,0.445-1.932c0.051-0.576-0.021-1.07-0.215-1.483
	s-0.529-0.732-1.005-0.956c-0.477-0.224-1.119-0.341-1.928-0.351l-2.345-0.028l-3.066,8.906L335.886,56.944z"/>
<polygon points="359.517,46.703 358.617,49.315 350.76,48.589 349.717,51.618 356.929,52.284 356.097,54.698 348.885,54.033 
	347.692,57.496 355.718,58.236 354.817,60.849 343.521,59.807 348.387,45.675 "/>
<polygon points="365.704,47.604 365.807,57.893 365.848,57.899 372.457,48.721 377.021,49.475 372.154,63.606 369.118,63.104 
	372.567,53.09 372.525,53.083 365.463,62.5 362.964,62.087 362.766,51.574 362.724,51.567 359.31,61.482 356.273,60.98 
	361.14,46.849 "/>
<polygon points="395.006,53.783 394.106,56.395 386.45,54.491 385.407,57.519 392.435,59.267 391.604,61.681 384.576,59.933 
	383.382,63.397 391.203,65.342 390.304,67.954 379.293,65.216 384.16,51.085 "/>
<path d="M408.01,57.69c0.892,0.282,1.605,0.65,2.143,1.105s0.929,0.956,1.176,1.503c0.247,0.546,0.367,1.118,0.36,1.716
	c-0.007,0.598-0.109,1.187-0.31,1.767c-0.195,0.568-0.477,1.097-0.846,1.587c-0.368,0.491-0.821,0.885-1.359,1.184
	c-0.538,0.298-1.164,0.476-1.877,0.536c-0.714,0.059-1.517-0.052-2.408-0.334l-3.293-1.042l-1.745,5.067l-3.133-0.991l4.866-14.131
	L408.01,57.69z M404.862,64.068c0.359,0.114,0.714,0.197,1.065,0.249c0.351,0.053,0.678,0.043,0.984-0.029
	c0.305-0.071,0.581-0.222,0.83-0.451c0.248-0.228,0.45-0.567,0.604-1.015c0.155-0.449,0.203-0.836,0.146-1.162
	c-0.058-0.325-0.188-0.604-0.388-0.835c-0.2-0.232-0.458-0.427-0.772-0.585c-0.315-0.158-0.651-0.294-1.011-0.407l-2.434-0.77
	l-1.459,4.235L404.862,64.068z"/>
<path d="M421.455,62.347c0.63,0.23,1.161,0.54,1.595,0.929s0.771,0.827,1.009,1.316c0.237,0.487,0.37,1.001,0.398,1.538
	c0.029,0.538-0.05,1.078-0.235,1.619c-0.286,0.831-0.708,1.487-1.265,1.967c-0.556,0.479-1.281,0.734-2.177,0.763l-0.014,0.039
	c0.344,0.245,0.603,0.522,0.776,0.83c0.174,0.309,0.288,0.641,0.345,0.995c0.054,0.355,0.057,0.723,0.006,1.106
	c-0.051,0.382-0.124,0.757-0.221,1.122c-0.064,0.23-0.142,0.498-0.233,0.807c-0.092,0.308-0.175,0.626-0.251,0.955
	c-0.077,0.328-0.128,0.648-0.153,0.958s-0.001,0.59,0.076,0.841l-3.087-1.129c-0.016-0.511,0.063-1.083,0.237-1.718
	c0.175-0.634,0.319-1.25,0.437-1.846c0.149-0.777,0.113-1.4-0.108-1.867c-0.224-0.468-0.722-0.843-1.494-1.126l-3.086-1.129
	l-1.902,5.522l-3.086-1.129l4.866-14.131L421.455,62.347z M418.153,68.337c0.707,0.259,1.293,0.295,1.756,0.107
	c0.462-0.187,0.817-0.637,1.062-1.349c0.235-0.686,0.23-1.249-0.017-1.689c-0.246-0.439-0.725-0.788-1.432-1.047l-3.381-1.237
	l-1.37,3.978L418.153,68.337z"/>
<path d="M425.429,68.533c0.619-0.773,1.334-1.375,2.145-1.803c0.81-0.428,1.702-0.656,2.676-0.683
	c0.973-0.026,1.987,0.183,3.041,0.628c1.066,0.451,1.952,1.045,2.656,1.78c0.704,0.736,1.229,1.563,1.575,2.48
	c0.347,0.918,0.52,1.894,0.517,2.928s-0.187,2.079-0.549,3.134c-0.355,1.029-0.841,1.924-1.455,2.684
	c-0.615,0.761-1.325,1.348-2.131,1.763c-0.807,0.416-1.691,0.635-2.655,0.658c-0.966,0.022-1.982-0.191-3.048-0.643
	c-1.055-0.445-1.938-1.034-2.65-1.766s-1.244-1.549-1.595-2.454c-0.353-0.904-0.528-1.866-0.53-2.887s0.174-2.047,0.529-3.076
	C424.316,70.221,424.809,69.306,425.429,68.533 M426.587,74.373c-0.058,0.618-0.017,1.214,0.125,1.787
	c0.141,0.574,0.402,1.096,0.785,1.568c0.382,0.471,0.914,0.851,1.595,1.139s1.307,0.397,1.875,0.328
	c0.569-0.07,1.078-0.266,1.528-0.59c0.451-0.324,0.84-0.737,1.168-1.241s0.594-1.052,0.798-1.646
	c0.214-0.62,0.353-1.249,0.418-1.887c0.065-0.637,0.028-1.246-0.111-1.826c-0.139-0.581-0.399-1.106-0.781-1.578
	c-0.383-0.471-0.914-0.851-1.596-1.139s-1.307-0.397-1.875-0.328c-0.568,0.07-1.08,0.269-1.531,0.6
	c-0.452,0.33-0.847,0.757-1.182,1.28c-0.334,0.524-0.608,1.096-0.822,1.716C426.776,73.149,426.645,73.755,426.587,74.373"/>
<path d="M444.434,88.436c-0.736-0.03-1.431-0.204-2.082-0.524c-1.027-0.503-1.887-1.144-2.577-1.923
	c-0.692-0.778-1.206-1.635-1.542-2.571c-0.338-0.936-0.502-1.924-0.496-2.962c0.006-1.038,0.186-2.071,0.54-3.1
	c0.363-1.056,0.851-1.962,1.463-2.718c0.611-0.756,1.315-1.333,2.11-1.73c0.797-0.396,1.67-0.584,2.622-0.565
	c0.953,0.02,1.943,0.282,2.971,0.785c0.688,0.338,1.318,0.774,1.889,1.308c0.571,0.534,1.043,1.14,1.418,1.817
	c0.374,0.677,0.624,1.409,0.749,2.195c0.125,0.786,0.086,1.6-0.116,2.441l-2.818-1.382c0.097-0.878-0.037-1.637-0.401-2.279
	c-0.366-0.641-0.905-1.137-1.619-1.487c-0.665-0.326-1.275-0.467-1.831-0.424c-0.557,0.043-1.058,0.222-1.503,0.536
	s-0.833,0.729-1.165,1.245c-0.331,0.516-0.603,1.084-0.817,1.704c-0.203,0.594-0.337,1.204-0.398,1.829
	c-0.062,0.625-0.026,1.233,0.107,1.822c0.135,0.59,0.387,1.134,0.758,1.632c0.37,0.498,0.887,0.909,1.551,1.235
	c0.978,0.479,1.822,0.589,2.534,0.328c0.712-0.26,1.281-0.863,1.711-1.81l-2.971-1.456l0.799-2.315l5.638,2.764l-2.63,7.64
	l-1.88-0.922l0.252-1.75C445.925,88.252,445.171,88.465,444.434,88.436"/>
<path d="M461.538,81.015c0.583,0.33,1.073,0.729,1.471,1.197c0.397,0.469,0.701,0.976,0.914,1.521
	c0.211,0.545,0.323,1.102,0.339,1.67c0.015,0.568-0.071,1.122-0.257,1.663c-0.286,0.831-0.695,1.46-1.227,1.884
	c-0.531,0.425-1.215,0.59-2.053,0.495l-0.015,0.04c0.316,0.304,0.553,0.631,0.709,0.979c0.155,0.348,0.256,0.712,0.299,1.091
	c0.044,0.379,0.038,0.766-0.019,1.16c-0.056,0.394-0.133,0.776-0.23,1.146c-0.066,0.231-0.146,0.502-0.237,0.812
	s-0.178,0.632-0.256,0.966c-0.079,0.334-0.134,0.662-0.164,0.983c-0.032,0.322-0.014,0.619,0.052,0.893l-2.86-1.617
	c-0.005-0.538,0.082-1.127,0.26-1.768c0.177-0.641,0.327-1.265,0.449-1.874c0.156-0.794,0.137-1.451-0.062-1.973
	s-0.655-0.985-1.372-1.39l-2.861-1.617l-1.9,5.522l-2.861-1.617l4.866-14.13L461.538,81.015z M458.316,86.831
	c0.656,0.371,1.203,0.49,1.64,0.359c0.438-0.131,0.778-0.553,1.023-1.266c0.237-0.685,0.244-1.276,0.022-1.772
	c-0.221-0.495-0.659-0.928-1.315-1.299l-3.135-1.771l-1.369,3.978L458.316,86.831z"/>
<polygon points="476.008,90.074 475.107,92.686 468.495,88.38 467.452,91.409 473.521,95.36 472.69,97.775 466.621,93.823 
	465.429,97.287 472.182,101.684 471.282,104.295 461.775,98.105 466.641,83.975 "/>
<path d="M475.681,103.194c0.029,0.44,0.129,0.853,0.298,1.24c0.167,0.387,0.395,0.752,0.683,1.097
	c0.287,0.345,0.604,0.649,0.947,0.911c0.232,0.178,0.49,0.346,0.772,0.503c0.281,0.157,0.562,0.259,0.84,0.305
	c0.277,0.046,0.533,0.013,0.77-0.099c0.234-0.113,0.413-0.347,0.536-0.703c0.131-0.383,0.135-0.771,0.012-1.166
	c-0.123-0.394-0.323-0.797-0.602-1.21c-0.278-0.412-0.607-0.839-0.988-1.28c-0.38-0.441-0.762-0.899-1.144-1.374
	c-0.398-0.471-0.775-0.963-1.13-1.477c-0.356-0.513-0.647-1.048-0.875-1.606c-0.229-0.558-0.367-1.143-0.415-1.755
	c-0.05-0.612,0.039-1.241,0.261-1.887c0.25-0.726,0.597-1.257,1.042-1.592c0.444-0.335,0.938-0.52,1.482-0.554
	c0.545-0.034,1.111,0.066,1.702,0.301c0.592,0.236,1.153,0.557,1.687,0.963c0.62,0.475,1.188,1.013,1.702,1.614
	c0.514,0.602,0.929,1.257,1.246,1.965c0.315,0.708,0.505,1.449,0.567,2.222c0.063,0.773-0.046,1.569-0.328,2.387l-2.526-1.932
	c0.123-0.44,0.168-0.846,0.136-1.221s-0.126-0.722-0.282-1.041c-0.156-0.319-0.358-0.615-0.607-0.889s-0.534-0.533-0.855-0.779
	c-0.211-0.161-0.431-0.296-0.66-0.404c-0.228-0.108-0.452-0.162-0.669-0.161c-0.217,0-0.415,0.057-0.594,0.17
	c-0.179,0.113-0.321,0.322-0.425,0.625c-0.097,0.277-0.129,0.536-0.1,0.775c0.029,0.239,0.15,0.531,0.36,0.875
	c0.211,0.345,0.521,0.765,0.931,1.262c0.41,0.497,0.948,1.141,1.614,1.933c0.203,0.223,0.479,0.553,0.824,0.993
	c0.346,0.439,0.66,0.959,0.943,1.559c0.284,0.6,0.479,1.262,0.588,1.986c0.107,0.724,0.025,1.482-0.247,2.273
	c-0.224,0.647-0.535,1.167-0.937,1.56s-0.879,0.632-1.434,0.717s-1.178,0.004-1.87-0.242c-0.693-0.247-1.444-0.679-2.253-1.297
	c-0.654-0.5-1.256-1.081-1.805-1.743c-0.551-0.661-0.99-1.377-1.32-2.146c-0.331-0.769-0.525-1.576-0.584-2.421
	c-0.06-0.845,0.066-1.699,0.377-2.562l2.527,1.932C475.717,102.296,475.649,102.754,475.681,103.194"/>
<path d="M486.143,111.66c0.018,0.455,0.1,0.888,0.248,1.299c0.146,0.411,0.35,0.805,0.609,1.183
	c0.259,0.377,0.545,0.715,0.859,1.013c0.213,0.202,0.448,0.395,0.707,0.579c0.259,0.185,0.517,0.312,0.774,0.382
	c0.259,0.07,0.498,0.056,0.72-0.04c0.221-0.096,0.393-0.323,0.516-0.679c0.131-0.383,0.146-0.782,0.039-1.197
	c-0.105-0.415-0.283-0.846-0.532-1.293c-0.249-0.446-0.545-0.912-0.889-1.395c-0.344-0.484-0.688-0.986-1.032-1.506
	c-0.36-0.516-0.699-1.053-1.017-1.609c-0.319-0.556-0.578-1.13-0.777-1.722c-0.199-0.592-0.313-1.204-0.344-1.837
	c-0.031-0.633,0.064-1.273,0.288-1.919c0.25-0.726,0.586-1.243,1.007-1.552c0.422-0.309,0.887-0.458,1.394-0.449
	c0.508,0.008,1.033,0.158,1.578,0.447c0.545,0.29,1.061,0.666,1.546,1.127c0.566,0.538,1.082,1.137,1.546,1.797
	c0.466,0.659,0.835,1.366,1.113,2.12s0.438,1.53,0.478,2.33s-0.081,1.609-0.362,2.427l-2.309-2.191
	c0.125-0.441,0.178-0.856,0.157-1.243c-0.021-0.388-0.101-0.752-0.238-1.093c-0.138-0.341-0.319-0.662-0.545-0.964
	c-0.225-0.301-0.483-0.591-0.777-0.87c-0.192-0.182-0.395-0.338-0.604-0.468c-0.211-0.13-0.417-0.203-0.619-0.22
	c-0.201-0.017-0.388,0.025-0.557,0.127c-0.17,0.102-0.307,0.305-0.411,0.608c-0.096,0.277-0.133,0.54-0.109,0.788
	c0.021,0.249,0.126,0.558,0.313,0.929c0.188,0.371,0.467,0.828,0.837,1.372s0.855,1.25,1.456,2.118
	c0.185,0.245,0.433,0.607,0.744,1.087c0.311,0.48,0.592,1.039,0.841,1.679c0.25,0.64,0.416,1.337,0.5,2.089
	c0.083,0.753-0.012,1.526-0.285,2.317c-0.222,0.647-0.524,1.156-0.907,1.527c-0.384,0.372-0.834,0.579-1.353,0.621
	c-0.518,0.043-1.096-0.091-1.735-0.4c-0.639-0.309-1.327-0.814-2.065-1.516c-0.598-0.567-1.145-1.213-1.64-1.937
	s-0.889-1.496-1.178-2.313c-0.29-0.817-0.452-1.663-0.486-2.536c-0.034-0.874,0.103-1.741,0.412-2.602l2.308,2.19
	C486.197,110.74,486.124,111.205,486.143,111.66"/>
<path d="M496.24,112.631c0.506-0.631,1.058-1.029,1.655-1.191c0.599-0.163,1.229-0.064,1.894,0.296
	c0.664,0.36,1.33,1.006,1.996,1.936c0.675,0.941,1.211,1.971,1.607,3.091s0.662,2.272,0.796,3.455
	c0.135,1.183,0.144,2.363,0.027,3.539c-0.116,1.176-0.355,2.292-0.719,3.347c-0.354,1.029-0.782,1.853-1.284,2.471
	c-0.502,0.619-1.05,1.003-1.642,1.152c-0.595,0.15-1.22,0.043-1.877-0.318c-0.658-0.361-1.325-1.012-1.999-1.953
	c-0.667-0.93-1.202-1.955-1.605-3.074c-0.403-1.118-0.674-2.263-0.812-3.433c-0.14-1.17-0.153-2.336-0.041-3.499
	c0.11-1.163,0.344-2.259,0.697-3.288C495.299,114.106,495.734,113.263,496.24,112.631 M496.382,119.743
	c-0.108,0.68-0.145,1.375-0.113,2.084c0.033,0.709,0.153,1.409,0.36,2.099c0.208,0.69,0.527,1.336,0.959,1.937
	c0.43,0.601,0.843,0.976,1.237,1.125c0.394,0.15,0.761,0.13,1.103-0.058c0.341-0.187,0.651-0.502,0.93-0.944
	c0.278-0.441,0.521-0.959,0.725-1.553c0.214-0.62,0.378-1.28,0.492-1.979c0.114-0.7,0.156-1.408,0.127-2.124
	c-0.031-0.716-0.15-1.419-0.357-2.109c-0.208-0.69-0.527-1.336-0.958-1.937s-0.844-0.976-1.238-1.125
	c-0.394-0.149-0.762-0.127-1.105,0.068c-0.344,0.194-0.659,0.522-0.944,0.983c-0.285,0.462-0.534,1.003-0.748,1.623
	C496.646,118.426,496.49,119.063,496.382,119.743"/>
<path d="M397.02,0c-36.765,0-69.282,18.13-89.14,45.926c21.291-9.109,63.175-6.24,107.878,9.152
	c44.703,15.393,79.476,38.919,90.644,59.207c0.069-1.589,0.115-3.183,0.115-4.789C506.517,49.024,457.492,0,397.02,0
	 M438.983,59.557l-4.955-3.238l-4.938,2.821l1.25-5.415l-4.447-3.746l5.644-0.159l2.053-4.864l2.321,5.176l5.68,0.725l-4.222,3.285
	L438.983,59.557z"/>
<path d="M406.129,83.039c-26.39-9.087-52.805-14.091-74.379-14.091c-22.325,0-37.236,5.377-41.172,14.788
	c-1.993,8.262-3.056,16.887-3.056,25.76c0,60.474,49.023,109.498,109.497,109.498c44.324,0,82.494-26.339,99.721-64.216
	C502.354,134.649,461.316,102.042,406.129,83.039 M298.149,87.199L299.692,83l1.035,4.062l3.651,0.098l-3.027,3.085l0.645,4.296
	l-2.831-2.266l-3.027,2.48l1.035-4.374l-2.363-2.635L298.149,87.199z M301.115,151.449l-2.628-2.247l-2.12,1.526l0.297-3.328
	l-2.289-2.586l2.692,0.148l0.763-3.264l1.356,3.561l2.904,0.594l-2.035,2.077L301.115,151.449z M310.591,143.818l-3.35-2.65
	l-2.967,1.993l0.572-4.24l-2.84-3.031l3.561-0.021c0,0,1.081-4.028,1.166-4.113l1.632,4.346l3.858,0.593l-2.841,2.693
	L310.591,143.818z M317.832,134.198l-1.894-1.407l-1.777,1.192l0.41-2.382l-1.64-1.738l2.09-0.02l0.761-2.343l0.879,2.402
	l2.284,0.273l-1.757,1.601L317.832,134.198z M475.473,149.737l1.793-4.332l1.11,4.104l3.876-0.045l-3.269,3.131l0.518,4.119
	l-3.025-1.991l-3.633,2.645l1.397-4.393l-2.856-2.614L475.473,149.737z M421.577,103.542l1.394-3.443l1.335,3.502l3.559,0.27
	l-2.786,2.302l0.853,3.56l-3.019-1.993l-3.114,1.916l0.929-3.502l-2.709-2.36L421.577,103.542z M328.389,166.637l-2.681-1.901
	l-2.343,1.354l0.442-2.968l-2.369-2.239l2.864,0.104l0.859-2.812l1.354,3.073l3.02,0.546l-2.109,1.796L328.389,166.637z
	 M331.956,155.728l-3.228-2.213l-2.89,1.667l0.651-3.541l-2.838-2.682h3.463l1.171-3.462l1.588,3.723l3.619,0.52l-2.682,2.291
	L331.956,155.728z M346.611,180.889l-3.881-2.534l-3.479,1.79l0.684-3.881l-3.539-3.057l4.283,0.161l1.347-3.861l1.951,4.182
	l4.485,0.686l-3.238,2.413L346.611,180.889z M346.197,115.001l0.958,3.99l-3.342-2.28l-3.316,2.15l0.881-4.041l-2.954-2.643
	l3.912-0.285l1.503-3.964l1.425,4.016l3.964,0.363L346.197,115.001z M379.417,148.413l-2.988-1.914l-3.065,1.816l0.859-3.398
	l-2.695-2.304l3.496-0.176l1.366-3.26l1.348,3.339l3.573,0.273l-2.753,2.284L379.417,148.413z M383.478,154.075l0.664-2.538
	l-2.011-1.66l2.656-0.156l0.976-2.441l1.035,2.499l2.714,0.215l-2.109,1.64l0.664,2.558l-2.285-1.445L383.478,154.075z
	 M395.267,204.902l-1.648-0.845l-1.746,0.845l0.549-1.465l-1.506-1.056l1.957-0.112l0.746-1.521l0.719,1.549l1.985,0.112
	l-1.549,1.069L395.267,204.902z M397.514,173.685l-4.178-2.435l-4.147,2.345l1.202-4.358l-3.787-2.975l4.899-0.271l1.893-4.329
	l1.834,4.418l4.869,0.331l-3.757,2.885L397.514,173.685z M396.971,133.065l1.015,4.12l-3.632-2.304l-3.651,2.206l1.035-4.139
	l-3.222-2.734l4.296-0.254l1.62-4.061l1.601,4.14l4.277,0.253L396.971,133.065z M409.682,148.022l-3.554-2.226l-3.651,2.167
	L403.57,144l-3.182-2.695l4.198-0.254l1.679-3.964l1.522,4.003l4.258,0.215L408.706,144L409.682,148.022z M418.755,181.814
	l-3.021,1.667l0.963-2.994l-2.524-1.952l3.437-0.286l1.405-3.046l1.172,2.968l3.384,0.104l-2.707,2.136l0.678,2.862L418.755,181.814
	z M430.73,196.056l-3.072-1.511l-3.41,1.797l1.146-3.124l-2.838-2.005l3.931-0.416l1.72-3.176l1.145,3.098l3.775-0.027l-3.072,2.267
	L430.73,196.056z M441.743,184.914l-2.577-1.433l-2.864,1.744l1.094-2.915l-2.395-1.771l3.228-0.416l1.484-2.916l0.988,2.759
	l3.124-0.026l-2.576,2.083L441.743,184.914z M452.34,200.665l-2.239-0.938l-2.708,1.562l1.093-2.5l-1.978-1.354l2.968-0.573
	l1.51-2.525l0.677,2.291l2.838-0.183l-2.474,1.901L452.34,200.665z M454.006,188.479l0.441,3.021l-2.707-1.406l-3.255,2.031
	l1.276-3.177l-2.525-1.822l3.619-0.573l1.744-3.281l0.938,2.97l3.463-0.157L454.006,188.479z M454.738,178.512l0.427,2.781
	l-2.417-1.308l-2.843,1.794l1.079-2.919l-2.174-1.732l3.162-0.501l1.444-2.949l0.865,2.751l3.04-0.091L454.738,178.512z
	 M465.592,180.184l-2.266-1.231l-2.659,1.794l1.049-2.858l-2.006-1.657l2.948-0.53l1.444-2.889l0.775,2.66l2.873-0.168l-2.493,2.145
	L465.592,180.184z M475.807,175.107l-2.432-1.443l-3.025,2.173l1.277-3.404l-2.235-1.916l3.375-0.684l1.596-3.42l0.806,3.146
	l3.086-0.183l-2.722,2.522L475.807,175.107z M481.553,166.2l-2.356-1.521l-2.948,2.174l1.185-3.466l-2.234-2.036l3.299-0.639
	l1.551-3.45l0.836,3.222l3.069-0.167l-2.704,2.584L481.553,166.2z M492.132,154.708l-1.839-1.322l-2.312,1.839l0.943-3.01
	l-1.718-1.733l2.554-0.517l1.216-2.994l0.623,2.827l2.371-0.106l-2.037,2.113L492.132,154.708z"/>
</svg>
