
<svg version="1.1"  xmlns="http://www.w3.org/2000/svg" xmlns:xlink="http://www.w3.org/1999/xlink" x="0px" y="0px"
	 width="150.688px" height="40.75px" viewBox="0 0 150.688 40.75" enable-background="new 0 0 150.688 40.75" xml:space="preserve">
<g>
	<path d="M4.355,40.094c-0.152,0.201-0.444,0.243-0.647,0.088c-0.203-0.156-0.241-0.449-0.089-0.648
		c0.646-0.838,1.11-1.771,1.412-2.764c0.33-1.066,0.478-2.199,0.471-3.358c-0.022-3.337-1.182-5.619-2.5-8.22
		c-0.314-0.623-0.638-1.262-0.959-1.939C0.75,20.528,0,17.432,0,14.408c0.002-2.563,0.547-5.076,1.76-7.271l0,0
		c1.218-2.204,3.108-4.083,5.8-5.355C9.926,0.657,12.916,0,16.612,0.002c1.231-0.021,2.48,0.118,3.707,0.406
		c3.24,0.754,6.356,2.515,8.684,4.941c2.339,2.438,3.875,5.558,3.938,9c0.017,0.985-0.084,1.993-0.323,3.014
		c-0.129,0.86-0.062,1.092,0.158,1.845l0.036,0.116c0.497,1.348,1.092,2.424,1.569,3.287c0.474,0.861,0.842,1.527,0.926,2.111
		c0.156,1.139-0.579,1.758-3.115,2.185l0.006,0.006c0.45,0.642,0.991,1.399,0.991,2.057c0,0.572-0.313,1.007-1.171,1.145
		c0.169,0.161,0.34,0.34,0.471,0.532c0.376,0.549,0.467,1.133-0.27,1.64c-0.271,0.18-0.413,0.349-0.473,0.491
		c-0.034,0.074-0.038,0.143-0.024,0.195c0.017,0.055,0.051,0.102,0.091,0.137c0.042,0.043,0.086,0.063,0.116,0.07h0.002l0,0
		c0.245,0.021,0.411,0.166,0.501,0.407l0,0c0.067,0.185,0.081,0.461,0.033,0.782c-0.035,0.275-0.113,0.604-0.231,0.938
		c-0.363,1.047-1.116,2.213-2.212,2.396c-1.225,0.204-2.77,0.088-3.924,0.004c-0.466-0.036-0.867-0.066-1.15-0.066
		c-0.093,0-0.182,0.019-0.258,0.055c-0.131,0.059-0.249,0.171-0.33,0.324c-0.102,0.181-0.161,0.422-0.161,0.713l0,0
		c0,0.379,0.102,0.836,0.338,1.365c0.105,0.231,0.002,0.508-0.231,0.612c-0.232,0.104-0.508,0.002-0.613-0.231
		c-0.292-0.651-0.418-1.244-0.418-1.746l0,0c0-0.45,0.101-0.842,0.271-1.153c0.188-0.341,0.452-0.588,0.766-0.731
		c0.198-0.091,0.415-0.135,0.638-0.135c0.296,0,0.725,0.031,1.22,0.069c1.109,0.079,2.588,0.192,3.7,0.009
		c0.693-0.116,1.215-0.996,1.492-1.788c0.097-0.274,0.161-0.539,0.191-0.761c0.012-0.082,0.02-0.154,0.02-0.211
		c-0.131-0.055-0.266-0.133-0.378-0.237c-0.165-0.147-0.3-0.349-0.364-0.585c-0.061-0.236-0.057-0.508,0.063-0.795
		c0.125-0.294,0.374-0.6,0.805-0.895c0.14-0.1,0.114-0.229,0.03-0.351c-0.152-0.218-0.41-0.446-0.615-0.626l0,0l-0.002-0.004
		l-0.072-0.062l-0.03-0.021c-0.129-0.118-0.207-0.262-0.24-0.405c-0.004-0.016-0.01-0.032-0.012-0.049
		c-0.019-0.116-0.013-0.233,0.02-0.336c0.038-0.118,0.104-0.226,0.201-0.298c0.011-0.012,0.026-0.021,0.04-0.027
		c0.089-0.062,0.186-0.098,0.3-0.104h0.038c0.676,0,0.903-0.11,0.903-0.268c0-0.365-0.445-0.992-0.819-1.522
		c-0.165-0.235-0.321-0.452-0.437-0.646c-0.028-0.056-0.05-0.112-0.061-0.178c-0.036-0.254,0.142-0.486,0.395-0.522
		c2.424-0.334,3.128-0.664,3.053-1.246c-0.06-0.414-0.394-1.017-0.824-1.795c-0.49-0.894-1.107-2.004-1.627-3.418l0,0l-0.008-0.03
		l-0.043-0.142c-0.264-0.902-0.349-1.181-0.184-2.246c0.002-0.023,0.004-0.044,0.013-0.068c0.221-0.951,0.317-1.885,0.299-2.789
		c-0.056-3.193-1.492-6.093-3.682-8.373c-2.198-2.297-5.156-3.964-8.223-4.681c-1.16-0.269-2.335-0.404-3.485-0.385l0,0H16.62
		c-3.554-0.002-6.412,0.624-8.667,1.691C5.454,3.804,3.7,5.543,2.572,7.582H2.567l0,0c-1.133,2.05-1.643,4.408-1.645,6.826
		c0,2.88,0.719,5.841,1.961,8.451c0.315,0.668,0.637,1.304,0.947,1.914c1.37,2.703,2.574,5.069,2.595,8.631
		c0.009,1.253-0.151,2.482-0.507,3.642C5.579,38.135,5.069,39.167,4.355,40.094z"/>
	<path d="M13.806,3.164l-2.681,2.567h1.34c0.602,3.161,2.641,5.036,5.925,5.812c-1.42-1.676-3.022-3.967-2.794-5.641l1.171-0.171
		L13.806,3.164L13.806,3.164z M6.752,5.944l3.678,1.363l-1.04,0.568c0.376,1.648,2.684,3.229,4.601,4.298
		c-3.345,0.429-5.915-0.606-7.584-3.352L5.148,9.294L6.752,5.944L6.752,5.944z M21.617,2.749l2.836,2.392l-1.209-0.046
		c-0.03,2.813-1.572,4.421-4.413,5.002c1.01-1.452,2.088-3.446,1.612-4.956l-1.088-0.19L21.617,2.749L21.617,2.749z M3.075,16.035
		l3.776,1.044l-0.51-1.067c1.269-1.116,4.064-1.665,6.243-1.409c-2.464-2.304-5.147-2.354-8.114-1.104l-0.74-1.118L3.075,16.035
		L3.075,16.035z M7.722,22.891l0.61-3.86l0.74,0.897c2.058-0.173,4.97-3.191,5.234-5.775c1.173,3.561-0.704,7-3.671,8.5l0.705,1.136
		L7.722,22.891L7.722,22.891z M27.948,8.474l0.222,4.087l-0.835-1.048c-1.661,3.597-8.035,4.015-11.141,1.555
		c2.27,0.86,7.534-0.638,8.667-3.334l-0.6-1.021L27.948,8.474L27.948,8.474z M28.299,18.429l-2.132,3.037l-0.201-1.323
		c-3.229,0.824-6.901-0.524-8.373-3.981c1.915,1.771,6.078,2.149,7.73,0.913l-0.011-1.183L28.299,18.429z"/>
	<path d="M108.472,11.692h7.4l-0.009,17.871h-5.755l0.159-2.381h-5.188l-1.164,2.381h-6.309L108.472,11.692L108.472,11.692z
		 M106.587,23.465h3.56l0.533-7.454L106.587,23.465z"/>
	<path d="M136.289,11.692h14.061v4.161h-8.391v2.58h7.073v4.165h-7.073v2.801h8.729v4.164H136.29L136.289,11.692L136.289,11.692z
		 M118.037,11.692h8.252c1.249,0,2.335,0.137,3.263,0.42c0.931,0.281,1.697,0.687,2.307,1.215c0.604,0.526,1.059,1.181,1.36,1.963
		c0.305,0.782,0.456,1.68,0.456,2.697c-0.013,0.828-0.138,1.598-0.376,2.303c-0.244,0.71-0.634,1.34-1.18,1.896
		c-0.541,0.561-1.276,0.998-2.193,1.318c-0.921,0.319-2.032,0.479-3.352,0.479h-2.897v5.578h-5.64V11.692L118.037,11.692z
		 M123.677,15.854v3.966h2.441c0.621,0,1.139-0.158,1.553-0.482c0.414-0.321,0.624-0.855,0.624-1.6c0-1.255-0.98-1.885-2.941-1.885
		L123.677,15.854L123.677,15.854z M80.298,11.692h5.336l6.118,9.748l-0.189-3.972v-5.775h5.427v17.87h-5.336l-6.113-9.742
		l0.187,4.066v5.676h-5.428L80.298,11.692L80.298,11.692z M61.266,11.692h5.668v10.751c0,0.74,0.08,1.343,0.249,1.806
		c0.169,0.467,0.443,0.817,0.819,1.048c0.38,0.234,0.896,0.35,1.539,0.35c0.959,0,1.641-0.265,2.045-0.791
		c0.41-0.527,0.613-1.328,0.613-2.41V11.692h5.667v10.16c0,1.471-0.177,2.729-0.541,3.775c-0.363,1.055-0.892,1.908-1.593,2.553
		c-0.7,0.65-1.561,1.125-2.583,1.426c-1.02,0.302-2.207,0.449-3.56,0.449c-1.36,0-2.553-0.147-3.574-0.439s-1.886-0.764-2.596-1.407
		c-0.71-0.651-1.247-1.498-1.609-2.549c-0.364-1.056-0.545-2.322-0.545-3.808V11.692L61.266,11.692z M45.38,11.692h13.417v4.161
		H51.05v3.244h6.146v4.165H51.05v6.301h-5.67V11.692z"/>
	<path d="M45.773,37.266v-4.197h2.985v0.738h-2.106v0.947h1.845v0.741h-1.845v1.771H45.773L45.773,37.266z M52.077,34.154v3.111
		h-0.771v-0.433h-0.016c-0.097,0.165-0.226,0.287-0.389,0.379c-0.165,0.091-0.349,0.133-0.559,0.133
		c-0.32,0-0.576-0.098-0.771-0.284c-0.196-0.194-0.292-0.479-0.292-0.856v-2.05h0.826v1.928c0,0.385,0.173,0.577,0.523,0.577
		c0.103,0,0.203-0.021,0.301-0.066c0.095-0.046,0.173-0.122,0.238-0.228c0.066-0.108,0.096-0.243,0.096-0.414v-1.797H52.077
		L52.077,34.154z M52.838,37.266v-3.111h0.791v0.455h0.011c0.2-0.357,0.512-0.537,0.932-0.537c0.226,0,0.417,0.037,0.579,0.121
		c0.165,0.084,0.288,0.201,0.376,0.359c0.089,0.156,0.135,0.342,0.135,0.559v2.154h-0.824v-1.882c0-0.192-0.034-0.345-0.093-0.454
		c-0.064-0.111-0.211-0.168-0.444-0.168c-0.222,0-0.382,0.072-0.485,0.208c-0.103,0.138-0.152,0.308-0.152,0.513v1.783H52.838
		L52.838,37.266z M56.228,35.684c0-0.216,0.024-0.42,0.081-0.609c0.051-0.197,0.133-0.366,0.24-0.516
		c0.108-0.148,0.243-0.268,0.408-0.354c0.163-0.084,0.35-0.131,0.561-0.134c0.389,0,0.692,0.162,0.908,0.492h0.014v-1.496h0.813
		v4.197h-0.801v-0.387H58.44c-0.076,0-0.145,0.021-0.205,0.057c-0.057,0.036-0.129,0.096-0.222,0.178
		c-0.094,0.076-0.174,0.136-0.241,0.176c-0.068,0.04-0.145,0.058-0.229,0.058c-0.245,0-0.465-0.062-0.667-0.182
		c-0.199-0.118-0.351-0.308-0.469-0.56C56.291,36.355,56.228,36.047,56.228,35.684L56.228,35.684z M57.073,35.736
		c0,0.232,0.055,0.443,0.159,0.644c0.107,0.192,0.276,0.289,0.514,0.289c0.165,0,0.304-0.04,0.414-0.12
		c0.11-0.082,0.19-0.189,0.237-0.324c0.051-0.135,0.076-0.281,0.076-0.439c0-0.674-0.233-1.004-0.706-1.004
		c-0.241,0-0.418,0.089-0.528,0.271C57.128,35.232,57.073,35.458,57.073,35.736L57.073,35.736z M59.771,36.456
		c0-0.312,0.083-0.548,0.254-0.706c0.171-0.16,0.389-0.26,0.653-0.3l0.752-0.11c0.177-0.027,0.266-0.104,0.266-0.229
		c0-0.254-0.163-0.381-0.49-0.381c-0.165,0-0.288,0.029-0.38,0.09c-0.091,0.062-0.144,0.178-0.159,0.349h-0.79
		c0.023-0.254,0.084-0.459,0.185-0.621c0.102-0.159,0.245-0.276,0.436-0.354c0.188-0.076,0.425-0.116,0.71-0.12
		c0.372,0,0.655,0.053,0.845,0.157c0.19,0.11,0.313,0.229,0.364,0.361c0.056,0.133,0.08,0.258,0.08,0.379v1.688
		c0,0.135,0.013,0.245,0.036,0.329c0.023,0.08,0.072,0.133,0.148,0.154v0.123h-0.878c-0.047-0.148-0.071-0.271-0.08-0.369
		c-0.084,0.094-0.174,0.17-0.267,0.236c-0.093,0.065-0.199,0.114-0.312,0.152c-0.118,0.038-0.245,0.058-0.39,0.061
		c-0.158,0-0.312-0.025-0.461-0.08c-0.147-0.059-0.273-0.152-0.374-0.291C59.82,36.842,59.771,36.668,59.771,36.456L59.771,36.456z
		 M61.697,35.748c-0.067,0.057-0.169,0.1-0.298,0.127c-0.131,0.027-0.26,0.055-0.387,0.082c-0.132,0.025-0.232,0.076-0.305,0.145
		c-0.076,0.062-0.111,0.172-0.111,0.314c0,0.111,0.035,0.198,0.111,0.258c0.076,0.059,0.173,0.092,0.283,0.092
		c0.101-0.01,0.211-0.033,0.312-0.072c0.109-0.045,0.202-0.109,0.276-0.2c0.078-0.091,0.116-0.205,0.116-0.345L61.697,35.748
		L61.697,35.748z M64.209,37.324c-0.294-0.04-0.521-0.141-0.694-0.299c-0.172-0.159-0.29-0.349-0.359-0.563
		c-0.065-0.215-0.097-0.438-0.097-0.668c0-0.346,0.051-0.646,0.156-0.903c0.102-0.257,0.263-0.457,0.486-0.604
		c0.224-0.144,0.503-0.213,0.841-0.213c0.19,0,0.394,0.03,0.591,0.104c0.199,0.067,0.374,0.19,0.524,0.367
		c0.15,0.176,0.236,0.415,0.26,0.715h-0.828c-0.021-0.131-0.075-0.247-0.163-0.349c-0.084-0.104-0.215-0.154-0.384-0.154
		c-0.232,0.008-0.396,0.104-0.499,0.283c-0.102,0.179-0.151,0.385-0.151,0.623c0,0.27,0.042,0.505,0.123,0.706
		c0.079,0.202,0.251,0.302,0.518,0.302c0.125,0,0.226-0.029,0.306-0.097c0.085-0.063,0.146-0.138,0.183-0.228
		c0.042-0.084,0.059-0.158,0.059-0.22h0.828c-0.004,0.103-0.031,0.214-0.076,0.345c-0.042,0.131-0.114,0.26-0.216,0.394
		c-0.104,0.132-0.241,0.243-0.42,0.336c-0.182,0.092-0.399,0.14-0.653,0.146l-0.169,0.238c0.051-0.014,0.11-0.021,0.178-0.021
		c0.118,0,0.23,0.033,0.341,0.107c0.109,0.072,0.165,0.188,0.165,0.35c0,0.168-0.065,0.311-0.201,0.42
		c-0.133,0.109-0.31,0.162-0.519,0.162c-0.113,0-0.209-0.01-0.294-0.031c-0.084-0.02-0.211-0.057-0.378-0.119l0.125-0.283
		c0.211,0.059,0.363,0.091,0.457,0.091c0.063,0,0.125-0.021,0.185-0.063c0.057-0.043,0.087-0.096,0.087-0.164
		c0-0.063-0.021-0.114-0.066-0.15c-0.042-0.036-0.097-0.053-0.158-0.053c-0.046,0-0.127,0.015-0.243,0.045l-0.109-0.114
		L64.209,37.324L64.209,37.324z M66.274,36.456c0-0.312,0.084-0.548,0.253-0.706c0.171-0.16,0.387-0.26,0.648-0.3l0.755-0.11
		c0.177-0.027,0.268-0.104,0.268-0.229c0-0.254-0.163-0.381-0.488-0.381c-0.165,0-0.292,0.029-0.384,0.09
		c-0.089,0.062-0.142,0.178-0.156,0.349h-0.79c0.021-0.254,0.084-0.459,0.185-0.621c0.104-0.159,0.248-0.276,0.438-0.354
		c0.187-0.076,0.423-0.116,0.71-0.12c0.37,0,0.651,0.053,0.842,0.157c0.193,0.11,0.312,0.229,0.367,0.361
		C68.975,34.725,69,34.85,69,34.97v1.688c0,0.135,0.01,0.244,0.034,0.328c0.023,0.08,0.072,0.134,0.146,0.154v0.123h-0.873
		c-0.052-0.147-0.076-0.271-0.084-0.367c-0.084,0.093-0.172,0.168-0.265,0.235c-0.095,0.065-0.199,0.114-0.314,0.152
		c-0.114,0.038-0.245,0.058-0.388,0.06c-0.158,0-0.314-0.025-0.463-0.08c-0.147-0.058-0.271-0.152-0.372-0.289
		C66.323,36.842,66.274,36.668,66.274,36.456L66.274,36.456z M68.199,35.748c-0.07,0.057-0.167,0.1-0.298,0.127
		s-0.258,0.055-0.389,0.082c-0.128,0.025-0.229,0.076-0.303,0.145c-0.074,0.062-0.111,0.172-0.111,0.314
		c0,0.111,0.037,0.198,0.113,0.258c0.074,0.059,0.169,0.092,0.281,0.092c0.101-0.01,0.207-0.033,0.315-0.072
		c0.109-0.045,0.197-0.109,0.278-0.2c0.074-0.091,0.112-0.205,0.112-0.345V35.748L68.199,35.748z M66.692,33.792
		c0.042-0.235,0.123-0.414,0.25-0.536c0.123-0.123,0.271-0.186,0.438-0.186c0.048,0,0.141,0.019,0.283,0.044l0.283,0.118
		c0.015,0,0.046,0.011,0.1,0.024c0.054,0.015,0.096,0.027,0.129,0.033c0.154-0.015,0.249-0.093,0.287-0.24h0.38
		c-0.057,0.249-0.139,0.429-0.244,0.534c-0.105,0.107-0.241,0.165-0.399,0.171c-0.095-0.01-0.239-0.044-0.429-0.104l-0.254-0.074
		c-0.107-0.024-0.171-0.037-0.19-0.037c-0.14,0-0.224,0.084-0.254,0.253H66.692L66.692,33.792z M71.891,35.709
		c0-0.256-0.056-0.479-0.165-0.666c-0.106-0.186-0.301-0.281-0.581-0.281c-0.286,0-0.48,0.096-0.59,0.283
		c-0.105,0.188-0.161,0.408-0.161,0.664s0.055,0.479,0.161,0.668c0.109,0.188,0.304,0.281,0.59,0.281
		c0.28,0,0.475-0.094,0.581-0.281C71.836,36.188,71.891,35.965,71.891,35.709L71.891,35.709z M69.548,35.711
		c0-0.222,0.034-0.434,0.1-0.632c0.062-0.198,0.165-0.372,0.296-0.524c0.131-0.15,0.3-0.271,0.503-0.355
		c0.201-0.085,0.435-0.127,0.702-0.127c0.241,0,0.457,0.037,0.65,0.113c0.196,0.078,0.363,0.187,0.503,0.33
		c0.138,0.142,0.245,0.316,0.317,0.516c0.076,0.205,0.112,0.432,0.112,0.681c0,0.312-0.062,0.593-0.185,0.837
		c-0.121,0.247-0.3,0.441-0.541,0.585c-0.236,0.146-0.523,0.212-0.857,0.212c-0.364,0-0.668-0.076-0.909-0.231
		c-0.239-0.159-0.415-0.361-0.524-0.608C69.604,36.254,69.548,35.991,69.548,35.711L69.548,35.711z M74.736,35.684
		c0-0.216,0.024-0.42,0.08-0.609c0.055-0.197,0.135-0.366,0.241-0.516c0.109-0.148,0.244-0.268,0.409-0.354
		c0.161-0.084,0.352-0.131,0.559-0.134c0.391,0,0.695,0.162,0.913,0.492h0.011v-1.496h0.81v4.197H76.96v-0.387h-0.011
		c-0.078,0-0.146,0.021-0.205,0.057c-0.059,0.036-0.135,0.096-0.224,0.178c-0.091,0.076-0.171,0.136-0.237,0.176
		c-0.072,0.04-0.146,0.058-0.235,0.058c-0.242,0-0.462-0.062-0.66-0.182c-0.199-0.118-0.354-0.308-0.47-0.56
		C74.799,36.355,74.74,36.047,74.736,35.684L74.736,35.684z M75.581,35.736c0,0.232,0.053,0.443,0.161,0.644
		c0.104,0.192,0.277,0.289,0.511,0.289c0.167,0,0.308-0.04,0.414-0.12c0.11-0.082,0.19-0.189,0.241-0.324s0.076-0.281,0.076-0.439
		c0-0.674-0.236-1.004-0.708-1.004c-0.241,0-0.418,0.089-0.53,0.271C75.635,35.232,75.581,35.458,75.581,35.736L75.581,35.736z
		 M78.246,35.646c0-0.274,0.051-0.535,0.149-0.773c0.102-0.239,0.267-0.432,0.485-0.579c0.229-0.149,0.513-0.222,0.858-0.222
		c0.354,0,0.643,0.08,0.857,0.238c0.216,0.162,0.371,0.369,0.465,0.627c0.091,0.258,0.138,0.539,0.138,0.847v0.146H79.06
		c0.038,0.508,0.282,0.766,0.738,0.766c0.127,0,0.237-0.033,0.334-0.103c0.099-0.062,0.161-0.146,0.19-0.235h0.843
		c-0.064,0.209-0.164,0.387-0.289,0.539c-0.131,0.146-0.287,0.26-0.474,0.336s-0.387,0.113-0.604,0.113
		C78.764,37.345,78.246,36.783,78.246,35.646L78.246,35.646z M79.094,35.407h1.269c-0.017-0.204-0.085-0.369-0.201-0.49
		c-0.111-0.116-0.26-0.173-0.433-0.173C79.359,34.744,79.148,34.965,79.094,35.407L79.094,35.407z M83.098,37.266l1.489-4.197h1.016
		l1.482,4.197h-0.955L85.864,36.4h-1.547l-0.296,0.865H83.098L83.098,37.266z M85.076,34.014l-0.53,1.67h1.069l-0.526-1.67H85.076
		L85.076,34.014z M88.341,35.784c0,0.249,0.061,0.46,0.181,0.632c0.118,0.167,0.298,0.253,0.537,0.253
		c0.237,0,0.406-0.097,0.518-0.289c0.105-0.198,0.156-0.41,0.156-0.644c0-0.273-0.056-0.504-0.165-0.685
		c-0.109-0.184-0.287-0.272-0.532-0.272C88.571,34.78,88.341,35.111,88.341,35.784L88.341,35.784z M87.569,35.482v-1.328h0.771
		v0.455h0.025c0.072,0,0.136-0.021,0.19-0.063c0.051-0.038,0.117-0.104,0.204-0.196c0.087-0.094,0.167-0.16,0.243-0.207
		s0.173-0.069,0.28-0.069c0.174,0,0.337,0.03,0.493,0.102c0.156,0.067,0.296,0.167,0.409,0.302c0.123,0.135,0.216,0.304,0.282,0.508
		c0.07,0.205,0.106,0.439,0.106,0.701c0,0.279-0.047,0.545-0.134,0.799c-0.086,0.25-0.23,0.459-0.425,0.619
		c-0.194,0.166-0.443,0.244-0.752,0.244c-0.172,0-0.317-0.021-0.428-0.067c-0.111-0.05-0.201-0.104-0.262-0.173
		c-0.06-0.062-0.119-0.146-0.178-0.237h-0.014v1.604h-0.817v-2.992H87.569z M93.303,35.709c0-0.256-0.056-0.479-0.16-0.666
		c-0.105-0.186-0.302-0.281-0.584-0.281c-0.287,0-0.481,0.096-0.589,0.283c-0.108,0.188-0.159,0.408-0.159,0.664
		s0.051,0.479,0.159,0.668c0.106,0.188,0.302,0.281,0.589,0.281c0.282,0,0.479-0.094,0.584-0.281
		C93.248,36.188,93.303,35.965,93.303,35.709L93.303,35.709z M90.964,35.711c0-0.222,0.031-0.434,0.098-0.632
		c0.065-0.198,0.165-0.372,0.296-0.524c0.134-0.15,0.298-0.271,0.501-0.355s0.438-0.127,0.704-0.127
		c0.237,0,0.454,0.037,0.647,0.113c0.198,0.078,0.365,0.187,0.503,0.33c0.141,0.142,0.249,0.316,0.321,0.516
		c0.071,0.205,0.109,0.432,0.109,0.681c0,0.312-0.062,0.593-0.183,0.837c-0.122,0.247-0.304,0.441-0.541,0.585
		c-0.239,0.146-0.522,0.212-0.858,0.212c-0.366,0-0.67-0.076-0.909-0.231c-0.238-0.159-0.416-0.361-0.526-0.608
		C91.017,36.254,90.964,35.991,90.964,35.711L90.964,35.711z M94.735,37.266v-3.111h0.824v3.111H94.735L94.735,37.266z
		 M94.735,33.787V33.02h0.824v0.768H94.735L94.735,33.787z M98.489,35.709c0-0.256-0.056-0.479-0.161-0.666
		c-0.104-0.186-0.3-0.281-0.583-0.281s-0.479,0.096-0.588,0.283s-0.162,0.408-0.162,0.664s0.053,0.479,0.162,0.668
		c0.108,0.188,0.305,0.281,0.588,0.281s0.479-0.094,0.583-0.281C98.434,36.188,98.489,35.965,98.489,35.709L98.489,35.709z
		 M96.151,35.711c0-0.222,0.03-0.434,0.093-0.632c0.068-0.198,0.167-0.372,0.301-0.524c0.131-0.15,0.298-0.271,0.498-0.355
		c0.203-0.085,0.438-0.127,0.706-0.127c0.237,0,0.454,0.037,0.649,0.113c0.195,0.078,0.36,0.187,0.503,0.33
		c0.139,0.142,0.245,0.316,0.317,0.516c0.074,0.205,0.11,0.432,0.11,0.681c0,0.312-0.062,0.593-0.18,0.837
		c-0.125,0.247-0.306,0.441-0.543,0.585c-0.237,0.146-0.524,0.212-0.858,0.212c-0.367,0-0.67-0.076-0.908-0.231
		c-0.242-0.159-0.419-0.361-0.527-0.608C96.202,36.254,96.151,35.991,96.151,35.711L96.151,35.711z M101.312,36.456
		c0-0.312,0.084-0.548,0.253-0.706c0.17-0.16,0.39-0.26,0.652-0.3l0.756-0.11c0.177-0.027,0.266-0.104,0.266-0.229
		c0-0.254-0.165-0.381-0.49-0.381c-0.165,0-0.291,0.029-0.382,0.09c-0.087,0.062-0.145,0.178-0.159,0.349h-0.79
		c0.025-0.254,0.084-0.459,0.187-0.621c0.102-0.159,0.245-0.276,0.436-0.354c0.188-0.076,0.423-0.116,0.71-0.12
		c0.372,0,0.653,0.053,0.841,0.157c0.195,0.11,0.315,0.229,0.368,0.361c0.056,0.133,0.08,0.258,0.08,0.379v1.688
		c0,0.135,0.013,0.245,0.034,0.329c0.023,0.08,0.071,0.133,0.146,0.154v0.123h-0.875c-0.05-0.148-0.074-0.271-0.084-0.369
		c-0.079,0.094-0.174,0.17-0.267,0.236c-0.093,0.065-0.198,0.114-0.312,0.152c-0.114,0.038-0.243,0.058-0.386,0.061
		c-0.159,0-0.313-0.025-0.463-0.08c-0.146-0.059-0.271-0.152-0.372-0.291C101.363,36.842,101.312,36.668,101.312,36.456
		L101.312,36.456z M103.239,35.748c-0.071,0.057-0.169,0.1-0.3,0.127c-0.127,0.027-0.258,0.055-0.39,0.082
		c-0.127,0.025-0.229,0.076-0.303,0.145c-0.076,0.062-0.111,0.172-0.111,0.314c0,0.111,0.038,0.198,0.114,0.258
		c0.073,0.059,0.169,0.092,0.282,0.092c0.102-0.01,0.205-0.033,0.313-0.072c0.106-0.045,0.202-0.109,0.277-0.2
		c0.074-0.091,0.114-0.205,0.114-0.345v-0.4H103.239z M101.883,32.98h0.893l0.558,0.856h-0.596L101.883,32.98L101.883,32.98z
		 M106.456,37.266v-4.197h1.938c0.21,0,0.392,0.033,0.552,0.102c0.161,0.066,0.296,0.158,0.403,0.281
		c0.107,0.119,0.189,0.262,0.242,0.418c0.056,0.158,0.085,0.33,0.085,0.514c0,0.399-0.102,0.725-0.305,0.982
		c-0.203,0.256-0.539,0.385-1.01,0.385h-1.023v1.516H106.456L106.456,37.266z M107.339,35.029h0.816c0.19,0,0.329-0.031,0.425-0.088
		c0.093-0.059,0.154-0.131,0.18-0.217c0.027-0.084,0.038-0.189,0.038-0.312c0-0.202-0.047-0.354-0.138-0.46
		c-0.091-0.104-0.294-0.154-0.604-0.154h-0.718V35.029L107.339,35.029z M110.049,35.646c0-0.274,0.049-0.535,0.151-0.773
		c0.1-0.239,0.263-0.432,0.486-0.579c0.222-0.149,0.51-0.222,0.854-0.222c0.355,0,0.644,0.08,0.86,0.238
		c0.216,0.162,0.37,0.369,0.463,0.627s0.14,0.539,0.14,0.847v0.146h-2.143c0.038,0.508,0.283,0.766,0.743,0.766
		c0.123,0,0.236-0.033,0.33-0.103c0.1-0.062,0.163-0.146,0.193-0.235h0.841c-0.066,0.209-0.163,0.387-0.291,0.539
		c-0.129,0.146-0.287,0.26-0.474,0.336c-0.182,0.076-0.385,0.113-0.601,0.113C110.564,37.345,110.049,36.783,110.049,35.646
		L110.049,35.646z M110.894,35.407h1.271c-0.02-0.204-0.085-0.369-0.201-0.49c-0.117-0.116-0.26-0.173-0.431-0.173
		C111.164,34.744,110.953,34.965,110.894,35.407L110.894,35.407z M113.335,36.271h0.848c0,0.307,0.225,0.459,0.67,0.459
		c0.18,0,0.312-0.037,0.396-0.101c0.087-0.063,0.131-0.137,0.131-0.215c0-0.116-0.115-0.205-0.349-0.263
		c-0.23-0.062-0.463-0.12-0.703-0.176c-0.241-0.056-0.444-0.147-0.617-0.276c-0.174-0.13-0.258-0.325-0.258-0.591
		c0-0.195,0.046-0.37,0.139-0.529c0.093-0.156,0.233-0.28,0.424-0.372c0.189-0.093,0.425-0.138,0.706-0.138
		c0.371,0,0.66,0.058,0.865,0.17c0.203,0.113,0.339,0.244,0.406,0.393c0.067,0.15,0.105,0.305,0.116,0.463h-0.811
		c-0.022-0.126-0.068-0.224-0.144-0.291c-0.076-0.072-0.212-0.102-0.41-0.102c-0.33,0-0.492,0.097-0.492,0.289
		c0,0.104,0.112,0.188,0.332,0.242c0.227,0.059,0.46,0.115,0.714,0.172c0.249,0.06,0.461,0.15,0.64,0.281
		c0.175,0.129,0.266,0.326,0.266,0.584c0,0.222-0.055,0.416-0.169,0.573c-0.109,0.165-0.269,0.29-0.474,0.376
		c-0.205,0.084-0.445,0.123-0.719,0.123c-0.21,0-0.405-0.021-0.588-0.062c-0.182-0.042-0.343-0.109-0.478-0.196
		c-0.136-0.089-0.245-0.201-0.321-0.336C113.379,36.616,113.337,36.456,113.335,36.271L113.335,36.271z M117.455,35.771
		c0,0.594,0.237,0.888,0.704,0.888c0.207,0,0.37-0.081,0.494-0.237c0.127-0.154,0.188-0.389,0.188-0.695
		c0-0.256-0.04-0.453-0.129-0.596c-0.085-0.146-0.182-0.236-0.287-0.283c-0.107-0.047-0.202-0.066-0.287-0.066
		c-0.189,0-0.354,0.076-0.483,0.224C117.521,35.156,117.455,35.41,117.455,35.771L117.455,35.771z M116.608,35.771
		c0-0.355,0.059-0.66,0.177-0.918c0.117-0.256,0.279-0.453,0.486-0.584c0.212-0.133,0.445-0.197,0.708-0.197
		c0.391,0,0.679,0.182,0.861,0.549h0.016v-0.467h0.79v4.318h-0.826v-1.595h-0.015c-0.165,0.312-0.456,0.467-0.875,0.467
		c-0.283,0-0.528-0.069-0.728-0.22c-0.201-0.15-0.351-0.343-0.448-0.588C116.659,36.296,116.608,36.043,116.608,35.771
		L116.608,35.771z M123.168,34.154v3.111h-0.777v-0.433h-0.014c-0.097,0.165-0.224,0.287-0.389,0.379
		c-0.162,0.091-0.351,0.133-0.554,0.133c-0.321,0-0.579-0.098-0.773-0.284c-0.194-0.194-0.291-0.479-0.291-0.856v-2.05h0.824v1.928
		c0,0.385,0.173,0.577,0.528,0.577c0.099,0,0.197-0.021,0.295-0.066s0.176-0.122,0.24-0.228c0.063-0.108,0.099-0.243,0.099-0.414
		v-1.797H123.168L123.168,34.154z M123.949,37.266v-3.111h0.824v3.111H123.949L123.949,37.266z M123.949,33.787V33.02h0.824v0.768
		H123.949L123.949,33.787z M125.34,36.271h0.847c0,0.307,0.226,0.459,0.674,0.459c0.18,0,0.311-0.037,0.396-0.101
		c0.084-0.063,0.129-0.137,0.129-0.215c0-0.116-0.115-0.205-0.347-0.263c-0.229-0.062-0.467-0.12-0.704-0.176
		s-0.444-0.147-0.616-0.276c-0.174-0.13-0.261-0.325-0.261-0.591c0-0.195,0.047-0.37,0.143-0.529
		c0.089-0.156,0.231-0.28,0.423-0.372c0.188-0.093,0.425-0.138,0.702-0.138c0.378,0,0.667,0.058,0.869,0.17
		c0.203,0.113,0.339,0.244,0.406,0.393c0.065,0.15,0.105,0.305,0.113,0.463h-0.812c-0.019-0.126-0.066-0.224-0.144-0.291
		c-0.076-0.072-0.209-0.102-0.403-0.102c-0.33,0-0.499,0.097-0.499,0.289c0,0.104,0.114,0.188,0.339,0.242
		c0.223,0.059,0.458,0.115,0.707,0.172c0.25,0.06,0.467,0.15,0.644,0.281c0.178,0.129,0.265,0.326,0.265,0.584
		c0,0.222-0.058,0.416-0.167,0.573c-0.109,0.165-0.271,0.29-0.476,0.376c-0.205,0.084-0.443,0.123-0.721,0.123
		c-0.207,0-0.405-0.021-0.583-0.062c-0.188-0.042-0.344-0.109-0.479-0.196c-0.138-0.089-0.243-0.201-0.321-0.336
		C125.385,36.616,125.345,36.456,125.34,36.271L125.34,36.271z M128.591,36.456c0-0.312,0.086-0.548,0.259-0.706
		c0.167-0.16,0.384-0.26,0.647-0.3l0.752-0.11c0.178-0.027,0.27-0.104,0.27-0.229c0-0.254-0.165-0.381-0.49-0.381
		c-0.165,0-0.292,0.029-0.38,0.09c-0.089,0.062-0.146,0.178-0.163,0.349h-0.788c0.022-0.254,0.086-0.459,0.186-0.621
		c0.103-0.159,0.247-0.276,0.437-0.354c0.188-0.076,0.425-0.116,0.71-0.12c0.372,0,0.651,0.053,0.843,0.157
		c0.192,0.11,0.315,0.229,0.37,0.361c0.051,0.133,0.078,0.258,0.078,0.379v1.688c0,0.135,0.011,0.245,0.032,0.329
		c0.024,0.08,0.07,0.133,0.146,0.154v0.123h-0.875c-0.046-0.148-0.076-0.271-0.08-0.369c-0.084,0.094-0.173,0.17-0.269,0.236
		c-0.093,0.065-0.198,0.114-0.312,0.152c-0.115,0.038-0.242,0.058-0.389,0.061c-0.159,0-0.311-0.025-0.459-0.08
		c-0.147-0.059-0.274-0.152-0.372-0.291C128.644,36.842,128.591,36.668,128.591,36.456L128.591,36.456z M130.518,35.748
		c-0.067,0.057-0.169,0.1-0.301,0.127c-0.129,0.027-0.258,0.055-0.385,0.082c-0.131,0.025-0.231,0.076-0.305,0.145
		c-0.076,0.062-0.114,0.172-0.114,0.314c0,0.111,0.038,0.198,0.114,0.258c0.076,0.059,0.169,0.092,0.285,0.092
		c0.1-0.01,0.205-0.033,0.312-0.072c0.107-0.045,0.2-0.109,0.276-0.2s0.114-0.205,0.114-0.345v-0.4H130.518z M133.446,36.011v-0.769
		h1.636v0.769H133.446L133.446,36.011z M137.27,35.875v-2.807h0.894v2.726c0,0.203,0.038,0.37,0.114,0.497
		c0.072,0.127,0.165,0.218,0.279,0.27c0.113,0.057,0.231,0.08,0.358,0.08c0.559,0,0.841-0.271,0.841-0.811v-2.762h0.898v2.762
		c0,0.292-0.045,0.539-0.138,0.742c-0.09,0.205-0.211,0.365-0.372,0.482c-0.154,0.116-0.334,0.199-0.541,0.25
		c-0.202,0.053-0.423,0.076-0.659,0.076c-0.296-0.005-0.566-0.058-0.815-0.15c-0.254-0.098-0.461-0.256-0.616-0.479
		C137.35,36.53,137.27,36.236,137.27,35.875L137.27,35.875z M141.513,37.266v-4.197h2.989v0.738h-2.107v0.947h1.847v0.741h-1.847
		v1.771H141.513L141.513,37.266z M144.888,35.145c0.013-0.309,0.062-0.586,0.144-0.848c0.085-0.262,0.21-0.49,0.374-0.691
		c0.167-0.201,0.383-0.357,0.641-0.473c0.259-0.115,0.566-0.173,0.922-0.173c0.016,0,0.035,0.004,0.071,0.004
		c0.034,0,0.055,0.002,0.074,0.002c0.316,0.013,0.603,0.085,0.852,0.22c0.255,0.141,0.446,0.312,0.589,0.524
		c0.142,0.211,0.22,0.431,0.235,0.657h-0.875c-0.011-0.083-0.055-0.18-0.127-0.285c-0.076-0.107-0.184-0.201-0.323-0.279
		c-0.135-0.078-0.298-0.117-0.479-0.117c-0.131,0-0.268,0.022-0.401,0.068c-0.136,0.045-0.265,0.125-0.387,0.237
		c-0.121,0.11-0.218,0.268-0.296,0.469c-0.074,0.201-0.112,0.448-0.112,0.737c0,0.316,0.045,0.578,0.136,0.783
		c0.094,0.207,0.216,0.357,0.365,0.457c0.154,0.1,0.33,0.164,0.526,0.189c0.071,0.012,0.122,0.012,0.156,0.012
		c0.171,0,0.328-0.035,0.469-0.098c0.144-0.068,0.267-0.172,0.368-0.309c0.097-0.139,0.173-0.312,0.218-0.521h-0.973v-0.71h1.747
		v2.263h-0.582l-0.09-0.527c-0.142,0.179-0.288,0.312-0.436,0.408s-0.3,0.156-0.452,0.188s-0.325,0.047-0.52,0.047
		c-0.237-0.007-0.466-0.062-0.689-0.158c-0.218-0.105-0.414-0.252-0.587-0.445c-0.174-0.194-0.312-0.428-0.41-0.707
		C144.938,35.793,144.888,35.486,144.888,35.145z"/>
</g>
</svg>
