<svg version="1.1" xmlns="http://www.w3.org/2000/svg" xmlns:xlink="http://www.w3.org/1999/xlink" x="0px" y="0px"
	 width="188.559px" height="174.771px" viewBox="0 0 188.559 174.771" enable-background="new 0 0 188.559 174.771"
	 xml:space="preserve">
<g>
	<g>
		<path fill="#A6D7BD" d="M24.118,97.824v10.049H10.193v65.463H0V32.506h26.342v9.978H10.193v55.34H24.118z"/>
		<path fill="#A6D7BD" d="M33.586,51.057h10.193v122.279H33.586V51.057z M42.753,44.123h-8.45l5.098-10.845h9.619L42.753,44.123z"/>
		<path fill="#A6D7BD" d="M65.097,127.039v32.874c0,3.207,1.485,4.81,4.452,4.81c2.918,0,4.377-1.603,4.377-4.81v-42.492
			c0-3.397-3.157-7.369-9.476-11.916c-6.364-4.497-9.547-10.001-9.547-16.509V45.857c0-9.857,4.859-14.787,14.571-14.787
			c9.763,0,14.645,4.929,14.645,14.787v33.018H73.926V45.857c0-3.159-1.459-4.737-4.377-4.737h-0.074
			c-2.919,0-4.378,1.579-4.378,4.737V88.78c0,3.159,3.158,7.011,9.476,11.557c6.364,4.499,9.547,9.905,9.547,16.222v43.354
			c0,9.905-4.86,14.858-14.571,14.858c-9.764-0.049-14.645-5-14.645-14.858v-32.874H65.097z"/>
		<path fill="#A6D7BD" d="M95.244,32.506h10.195v140.83H95.244V32.506z"/>
		<path fill="#A6D7BD" d="M136.304,78.875V45.93c0-3.159-1.459-4.738-4.378-4.738h-0.073c-2.92,0-4.379,1.58-4.379,4.738v113.983
			c0,3.207,1.459,4.81,4.379,4.81c2.967,0,4.451-1.603,4.451-4.81v-32.874h10.193v32.874c0,9.858-4.881,14.81-14.645,14.858
			c-9.713,0-14.568-4.953-14.568-14.858V45.93c0-9.858,4.855-14.787,14.568-14.787c9.764,0,14.645,4.929,14.645,14.787v32.946
			H136.304z"/>
		<path fill="#A6D7BD" d="M166.164,137.877l-2.224,35.459h-10.268l3.305-49.814l7.176-91.016h13.925l7.179,90.872l3.302,49.958
			h-10.263l-2.225-35.459H166.164z M175.494,127.828l-4.378-70.127l-4.379,70.127H175.494z"/>
	</g>
	<g>
		<path fill="#0090A7" d="M0.247,0.225h2.301V11.23h6.889v2.096h-9.19V0.225z"/>
		<path fill="#0090A7" d="M12.093,0.225h2.302v13.102h-2.302V0.225z"/>
		<path fill="#0090A7" d="M17.446,6.813V6.775C17.446,3.051,20.235,0,24.203,0c2.415,0,3.875,0.842,5.128,2.04l-1.479,1.704
			c-1.048-0.974-2.171-1.628-3.668-1.628c-2.508,0-4.324,2.059-4.324,4.623v0.037c0,2.564,1.816,4.661,4.324,4.661
			c1.609,0,2.639-0.655,3.761-1.704l1.479,1.498c-1.367,1.422-2.864,2.32-5.316,2.32C20.292,13.551,17.446,10.575,17.446,6.813z"/>
		<path fill="#0090A7" d="M31.969,0.225h9.714v2.059h-7.412V5.69h6.569v2.059h-6.569v3.518h7.505v2.06h-9.808V0.225z"/>
		<path fill="#0090A7" d="M44.64,0.225h2.134l7.02,9.059V0.225h2.264v13.102H54.13l-7.225-9.321v9.321H44.64V0.225z"/>
		<path fill="#0090A7" d="M58.978,6.813V6.775C58.978,3.051,61.767,0,65.735,0c2.414,0,3.874,0.842,5.127,2.04l-1.479,1.704
			c-1.048-0.974-2.17-1.628-3.668-1.628c-2.508,0-4.324,2.059-4.324,4.623v0.037c0,2.564,1.815,4.661,4.324,4.661
			c1.61,0,2.639-0.655,3.762-1.704l1.479,1.498c-1.367,1.422-2.865,2.32-5.316,2.32C61.822,13.551,58.978,10.575,58.978,6.813z"/>
		<path fill="#0090A7" d="M73.632,0.225h2.302v13.102h-2.302V0.225z"/>
		<path fill="#0090A7" d="M84.207,0.131h2.135l5.764,13.196h-2.433l-1.33-3.164h-6.194L80.8,13.327h-2.358L84.207,0.131z
			 M87.5,8.123l-2.264-5.241L82.99,8.123H87.5z"/>
		<path fill="#0090A7" d="M96.017,2.358h-4.155V0.225h10.632v2.134h-4.157v10.968h-2.32V2.358z"/>
		<path fill="#0090A7" d="M104.852,7.767V0.225h2.303v7.449c0,2.434,1.255,3.744,3.313,3.744c2.04,0,3.295-1.235,3.295-3.65V0.225
			h2.302v7.431c0,3.911-2.209,5.876-5.634,5.876C107.023,13.532,104.852,11.567,104.852,7.767z"/>
		<path fill="#0090A7" d="M119.358,0.225h5.839c1.647,0,2.938,0.487,3.78,1.31c0.693,0.711,1.086,1.685,1.086,2.827v0.038
			c0,2.152-1.291,3.444-3.125,3.967l3.537,4.96h-2.714l-3.22-4.567h-2.882v4.567h-2.302V0.225z M125.028,6.719
			c1.648,0,2.695-0.86,2.695-2.19V4.492c0-1.404-1.01-2.171-2.713-2.171h-3.351v4.398H125.028z"/>
		<path fill="#0090A7" d="M137.662,0.131h2.134l5.766,13.196h-2.434l-1.33-3.164h-6.195l-1.347,3.164h-2.358L137.662,0.131z
			 M140.956,8.123l-2.264-5.241l-2.246,5.241H140.956z"/>
		<path fill="#0090A7" d="M153.684,0.225h9.714v2.059h-7.412V5.69h6.57v2.059h-6.57v3.518h7.506v2.06h-9.808V0.225z"/>
		<path fill="#0090A7" d="M166.354,0.225h2.453l3.985,6.195l3.988-6.195h2.451v13.102h-2.303V3.93l-4.137,6.177h-0.073l-4.1-6.14
			v9.359h-2.266V0.225z"/>
	</g>
</g>
</svg>
