<?xml version="1.0" encoding="utf-8"?>
<!-- Generator: Adobe Illustrator 16.0.0, SVG Export Plug-In . SVG Version: 6.00 Build 0)  -->
<!DOCTYPE svg PUBLIC "-//W3C//DTD SVG 1.1//EN" "http://www.w3.org/Graphics/SVG/1.1/DTD/svg11.dtd">
<svg version="1.1" id="Layer_1" xmlns="http://www.w3.org/2000/svg" xmlns:xlink="http://www.w3.org/1999/xlink" x="0px" y="0px"
	 width="123.716px" height="90.2px" viewBox="0 0 123.716 90.2" enable-background="new 0 0 123.716 90.2" xml:space="preserve">
<g>
	<g id="_89532688_4_">
		<g>
			<polygon id="_82476968_4_" points="116.706,20.355 123.073,23.972 123.126,31.293 116.812,34.998 110.444,31.382 110.392,24.062 
							"/>
			<polygon id="_86965000_4_" points="109.749,50.803 117.302,46.369 117.239,37.613 109.624,33.287 102.073,37.719 102.134,46.478 
							"/>
			<polygon id="_88034432_4_" points="95.904,35.486 100.831,38.283 100.87,43.948 95.985,46.815 91.059,44.018 91.017,38.353 			
				"/>
			<polygon id="_47328696_4_" points="83.963,20.395 91.516,24.683 91.577,33.369 84.087,37.766 76.537,33.477 76.475,24.791 			"/>
			<polygon id="_89512712_4_" points="91.609,8.742 97.723,12.215 97.774,19.245 91.712,22.803 85.597,19.332 85.547,12.301 			"/>
			<polygon id="_89899192_4_" points="110.218,22.725 120.017,16.974 119.937,5.611 110.054,0 100.254,5.754 100.335,17.114 			"/>
		</g>
		<g enable-background="new    ">
			<path d="M80.941,55.834v9.915c0,2.997,1.151,4.509,3.124,4.509c2.051,0,3.178-1.434,3.178-4.509v-9.915h3.895v9.685
				c0,5.329-2.69,7.865-7.199,7.865c-4.354,0-6.892-2.434-6.892-7.917v-9.633H80.941z"/>
			<path d="M94.542,55.834h10.529v3.203h-6.635v3.945h6.199v3.177h-6.199v6.942h-3.895V55.834z"/>
			<path d="M122.44,72.308c-1.205,0.41-3.484,0.974-5.766,0.974c-3.15,0-5.432-0.794-7.02-2.306
				c-1.562-1.512-2.434-3.767-2.434-6.302c0.025-5.739,4.201-9.019,9.863-9.019c2.229,0,3.945,0.436,4.791,0.819l-0.82,3.151
				c-0.947-0.436-2.1-0.743-3.996-0.743c-3.254,0-5.738,1.846-5.738,5.586c0,3.586,2.254,5.662,5.457,5.662
				c0.871,0,1.588-0.104,1.895-0.231v-3.638h-2.664v-3.049h6.432V72.308z"/>
		</g>
		<g enable-background="new    ">
			<path d="M76.416,80.365v2.158c0,0.725,0.303,1.061,0.759,1.061c0.489,0,0.78-0.336,0.78-1.061v-2.158h0.676v2.114
				c0,1.143-0.588,1.647-1.479,1.647c-0.856,0-1.411-0.478-1.411-1.643v-2.119H76.416z"/>
		</g>
		<g enable-background="new    ">
			<path d="M80.554,84.066v-3.701h0.773l0.955,1.587c0.242,0.411,0.462,0.841,0.633,1.241h0.011
				c-0.05-0.494-0.061-0.973-0.061-1.538v-1.29h0.626v3.701h-0.703l-0.967-1.631c-0.236-0.406-0.478-0.857-0.659-1.274l-0.022,0.005
				c0.028,0.479,0.039,0.967,0.039,1.577v1.323H80.554z"/>
		</g>
		<g enable-background="new    ">
			<path d="M86.103,80.365v3.701h-0.676v-3.701H86.103z"/>
		</g>
		<g enable-background="new    ">
			<path d="M88.846,84.066l-1.197-3.701h0.735l0.506,1.686c0.143,0.467,0.27,0.896,0.363,1.346h0.01c0.1-0.439,0.236-0.89,0.38-1.34
				l0.538-1.691h0.72l-1.28,3.701H88.846z"/>
		</g>
		<g enable-background="new    ">
			<path d="M94.394,82.424h-1.396v1.088h1.561v0.555h-2.235v-3.701h2.152v0.555h-1.478v0.955h1.396V82.424z"/>
		</g>
		<g enable-background="new    ">
			<path d="M96.283,80.42c0.258-0.05,0.632-0.083,1.021-0.083c0.533,0,0.89,0.088,1.143,0.297c0.203,0.171,0.319,0.429,0.319,0.747
				c0,0.479-0.324,0.802-0.676,0.923v0.017c0.269,0.099,0.428,0.357,0.516,0.714c0.121,0.462,0.22,0.89,0.291,1.032h-0.691
				c-0.055-0.109-0.148-0.412-0.248-0.873c-0.109-0.483-0.279-0.637-0.664-0.648h-0.341v1.521h-0.67V80.42z M96.953,82.051h0.401
				c0.455,0,0.736-0.242,0.736-0.609c0-0.401-0.281-0.594-0.721-0.594c-0.214,0-0.352,0.017-0.417,0.033V82.051z"/>
		</g>
		<g enable-background="new    ">
			<path d="M100.483,83.33c0.215,0.127,0.549,0.236,0.896,0.236c0.428,0,0.67-0.203,0.67-0.505c0-0.28-0.188-0.444-0.654-0.615
				c-0.615-0.22-1.005-0.544-1.005-1.077c0-0.609,0.505-1.064,1.313-1.064c0.4,0,0.691,0.088,0.883,0.186l-0.158,0.545
				c-0.139-0.072-0.396-0.176-0.742-0.176c-0.428,0-0.609,0.225-0.609,0.444c0,0.286,0.215,0.417,0.709,0.61
				c0.643,0.241,0.949,0.565,0.949,1.098c0,0.6-0.449,1.115-1.4,1.115c-0.395,0-0.802-0.109-1.005-0.236L100.483,83.33z"/>
		</g>
		<g enable-background="new    ">
			<path d="M105.136,80.365v3.701h-0.676v-3.701H105.136z"/>
		</g>
		<g enable-background="new    ">
			<path d="M107.032,80.414c0.301-0.044,0.676-0.077,1.076-0.077c0.691,0,1.164,0.144,1.506,0.429
				c0.361,0.291,0.582,0.736,0.582,1.362c0,0.665-0.227,1.153-0.578,1.472c-0.367,0.336-0.955,0.506-1.674,0.506
				c-0.391,0-0.688-0.021-0.912-0.049V80.414z M107.708,83.557c0.094,0.016,0.236,0.016,0.373,0.016
				c0.879,0.006,1.4-0.482,1.4-1.422c0.006-0.813-0.467-1.286-1.312-1.286c-0.215,0-0.363,0.017-0.461,0.038V83.557z"/>
		</g>
		<g enable-background="new    ">
			<path d="M112.69,83.018l-0.318,1.049h-0.699l1.188-3.701h0.861l1.203,3.701h-0.73l-0.334-1.049H112.69z M113.751,82.507
				l-0.293-0.911c-0.07-0.227-0.131-0.479-0.186-0.693h-0.012c-0.055,0.215-0.115,0.473-0.176,0.693l-0.285,0.911H113.751z"/>
		</g>
		<g enable-background="new    ">
			<path d="M116.567,80.414c0.301-0.044,0.674-0.077,1.076-0.077c0.691,0,1.164,0.144,1.504,0.429
				c0.363,0.291,0.584,0.736,0.584,1.362c0,0.665-0.227,1.153-0.578,1.472c-0.367,0.336-0.955,0.506-1.676,0.506
				c-0.389,0-0.686-0.021-0.91-0.049V80.414z M117.241,83.557c0.094,0.016,0.236,0.016,0.375,0.016c0.879,0.006,1.4-0.482,1.4-1.422
				c0.006-0.813-0.467-1.286-1.312-1.286c-0.215,0-0.363,0.017-0.463,0.038V83.557z"/>
		</g>
		<g enable-background="new    ">
			<path d="M123.552,82.424h-1.396v1.088h1.561v0.555h-2.236v-3.701h2.154v0.555h-1.479v0.955h1.396V82.424z"/>
		</g>
		<g enable-background="new    ">
			<path d="M75.746,86.297h2.143v0.555h-1.467v1.021h1.362v0.549h-1.362v1.576h-0.676V86.297z"/>
			<path d="M80.721,88.355h-1.395v1.088h1.56v0.555H78.65v-3.701h2.153v0.555h-1.478v0.955h1.395V88.355z"/>
			<path d="M81.586,86.346c0.302-0.044,0.676-0.077,1.077-0.077c0.691,0,1.164,0.144,1.504,0.429
				c0.363,0.291,0.583,0.736,0.583,1.362c0,0.665-0.226,1.153-0.577,1.472c-0.367,0.336-0.955,0.506-1.676,0.506
				c-0.39,0-0.686-0.021-0.911-0.049V86.346z M82.262,89.488c0.093,0.016,0.235,0.016,0.373,0.016
				c0.879,0.006,1.401-0.482,1.401-1.422c0.005-0.813-0.467-1.286-1.313-1.286c-0.214,0-0.362,0.017-0.461,0.038V89.488z"/>
			<path d="M87.516,88.355H86.12v1.088h1.561v0.555h-2.236v-3.701h2.154v0.555H86.12v0.955h1.396V88.355z"/>
			<path d="M88.382,86.352c0.258-0.05,0.631-0.083,1.021-0.083c0.532,0,0.89,0.088,1.143,0.297c0.203,0.171,0.318,0.429,0.318,0.747
				c0,0.479-0.324,0.802-0.676,0.923v0.017c0.27,0.099,0.429,0.357,0.517,0.714c0.12,0.462,0.22,0.89,0.291,1.032h-0.692
				c-0.055-0.109-0.148-0.412-0.247-0.873c-0.11-0.483-0.28-0.637-0.665-0.648h-0.34v1.521h-0.67V86.352z M89.052,87.982h0.4
				c0.456,0,0.736-0.242,0.736-0.609c0-0.401-0.28-0.594-0.72-0.594c-0.214,0-0.352,0.017-0.417,0.033V87.982z"/>
			<path d="M92.395,88.949l-0.319,1.049h-0.697l1.187-3.701h0.862l1.203,3.701h-0.73l-0.335-1.049H92.395z M93.454,88.438
				l-0.291-0.911c-0.071-0.227-0.132-0.479-0.187-0.693h-0.011c-0.055,0.215-0.115,0.473-0.176,0.693l-0.286,0.911H93.454z"/>
			<path d="M95.253,86.297h0.676v3.136h1.521v0.565h-2.197V86.297z"/>
		</g>
		<g enable-background="new    ">
			<path d="M100.099,86.346c0.301-0.044,0.676-0.077,1.076-0.077c0.691,0,1.164,0.144,1.504,0.429
				c0.363,0.291,0.584,0.736,0.584,1.362c0,0.665-0.227,1.153-0.578,1.472c-0.367,0.336-0.955,0.506-1.676,0.506
				c-0.389,0-0.686-0.021-0.91-0.049V86.346z M100.774,89.488c0.093,0.016,0.234,0.016,0.373,0.016c0.879,0.006,1.4-0.482,1.4-1.422
				c0.006-0.813-0.467-1.286-1.312-1.286c-0.215,0-0.363,0.017-0.461,0.038V89.488z"/>
			<path d="M105.917,88.355h-1.395v1.088h1.561v0.555h-2.236v-3.701h2.154v0.555h-1.479v0.955h1.395V88.355z"/>
		</g>
		<g enable-background="new    ">
			<path d="M111.946,89.828c-0.236,0.088-0.697,0.209-1.188,0.209c-0.625,0-1.104-0.16-1.455-0.494
				c-0.33-0.313-0.516-0.803-0.516-1.363c0.004-1.175,0.834-1.922,2.059-1.922c0.457,0,0.814,0.094,0.984,0.176l-0.148,0.543
				c-0.203-0.093-0.451-0.158-0.842-0.158c-0.791,0-1.346,0.467-1.346,1.329c0,0.841,0.518,1.341,1.287,1.341
				c0.246,0,0.422-0.033,0.51-0.072v-0.928h-0.654v-0.533h1.309V89.828z"/>
			<path d="M115.921,88.109c0,1.24-0.754,1.949-1.77,1.949c-1.049,0-1.709-0.802-1.709-1.884c0-1.143,0.721-1.944,1.764-1.944
				C115.282,86.23,115.921,87.049,115.921,88.109z M113.157,88.158c0,0.758,0.379,1.357,1.027,1.357c0.654,0,1.021-0.61,1.021-1.385
				c0-0.697-0.346-1.357-1.021-1.357C113.515,86.773,113.157,87.395,113.157,88.158z"/>
			<path d="M117.175,86.297v3.701h-0.676v-3.701H117.175z"/>
			<path d="M118.69,88.949l-0.318,1.049h-0.699l1.188-3.701h0.861l1.203,3.701h-0.73l-0.334-1.049H118.69z M119.751,88.438
				l-0.293-0.911c-0.07-0.227-0.131-0.479-0.186-0.693h-0.012c-0.055,0.215-0.115,0.473-0.176,0.693l-0.285,0.911H119.751z
				 M120.185,85.439l-0.688,0.658h-0.543l0.482-0.658H120.185z"/>
			<path d="M121.429,89.262c0.215,0.127,0.549,0.236,0.895,0.236c0.43,0,0.67-0.203,0.67-0.505c0-0.28-0.186-0.444-0.652-0.615
				c-0.615-0.22-1.006-0.544-1.006-1.077c0-0.609,0.506-1.064,1.312-1.064c0.402,0,0.693,0.088,0.885,0.186l-0.158,0.545
				c-0.139-0.072-0.396-0.176-0.742-0.176c-0.43,0-0.609,0.225-0.609,0.444c0,0.286,0.213,0.417,0.707,0.61
				c0.645,0.241,0.951,0.565,0.951,1.098c0,0.6-0.451,1.115-1.4,1.115c-0.396,0-0.803-0.109-1.006-0.236L121.429,89.262z"/>
		</g>
	</g>
	<g>
		<g>
			<path d="M13.337,72.695c-0.745,0.359-2.39,0.77-4.498,0.77C3.341,73.465,0,70.022,0,64.729c0-5.707,3.983-9.149,9.277-9.149
				c2.08,0,3.545,0.438,4.188,0.771l-0.67,2.519c-0.822-0.359-1.979-0.668-3.391-0.668c-3.521,0-6.064,2.211-6.064,6.373
				c0,3.828,2.209,6.244,6.039,6.244c1.259,0,2.594-0.256,3.442-0.617L13.337,72.695z"/>
			<path d="M21.766,55.862v17.321h-3.16V55.862H21.766z"/>
			<path d="M31.431,68.275l-1.491,4.908h-3.264l5.55-17.321h4.036l5.626,17.321h-3.417l-1.567-4.908H31.431z M36.389,65.885
				l-1.361-4.266c-0.335-1.053-0.617-2.235-0.873-3.238h-0.053c-0.256,1.003-0.539,2.211-0.822,3.238l-1.336,4.266H36.389z"/>
			<path d="M46.874,56.119c1.209-0.23,2.955-0.385,4.779-0.385c2.494,0,4.162,0.411,5.346,1.389c0.951,0.796,1.49,2.004,1.49,3.494
				c0,2.236-1.516,3.751-3.16,4.317v0.077c1.258,0.462,2.004,1.671,2.415,3.34c0.565,2.159,1.028,4.164,1.362,4.832h-3.238
				c-0.257-0.515-0.693-1.928-1.158-4.086c-0.512-2.262-1.308-2.981-3.107-3.031h-1.594v7.117h-3.135V56.119z M50.009,63.752h1.876
				c2.132,0,3.444-1.13,3.444-2.854c0-1.876-1.312-2.773-3.365-2.773c-1.004,0-1.646,0.076-1.955,0.152V63.752z"/>
		</g>
		<g>
			<g>
				<path d="M3.269,83.459c-0.17,0.088-0.527,0.176-0.979,0.176c-1.043,0-1.822-0.658-1.822-1.879c0-1.164,0.785-1.943,1.933-1.943
					c0.456,0,0.753,0.098,0.879,0.164l-0.121,0.391c-0.176-0.088-0.434-0.154-0.741-0.154c-0.868,0-1.445,0.555-1.445,1.527
					c0,0.912,0.522,1.488,1.418,1.488c0.297,0,0.593-0.061,0.785-0.154L3.269,83.459z"/>
				<path d="M5.963,81.839H4.529v1.335h1.604v0.4H4.046v-3.701h2.005v0.4H4.529v1.17h1.434V81.839z"/>
				<path d="M6.933,83.574v-3.701H7.46l1.182,1.873c0.27,0.434,0.488,0.823,0.659,1.203l0.017-0.006
					c-0.044-0.494-0.055-0.945-0.055-1.521v-1.549h0.45v3.701H9.229l-1.176-1.879c-0.258-0.411-0.506-0.834-0.687-1.235
					l-0.017,0.005c0.027,0.468,0.033,0.912,0.033,1.527v1.582H6.933z"/>
				<path d="M11.429,80.279h-1.125v-0.406h2.74v0.406h-1.131v3.295h-0.484V80.279z"/>
				<path d="M13.636,79.922c0.241-0.044,0.593-0.077,0.917-0.077c0.511,0,0.846,0.099,1.071,0.302
					c0.182,0.166,0.291,0.418,0.291,0.709c0,0.483-0.308,0.808-0.692,0.939v0.017c0.28,0.099,0.45,0.362,0.538,0.747
					c0.121,0.516,0.209,0.873,0.286,1.016h-0.495c-0.06-0.109-0.143-0.422-0.241-0.884c-0.11-0.511-0.313-0.703-0.747-0.72h-0.45
					v1.604h-0.478V79.922z M14.113,81.607h0.489c0.51,0,0.834-0.279,0.834-0.703c0-0.477-0.346-0.686-0.852-0.686
					c-0.23,0-0.39,0.016-0.472,0.038V81.607z"/>
				<path d="M19.95,81.686c0,1.269-0.774,1.949-1.719,1.949c-0.984,0-1.665-0.764-1.665-1.884c0-1.175,0.726-1.944,1.714-1.944
					C19.296,79.807,19.95,80.581,19.95,81.686z M17.071,81.74c0,0.797,0.429,1.505,1.188,1.505c0.758,0,1.186-0.698,1.186-1.538
					c0-0.742-0.384-1.511-1.181-1.511C17.468,80.196,17.071,80.933,17.071,81.74z"/>
				<path d="M22.57,79.873v3.701h-0.482v-3.701H22.57z"/>
				<path d="M23.586,83.574v-3.701h0.527l1.182,1.873c0.269,0.434,0.488,0.823,0.658,1.203l0.017-0.006
					c-0.044-0.494-0.055-0.945-0.055-1.521v-1.549h0.45v3.701h-0.483l-1.175-1.879c-0.259-0.411-0.506-0.834-0.688-1.235
					l-0.016,0.005c0.027,0.468,0.032,0.912,0.032,1.527v1.582H23.586z"/>
				<path d="M28.082,80.279h-1.126v-0.406h2.741v0.406h-1.132v3.295h-0.483V80.279z"/>
				<path d="M32.199,81.839h-1.434v1.335h1.604v0.4h-2.087v-3.701h2.004v0.4h-1.521v1.17h1.434V81.839z"/>
				<path d="M35.993,83.41c-0.214,0.082-0.643,0.203-1.143,0.203c-0.56,0-1.021-0.143-1.384-0.488
					c-0.318-0.309-0.517-0.803-0.517-1.379c0-1.105,0.764-1.912,2.005-1.912c0.429,0,0.77,0.094,0.929,0.17l-0.121,0.391
					c-0.198-0.094-0.444-0.16-0.818-0.16c-0.901,0-1.489,0.561-1.489,1.489c0,0.938,0.561,1.494,1.429,1.494
					c0.313,0,0.527-0.044,0.638-0.099v-1.104h-0.748v-0.384h1.22V83.41z"/>
				<path d="M36.896,79.922c0.242-0.044,0.594-0.077,0.918-0.077c0.511,0,0.846,0.099,1.071,0.302
					c0.181,0.166,0.291,0.418,0.291,0.709c0,0.483-0.308,0.808-0.692,0.939v0.017c0.28,0.099,0.451,0.362,0.539,0.747
					c0.12,0.516,0.208,0.873,0.285,1.016h-0.494c-0.061-0.109-0.143-0.422-0.242-0.884c-0.109-0.511-0.312-0.703-0.747-0.72h-0.45
					v1.604h-0.479V79.922z M37.375,81.607h0.488c0.512,0,0.836-0.279,0.836-0.703c0-0.477-0.347-0.686-0.852-0.686
					c-0.23,0-0.391,0.016-0.473,0.038V81.607z"/>
				<path d="M40.657,82.41l-0.384,1.164h-0.495l1.263-3.701h0.571l1.264,3.701h-0.512L41.97,82.41H40.657z M41.876,82.037
					l-0.368-1.066c-0.083-0.242-0.138-0.461-0.192-0.676h-0.011c-0.056,0.215-0.11,0.445-0.187,0.67l-0.362,1.072H41.876z"/>
				<path d="M43.599,79.928c0.291-0.05,0.637-0.083,1.016-0.083c0.687,0,1.176,0.165,1.5,0.462c0.335,0.302,0.527,0.73,0.527,1.329
					c0,0.604-0.192,1.099-0.533,1.438c-0.352,0.347-0.923,0.533-1.643,0.533c-0.346,0-0.626-0.016-0.867-0.043V79.928z
					 M44.076,83.201c0.12,0.017,0.296,0.021,0.483,0.021c1.027,0,1.576-0.57,1.576-1.57c0.006-0.873-0.488-1.428-1.5-1.428
					c-0.246,0-0.434,0.021-0.56,0.049V83.201z"/>
				<path d="M50.599,81.686c0,1.269-0.773,1.949-1.719,1.949c-0.983,0-1.664-0.764-1.664-1.884c0-1.175,0.725-1.944,1.713-1.944
					C49.945,79.807,50.599,80.581,50.599,81.686z M47.721,81.74c0,0.797,0.429,1.505,1.187,1.505s1.187-0.698,1.187-1.538
					c0-0.742-0.385-1.511-1.181-1.511C48.116,80.196,47.721,80.933,47.721,81.74z"/>
				<path d="M52.743,79.928c0.291-0.05,0.637-0.083,1.016-0.083c0.687,0,1.176,0.165,1.5,0.462c0.335,0.302,0.527,0.73,0.527,1.329
					c0,0.604-0.192,1.099-0.533,1.438c-0.352,0.347-0.923,0.533-1.643,0.533c-0.346,0-0.626-0.016-0.867-0.043V79.928z
					 M53.221,83.201c0.12,0.017,0.296,0.021,0.483,0.021c1.027,0,1.576-0.57,1.576-1.57c0.006-0.873-0.488-1.428-1.5-1.428
					c-0.246,0-0.434,0.021-0.56,0.049V83.201z"/>
				<path d="M58.491,81.839h-1.434v1.335h1.604v0.4h-2.087v-3.701h2.005v0.4h-1.521v1.17h1.434V81.839z"/>
				<path d="M1.115,88.997l-0.383,1.165H0.237L1.5,86.459h0.571l1.264,3.703H2.823l-0.395-1.165H1.115z M2.335,88.623l-0.368-1.064
					c-0.083-0.242-0.138-0.463-0.192-0.676H1.764c-0.056,0.213-0.11,0.444-0.187,0.67l-0.363,1.07H2.335z"/>
				<path d="M3.876,86.504c0.23-0.039,0.533-0.072,0.918-0.072c0.472,0,0.818,0.109,1.037,0.308
					c0.198,0.176,0.324,0.444,0.324,0.774c0,0.336-0.099,0.6-0.285,0.791c-0.258,0.27-0.665,0.406-1.132,0.406
					c-0.143,0-0.274-0.005-0.384-0.033v1.484H3.876V86.504z M4.354,88.289c0.104,0.027,0.235,0.037,0.395,0.037
					c0.577,0,0.929-0.285,0.929-0.785c0-0.494-0.352-0.73-0.874-0.73c-0.208,0-0.367,0.017-0.449,0.039V88.289z"/>
				<path d="M6.796,86.509c0.242-0.044,0.594-0.077,0.918-0.077c0.511,0,0.846,0.1,1.071,0.303c0.181,0.164,0.291,0.417,0.291,0.708
					c0,0.483-0.308,0.808-0.692,0.939v0.017c0.28,0.099,0.451,0.362,0.539,0.747c0.12,0.517,0.208,0.874,0.285,1.017H8.714
					c-0.061-0.11-0.143-0.424-0.242-0.885c-0.109-0.512-0.312-0.703-0.747-0.72h-0.45v1.604H6.796V86.509z M7.274,88.195h0.488
					c0.512,0,0.836-0.28,0.836-0.703c0-0.479-0.347-0.688-0.852-0.688c-0.23,0-0.391,0.018-0.473,0.039V88.195z"/>
				<path d="M11.661,88.426h-1.434v1.335h1.604v0.401H9.744v-3.703h2.005v0.401h-1.521v1.17h1.434V88.426z"/>
				<path d="M12.45,90.162v-3.703h0.527l1.182,1.873c0.269,0.434,0.488,0.824,0.658,1.203l0.017-0.006
					c-0.044-0.494-0.055-0.944-0.055-1.521v-1.549h0.45v3.703h-0.483l-1.175-1.879c-0.259-0.412-0.506-0.836-0.688-1.236
					l-0.016,0.006c0.027,0.467,0.032,0.912,0.032,1.527v1.582H12.45z"/>
				<path d="M16.062,86.514c0.291-0.049,0.638-0.082,1.017-0.082c0.687,0,1.176,0.165,1.5,0.461c0.335,0.303,0.527,0.73,0.527,1.33
					c0,0.604-0.192,1.099-0.533,1.439c-0.352,0.346-0.923,0.533-1.643,0.533c-0.346,0-0.626-0.018-0.868-0.045V86.514z
					 M16.54,89.788c0.121,0.017,0.297,0.022,0.483,0.022c1.027,0,1.576-0.572,1.576-1.572c0.006-0.873-0.489-1.428-1.499-1.428
					c-0.248,0-0.435,0.021-0.561,0.05V89.788z"/>
				<path d="M20.196,86.459v3.703h-0.484v-3.703H20.196z"/>
				<path d="M20.777,89.881l2.048-3.004V86.86h-1.873v-0.401h2.499v0.291l-2.043,2.994v0.017h2.07v0.401h-2.701V89.881z"/>
				<path d="M24.663,88.997l-0.384,1.165h-0.495l1.264-3.703h0.571l1.264,3.703h-0.512l-0.395-1.165H24.663z M25.883,88.623
					l-0.368-1.064c-0.083-0.242-0.138-0.463-0.192-0.676h-0.011c-0.056,0.213-0.11,0.444-0.187,0.67l-0.363,1.07H25.883z"/>
				<path d="M30.165,89.996c-0.214,0.083-0.644,0.204-1.143,0.204c-0.561,0-1.022-0.144-1.385-0.489
					c-0.318-0.307-0.517-0.802-0.517-1.379c0-1.104,0.764-1.911,2.006-1.911c0.428,0,0.769,0.093,0.928,0.171l-0.121,0.389
					c-0.197-0.093-0.444-0.158-0.818-0.158c-0.9,0-1.488,0.561-1.488,1.488c0,0.939,0.561,1.494,1.428,1.494
					c0.313,0,0.527-0.044,0.638-0.1v-1.104h-0.747v-0.385h1.22V89.996z"/>
				<path d="M32.799,88.426h-1.434v1.335h1.604v0.401h-2.087v-3.703h2.005v0.401h-1.521v1.17h1.434V88.426z"/>
				<path d="M36.708,88.535c-0.027-0.516-0.061-1.143-0.061-1.598h-0.011c-0.132,0.428-0.28,0.895-0.467,1.406l-0.654,1.796h-0.362
					l-0.604-1.763c-0.176-0.527-0.318-1-0.423-1.439h-0.011c-0.011,0.461-0.039,1.076-0.071,1.637l-0.099,1.588h-0.456l0.258-3.703
					h0.61l0.631,1.791c0.154,0.456,0.275,0.862,0.374,1.247h0.011c0.1-0.374,0.23-0.78,0.396-1.247l0.659-1.791h0.609l0.231,3.703
					h-0.473L36.708,88.535z"/>
				<path d="M41.075,88.426h-1.433v1.335h1.603v0.401h-2.086v-3.703h2.004v0.401h-1.521v1.17h1.433V88.426z"/>
				<path d="M44.984,88.535c-0.027-0.516-0.061-1.143-0.061-1.598h-0.011c-0.132,0.428-0.28,0.895-0.467,1.406l-0.654,1.796H43.43
					l-0.604-1.763c-0.176-0.527-0.318-1-0.423-1.439h-0.011c-0.011,0.461-0.039,1.076-0.071,1.637l-0.099,1.588h-0.456l0.258-3.703
					h0.61l0.631,1.791c0.154,0.456,0.275,0.862,0.374,1.247h0.011c0.1-0.374,0.23-0.78,0.396-1.247l0.659-1.791h0.609l0.231,3.703
					h-0.473L44.984,88.535z"/>
				<path d="M47.44,86.509c0.242-0.044,0.594-0.077,0.918-0.077c0.511,0,0.846,0.1,1.071,0.303c0.181,0.164,0.291,0.417,0.291,0.708
					c0,0.483-0.308,0.808-0.692,0.939v0.017c0.28,0.099,0.451,0.362,0.539,0.747c0.12,0.517,0.208,0.874,0.285,1.017h-0.494
					c-0.061-0.11-0.143-0.424-0.242-0.885c-0.109-0.512-0.312-0.703-0.747-0.72h-0.45v1.604H47.44V86.509z M47.919,88.195h0.488
					c0.512,0,0.836-0.28,0.836-0.703c0-0.479-0.347-0.688-0.852-0.688c-0.23,0-0.391,0.018-0.473,0.039V88.195z"/>
				<path d="M52.306,88.426h-1.434v1.335h1.604v0.401h-2.087v-3.703h2.005v0.401h-1.521v1.17h1.434V88.426z"/>
				<path d="M53.095,86.514c0.291-0.049,0.637-0.082,1.016-0.082c0.688,0,1.176,0.165,1.5,0.461c0.336,0.303,0.527,0.73,0.527,1.33
					c0,0.604-0.191,1.099-0.533,1.439c-0.352,0.346-0.922,0.533-1.642,0.533c-0.347,0-0.626-0.018-0.868-0.045V86.514z
					 M53.573,89.788c0.12,0.017,0.296,0.022,0.482,0.022c1.027,0,1.577-0.572,1.577-1.572c0.005-0.873-0.489-1.428-1.5-1.428
					c-0.247,0-0.434,0.021-0.56,0.05V89.788z"/>
				<path d="M58.662,88.426h-1.434v1.335h1.604v0.401h-2.088v-3.703h2.005v0.401h-1.521v1.17h1.434V88.426z"/>
			</g>
		</g>
	</g>
</g>
</svg>
