<?xml version="1.0" encoding="utf-8"?>
<!-- Generator: Adobe Illustrator 16.0.0, SVG Export Plug-In . SVG Version: 6.00 Build 0)  -->
<!DOCTYPE svg PUBLIC "-//W3C//DTD SVG 1.1//EN" "http://www.w3.org/Graphics/SVG/1.1/DTD/svg11.dtd">
<svg version="1.1" id="Camada_1" xmlns="http://www.w3.org/2000/svg" xmlns:xlink="http://www.w3.org/1999/xlink" x="0px" y="0px"
	 width="61.366px" height="33.369px" viewBox="0 0 61.366 33.369" enable-background="new 0 0 61.366 33.369" xml:space="preserve">
<g>
	<path fill-rule="evenodd" clip-rule="evenodd" d="M18.863,13.837c-0.754,0.053-1.519,0.114-2.289,0.189h-0.003
		c-0.497,0.049-1.022,0.124-1.568,0.226c-0.55,0.103-1.12,0.231-1.698,0.386c-2.97,0.791-6.19,2.238-8.341,4.152
		c-0.519,0.462-1.075,1.076-1.527,1.799c-0.522,0.837-0.904,1.816-0.913,2.864c-0.008,1.04,0.354,2.172,1.318,3.331
		c0.571,0.688,1.353,1.386,2.387,2.08c0.541,0.362,1.1,0.709,1.702,1.047v0.003c0.294,0.165,0.594,0.325,0.902,0.481
		c0.003-0.331,0.019-0.657,0.047-0.976c0.149-1.729,0.627-3.224,1.074-4.268l0,0v-0.001c0.349-0.815,0.763-1.622,1.227-2.414
		c0.458-0.781,0.957-1.536,1.48-2.26C14.656,17.729,17.038,15.401,18.863,13.837 M23.228,13.657
		c-0.062,0.045-0.137,0.098-0.223,0.159c-0.076,0.055-0.204,0.146-0.383,0.276c-0.646,0.47-1.287,0.959-1.915,1.464l0,0
		l-0.001,0.002c-0.576,0.462-1.131,0.936-1.66,1.416c-0.539,0.49-1.069,1.003-1.586,1.539c-2.629,2.729-4.82,5.979-5.855,9.604
		v0.003h0h0c-0.023,0.079-0.046,0.173-0.069,0.275c-0.023,0.106-0.047,0.234-0.071,0.384c-0.095,0.588-0.161,1.401-0.084,2.334
		c-0.024,1.835-1.006,2.57-2.213,2.131c-2.431-0.973-4.323-2.041-5.752-3.259c-1.534-1.306-2.532-2.776-3.086-4.472v-0.001l0,0
		c-0.189-0.579-0.292-1.153-0.32-1.719c-0.029-0.562,0.017-1.113,0.125-1.65c0.536-2.677,2.617-4.973,4.665-6.443l0,0L4.799,15.7
		c0.3-0.216,0.646-0.442,1.027-0.672c0.369-0.222,0.79-0.458,1.258-0.701c2.332-1.209,5.58-2.438,8.912-2.893
		c1.178-0.16,2.342-0.271,3.485-0.34c1.069-0.065,2.137-0.095,3.194-0.099c1.314-0.872,2.648-1.682,3.991-2.431
		c1.397-0.779,2.801-1.493,4.2-2.146c7.102-3.315,14.135-5.091,19.563-5.938c0.063-0.059,0.124-0.107,0.185-0.149
		C50.952,0.099,51.366,0,51.731,0l0,0v0.003c0.497,0,0.945,0.209,1.269,0.546s0.521,0.802,0.521,1.313h0.003l0,0l0,0h-0.003
		c0,0.513-0.198,0.978-0.521,1.314s-0.771,0.546-1.269,0.546v0.003l0,0H51.73V3.723c-0.27,0-0.522-0.061-0.749-0.169
		c-0.057-0.027-0.111-0.058-0.161-0.088c-0.135-0.082-0.259-0.185-0.368-0.3C49.36,3.3,48.253,3.47,47.137,3.676
		c-1.249,0.23-2.484,0.501-3.702,0.808C37.79,5.907,32.177,8.186,27.144,11.14C25.424,12.193,25.24,12.484,23.228,13.657z"/>
	<path d="M8.947,23.736h0.356c0.121,0,0.206-0.021,0.254-0.063c0.049-0.043,0.074-0.1,0.074-0.172c0-0.067-0.024-0.12-0.073-0.161
		c-0.048-0.041-0.134-0.062-0.257-0.062H8.947V23.736z M8.947,22.849H9.25c0.109,0,0.185-0.02,0.228-0.057
		c0.043-0.038,0.064-0.092,0.064-0.163c0-0.065-0.021-0.117-0.064-0.154s-0.117-0.056-0.223-0.056H8.947V22.849z M8.242,21.961
		h1.309c0.217,0,0.385,0.054,0.501,0.162c0.117,0.108,0.175,0.241,0.175,0.4c0,0.134-0.042,0.249-0.125,0.345
		c-0.056,0.063-0.137,0.114-0.244,0.15c0.162,0.04,0.282,0.106,0.359,0.201c0.076,0.097,0.115,0.215,0.115,0.358
		c0,0.118-0.027,0.224-0.082,0.318c-0.055,0.093-0.129,0.167-0.223,0.221c-0.059,0.035-0.147,0.06-0.266,0.074
		c-0.157,0.021-0.262,0.031-0.313,0.031H8.242V21.961z M7.028,23.359l-0.25-0.813l-0.249,0.813H7.028z M7.174,23.849H6.378
		l-0.11,0.374H5.555l0.85-2.262h0.762l0.851,2.262H7.286L7.174,23.849z M4.73,21.961h0.698v1.349c0,0.134-0.021,0.26-0.062,0.378
		c-0.042,0.119-0.107,0.223-0.196,0.312c-0.089,0.09-0.183,0.152-0.281,0.188c-0.136,0.05-0.298,0.074-0.489,0.074
		c-0.11,0-0.23-0.007-0.36-0.022c-0.13-0.015-0.239-0.046-0.326-0.091c-0.087-0.047-0.168-0.112-0.24-0.196
		c-0.073-0.084-0.122-0.171-0.149-0.261C3.282,23.548,3.26,23.42,3.26,23.31v-1.349h0.698v1.38c0,0.124,0.034,0.221,0.102,0.289
		c0.068,0.07,0.163,0.105,0.285,0.105c0.12,0,0.214-0.035,0.283-0.103c0.068-0.068,0.102-0.166,0.102-0.292V21.961z"/>
	<path d="M20.929,26.748l-0.309-1.003l-0.306,1.003H20.929z M21.11,27.352h-0.983l-0.135,0.461h-0.881l1.048-2.79h0.94l1.049,2.79
		h-0.902L21.11,27.352z"/>
	<path d="M23.296,26.116h0.375c0.134,0,0.228-0.023,0.281-0.069c0.053-0.047,0.079-0.113,0.079-0.2c0-0.081-0.026-0.145-0.079-0.19
		s-0.145-0.068-0.275-0.068h-0.38V26.116z M23.296,27.213h0.44c0.149,0,0.253-0.026,0.314-0.078
		c0.061-0.053,0.091-0.124,0.091-0.213c0-0.082-0.029-0.148-0.09-0.199c-0.061-0.05-0.166-0.074-0.317-0.074h-0.438V27.213z
		 M22.426,25.022h1.614c0.269,0,0.476,0.066,0.62,0.2c0.144,0.132,0.216,0.298,0.216,0.494c0,0.165-0.051,0.307-0.154,0.425
		c-0.069,0.078-0.169,0.142-0.301,0.187c0.2,0.048,0.347,0.131,0.442,0.248c0.094,0.117,0.142,0.265,0.142,0.442
		c0,0.145-0.034,0.275-0.101,0.391c-0.067,0.115-0.159,0.207-0.276,0.274c-0.072,0.041-0.182,0.072-0.328,0.091
		c-0.194,0.024-0.323,0.038-0.387,0.038h-1.488V25.022z"/>
	<path d="M29.149,26.152h0.364c0.039,0,0.115-0.012,0.228-0.037c0.057-0.012,0.104-0.041,0.14-0.088
		c0.036-0.047,0.054-0.101,0.054-0.162c0-0.09-0.028-0.159-0.085-0.207c-0.058-0.049-0.165-0.073-0.322-0.073h-0.378V26.152z
		 M28.283,27.812v-2.79h1.437c0.266,0,0.471,0.022,0.611,0.069c0.141,0.045,0.254,0.129,0.341,0.253
		c0.086,0.123,0.129,0.274,0.129,0.452c0,0.155-0.033,0.288-0.099,0.4c-0.067,0.112-0.157,0.203-0.272,0.274
		c-0.074,0.043-0.175,0.08-0.303,0.108c0.103,0.035,0.177,0.069,0.225,0.104c0.031,0.022,0.077,0.071,0.138,0.146
		c0.06,0.075,0.101,0.133,0.121,0.174l0.417,0.809h-0.975l-0.46-0.853c-0.058-0.11-0.111-0.183-0.157-0.216
		c-0.062-0.043-0.132-0.063-0.211-0.063h-0.076v1.132H28.283z"/>
	<path d="M35.356,26.748l-0.309-1.003l-0.307,1.003H35.356z M35.537,27.352h-0.983l-0.135,0.461h-0.881l1.049-2.79h0.939l1.05,2.79
		h-0.902L35.537,27.352z"/>
	<path d="M39.024,25.654v1.524h0.212c0.181,0,0.309-0.021,0.385-0.061c0.075-0.039,0.136-0.109,0.179-0.209s0.064-0.261,0.064-0.484
		c0-0.295-0.048-0.497-0.145-0.606c-0.096-0.108-0.256-0.164-0.479-0.164H39.024z M38.163,25.022h1.281
		c0.252,0,0.456,0.034,0.612,0.103c0.155,0.069,0.283,0.167,0.385,0.295c0.102,0.129,0.175,0.277,0.222,0.447
		c0.045,0.17,0.067,0.351,0.067,0.541c0,0.298-0.034,0.529-0.103,0.694c-0.066,0.163-0.161,0.302-0.281,0.411
		c-0.121,0.112-0.25,0.186-0.389,0.223c-0.188,0.051-0.361,0.076-0.514,0.076h-1.281V25.022z"/>
	<path d="M41.937,26.423c0,0.282,0.052,0.483,0.157,0.607c0.104,0.123,0.247,0.185,0.428,0.185c0.185,0,0.328-0.061,0.43-0.181
		c0.102-0.121,0.152-0.338,0.152-0.648c0-0.264-0.054-0.456-0.159-0.577c-0.106-0.121-0.25-0.181-0.432-0.181
		c-0.173,0-0.313,0.061-0.419,0.185C41.99,25.936,41.937,26.14,41.937,26.423 M41.075,26.419c0-0.455,0.127-0.811,0.381-1.064
		c0.254-0.253,0.607-0.38,1.06-0.38c0.465,0,0.822,0.125,1.074,0.375c0.251,0.248,0.377,0.598,0.377,1.047
		c0,0.326-0.056,0.594-0.165,0.802c-0.11,0.208-0.269,0.371-0.477,0.488c-0.207,0.116-0.465,0.173-0.775,0.173
		c-0.314,0-0.574-0.05-0.781-0.149c-0.206-0.101-0.373-0.26-0.502-0.477C41.139,27.017,41.075,26.745,41.075,26.419z"/>
	<path d="M49.639,26.152h0.363c0.039,0,0.115-0.012,0.229-0.037c0.057-0.012,0.104-0.041,0.141-0.088
		c0.035-0.047,0.054-0.101,0.054-0.162c0-0.09-0.028-0.159-0.086-0.207c-0.057-0.049-0.165-0.073-0.321-0.073h-0.379V26.152z
		 M48.773,27.812v-2.79h1.437c0.268,0,0.471,0.022,0.611,0.069c0.141,0.045,0.255,0.129,0.342,0.253
		c0.086,0.123,0.129,0.274,0.129,0.452c0,0.155-0.033,0.288-0.1,0.4s-0.156,0.203-0.271,0.274c-0.074,0.043-0.176,0.08-0.303,0.108
		c0.103,0.035,0.178,0.069,0.225,0.104c0.031,0.022,0.078,0.071,0.138,0.146c0.061,0.075,0.101,0.133,0.121,0.174l0.417,0.809
		h-0.975l-0.46-0.853c-0.059-0.11-0.111-0.183-0.157-0.216c-0.062-0.043-0.133-0.063-0.211-0.063h-0.076v1.132H48.773z"/>
	<path d="M46.602,27.213h0.439c0.148,0,0.254-0.026,0.313-0.078c0.062-0.053,0.092-0.124,0.092-0.213
		c0-0.082-0.03-0.148-0.091-0.199c-0.061-0.05-0.165-0.074-0.316-0.074h-0.438V27.213z M46.602,26.116h0.374
		c0.135,0,0.229-0.023,0.282-0.069c0.052-0.047,0.078-0.113,0.078-0.2c0-0.081-0.026-0.145-0.078-0.19
		c-0.054-0.046-0.146-0.068-0.275-0.068h-0.381V26.116z M45.732,25.022h1.614c0.27,0,0.476,0.066,0.619,0.2
		c0.145,0.132,0.217,0.298,0.217,0.494c0,0.165-0.052,0.307-0.154,0.425c-0.068,0.078-0.169,0.142-0.301,0.187
		c0.199,0.048,0.348,0.131,0.442,0.248s0.142,0.265,0.142,0.442c0,0.145-0.033,0.275-0.102,0.391
		c-0.066,0.115-0.158,0.207-0.275,0.274c-0.072,0.041-0.182,0.072-0.328,0.091c-0.193,0.024-0.322,0.038-0.386,0.038h-1.488V25.022z
		"/>
	<path d="M53.331,26.748l-0.309-1.003l-0.307,1.003H53.331z M53.51,27.352h-0.982l-0.135,0.461h-0.881l1.049-2.79H53.5l1.049,2.79
		h-0.902L53.51,27.352z"/>
	<polygon points="59.157,25.022 60.02,25.022 60.02,27.125 61.366,27.125 61.366,27.812 59.157,27.812 	"/>
	<rect x="57.674" y="25.022" width="0.865" height="2.79"/>
	<path d="M54.675,26.89l0.82-0.052c0.018,0.134,0.054,0.235,0.108,0.305c0.088,0.114,0.217,0.169,0.381,0.169
		c0.123,0,0.218-0.028,0.285-0.086c0.066-0.058,0.1-0.125,0.1-0.201c0-0.071-0.031-0.137-0.096-0.194
		c-0.063-0.057-0.211-0.111-0.441-0.162c-0.379-0.084-0.647-0.196-0.809-0.338c-0.163-0.142-0.244-0.321-0.244-0.539
		c0-0.144,0.041-0.278,0.125-0.406c0.083-0.128,0.208-0.228,0.375-0.301c0.166-0.073,0.396-0.109,0.686-0.109
		c0.357,0,0.629,0.066,0.816,0.198c0.187,0.134,0.299,0.345,0.334,0.634l-0.812,0.048c-0.022-0.126-0.067-0.218-0.137-0.275
		c-0.069-0.057-0.164-0.085-0.286-0.085c-0.101,0-0.177,0.021-0.227,0.064c-0.051,0.042-0.076,0.094-0.076,0.155
		c0,0.043,0.021,0.084,0.062,0.119c0.041,0.037,0.137,0.07,0.29,0.103c0.377,0.081,0.646,0.164,0.809,0.246
		c0.164,0.084,0.283,0.187,0.356,0.311c0.074,0.122,0.111,0.26,0.111,0.413c0,0.179-0.05,0.344-0.148,0.493
		c-0.099,0.152-0.237,0.267-0.415,0.344c-0.178,0.079-0.402,0.117-0.672,0.117c-0.475,0-0.803-0.091-0.985-0.274
		C54.803,27.403,54.7,27.172,54.675,26.89"/>
	<polygon points="31.073,25.022 33.694,25.022 33.694,25.711 32.814,25.711 32.814,27.812 31.952,27.812 31.952,25.711 
		31.073,25.711 	"/>
	<polygon points="25.455,25.022 27.765,25.022 27.765,25.618 26.319,25.618 26.319,26.062 27.661,26.062 27.661,26.631 
		26.319,26.631 26.319,27.181 27.808,27.181 27.808,27.812 25.455,27.812 	"/>
	<path d="M52.428,22.109l-0.4-1.303l-0.398,1.303H52.428z M52.663,22.894h-1.275l-0.176,0.598h-1.145l1.362-3.624h1.222l1.363,3.624
		h-1.173L52.663,22.894z"/>
	<path d="M55.506,20.688v1.979h0.274c0.235,0,0.401-0.024,0.5-0.076s0.177-0.144,0.233-0.272c0.055-0.129,0.083-0.339,0.083-0.63
		c0-0.384-0.062-0.646-0.188-0.788s-0.333-0.213-0.624-0.213H55.506z M54.387,19.867h1.664c0.328,0,0.592,0.043,0.795,0.132
		c0.201,0.091,0.369,0.218,0.5,0.384c0.133,0.167,0.228,0.36,0.287,0.582c0.06,0.221,0.089,0.455,0.089,0.702
		c0,0.388-0.044,0.688-0.132,0.902c-0.088,0.213-0.211,0.392-0.367,0.535c-0.156,0.145-0.324,0.24-0.504,0.288
		c-0.246,0.066-0.469,0.099-0.668,0.099h-1.664V19.867z"/>
	<path d="M47.846,20.688v1.979h0.273c0.234,0,0.401-0.024,0.5-0.076c0.1-0.052,0.177-0.144,0.233-0.272
		c0.056-0.129,0.083-0.339,0.083-0.63c0-0.384-0.062-0.646-0.188-0.788s-0.333-0.213-0.623-0.213H47.846z M46.726,19.867h1.664
		c0.327,0,0.593,0.043,0.796,0.132c0.201,0.091,0.368,0.218,0.5,0.384c0.131,0.167,0.227,0.36,0.287,0.582
		c0.059,0.221,0.088,0.455,0.088,0.702c0,0.388-0.043,0.688-0.132,0.902c-0.089,0.213-0.21,0.392-0.367,0.535
		c-0.156,0.145-0.324,0.24-0.504,0.288c-0.245,0.066-0.468,0.099-0.668,0.099h-1.664V19.867z"/>
	<path d="M38.284,21.335h0.473c0.051,0,0.148-0.016,0.296-0.049c0.075-0.016,0.136-0.054,0.183-0.114s0.069-0.131,0.069-0.21
		c0-0.117-0.036-0.207-0.111-0.269c-0.073-0.063-0.214-0.096-0.417-0.096h-0.492V21.335z M37.159,23.491v-3.624h1.867
		c0.346,0,0.61,0.028,0.793,0.089c0.184,0.06,0.33,0.169,0.443,0.33c0.111,0.16,0.168,0.355,0.168,0.586
		c0,0.202-0.043,0.375-0.129,0.521s-0.204,0.264-0.354,0.355c-0.097,0.058-0.227,0.105-0.393,0.143
		c0.133,0.045,0.23,0.089,0.291,0.134c0.041,0.029,0.101,0.094,0.18,0.189c0.078,0.099,0.131,0.173,0.156,0.226l0.543,1.051h-1.267
		l-0.599-1.107c-0.076-0.143-0.145-0.236-0.203-0.279c-0.08-0.056-0.172-0.084-0.275-0.084h-0.098v1.471H37.159z"/>
	<polygon points="58.309,19.867 61.311,19.867 61.311,20.641 59.432,20.641 59.432,21.217 61.174,21.217 61.174,21.957 
		59.432,21.957 59.432,22.671 61.366,22.671 61.366,23.491 58.309,23.491 	"/>
	<rect x="44.784" y="19.867" width="1.123" height="3.624"/>
	<path d="M40.887,22.293l1.066-0.067c0.022,0.173,0.07,0.305,0.141,0.396c0.115,0.147,0.28,0.22,0.495,0.22
		c0.159,0,0.282-0.037,0.37-0.112c0.086-0.075,0.128-0.162,0.128-0.261c0-0.094-0.04-0.178-0.123-0.253
		c-0.083-0.074-0.273-0.144-0.573-0.209c-0.492-0.11-0.842-0.257-1.051-0.44c-0.211-0.184-0.317-0.416-0.317-0.699
		c0-0.187,0.055-0.363,0.163-0.528c0.107-0.166,0.27-0.296,0.486-0.391c0.217-0.096,0.514-0.143,0.892-0.143
		c0.463,0,0.817,0.086,1.06,0.259c0.243,0.173,0.388,0.446,0.434,0.822l-1.056,0.062c-0.028-0.163-0.087-0.282-0.177-0.356
		c-0.09-0.073-0.214-0.11-0.372-0.11c-0.13,0-0.229,0.026-0.294,0.082c-0.066,0.055-0.1,0.123-0.1,0.202
		c0,0.057,0.027,0.108,0.082,0.154c0.053,0.049,0.178,0.093,0.376,0.135c0.489,0.104,0.84,0.212,1.052,0.319
		c0.212,0.109,0.367,0.242,0.463,0.402s0.145,0.339,0.145,0.537c0,0.232-0.064,0.446-0.193,0.643
		c-0.128,0.196-0.308,0.345-0.539,0.446c-0.23,0.102-0.521,0.152-0.873,0.152c-0.615,0-1.043-0.119-1.28-0.356
		C41.052,22.96,40.918,22.658,40.887,22.293"/>
	<polygon points="33.483,19.867 36.485,19.867 36.485,20.641 34.606,20.641 34.606,21.217 36.35,21.217 36.35,21.957 34.606,21.957 
		34.606,22.671 36.54,22.671 36.54,23.491 33.483,23.491 	"/>
	<polygon points="29.188,19.867 30.36,19.867 31.176,22.476 31.98,19.867 33.118,19.867 31.772,23.491 30.558,23.491 	"/>
	<rect x="27.621" y="19.867" width="1.122" height="3.624"/>
	<polygon points="23.364,19.867 24.411,19.867 25.776,21.872 25.776,19.867 26.832,19.867 26.832,23.491 25.776,23.491 
		24.417,21.501 24.417,23.491 23.364,23.491 	"/>
	<path d="M21.498,19.867h1.118v2.16c0,0.215-0.033,0.417-0.1,0.607s-0.171,0.357-0.314,0.5c-0.143,0.143-0.292,0.242-0.449,0.3
		c-0.218,0.081-0.479,0.121-0.784,0.121c-0.177,0-0.37-0.011-0.578-0.037c-0.208-0.024-0.383-0.073-0.522-0.146
		c-0.14-0.074-0.268-0.178-0.385-0.313c-0.116-0.135-0.195-0.274-0.239-0.418c-0.069-0.23-0.104-0.434-0.104-0.613v-2.16h1.118
		v2.212c0,0.199,0.055,0.354,0.164,0.464c0.109,0.111,0.261,0.167,0.457,0.167c0.192,0,0.344-0.055,0.454-0.164
		c0.109-0.108,0.165-0.266,0.165-0.467V19.867z"/>
</g>
</svg>
